<?xml version="1.0" standalone="no"?>
<!DOCTYPE svg PUBLIC "-//W3C//DTD SVG 1.1//EN" "http://www.w3.org/Graphics/SVG/1.1/DTD/svg11.dtd" >
<svg xmlns="http://www.w3.org/2000/svg" xmlns:xlink="http://www.w3.org/1999/xlink" version="1.1">
<metadata>
Created by FontForge 20170910 at Tue Nov 28 10:57:39 2017
 By Jimmy Wärting
\\\(c\\\) 2017 IBM Corp. All rights reserved.
</metadata>
<defs>
<font id="iAWriterDuospace-Bold" horiz-adv-x="600" >
  <font-face 
    font-family="iA Writer Duospace Bold"
    font-weight="700"
    font-stretch="normal"
    units-per-em="1000"
    panose-1="2 11 5 9 5 0 0 0 0 0"
    ascent="780"
    descent="-220"
    x-height="516"
    cap-height="698"
    bbox="-307 -269 908 1150"
    underline-thickness="100"
    underline-position="-150"
    stemh="115"
    stemv="100"
    unicode-range="U+0020-FB02"
  />
<missing-glyph 
d="M50 670h500v-920h-500v920z" />
    <glyph glyph-name=".notdef" 
d="M50 670h500v-920h-500v920z" />
    <glyph glyph-name="a" unicode="a" 
d="M487 0c-61 0 -101 33 -107 91h-5c-18 -67 -78 -103 -157 -103c-100 0 -166 57 -166 154c0 108 81 159 232 159h83v26c0 61 -26 93 -94 93c-62 0 -98 -27 -126 -65l-81 72c34 58 109 101 224 101c141 0 225 -65 225 -195v-226h57v-107h-85zM274 85c52 0 93 26 93 74v62
h-79c-59 0 -91 -21 -91 -61v-20c0 -36 30 -55 77 -55z" />
    <glyph glyph-name="a.alt01" 
d="M393 94h-7c-26 -62 -70 -106 -153 -106c-114 0 -194 83 -194 270s80 270 194 270c83 0 127 -44 153 -106h7v94h148v-516h-148v94zM297 103c52 0 96 25 96 79v152c0 54 -44 79 -96 79c-66 0 -104 -43 -104 -115v-80c0 -72 38 -115 104 -115z" />
    <glyph glyph-name="b" unicode="b" 
d="M59 740h148v-318h7c26 62 70 106 153 106c114 0 194 -83 194 -270s-80 -270 -194 -270c-83 0 -127 44 -153 106h-7v-94h-148v740zM303 103c66 0 104 43 104 115v80c0 72 -38 115 -104 115c-52 0 -96 -25 -96 -79v-152c0 -54 44 -79 96 -79z" />
    <glyph glyph-name="c" unicode="c" 
d="M321 -12c-163 0 -261 103 -261 270s99 270 260 270c113 0 179 -51 215 -126l-114 -62c-18 40 -46 70 -101 70c-67 0 -106 -42 -106 -110v-84c0 -68 38 -110 108 -110c57 0 87 30 109 72l112 -64c-37 -75 -107 -126 -222 -126z" />
    <glyph glyph-name="d" unicode="d" 
d="M393 94h-7c-26 -62 -70 -106 -153 -106c-114 0 -194 83 -194 270s80 270 194 270c83 0 127 -44 153 -106h7v318h148v-740h-148v94zM297 103c52 0 96 25 96 79v152c0 54 -44 79 -96 79c-66 0 -104 -43 -104 -115v-80c0 -72 38 -115 104 -115z" />
    <glyph glyph-name="e" unicode="e" 
d="M314 -12c-173 0 -264 103 -264 268c0 169 96 272 251 272c154 0 249 -101 249 -262v-44h-353v-9c0 -66 43 -111 122 -111c61 0 104 26 136 64l80 -87c-40 -49 -110 -91 -221 -91zM302 422c-64 0 -105 -43 -105 -109v-8h208v8c0 67 -39 109 -103 109z" />
    <glyph glyph-name="f" unicode="f" 
d="M71 115h152v286h-162v115h162v75c0 87 50 149 158 149h175v-115h-185v-109h185v-115h-185v-286h162v-115h-462v115z" />
    <glyph glyph-name="g" unicode="g" 
d="M541 31c0 -153 -88 -243 -261 -243c-103 0 -169 32 -210 75l79 94c34 -35 76 -53 127 -53c80 0 117 43 117 114v103h-7c-26 -62 -70 -107 -153 -107c-114 0 -194 84 -194 257s80 257 194 257c83 0 127 -44 153 -106h7v94h148v-485zM297 129c52 0 96 25 96 79v126
c0 54 -44 79 -96 79c-66 0 -104 -43 -104 -115v-53c0 -72 38 -116 104 -116z" />
    <glyph glyph-name="g.alt01" 
d="M583 -52c0 -109 -90 -160 -286 -160s-250 49 -250 119c0 58 37 85 99 101v6c-44 13 -72 36 -72 81c0 50 37 71 93 84v6c-61 29 -97 83 -97 159c0 120 89 184 224 184c33 0 64 -4 91 -11v28c0 40 30 70 79 70h91v-108h-124v-9c56 -29 89 -81 89 -154
c0 -119 -90 -184 -226 -184c-30 0 -59 3 -84 10c-15 -8 -26 -20 -26 -38c0 -33 35 -35 76 -35h118c148 0 205 -62 205 -149zM443 -63c0 27 -17 43 -77 43h-177c-13 -11 -20 -25 -20 -42c0 -32 25 -55 90 -55h87c67 0 97 19 97 54zM294 254c59 0 86 33 86 78v24
c0 45 -27 78 -86 78c-58 0 -84 -33 -84 -78v-24c0 -45 26 -78 84 -78z" />
    <glyph glyph-name="g.alt02" 
d="M297 -212c-196 0 -250 49 -250 119c0 58 37 85 99 101v6c-44 13 -72 36 -72 81c0 50 37 71 93 84v6c-61 30 -97 84 -97 160c0 119 89 183 226 183c33 0 64 -4 91 -12h194v-98h-83c16 -21 22 -45 22 -76c0 -116 -90 -182 -226 -182c-30 0 -59 3 -84 10
c-15 -8 -26 -20 -26 -38c0 -33 35 -35 76 -35h118c148 0 205 -62 205 -149c0 -109 -90 -160 -286 -160zM294 254c59 0 86 33 86 78v24c0 45 -27 78 -86 78c-58 0 -84 -33 -84 -78v-24c0 -45 26 -78 84 -78zM443 -63c0 27 -17 43 -77 43h-177c-13 -11 -20 -25 -20 -42
c0 -32 25 -55 90 -55h87c67 0 97 19 97 54z" />
    <glyph glyph-name="h" unicode="h" 
d="M65 740h148v-318h6c23 58 69 106 152 106c99 0 168 -69 168 -194v-334h-148v314c0 65 -29 100 -87 100c-46 0 -91 -25 -91 -75v-339h-148v740z" />
    <glyph glyph-name="i" unicode="i" 
d="M332 582c-66 0 -89 31 -89 70v29c0 40 23 70 89 70s89 -30 89 -70v-29c0 -39 -23 -70 -89 -70zM94 115h164v286h-164v115h312v-401h152v-115h-464v115z" />
    <glyph glyph-name="j" unicode="j" 
d="M92 -85h198v486h-200v115h348v-567c0 -87 -51 -149 -157 -149h-189v115zM364 582c-66 0 -89 31 -89 70v29c0 40 23 70 89 70c65 0 89 -30 89 -70v-29c0 -39 -24 -70 -89 -70z" />
    <glyph glyph-name="k" unicode="k" 
d="M65 740h148v-420h7l69 81l108 115h170l-200 -204l221 -312h-176l-150 228l-49 -49v-179h-148v740z" />
    <glyph glyph-name="l" unicode="l" 
d="M68 115h158v510h-158v115h306v-625h158v-115h-464v115z" />
    <glyph glyph-name="m" unicode="m" horiz-adv-x="900" 
d="M69 0v525h148v-89h6c19 56 63 101 141 101c72 0 124 -37 147 -106h3c19 59 80 106 160 106c101 0 157 -76 157 -208v-329h-148v317c0 68 -23 100 -72 100c-44 0 -87 -25 -87 -77v-340h-148v317c0 68 -24 100 -72 100c-43 0 -87 -25 -87 -77v-340h-148z" />
    <glyph glyph-name="n" unicode="n" 
d="M65 0v516h148v-94h6c23 58 69 106 152 106c99 0 168 -69 168 -194v-334h-148v314c0 65 -29 100 -87 100c-46 0 -91 -25 -91 -75v-339h-148z" />
    <glyph glyph-name="o" unicode="o" 
d="M300 -12c-161 0 -259 103 -259 270s98 270 259 270s259 -103 259 -270s-98 -270 -259 -270zM300 98c66 0 106 43 106 119v82c0 76 -40 119 -106 119s-106 -43 -106 -119v-82c0 -76 40 -119 106 -119z" />
    <glyph glyph-name="p" unicode="p" 
d="M59 516h148v-94h7c26 62 70 106 153 106c114 0 194 -83 194 -270s-80 -270 -194 -270c-83 0 -127 44 -153 106h-7v-294h-148v716zM303 103c66 0 104 43 104 115v80c0 72 -38 115 -104 115c-52 0 -96 -25 -96 -79v-152c0 -54 44 -79 96 -79z" />
    <glyph glyph-name="q" unicode="q" 
d="M393 94h-7c-26 -62 -70 -106 -153 -106c-114 0 -194 83 -194 270s80 270 194 270c83 0 127 -44 153 -106h7v94h148v-716h-148v294zM297 103c52 0 96 25 96 79v152c0 54 -44 79 -96 79c-66 0 -104 -43 -104 -115v-80c0 -72 38 -115 104 -115z" />
    <glyph glyph-name="r" unicode="r" 
d="M74 115h119v286h-119v115h267v-134h7c22 68 71 134 165 134h49v-136h-110c-66 0 -111 -29 -111 -87v-178h170v-115h-437v115z" />
    <glyph glyph-name="s" unicode="s" 
d="M294 -12c-114 0 -203 37 -245 97l83 77c40 -44 94 -70 163 -70c58 0 94 18 94 55c0 29 -24 38 -64 44l-83 13c-92 14 -165 53 -165 151c0 108 87 173 236 173c101 0 172 -29 215 -79l-74 -84c-30 33 -79 59 -146 59c-56 0 -86 -18 -86 -52c0 -30 24 -39 64 -45l82 -13
c93 -14 166 -53 166 -151c0 -107 -87 -175 -240 -175z" />
    <glyph glyph-name="t" unicode="t" 
d="M340 0c-107 0 -158 62 -158 149v252h-140v115h91c44 0 61 15 61 61v121h136v-182h201v-115h-201v-286h201v-115h-191z" />
    <glyph glyph-name="u" unicode="u" 
d="M387 94h-6c-23 -58 -69 -106 -152 -106c-99 0 -168 69 -168 194v334h148v-314c0 -65 29 -100 87 -100c46 0 91 25 91 75v339h148v-516h-148v94z" />
    <glyph glyph-name="v" unicode="v" 
d="M212 0l-185 516h156l67 -221l49 -172h8l49 172l67 221h150l-185 -516h-176z" />
    <glyph glyph-name="w" unicode="w" horiz-adv-x="900" 
d="M49 525h143l51 -212l36 -160h4l42 160l60 212h135l61 -212l43 -160h4l36 160l51 212h137l-145 -525h-155l-64 222l-37 136h-3l-36 -136l-64 -222h-152z" />
    <glyph glyph-name="x" unicode="x" 
d="M23 0l193 262l-180 254h169l55 -83l42 -67h8l43 67l56 83h155l-180 -246l193 -270h-170l-65 97l-45 69h-8l-44 -69l-66 -97h-156z" />
    <glyph glyph-name="y" unicode="y" 
d="M430 516h151l-243 -599c-30 -75 -77 -117 -165 -117h-102v115h124l32 88l-208 513h159l75 -217l47 -150h8l45 150z" />
    <glyph glyph-name="z" unicode="z" 
d="M66 0v123l287 278h-277v115h448v-123l-287 -278h297v-115h-468z" />
    <glyph glyph-name="A" unicode="A" 
d="M435 0l-44 168h-191l-43 -168h-152l189 698h212l189 -698h-160zM300 553h-8l-68 -264h144z" />
    <glyph glyph-name="B" unicode="B" 
d="M77 698h245c136 0 212 -72 212 -186c0 -79 -41 -126 -114 -147v-6c86 -21 136 -73 136 -167c0 -117 -79 -192 -211 -192h-268v698zM299 105c71 0 104 20 104 84v29c0 63 -33 84 -104 84h-76v-197h76zM280 402c70 0 101 20 101 81v30c0 61 -31 80 -101 80h-57v-191h57z
" />
    <glyph glyph-name="C" unicode="C" 
d="M316 -12c-187 0 -275 132 -275 361s88 361 275 361c144 0 219 -79 247 -201l-140 -34c-15 66 -40 114 -110 114c-81 0 -112 -68 -112 -179v-122c0 -111 31 -179 112 -179c70 0 95 48 110 114l140 -34c-28 -122 -103 -201 -247 -201z" />
    <glyph glyph-name="D" unicode="D" 
d="M64 698h225c187 0 277 -125 277 -349s-90 -349 -277 -349h-225v698zM279 118c89 0 129 59 129 168v127c0 108 -40 167 -129 167h-67v-462h67z" />
    <glyph glyph-name="E" unicode="E" 
d="M80 0v698h446v-123h-296v-160h286v-123h-286v-169h296v-123h-446z" />
    <glyph glyph-name="F" unicode="F" 
d="M80 0v698h463v-123h-313v-160h280v-123h-280v-292h-150z" />
    <glyph glyph-name="G" unicode="G" 
d="M411 99h-9c-23 -58 -70 -111 -156 -111c-137 0 -211 133 -211 355c0 237 85 367 266 367c144 0 216 -81 244 -201l-140 -34c-15 59 -38 114 -107 114c-76 0 -104 -67 -104 -179v-114c0 -113 29 -187 116 -187c67 0 101 45 101 107v51h-119v106h253v-373h-134v99z" />
    <glyph glyph-name="H" unicode="H" 
d="M388 292h-176v-292h-151v698h151v-283h176v283h151v-698h-151v292z" />
    <glyph glyph-name="I" unicode="I" 
d="M75 0v111h150v476h-150v111h450v-111h-150v-476h150v-111h-450z" />
    <glyph glyph-name="J" unicode="J" 
d="M511 698v-503c2 -126 -91 -207 -233 -207c-143 0 -218 78 -240 194l142 29c11 -59 38 -101 98 -101c51 0 81 32 81 100v365h-230v123h382z" />
    <glyph glyph-name="K" unicode="K" 
d="M280 291l-62 -87v-204h-150v698h150v-292h8l76 116l123 176h168l-209 -295l219 -403h-169z" />
    <glyph glyph-name="L" unicode="L" 
d="M92 0v698h151v-575h300v-123h-451z" />
    <glyph glyph-name="M" unicode="M" horiz-adv-x="900" 
d="M639 458h-3l-51 -102l-136 -247l-133 246l-53 110h-3v-465h-143v698h161l171 -327h2l169 327h162v-698h-143v458z" />
    <glyph glyph-name="N" unicode="N" 
d="M200 464h-11v-464h-128v698h180l159 -464h11v464h128v-698h-180z" />
    <glyph glyph-name="O" unicode="O" 
d="M300 -12c-187 0 -273 133 -273 361s86 361 273 361s273 -133 273 -361s-86 -361 -273 -361zM300 109c85 0 113 67 113 180v121c0 112 -28 179 -113 179s-113 -67 -113 -179v-122c0 -112 28 -179 113 -179z" />
    <glyph glyph-name="P" unicode="P" 
d="M76 0v698h270c137 0 214 -87 214 -222s-77 -222 -214 -222h-119v-254h-151zM227 375h81c70 0 94 25 94 86v30c0 61 -24 86 -94 86h-81v-202z" />
    <glyph glyph-name="Q" unicode="Q" 
d="M526 -191h-142c-108 0 -149 57 -149 144v41c-142 28 -208 155 -208 355c0 228 86 361 273 361s273 -133 273 -361c0 -200 -66 -327 -208 -355v-78h161v-107zM300 109c85 0 113 67 113 180v121c0 112 -28 179 -113 179s-113 -67 -113 -179v-122c0 -112 28 -179 113 -179z
" />
    <glyph glyph-name="R" unicode="R" 
d="M224 0h-148v698h270c137 0 214 -87 214 -222c0 -98 -45 -175 -123 -197l137 -279h-164l-117 259h-69v-259zM310 375c70 0 94 25 94 86v30c0 61 -24 86 -94 86h-86v-202h86z" />
    <glyph glyph-name="S" unicode="S" 
d="M289 -12c-116 0 -205 42 -258 108l87 96c51 -56 114 -82 176 -82c71 0 110 33 110 93c0 49 -26 72 -94 83l-73 12c-125 21 -178 98 -178 200c0 134 93 212 251 212c107 0 189 -36 238 -93l-85 -95c-37 41 -89 66 -152 66c-67 0 -101 -28 -101 -83c0 -48 28 -69 96 -81
l73 -13c112 -20 177 -86 177 -196c0 -131 -92 -227 -267 -227z" />
    <glyph glyph-name="T" unicode="T" 
d="M375 575v-575h-150v575h-201v123h552v-123h-201z" />
    <glyph glyph-name="U" unicode="U" 
d="M205 698v-442c0 -89 7 -147 95 -147s95 58 95 147v442h150v-422c0 -191 -42 -288 -245 -288s-245 97 -245 288v422h150z" />
    <glyph glyph-name="V" unicode="V" 
d="M194 0l-185 698h167l82 -355l41 -201h8l42 201l83 355h159l-185 -698h-212z" />
    <glyph glyph-name="W" unicode="W" horiz-adv-x="900" 
d="M151 0l-158 698h150l66 -335l37 -194h3l44 194l77 335h166l78 -335l43 -194h3l37 194l67 335h144l-162 -698h-173l-88 378l-34 153h-3l-35 -153l-88 -378h-174z" />
    <glyph glyph-name="X" unicode="X" 
d="M591 0h-171l-72 139l-49 110h-9l-50 -110l-74 -139h-157l196 361l-183 337h171l57 -111l51 -112h8l52 112l60 111h157l-183 -339z" />
    <glyph glyph-name="Y" unicode="Y" 
d="M225 0v247l-221 451h167l74 -162l54 -137h8l54 137l74 162h161l-221 -451v-247h-150z" />
    <glyph glyph-name="Z" unicode="Z" 
d="M551 0h-503v131l325 444h-315v123h483v-131l-325 -444h335v-123z" />
    <glyph glyph-name="zero" unicode="0" 
d="M300 -12c-187 0 -273 133 -273 361s86 361 273 361s273 -133 273 -361s-86 -361 -273 -361zM300 106c89 0 120 67 120 178v130c0 111 -31 178 -120 178s-120 -67 -120 -178v-130c0 -111 31 -178 120 -178zM300 290c-46 0 -62 21 -62 48v22c0 27 16 48 62 48
s62 -21 62 -48v-22c0 -27 -16 -48 -62 -48z" />
    <glyph glyph-name="zero.alt01" 
d="M300 -12c-187 0 -273 133 -273 361s86 361 273 361s273 -133 273 -361s-86 -361 -273 -361zM300 597c-93 0 -126 -68 -126 -183v-122c0 -3 0 -6 1 -10l230 251c-18 41 -52 64 -105 64zM300 101c93 0 126 68 126 183v122c0 3 0 6 -1 10l-230 -251c18 -41 52 -64 105 -64z
" />
    <glyph glyph-name="zero.alt02" 
d="M300 -12c-187 0 -273 133 -273 361s86 361 273 361s273 -133 273 -361s-86 -361 -273 -361zM300 109c85 0 113 67 113 180v121c0 112 -28 179 -113 179s-113 -67 -113 -179v-122c0 -112 28 -179 113 -179z" />
    <glyph glyph-name="one" unicode="1" 
d="M76 0v121h178v443l-162 -89l-57 108l211 115h158v-577h158v-121h-486z" />
    <glyph glyph-name="two" unicode="2" 
d="M555 0h-502v137l220 183c76 65 107 108 107 161v10c0 58 -38 89 -96 89c-67 0 -100 -45 -115 -98l-131 50c31 96 113 178 261 178c153 0 241 -89 241 -210c0 -116 -83 -191 -188 -271l-133 -103h336v-126z" />
    <glyph glyph-name="three" unicode="3" 
d="M273 422c77 0 111 33 111 76v7c0 50 -36 83 -98 83c-57 0 -109 -30 -144 -83l-95 88c54 69 123 117 245 117c151 0 250 -73 250 -185c0 -89 -62 -144 -136 -157v-6c85 -15 149 -72 149 -168c0 -125 -108 -206 -273 -206c-140 0 -213 64 -258 134l111 86
c31 -57 73 -98 150 -98c71 0 112 36 112 94v7c0 57 -47 86 -125 86h-65v125h66z" />
    <glyph glyph-name="four" unicode="4" 
d="M339 0v134h-314v128l278 436h180v-448h90v-116h-90v-134h-144zM146 250h193v293h-9z" />
    <glyph glyph-name="five" unicode="5" 
d="M525 567h-323l-16 -221h9c29 65 73 110 159 110c115 0 213 -82 213 -222c0 -141 -98 -246 -272 -246c-137 0 -210 64 -253 134l109 86c31 -54 71 -98 145 -98s113 44 113 112v8c0 65 -42 105 -109 105c-56 0 -92 -28 -111 -49l-123 17l26 395h433v-131z" />
    <glyph glyph-name="six" unicode="6" 
d="M304 -12c-168 0 -266 109 -266 277c0 196 134 352 255 433h207c-173 -121 -276 -215 -305 -350l9 -3c25 53 67 105 158 105c117 0 207 -85 207 -218c0 -142 -104 -244 -265 -244zM303 105c72 0 110 40 110 109v14c0 69 -40 107 -110 107c-68 0 -109 -38 -109 -107v-14
c0 -69 38 -109 109 -109z" />
    <glyph glyph-name="seven" unicode="7" 
d="M164 0l240 576h-226v-127h-127v249h502v-130l-231 -568h-158z" />
    <glyph glyph-name="eight" unicode="8" 
d="M300 -12c-168 0 -264 86 -264 204c0 90 58 146 139 168v8c-69 25 -118 77 -118 158c0 107 87 184 243 184s243 -77 243 -184c0 -81 -49 -133 -118 -158v-8c81 -22 139 -78 139 -168c0 -118 -96 -204 -264 -204zM300 103c69 0 107 35 107 89v20c0 55 -37 89 -107 89
s-107 -34 -107 -89v-20c0 -54 38 -89 107 -89zM300 411c66 0 102 33 102 85v15c0 52 -37 84 -102 84s-102 -32 -102 -84v-15c0 -52 36 -85 102 -85z" />
    <glyph glyph-name="nine" unicode="9" 
d="M562 433c0 -196 -134 -352 -255 -433h-207c173 121 276 215 305 350l-9 3c-25 -53 -67 -105 -158 -105c-117 0 -207 85 -207 218c0 142 104 244 265 244c168 0 266 -109 266 -277zM297 363c68 0 109 38 109 107v14c0 69 -38 109 -109 109c-72 0 -110 -40 -110 -109v-14
c0 -69 40 -107 110 -107z" />
    <glyph glyph-name="ampersand" unicode="&#x26;" 
d="M207 -12c-125 0 -193 94 -193 202c0 84 41 146 118 191c-43 59 -65 102 -65 153c0 100 83 176 195 176c100 0 170 -60 191 -124l-102 -55c-14 43 -47 69 -87 69s-67 -27 -67 -65v-5c0 -38 20 -61 83 -141l57 -72l48 -74h6c8 45 11 115 11 159h178v-110h-70
c-7 -42 -20 -87 -41 -134l130 -158h-158l-80 97h-7c-9 -68 -65 -109 -147 -109zM244 101c30 0 59 10 77 40l-129 164c-34 -33 -42 -67 -42 -105v-2c0 -63 37 -97 94 -97z" />
    <glyph glyph-name="at" unicode="@" 
d="M446 -113h-105c-222 0 -303 137 -303 418c0 303 94 405 263 405c173 0 252 -108 252 -247v-372h-107v61h-7c-15 -49 -48 -73 -94 -73c-78 0 -124 67 -124 215s46 215 124 215c46 0 79 -24 94 -73h7v27c0 113 -56 152 -139 152c-98 0 -157 -56 -157 -257v-129
c0 -155 53 -246 191 -246h105v-96zM389 165c37 0 57 23 57 59v140c0 36 -20 59 -57 59c-36 0 -56 -22 -56 -96v-66c0 -74 20 -96 56 -96z" />
    <glyph glyph-name="hyphen" unicode="-" 
d="M140 234v142h320v-142h-320z" />
    <glyph glyph-name="uni00AD" unicode="&#xad;" 
d="M140 234v142h320v-142h-320z" />
    <glyph glyph-name="endash" unicode="&#x2013;" 
d="M60 244v121h480v-121h-480z" />
    <glyph glyph-name="emdash" unicode="&#x2014;" horiz-adv-x="900" 
d="M71 244v121h760v-121h-760z" />
    <glyph glyph-name="underscore" unicode="_" 
d="M60 -192v121h480v-121h-480z" />
    <glyph glyph-name="period" unicode="." 
d="M300 -12c-75 0 -105 38 -105 83v35c0 45 30 83 105 83s105 -38 105 -83v-35c0 -45 -30 -83 -105 -83z" />
    <glyph glyph-name="ellipsis" unicode="&#x2026;" 
d="M102 -7c-50 0 -73 25 -73 54v46c0 29 23 54 73 54c48 0 72 -25 72 -54v-46c0 -29 -24 -54 -72 -54zM300 -7c-49 0 -73 25 -73 54v46c0 29 24 54 73 54s73 -25 73 -54v-46c0 -29 -24 -54 -73 -54zM498 -7c-48 0 -72 25 -72 54v46c0 29 24 54 72 54c49 0 73 -25 73 -54v-46
c0 -29 -24 -54 -73 -54z" />
    <glyph glyph-name="colon" unicode=":" 
d="M300 327c-75 0 -105 38 -105 83v35c0 45 30 83 105 83s105 -38 105 -83v-35c0 -45 -30 -83 -105 -83zM300 -12c-75 0 -105 38 -105 83v35c0 45 30 83 105 83s105 -38 105 -83v-35c0 -45 -30 -83 -105 -83z" />
    <glyph glyph-name="comma" unicode="," 
d="M227 174h190l-137 -325h-110z" />
    <glyph glyph-name="semicolon" unicode=";" 
d="M300 327c-75 0 -105 38 -105 83v35c0 45 30 83 105 83s105 -38 105 -83v-35c0 -45 -30 -83 -105 -83zM227 174h190l-137 -325h-110z" />
    <glyph glyph-name="quotesingle" unicode="'" 
d="M234 414v326h132v-326h-132z" />
    <glyph glyph-name="quotedbl" unicode="&#x22;" 
d="M347 414v326h132v-326h-132zM121 414v326h132v-326h-132z" />
    <glyph glyph-name="quoteleft" unicode="&#x2018;" 
d="M300 740h109l-57 -326h-190z" />
    <glyph glyph-name="quoteright" unicode="&#x2019;" 
d="M248 740h190l-138 -326h-109z" />
    <glyph glyph-name="quotedblleft" unicode="&#x201c;" 
d="M430 740h109l-57 -326h-190zM171 740h109l-57 -326h-190z" />
    <glyph glyph-name="quotedblright" unicode="&#x201d;" 
d="M378 740h190l-138 -326h-109zM119 740h190l-138 -326h-109z" />
    <glyph glyph-name="quotesinglbase" unicode="&#x201a;" 
d="M227 174h190l-137 -325h-110z" />
    <glyph glyph-name="quotedblbase" unicode="&#x201e;" 
d="M360 174h190l-137 -325h-110zM101 174h190l-137 -325h-110z" />
    <glyph glyph-name="guilsinglleft" unicode="&#x2039;" 
d="M373 38l-200 168v132l200 168l45 -96l-130 -138l130 -139z" />
    <glyph glyph-name="guilsinglright" unicode="&#x203a;" 
d="M182 133l130 139l-130 138l45 96l200 -168v-132l-200 -168z" />
    <glyph glyph-name="guillemotleft" unicode="&#xab;" 
d="M506 38l-200 168v132l200 168l45 -96l-130 -138l130 -139zM259 38l-200 168v132l200 168l45 -96l-130 -138l130 -139z" />
    <glyph glyph-name="guillemotright" unicode="&#xbb;" 
d="M296 133l130 139l-130 138l45 96l200 -168v-132l-200 -168zM49 133l130 139l-130 138l45 96l200 -168v-132l-200 -168z" />
    <glyph glyph-name="exclamdown" unicode="&#xa1;" 
d="M219 -182v203l57 252h48l57 -252v-203h-162zM300 341c-71 0 -98 35 -98 77v32c0 43 27 78 98 78s98 -35 98 -78v-32c0 -42 -27 -77 -98 -77z" />
    <glyph glyph-name="exclam" unicode="!" 
d="M276 243l-57 252v203h162v-203l-57 -252h-48zM300 -12c-71 0 -98 35 -98 78v32c0 42 27 77 98 77s98 -35 98 -77v-32c0 -43 -27 -78 -98 -78z" />
    <glyph glyph-name="questiondown" unicode="&#xbf;" 
d="M309 -194c-142 0 -236 84 -236 205c0 113 83 184 179 200v72h140v-153c-100 -4 -163 -30 -163 -106v-14c0 -55 37 -78 85 -78c54 0 90 35 103 85l122 -51c-23 -80 -92 -160 -230 -160zM320 341c-71 0 -99 35 -99 77v32c0 43 28 78 99 78c70 0 98 -35 98 -78v-32
c0 -42 -28 -77 -98 -77z" />
    <glyph glyph-name="question" unicode="?" 
d="M208 233v153c100 4 163 30 163 106v14c0 55 -37 78 -85 78c-54 0 -90 -35 -103 -85l-122 51c23 80 92 160 230 160c142 0 236 -84 236 -205c0 -113 -83 -184 -179 -200v-72h-140zM280 -12c-70 0 -98 35 -98 78v32c0 42 28 77 98 77c71 0 99 -35 99 -77v-32
c0 -43 -28 -78 -99 -78z" />
    <glyph glyph-name="parenleft" unicode="(" 
d="M174 311c0 195 95 365 208 449h148c-124 -85 -232 -231 -232 -398v-102c0 -167 108 -313 232 -398h-148c-113 84 -208 254 -208 449z" />
    <glyph glyph-name="parenright" unicode=")" 
d="M426 311c0 -195 -95 -365 -208 -449h-148c124 85 232 231 232 398v102c0 167 -108 313 -232 398h148c113 -84 208 -254 208 -449z" />
    <glyph glyph-name="bracketleft" unicode="[" 
d="M183 -138v898h324v-99h-205v-700h205v-99h-324z" />
    <glyph glyph-name="bracketright" unicode="]" 
d="M417 760v-898h-324v99h205v700h-205v99h324z" />
    <glyph glyph-name="braceleft" unicode="{" 
d="M330 -138c-91 0 -126 45 -126 108v45c0 67 32 99 56 127c22 27 30 44 30 65c0 34 -37 54 -108 54h-90v100h90c71 0 108 20 108 54c0 21 -8 38 -30 65c-24 28 -56 60 -56 127v45c0 63 35 108 126 108h178v-99h-185v-48c0 -50 20 -72 40 -98c23 -28 47 -59 47 -101
c0 -55 -38 -90 -118 -99v-8c80 -9 118 -44 118 -99c0 -42 -24 -73 -47 -101c-20 -26 -40 -48 -40 -98v-48h185v-99h-178z" />
    <glyph glyph-name="braceright" unicode="}" 
d="M270 760c91 0 126 -45 126 -108v-45c0 -67 -32 -99 -56 -127c-22 -27 -30 -44 -30 -65c0 -34 37 -54 108 -54h90v-100h-90c-71 0 -108 -20 -108 -54c0 -21 8 -38 30 -65c24 -28 56 -60 56 -127v-45c0 -63 -35 -108 -126 -108h-178v99h185v48c0 50 -20 72 -40 98
c-23 28 -47 59 -47 101c0 55 38 90 118 99v8c-80 9 -118 44 -118 99c0 42 24 73 47 101c20 26 40 48 40 98v48h-185v99h178z" />
    <glyph glyph-name="slash" unicode="/" 
d="M73 -138l321 898h133l-321 -898h-133z" />
    <glyph glyph-name="backslash" unicode="\" 
d="M394 -138l-321 898h133l321 -898h-133z" />
    <glyph glyph-name="fraction" unicode="&#x2044;" 
d="M496 698h103l-173 -300h-103zM174 300h103l-173 -300h-103z" />
    <glyph glyph-name="percent" unicode="%" 
d="M165 338c-99 0 -157 71 -157 186s58 186 157 186s157 -71 157 -186s-58 -186 -157 -186zM165 425c39 0 52 30 52 77v44c0 47 -13 77 -52 77s-52 -30 -52 -77v-44c0 -47 13 -77 52 -77zM485 698h113l-151 -300h-113zM153 300h113l-151 -300h-113zM436 -12
c-99 0 -157 71 -157 186s58 186 157 186s157 -71 157 -186s-58 -186 -157 -186zM436 75c39 0 52 30 52 77v44c0 47 -13 77 -52 77s-52 -30 -52 -77v-44c0 -47 13 -77 52 -77z" />
    <glyph glyph-name="perthousand" unicode="&#x2030;" 
d="M148 400c-96 0 -148 62 -148 155c0 94 52 155 148 155s148 -61 148 -155c0 -93 -52 -155 -148 -155zM148 479c32 0 50 28 50 60v32c0 32 -18 60 -50 60s-50 -28 -50 -60v-32c0 -32 18 -60 50 -60zM59 343l462 142l20 -67l-462 -142zM252 -12c-91 0 -146 62 -146 155
c0 94 56 155 146 155c42 0 76 -17 97 -45h8c21 27 56 45 97 45c91 0 146 -62 146 -155c0 -94 -56 -155 -146 -155c-42 0 -76 17 -97 45h-8c-21 -27 -56 -45 -97 -45zM254 67c32 0 50 28 50 60v32c0 32 -18 60 -50 60s-50 -28 -50 -60v-32c0 -32 18 -60 50 -60zM452 67
c32 0 50 28 50 60v32c0 32 -18 60 -50 60s-50 -28 -50 -60v-32c0 -32 18 -60 50 -60z" />
    <glyph glyph-name="bar" unicode="|" 
d="M237 -138v898h126v-898h-126z" />
    <glyph glyph-name="brokenbar" unicode="&#xa6;" 
d="M237 401v359h126v-359h-126zM237 -138v359h126v-359h-126z" />
    <glyph glyph-name="section" unicode="&#xa7;" 
d="M511 3c0 -109 -91 -179 -222 -179c-69 0 -143 19 -201 72l73 88c35 -35 79 -55 129 -55c58 0 96 27 96 68c0 36 -28 54 -89 70l-78 21c-115 31 -154 91 -154 150c0 57 35 106 110 137v16c-55 35 -79 84 -79 140c0 109 91 179 222 179c69 0 143 -19 201 -72l-73 -88
c-35 35 -79 55 -129 55c-58 0 -96 -27 -96 -68c0 -36 28 -54 89 -70l78 -21c115 -31 154 -91 154 -150c0 -57 -35 -106 -110 -137v-16c55 -35 79 -84 79 -140zM419 252c0 34 -17 64 -83 82l-77 21c-12 3 -23 7 -33 11c-24 -26 -38 -53 -38 -84c0 -34 17 -64 83 -82l77 -21
c12 -3 23 -7 33 -11c24 26 38 53 38 84z" />
    <glyph glyph-name="paragraph" unicode="&#xb6;" 
d="M245 246c-124 0 -225 95 -225 226s101 226 225 226h307v-847h-119v731h-69v-731h-119v395z" />
    <glyph glyph-name="copyright" unicode="&#xa9;" 
d="M300 18c-167 0 -300 127 -300 331s133 331 300 331s300 -127 300 -331s-133 -331 -300 -331zM300 73c137 0 237 109 237 246v60c0 137 -100 246 -237 246s-237 -109 -237 -246v-60c0 -137 100 -246 237 -246zM309 153c-111 0 -184 78 -184 195c0 120 76 197 184 197
c82 0 130 -42 154 -102l-85 -43c-13 31 -33 52 -67 52c-40 0 -64 -28 -64 -66v-73c0 -39 24 -67 65 -67c37 0 58 23 72 52l85 -43c-23 -54 -70 -102 -160 -102z" />
    <glyph glyph-name="registered" unicode="&#xae;" 
d="M300 346c-102 0 -183 78 -183 182s81 182 183 182s183 -78 183 -182s-81 -182 -183 -182zM300 387c77 0 135 52 135 131v20c0 79 -58 131 -135 131s-135 -52 -135 -131v-20c0 -79 58 -131 135 -131zM278 436h-56v185h92c50 0 72 -27 72 -63c0 -28 -13 -47 -34 -57l39 -65
h-61l-30 54h-22v-54zM302 531c16 0 26 7 26 20v7c0 12 -10 20 -26 20h-24v-47h24z" />
    <glyph glyph-name="trademark" unicode="&#x2122;" 
d="M82 409v228h-69v61h224v-61h-69v-228h-86zM258 409v289h91l56 -107h6l56 107h85v-289h-72v97l8 93h-4l-79 -146l-79 146h-4l8 -93v-97h-72z" />
    <glyph glyph-name="ordfeminine" unicode="&#xaa;" 
d="M429 340c-42 0 -70 23 -74 64h-4c-13 -47 -55 -72 -110 -72c-70 0 -116 40 -116 108c0 75 57 111 162 111h58v18c0 43 -18 65 -65 65c-44 0 -69 -19 -89 -45l-56 50c24 41 76 71 157 71c98 0 157 -46 157 -137v-158h40v-75h-60zM290 495c-41 0 -64 -15 -64 -43v-14
c0 -25 21 -38 54 -38c37 0 65 18 65 52v43h-55z" />
    <glyph glyph-name="ordmasculine" unicode="&#xba;" 
d="M300 332c-113 0 -181 72 -181 189s68 189 181 189s181 -72 181 -189s-68 -189 -181 -189zM300 409c46 0 74 30 74 83v58c0 53 -28 83 -74 83s-74 -30 -74 -83v-58c0 -53 28 -83 74 -83z" />
    <glyph glyph-name="degree" unicode="&#xb0;" 
d="M300 334c-106 0 -188 81 -188 188s82 188 188 188s188 -81 188 -188s-82 -188 -188 -188zM300 429c52 0 86 41 86 93s-34 93 -86 93s-86 -41 -86 -93s34 -93 86 -93z" />
    <glyph glyph-name="asterisk" unicode="*" 
d="M191 40l-104 69l114 150l-171 58l39 115l167 -61v177h128v-177l167 61l39 -115l-171 -58l114 -150l-104 -69l-109 149z" />
    <glyph glyph-name="dagger" unicode="&#x2020;" 
d="M237 -200v608h-176v108h176v224h126v-224h176v-108h-176v-608h-126z" />
    <glyph glyph-name="daggerdbl" unicode="&#x2021;" 
d="M237 -200v224h-176v108h176v276h-176v108h176v224h126v-224h176v-108h-176v-276h176v-108h-176v-224h-126z" />
    <glyph glyph-name="numbersign" unicode="#" 
d="M117 194h-108v110h128l15 90h-105v110h125l34 194h117l-123 -698h-117zM400 698h117l-34 -194h108v-110h-128l-15 -90h105v-110h-125l-34 -194h-117z" />
    <glyph glyph-name="asciicircum" unicode="^" 
d="M456 239l-153 323h-12l-153 -323l-111 54l195 405h157l194 -405z" />
    <glyph glyph-name="asciitilde" unicode="~" 
d="M418 210c-49 0 -82 15 -128 37c-37 18 -71 34 -113 34c-30 0 -50 -8 -79 -27l-50 84c25 34 67 62 134 62c49 0 82 -15 128 -37c37 -18 71 -34 113 -34c30 0 50 8 79 27l50 -84c-25 -34 -67 -62 -134 -62z" />
    <glyph glyph-name="plus" unicode="+" 
d="M236 62v184h-174v118h174v184h128v-184h174v-118h-174v-184h-128z" />
    <glyph glyph-name="minus" unicode="&#x2212;" 
d="M62 246v118h476v-118h-476z" />
    <glyph glyph-name="plusminus" unicode="&#xb1;" 
d="M236 184v166h-174v118h174v166h128v-166h174v-118h-174v-166h-128zM62 0v119h476v-119h-476z" />
    <glyph glyph-name="multiply" unicode="&#xd7;" 
d="M300 220l-145 -145l-85 85l145 145l-145 145l85 85l145 -145l145 145l85 -85l-145 -145l145 -145l-85 -85z" />
    <glyph glyph-name="divide" unicode="&#xf7;" 
d="M62 246v118h476v-118h-476zM300 29c-63 0 -88 30 -88 69v24c0 38 25 69 88 69s88 -31 88 -69v-24c0 -39 -25 -69 -88 -69zM300 419c-63 0 -88 31 -88 69v24c0 39 25 69 88 69s88 -30 88 -69v-24c0 -38 -25 -69 -88 -69z" />
    <glyph glyph-name="equal" unicode="=" 
d="M62 361v118h476v-118h-476zM62 131v118h476v-118h-476z" />
    <glyph glyph-name="approxequal" unicode="&#x2248;" 
d="M418 94c-49 0 -82 15 -128 37c-37 18 -71 34 -113 34c-30 0 -50 -8 -79 -27l-50 84c25 34 67 62 134 62c49 0 82 -15 128 -37c37 -18 71 -34 113 -34c30 0 50 8 79 27l50 -84c-25 -34 -67 -62 -134 -62zM418 325c-49 0 -82 15 -128 37c-37 18 -71 34 -113 34
c-30 0 -50 -8 -79 -27l-50 84c25 34 67 62 134 62c49 0 82 -15 128 -37c37 -18 71 -34 113 -34c30 0 50 8 79 27l50 -84c-25 -34 -67 -62 -134 -62z" />
    <glyph glyph-name="notequal" unicode="&#x2260;" 
d="M91 36l52 95h-81v118h148l63 112h-211v118h269l52 95h126l-52 -95h81v-118h-148l-63 -112h211v-118h-269l-52 -95h-126z" />
    <glyph glyph-name="less" unicode="&#x3c;" 
d="M85 236v138l430 230v-138l-297 -157v-8l297 -157v-138z" />
    <glyph glyph-name="greater" unicode="&#x3e;" 
d="M85 144l297 157v8l-297 157v138l430 -230v-138l-430 -230v138z" />
    <glyph glyph-name="lessequal" unicode="&#x2264;" 
d="M85 0v116h430v-116h-430zM515 471l-289 -98v-7l289 -96v-126l-430 157v137l430 157v-124z" />
    <glyph glyph-name="greaterequal" unicode="&#x2265;" 
d="M85 272l288 96v7l-288 98v122l430 -157v-137l-430 -157v128zM85 116h430v-116h-430v116z" />
    <glyph glyph-name="periodcentered" unicode="&#xb7;" 
d="M300 204c-75 0 -105 38 -105 83v35c0 45 30 83 105 83s105 -38 105 -83v-35c0 -45 -30 -83 -105 -83z" />
    <glyph glyph-name="bullet" unicode="&#x2022;" 
d="M300 156c-113 0 -154 56 -154 131v34c0 75 41 131 154 131s154 -56 154 -131v-34c0 -75 -41 -131 -154 -131z" />
    <glyph glyph-name="lozenge" unicode="&#x25ca;" 
d="M246 0l-218 349l218 349h108l218 -349l-218 -349h-108zM303 123l138 226l-138 226h-6l-138 -226l138 -226h6z" />
    <glyph glyph-name="logicalnot" unicode="&#xac;" 
d="M401 54v192h-339v118h460v-310h-121z" />
    <glyph glyph-name="radical" unicode="&#x221a;" 
d="M213 0l-118 392h-80v124h175l57 -196l52 -215h8l56 215l109 378h124l-206 -698h-177z" />
    <glyph glyph-name="integral" unicode="&#x222b;" 
d="M28 -85h185v676c0 87 50 149 158 149h175v-115h-185v-676c0 -87 -51 -149 -158 -149h-175v115z" />
    <glyph glyph-name="infinity" unicode="&#x221e;" 
d="M161 126c-95 0 -150 66 -150 179s58 179 158 179c68 0 117 -37 147 -129h4c11 90 63 129 119 129c95 0 150 -66 150 -179s-58 -179 -158 -179c-68 0 -117 37 -147 129h-4c-11 -90 -63 -129 -119 -129zM174 228c43 0 69 31 82 65c-17 46 -39 89 -82 89
c-27 0 -47 -25 -47 -70v-14c0 -45 20 -70 47 -70zM426 228c27 0 47 25 47 70v14c0 45 -20 70 -47 70c-43 0 -69 -31 -82 -65c17 -46 39 -89 82 -89z" />
    <glyph glyph-name="uni212E" unicode="&#x212e;" 
d="M185 85c24 -23 69 -41 115 -41c98 0 156 57 197 136l52 -29c-48 -89 -123 -163 -249 -163c-166 0 -274 154 -274 361s108 361 274 361s274 -154 274 -361h-389v-264zM415 401v217c-25 23 -69 38 -115 38s-90 -15 -115 -38v-217h230z" />
    <glyph glyph-name="uni2113" unicode="&#x2113;" 
d="M334 -12c-109 0 -195 65 -195 171v3c-8 -5 -34 -22 -43 -27l-64 103c37 20 78 49 100 64v244c0 149 80 206 184 206c117 0 182 -72 182 -190c0 -125 -74 -217 -226 -334v-41c0 -50 23 -71 60 -71c40 0 64 24 103 103l120 -61c-39 -101 -109 -170 -221 -170zM320 621
c-24 0 -48 -18 -48 -70v-173c52 47 90 100 90 172v10c0 43 -18 61 -42 61z" />
    <glyph glyph-name="uni2116" unicode="&#x2116;" 
d="M481 325c-81 0 -120 62 -120 191c0 128 40 190 120 190c77 0 116 -62 116 -190c0 -129 -39 -191 -116 -191zM17 0v698h175l26 -335l17 -263h12v598h88v-698h-175l-26 335l-17 263h-12v-598h-88zM481 403c31 0 36 26 36 75v75c0 48 -5 75 -36 75c-32 0 -36 -27 -36 -75
v-75c0 -48 4 -75 36 -75zM369 226v77h220v-77h-220z" />
    <glyph glyph-name="partialdiff" unicode="&#x2202;" 
d="M559 274c0 -197 -104 -286 -257 -286c-163 0 -261 101 -261 267c0 149 78 249 200 249c74 0 124 -37 156 -96l9 4c-38 106 -146 196 -312 286h218c124 -75 247 -209 247 -424zM300 98c66 0 106 43 106 119v56c0 76 -40 119 -106 119s-106 -43 -106 -119v-56
c0 -76 40 -119 106 -119z" />
    <glyph glyph-name="cent" unicode="&#xa2;" 
d="M258 -114v108c-125 23 -198 120 -198 264s74 241 198 264v108h114v-106c82 -13 133 -59 163 -122l-107 -58c-13 28 -34 54 -65 67v-307c34 12 59 39 75 69l105 -59c-31 -63 -86 -109 -171 -122v-106h-114zM202 216c0 -52 22 -92 66 -110v304c-43 -17 -66 -57 -66 -110
v-84z" />
    <glyph glyph-name="Euro" unicode="&#x20ac;" 
d="M336 -12c-183 0 -291 133 -291 361s108 361 291 361c136 0 193 -60 237 -121l-109 -76c-29 52 -67 78 -122 78c-74 0 -119 -43 -135 -116h222v-90h-228v-72h228v-90h-222c16 -73 61 -116 135 -116c55 0 93 26 122 78l109 -76c-44 -61 -101 -121 -237 -121z" />
    <glyph glyph-name="florin" unicode="&#x192;" 
d="M-31 -85h184l68 408h-163l19 115h164l20 121c14 87 63 139 171 139h185l-19 -115h-185l-24 -145h172l-18 -115h-174l-64 -384c-14 -87 -64 -139 -171 -139h-184z" />
    <glyph glyph-name="sterling" unicode="&#xa3;" 
d="M69 0v136c53 23 85 65 85 121c0 4 0 8 -1 12h-107v110h71c-16 37 -31 77 -31 125c0 123 100 206 249 206c101 0 173 -38 224 -105l-99 -93c-31 40 -65 69 -120 69c-62 0 -101 -37 -101 -101c0 -37 14 -69 28 -101h175v-110h-140v-7c0 -68 -42 -106 -78 -125v-9h329v-128
h-484z" />
    <glyph glyph-name="dollar" unicode="$" 
d="M253 -10c-99 8 -176 47 -223 106l87 95c42 -45 92 -70 146 -78v184l-23 4c-128 23 -188 99 -188 201c0 112 72 187 201 204v105h114v-104c83 -11 142 -45 182 -91l-86 -96c-28 31 -64 51 -106 60v-167l23 -4c127 -24 188 -96 188 -197c0 -110 -72 -194 -201 -217v-108
h-114v103zM193 507c0 -42 21 -62 70 -75v151c-49 -8 -70 -34 -70 -76zM428 202c0 45 -22 65 -71 77v-165c48 11 71 42 71 88z" />
    <glyph glyph-name="yen" unicode="&#xa5;" 
d="M56 113h173v108h-173v113h104l-160 364h156l141 -364h10l142 364h151l-159 -364h103v-113h-173v-108h173v-113h-488v113z" />
    <glyph glyph-name="uni0E3F" unicode="&#xe3f;" 
d="M358 -113h-114v113h-180v698h180v113h114v-114c121 -6 190 -80 190 -185c0 -78 -40 -126 -115 -147v-6c85 -20 135 -74 135 -167c0 -117 -78 -192 -209 -192h-1v-113zM254 401v193h-56v-193h56zM348 405c37 9 56 32 56 76v33c0 44 -19 67 -56 76v-185zM254 104v198h-56
v-198h56zM348 105c50 5 76 26 76 80v36c0 54 -26 75 -76 80v-196z" />
    <glyph glyph-name="colonmonetary" unicode="&#x20a1;" 
d="M318 -12h-2c-17 0 -33 1 -48 3l-7 -104h-71l9 123c-107 47 -158 165 -158 339c0 199 66 324 206 354l7 108h71l-7 -101c17 0 34 -1 50 -4l7 105h71l-9 -123c58 -25 103 -71 132 -142l-113 -54c-8 22 -18 41 -29 56l-30 -425c26 17 45 44 59 83l113 -54
c-36 -90 -98 -139 -180 -157l-7 -108h-71zM309 598l-34 -494c11 -2 24 -4 38 -4h14l34 492c-15 4 -31 6 -48 6h-4zM183 288c0 -54 7 -101 27 -134l29 423c-41 -31 -56 -91 -56 -167v-122z" />
    <glyph glyph-name="uni20A4" unicode="&#x20a4;" 
d="M553 0h-484v136c33 14 58 36 72 64h-92v89h102c-5 23 -14 45 -24 68h-78v89h44c-4 18 -7 37 -7 58c0 123 100 206 249 206c101 0 173 -38 224 -105l-99 -93c-31 40 -65 69 -120 69c-62 0 -101 -37 -101 -101c0 -12 1 -23 4 -34h181v-89h-146c9 -21 18 -44 22 -68h124v-89
h-136c-15 -31 -41 -51 -64 -63v-9h329v-128z" />
    <glyph glyph-name="uni20A6" unicode="&#x20a6;" 
d="M278 238h-100v-238h-110v231h-45v94h45v48h-45v94h45v231h188l66 -238h100v238h110v-231h45v-94h-45v-48h45v-94h-45v-231h-188zM256 318l-68 246h-10v-246h78zM412 134h10v246h-78z" />
    <glyph glyph-name="uni20A8" unicode="&#x20a8;" 
d="M37 0v698h150c116 0 181 -67 181 -182c0 -70 -27 -136 -84 -169l58 -181c16 -50 38 -80 84 -80c31 0 46 13 46 40c0 22 -10 38 -34 62l-15 15c-43 43 -66 80 -66 134c0 87 59 139 143 139c33 0 71 -8 100 -27l-38 -87c-16 11 -31 17 -49 17c-25 0 -38 -11 -38 -38
c0 -24 10 -39 34 -63l15 -15c43 -43 66 -80 66 -135c0 -83 -53 -140 -173 -140c-96 0 -159 37 -190 140l-58 193h-13v-321h-119zM190 419c41 0 58 19 58 68v42c0 49 -17 68 -58 68h-34v-178h34z" />
    <glyph glyph-name="uni20A9" unicode="&#x20a9;" 
d="M68 270h-60v91h57l-2 76h-55v92h52l-6 169h126v-176h243v176h123l-6 -169h52v-92h-55l-2 -76h57v-91h-60l-9 -270h-180l-31 444h-24l-31 -444h-180zM197 93l25 351h-50v-351h25zM431 93v351h-50l25 -351h25z" />
    <glyph glyph-name="uni20AA" unicode="&#x20aa;" 
d="M184 531h95v-441h85c56 0 103 30 103 109v499h103v-500c0 -133 -79 -198 -189 -198h-197v531zM34 0v698h199c110 0 187 -65 187 -198v-333h-95v332c0 79 -46 109 -102 109h-86v-608h-103z" />
    <glyph glyph-name="uni20AB" unicode="&#x20ab;" 
d="M379 253h-6c-22 -52 -59 -97 -137 -97c-97 0 -166 60 -166 194s69 194 166 194c78 0 115 -45 137 -97h6v137h-126v105h126v51h140v-51h50v-105h-50v-418h-140v87zM296 260c53 0 83 32 83 64v52c0 32 -30 64 -83 64c-55 0 -82 -35 -82 -81v-18c0 -46 27 -81 82 -81zM82 0
v107h460v-107h-460z" />
    <glyph glyph-name="uni20AD" unicode="&#x20ad;" 
d="M219 0h-150v296h-50v120h50v282h150v-282h40l165 282h161l-175 -282h145v-120h-135l181 -296h-168l-174 296h-40v-296z" />
    <glyph glyph-name="uni20AE" unicode="&#x20ae;" 
d="M371 178v-178h-142v116l-129 -56v100l129 56v84l-129 -56v100l129 56v181h-205v117h552v-117h-205v-119l129 56v-100l-129 -56v-84l129 56v-100z" />
    <glyph glyph-name="uni20B1" unicode="&#x20b1;" 
d="M218 0h-142v317h-51v94h51v49h-51v94h51v144h242c105 0 173 -42 200 -144h61v-94h-48v-49h48v-94h-61c-26 -104 -94 -146 -200 -146h-100v-171zM218 549h164c-10 38 -34 55 -89 55h-75v-55zM387 407v57h-169v-57h169zM293 266c57 0 81 17 90 56h-165v-56h75z" />
    <glyph glyph-name="uni20B2" unicode="&#x20b2;" 
d="M197 5c-110 44 -162 164 -162 345c0 226 82 357 261 360l14 101h116l-16 -120c63 -26 105 -79 129 -159l-113 -40c-9 30 -22 57 -44 76l-28 -195h191v-139c0 -146 -86 -243 -235 -247l-14 -100h-116zM290 594c-75 -6 -106 -67 -106 -184v-123c0 -75 12 -126 40 -155z
M316 102c72 5 100 55 100 116v49h-77z" />
    <glyph glyph-name="uni20B4" unicode="&#x20b4;" 
d="M308 -12c-145 0 -221 87 -221 193c0 17 2 35 8 49h-68v82h117l149 84v6h-266v82h337c4 9 6 18 6 32c0 52 -30 77 -81 77c-47 0 -84 -21 -116 -55l-75 89c44 51 113 83 197 83c134 0 210 -80 210 -172c0 -18 -3 -40 -8 -54h76v-82h-113l-149 -84v-6h262v-82h-342
c-6 -13 -8 -28 -8 -42c0 -54 34 -86 93 -86c45 0 89 19 138 71l76 -89c-47 -57 -125 -96 -222 -96z" />
    <glyph glyph-name="uni20B5" unicode="&#x20b5;" 
d="M203 8c-110 45 -162 164 -162 341c0 225 85 353 261 361l14 101h115l-16 -116c78 -28 120 -89 141 -161l-117 -39c-11 33 -25 63 -51 81l-67 -475c67 2 96 56 110 120l132 -32c-28 -122 -103 -201 -247 -201h-1l-14 -101h-115zM295 596c-65 -10 -104 -61 -104 -186v-122
c0 -69 12 -120 39 -151z" />
    <glyph glyph-name="uni20B8" unicode="&#x20b8;" 
d="M45 593v105h510v-105h-510zM375 416v-416h-150v416h-181v105h512v-105h-181z" />
    <glyph glyph-name="uni20B9" unicode="&#x20b9;" 
d="M352 0l-184 246h-122v109h121c66 0 116 18 121 72h-242v92h242c-6 51 -56 70 -121 70h-121v109h518v-109h-210v-5c28 -5 56 -25 70 -65h140v-92h-131c-7 -75 -47 -125 -114 -154l210 -273h-177z" />
    <glyph glyph-name="uni20BA" unicode="&#x20ba;" 
d="M109 199l-70 -32v104l70 32v66l-70 -32v104l70 32v225h139v-160l161 74v-104l-161 -74v-66l161 74v-104l-161 -74v-142h46c96 0 142 44 142 183h142c0 -170 -80 -305 -265 -305h-204v199z" />
    <glyph glyph-name="uni20BD" unicode="&#x20bd;" 
d="M243 114v-114h-151v114h-60v109h60v52h-60v109h60v314h260c137 0 213 -83 213 -212s-76 -211 -213 -211h-109v-52h206v-109h-206zM243 384h71c70 0 94 25 94 86v31c0 61 -24 86 -94 86h-71v-203z" />
    <glyph glyph-name="uni20BF" unicode="&#x20bf;" 
d="M313 0h-61v-113h-84v113h-91v698h91v113h84v-113h61v113h84v-122c89 -22 137 -86 137 -177c0 -78 -38 -125 -114 -147v-6c87 -21 136 -73 136 -167c0 -101 -59 -170 -159 -188v-117h-84v113zM223 402h57c70 0 101 22 101 83v29c0 62 -31 83 -101 83h-57v-195zM223 101h76
c72 0 104 23 104 86v30c0 63 -32 85 -104 85h-76v-201z" />
    <glyph glyph-name="fi" unicode="&#xfb01;" 
d="M75 401h-44v115h44v75c0 87 50 149 157 149h97v-115h-106v-109h312v-516h-148v401h-164v-401h-148v401zM461 582c-66 0 -89 31 -89 70v29c0 40 23 70 89 70s89 -30 89 -70v-29c0 -39 -23 -70 -89 -70z" />
    <glyph glyph-name="fl" unicode="&#xfb02;" 
d="M75 401h-44v115h44v75c0 87 50 149 157 149h98v-115h-107v-109h108v-115h-108v-401h-148v401zM387 740h148v-740h-148v740z" />
    <glyph glyph-name="aacute" unicode="&#xe1;" 
d="M308 570l-88 43l99 194l123 -61zM487 0c-61 0 -101 33 -107 91h-5c-18 -67 -78 -103 -157 -103c-100 0 -166 57 -166 154c0 108 81 159 232 159h83v26c0 61 -26 93 -94 93c-62 0 -98 -27 -126 -65l-81 72c34 58 109 101 224 101c141 0 225 -65 225 -195v-226h57v-107h-85
zM274 85c52 0 93 26 93 74v62h-79c-59 0 -91 -21 -91 -61v-20c0 -36 30 -55 77 -55z" />
    <glyph glyph-name="abreve" unicode="&#x103;" 
d="M292 570c-120 0 -169 98 -194 170l83 42l21 -32c31 -48 51 -77 90 -77s59 29 90 77l21 32l83 -42c-25 -72 -74 -170 -194 -170zM487 0c-61 0 -101 33 -107 91h-5c-18 -67 -78 -103 -157 -103c-100 0 -166 57 -166 154c0 108 81 159 232 159h83v26c0 61 -26 93 -94 93
c-62 0 -98 -27 -126 -65l-81 72c34 58 109 101 224 101c141 0 225 -65 225 -195v-226h57v-107h-85zM274 85c52 0 93 26 93 74v62h-79c-59 0 -91 -21 -91 -61v-20c0 -36 30 -55 77 -55z" />
    <glyph glyph-name="acircumflex" unicode="&#xe2;" 
d="M354 786l132 -159l-75 -58l-121 115l-121 -115l-71 58l132 159h124zM487 0c-61 0 -101 33 -107 91h-5c-18 -67 -78 -103 -157 -103c-100 0 -166 57 -166 154c0 108 81 159 232 159h83v26c0 61 -26 93 -94 93c-62 0 -98 -27 -126 -65l-81 72c34 58 109 101 224 101
c141 0 225 -65 225 -195v-226h57v-107h-85zM274 85c52 0 93 26 93 74v62h-79c-59 0 -91 -21 -91 -61v-20c0 -36 30 -55 77 -55z" />
    <glyph glyph-name="adieresis" unicode="&#xe4;" 
d="M182 591c-59 0 -80 28 -80 63v26c0 35 21 62 80 62c60 0 81 -27 81 -62v-26c0 -35 -21 -63 -81 -63zM402 591c-60 0 -81 28 -81 63v26c0 35 21 62 81 62c59 0 80 -27 80 -62v-26c0 -35 -21 -63 -80 -63zM487 0c-61 0 -101 33 -107 91h-5c-18 -67 -78 -103 -157 -103
c-100 0 -166 57 -166 154c0 108 81 159 232 159h83v26c0 61 -26 93 -94 93c-62 0 -98 -27 -126 -65l-81 72c34 58 109 101 224 101c141 0 225 -65 225 -195v-226h57v-107h-85zM274 85c52 0 93 26 93 74v62h-79c-59 0 -91 -21 -91 -61v-20c0 -36 30 -55 77 -55z" />
    <glyph glyph-name="uni1EA1" unicode="&#x1ea1;" 
d="M292 -203c-59 0 -81 27 -81 62v26c0 36 22 63 81 63s81 -27 81 -63v-26c0 -35 -22 -62 -81 -62zM487 0c-61 0 -101 33 -107 91h-5c-18 -67 -78 -103 -157 -103c-100 0 -166 57 -166 154c0 108 81 159 232 159h83v26c0 61 -26 93 -94 93c-62 0 -98 -27 -126 -65l-81 72
c34 58 109 101 224 101c141 0 225 -65 225 -195v-226h57v-107h-85zM274 85c52 0 93 26 93 74v62h-79c-59 0 -91 -21 -91 -61v-20c0 -36 30 -55 77 -55z" />
    <glyph glyph-name="agrave" unicode="&#xe0;" 
d="M142 746l123 61l99 -194l-88 -43zM487 0c-61 0 -101 33 -107 91h-5c-18 -67 -78 -103 -157 -103c-100 0 -166 57 -166 154c0 108 81 159 232 159h83v26c0 61 -26 93 -94 93c-62 0 -98 -27 -126 -65l-81 72c34 58 109 101 224 101c141 0 225 -65 225 -195v-226h57v-107
h-85zM274 85c52 0 93 26 93 74v62h-79c-59 0 -91 -21 -91 -61v-20c0 -36 30 -55 77 -55z" />
    <glyph glyph-name="uni1EA3" unicode="&#x1ea3;" 
d="M172 793h143c75 0 98 -34 98 -73s-24 -86 -57 -126l-28 -34l-75 35l41 92h-122v106zM487 0c-61 0 -101 33 -107 91h-5c-18 -67 -78 -103 -157 -103c-100 0 -166 57 -166 154c0 108 81 159 232 159h83v26c0 61 -26 93 -94 93c-62 0 -98 -27 -126 -65l-81 72
c34 58 109 101 224 101c141 0 225 -65 225 -195v-226h57v-107h-85zM274 85c52 0 93 26 93 74v62h-79c-59 0 -91 -21 -91 -61v-20c0 -36 30 -55 77 -55z" />
    <glyph glyph-name="amacron" unicode="&#x101;" 
d="M139 718h306v-103h-306v103zM487 0c-61 0 -101 33 -107 91h-5c-18 -67 -78 -103 -157 -103c-100 0 -166 57 -166 154c0 108 81 159 232 159h83v26c0 61 -26 93 -94 93c-62 0 -98 -27 -126 -65l-81 72c34 58 109 101 224 101c141 0 225 -65 225 -195v-226h57v-107h-85z
M274 85c52 0 93 26 93 74v62h-79c-59 0 -91 -21 -91 -61v-20c0 -36 30 -55 77 -55z" />
    <glyph glyph-name="aogonek" unicode="&#x105;" 
d="M572 0c-98 -60 -114 -81 -114 -105c0 -25 18 -33 38 -33c24 0 41 12 55 28l53 -51c-17 -32 -59 -51 -122 -51c-66 0 -124 21 -124 85c0 56 45 89 119 123l-2 4c-55 4 -90 36 -95 91h-5c-18 -67 -78 -103 -157 -103c-100 0 -166 57 -166 154c0 108 81 159 232 159h83v26
c0 61 -26 93 -94 93c-62 0 -98 -27 -126 -65l-81 72c34 58 109 101 224 101c141 0 225 -65 225 -195v-226h57v-107zM288 221c-59 0 -91 -21 -91 -61v-20c0 -36 30 -55 76 -55c53 0 94 26 94 74v62h-79z" />
    <glyph glyph-name="aring" unicode="&#xe5;" 
d="M292 549c-83 0 -148 60 -148 143c0 82 65 143 148 143s148 -60 148 -143c0 -82 -65 -143 -148 -143zM292 624c33 0 51 20 51 51v34c0 32 -18 51 -51 51s-51 -20 -51 -51v-34c0 -32 18 -51 51 -51zM487 0c-61 0 -101 33 -107 91h-5c-18 -67 -78 -103 -157 -103
c-100 0 -166 57 -166 154c0 108 81 159 232 159h83v26c0 61 -26 93 -94 93c-62 0 -98 -27 -126 -65l-81 72c34 58 109 101 224 101c141 0 225 -65 225 -195v-226h57v-107h-85zM274 85c52 0 93 26 93 74v62h-79c-59 0 -91 -21 -91 -61v-20c0 -36 30 -55 77 -55z" />
    <glyph glyph-name="aringacute" unicode="&#x1fb;" 
d="M285 806l-53 57l129 117l74 -81zM292 555c-85 0 -152 44 -152 120c0 75 67 120 152 120s152 -44 152 -120c0 -75 -67 -120 -152 -120zM292 625c36 0 55 14 55 45v10c0 32 -19 45 -55 45s-55 -14 -55 -45v-10c0 -32 19 -45 55 -45zM487 0c-61 0 -101 33 -107 91h-5
c-18 -67 -78 -103 -157 -103c-100 0 -166 57 -166 154c0 108 81 159 232 159h83v26c0 61 -26 93 -94 93c-62 0 -98 -27 -126 -65l-81 72c34 58 109 101 224 101c141 0 225 -65 225 -195v-226h57v-107h-85zM274 85c52 0 93 26 93 74v62h-79c-59 0 -91 -21 -91 -61v-20
c0 -36 30 -55 77 -55z" />
    <glyph glyph-name="atilde" unicode="&#xe3;" 
d="M368 592c-30 0 -52 9 -77 20c-29 12 -52 22 -78 22c-23 0 -38 -8 -59 -25l-52 68c24 36 61 64 114 64c30 0 52 -9 77 -20c29 -12 52 -22 78 -22c23 0 38 8 59 25l52 -68c-24 -36 -61 -64 -114 -64zM487 0c-61 0 -101 33 -107 91h-5c-18 -67 -78 -103 -157 -103
c-100 0 -166 57 -166 154c0 108 81 159 232 159h83v26c0 61 -26 93 -94 93c-62 0 -98 -27 -126 -65l-81 72c34 58 109 101 224 101c141 0 225 -65 225 -195v-226h57v-107h-85zM274 85c52 0 93 26 93 74v62h-79c-59 0 -91 -21 -91 -61v-20c0 -36 30 -55 77 -55z" />
    <glyph glyph-name="uni1EAF" unicode="&#x1eaf;" 
d="M292 563c-122 0 -176 81 -202 149l75 47l21 -28c39 -52 64 -67 106 -67s67 15 106 67l21 28l75 -47c-26 -68 -80 -149 -202 -149zM311 724l-79 39l99 194l114 -57zM487 0c-61 0 -101 33 -107 91h-5c-18 -67 -78 -103 -157 -103c-100 0 -166 57 -166 154
c0 108 81 159 232 159h83v26c0 61 -26 93 -94 93c-62 0 -98 -27 -126 -65l-81 72c34 58 109 101 224 101c141 0 225 -65 225 -195v-226h57v-107h-85zM274 85c52 0 93 26 93 74v62h-79c-59 0 -91 -21 -91 -61v-20c0 -36 30 -55 77 -55z" />
    <glyph glyph-name="uni1EB7" unicode="&#x1eb7;" 
d="M292 -203c-59 0 -81 27 -81 62v26c0 36 22 63 81 63s81 -27 81 -63v-26c0 -35 -22 -62 -81 -62zM292 570c-120 0 -169 98 -194 170l83 42l21 -32c31 -48 51 -77 90 -77s59 29 90 77l21 32l83 -42c-25 -72 -74 -170 -194 -170zM487 0c-61 0 -101 33 -107 91h-5
c-18 -67 -78 -103 -157 -103c-100 0 -166 57 -166 154c0 108 81 159 232 159h83v26c0 61 -26 93 -94 93c-62 0 -98 -27 -126 -65l-81 72c34 58 109 101 224 101c141 0 225 -65 225 -195v-226h57v-107h-85zM274 85c52 0 93 26 93 74v62h-79c-59 0 -91 -21 -91 -61v-20
c0 -36 30 -55 77 -55z" />
    <glyph glyph-name="uni1EB1" unicode="&#x1eb1;" 
d="M292 563c-122 0 -176 81 -202 149l75 47l21 -28c39 -52 64 -67 106 -67s67 15 106 67l21 28l75 -47c-26 -68 -80 -149 -202 -149zM139 900l114 57l99 -194l-79 -39zM487 0c-61 0 -101 33 -107 91h-5c-18 -67 -78 -103 -157 -103c-100 0 -166 57 -166 154
c0 108 81 159 232 159h83v26c0 61 -26 93 -94 93c-62 0 -98 -27 -126 -65l-81 72c34 58 109 101 224 101c141 0 225 -65 225 -195v-226h57v-107h-85zM274 85c52 0 93 26 93 74v62h-79c-59 0 -91 -21 -91 -61v-20c0 -36 30 -55 77 -55z" />
    <glyph glyph-name="uni1EB3" unicode="&#x1eb3;" 
d="M292 563c-122 0 -176 81 -202 149l75 47l21 -28c39 -52 64 -67 106 -67s67 15 106 67l21 28l75 -47c-26 -68 -80 -149 -202 -149zM162 943h136c75 0 98 -34 98 -72c0 -40 -29 -86 -62 -127l-27 -33l-66 32l43 99h-122v101zM487 0c-61 0 -101 33 -107 91h-5
c-18 -67 -78 -103 -157 -103c-100 0 -166 57 -166 154c0 108 81 159 232 159h83v26c0 61 -26 93 -94 93c-62 0 -98 -27 -126 -65l-81 72c34 58 109 101 224 101c141 0 225 -65 225 -195v-226h57v-107h-85zM274 85c52 0 93 26 93 74v62h-79c-59 0 -91 -21 -91 -61v-20
c0 -36 30 -55 77 -55z" />
    <glyph glyph-name="uni1EB5" unicode="&#x1eb5;" 
d="M292 563c-122 0 -176 81 -202 149l75 47l21 -28c39 -52 64 -67 106 -67s67 15 106 67l21 28l75 -47c-26 -68 -80 -149 -202 -149zM367 778c-30 0 -52 9 -77 20c-29 12 -52 22 -78 22c-23 0 -38 -8 -59 -25l-50 64c24 36 61 64 114 64c30 0 52 -9 77 -20
c29 -12 52 -22 78 -22c23 0 38 8 59 25l50 -64c-24 -36 -61 -64 -114 -64zM487 0c-61 0 -101 33 -107 91h-5c-18 -67 -78 -103 -157 -103c-100 0 -166 57 -166 154c0 108 81 159 232 159h83v26c0 61 -26 93 -94 93c-62 0 -98 -27 -126 -65l-81 72c34 58 109 101 224 101
c141 0 225 -65 225 -195v-226h57v-107h-85zM274 85c52 0 93 26 93 74v62h-79c-59 0 -91 -21 -91 -61v-20c0 -36 30 -55 77 -55z" />
    <glyph glyph-name="uni1EA5" unicode="&#x1ea5;" 
d="M465 724l-79 39l99 194l114 -57zM339 772l145 -147l-70 -64l-124 104l-124 -104l-66 64l145 147h94zM487 0c-61 0 -101 33 -107 91h-5c-18 -67 -78 -103 -157 -103c-100 0 -166 57 -166 154c0 108 81 159 232 159h83v26c0 61 -26 93 -94 93c-62 0 -98 -27 -126 -65
l-81 72c34 58 109 101 224 101c141 0 225 -65 225 -195v-226h57v-107h-85zM274 85c52 0 93 26 93 74v62h-79c-59 0 -91 -21 -91 -61v-20c0 -36 30 -55 77 -55z" />
    <glyph glyph-name="uni1EAD" unicode="&#x1ead;" 
d="M292 -203c-59 0 -81 27 -81 62v26c0 36 22 63 81 63s81 -27 81 -63v-26c0 -35 -22 -62 -81 -62zM354 786l132 -159l-75 -58l-121 115l-121 -115l-71 58l132 159h124zM487 0c-61 0 -101 33 -107 91h-5c-18 -67 -78 -103 -157 -103c-100 0 -166 57 -166 154
c0 108 81 159 232 159h83v26c0 61 -26 93 -94 93c-62 0 -98 -27 -126 -65l-81 72c34 58 109 101 224 101c141 0 225 -65 225 -195v-226h57v-107h-85zM274 85c52 0 93 26 93 74v62h-79c-59 0 -91 -21 -91 -61v-20c0 -36 30 -55 77 -55z" />
    <glyph glyph-name="uni1EA7" unicode="&#x1ea7;" 
d="M-15 900l114 57l99 -194l-79 -39zM339 772l145 -147l-70 -64l-124 104l-124 -104l-66 64l145 147h94zM487 0c-61 0 -101 33 -107 91h-5c-18 -67 -78 -103 -157 -103c-100 0 -166 57 -166 154c0 108 81 159 232 159h83v26c0 61 -26 93 -94 93c-62 0 -98 -27 -126 -65
l-81 72c34 58 109 101 224 101c141 0 225 -65 225 -195v-226h57v-107h-85zM274 85c52 0 93 26 93 74v62h-79c-59 0 -91 -21 -91 -61v-20c0 -36 30 -55 77 -55z" />
    <glyph glyph-name="uni1EA9" unicode="&#x1ea9;" 
d="M330 943h134c74 0 98 -34 98 -72c0 -40 -30 -87 -63 -127l-27 -33l-66 34l43 97h-119v101zM339 772l145 -147l-70 -64l-124 104l-124 -104l-66 64l145 147h94zM487 0c-61 0 -101 33 -107 91h-5c-18 -67 -78 -103 -157 -103c-100 0 -166 57 -166 154c0 108 81 159 232 159
h83v26c0 61 -26 93 -94 93c-62 0 -98 -27 -126 -65l-81 72c34 58 109 101 224 101c141 0 225 -65 225 -195v-226h57v-107h-85zM274 85c52 0 93 26 93 74v62h-79c-59 0 -91 -21 -91 -61v-20c0 -36 30 -55 77 -55z" />
    <glyph glyph-name="uni1EAB" unicode="&#x1eab;" 
d="M217 933c30 0 52 -9 77 -20c29 -12 52 -22 78 -22c23 0 38 8 59 25l50 -64c-24 -36 -61 -64 -114 -64c-30 0 -52 9 -77 20c-29 12 -52 22 -78 22c-23 0 -38 -8 -59 -25l-50 64c24 36 61 64 114 64zM340 759l142 -134l-67 -64l-124 95l-124 -95l-65 64l142 134h96zM487 0
c-61 0 -101 33 -107 91h-5c-18 -67 -78 -103 -157 -103c-100 0 -166 57 -166 154c0 108 81 159 232 159h83v26c0 61 -26 93 -94 93c-62 0 -98 -27 -126 -65l-81 72c34 58 109 101 224 101c141 0 225 -65 225 -195v-226h57v-107h-85zM274 85c52 0 93 26 93 74v62h-79
c-59 0 -91 -21 -91 -61v-20c0 -36 30 -55 77 -55z" />
    <glyph glyph-name="aacute.alt01" 
d="M307 570l-88 43l99 194l123 -61zM393 94h-7c-26 -62 -70 -106 -153 -106c-114 0 -194 83 -194 270s80 270 194 270c83 0 127 -44 153 -106h7v94h148v-516h-148v94zM297 103c52 0 96 25 96 79v152c0 54 -44 79 -96 79c-66 0 -104 -43 -104 -115v-80
c0 -72 38 -115 104 -115z" />
    <glyph glyph-name="abreve.alt01" 
d="M291 570c-120 0 -169 98 -194 170l83 42l21 -32c31 -48 51 -77 90 -77s59 29 90 77l21 32l83 -42c-25 -72 -74 -170 -194 -170zM393 94h-7c-26 -62 -70 -106 -153 -106c-114 0 -194 83 -194 270s80 270 194 270c83 0 127 -44 153 -106h7v94h148v-516h-148v94zM297 103
c52 0 96 25 96 79v152c0 54 -44 79 -96 79c-66 0 -104 -43 -104 -115v-80c0 -72 38 -115 104 -115z" />
    <glyph glyph-name="acircumflex.alt01" 
d="M353 786l132 -159l-75 -58l-121 115l-121 -115l-71 58l132 159h124zM393 94h-7c-26 -62 -70 -106 -153 -106c-114 0 -194 83 -194 270s80 270 194 270c83 0 127 -44 153 -106h7v94h148v-516h-148v94zM297 103c52 0 96 25 96 79v152c0 54 -44 79 -96 79
c-66 0 -104 -43 -104 -115v-80c0 -72 38 -115 104 -115z" />
    <glyph glyph-name="adieresis.alt01" 
d="M181 591c-59 0 -80 28 -80 63v26c0 35 21 62 80 62c60 0 81 -27 81 -62v-26c0 -35 -21 -63 -81 -63zM401 591c-60 0 -81 28 -81 63v26c0 35 21 62 81 62c59 0 80 -27 80 -62v-26c0 -35 -21 -63 -80 -63zM393 94h-7c-26 -62 -70 -106 -153 -106c-114 0 -194 83 -194 270
s80 270 194 270c83 0 127 -44 153 -106h7v94h148v-516h-148v94zM297 103c52 0 96 25 96 79v152c0 54 -44 79 -96 79c-66 0 -104 -43 -104 -115v-80c0 -72 38 -115 104 -115z" />
    <glyph glyph-name="uni1EA1.alt01" 
d="M291 -203c-59 0 -81 27 -81 62v26c0 36 22 63 81 63s81 -27 81 -63v-26c0 -35 -22 -62 -81 -62zM393 94h-7c-26 -62 -70 -106 -153 -106c-114 0 -194 83 -194 270s80 270 194 270c83 0 127 -44 153 -106h7v94h148v-516h-148v94zM297 103c52 0 96 25 96 79v152
c0 54 -44 79 -96 79c-66 0 -104 -43 -104 -115v-80c0 -72 38 -115 104 -115z" />
    <glyph glyph-name="agrave.alt01" 
d="M141 746l123 61l99 -194l-88 -43zM393 94h-7c-26 -62 -70 -106 -153 -106c-114 0 -194 83 -194 270s80 270 194 270c83 0 127 -44 153 -106h7v94h148v-516h-148v94zM297 103c52 0 96 25 96 79v152c0 54 -44 79 -96 79c-66 0 -104 -43 -104 -115v-80
c0 -72 38 -115 104 -115z" />
    <glyph glyph-name="uni1EA3.alt01" 
d="M171 793h143c75 0 98 -34 98 -73s-24 -86 -57 -126l-28 -34l-75 35l41 92h-122v106zM393 94h-7c-26 -62 -70 -106 -153 -106c-114 0 -194 83 -194 270s80 270 194 270c83 0 127 -44 153 -106h7v94h148v-516h-148v94zM297 103c52 0 96 25 96 79v152c0 54 -44 79 -96 79
c-66 0 -104 -43 -104 -115v-80c0 -72 38 -115 104 -115z" />
    <glyph glyph-name="amacron.alt01" 
d="M138 718h306v-103h-306v103zM393 94h-7c-26 -62 -70 -106 -153 -106c-114 0 -194 83 -194 270s80 270 194 270c83 0 127 -44 153 -106h7v94h148v-516h-148v94zM297 103c52 0 96 25 96 79v152c0 54 -44 79 -96 79c-66 0 -104 -43 -104 -115v-80c0 -72 38 -115 104 -115z
" />
    <glyph glyph-name="aogonek.alt01" 
d="M451 -212c-66 0 -124 21 -124 85c0 56 45 89 119 123l-1 4h-52v94h-7c-26 -62 -70 -106 -153 -106c-114 0 -194 83 -194 270s80 270 194 270c83 0 127 -44 153 -106h7v94h148v-516c-98 -60 -114 -81 -114 -105c0 -25 18 -33 38 -33c24 0 41 12 55 28l53 -51
c-17 -32 -59 -51 -122 -51zM297 103c52 0 96 25 96 79v152c0 54 -44 79 -96 79c-66 0 -104 -43 -104 -115v-80c0 -72 38 -115 104 -115z" />
    <glyph glyph-name="aring.alt01" 
d="M291 549c-83 0 -148 60 -148 143c0 82 65 143 148 143s148 -60 148 -143c0 -82 -65 -143 -148 -143zM291 624c33 0 51 20 51 51v34c0 32 -18 51 -51 51s-51 -20 -51 -51v-34c0 -32 18 -51 51 -51zM393 94h-7c-26 -62 -70 -106 -153 -106c-114 0 -194 83 -194 270
s80 270 194 270c83 0 127 -44 153 -106h7v94h148v-516h-148v94zM297 103c52 0 96 25 96 79v152c0 54 -44 79 -96 79c-66 0 -104 -43 -104 -115v-80c0 -72 38 -115 104 -115z" />
    <glyph glyph-name="aringacute.alt01" 
d="M284 806l-53 57l129 117l74 -81zM291 555c-85 0 -152 44 -152 120c0 75 67 120 152 120s152 -44 152 -120c0 -75 -67 -120 -152 -120zM291 625c36 0 55 14 55 45v10c0 32 -19 45 -55 45s-55 -14 -55 -45v-10c0 -32 19 -45 55 -45zM393 94h-7c-26 -62 -70 -106 -153 -106
c-114 0 -194 83 -194 270s80 270 194 270c83 0 127 -44 153 -106h7v94h148v-516h-148v94zM297 103c52 0 96 25 96 79v152c0 54 -44 79 -96 79c-66 0 -104 -43 -104 -115v-80c0 -72 38 -115 104 -115z" />
    <glyph glyph-name="atilde.alt01" 
d="M367 592c-30 0 -52 9 -77 20c-29 12 -52 22 -78 22c-23 0 -38 -8 -59 -25l-52 68c24 36 61 64 114 64c30 0 52 -9 77 -20c29 -12 52 -22 78 -22c23 0 38 8 59 25l52 -68c-24 -36 -61 -64 -114 -64zM393 94h-7c-26 -62 -70 -106 -153 -106c-114 0 -194 83 -194 270
s80 270 194 270c83 0 127 -44 153 -106h7v94h148v-516h-148v94zM297 103c52 0 96 25 96 79v152c0 54 -44 79 -96 79c-66 0 -104 -43 -104 -115v-80c0 -72 38 -115 104 -115z" />
    <glyph glyph-name="uni1EAF.alt01" 
d="M291 563c-122 0 -176 81 -202 149l75 47l21 -28c39 -52 64 -67 106 -67s67 15 106 67l21 28l75 -47c-26 -68 -80 -149 -202 -149zM310 724l-79 39l99 194l114 -57zM393 94h-7c-26 -62 -70 -106 -153 -106c-114 0 -194 83 -194 270s80 270 194 270c83 0 127 -44 153 -106
h7v94h148v-516h-148v94zM297 103c52 0 96 25 96 79v152c0 54 -44 79 -96 79c-66 0 -104 -43 -104 -115v-80c0 -72 38 -115 104 -115z" />
    <glyph glyph-name="uni1EB7.alt01" 
d="M291 -203c-59 0 -81 27 -81 62v26c0 36 22 63 81 63s81 -27 81 -63v-26c0 -35 -22 -62 -81 -62zM291 570c-120 0 -169 98 -194 170l83 42l21 -32c31 -48 51 -77 90 -77s59 29 90 77l21 32l83 -42c-25 -72 -74 -170 -194 -170zM393 94h-7c-26 -62 -70 -106 -153 -106
c-114 0 -194 83 -194 270s80 270 194 270c83 0 127 -44 153 -106h7v94h148v-516h-148v94zM297 103c52 0 96 25 96 79v152c0 54 -44 79 -96 79c-66 0 -104 -43 -104 -115v-80c0 -72 38 -115 104 -115z" />
    <glyph glyph-name="uni1EB1.alt01" 
d="M291 563c-122 0 -176 81 -202 149l75 47l21 -28c39 -52 64 -67 106 -67s67 15 106 67l21 28l75 -47c-26 -68 -80 -149 -202 -149zM138 900l114 57l99 -194l-79 -39zM393 94h-7c-26 -62 -70 -106 -153 -106c-114 0 -194 83 -194 270s80 270 194 270c83 0 127 -44 153 -106
h7v94h148v-516h-148v94zM297 103c52 0 96 25 96 79v152c0 54 -44 79 -96 79c-66 0 -104 -43 -104 -115v-80c0 -72 38 -115 104 -115z" />
    <glyph glyph-name="uni1EB3.alt01" 
d="M291 563c-122 0 -176 81 -202 149l75 47l21 -28c39 -52 64 -67 106 -67s67 15 106 67l21 28l75 -47c-26 -68 -80 -149 -202 -149zM161 943h136c75 0 98 -34 98 -72c0 -40 -29 -86 -62 -127l-27 -33l-66 32l43 99h-122v101zM393 94h-7c-26 -62 -70 -106 -153 -106
c-114 0 -194 83 -194 270s80 270 194 270c83 0 127 -44 153 -106h7v94h148v-516h-148v94zM297 103c52 0 96 25 96 79v152c0 54 -44 79 -96 79c-66 0 -104 -43 -104 -115v-80c0 -72 38 -115 104 -115z" />
    <glyph glyph-name="uni1EB5.alt01" 
d="M291 563c-122 0 -176 81 -202 149l75 47l21 -28c39 -52 64 -67 106 -67s67 15 106 67l21 28l75 -47c-26 -68 -80 -149 -202 -149zM366 778c-30 0 -52 9 -77 20c-29 12 -52 22 -78 22c-23 0 -38 -8 -59 -25l-50 64c24 36 61 64 114 64c30 0 52 -9 77 -20
c29 -12 52 -22 78 -22c23 0 38 8 59 25l50 -64c-24 -36 -61 -64 -114 -64zM393 94h-7c-26 -62 -70 -106 -153 -106c-114 0 -194 83 -194 270s80 270 194 270c83 0 127 -44 153 -106h7v94h148v-516h-148v94zM297 103c52 0 96 25 96 79v152c0 54 -44 79 -96 79
c-66 0 -104 -43 -104 -115v-80c0 -72 38 -115 104 -115z" />
    <glyph glyph-name="uni1EA5.alt01" 
d="M464 724l-79 39l99 194l114 -57zM338 772l145 -147l-70 -64l-124 104l-124 -104l-66 64l145 147h94zM393 94h-7c-26 -62 -70 -106 -153 -106c-114 0 -194 83 -194 270s80 270 194 270c83 0 127 -44 153 -106h7v94h148v-516h-148v94zM297 103c52 0 96 25 96 79v152
c0 54 -44 79 -96 79c-66 0 -104 -43 -104 -115v-80c0 -72 38 -115 104 -115z" />
    <glyph glyph-name="uni1EAD.alt01" 
d="M291 -203c-59 0 -81 27 -81 62v26c0 36 22 63 81 63s81 -27 81 -63v-26c0 -35 -22 -62 -81 -62zM353 786l132 -159l-75 -58l-121 115l-121 -115l-71 58l132 159h124zM393 94h-7c-26 -62 -70 -106 -153 -106c-114 0 -194 83 -194 270s80 270 194 270
c83 0 127 -44 153 -106h7v94h148v-516h-148v94zM297 103c52 0 96 25 96 79v152c0 54 -44 79 -96 79c-66 0 -104 -43 -104 -115v-80c0 -72 38 -115 104 -115z" />
    <glyph glyph-name="uni1EA7.alt01" 
d="M-16 900l114 57l99 -194l-79 -39zM338 772l145 -147l-70 -64l-124 104l-124 -104l-66 64l145 147h94zM393 94h-7c-26 -62 -70 -106 -153 -106c-114 0 -194 83 -194 270s80 270 194 270c83 0 127 -44 153 -106h7v94h148v-516h-148v94zM297 103c52 0 96 25 96 79v152
c0 54 -44 79 -96 79c-66 0 -104 -43 -104 -115v-80c0 -72 38 -115 104 -115z" />
    <glyph glyph-name="uni1EA9.alt01" 
d="M329 943h134c74 0 98 -34 98 -72c0 -40 -30 -87 -63 -127l-27 -33l-66 34l43 97h-119v101zM338 772l145 -147l-70 -64l-124 104l-124 -104l-66 64l145 147h94zM393 94h-7c-26 -62 -70 -106 -153 -106c-114 0 -194 83 -194 270s80 270 194 270c83 0 127 -44 153 -106h7v94
h148v-516h-148v94zM297 103c52 0 96 25 96 79v152c0 54 -44 79 -96 79c-66 0 -104 -43 -104 -115v-80c0 -72 38 -115 104 -115z" />
    <glyph glyph-name="uni1EAB.alt01" 
d="M216 933c30 0 52 -9 77 -20c29 -12 52 -22 78 -22c23 0 38 8 59 25l50 -64c-24 -36 -61 -64 -114 -64c-30 0 -52 9 -77 20c-29 12 -52 22 -78 22c-23 0 -38 -8 -59 -25l-50 64c24 36 61 64 114 64zM339 759l142 -134l-67 -64l-124 95l-124 -95l-65 64l142 134h96zM393 94
h-7c-26 -62 -70 -106 -153 -106c-114 0 -194 83 -194 270s80 270 194 270c83 0 127 -44 153 -106h7v94h148v-516h-148v94zM297 103c52 0 96 25 96 79v152c0 54 -44 79 -96 79c-66 0 -104 -43 -104 -115v-80c0 -72 38 -115 104 -115z" />
    <glyph glyph-name="ae" unicode="&#xe6;" 
d="M137 -12c-75 0 -133 51 -133 153c0 107 65 164 182 164h40v43c0 57 -20 88 -59 88c-35 0 -50 -26 -62 -68l-92 33c22 86 78 127 155 127c61 0 102 -26 125 -73h4c28 49 68 73 119 73c102 0 168 -93 168 -239v-61h-239v-15c0 -77 25 -129 72 -129c37 0 54 33 64 72l97 -27
c-20 -78 -67 -141 -159 -141c-70 0 -133 35 -157 117h-4c-12 -81 -58 -117 -121 -117zM169 78c42 0 57 36 57 101v49h-29c-49 0 -77 -24 -77 -71v-19c0 -37 16 -60 49 -60zM410 438c-44 0 -65 -45 -65 -101v-32h130v32c0 56 -21 101 -65 101z" />
    <glyph glyph-name="aeacute" unicode="&#x1fd;" 
d="M314 570l-88 43l99 194l123 -61zM137 -12c-75 0 -133 51 -133 153c0 107 65 164 182 164h40v43c0 57 -20 88 -59 88c-35 0 -50 -26 -62 -68l-92 33c22 86 78 127 155 127c61 0 102 -26 125 -73h4c28 49 68 73 119 73c102 0 168 -93 168 -239v-61h-239v-15
c0 -77 25 -129 72 -129c37 0 54 33 64 72l97 -27c-20 -78 -67 -141 -159 -141c-70 0 -133 35 -157 117h-4c-12 -81 -58 -117 -121 -117zM169 78c42 0 57 36 57 101v49h-29c-49 0 -77 -24 -77 -71v-19c0 -37 16 -60 49 -60zM410 438c-44 0 -65 -45 -65 -101v-32h130v32
c0 56 -21 101 -65 101z" />
    <glyph glyph-name="cacute" unicode="&#x107;" 
d="M330 570l-88 43l99 194l123 -61zM321 -12c-163 0 -261 103 -261 270s99 270 260 270c113 0 179 -51 215 -126l-114 -62c-18 40 -46 70 -101 70c-67 0 -106 -42 -106 -110v-84c0 -68 38 -110 108 -110c57 0 87 30 109 72l112 -64c-37 -75 -107 -126 -222 -126z" />
    <glyph glyph-name="ccaron" unicode="&#x10d;" 
d="M252 578l-132 159l75 58l121 -115l121 115l71 -58l-132 -159h-124zM321 -12c-163 0 -261 103 -261 270s99 270 260 270c113 0 179 -51 215 -126l-114 -62c-18 40 -46 70 -101 70c-67 0 -106 -42 -106 -110v-84c0 -68 38 -110 108 -110c57 0 87 30 109 72l112 -64
c-37 -75 -107 -126 -222 -126z" />
    <glyph glyph-name="ccedilla" unicode="&#xe7;" 
d="M320 528c113 0 179 -51 215 -126l-114 -62c-18 40 -46 70 -101 70c-67 0 -106 -42 -106 -110v-84c0 -68 38 -110 108 -110c57 0 87 30 109 72l112 -64c-36 -73 -103 -123 -212 -126l-9 -43l4 -4c16 4 32 7 48 7c40 0 73 -20 73 -69c0 -68 -64 -91 -132 -91
c-69 0 -107 24 -124 44l46 56c13 -16 35 -29 66 -29c25 0 44 8 44 25c0 15 -13 34 -75 40l-21 2l14 67c-129 21 -205 118 -205 265c0 167 99 270 260 270z" />
    <glyph glyph-name="ccircumflex" unicode="&#x109;" 
d="M376 786l132 -159l-75 -58l-121 115l-121 -115l-71 58l132 159h124zM321 -12c-163 0 -261 103 -261 270s99 270 260 270c113 0 179 -51 215 -126l-114 -62c-18 40 -46 70 -101 70c-67 0 -106 -42 -106 -110v-84c0 -68 38 -110 108 -110c57 0 87 30 109 72l112 -64
c-37 -75 -107 -126 -222 -126z" />
    <glyph glyph-name="cdotaccent" unicode="&#x10b;" 
d="M314 582c-66 0 -89 31 -89 70v29c0 40 23 70 89 70s89 -30 89 -70v-29c0 -39 -23 -70 -89 -70zM321 -12c-163 0 -261 103 -261 270s99 270 260 270c113 0 179 -51 215 -126l-114 -62c-18 40 -46 70 -101 70c-67 0 -106 -42 -106 -110v-84c0 -68 38 -110 108 -110
c57 0 87 30 109 72l112 -64c-37 -75 -107 -126 -222 -126z" />
    <glyph glyph-name="dcaron" unicode="&#x10f;" 
d="M185 -12c-99 0 -158 85 -158 270s59 270 158 270c69 0 101 -43 121 -105h8v317h141v-740h-141v93h-8c-20 -62 -52 -105 -121 -105zM244 97c41 0 70 27 70 83v156c0 56 -29 83 -70 83c-44 0 -70 -30 -70 -103v-116c0 -73 26 -103 70 -103zM508 740h129l-54 -211h-77z" />
    <glyph glyph-name="dcroat" unicode="&#x111;" 
d="M393 94h-7c-26 -62 -70 -106 -153 -106c-114 0 -194 83 -194 270s80 270 194 270c83 0 127 -44 153 -106h7v158h-140v110h140v50h148v-50h55v-110h-55v-580h-148v94zM297 103c52 0 96 25 96 79v152c0 54 -44 79 -96 79c-66 0 -104 -43 -104 -115v-80
c0 -72 38 -115 104 -115z" />
    <glyph glyph-name="eth" unicode="&#xf0;" 
d="M483 693l-75 -44c87 -89 153 -209 153 -371c0 -203 -104 -290 -258 -290c-165 0 -263 101 -263 265c0 149 80 247 202 247c75 0 125 -37 157 -96l9 4c-18 61 -58 120 -114 174l-92 -54l-51 60l82 48c-48 38 -103 73 -162 104h226c17 -11 34 -24 51 -37l85 50zM302 98
c66 0 106 43 106 119v56c0 76 -42 115 -107 115c-68 0 -108 -42 -108 -117v-54c0 -76 43 -119 109 -119z" />
    <glyph glyph-name="eacute" unicode="&#xe9;" 
d="M317 570l-88 43l99 194l123 -61zM314 -12c-173 0 -264 103 -264 268c0 169 96 272 251 272c154 0 249 -101 249 -262v-44h-353v-9c0 -66 43 -111 122 -111c61 0 104 26 136 64l80 -87c-40 -49 -110 -91 -221 -91zM302 422c-64 0 -105 -43 -105 -109v-8h208v8
c0 67 -39 109 -103 109z" />
    <glyph glyph-name="ebreve" unicode="&#x115;" 
d="M301 570c-120 0 -169 98 -194 170l83 42l21 -32c31 -48 51 -77 90 -77s59 29 90 77l21 32l83 -42c-25 -72 -74 -170 -194 -170zM314 -12c-173 0 -264 103 -264 268c0 169 96 272 251 272c154 0 249 -101 249 -262v-44h-353v-9c0 -66 43 -111 122 -111c61 0 104 26 136 64
l80 -87c-40 -49 -110 -91 -221 -91zM302 422c-64 0 -105 -43 -105 -109v-8h208v8c0 67 -39 109 -103 109z" />
    <glyph glyph-name="ecaron" unicode="&#x11b;" 
d="M239 578l-132 159l75 58l121 -115l121 115l71 -58l-132 -159h-124zM314 -12c-173 0 -264 103 -264 268c0 169 96 272 251 272c154 0 249 -101 249 -262v-44h-353v-9c0 -66 43 -111 122 -111c61 0 104 26 136 64l80 -87c-40 -49 -110 -91 -221 -91zM302 422
c-64 0 -105 -43 -105 -109v-8h208v8c0 67 -39 109 -103 109z" />
    <glyph glyph-name="ecircumflex" unicode="&#xea;" 
d="M363 786l132 -159l-75 -58l-121 115l-121 -115l-71 58l132 159h124zM314 -12c-173 0 -264 103 -264 268c0 169 96 272 251 272c154 0 249 -101 249 -262v-44h-353v-9c0 -66 43 -111 122 -111c61 0 104 26 136 64l80 -87c-40 -49 -110 -91 -221 -91zM302 422
c-64 0 -105 -43 -105 -109v-8h208v8c0 67 -39 109 -103 109z" />
    <glyph glyph-name="edieresis" unicode="&#xeb;" 
d="M191 591c-59 0 -80 28 -80 63v26c0 35 21 62 80 62c60 0 81 -27 81 -62v-26c0 -35 -21 -63 -81 -63zM411 591c-60 0 -81 28 -81 63v26c0 35 21 62 81 62c59 0 80 -27 80 -62v-26c0 -35 -21 -63 -80 -63zM314 -12c-173 0 -264 103 -264 268c0 169 96 272 251 272
c154 0 249 -101 249 -262v-44h-353v-9c0 -66 43 -111 122 -111c61 0 104 26 136 64l80 -87c-40 -49 -110 -91 -221 -91zM302 422c-64 0 -105 -43 -105 -109v-8h208v8c0 67 -39 109 -103 109z" />
    <glyph glyph-name="edotaccent" unicode="&#x117;" 
d="M301 582c-66 0 -89 31 -89 70v29c0 40 23 70 89 70s89 -30 89 -70v-29c0 -39 -23 -70 -89 -70zM314 -12c-173 0 -264 103 -264 268c0 169 96 272 251 272c154 0 249 -101 249 -262v-44h-353v-9c0 -66 43 -111 122 -111c61 0 104 26 136 64l80 -87
c-40 -49 -110 -91 -221 -91zM302 422c-64 0 -105 -43 -105 -109v-8h208v8c0 67 -39 109 -103 109z" />
    <glyph glyph-name="uni1EB9" unicode="&#x1eb9;" 
d="M306 -203c-59 0 -81 27 -81 62v26c0 36 22 63 81 63s81 -27 81 -63v-26c0 -35 -22 -62 -81 -62zM314 -12c-173 0 -264 103 -264 268c0 169 96 272 251 272c154 0 249 -101 249 -262v-44h-353v-9c0 -66 43 -111 122 -111c61 0 104 26 136 64l80 -87
c-40 -49 -110 -91 -221 -91zM302 422c-64 0 -105 -43 -105 -109v-8h208v8c0 67 -39 109 -103 109z" />
    <glyph glyph-name="egrave" unicode="&#xe8;" 
d="M151 746l123 61l99 -194l-88 -43zM314 -12c-173 0 -264 103 -264 268c0 169 96 272 251 272c154 0 249 -101 249 -262v-44h-353v-9c0 -66 43 -111 122 -111c61 0 104 26 136 64l80 -87c-40 -49 -110 -91 -221 -91zM302 422c-64 0 -105 -43 -105 -109v-8h208v8
c0 67 -39 109 -103 109z" />
    <glyph glyph-name="uni1EBB" unicode="&#x1ebb;" 
d="M181 793h143c75 0 98 -34 98 -73s-24 -86 -57 -126l-28 -34l-75 35l41 92h-122v106zM314 -12c-173 0 -264 103 -264 268c0 169 96 272 251 272c154 0 249 -101 249 -262v-44h-353v-9c0 -66 43 -111 122 -111c61 0 104 26 136 64l80 -87c-40 -49 -110 -91 -221 -91z
M302 422c-64 0 -105 -43 -105 -109v-8h208v8c0 67 -39 109 -103 109z" />
    <glyph glyph-name="emacron" unicode="&#x113;" 
d="M148 718h306v-103h-306v103zM314 -12c-173 0 -264 103 -264 268c0 169 96 272 251 272c154 0 249 -101 249 -262v-44h-353v-9c0 -66 43 -111 122 -111c61 0 104 26 136 64l80 -87c-40 -49 -110 -91 -221 -91zM302 422c-64 0 -105 -43 -105 -109v-8h208v8
c0 67 -39 109 -103 109z" />
    <glyph glyph-name="eogonek" unicode="&#x119;" 
d="M363 -212c-65 0 -124 21 -124 84c0 54 45 85 118 116l-2 5c-10 -3 -28 -5 -50 -5c-154 0 -255 96 -255 269c0 168 96 271 251 271c154 0 249 -101 249 -262v-44h-353v-9c0 -66 43 -111 122 -111c61 0 104 26 136 64l80 -87c-24 -26 -47 -43 -103 -86
c-71 -55 -93 -70 -93 -98c0 -25 18 -33 38 -33c24 0 41 12 55 28l53 -51c-17 -32 -59 -51 -122 -51zM405 305v8c0 67 -39 109 -103 109s-105 -43 -105 -109v-8h208z" />
    <glyph glyph-name="uni1EBD" unicode="&#x1ebd;" 
d="M377 592c-30 0 -52 9 -77 20c-29 12 -52 22 -78 22c-23 0 -38 -8 -59 -25l-52 68c24 36 61 64 114 64c30 0 52 -9 77 -20c29 -12 52 -22 78 -22c23 0 38 8 59 25l52 -68c-24 -36 -61 -64 -114 -64zM314 -12c-173 0 -264 103 -264 268c0 169 96 272 251 272
c154 0 249 -101 249 -262v-44h-353v-9c0 -66 43 -111 122 -111c61 0 104 26 136 64l80 -87c-40 -49 -110 -91 -221 -91zM302 422c-64 0 -105 -43 -105 -109v-8h208v8c0 67 -39 109 -103 109z" />
    <glyph glyph-name="uni1EBF" unicode="&#x1ebf;" 
d="M474 724l-79 39l99 194l114 -57zM348 772l145 -147l-70 -64l-124 104l-124 -104l-66 64l145 147h94zM314 -12c-173 0 -264 103 -264 268c0 169 96 272 251 272c154 0 249 -101 249 -262v-44h-353v-9c0 -66 43 -111 122 -111c61 0 104 26 136 64l80 -87
c-40 -49 -110 -91 -221 -91zM302 422c-64 0 -105 -43 -105 -109v-8h208v8c0 67 -39 109 -103 109z" />
    <glyph glyph-name="uni1EC7" unicode="&#x1ec7;" 
d="M306 -203c-59 0 -81 27 -81 62v26c0 36 22 63 81 63s81 -27 81 -63v-26c0 -35 -22 -62 -81 -62zM363 786l132 -159l-75 -58l-121 115l-121 -115l-71 58l132 159h124zM314 -12c-173 0 -264 103 -264 268c0 169 96 272 251 272c154 0 249 -101 249 -262v-44h-353v-9
c0 -66 43 -111 122 -111c61 0 104 26 136 64l80 -87c-40 -49 -110 -91 -221 -91zM302 422c-64 0 -105 -43 -105 -109v-8h208v8c0 67 -39 109 -103 109z" />
    <glyph glyph-name="uni1EC1" unicode="&#x1ec1;" 
d="M-6 900l114 57l99 -194l-79 -39zM348 772l145 -147l-70 -64l-124 104l-124 -104l-66 64l145 147h94zM314 -12c-173 0 -264 103 -264 268c0 169 96 272 251 272c154 0 249 -101 249 -262v-44h-353v-9c0 -66 43 -111 122 -111c61 0 104 26 136 64l80 -87
c-40 -49 -110 -91 -221 -91zM302 422c-64 0 -105 -43 -105 -109v-8h208v8c0 67 -39 109 -103 109z" />
    <glyph glyph-name="uni1EC3" unicode="&#x1ec3;" 
d="M339 943h134c74 0 98 -34 98 -72c0 -40 -30 -87 -63 -127l-27 -33l-66 34l43 97h-119v101zM348 772l145 -147l-70 -64l-124 104l-124 -104l-66 64l145 147h94zM314 -12c-173 0 -264 103 -264 268c0 169 96 272 251 272c154 0 249 -101 249 -262v-44h-353v-9
c0 -66 43 -111 122 -111c61 0 104 26 136 64l80 -87c-40 -49 -110 -91 -221 -91zM302 422c-64 0 -105 -43 -105 -109v-8h208v8c0 67 -39 109 -103 109z" />
    <glyph glyph-name="uni1EC5" unicode="&#x1ec5;" 
d="M226 933c30 0 52 -9 77 -20c29 -12 52 -22 78 -22c23 0 38 8 59 25l50 -64c-24 -36 -61 -64 -114 -64c-30 0 -52 9 -77 20c-29 12 -52 22 -78 22c-23 0 -38 -8 -59 -25l-50 64c24 36 61 64 114 64zM349 759l142 -134l-67 -64l-124 95l-124 -95l-65 64l142 134h96z
M314 -12c-173 0 -264 103 -264 268c0 169 96 272 251 272c154 0 249 -101 249 -262v-44h-353v-9c0 -66 43 -111 122 -111c61 0 104 26 136 64l80 -87c-40 -49 -110 -91 -221 -91zM302 422c-64 0 -105 -43 -105 -109v-8h208v8c0 67 -39 109 -103 109z" />
    <glyph glyph-name="uni0259" unicode="&#x259;" 
d="M403 294v9c0 66 -43 111 -122 111c-61 0 -104 -26 -136 -64l-80 87c40 49 110 91 221 91c173 0 264 -103 264 -268c0 -169 -96 -272 -251 -272c-154 0 -249 101 -249 262v44h353zM195 203c0 -67 39 -109 103 -109s105 43 105 109v8h-208v-8z" />
    <glyph glyph-name="gbreve" unicode="&#x11f;" 
d="M294 570c-120 0 -169 98 -194 170l83 42l21 -32c31 -48 51 -77 90 -77s59 29 90 77l21 32l83 -42c-25 -72 -74 -170 -194 -170zM297 -212c-196 0 -250 49 -250 119c0 58 37 85 99 101v6c-44 13 -72 36 -72 81c0 50 37 71 93 84v6c-61 30 -97 84 -97 160
c0 119 89 183 226 183c33 0 64 -4 91 -12h194v-98h-83c16 -21 22 -45 22 -76c0 -116 -90 -182 -226 -182c-30 0 -59 3 -84 10c-15 -8 -26 -20 -26 -38c0 -33 35 -35 76 -35h118c148 0 205 -62 205 -149c0 -109 -90 -160 -286 -160zM294 254c59 0 86 33 86 78v24
c0 45 -27 78 -86 78c-58 0 -84 -33 -84 -78v-24c0 -45 26 -78 84 -78zM443 -63c0 27 -17 43 -77 43h-177c-13 -11 -20 -25 -20 -42c0 -32 25 -55 90 -55h87c67 0 97 19 97 54z" />
    <glyph glyph-name="gcircumflex" unicode="&#x11d;" 
d="M356 786l132 -159l-75 -58l-121 115l-121 -115l-71 58l132 159h124zM297 -212c-196 0 -250 49 -250 119c0 58 37 85 99 101v6c-44 13 -72 36 -72 81c0 50 37 71 93 84v6c-61 30 -97 84 -97 160c0 119 89 183 226 183c33 0 64 -4 91 -12h194v-98h-83c16 -21 22 -45 22 -76
c0 -116 -90 -182 -226 -182c-30 0 -59 3 -84 10c-15 -8 -26 -20 -26 -38c0 -33 35 -35 76 -35h118c148 0 205 -62 205 -149c0 -109 -90 -160 -286 -160zM294 254c59 0 86 33 86 78v24c0 45 -27 78 -86 78c-58 0 -84 -33 -84 -78v-24c0 -45 26 -78 84 -78zM443 -63
c0 27 -17 43 -77 43h-177c-13 -11 -20 -25 -20 -42c0 -32 25 -55 90 -55h87c67 0 97 19 97 54z" />
    <glyph glyph-name="uni0123" unicode="&#x123;" 
d="M302 794h88l-18 -215h-157zM583 -52c0 -109 -90 -160 -286 -160s-250 49 -250 119c0 58 37 85 99 101v6c-44 13 -72 36 -72 81c0 50 37 71 93 84v6c-61 29 -97 83 -97 159c0 120 89 184 224 184c33 0 64 -4 91 -11v28c0 40 30 70 79 70h91v-108h-124v-9
c56 -29 89 -81 89 -154c0 -119 -90 -184 -226 -184c-30 0 -59 3 -84 10c-15 -8 -26 -20 -26 -38c0 -33 35 -35 76 -35h118c148 0 205 -62 205 -149zM443 -63c0 27 -17 43 -77 43h-177c-13 -11 -20 -25 -20 -42c0 -32 25 -55 90 -55h87c67 0 97 19 97 54zM294 254
c59 0 86 33 86 78v24c0 45 -27 78 -86 78c-58 0 -84 -33 -84 -78v-24c0 -45 26 -78 84 -78z" />
    <glyph glyph-name="gdotaccent" unicode="&#x121;" 
d="M294 582c-66 0 -89 31 -89 70v29c0 40 23 70 89 70s89 -30 89 -70v-29c0 -39 -23 -70 -89 -70zM583 -52c0 -109 -90 -160 -286 -160s-250 49 -250 119c0 58 37 85 99 101v6c-44 13 -72 36 -72 81c0 50 37 71 93 84v6c-61 29 -97 83 -97 159c0 120 89 184 224 184
c33 0 64 -4 91 -11v28c0 40 30 70 79 70h91v-108h-124v-9c56 -29 89 -81 89 -154c0 -119 -90 -184 -226 -184c-30 0 -59 3 -84 10c-15 -8 -26 -20 -26 -38c0 -33 35 -35 76 -35h118c148 0 205 -62 205 -149zM443 -63c0 27 -17 43 -77 43h-177c-13 -11 -20 -25 -20 -42
c0 -32 25 -55 90 -55h87c67 0 97 19 97 54zM294 254c59 0 86 33 86 78v24c0 45 -27 78 -86 78c-58 0 -84 -33 -84 -78v-24c0 -45 26 -78 84 -78z" />
    <glyph glyph-name="gbreve.alt01" 
d="M291 570c-120 0 -169 98 -194 170l83 42l21 -32c31 -48 51 -77 90 -77s59 29 90 77l21 32l83 -42c-25 -72 -74 -170 -194 -170zM541 31c0 -153 -88 -243 -261 -243c-103 0 -169 32 -210 75l79 94c34 -35 76 -53 127 -53c80 0 117 43 117 114v103h-7
c-26 -62 -70 -107 -153 -107c-114 0 -194 84 -194 257s80 257 194 257c83 0 127 -44 153 -106h7v94h148v-485zM297 129c52 0 96 25 96 79v126c0 54 -44 79 -96 79c-66 0 -104 -43 -104 -115v-53c0 -72 38 -116 104 -116z" />
    <glyph glyph-name="gcircumflex.alt01" 
d="M353 786l132 -159l-75 -58l-121 115l-121 -115l-71 58l132 159h124zM541 31c0 -153 -88 -243 -261 -243c-103 0 -169 32 -210 75l79 94c34 -35 76 -53 127 -53c80 0 117 43 117 114v103h-7c-26 -62 -70 -107 -153 -107c-114 0 -194 84 -194 257s80 257 194 257
c83 0 127 -44 153 -106h7v94h148v-485zM297 129c52 0 96 25 96 79v126c0 54 -44 79 -96 79c-66 0 -104 -43 -104 -115v-53c0 -72 38 -116 104 -116z" />
    <glyph glyph-name="uni0123.alt01" 
d="M299 794h88l-18 -215h-157zM541 31c0 -153 -88 -243 -261 -243c-103 0 -169 32 -210 75l79 94c34 -35 76 -53 127 -53c80 0 117 43 117 114v103h-7c-26 -62 -70 -107 -153 -107c-114 0 -194 84 -194 257s80 257 194 257c83 0 127 -44 153 -106h7v94h148v-485zM297 129
c52 0 96 25 96 79v126c0 54 -44 79 -96 79c-66 0 -104 -43 -104 -115v-53c0 -72 38 -116 104 -116z" />
    <glyph glyph-name="gdotaccent.alt01" 
d="M291 582c-66 0 -89 31 -89 70v29c0 40 23 70 89 70s89 -30 89 -70v-29c0 -39 -23 -70 -89 -70zM541 31c0 -153 -88 -243 -261 -243c-103 0 -169 32 -210 75l79 94c34 -35 76 -53 127 -53c80 0 117 43 117 114v103h-7c-26 -62 -70 -107 -153 -107c-114 0 -194 84 -194 257
s80 257 194 257c83 0 127 -44 153 -106h7v94h148v-485zM297 129c52 0 96 25 96 79v126c0 54 -44 79 -96 79c-66 0 -104 -43 -104 -115v-53c0 -72 38 -116 104 -116z" />
    <glyph glyph-name="hbar" unicode="&#x127;" 
d="M65 0v580h-56v110h56v50h148v-50h140v-110h-140v-158h6c23 58 69 106 152 106c99 0 168 -69 168 -194v-334h-148v314c0 65 -29 100 -87 100c-46 0 -91 -25 -91 -75v-339h-148z" />
    <glyph glyph-name="hcircumflex" unicode="&#x125;" 
d="M201 968l132 -159l-75 -58l-121 115l-121 -115l-71 58l132 159h124zM65 740h148v-318h6c23 58 69 106 152 106c99 0 168 -69 168 -194v-334h-148v314c0 65 -29 100 -87 100c-46 0 -91 -25 -91 -75v-339h-148v740z" />
    <glyph glyph-name="dotlessi" unicode="&#x131;" 
d="M94 115h164v286h-164v115h312v-401h152v-115h-464v115z" />
    <glyph glyph-name="iacute" unicode="&#xed;" 
d="M348 570l-88 43l99 194l123 -61zM94 115h164v286h-164v115h312v-401h152v-115h-464v115z" />
    <glyph glyph-name="ibreve" unicode="&#x12d;" 
d="M332 570c-120 0 -169 98 -194 170l83 42l21 -32c31 -48 51 -77 90 -77s59 29 90 77l21 32l83 -42c-25 -72 -74 -170 -194 -170zM94 115h164v286h-164v115h312v-401h152v-115h-464v115z" />
    <glyph glyph-name="icircumflex" unicode="&#xee;" 
d="M394 786l132 -159l-75 -58l-121 115l-121 -115l-71 58l132 159h124zM94 115h164v286h-164v115h312v-401h152v-115h-464v115z" />
    <glyph glyph-name="idieresis" unicode="&#xef;" 
d="M222 591c-59 0 -80 28 -80 63v26c0 35 21 62 80 62c60 0 81 -27 81 -62v-26c0 -35 -21 -63 -81 -63zM442 591c-60 0 -81 28 -81 63v26c0 35 21 62 81 62c59 0 80 -27 80 -62v-26c0 -35 -21 -63 -80 -63zM94 115h164v286h-164v115h312v-401h152v-115h-464v115z" />
    <glyph glyph-name="uni1ECB" unicode="&#x1ecb;" 
d="M332 -203c-59 0 -81 27 -81 62v26c0 36 22 63 81 63s81 -27 81 -63v-26c0 -35 -22 -62 -81 -62zM332 582c-66 0 -89 31 -89 70v29c0 40 23 70 89 70s89 -30 89 -70v-29c0 -39 -23 -70 -89 -70zM94 115h164v286h-164v115h312v-401h152v-115h-464v115z" />
    <glyph glyph-name="igrave" unicode="&#xec;" 
d="M182 746l123 61l99 -194l-88 -43zM94 115h164v286h-164v115h312v-401h152v-115h-464v115z" />
    <glyph glyph-name="uni1EC9" unicode="&#x1ec9;" 
d="M212 793h143c75 0 98 -34 98 -73s-24 -86 -57 -126l-28 -34l-75 35l41 92h-122v106zM94 115h164v286h-164v115h312v-401h152v-115h-464v115z" />
    <glyph glyph-name="imacron" unicode="&#x12b;" 
d="M179 718h306v-103h-306v103zM94 115h164v286h-164v115h312v-401h152v-115h-464v115z" />
    <glyph glyph-name="iogonek" unicode="&#x12f;" 
d="M468 -212c-66 0 -124 21 -124 85c0 56 45 89 119 123l-1 4h-368v115h164v286h-164v115h312v-401h152v-115c-98 -60 -114 -81 -114 -105c0 -25 18 -33 38 -33c24 0 41 12 55 28l53 -51c-17 -32 -59 -51 -122 -51zM332 582c-66 0 -89 31 -89 70v29c0 40 23 70 89 70
s89 -30 89 -70v-29c0 -39 -23 -70 -89 -70z" />
    <glyph glyph-name="itilde" unicode="&#x129;" 
d="M408 592c-30 0 -52 9 -77 20c-29 12 -52 22 -78 22c-23 0 -38 -8 -59 -25l-52 68c24 36 61 64 114 64c30 0 52 -9 77 -20c29 -12 52 -22 78 -22c23 0 38 8 59 25l52 -68c-24 -36 -61 -64 -114 -64zM94 115h164v286h-164v115h312v-401h152v-115h-464v115z" />
    <glyph glyph-name="ij" unicode="&#x133;" 
d="M74 516h148v-516h-148v516zM222 -85h156v601h148v-567c0 -87 -51 -149 -158 -149h-146v115zM148 582c-66 0 -89 31 -89 70v29c0 40 23 70 89 70c67 0 90 -30 90 -70v-29c0 -39 -23 -70 -90 -70zM452 582c-67 0 -90 31 -90 70v29c0 40 23 70 90 70c66 0 89 -30 89 -70v-29
c0 -39 -23 -70 -89 -70z" />
    <glyph glyph-name="ijacute" 
d="M74 516h148v-516h-148v516zM222 -85h156v601h148v-567c0 -87 -51 -149 -158 -149h-146v115zM76 613l99 194l123 -61l-134 -176zM380 613l99 194l123 -61l-134 -176z" />
    <glyph glyph-name="uni0237" unicode="&#x237;" 
d="M92 -85h198v486h-200v115h348v-567c0 -87 -51 -149 -157 -149h-189v115z" />
    <glyph glyph-name="uni006A0301" 
d="M380 570l-88 43l99 194l123 -61zM92 -85h198v486h-200v115h348v-567c0 -87 -51 -149 -157 -149h-189v115z" />
    <glyph glyph-name="jcircumflex" unicode="&#x135;" 
d="M426 786l132 -159l-75 -58l-121 115l-121 -115l-71 58l132 159h124zM92 -85h198v486h-200v115h348v-567c0 -87 -51 -149 -157 -149h-189v115z" />
    <glyph glyph-name="uni0137" unicode="&#x137;" 
d="M230 -54h157l-87 -215h-88zM65 740h148v-420h7l69 81l108 115h170l-200 -204l221 -312h-176l-150 228l-49 -49v-179h-148v740z" />
    <glyph glyph-name="kgreenlandic" unicode="&#x138;" 
d="M262 228l-49 -49v-179h-148v516h148v-208h7l69 93l108 115h170l-200 -204l221 -312h-176z" />
    <glyph glyph-name="lacute" unicode="&#x13a;" 
d="M316 752l-88 43l99 194l123 -61zM68 115h158v510h-158v115h306v-625h158v-115h-464v115z" />
    <glyph glyph-name="lcaron" unicode="&#x13e;" 
d="M534 525h-97l6 215h157zM68 115h158v510h-158v115h306v-625h158v-115h-464v115z" />
    <glyph glyph-name="uni013C" unicode="&#x13c;" 
d="M222 -54h157l-87 -215h-88zM68 115h158v510h-158v115h306v-625h158v-115h-464v115z" />
    <glyph glyph-name="ldot" unicode="&#x140;" 
d="M511 223c-66 0 -89 31 -89 70v29c0 40 23 70 89 70s89 -30 89 -70v-29c0 -39 -23 -70 -89 -70zM53 115h158v510h-158v115h306v-625h158v-115h-464v115z" />
    <glyph glyph-name="lslash" unicode="&#x142;" 
d="M68 115h158v141l-129 -42v109l129 42v260h-158v115h306v-330l129 42v-109l-129 -42v-186h158v-115h-464v115z" />
    <glyph glyph-name="nacute" unicode="&#x144;" 
d="M318 570l-88 43l99 194l123 -61zM65 0v516h148v-94h6c23 58 69 106 152 106c99 0 168 -69 168 -194v-334h-148v314c0 65 -29 100 -87 100c-46 0 -91 -25 -91 -75v-339h-148z" />
    <glyph glyph-name="ncaron" unicode="&#x148;" 
d="M240 578l-132 159l75 58l121 -115l121 115l71 -58l-132 -159h-124zM65 0v516h148v-94h6c23 58 69 106 152 106c99 0 168 -69 168 -194v-334h-148v314c0 65 -29 100 -87 100c-46 0 -91 -25 -91 -75v-339h-148z" />
    <glyph glyph-name="uni0146" unicode="&#x146;" 
d="M224 -54h157l-87 -215h-88zM65 0v516h148v-94h6c23 58 69 106 152 106c99 0 168 -69 168 -194v-334h-148v314c0 65 -29 100 -87 100c-46 0 -91 -25 -91 -75v-339h-148z" />
    <glyph glyph-name="ntilde" unicode="&#xf1;" 
d="M378 592c-30 0 -52 9 -77 20c-29 12 -52 22 -78 22c-23 0 -38 -8 -59 -25l-52 68c24 36 61 64 114 64c30 0 52 -9 77 -20c29 -12 52 -22 78 -22c23 0 38 8 59 25l52 -68c-24 -36 -61 -64 -114 -64zM65 0v516h148v-94h6c23 58 69 106 152 106c99 0 168 -69 168 -194v-334
h-148v314c0 65 -29 100 -87 100c-46 0 -91 -25 -91 -75v-339h-148z" />
    <glyph glyph-name="napostrophe" unicode="&#x149;" 
d="M111 516h140v-94h6c21 58 64 106 143 106c89 0 149 -61 149 -186v-342h-140v314c0 68 -26 106 -76 106c-42 0 -82 -27 -82 -81v-339h-140v516zM6 740h129l-66 -211h-69z" />
    <glyph glyph-name="eng" unicode="&#x14b;" 
d="M213 -85h178v399c0 65 -29 100 -87 100c-46 0 -91 -25 -91 -75v-339h-148v516h148v-94h6c23 58 69 106 152 106c99 0 168 -69 168 -194v-385c0 -87 -50 -149 -157 -149h-169v115z" />
    <glyph glyph-name="oacute" unicode="&#xf3;" 
d="M316 570l-88 43l99 194l123 -61zM300 -12c-161 0 -259 103 -259 270s98 270 259 270s259 -103 259 -270s-98 -270 -259 -270zM300 98c66 0 106 43 106 119v82c0 76 -40 119 -106 119s-106 -43 -106 -119v-82c0 -76 40 -119 106 -119z" />
    <glyph glyph-name="obreve" unicode="&#x14f;" 
d="M300 570c-120 0 -169 98 -194 170l83 42l21 -32c31 -48 51 -77 90 -77s59 29 90 77l21 32l83 -42c-25 -72 -74 -170 -194 -170zM300 -12c-161 0 -259 103 -259 270s98 270 259 270s259 -103 259 -270s-98 -270 -259 -270zM300 98c66 0 106 43 106 119v82
c0 76 -40 119 -106 119s-106 -43 -106 -119v-82c0 -76 40 -119 106 -119z" />
    <glyph glyph-name="ocircumflex" unicode="&#xf4;" 
d="M362 786l132 -159l-75 -58l-121 115l-121 -115l-71 58l132 159h124zM300 -12c-161 0 -259 103 -259 270s98 270 259 270s259 -103 259 -270s-98 -270 -259 -270zM300 98c66 0 106 43 106 119v82c0 76 -40 119 -106 119s-106 -43 -106 -119v-82c0 -76 40 -119 106 -119z
" />
    <glyph glyph-name="odieresis" unicode="&#xf6;" 
d="M190 591c-59 0 -80 28 -80 63v26c0 35 21 62 80 62c60 0 81 -27 81 -62v-26c0 -35 -21 -63 -81 -63zM410 591c-60 0 -81 28 -81 63v26c0 35 21 62 81 62c59 0 80 -27 80 -62v-26c0 -35 -21 -63 -80 -63zM300 -12c-161 0 -259 103 -259 270s98 270 259 270
s259 -103 259 -270s-98 -270 -259 -270zM300 98c66 0 106 43 106 119v82c0 76 -40 119 -106 119s-106 -43 -106 -119v-82c0 -76 40 -119 106 -119z" />
    <glyph glyph-name="uni1ECD" unicode="&#x1ecd;" 
d="M300 -203c-59 0 -81 27 -81 62v26c0 36 22 63 81 63s81 -27 81 -63v-26c0 -35 -22 -62 -81 -62zM300 -12c-161 0 -259 103 -259 270s98 270 259 270s259 -103 259 -270s-98 -270 -259 -270zM300 98c66 0 106 43 106 119v82c0 76 -40 119 -106 119s-106 -43 -106 -119v-82
c0 -76 40 -119 106 -119z" />
    <glyph glyph-name="ograve" unicode="&#xf2;" 
d="M150 746l123 61l99 -194l-88 -43zM300 -12c-161 0 -259 103 -259 270s98 270 259 270s259 -103 259 -270s-98 -270 -259 -270zM300 98c66 0 106 43 106 119v82c0 76 -40 119 -106 119s-106 -43 -106 -119v-82c0 -76 40 -119 106 -119z" />
    <glyph glyph-name="uni1ECF" unicode="&#x1ecf;" 
d="M180 793h143c75 0 98 -34 98 -73s-24 -86 -57 -126l-28 -34l-75 35l41 92h-122v106zM300 -12c-161 0 -259 103 -259 270s98 270 259 270s259 -103 259 -270s-98 -270 -259 -270zM300 98c66 0 106 43 106 119v82c0 76 -40 119 -106 119s-106 -43 -106 -119v-82
c0 -76 40 -119 106 -119z" />
    <glyph glyph-name="ohungarumlaut" unicode="&#x151;" 
d="M210 570l-81 39l99 194l116 -57zM415 570l-81 39l99 194l116 -57zM300 -12c-161 0 -259 103 -259 270s98 270 259 270s259 -103 259 -270s-98 -270 -259 -270zM300 98c66 0 106 43 106 119v82c0 76 -40 119 -106 119s-106 -43 -106 -119v-82c0 -76 40 -119 106 -119z" />
    <glyph glyph-name="omacron" unicode="&#x14d;" 
d="M147 718h306v-103h-306v103zM300 -12c-161 0 -259 103 -259 270s98 270 259 270s259 -103 259 -270s-98 -270 -259 -270zM300 98c66 0 106 43 106 119v82c0 76 -40 119 -106 119s-106 -43 -106 -119v-82c0 -76 40 -119 106 -119z" />
    <glyph glyph-name="oslash" unicode="&#xf8;" 
d="M23 1l69 83c-34 45 -51 104 -51 174c0 167 98 270 259 270c50 0 95 -11 131 -30l64 77l82 -60l-69 -83c34 -45 51 -104 51 -174c0 -167 -98 -270 -259 -270c-50 0 -95 11 -131 30l-64 -77zM300 418c-66 0 -106 -43 -106 -119v-74c0 -8 0 -18 2 -25l165 201
c-16 11 -37 17 -61 17zM300 98c66 0 106 43 106 119v74c0 8 0 18 -2 25l-165 -201c16 -11 37 -17 61 -17z" />
    <glyph glyph-name="oslashacute" unicode="&#x1ff;" 
d="M316 570l-88 43l99 194l123 -61zM23 1l69 83c-34 45 -51 104 -51 174c0 167 98 270 259 270c50 0 95 -11 131 -30l64 77l82 -60l-69 -83c34 -45 51 -104 51 -174c0 -167 -98 -270 -259 -270c-50 0 -95 11 -131 30l-64 -77zM300 418c-66 0 -106 -43 -106 -119v-74
c0 -8 0 -18 2 -25l165 201c-16 11 -37 17 -61 17zM300 98c66 0 106 43 106 119v74c0 8 0 18 -2 25l-165 -201c16 -11 37 -17 61 -17z" />
    <glyph glyph-name="otilde" unicode="&#xf5;" 
d="M376 592c-30 0 -52 9 -77 20c-29 12 -52 22 -78 22c-23 0 -38 -8 -59 -25l-52 68c24 36 61 64 114 64c30 0 52 -9 77 -20c29 -12 52 -22 78 -22c23 0 38 8 59 25l52 -68c-24 -36 -61 -64 -114 -64zM300 -12c-161 0 -259 103 -259 270s98 270 259 270s259 -103 259 -270
s-98 -270 -259 -270zM300 98c66 0 106 43 106 119v82c0 76 -40 119 -106 119s-106 -43 -106 -119v-82c0 -76 40 -119 106 -119z" />
    <glyph glyph-name="ohorn" unicode="&#x1a1;" 
d="M583 631v-103c0 -60 -16 -94 -76 -100c33 -42 52 -98 52 -170c0 -167 -98 -270 -259 -270s-259 103 -259 270s98 270 259 270c32 0 62 -4 89 -12h70v115h124zM300 98c66 0 106 43 106 119v82c0 76 -40 119 -106 119s-106 -43 -106 -119v-82c0 -76 40 -119 106 -119z" />
    <glyph glyph-name="uni1EDB" unicode="&#x1edb;" 
d="M316 570l-88 43l99 194l123 -61zM583 631v-103c0 -60 -16 -94 -76 -100c33 -42 52 -98 52 -170c0 -167 -98 -270 -259 -270s-259 103 -259 270s98 270 259 270c32 0 62 -4 89 -12h70v115h124zM300 98c66 0 106 43 106 119v82c0 76 -40 119 -106 119s-106 -43 -106 -119
v-82c0 -76 40 -119 106 -119z" />
    <glyph glyph-name="uni1EE3" unicode="&#x1ee3;" 
d="M300 -203c-59 0 -81 27 -81 62v26c0 36 22 63 81 63s81 -27 81 -63v-26c0 -35 -22 -62 -81 -62zM583 631v-103c0 -60 -16 -94 -76 -100c33 -42 52 -98 52 -170c0 -167 -98 -270 -259 -270s-259 103 -259 270s98 270 259 270c32 0 62 -4 89 -12h70v115h124zM300 98
c66 0 106 43 106 119v82c0 76 -40 119 -106 119s-106 -43 -106 -119v-82c0 -76 40 -119 106 -119z" />
    <glyph glyph-name="uni1EDD" unicode="&#x1edd;" 
d="M150 746l123 61l99 -194l-88 -43zM583 631v-103c0 -60 -16 -94 -76 -100c33 -42 52 -98 52 -170c0 -167 -98 -270 -259 -270s-259 103 -259 270s98 270 259 270c32 0 62 -4 89 -12h70v115h124zM300 98c66 0 106 43 106 119v82c0 76 -40 119 -106 119s-106 -43 -106 -119
v-82c0 -76 40 -119 106 -119z" />
    <glyph glyph-name="uni1EDF" unicode="&#x1edf;" 
d="M180 793h143c75 0 98 -34 98 -73s-24 -86 -57 -126l-28 -34l-75 35l41 92h-122v106zM583 631v-103c0 -60 -16 -94 -76 -100c33 -42 52 -98 52 -170c0 -167 -98 -270 -259 -270s-259 103 -259 270s98 270 259 270c32 0 62 -4 89 -12h70v115h124zM300 98
c66 0 106 43 106 119v82c0 76 -40 119 -106 119s-106 -43 -106 -119v-82c0 -76 40 -119 106 -119z" />
    <glyph glyph-name="uni1EE1" unicode="&#x1ee1;" 
d="M342 592c-26 0 -45 9 -67 20c-25 12 -45 22 -67 22c-17 0 -32 -6 -49 -21l-51 62c22 37 54 66 102 66c26 0 45 -9 67 -20c25 -12 45 -22 67 -22c17 0 32 6 49 21l51 -62c-22 -37 -54 -66 -102 -66zM583 631v-103c0 -60 -16 -94 -76 -100c33 -42 52 -98 52 -170
c0 -167 -98 -270 -259 -270s-259 103 -259 270s98 270 259 270c32 0 62 -4 89 -12h70v115h124zM300 98c66 0 106 43 106 119v82c0 76 -40 119 -106 119s-106 -43 -106 -119v-82c0 -76 40 -119 106 -119z" />
    <glyph glyph-name="uni1ED1" unicode="&#x1ed1;" 
d="M473 724l-79 39l99 194l114 -57zM347 772l145 -147l-70 -64l-124 104l-124 -104l-66 64l145 147h94zM300 -12c-161 0 -259 103 -259 270s98 270 259 270s259 -103 259 -270s-98 -270 -259 -270zM300 98c66 0 106 43 106 119v82c0 76 -40 119 -106 119s-106 -43 -106 -119
v-82c0 -76 40 -119 106 -119z" />
    <glyph glyph-name="uni1ED9" unicode="&#x1ed9;" 
d="M300 -203c-59 0 -81 27 -81 62v26c0 36 22 63 81 63s81 -27 81 -63v-26c0 -35 -22 -62 -81 -62zM362 786l132 -159l-75 -58l-121 115l-121 -115l-71 58l132 159h124zM300 -12c-161 0 -259 103 -259 270s98 270 259 270s259 -103 259 -270s-98 -270 -259 -270zM300 98
c66 0 106 43 106 119v82c0 76 -40 119 -106 119s-106 -43 -106 -119v-82c0 -76 40 -119 106 -119z" />
    <glyph glyph-name="uni1ED3" unicode="&#x1ed3;" 
d="M-7 900l114 57l99 -194l-79 -39zM347 772l145 -147l-70 -64l-124 104l-124 -104l-66 64l145 147h94zM300 -12c-161 0 -259 103 -259 270s98 270 259 270s259 -103 259 -270s-98 -270 -259 -270zM300 98c66 0 106 43 106 119v82c0 76 -40 119 -106 119s-106 -43 -106 -119
v-82c0 -76 40 -119 106 -119z" />
    <glyph glyph-name="uni1ED5" unicode="&#x1ed5;" 
d="M338 943h134c74 0 98 -34 98 -72c0 -40 -30 -87 -63 -127l-27 -33l-66 34l43 97h-119v101zM347 772l145 -147l-70 -64l-124 104l-124 -104l-66 64l145 147h94zM300 -12c-161 0 -259 103 -259 270s98 270 259 270s259 -103 259 -270s-98 -270 -259 -270zM300 98
c66 0 106 43 106 119v82c0 76 -40 119 -106 119s-106 -43 -106 -119v-82c0 -76 40 -119 106 -119z" />
    <glyph glyph-name="uni1ED7" unicode="&#x1ed7;" 
d="M225 933c30 0 52 -9 77 -20c29 -12 52 -22 78 -22c23 0 38 8 59 25l50 -64c-24 -36 -61 -64 -114 -64c-30 0 -52 9 -77 20c-29 12 -52 22 -78 22c-23 0 -38 -8 -59 -25l-50 64c24 36 61 64 114 64zM348 759l142 -134l-67 -64l-124 95l-124 -95l-65 64l142 134h96z
M300 -12c-161 0 -259 103 -259 270s98 270 259 270s259 -103 259 -270s-98 -270 -259 -270zM300 98c66 0 106 43 106 119v82c0 76 -40 119 -106 119s-106 -43 -106 -119v-82c0 -76 40 -119 106 -119z" />
    <glyph glyph-name="oe" unicode="&#x153;" 
d="M423 -12c-52 0 -98 20 -128 66h-4c-26 -42 -63 -66 -117 -66c-97 0 -162 75 -162 270c0 194 64 270 164 270c58 0 96 -26 121 -74h4c29 50 68 74 119 74c100 0 164 -93 164 -239v-61h-231v-15c0 -77 24 -129 68 -129c35 0 51 33 60 72l97 -27c-19 -78 -65 -141 -155 -141
zM183 84c36 0 58 36 58 103v142c0 67 -22 103 -58 103s-58 -36 -58 -103v-142c0 -67 22 -103 58 -103zM475 305v32c0 56 -19 101 -61 101s-61 -45 -61 -101v-32h122z" />
    <glyph glyph-name="racute" unicode="&#x155;" 
d="M341 570l-88 43l99 194l123 -61zM74 115h119v286h-119v115h267v-134h7c22 68 71 134 165 134h49v-136h-110c-66 0 -111 -29 -111 -87v-178h170v-115h-437v115z" />
    <glyph glyph-name="rcaron" unicode="&#x159;" 
d="M263 578l-132 159l75 58l121 -115l121 115l71 -58l-132 -159h-124zM74 115h119v286h-119v115h267v-134h7c22 68 71 134 165 134h49v-136h-110c-66 0 -111 -29 -111 -87v-178h170v-115h-437v115z" />
    <glyph glyph-name="uni0157" unicode="&#x157;" 
d="M189 -54h157l-87 -215h-88zM74 115h119v286h-119v115h267v-134h7c22 68 71 134 165 134h49v-136h-110c-66 0 -111 -29 -111 -87v-178h170v-115h-437v115z" />
    <glyph glyph-name="sacute" unicode="&#x15b;" 
d="M321 570l-88 43l99 194l123 -61zM294 -12c-114 0 -203 37 -245 97l83 77c40 -44 94 -70 163 -70c58 0 94 18 94 55c0 29 -24 38 -64 44l-83 13c-92 14 -165 53 -165 151c0 108 87 173 236 173c101 0 172 -29 215 -79l-74 -84c-30 33 -79 59 -146 59
c-56 0 -86 -18 -86 -52c0 -30 24 -39 64 -45l82 -13c93 -14 166 -53 166 -151c0 -107 -87 -175 -240 -175z" />
    <glyph glyph-name="scaron" unicode="&#x161;" 
d="M243 578l-132 159l75 58l121 -115l121 115l71 -58l-132 -159h-124zM294 -12c-114 0 -203 37 -245 97l83 77c40 -44 94 -70 163 -70c58 0 94 18 94 55c0 29 -24 38 -64 44l-83 13c-92 14 -165 53 -165 151c0 108 87 173 236 173c101 0 172 -29 215 -79l-74 -84
c-30 33 -79 59 -146 59c-56 0 -86 -18 -86 -52c0 -30 24 -39 64 -45l82 -13c93 -14 166 -53 166 -151c0 -107 -87 -175 -240 -175z" />
    <glyph glyph-name="scedilla" unicode="&#x15f;" 
d="M307 -212c-69 0 -107 24 -124 44l46 56c13 -16 35 -29 66 -29c25 0 44 8 44 25c0 15 -13 34 -75 40l-21 2l13 64c-96 7 -170 42 -207 95l83 77c40 -44 94 -70 163 -70c58 0 94 18 94 55c0 29 -24 38 -64 44l-83 13c-92 14 -165 53 -165 151c0 108 87 173 236 173
c101 0 172 -29 215 -79l-74 -84c-30 33 -79 59 -146 59c-56 0 -86 -18 -86 -52c0 -30 24 -39 64 -45l82 -13c93 -14 166 -53 166 -151c0 -100 -76 -165 -211 -174l-9 -44l4 -4c16 4 32 7 48 7c40 0 73 -20 73 -69c0 -68 -64 -91 -132 -91z" />
    <glyph glyph-name="scircumflex" unicode="&#x15d;" 
d="M367 786l132 -159l-75 -58l-121 115l-121 -115l-71 58l132 159h124zM294 -12c-114 0 -203 37 -245 97l83 77c40 -44 94 -70 163 -70c58 0 94 18 94 55c0 29 -24 38 -64 44l-83 13c-92 14 -165 53 -165 151c0 108 87 173 236 173c101 0 172 -29 215 -79l-74 -84
c-30 33 -79 59 -146 59c-56 0 -86 -18 -86 -52c0 -30 24 -39 64 -45l82 -13c93 -14 166 -53 166 -151c0 -107 -87 -175 -240 -175z" />
    <glyph glyph-name="uni0219" unicode="&#x219;" 
d="M215 -54h157l-87 -215h-88zM294 -12c-114 0 -203 37 -245 97l83 77c40 -44 94 -70 163 -70c58 0 94 18 94 55c0 29 -24 38 -64 44l-83 13c-92 14 -165 53 -165 151c0 108 87 173 236 173c101 0 172 -29 215 -79l-74 -84c-30 33 -79 59 -146 59c-56 0 -86 -18 -86 -52
c0 -30 24 -39 64 -45l82 -13c93 -14 166 -53 166 -151c0 -107 -87 -175 -240 -175z" />
    <glyph glyph-name="germandbls" unicode="&#xdf;" 
d="M48 401h-48v115h48v3c0 140 92 233 244 233c150 0 246 -91 246 -231v-94h-56c-47 0 -85 -5 -85 -46c0 -28 18 -42 56 -57l31 -12c84 -33 116 -76 116 -147c0 -109 -69 -177 -194 -177c-72 0 -140 22 -179 71l83 78c26 -30 58 -43 91 -43c30 0 63 11 63 57
c0 27 -12 42 -56 59l-31 12c-86 33 -116 77 -116 142c0 84 51 133 141 150v9c0 75 -29 119 -107 119c-76 0 -103 -42 -103 -119v-523h-144v401z" />
    <glyph glyph-name="germandbls.alt01" 
d="M60 0v591c0 87 50 149 158 149h158v-111h-172v-113h336v-106l-139 -197c108 -20 173 -84 173 -197c0 -142 -102 -216 -262 -216h-66v111h57c84 0 122 29 122 92v23c0 65 -40 93 -128 93h-24v111l123 175h-192v-405h-144z" />
    <glyph glyph-name="tbar" unicode="&#x167;" 
d="M531 0h-191c-107 0 -158 62 -158 149v63h-88v105h88v84h-140v115h91c44 0 61 15 61 61v121h136v-182h201v-115h-201v-84h151v-105h-151v-97h201v-115z" />
    <glyph glyph-name="tcaron" unicode="&#x165;" 
d="M493 565h-97l6 215h157zM340 0c-107 0 -158 62 -158 149v252h-140v115h91c44 0 61 15 61 61v121h136v-182h201v-115h-201v-286h201v-115h-191z" />
    <glyph glyph-name="uni0163" unicode="&#x163;" 
d="M283 -54h157l-87 -215h-88zM340 0c-107 0 -158 62 -158 149v252h-140v115h91c44 0 61 15 61 61v121h136v-182h201v-115h-201v-286h201v-115h-191z" />
    <glyph glyph-name="uni021B" unicode="&#x21b;" 
d="M283 -54h157l-87 -215h-88zM340 0c-107 0 -158 62 -158 149v252h-140v115h91c44 0 61 15 61 61v121h136v-182h201v-115h-201v-286h201v-115h-191z" />
    <glyph glyph-name="thorn" unicode="&#xfe;" 
d="M59 740h148v-318h7c26 62 70 106 153 106c114 0 194 -83 194 -270s-80 -270 -194 -270c-83 0 -127 44 -153 106h-7v-294h-148v940zM303 103c66 0 104 43 104 115v80c0 72 -38 115 -104 115c-52 0 -96 -25 -96 -79v-152c0 -54 44 -79 96 -79z" />
    <glyph glyph-name="uacute" unicode="&#xfa;" 
d="M314 570l-88 43l99 194l123 -61zM387 94h-6c-23 -58 -69 -106 -152 -106c-99 0 -168 69 -168 194v334h148v-314c0 -65 29 -100 87 -100c46 0 91 25 91 75v339h148v-516h-148v94z" />
    <glyph glyph-name="ubreve" unicode="&#x16d;" 
d="M298 570c-120 0 -169 98 -194 170l83 42l21 -32c31 -48 51 -77 90 -77s59 29 90 77l21 32l83 -42c-25 -72 -74 -170 -194 -170zM387 94h-6c-23 -58 -69 -106 -152 -106c-99 0 -168 69 -168 194v334h148v-314c0 -65 29 -100 87 -100c46 0 91 25 91 75v339h148v-516h-148
v94z" />
    <glyph glyph-name="ucircumflex" unicode="&#xfb;" 
d="M360 786l132 -159l-75 -58l-121 115l-121 -115l-71 58l132 159h124zM387 94h-6c-23 -58 -69 -106 -152 -106c-99 0 -168 69 -168 194v334h148v-314c0 -65 29 -100 87 -100c46 0 91 25 91 75v339h148v-516h-148v94z" />
    <glyph glyph-name="udieresis" unicode="&#xfc;" 
d="M188 591c-59 0 -80 28 -80 63v26c0 35 21 62 80 62c60 0 81 -27 81 -62v-26c0 -35 -21 -63 -81 -63zM408 591c-60 0 -81 28 -81 63v26c0 35 21 62 81 62c59 0 80 -27 80 -62v-26c0 -35 -21 -63 -80 -63zM387 94h-6c-23 -58 -69 -106 -152 -106c-99 0 -168 69 -168 194
v334h148v-314c0 -65 29 -100 87 -100c46 0 91 25 91 75v339h148v-516h-148v94z" />
    <glyph glyph-name="uni1EE5" unicode="&#x1ee5;" 
d="M298 -203c-59 0 -81 27 -81 62v26c0 36 22 63 81 63s81 -27 81 -63v-26c0 -35 -22 -62 -81 -62zM387 94h-6c-23 -58 -69 -106 -152 -106c-99 0 -168 69 -168 194v334h148v-314c0 -65 29 -100 87 -100c46 0 91 25 91 75v339h148v-516h-148v94z" />
    <glyph glyph-name="ugrave" unicode="&#xf9;" 
d="M148 746l123 61l99 -194l-88 -43zM387 94h-6c-23 -58 -69 -106 -152 -106c-99 0 -168 69 -168 194v334h148v-314c0 -65 29 -100 87 -100c46 0 91 25 91 75v339h148v-516h-148v94z" />
    <glyph glyph-name="uni1EE7" unicode="&#x1ee7;" 
d="M178 793h143c75 0 98 -34 98 -73s-24 -86 -57 -126l-28 -34l-75 35l41 92h-122v106zM387 94h-6c-23 -58 -69 -106 -152 -106c-99 0 -168 69 -168 194v334h148v-314c0 -65 29 -100 87 -100c46 0 91 25 91 75v339h148v-516h-148v94z" />
    <glyph glyph-name="uhungarumlaut" unicode="&#x171;" 
d="M208 570l-81 39l99 194l116 -57zM413 570l-81 39l99 194l116 -57zM387 94h-6c-23 -58 -69 -106 -152 -106c-99 0 -168 69 -168 194v334h148v-314c0 -65 29 -100 87 -100c46 0 91 25 91 75v339h148v-516h-148v94z" />
    <glyph glyph-name="umacron" unicode="&#x16b;" 
d="M145 718h306v-103h-306v103zM387 94h-6c-23 -58 -69 -106 -152 -106c-99 0 -168 69 -168 194v334h148v-314c0 -65 29 -100 87 -100c46 0 91 25 91 75v339h148v-516h-148v94z" />
    <glyph glyph-name="uogonek" unicode="&#x173;" 
d="M535 0c-98 -60 -114 -81 -114 -105c0 -25 18 -33 38 -33c24 0 41 12 55 28l53 -51c-17 -32 -59 -51 -122 -51c-66 0 -124 21 -124 85c0 56 45 89 119 123l-1 4h-52v94h-6c-23 -58 -69 -106 -152 -106c-99 0 -168 69 -168 194v334h148v-314c0 -65 29 -100 87 -100
c46 0 91 25 91 75v339h148v-516z" />
    <glyph glyph-name="uring" unicode="&#x16f;" 
d="M298 549c-83 0 -148 60 -148 143c0 82 65 143 148 143s148 -60 148 -143c0 -82 -65 -143 -148 -143zM298 624c33 0 51 20 51 51v34c0 32 -18 51 -51 51s-51 -20 -51 -51v-34c0 -32 18 -51 51 -51zM387 94h-6c-23 -58 -69 -106 -152 -106c-99 0 -168 69 -168 194v334h148
v-314c0 -65 29 -100 87 -100c46 0 91 25 91 75v339h148v-516h-148v94z" />
    <glyph glyph-name="utilde" unicode="&#x169;" 
d="M374 592c-30 0 -52 9 -77 20c-29 12 -52 22 -78 22c-23 0 -38 -8 -59 -25l-52 68c24 36 61 64 114 64c30 0 52 -9 77 -20c29 -12 52 -22 78 -22c23 0 38 8 59 25l52 -68c-24 -36 -61 -64 -114 -64zM387 94h-6c-23 -58 -69 -106 -152 -106c-99 0 -168 69 -168 194v334h148
v-314c0 -65 29 -100 87 -100c46 0 91 25 91 75v339h148v-516h-148v94z" />
    <glyph glyph-name="uhorn" unicode="&#x1b0;" 
d="M598 528c0 -55 -14 -88 -63 -98v-430h-148v94h-6c-23 -58 -69 -106 -152 -106c-99 0 -168 69 -168 194v334h148v-314c0 -65 29 -100 87 -100c46 0 91 25 91 75v339h87v115h124v-103z" />
    <glyph glyph-name="uni1EE9" unicode="&#x1ee9;" 
d="M314 570l-88 43l99 194l123 -61zM598 528c0 -55 -14 -88 -63 -98v-430h-148v94h-6c-23 -58 -69 -106 -152 -106c-99 0 -168 69 -168 194v334h148v-314c0 -65 29 -100 87 -100c46 0 91 25 91 75v339h87v115h124v-103z" />
    <glyph glyph-name="uni1EF1" unicode="&#x1ef1;" 
d="M298 -203c-59 0 -81 27 -81 62v26c0 36 22 63 81 63s81 -27 81 -63v-26c0 -35 -22 -62 -81 -62zM598 528c0 -55 -14 -88 -63 -98v-430h-148v94h-6c-23 -58 -69 -106 -152 -106c-99 0 -168 69 -168 194v334h148v-314c0 -65 29 -100 87 -100c46 0 91 25 91 75v339h87v115
h124v-103z" />
    <glyph glyph-name="uni1EEB" unicode="&#x1eeb;" 
d="M148 746l123 61l99 -194l-88 -43zM598 528c0 -55 -14 -88 -63 -98v-430h-148v94h-6c-23 -58 -69 -106 -152 -106c-99 0 -168 69 -168 194v334h148v-314c0 -65 29 -100 87 -100c46 0 91 25 91 75v339h87v115h124v-103z" />
    <glyph glyph-name="uni1EED" unicode="&#x1eed;" 
d="M178 793h143c75 0 98 -34 98 -73s-24 -86 -57 -126l-28 -34l-75 35l41 92h-122v106zM598 528c0 -55 -14 -88 -63 -98v-430h-148v94h-6c-23 -58 -69 -106 -152 -106c-99 0 -168 69 -168 194v334h148v-314c0 -65 29 -100 87 -100c46 0 91 25 91 75v339h87v115h124v-103z
" />
    <glyph glyph-name="uni1EEF" unicode="&#x1eef;" 
d="M352 592c-26 0 -45 9 -67 20c-25 12 -45 22 -67 22c-17 0 -32 -6 -49 -21l-51 62c22 37 54 66 102 66c26 0 45 -9 67 -20c25 -12 45 -22 67 -22c17 0 32 6 49 21l51 -62c-22 -37 -54 -66 -102 -66zM598 528c0 -55 -14 -88 -63 -98v-430h-148v94h-6
c-23 -58 -69 -106 -152 -106c-99 0 -168 69 -168 194v334h148v-314c0 -65 29 -100 87 -100c46 0 91 25 91 75v339h87v115h124v-103z" />
    <glyph glyph-name="wacute" unicode="&#x1e83;" horiz-adv-x="900" 
d="M496 570l-88 43l99 194l123 -61zM49 525h143l51 -212l36 -160h4l42 160l60 212h135l61 -212l43 -160h4l36 160l51 212h137l-145 -525h-155l-64 222l-37 136h-3l-36 -136l-64 -222h-152z" />
    <glyph glyph-name="wcircumflex" unicode="&#x175;" horiz-adv-x="900" 
d="M522 786l132 -159l-75 -58l-121 115l-121 -115l-71 58l132 159h124zM49 525h143l51 -212l36 -160h4l42 160l60 212h135l61 -212l43 -160h4l36 160l51 212h137l-145 -525h-155l-64 222l-37 136h-3l-36 -136l-64 -222h-152z" />
    <glyph glyph-name="wdieresis" unicode="&#x1e85;" horiz-adv-x="900" 
d="M348 591c-59 0 -80 28 -80 63v26c0 35 21 62 80 62c60 0 81 -27 81 -62v-26c0 -35 -21 -63 -81 -63zM568 591c-60 0 -81 28 -81 63v26c0 35 21 62 81 62c59 0 80 -27 80 -62v-26c0 -35 -21 -63 -80 -63zM49 525h143l51 -212l36 -160h4l42 160l60 212h135l61 -212l43 -160
h4l36 160l51 212h137l-145 -525h-155l-64 222l-37 136h-3l-36 -136l-64 -222h-152z" />
    <glyph glyph-name="wgrave" unicode="&#x1e81;" horiz-adv-x="900" 
d="M310 746l123 61l99 -194l-88 -43zM49 525h143l51 -212l36 -160h4l42 160l60 212h135l61 -212l43 -160h4l36 160l51 212h137l-145 -525h-155l-64 222l-37 136h-3l-36 -136l-64 -222h-152z" />
    <glyph glyph-name="yacute" unicode="&#xfd;" 
d="M319 570l-88 43l99 194l123 -61zM430 516h151l-243 -599c-30 -75 -77 -117 -165 -117h-102v115h124l32 88l-208 513h159l75 -217l47 -150h8l45 150z" />
    <glyph glyph-name="ycircumflex" unicode="&#x177;" 
d="M365 786l132 -159l-75 -58l-121 115l-121 -115l-71 58l132 159h124zM430 516h151l-243 -599c-30 -75 -77 -117 -165 -117h-102v115h124l32 88l-208 513h159l75 -217l47 -150h8l45 150z" />
    <glyph glyph-name="ydieresis" unicode="&#xff;" 
d="M193 591c-59 0 -80 28 -80 63v26c0 35 21 62 80 62c60 0 81 -27 81 -62v-26c0 -35 -21 -63 -81 -63zM413 591c-60 0 -81 28 -81 63v26c0 35 21 62 81 62c59 0 80 -27 80 -62v-26c0 -35 -21 -63 -80 -63zM430 516h151l-243 -599c-30 -75 -77 -117 -165 -117h-102v115h124
l32 88l-208 513h159l75 -217l47 -150h8l45 150z" />
    <glyph glyph-name="uni1EF5" unicode="&#x1ef5;" 
d="M482 -203c-59 0 -81 27 -81 62v26c0 36 22 63 81 63s81 -27 81 -63v-26c0 -35 -22 -62 -81 -62zM430 516h151l-243 -599c-30 -75 -77 -117 -165 -117h-102v115h124l32 88l-208 513h159l75 -217l47 -150h8l45 150z" />
    <glyph glyph-name="ygrave" unicode="&#x1ef3;" 
d="M153 746l123 61l99 -194l-88 -43zM430 516h151l-243 -599c-30 -75 -77 -117 -165 -117h-102v115h124l32 88l-208 513h159l75 -217l47 -150h8l45 150z" />
    <glyph glyph-name="uni1EF7" unicode="&#x1ef7;" 
d="M183 793h143c75 0 98 -34 98 -73s-24 -86 -57 -126l-28 -34l-75 35l41 92h-122v106zM430 516h151l-243 -599c-30 -75 -77 -117 -165 -117h-102v115h124l32 88l-208 513h159l75 -217l47 -150h8l45 150z" />
    <glyph glyph-name="uni1EF9" unicode="&#x1ef9;" 
d="M379 592c-30 0 -52 9 -77 20c-29 12 -52 22 -78 22c-23 0 -38 -8 -59 -25l-52 68c24 36 61 64 114 64c30 0 52 -9 77 -20c29 -12 52 -22 78 -22c23 0 38 8 59 25l52 -68c-24 -36 -61 -64 -114 -64zM430 516h151l-243 -599c-30 -75 -77 -117 -165 -117h-102v115h124l32 88
l-208 513h159l75 -217l47 -150h8l45 150z" />
    <glyph glyph-name="zacute" unicode="&#x17a;" 
d="M316 570l-88 43l99 194l123 -61zM66 0v123l287 278h-277v115h448v-123l-287 -278h297v-115h-468z" />
    <glyph glyph-name="zcaron" unicode="&#x17e;" 
d="M238 578l-132 159l75 58l121 -115l121 115l71 -58l-132 -159h-124zM66 0v123l287 278h-277v115h448v-123l-287 -278h297v-115h-468z" />
    <glyph glyph-name="zdotaccent" unicode="&#x17c;" 
d="M300 582c-66 0 -89 31 -89 70v29c0 40 23 70 89 70s89 -30 89 -70v-29c0 -39 -23 -70 -89 -70zM66 0v123l287 278h-277v115h448v-123l-287 -278h297v-115h-468z" />
    <glyph glyph-name="Aacute" unicode="&#xc1;" 
d="M316 740l-88 43l99 194l123 -61zM435 0l-44 168h-191l-43 -168h-152l189 698h212l189 -698h-160zM300 553h-8l-68 -264h144z" />
    <glyph glyph-name="Abreve" unicode="&#x102;" 
d="M300 740c-120 0 -169 98 -194 170l83 42l21 -32c31 -48 51 -77 90 -77s59 29 90 77l21 32l83 -42c-25 -72 -74 -170 -194 -170zM435 0l-44 168h-191l-43 -168h-152l189 698h212l189 -698h-160zM300 553h-8l-68 -264h144z" />
    <glyph glyph-name="Acircumflex" unicode="&#xc2;" 
d="M362 956l132 -159l-75 -58l-121 115l-121 -115l-71 58l132 159h124zM435 0l-44 168h-191l-43 -168h-152l189 698h212l189 -698h-160zM300 553h-8l-68 -264h144z" />
    <glyph glyph-name="Adieresis" unicode="&#xc4;" 
d="M190 761c-59 0 -80 28 -80 63v26c0 35 21 62 80 62c60 0 81 -27 81 -62v-26c0 -35 -21 -63 -81 -63zM410 761c-60 0 -81 28 -81 63v26c0 35 21 62 81 62c59 0 80 -27 80 -62v-26c0 -35 -21 -63 -80 -63zM435 0l-44 168h-191l-43 -168h-152l189 698h212l189 -698h-160z
M300 553h-8l-68 -264h144z" />
    <glyph glyph-name="uni1EA0" unicode="&#x1ea0;" 
d="M300 -203c-59 0 -81 27 -81 62v26c0 36 22 63 81 63s81 -27 81 -63v-26c0 -35 -22 -62 -81 -62zM435 0l-44 168h-191l-43 -168h-152l189 698h212l189 -698h-160zM300 553h-8l-68 -264h144z" />
    <glyph glyph-name="Agrave" unicode="&#xc0;" 
d="M150 916l123 61l99 -194l-88 -43zM435 0l-44 168h-191l-43 -168h-152l189 698h212l189 -698h-160zM300 553h-8l-68 -264h144z" />
    <glyph glyph-name="uni1EA2" unicode="&#x1ea2;" 
d="M180 963h143c75 0 98 -34 98 -73s-24 -86 -57 -126l-28 -34l-75 35l41 92h-122v106zM435 0l-44 168h-191l-43 -168h-152l189 698h212l189 -698h-160zM300 553h-8l-68 -264h144z" />
    <glyph glyph-name="Amacron" unicode="&#x100;" 
d="M147 888h306v-103h-306v103zM435 0l-44 168h-191l-43 -168h-152l189 698h212l189 -698h-160zM300 553h-8l-68 -264h144z" />
    <glyph glyph-name="Aogonek" unicode="&#x104;" 
d="M194 698h212l189 -698c-98 -60 -114 -81 -114 -105c0 -25 18 -33 38 -33c24 0 41 12 55 28l53 -51c-17 -32 -59 -51 -122 -51c-66 0 -124 21 -124 85c0 56 45 89 119 123l-2 4h-63l-44 168h-191l-43 -168h-152zM300 553h-8l-68 -264h144z" />
    <glyph glyph-name="Aring" unicode="&#xc5;" 
d="M300 719c-83 0 -148 60 -148 143c0 82 65 143 148 143s148 -60 148 -143c0 -82 -65 -143 -148 -143zM300 794c33 0 51 20 51 51v34c0 32 -18 51 -51 51s-51 -20 -51 -51v-34c0 -32 18 -51 51 -51zM435 0l-44 168h-191l-43 -168h-152l189 698h212l189 -698h-160zM300 553
h-8l-68 -264h144z" />
    <glyph glyph-name="Aringacute" unicode="&#x1fa;" 
d="M293 976l-53 57l129 117l74 -81zM300 725c-85 0 -152 44 -152 120c0 75 67 120 152 120s152 -44 152 -120c0 -75 -67 -120 -152 -120zM300 795c36 0 55 14 55 45v10c0 32 -19 45 -55 45s-55 -14 -55 -45v-10c0 -32 19 -45 55 -45zM435 0l-44 168h-191l-43 -168h-152
l189 698h212l189 -698h-160zM300 553h-8l-68 -264h144z" />
    <glyph glyph-name="Atilde" unicode="&#xc3;" 
d="M376 762c-30 0 -52 9 -77 20c-29 12 -52 22 -78 22c-23 0 -38 -8 -59 -25l-52 68c24 36 61 64 114 64c30 0 52 -9 77 -20c29 -12 52 -22 78 -22c23 0 38 8 59 25l52 -68c-24 -36 -61 -64 -114 -64zM435 0l-44 168h-191l-43 -168h-152l189 698h212l189 -698h-160zM300 553
h-8l-68 -264h144z" />
    <glyph glyph-name="uni1EAE" unicode="&#x1eae;" 
d="M300 733c-122 0 -176 81 -202 149l75 47l21 -28c39 -52 64 -67 106 -67s67 15 106 67l21 28l75 -47c-26 -68 -80 -149 -202 -149zM319 894l-79 39l99 194l114 -57zM435 0l-44 168h-191l-43 -168h-152l189 698h212l189 -698h-160zM300 553h-8l-68 -264h144z" />
    <glyph glyph-name="uni1EB6" unicode="&#x1eb6;" 
d="M300 -203c-59 0 -81 27 -81 62v26c0 36 22 63 81 63s81 -27 81 -63v-26c0 -35 -22 -62 -81 -62zM300 740c-120 0 -169 98 -194 170l83 42l21 -32c31 -48 51 -77 90 -77s59 29 90 77l21 32l83 -42c-25 -72 -74 -170 -194 -170zM435 0l-44 168h-191l-43 -168h-152l189 698
h212l189 -698h-160zM300 553h-8l-68 -264h144z" />
    <glyph glyph-name="uni1EB0" unicode="&#x1eb0;" 
d="M300 733c-122 0 -176 81 -202 149l75 47l21 -28c39 -52 64 -67 106 -67s67 15 106 67l21 28l75 -47c-26 -68 -80 -149 -202 -149zM147 1070l114 57l99 -194l-79 -39zM435 0l-44 168h-191l-43 -168h-152l189 698h212l189 -698h-160zM300 553h-8l-68 -264h144z" />
    <glyph glyph-name="uni1EB2" unicode="&#x1eb2;" 
d="M170 1113h136c75 0 98 -34 98 -72c0 -40 -29 -86 -62 -127l-27 -33l-66 32l43 99h-122v101zM300 733c-122 0 -176 81 -202 149l75 47l21 -28c39 -52 64 -67 106 -67s67 15 106 67l21 28l75 -47c-26 -68 -80 -149 -202 -149zM435 0l-44 168h-191l-43 -168h-152l189 698
h212l189 -698h-160zM300 553h-8l-68 -264h144z" />
    <glyph glyph-name="uni1EB4" unicode="&#x1eb4;" 
d="M375 948c-30 0 -52 9 -77 20c-29 12 -52 22 -78 22c-23 0 -38 -8 -59 -25l-50 64c24 36 61 64 114 64c30 0 52 -9 77 -20c29 -12 52 -22 78 -22c23 0 38 8 59 25l50 -64c-24 -36 -61 -64 -114 -64zM300 733c-122 0 -176 81 -202 149l75 47l21 -28c39 -52 64 -67 106 -67
s67 15 106 67l21 28l75 -47c-26 -68 -80 -149 -202 -149zM435 0l-44 168h-191l-43 -168h-152l189 698h212l189 -698h-160zM300 553h-8l-68 -264h144z" />
    <glyph glyph-name="uni1EA4" unicode="&#x1ea4;" 
d="M473 894l-79 39l99 194l114 -57zM347 942l145 -147l-70 -64l-124 104l-124 -104l-66 64l145 147h94zM435 0l-44 168h-191l-43 -168h-152l189 698h212l189 -698h-160zM300 553h-8l-68 -264h144z" />
    <glyph glyph-name="uni1EAC" unicode="&#x1eac;" 
d="M300 -203c-59 0 -81 27 -81 62v26c0 36 22 63 81 63s81 -27 81 -63v-26c0 -35 -22 -62 -81 -62zM362 956l132 -159l-75 -58l-121 115l-121 -115l-71 58l132 159h124zM435 0l-44 168h-191l-43 -168h-152l189 698h212l189 -698h-160zM300 553h-8l-68 -264h144z" />
    <glyph glyph-name="uni1EA6" unicode="&#x1ea6;" 
d="M-7 1070l114 57l99 -194l-79 -39zM347 942l145 -147l-70 -64l-124 104l-124 -104l-66 64l145 147h94zM435 0l-44 168h-191l-43 -168h-152l189 698h212l189 -698h-160zM300 553h-8l-68 -264h144z" />
    <glyph glyph-name="uni1EA8" unicode="&#x1ea8;" 
d="M338 1113h134c74 0 98 -34 98 -72c0 -40 -30 -87 -63 -127l-27 -33l-66 34l43 97h-119v101zM347 942l145 -147l-70 -64l-124 104l-124 -104l-66 64l145 147h94zM435 0l-44 168h-191l-43 -168h-152l189 698h212l189 -698h-160zM300 553h-8l-68 -264h144z" />
    <glyph glyph-name="uni1EAA" unicode="&#x1eaa;" 
d="M225 1103c30 0 52 -9 77 -20c29 -12 52 -22 78 -22c23 0 38 8 59 25l50 -64c-24 -36 -61 -64 -114 -64c-30 0 -52 9 -77 20c-29 12 -52 22 -78 22c-23 0 -38 -8 -59 -25l-50 64c24 36 61 64 114 64zM348 929l142 -134l-68 -64l-124 95l-124 -95l-64 64l142 134h96zM435 0
l-44 168h-191l-43 -168h-152l189 698h212l189 -698h-160zM300 553h-8l-68 -264h144z" />
    <glyph glyph-name="AE" unicode="&#xc6;" 
d="M279 168h-104l-33 -168h-146l159 698h417v-111h-155v-178h145v-111h-145v-187h155v-111h-293v168zM257 594l-60 -315h82v315h-22z" />
    <glyph glyph-name="AEacute" unicode="&#x1fc;" 
d="M380 740l-88 43l99 194l123 -61zM279 168h-104l-33 -168h-146l159 698h417v-111h-155v-178h145v-111h-145v-187h155v-111h-293v168zM257 594l-60 -315h82v315h-22z" />
    <glyph glyph-name="Cacute" unicode="&#x106;" 
d="M328 740l-88 43l99 194l123 -61zM316 -12c-187 0 -275 132 -275 361s88 361 275 361c144 0 219 -79 247 -201l-140 -34c-15 66 -40 114 -110 114c-81 0 -112 -68 -112 -179v-122c0 -111 31 -179 112 -179c70 0 95 48 110 114l140 -34c-28 -122 -103 -201 -247 -201z" />
    <glyph glyph-name="Ccaron" unicode="&#x10c;" 
d="M250 748l-132 159l75 58l121 -115l121 115l71 -58l-132 -159h-124zM316 -12c-187 0 -275 132 -275 361s88 361 275 361c144 0 219 -79 247 -201l-140 -34c-15 66 -40 114 -110 114c-81 0 -112 -68 -112 -179v-122c0 -111 31 -179 112 -179c70 0 95 48 110 114l140 -34
c-28 -122 -103 -201 -247 -201z" />
    <glyph glyph-name="Ccedilla" unicode="&#xc7;" 
d="M313 589c-81 0 -112 -68 -112 -179v-122c0 -111 31 -179 112 -179c70 0 95 48 110 114l140 -34c-27 -117 -97 -194 -230 -200l-9 -44l4 -4c16 4 32 7 48 7c40 0 73 -20 73 -69c0 -68 -64 -91 -132 -91c-69 0 -107 24 -124 44l46 56c13 -16 35 -29 66 -29c25 0 44 8 44 25
c0 15 -13 34 -75 40l-21 2l14 66c-154 21 -226 149 -226 357c0 229 88 361 275 361c144 0 219 -79 247 -201l-140 -34c-15 66 -40 114 -110 114z" />
    <glyph glyph-name="Ccircumflex" unicode="&#x108;" 
d="M374 956l132 -159l-75 -58l-121 115l-121 -115l-71 58l132 159h124zM316 -12c-187 0 -275 132 -275 361s88 361 275 361c144 0 219 -79 247 -201l-140 -34c-15 66 -40 114 -110 114c-81 0 -112 -68 -112 -179v-122c0 -111 31 -179 112 -179c70 0 95 48 110 114l140 -34
c-28 -122 -103 -201 -247 -201z" />
    <glyph glyph-name="Cdotaccent" unicode="&#x10a;" 
d="M312 752c-66 0 -89 31 -89 70v29c0 40 23 70 89 70s89 -30 89 -70v-29c0 -39 -23 -70 -89 -70zM316 -12c-187 0 -275 132 -275 361s88 361 275 361c144 0 219 -79 247 -201l-140 -34c-15 66 -40 114 -110 114c-81 0 -112 -68 -112 -179v-122c0 -111 31 -179 112 -179
c70 0 95 48 110 114l140 -34c-28 -122 -103 -201 -247 -201z" />
    <glyph glyph-name="Dcaron" unicode="&#x10e;" 
d="M216 748l-132 159l75 58l121 -115l121 115l71 -58l-132 -159h-124zM64 698h225c187 0 277 -125 277 -349s-90 -349 -277 -349h-225v698zM279 118c89 0 129 59 129 168v127c0 108 -40 167 -129 167h-67v-462h67z" />
    <glyph glyph-name="Dcroat" unicode="&#x110;" 
d="M69 311h-59v114h59v273h220c187 0 277 -125 277 -349s-90 -349 -277 -349h-220v311zM279 118c89 0 129 59 129 168v127c0 108 -40 167 -129 167h-62v-160h110v-104h-110v-198h62z" />
    <glyph glyph-name="Eth" unicode="&#xd0;" 
d="M69 311h-59v114h59v273h220c187 0 277 -125 277 -349s-90 -349 -277 -349h-220v311zM279 118c89 0 129 59 129 168v127c0 108 -40 167 -129 167h-62v-160h110v-104h-110v-198h62z" />
    <glyph glyph-name="Eacute" unicode="&#xc9;" 
d="M319 740l-88 43l99 194l123 -61zM80 0v698h446v-123h-296v-160h286v-123h-286v-169h296v-123h-446z" />
    <glyph glyph-name="Ebreve" unicode="&#x114;" 
d="M303 740c-120 0 -169 98 -194 170l83 42l21 -32c31 -48 51 -77 90 -77s59 29 90 77l21 32l83 -42c-25 -72 -74 -170 -194 -170zM80 0v698h446v-123h-296v-160h286v-123h-286v-169h296v-123h-446z" />
    <glyph glyph-name="Ecaron" unicode="&#x11a;" 
d="M241 748l-132 159l75 58l121 -115l121 115l71 -58l-132 -159h-124zM80 0v698h446v-123h-296v-160h286v-123h-286v-169h296v-123h-446z" />
    <glyph glyph-name="Ecircumflex" unicode="&#xca;" 
d="M365 956l132 -159l-75 -58l-121 115l-121 -115l-71 58l132 159h124zM80 0v698h446v-123h-296v-160h286v-123h-286v-169h296v-123h-446z" />
    <glyph glyph-name="Edieresis" unicode="&#xcb;" 
d="M193 761c-59 0 -80 28 -80 63v26c0 35 21 62 80 62c60 0 81 -27 81 -62v-26c0 -35 -21 -63 -81 -63zM413 761c-60 0 -81 28 -81 63v26c0 35 21 62 81 62c59 0 80 -27 80 -62v-26c0 -35 -21 -63 -80 -63zM80 0v698h446v-123h-296v-160h286v-123h-286v-169h296v-123h-446z
" />
    <glyph glyph-name="Edotaccent" unicode="&#x116;" 
d="M303 752c-66 0 -89 31 -89 70v29c0 40 23 70 89 70s89 -30 89 -70v-29c0 -39 -23 -70 -89 -70zM80 0v698h446v-123h-296v-160h286v-123h-286v-169h296v-123h-446z" />
    <glyph glyph-name="uni1EB8" unicode="&#x1eb8;" 
d="M303 -203c-59 0 -81 27 -81 62v26c0 36 22 63 81 63s81 -27 81 -63v-26c0 -35 -22 -62 -81 -62zM80 0v698h446v-123h-296v-160h286v-123h-286v-169h296v-123h-446z" />
    <glyph glyph-name="Egrave" unicode="&#xc8;" 
d="M153 916l123 61l99 -194l-88 -43zM80 0v698h446v-123h-296v-160h286v-123h-286v-169h296v-123h-446z" />
    <glyph glyph-name="uni1EBA" unicode="&#x1eba;" 
d="M183 963h143c75 0 98 -34 98 -73s-24 -86 -57 -126l-28 -34l-75 35l41 92h-122v106zM80 0v698h446v-123h-296v-160h286v-123h-286v-169h296v-123h-446z" />
    <glyph glyph-name="Emacron" unicode="&#x112;" 
d="M150 888h306v-103h-306v103zM80 0v698h446v-123h-296v-160h286v-123h-286v-169h296v-123h-446z" />
    <glyph glyph-name="Eogonek" unicode="&#x118;" 
d="M80 698h446v-123h-296v-160h286v-123h-286v-169h296v-123c-98 -60 -114 -81 -114 -105c0 -25 18 -33 38 -33c24 0 41 12 55 28l53 -51c-17 -32 -59 -51 -122 -51c-66 0 -124 21 -124 85c0 56 45 89 119 123l-1 4h-350v698z" />
    <glyph glyph-name="uni1EBC" unicode="&#x1ebc;" 
d="M379 762c-30 0 -52 9 -77 20c-29 12 -52 22 -78 22c-23 0 -38 -8 -59 -25l-52 68c24 36 61 64 114 64c30 0 52 -9 77 -20c29 -12 52 -22 78 -22c23 0 38 8 59 25l52 -68c-24 -36 -61 -64 -114 -64zM80 0v698h446v-123h-296v-160h286v-123h-286v-169h296v-123h-446z" />
    <glyph glyph-name="uni1EBE" unicode="&#x1ebe;" 
d="M476 894l-79 39l99 194l114 -57zM350 942l145 -147l-70 -64l-124 104l-124 -104l-66 64l145 147h94zM80 0v698h446v-123h-296v-160h286v-123h-286v-169h296v-123h-446z" />
    <glyph glyph-name="uni1EC6" unicode="&#x1ec6;" 
d="M303 -203c-59 0 -81 27 -81 62v26c0 36 22 63 81 63s81 -27 81 -63v-26c0 -35 -22 -62 -81 -62zM365 956l132 -159l-75 -58l-121 115l-121 -115l-71 58l132 159h124zM80 0v698h446v-123h-296v-160h286v-123h-286v-169h296v-123h-446z" />
    <glyph glyph-name="uni1EC0" unicode="&#x1ec0;" 
d="M-4 1070l114 57l99 -194l-79 -39zM350 942l145 -147l-70 -64l-124 104l-124 -104l-66 64l145 147h94zM80 0v698h446v-123h-296v-160h286v-123h-286v-169h296v-123h-446z" />
    <glyph glyph-name="uni1EC2" unicode="&#x1ec2;" 
d="M341 1113h134c74 0 98 -34 98 -72c0 -40 -30 -87 -63 -127l-27 -33l-66 34l43 97h-119v101zM350 942l145 -147l-70 -64l-124 104l-124 -104l-66 64l145 147h94zM80 0v698h446v-123h-296v-160h286v-123h-286v-169h296v-123h-446z" />
    <glyph glyph-name="uni1EC4" unicode="&#x1ec4;" 
d="M228 1103c30 0 52 -9 77 -20c29 -12 52 -22 78 -22c23 0 38 8 59 25l50 -64c-24 -36 -61 -64 -114 -64c-30 0 -52 9 -77 20c-29 12 -52 22 -78 22c-23 0 -38 -8 -59 -25l-50 64c24 36 61 64 114 64zM351 929l142 -134l-68 -64l-124 95l-124 -95l-64 64l142 134h96zM80 0
v698h446v-123h-296v-160h286v-123h-286v-169h296v-123h-446z" />
    <glyph glyph-name="uni018F" unicode="&#x18f;" 
d="M300 -12c-187 0 -273 133 -273 361v50h393v11c0 107 -31 180 -122 180c-76 0 -108 -52 -125 -125l-130 49c32 125 117 196 255 196c190 0 275 -133 275 -361s-86 -361 -273 -361zM300 106c91 0 120 69 120 182v3h-240v-3c0 -113 29 -182 120 -182z" />
    <glyph glyph-name="Gbreve" unicode="&#x11e;" 
d="M301 740c-120 0 -169 98 -194 170l83 42l21 -32c31 -48 51 -77 90 -77s59 29 90 77l21 32l83 -42c-25 -72 -74 -170 -194 -170zM411 99h-9c-23 -58 -70 -111 -156 -111c-137 0 -211 133 -211 355c0 237 85 367 266 367c144 0 216 -81 244 -201l-140 -34
c-15 59 -38 114 -107 114c-76 0 -104 -67 -104 -179v-114c0 -113 29 -187 116 -187c67 0 101 45 101 107v51h-119v106h253v-373h-134v99z" />
    <glyph glyph-name="Gcircumflex" unicode="&#x11c;" 
d="M363 956l132 -159l-75 -58l-121 115l-121 -115l-71 58l132 159h124zM411 99h-9c-23 -58 -70 -111 -156 -111c-137 0 -211 133 -211 355c0 237 85 367 266 367c144 0 216 -81 244 -201l-140 -34c-15 59 -38 114 -107 114c-76 0 -104 -67 -104 -179v-114
c0 -113 29 -187 116 -187c67 0 101 45 101 107v51h-119v106h253v-373h-134v99z" />
    <glyph glyph-name="uni0122" unicode="&#x122;" 
d="M220 -54h157l-87 -215h-88zM411 99h-9c-23 -58 -70 -111 -156 -111c-137 0 -211 133 -211 355c0 237 85 367 266 367c144 0 216 -81 244 -201l-140 -34c-15 59 -38 114 -107 114c-76 0 -104 -67 -104 -179v-114c0 -113 29 -187 116 -187c67 0 101 45 101 107v51h-119v106
h253v-373h-134v99z" />
    <glyph glyph-name="Gdotaccent" unicode="&#x120;" 
d="M301 752c-66 0 -89 31 -89 70v29c0 40 23 70 89 70s89 -30 89 -70v-29c0 -39 -23 -70 -89 -70zM411 99h-9c-23 -58 -70 -111 -156 -111c-137 0 -211 133 -211 355c0 237 85 367 266 367c144 0 216 -81 244 -201l-140 -34c-15 59 -38 114 -107 114
c-76 0 -104 -67 -104 -179v-114c0 -113 29 -187 116 -187c67 0 101 45 101 107v51h-119v106h253v-373h-134v99z" />
    <glyph glyph-name="Hbar" unicode="&#x126;" 
d="M388 292h-176v-292h-151v507h-55v113h55v78h151v-85h176v85h151v-78h55v-113h-55v-507h-151v292zM388 415v99h-176v-99h176z" />
    <glyph glyph-name="Hcircumflex" unicode="&#x124;" 
d="M362 956l132 -159l-75 -58l-121 115l-121 -115l-71 58l132 159h124zM388 292h-176v-292h-151v698h151v-283h176v283h151v-698h-151v292z" />
    <glyph glyph-name="Iacute" unicode="&#xcd;" 
d="M316 740l-88 43l99 194l123 -61zM75 0v111h150v476h-150v111h450v-111h-150v-476h150v-111h-450z" />
    <glyph glyph-name="Ibreve" unicode="&#x12c;" 
d="M300 740c-120 0 -169 98 -194 170l83 42l21 -32c31 -48 51 -77 90 -77s59 29 90 77l21 32l83 -42c-25 -72 -74 -170 -194 -170zM75 0v111h150v476h-150v111h450v-111h-150v-476h150v-111h-450z" />
    <glyph glyph-name="Icircumflex" unicode="&#xce;" 
d="M362 956l132 -159l-75 -58l-121 115l-121 -115l-71 58l132 159h124zM75 0v111h150v476h-150v111h450v-111h-150v-476h150v-111h-450z" />
    <glyph glyph-name="Idieresis" unicode="&#xcf;" 
d="M190 761c-59 0 -80 28 -80 63v26c0 35 21 62 80 62c60 0 81 -27 81 -62v-26c0 -35 -21 -63 -81 -63zM410 761c-60 0 -81 28 -81 63v26c0 35 21 62 81 62c59 0 80 -27 80 -62v-26c0 -35 -21 -63 -80 -63zM75 0v111h150v476h-150v111h450v-111h-150v-476h150v-111h-450z
" />
    <glyph glyph-name="Idotaccent" unicode="&#x130;" 
d="M300 752c-66 0 -89 31 -89 70v29c0 40 23 70 89 70s89 -30 89 -70v-29c0 -39 -23 -70 -89 -70zM75 0v111h150v476h-150v111h450v-111h-150v-476h150v-111h-450z" />
    <glyph glyph-name="uni1ECA" unicode="&#x1eca;" 
d="M300 -203c-59 0 -81 27 -81 62v26c0 36 22 63 81 63s81 -27 81 -63v-26c0 -35 -22 -62 -81 -62zM75 0v111h150v476h-150v111h450v-111h-150v-476h150v-111h-450z" />
    <glyph glyph-name="Igrave" unicode="&#xcc;" 
d="M150 916l123 61l99 -194l-88 -43zM75 0v111h150v476h-150v111h450v-111h-150v-476h150v-111h-450z" />
    <glyph glyph-name="uni1EC8" unicode="&#x1ec8;" 
d="M180 963h143c75 0 98 -34 98 -73s-24 -86 -57 -126l-28 -34l-75 35l41 92h-122v106zM75 0v111h150v476h-150v111h450v-111h-150v-476h150v-111h-450z" />
    <glyph glyph-name="Imacron" unicode="&#x12a;" 
d="M147 888h306v-103h-306v103zM75 0v111h150v476h-150v111h450v-111h-150v-476h150v-111h-450z" />
    <glyph glyph-name="Iogonek" unicode="&#x12e;" 
d="M75 111h150v476h-150v111h450v-111h-150v-476h150v-111c-98 -60 -114 -81 -114 -105c0 -25 18 -33 38 -33c24 0 41 12 55 28l53 -51c-17 -32 -59 -51 -122 -51c-66 0 -124 21 -124 85c0 56 45 89 119 123l-2 4h-353v111z" />
    <glyph glyph-name="Itilde" unicode="&#x128;" 
d="M376 762c-30 0 -52 9 -77 20c-29 12 -52 22 -78 22c-23 0 -38 -8 -59 -25l-52 68c24 36 61 64 114 64c30 0 52 -9 77 -20c29 -12 52 -22 78 -22c23 0 38 8 59 25l52 -68c-24 -36 -61 -64 -114 -64zM75 0v111h150v476h-150v111h450v-111h-150v-476h150v-111h-450z" />
    <glyph glyph-name="IJ" unicode="&#x132;" 
d="M525 698v-503c0 -126 -88 -207 -232 -207c-145 0 -220 81 -241 193l146 32c11 -59 36 -103 96 -103c51 0 81 32 81 100v488h150zM63 698h150v-389h-150v389z" />
    <glyph glyph-name="IJacute" 
d="M466 740l-88 43l99 194l123 -61zM154 740l-88 43l99 194l123 -61zM525 698v-503c0 -126 -88 -207 -232 -207c-145 0 -220 81 -241 193l146 32c11 -59 36 -103 96 -103c51 0 81 32 81 100v488h150zM63 698h150v-389h-150v389z" />
    <glyph glyph-name="uni00A40301" 
d="M337 740l-88 43l99 194l123 -61zM511 698v-503c2 -126 -91 -207 -233 -207c-143 0 -218 78 -240 194l142 29c11 -59 38 -101 98 -101c51 0 81 32 81 100v365h-230v123h382z" />
    <glyph glyph-name="Jcircumflex" unicode="&#x134;" 
d="M383 956l132 -159l-75 -58l-121 115l-121 -115l-71 58l132 159h124zM511 698v-503c2 -126 -91 -207 -233 -207c-143 0 -218 78 -240 194l142 29c11 -59 38 -101 98 -101c51 0 81 32 81 100v365h-230v123h382z" />
    <glyph glyph-name="uni0136" unicode="&#x136;" 
d="M247 -54h157l-87 -215h-88zM280 291l-62 -87v-204h-150v698h150v-292h8l76 116l123 176h168l-209 -295l219 -403h-169z" />
    <glyph glyph-name="Lacute" unicode="&#x139;" 
d="M183 740l-88 43l99 194l123 -61zM92 0v698h151v-575h300v-123h-451z" />
    <glyph glyph-name="Lcaron" unicode="&#x13d;" 
d="M417 525h-97l6 215h157zM92 0v698h151v-575h300v-123h-451z" />
    <glyph glyph-name="uni013B" unicode="&#x13b;" 
d="M239 -54h157l-87 -215h-88zM92 0v698h151v-575h300v-123h-451z" />
    <glyph glyph-name="Ldot" unicode="&#x13f;" 
d="M445 243c-66 0 -89 31 -89 70v29c0 40 23 70 89 70s89 -30 89 -70v-29c0 -39 -23 -70 -89 -70zM92 0v698h151v-575h300v-123h-451z" />
    <glyph glyph-name="Lslash" unicode="&#x141;" 
d="M543 0h-439v244l-71 -23v113l71 23v341h151v-296l184 61v-113l-184 -61v-166h288v-123z" />
    <glyph glyph-name="Nacute" unicode="&#x143;" 
d="M316 740l-88 43l99 194l123 -61zM200 464h-11v-464h-128v698h180l159 -464h11v464h128v-698h-180z" />
    <glyph glyph-name="Ncaron" unicode="&#x147;" 
d="M238 748l-132 159l75 58l121 -115l121 115l71 -58l-132 -159h-124zM200 464h-11v-464h-128v698h180l159 -464h11v464h128v-698h-180z" />
    <glyph glyph-name="uni0145" unicode="&#x145;" 
d="M222 -54h157l-87 -215h-88zM200 464h-11v-464h-128v698h180l159 -464h11v464h128v-698h-180z" />
    <glyph glyph-name="Ntilde" unicode="&#xd1;" 
d="M376 762c-30 0 -52 9 -77 20c-29 12 -52 22 -78 22c-23 0 -38 -8 -59 -25l-52 68c24 36 61 64 114 64c30 0 52 -9 77 -20c29 -12 52 -22 78 -22c23 0 38 8 59 25l52 -68c-24 -36 -61 -64 -114 -64zM200 464h-11v-464h-128v698h180l159 -464h11v464h128v-698h-180z" />
    <glyph glyph-name="Eng" unicode="&#x14a;" 
d="M61 0v698h180l159 -464h11v464h128v-749c0 -87 -51 -149 -157 -149h-193v110h213v90h-43l-159 464h-11v-464h-128z" />
    <glyph glyph-name="Oacute" unicode="&#xd3;" 
d="M316 740l-88 43l99 194l123 -61zM300 -12c-187 0 -273 133 -273 361s86 361 273 361s273 -133 273 -361s-86 -361 -273 -361zM300 109c85 0 113 67 113 180v121c0 112 -28 179 -113 179s-113 -67 -113 -179v-122c0 -112 28 -179 113 -179z" />
    <glyph glyph-name="Obreve" unicode="&#x14e;" 
d="M300 740c-120 0 -169 98 -194 170l83 42l21 -32c31 -48 51 -77 90 -77s59 29 90 77l21 32l83 -42c-25 -72 -74 -170 -194 -170zM300 -12c-187 0 -273 133 -273 361s86 361 273 361s273 -133 273 -361s-86 -361 -273 -361zM300 109c85 0 113 67 113 180v121
c0 112 -28 179 -113 179s-113 -67 -113 -179v-122c0 -112 28 -179 113 -179z" />
    <glyph glyph-name="Ocircumflex" unicode="&#xd4;" 
d="M362 956l132 -159l-75 -58l-121 115l-121 -115l-71 58l132 159h124zM300 -12c-187 0 -273 133 -273 361s86 361 273 361s273 -133 273 -361s-86 -361 -273 -361zM300 109c85 0 113 67 113 180v121c0 112 -28 179 -113 179s-113 -67 -113 -179v-122
c0 -112 28 -179 113 -179z" />
    <glyph glyph-name="Odieresis" unicode="&#xd6;" 
d="M190 761c-59 0 -80 28 -80 63v26c0 35 21 62 80 62c60 0 81 -27 81 -62v-26c0 -35 -21 -63 -81 -63zM410 761c-60 0 -81 28 -81 63v26c0 35 21 62 81 62c59 0 80 -27 80 -62v-26c0 -35 -21 -63 -80 -63zM300 -12c-187 0 -273 133 -273 361s86 361 273 361
s273 -133 273 -361s-86 -361 -273 -361zM300 109c85 0 113 67 113 180v121c0 112 -28 179 -113 179s-113 -67 -113 -179v-122c0 -112 28 -179 113 -179z" />
    <glyph glyph-name="uni1ECC" unicode="&#x1ecc;" 
d="M300 -203c-59 0 -81 27 -81 62v26c0 36 22 63 81 63s81 -27 81 -63v-26c0 -35 -22 -62 -81 -62zM300 -12c-187 0 -273 133 -273 361s86 361 273 361s273 -133 273 -361s-86 -361 -273 -361zM300 109c85 0 113 67 113 180v121c0 112 -28 179 -113 179s-113 -67 -113 -179
v-122c0 -112 28 -179 113 -179z" />
    <glyph glyph-name="Ograve" unicode="&#xd2;" 
d="M150 916l123 61l99 -194l-88 -43zM300 -12c-187 0 -273 133 -273 361s86 361 273 361s273 -133 273 -361s-86 -361 -273 -361zM300 109c85 0 113 67 113 180v121c0 112 -28 179 -113 179s-113 -67 -113 -179v-122c0 -112 28 -179 113 -179z" />
    <glyph glyph-name="uni1ECE" unicode="&#x1ece;" 
d="M180 963h143c75 0 98 -34 98 -73s-24 -86 -57 -126l-28 -34l-75 35l41 92h-122v106zM300 -12c-187 0 -273 133 -273 361s86 361 273 361s273 -133 273 -361s-86 -361 -273 -361zM300 109c85 0 113 67 113 180v121c0 112 -28 179 -113 179s-113 -67 -113 -179v-122
c0 -112 28 -179 113 -179z" />
    <glyph glyph-name="Ohungarumlaut" unicode="&#x150;" 
d="M210 740l-81 39l99 194l116 -57zM415 740l-81 39l99 194l116 -57zM300 -12c-187 0 -273 133 -273 361s86 361 273 361s273 -133 273 -361s-86 -361 -273 -361zM300 109c85 0 113 67 113 180v121c0 112 -28 179 -113 179s-113 -67 -113 -179v-122c0 -112 28 -179 113 -179
z" />
    <glyph glyph-name="Omacron" unicode="&#x14c;" 
d="M147 888h306v-103h-306v103zM300 -12c-187 0 -273 133 -273 361s86 361 273 361s273 -133 273 -361s-86 -361 -273 -361zM300 109c85 0 113 67 113 180v121c0 112 -28 179 -113 179s-113 -67 -113 -179v-122c0 -112 28 -179 113 -179z" />
    <glyph glyph-name="Oslash" unicode="&#xd8;" 
d="M300 -12c-53 0 -97 10 -134 31l-53 -85l-94 54l66 107c-39 61 -58 147 -58 254c0 228 86 361 273 361c53 0 97 -10 134 -31l53 85l94 -54l-66 -107c39 -61 58 -147 58 -254c0 -228 -86 -361 -273 -361zM187 288c0 -14 0 -26 2 -39l182 316c-17 16 -41 24 -71 24
c-85 0 -113 -67 -113 -179v-122zM300 109c85 0 113 67 113 179v122c0 14 0 25 -2 39l-182 -316c17 -16 41 -24 71 -24z" />
    <glyph glyph-name="Oslashacute" unicode="&#x1fe;" 
d="M316 740l-88 43l99 194l123 -61zM300 -12c-53 0 -97 10 -134 31l-53 -85l-94 54l66 107c-39 61 -58 147 -58 254c0 228 86 361 273 361c53 0 97 -10 134 -31l53 85l94 -54l-66 -107c39 -61 58 -147 58 -254c0 -228 -86 -361 -273 -361zM187 288c0 -14 0 -26 2 -39
l182 316c-17 16 -41 24 -71 24c-85 0 -113 -67 -113 -179v-122zM300 109c85 0 113 67 113 179v122c0 14 0 25 -2 39l-182 -316c17 -16 41 -24 71 -24z" />
    <glyph glyph-name="Otilde" unicode="&#xd5;" 
d="M376 762c-30 0 -52 9 -77 20c-29 12 -52 22 -78 22c-23 0 -38 -8 -59 -25l-52 68c24 36 61 64 114 64c30 0 52 -9 77 -20c29 -12 52 -22 78 -22c23 0 38 8 59 25l52 -68c-24 -36 -61 -64 -114 -64zM300 -12c-187 0 -273 133 -273 361s86 361 273 361s273 -133 273 -361
s-86 -361 -273 -361zM300 109c85 0 113 67 113 180v121c0 112 -28 179 -113 179s-113 -67 -113 -179v-122c0 -112 28 -179 113 -179z" />
    <glyph glyph-name="Ohorn" unicode="&#x1a0;" 
d="M593 710c0 -62 -18 -96 -87 -100c51 -55 67 -145 67 -261c0 -228 -86 -361 -273 -361s-273 133 -273 361s86 361 273 361c33 0 63 -4 89 -12h80v115h124v-103zM300 109c85 0 113 67 113 180v121c0 112 -28 179 -113 179s-113 -67 -113 -179v-122c0 -112 28 -179 113 -179
z" />
    <glyph glyph-name="uni1EDA" unicode="&#x1eda;" 
d="M316 740l-88 43l99 194l123 -61zM593 710c0 -62 -18 -96 -87 -100c51 -55 67 -145 67 -261c0 -228 -86 -361 -273 -361s-273 133 -273 361s86 361 273 361c33 0 63 -4 89 -12h80v115h124v-103zM300 109c85 0 113 67 113 180v121c0 112 -28 179 -113 179
s-113 -67 -113 -179v-122c0 -112 28 -179 113 -179z" />
    <glyph glyph-name="uni1EE2" unicode="&#x1ee2;" 
d="M300 -203c-59 0 -81 27 -81 62v26c0 36 22 63 81 63s81 -27 81 -63v-26c0 -35 -22 -62 -81 -62zM593 710c0 -62 -18 -96 -87 -100c51 -55 67 -145 67 -261c0 -228 -86 -361 -273 -361s-273 133 -273 361s86 361 273 361c33 0 63 -4 89 -12h80v115h124v-103zM300 109
c85 0 113 67 113 180v121c0 112 -28 179 -113 179s-113 -67 -113 -179v-122c0 -112 28 -179 113 -179z" />
    <glyph glyph-name="uni1EDC" unicode="&#x1edc;" 
d="M150 916l123 61l99 -194l-88 -43zM593 710c0 -62 -18 -96 -87 -100c51 -55 67 -145 67 -261c0 -228 -86 -361 -273 -361s-273 133 -273 361s86 361 273 361c33 0 63 -4 89 -12h80v115h124v-103zM300 109c85 0 113 67 113 180v121c0 112 -28 179 -113 179
s-113 -67 -113 -179v-122c0 -112 28 -179 113 -179z" />
    <glyph glyph-name="uni1EDE" unicode="&#x1ede;" 
d="M180 963h143c75 0 98 -34 98 -73s-24 -86 -57 -126l-28 -34l-75 35l41 92h-122v106zM593 710c0 -62 -18 -96 -87 -100c51 -55 67 -145 67 -261c0 -228 -86 -361 -273 -361s-273 133 -273 361s86 361 273 361c33 0 63 -4 89 -12h80v115h124v-103zM300 109
c85 0 113 67 113 180v121c0 112 -28 179 -113 179s-113 -67 -113 -179v-122c0 -112 28 -179 113 -179z" />
    <glyph glyph-name="uni1EE0" unicode="&#x1ee0;" 
d="M350 762c-26 0 -45 9 -67 20c-25 12 -45 22 -67 22c-17 0 -32 -6 -49 -21l-51 62c22 37 54 66 102 66c26 0 45 -9 67 -20c25 -12 45 -22 67 -22c17 0 32 6 49 21l51 -62c-22 -37 -54 -66 -102 -66zM593 710c0 -62 -18 -96 -87 -100c51 -55 67 -145 67 -261
c0 -228 -86 -361 -273 -361s-273 133 -273 361s86 361 273 361c33 0 63 -4 89 -12h80v115h124v-103zM300 109c85 0 113 67 113 180v121c0 112 -28 179 -113 179s-113 -67 -113 -179v-122c0 -112 28 -179 113 -179z" />
    <glyph glyph-name="uni1ED0" unicode="&#x1ed0;" 
d="M473 894l-79 39l99 194l114 -57zM347 942l145 -147l-70 -64l-124 104l-124 -104l-66 64l145 147h94zM300 -12c-187 0 -273 133 -273 361s86 361 273 361s273 -133 273 -361s-86 -361 -273 -361zM300 109c85 0 113 67 113 180v121c0 112 -28 179 -113 179
s-113 -67 -113 -179v-122c0 -112 28 -179 113 -179z" />
    <glyph glyph-name="uni1ED8" unicode="&#x1ed8;" 
d="M300 -203c-59 0 -81 27 -81 62v26c0 36 22 63 81 63s81 -27 81 -63v-26c0 -35 -22 -62 -81 -62zM362 956l132 -159l-75 -58l-121 115l-121 -115l-71 58l132 159h124zM300 -12c-187 0 -273 133 -273 361s86 361 273 361s273 -133 273 -361s-86 -361 -273 -361zM300 109
c85 0 113 67 113 180v121c0 112 -28 179 -113 179s-113 -67 -113 -179v-122c0 -112 28 -179 113 -179z" />
    <glyph glyph-name="uni1ED2" unicode="&#x1ed2;" 
d="M-7 1070l114 57l99 -194l-79 -39zM347 942l145 -147l-70 -64l-124 104l-124 -104l-66 64l145 147h94zM300 -12c-187 0 -273 133 -273 361s86 361 273 361s273 -133 273 -361s-86 -361 -273 -361zM300 109c85 0 113 67 113 180v121c0 112 -28 179 -113 179
s-113 -67 -113 -179v-122c0 -112 28 -179 113 -179z" />
    <glyph glyph-name="uni1ED4" unicode="&#x1ed4;" 
d="M338 1113h134c74 0 98 -34 98 -72c0 -40 -30 -87 -63 -127l-27 -33l-66 34l43 97h-119v101zM347 942l145 -147l-70 -64l-124 104l-124 -104l-66 64l145 147h94zM300 -12c-187 0 -273 133 -273 361s86 361 273 361s273 -133 273 -361s-86 -361 -273 -361zM300 109
c85 0 113 67 113 180v121c0 112 -28 179 -113 179s-113 -67 -113 -179v-122c0 -112 28 -179 113 -179z" />
    <glyph glyph-name="uni1ED6" unicode="&#x1ed6;" 
d="M225 1103c30 0 52 -9 77 -20c29 -12 52 -22 78 -22c23 0 38 8 59 25l50 -64c-24 -36 -61 -64 -114 -64c-30 0 -52 9 -77 20c-29 12 -52 22 -78 22c-23 0 -38 -8 -59 -25l-50 64c24 36 61 64 114 64zM348 929l142 -134l-68 -64l-124 95l-124 -95l-64 64l142 134h96z
M300 -12c-187 0 -273 133 -273 361s86 361 273 361s273 -133 273 -361s-86 -361 -273 -361zM300 109c85 0 113 67 113 180v121c0 112 -28 179 -113 179s-113 -67 -113 -179v-122c0 -112 28 -179 113 -179z" />
    <glyph glyph-name="OE" unicode="&#x152;" 
d="M277 0c-180 0 -267 125 -267 349s87 349 267 349h309v-111h-155v-178h145v-111h-145v-187h155v-111h-309zM293 111v476h-6c-90 0 -131 -61 -131 -179v-118c0 -118 41 -179 131 -179h6z" />
    <glyph glyph-name="Racute" unicode="&#x154;" 
d="M320 740l-88 43l99 194l123 -61zM224 0h-148v698h270c137 0 214 -87 214 -222c0 -98 -45 -175 -123 -197l137 -279h-164l-117 259h-69v-259zM310 375c70 0 94 25 94 86v30c0 61 -24 86 -94 86h-86v-202h86z" />
    <glyph glyph-name="Rcaron" unicode="&#x158;" 
d="M242 748l-132 159l75 58l121 -115l121 115l71 -58l-132 -159h-124zM224 0h-148v698h270c137 0 214 -87 214 -222c0 -98 -45 -175 -123 -197l137 -279h-164l-117 259h-69v-259zM310 375c70 0 94 25 94 86v30c0 61 -24 86 -94 86h-86v-202h86z" />
    <glyph glyph-name="uni0156" unicode="&#x156;" 
d="M237 -54h157l-87 -215h-88zM224 0h-148v698h270c137 0 214 -87 214 -222c0 -98 -45 -175 -123 -197l137 -279h-164l-117 259h-69v-259zM310 375c70 0 94 25 94 86v30c0 61 -24 86 -94 86h-86v-202h86z" />
    <glyph glyph-name="Sacute" unicode="&#x15a;" 
d="M321 740l-88 43l99 194l123 -61zM289 -12c-116 0 -205 42 -258 108l87 96c51 -56 114 -82 176 -82c71 0 110 33 110 93c0 49 -26 72 -94 83l-73 12c-125 21 -178 98 -178 200c0 134 93 212 251 212c107 0 189 -36 238 -93l-85 -95c-37 41 -89 66 -152 66
c-67 0 -101 -28 -101 -83c0 -48 28 -69 96 -81l73 -13c112 -20 177 -86 177 -196c0 -131 -92 -227 -267 -227z" />
    <glyph glyph-name="Scaron" unicode="&#x160;" 
d="M243 748l-132 159l75 58l121 -115l121 115l71 -58l-132 -159h-124zM289 -12c-116 0 -205 42 -258 108l87 96c51 -56 114 -82 176 -82c71 0 110 33 110 93c0 49 -26 72 -94 83l-73 12c-125 21 -178 98 -178 200c0 134 93 212 251 212c107 0 189 -36 238 -93l-85 -95
c-37 41 -89 66 -152 66c-67 0 -101 -28 -101 -83c0 -48 28 -69 96 -81l73 -13c112 -20 177 -86 177 -196c0 -131 -92 -227 -267 -227z" />
    <glyph glyph-name="Scedilla" unicode="&#x15e;" 
d="M306 -212c-69 0 -107 24 -124 44l46 56c13 -16 35 -29 66 -29c25 0 44 8 44 25c0 15 -13 34 -75 40l-21 2l13 63c-99 8 -176 47 -224 107l87 95c51 -56 114 -82 176 -82c71 0 110 33 110 93c0 49 -26 72 -94 83l-73 12c-125 21 -178 98 -178 200c0 134 93 213 251 213
c107 0 189 -36 238 -93l-85 -96c-37 41 -88 65 -151 65c-67 0 -101 -27 -101 -82c0 -48 27 -69 95 -81l73 -13c112 -20 177 -86 177 -196c0 -123 -81 -214 -234 -225l-9 -44l4 -4c16 4 32 7 48 7c40 0 73 -20 73 -69c0 -68 -64 -91 -132 -91z" />
    <glyph glyph-name="Scircumflex" unicode="&#x15c;" 
d="M367 956l132 -159l-75 -58l-121 115l-121 -115l-71 58l132 159h124zM289 -12c-116 0 -205 42 -258 108l87 96c51 -56 114 -82 176 -82c71 0 110 33 110 93c0 49 -26 72 -94 83l-73 12c-125 21 -178 98 -178 200c0 134 93 212 251 212c107 0 189 -36 238 -93l-85 -95
c-37 41 -89 66 -152 66c-67 0 -101 -28 -101 -83c0 -48 28 -69 96 -81l73 -13c112 -20 177 -86 177 -196c0 -131 -92 -227 -267 -227z" />
    <glyph glyph-name="uni0218" unicode="&#x218;" 
d="M214 -54h157l-87 -215h-88zM289 -12c-116 0 -205 42 -258 108l87 96c51 -56 114 -82 176 -82c71 0 110 33 110 93c0 49 -26 72 -94 83l-73 12c-125 21 -178 98 -178 200c0 134 93 212 251 212c107 0 189 -36 238 -93l-85 -95c-37 41 -89 66 -152 66
c-67 0 -101 -28 -101 -83c0 -48 28 -69 96 -81l73 -13c112 -20 177 -86 177 -196c0 -131 -92 -227 -267 -227z" />
    <glyph glyph-name="uni1E9E" unicode="&#x1e9e;" 
d="M46 698h510v-129l-124 -157v-6c74 -5 168 -54 168 -197c0 -120 -65 -221 -219 -221c-51 0 -107 11 -152 49l63 104c27 -24 57 -36 87 -36c55 0 70 40 70 87v36c0 43 -23 74 -78 74h-86v117l127 163h-219v-582h-147v698z" />
    <glyph glyph-name="Tbar" unicode="&#x166;" 
d="M375 282v-282h-150v282h-143v114h143v179h-201v123h552v-123h-201v-179h143v-114h-143z" />
    <glyph glyph-name="Tcaron" unicode="&#x164;" 
d="M238 748l-132 159l75 58l121 -115l121 115l71 -58l-132 -159h-124zM375 575v-575h-150v575h-201v123h552v-123h-201z" />
    <glyph glyph-name="uni0162" unicode="&#x162;" 
d="M222 -54h157l-87 -215h-88zM375 575v-575h-150v575h-201v123h552v-123h-201z" />
    <glyph glyph-name="uni021A" unicode="&#x21a;" 
d="M222 -54h157l-87 -215h-88zM375 575v-575h-150v575h-201v123h552v-123h-201z" />
    <glyph glyph-name="Thorn" unicode="&#xde;" 
d="M76 0v698h151v-121h114c138 0 214 -88 214 -222s-76 -222 -214 -222h-114v-133h-151zM227 254h77c70 0 94 25 94 86v30c0 61 -24 86 -94 86h-77v-202z" />
    <glyph glyph-name="Uacute" unicode="&#xda;" 
d="M316 740l-88 43l99 194l123 -61zM205 698v-442c0 -89 7 -147 95 -147s95 58 95 147v442h150v-422c0 -191 -42 -288 -245 -288s-245 97 -245 288v422h150z" />
    <glyph glyph-name="Ubreve" unicode="&#x16c;" 
d="M300 740c-120 0 -169 98 -194 170l83 42l21 -32c31 -48 51 -77 90 -77s59 29 90 77l21 32l83 -42c-25 -72 -74 -170 -194 -170zM205 698v-442c0 -89 7 -147 95 -147s95 58 95 147v442h150v-422c0 -191 -42 -288 -245 -288s-245 97 -245 288v422h150z" />
    <glyph glyph-name="Ucircumflex" unicode="&#xdb;" 
d="M362 956l132 -159l-75 -58l-121 115l-121 -115l-71 58l132 159h124zM205 698v-442c0 -89 7 -147 95 -147s95 58 95 147v442h150v-422c0 -191 -42 -288 -245 -288s-245 97 -245 288v422h150z" />
    <glyph glyph-name="Udieresis" unicode="&#xdc;" 
d="M190 761c-59 0 -80 28 -80 63v26c0 35 21 62 80 62c60 0 81 -27 81 -62v-26c0 -35 -21 -63 -81 -63zM410 761c-60 0 -81 28 -81 63v26c0 35 21 62 81 62c59 0 80 -27 80 -62v-26c0 -35 -21 -63 -80 -63zM205 698v-442c0 -89 7 -147 95 -147s95 58 95 147v442h150v-422
c0 -191 -42 -288 -245 -288s-245 97 -245 288v422h150z" />
    <glyph glyph-name="uni1EE4" unicode="&#x1ee4;" 
d="M300 -203c-59 0 -81 27 -81 62v26c0 36 22 63 81 63s81 -27 81 -63v-26c0 -35 -22 -62 -81 -62zM205 698v-442c0 -89 7 -147 95 -147s95 58 95 147v442h150v-422c0 -191 -42 -288 -245 -288s-245 97 -245 288v422h150z" />
    <glyph glyph-name="Ugrave" unicode="&#xd9;" 
d="M150 916l123 61l99 -194l-88 -43zM205 698v-442c0 -89 7 -147 95 -147s95 58 95 147v442h150v-422c0 -191 -42 -288 -245 -288s-245 97 -245 288v422h150z" />
    <glyph glyph-name="uni1EE6" unicode="&#x1ee6;" 
d="M180 963h143c75 0 98 -34 98 -73s-24 -86 -57 -126l-28 -34l-75 35l41 92h-122v106zM205 698v-442c0 -89 7 -147 95 -147s95 58 95 147v442h150v-422c0 -191 -42 -288 -245 -288s-245 97 -245 288v422h150z" />
    <glyph glyph-name="Uhungarumlaut" unicode="&#x170;" 
d="M210 740l-81 39l99 194l116 -57zM415 740l-81 39l99 194l116 -57zM205 698v-442c0 -89 7 -147 95 -147s95 58 95 147v442h150v-422c0 -191 -42 -288 -245 -288s-245 97 -245 288v422h150z" />
    <glyph glyph-name="Umacron" unicode="&#x16a;" 
d="M147 888h306v-103h-306v103zM205 698v-442c0 -89 7 -147 95 -147s95 58 95 147v442h150v-422c0 -191 -42 -288 -245 -288s-245 97 -245 288v422h150z" />
    <glyph glyph-name="Uogonek" unicode="&#x172;" 
d="M205 698v-442c0 -89 7 -147 95 -147s95 58 95 147v442h150v-422c0 -127 -5 -199 -115 -277c-97 -69 -112 -81 -112 -104c0 -25 19 -33 38 -33c24 0 41 12 55 28l53 -51c-17 -32 -59 -51 -122 -51c-67 0 -124 22 -124 84c0 53 43 81 119 114l-2 5c-11 -2 -21 -3 -41 -3
c-197 0 -239 100 -239 288v422h150z" />
    <glyph glyph-name="Uring" unicode="&#x16e;" 
d="M300 719c-83 0 -148 60 -148 143c0 82 65 143 148 143s148 -60 148 -143c0 -82 -65 -143 -148 -143zM300 794c33 0 51 20 51 51v34c0 32 -18 51 -51 51s-51 -20 -51 -51v-34c0 -32 18 -51 51 -51zM205 698v-442c0 -89 7 -147 95 -147s95 58 95 147v442h150v-422
c0 -191 -42 -288 -245 -288s-245 97 -245 288v422h150z" />
    <glyph glyph-name="Utilde" unicode="&#x168;" 
d="M376 762c-30 0 -52 9 -77 20c-29 12 -52 22 -78 22c-23 0 -38 -8 -59 -25l-52 68c24 36 61 64 114 64c30 0 52 -9 77 -20c29 -12 52 -22 78 -22c23 0 38 8 59 25l52 -68c-24 -36 -61 -64 -114 -64zM205 698v-442c0 -89 7 -147 95 -147s95 58 95 147v442h150v-422
c0 -191 -42 -288 -245 -288s-245 97 -245 288v422h150z" />
    <glyph glyph-name="Uhorn" unicode="&#x1af;" 
d="M205 698v-442c0 -89 7 -147 95 -147s95 58 95 147v442h81v115h124v-103c0 -52 -12 -84 -55 -96v-338c0 -191 -42 -288 -245 -288s-245 97 -245 288v422h150z" />
    <glyph glyph-name="uni1EE8" unicode="&#x1ee8;" 
d="M316 740l-88 43l99 194l123 -61zM205 698v-442c0 -89 7 -147 95 -147s95 58 95 147v442h81v115h124v-103c0 -52 -12 -84 -55 -96v-338c0 -191 -42 -288 -245 -288s-245 97 -245 288v422h150z" />
    <glyph glyph-name="uni1EF0" unicode="&#x1ef0;" 
d="M300 -203c-59 0 -81 27 -81 62v26c0 36 22 63 81 63s81 -27 81 -63v-26c0 -35 -22 -62 -81 -62zM205 698v-442c0 -89 7 -147 95 -147s95 58 95 147v442h81v115h124v-103c0 -52 -12 -84 -55 -96v-338c0 -191 -42 -288 -245 -288s-245 97 -245 288v422h150z" />
    <glyph glyph-name="uni1EEA" unicode="&#x1eea;" 
d="M150 916l123 61l99 -194l-88 -43zM205 698v-442c0 -89 7 -147 95 -147s95 58 95 147v442h81v115h124v-103c0 -52 -12 -84 -55 -96v-338c0 -191 -42 -288 -245 -288s-245 97 -245 288v422h150z" />
    <glyph glyph-name="uni1EEC" unicode="&#x1eec;" 
d="M180 963h143c75 0 98 -34 98 -73s-24 -86 -57 -126l-28 -34l-75 35l41 92h-122v106zM205 698v-442c0 -89 7 -147 95 -147s95 58 95 147v442h81v115h124v-103c0 -52 -12 -84 -55 -96v-338c0 -191 -42 -288 -245 -288s-245 97 -245 288v422h150z" />
    <glyph glyph-name="uni1EEE" unicode="&#x1eee;" 
d="M350 762c-26 0 -45 9 -67 20c-25 12 -45 22 -67 22c-17 0 -32 -6 -49 -21l-51 62c22 37 54 66 102 66c26 0 45 -9 67 -20c25 -12 45 -22 67 -22c17 0 32 6 49 21l51 -62c-22 -37 -54 -66 -102 -66zM205 698v-442c0 -89 7 -147 95 -147s95 58 95 147v442h81v115h124v-103
c0 -52 -12 -84 -55 -96v-338c0 -191 -42 -288 -245 -288s-245 97 -245 288v422h150z" />
    <glyph glyph-name="Wacute" unicode="&#x1e82;" horiz-adv-x="900" 
d="M456 740l-88 43l99 194l123 -61zM151 0l-158 698h150l66 -335l37 -194h3l44 194l77 335h166l78 -335l43 -194h3l37 194l67 335h144l-162 -698h-173l-88 378l-34 153h-3l-35 -153l-88 -378h-174z" />
    <glyph glyph-name="Wcircumflex" unicode="&#x174;" horiz-adv-x="900" 
d="M509 956l132 -159l-75 -58l-121 115l-121 -115l-71 58l132 159h124zM151 0l-158 698h150l66 -335l37 -194h3l44 194l77 335h166l78 -335l43 -194h3l37 194l67 335h144l-162 -698h-173l-88 378l-34 153h-3l-35 -153l-88 -378h-174z" />
    <glyph glyph-name="Wdieresis" unicode="&#x1e84;" horiz-adv-x="900" 
d="M340 761c-59 0 -80 28 -80 63v26c0 35 21 62 80 62c60 0 81 -27 81 -62v-26c0 -35 -21 -63 -81 -63zM560 761c-60 0 -81 28 -81 63v26c0 35 21 62 81 62c59 0 80 -27 80 -62v-26c0 -35 -21 -63 -80 -63zM151 0l-158 698h150l66 -335l37 -194h3l44 194l77 335h166l78 -335
l43 -194h3l37 194l67 335h144l-162 -698h-173l-88 378l-34 153h-3l-35 -153l-88 -378h-174z" />
    <glyph glyph-name="Wgrave" unicode="&#x1e80;" horiz-adv-x="900" 
d="M280 916l123 61l99 -194l-88 -43zM151 0l-158 698h150l66 -335l37 -194h3l44 194l77 335h166l78 -335l43 -194h3l37 194l67 335h144l-162 -698h-173l-88 378l-34 153h-3l-35 -153l-88 -378h-174z" />
    <glyph glyph-name="Yacute" unicode="&#xdd;" 
d="M316 740l-88 43l99 194l123 -61zM225 0v247l-221 451h167l74 -162l54 -137h8l54 137l74 162h161l-221 -451v-247h-150z" />
    <glyph glyph-name="Ycircumflex" unicode="&#x176;" 
d="M362 956l132 -159l-75 -58l-121 115l-121 -115l-71 58l132 159h124zM225 0v247l-221 451h167l74 -162l54 -137h8l54 137l74 162h161l-221 -451v-247h-150z" />
    <glyph glyph-name="uni1EF4" unicode="&#x1ef4;" 
d="M300 -203c-59 0 -81 27 -81 62v26c0 36 22 63 81 63s81 -27 81 -63v-26c0 -35 -22 -62 -81 -62zM225 0v247l-221 451h167l74 -162l54 -137h8l54 137l74 162h161l-221 -451v-247h-150z" />
    <glyph glyph-name="Ydieresis" unicode="&#x178;" 
d="M190 761c-59 0 -80 28 -80 63v26c0 35 21 62 80 62c60 0 81 -27 81 -62v-26c0 -35 -21 -63 -81 -63zM410 761c-60 0 -81 28 -81 63v26c0 35 21 62 81 62c59 0 80 -27 80 -62v-26c0 -35 -21 -63 -80 -63zM225 0v247l-221 451h167l74 -162l54 -137h8l54 137l74 162h161
l-221 -451v-247h-150z" />
    <glyph glyph-name="Ygrave" unicode="&#x1ef2;" 
d="M150 916l123 61l99 -194l-88 -43zM225 0v247l-221 451h167l74 -162l54 -137h8l54 137l74 162h161l-221 -451v-247h-150z" />
    <glyph glyph-name="uni1EF6" unicode="&#x1ef6;" 
d="M180 963h143c75 0 98 -34 98 -73s-24 -86 -57 -126l-28 -34l-75 35l41 92h-122v106zM225 0v247l-221 451h167l74 -162l54 -137h8l54 137l74 162h161l-221 -451v-247h-150z" />
    <glyph glyph-name="uni1EF8" unicode="&#x1ef8;" 
d="M376 762c-30 0 -52 9 -77 20c-29 12 -52 22 -78 22c-23 0 -38 -8 -59 -25l-52 68c24 36 61 64 114 64c30 0 52 -9 77 -20c29 -12 52 -22 78 -22c23 0 38 8 59 25l52 -68c-24 -36 -61 -64 -114 -64zM225 0v247l-221 451h167l74 -162l54 -137h8l54 137l74 162h161
l-221 -451v-247h-150z" />
    <glyph glyph-name="Zacute" unicode="&#x179;" 
d="M316 740l-88 43l99 194l123 -61zM551 0h-503v131l325 444h-315v123h483v-131l-325 -444h335v-123z" />
    <glyph glyph-name="Zcaron" unicode="&#x17d;" 
d="M238 748l-132 159l75 58l121 -115l121 115l71 -58l-132 -159h-124zM551 0h-503v131l325 444h-315v123h483v-131l-325 -444h335v-123z" />
    <glyph glyph-name="Zdotaccent" unicode="&#x17b;" 
d="M300 752c-66 0 -89 31 -89 70v29c0 40 23 70 89 70s89 -30 89 -70v-29c0 -39 -23 -70 -89 -70zM551 0h-503v131l325 444h-315v123h483v-131l-325 -444h335v-123z" />
    <glyph glyph-name="uni00B5" unicode="&#xb5;" 
d="M65 -200v716h148v-304c0 -72 28 -110 85 -110c45 0 89 25 89 75v339h148v-516h-148v94h-6c-16 -54 -54 -106 -118 -106c-26 0 -51 9 -73 42h-6l29 -133v-97h-148z" />
    <glyph glyph-name="uni2206" unicode="&#x2206;" 
d="M36 127l158 571h212l158 -571v-127h-528v127zM303 556h-8l-104 -433h216z" />
    <glyph glyph-name="product" unicode="&#x220f;" 
d="M60 698h480v-698h-148v575h-184v-575h-148v698z" />
    <glyph glyph-name="summation" unicode="&#x2211;" 
d="M536 -200h-478v130l227 317v4l-227 317v130h478v-123h-313l199 -276v-100l-199 -276h313v-123z" />
    <glyph glyph-name="uni2126" unicode="&#x2126;" 
d="M27 105h143v10c-87 42 -138 130 -138 290c0 192 92 305 268 305s268 -113 268 -305c0 -160 -51 -248 -138 -290v-10h143v-105h-243v173c55 30 76 98 76 160v100c0 95 -32 151 -106 151s-106 -56 -106 -151v-100c0 -62 21 -130 76 -160v-173h-243v105z" />
    <glyph glyph-name="pi" unicode="&#x3c0;" 
d="M80 401h-60v115h555v-115h-60v-286h60v-115h-50c-107 0 -158 62 -158 149v252h-139v-401h-148v401z" />
    <glyph glyph-name="uni2070" unicode="&#x2070;" 
d="M300 323c-108 0 -160 70 -160 191c0 120 52 190 160 190s160 -70 160 -190c0 -121 -52 -191 -160 -191zM300 407c38 0 48 22 48 69v76c0 46 -10 68 -48 68s-48 -22 -48 -68v-76c0 -47 10 -69 48 -69zM300 485c-22 0 -29 11 -29 24v9c0 13 7 24 29 24s29 -11 29 -24v-9
c0 -13 -7 -24 -29 -24z" />
    <glyph glyph-name="uni00B9" unicode="&#xb9;" 
d="M188 329v79h93v198l-79 -36l-38 72l112 56h106v-290h81v-79h-275z" />
    <glyph glyph-name="uni00B2" unicode="&#xb2;" 
d="M450 329h-289v88l109 83c50 38 67 53 67 83v1c0 27 -24 34 -43 34c-33 0 -48 -21 -55 -45l-89 33c19 56 70 98 154 98c90 0 142 -48 142 -114c0 -68 -55 -112 -114 -145l-59 -33h177v-83z" />
    <glyph glyph-name="uni00B3" unicode="&#xb3;" 
d="M285 558c36 0 51 14 51 31v4c0 17 -16 32 -45 32c-28 0 -59 -15 -80 -43l-62 59c35 41 75 63 145 63c94 0 150 -41 150 -101c0 -46 -35 -76 -76 -81v-4c50 -8 82 -38 82 -85c0 -68 -64 -110 -157 -110c-86 0 -129 34 -155 75l76 58c15 -31 39 -54 79 -54
c31 0 50 14 50 36v2c0 26 -25 36 -61 36h-31v82h34z" />
    <glyph glyph-name="uni2074" unicode="&#x2074;" 
d="M307 329v70h-166v85l149 214h115v-223h46v-76h-46v-70h-98zM307 588h-7l-80 -113h87v113z" />
    <glyph glyph-name="uni2075" unicode="&#x2075;" 
d="M430 611h-183l-7 -102h5c14 41 32 69 86 69c68 0 124 -44 124 -119c0 -78 -56 -136 -160 -136c-82 0 -126 34 -150 75l74 58c16 -29 38 -54 76 -54c35 0 52 21 52 50v4c0 25 -19 42 -48 42c-28 0 -50 -15 -57 -23l-83 11l15 212h256v-87z" />
    <glyph glyph-name="uni2076" unicode="&#x2076;" 
d="M304 323c-100 0 -156 60 -156 149c0 101 72 181 142 226h143c-102 -69 -165 -119 -178 -181l6 -2c11 27 32 57 84 57c64 0 114 -45 114 -115c0 -78 -60 -134 -155 -134zM303 398c34 0 49 17 49 46v10c0 28 -17 44 -48 44s-50 -16 -50 -44v-10c0 -29 17 -46 49 -46z" />
    <glyph glyph-name="uni2077" unicode="&#x2077;" 
d="M229 329l124 289h-102v-67h-86v147h289v-86l-117 -283h-108z" />
    <glyph glyph-name="uni2078" unicode="&#x2078;" 
d="M300 323c-95 0 -152 45 -152 108c0 44 30 75 77 87v4c-37 13 -65 39 -65 82c0 57 49 100 140 100s140 -43 140 -100c0 -43 -28 -69 -65 -82v-4c47 -12 77 -43 77 -87c0 -63 -57 -108 -152 -108zM300 549c29 0 46 15 46 36v8c0 22 -17 37 -46 37s-46 -15 -46 -37v-8
c0 -21 17 -36 46 -36zM300 397c29 0 45 15 45 36v10c0 21 -15 36 -45 36s-45 -15 -45 -36v-10c0 -21 16 -36 45 -36z" />
    <glyph glyph-name="uni2079" unicode="&#x2079;" 
d="M455 555c0 -101 -72 -181 -142 -226h-143c102 69 165 119 178 181l-6 2c-12 -27 -32 -58 -84 -58c-64 0 -114 46 -114 116c0 78 60 134 155 134c100 0 156 -60 156 -149zM299 529c31 0 50 16 50 44v10c0 29 -17 46 -49 46c-34 0 -50 -17 -50 -46v-10c0 -28 18 -44 49 -44
z" />
    <glyph glyph-name="uni2080" unicode="&#x2080;" 
d="M300 -6c-108 0 -160 70 -160 191c0 120 52 190 160 190s160 -70 160 -190c0 -121 -52 -191 -160 -191zM300 78c38 0 48 22 48 69v76c0 46 -10 68 -48 68s-48 -22 -48 -68v-76c0 -47 10 -69 48 -69zM300 156c-22 0 -29 11 -29 24v9c0 13 7 24 29 24s29 -11 29 -24v-9
c0 -13 -7 -24 -29 -24z" />
    <glyph glyph-name="uni2081" unicode="&#x2081;" 
d="M188 0v79h93v198l-79 -36l-38 72l112 56h106v-290h81v-79h-275z" />
    <glyph glyph-name="uni2082" unicode="&#x2082;" 
d="M450 0h-289v88l109 83c50 38 67 53 67 83v1c0 27 -24 34 -43 34c-33 0 -48 -21 -55 -45l-89 33c19 56 70 98 154 98c90 0 142 -48 142 -114c0 -68 -55 -112 -114 -145l-59 -33h177v-83z" />
    <glyph glyph-name="uni2083" unicode="&#x2083;" 
d="M285 229c36 0 51 14 51 31v4c0 17 -16 32 -45 32c-28 0 -59 -15 -80 -43l-62 59c35 41 75 63 145 63c94 0 150 -41 150 -101c0 -46 -35 -76 -76 -81v-4c50 -8 82 -38 82 -85c0 -68 -64 -110 -157 -110c-86 0 -129 34 -155 75l76 58c15 -31 39 -54 79 -54
c31 0 50 14 50 36v2c0 26 -25 36 -61 36h-31v82h34z" />
    <glyph glyph-name="uni2084" unicode="&#x2084;" 
d="M307 0v70h-166v85l149 214h115v-223h46v-76h-46v-70h-98zM307 259h-7l-80 -113h87v113z" />
    <glyph glyph-name="uni2085" unicode="&#x2085;" 
d="M247 282l-7 -102h5c14 41 32 69 86 69c68 0 124 -44 124 -119c0 -78 -56 -136 -160 -136c-82 0 -126 34 -150 75l74 58c16 -29 38 -54 76 -54c35 0 52 21 52 50v4c0 25 -19 42 -48 42c-28 0 -50 -15 -57 -23l-83 11l15 212h256v-87h-183z" />
    <glyph glyph-name="uni2086" unicode="&#x2086;" 
d="M304 -6c-100 0 -156 60 -156 149c0 101 72 181 142 226h143c-102 -69 -165 -119 -178 -181l6 -2c11 27 32 57 84 57c64 0 114 -45 114 -115c0 -78 -60 -134 -155 -134zM303 69c34 0 49 17 49 46v10c0 28 -17 44 -48 44s-50 -16 -50 -44v-10c0 -29 17 -46 49 -46z" />
    <glyph glyph-name="uni2087" unicode="&#x2087;" 
d="M229 0l124 289h-102v-67h-86v147h289v-86l-117 -283h-108z" />
    <glyph glyph-name="uni2088" unicode="&#x2088;" 
d="M300 -6c-95 0 -152 45 -152 108c0 44 30 75 77 87v4c-37 13 -65 39 -65 82c0 57 49 100 140 100s140 -43 140 -100c0 -43 -28 -69 -65 -82v-4c47 -12 77 -43 77 -87c0 -63 -57 -108 -152 -108zM300 68c29 0 45 15 45 36v10c0 21 -15 36 -45 36s-45 -15 -45 -36v-10
c0 -21 16 -36 45 -36zM300 220c29 0 46 15 46 36v8c0 22 -17 37 -46 37s-46 -15 -46 -37v-8c0 -21 17 -36 46 -36z" />
    <glyph glyph-name="uni2089" unicode="&#x2089;" 
d="M455 226c0 -101 -72 -181 -142 -226h-143c102 69 165 119 178 181l-6 2c-12 -27 -32 -58 -84 -58c-64 0 -114 46 -114 116c0 78 60 134 155 134c100 0 156 -60 156 -149zM299 200c31 0 50 16 50 44v10c0 29 -17 46 -49 46c-34 0 -50 -17 -50 -46v-10c0 -28 18 -44 49 -44
z" />
    <glyph glyph-name="zero.numr" 
d="M300 357c-98 0 -144 64 -144 174c0 109 46 173 144 173s144 -64 144 -173c0 -110 -46 -174 -144 -174zM300 421c39 0 52 27 52 74v70c0 48 -13 75 -52 75s-52 -27 -52 -75v-70c0 -47 13 -74 52 -74zM300 502c-22 0 -29 11 -29 24v9c0 13 7 24 29 24s29 -11 29 -24v-9
c0 -13 -7 -24 -29 -24z" />
    <glyph glyph-name="one.numr" 
d="M186 432h85v194l-76 -39l-32 58l102 53h94v-266h75v-69h-248v69z" />
    <glyph glyph-name="two.numr" 
d="M171 438l106 80c46 35 58 52 58 81v2c0 22 -19 33 -42 33c-30 0 -48 -20 -58 -47l-73 28c15 44 52 89 135 89c82 0 131 -44 131 -102c0 -55 -44 -91 -105 -133l-54 -37h164v-69h-262v75z" />
    <glyph glyph-name="three.numr" 
d="M298 357c-76 0 -116 32 -138 66l63 42c14 -25 37 -42 73 -42c32 0 48 13 48 34v8c0 25 -25 38 -60 38h-27v63h31c37 0 52 15 52 34v8c0 17 -16 30 -43 30c-29 0 -58 -15 -78 -41l-52 50c32 36 66 57 130 57c84 0 135 -37 135 -91c0 -43 -33 -71 -71 -76v-4
c47 -7 77 -32 77 -76c0 -61 -56 -100 -140 -100z" />
    <glyph glyph-name="four.numr" 
d="M312 426h-151v74l131 198h104v-211h44v-61h-44v-63h-84v63zM312 487v126h-5l-84 -126h89z" />
    <glyph glyph-name="five.numr" 
d="M297 357c-74 0 -113 32 -134 68l63 42c14 -27 40 -44 72 -44c35 0 50 21 50 48v5c0 27 -18 44 -45 44c-25 0 -46 -15 -52 -23l-76 8l13 193h232v-69h-172l-8 -105h5c13 33 35 58 87 58c61 0 111 -36 111 -104c0 -69 -51 -121 -146 -121z" />
    <glyph glyph-name="six.numr" 
d="M302 357c-88 0 -138 54 -138 134c0 91 63 167 129 207h124c-96 -62 -157 -110 -169 -170l6 -2c10 21 34 54 86 54c57 0 102 -41 102 -104c0 -69 -54 -119 -140 -119zM305 419c34 0 47 19 47 46v10c0 27 -13 46 -47 46s-47 -19 -47 -46v-10c0 -27 13 -46 47 -46z" />
    <glyph glyph-name="seven.numr" 
d="M344 632h-99v-67h-73v133h261v-73l-108 -262h-95z" />
    <glyph glyph-name="eight.numr" 
d="M300 357c-85 0 -137 41 -137 97c0 44 32 69 73 79v4c-35 11 -63 35 -63 76c0 52 45 91 127 91s127 -39 127 -91c0 -41 -28 -65 -63 -76v-4c41 -10 73 -35 73 -79c0 -56 -52 -97 -137 -97zM300 560c28 0 45 16 45 38v8c0 21 -16 36 -45 36s-45 -15 -45 -36v-8
c0 -22 17 -38 45 -38zM300 419c30 0 46 16 46 38v8c0 21 -16 38 -46 38s-46 -17 -46 -38v-8c0 -22 16 -38 46 -38z" />
    <glyph glyph-name="nine.numr" 
d="M183 363c96 62 157 110 169 170l-6 2c-10 -21 -34 -54 -86 -54c-57 0 -102 41 -102 104c0 69 54 119 140 119c88 0 138 -54 138 -134c0 -91 -63 -167 -129 -207h-124zM295 540c34 0 47 19 47 46v10c0 27 -13 46 -47 46s-47 -19 -47 -46v-10c0 -27 13 -46 47 -46z" />
    <glyph glyph-name="zero.dnom" 
d="M300 -6c-98 0 -144 64 -144 174c0 109 46 173 144 173s144 -64 144 -173c0 -110 -46 -174 -144 -174zM300 58c39 0 52 27 52 74v70c0 48 -13 75 -52 75s-52 -27 -52 -75v-70c0 -47 13 -74 52 -74zM300 139c-22 0 -29 11 -29 24v9c0 13 7 24 29 24s29 -11 29 -24v-9
c0 -13 -7 -24 -29 -24z" />
    <glyph glyph-name="one.dnom" 
d="M186 69h85v194l-76 -39l-32 58l102 53h94v-266h75v-69h-248v69z" />
    <glyph glyph-name="two.dnom" 
d="M171 75l106 80c46 35 58 52 58 81v2c0 22 -19 33 -42 33c-30 0 -48 -20 -58 -47l-73 28c15 44 52 89 135 89c82 0 131 -44 131 -102c0 -55 -44 -91 -105 -133l-54 -37h164v-69h-262v75z" />
    <glyph glyph-name="three.dnom" 
d="M298 -6c-76 0 -116 32 -138 66l63 42c14 -25 37 -42 73 -42c32 0 48 13 48 34v8c0 25 -25 38 -60 38h-27v63h31c37 0 52 15 52 34v8c0 17 -16 30 -43 30c-29 0 -58 -15 -78 -41l-52 50c32 36 66 57 130 57c84 0 135 -37 135 -91c0 -43 -33 -71 -71 -76v-4
c47 -7 77 -32 77 -76c0 -61 -56 -100 -140 -100z" />
    <glyph glyph-name="four.dnom" 
d="M312 63h-151v74l131 198h104v-211h44v-61h-44v-63h-84v63zM312 124v126h-5l-84 -126h89z" />
    <glyph glyph-name="five.dnom" 
d="M297 -6c-74 0 -113 32 -134 68l63 42c14 -27 40 -44 72 -44c35 0 50 21 50 48v5c0 27 -18 44 -45 44c-25 0 -46 -15 -52 -23l-76 8l13 193h232v-69h-172l-8 -105h5c13 33 35 58 87 58c61 0 111 -36 111 -104c0 -69 -51 -121 -146 -121z" />
    <glyph glyph-name="six.dnom" 
d="M302 -6c-88 0 -138 54 -138 134c0 91 63 167 129 207h124c-96 -62 -157 -110 -169 -170l6 -2c10 21 34 54 86 54c57 0 102 -41 102 -104c0 -69 -54 -119 -140 -119zM305 56c34 0 47 19 47 46v10c0 27 -13 46 -47 46s-47 -19 -47 -46v-10c0 -27 13 -46 47 -46z" />
    <glyph glyph-name="seven.dnom" 
d="M344 269h-99v-67h-73v133h261v-73l-108 -262h-95z" />
    <glyph glyph-name="eight.dnom" 
d="M300 -6c-85 0 -137 41 -137 97c0 44 32 69 73 79v4c-35 11 -63 35 -63 76c0 52 45 91 127 91s127 -39 127 -91c0 -41 -28 -65 -63 -76v-4c41 -10 73 -35 73 -79c0 -56 -52 -97 -137 -97zM300 197c28 0 45 16 45 38v8c0 21 -16 36 -45 36s-45 -15 -45 -36v-8
c0 -22 17 -38 45 -38zM300 56c30 0 46 16 46 38v8c0 21 -16 38 -46 38s-46 -17 -46 -38v-8c0 -22 16 -38 46 -38z" />
    <glyph glyph-name="nine.dnom" 
d="M183 0c96 62 157 110 169 170l-6 2c-10 -21 -34 -54 -86 -54c-57 0 -102 41 -102 104c0 69 54 119 140 119c88 0 138 -54 138 -134c0 -91 -63 -167 -129 -207h-124zM295 177c34 0 47 19 47 46v10c0 27 -13 46 -47 46s-47 -19 -47 -46v-10c0 -27 13 -46 47 -46z" />
    <glyph glyph-name="onehalf" unicode="&#xbd;" 
d="M321 75l106 80c46 35 58 52 58 81v2c0 22 -19 33 -42 33c-30 0 -48 -20 -58 -47l-73 28c15 44 52 89 135 89c82 0 131 -44 131 -102c0 -55 -44 -91 -105 -133l-54 -37h164v-69h-262v75zM496 698h103l-173 -300h-103zM174 300h103l-173 -300h-103zM36 432h85v194l-76 -39
l-32 58l102 53h94v-266h75v-69h-248v69z" />
    <glyph glyph-name="uni2153" unicode="&#x2153;" 
d="M448 -6c-76 0 -116 32 -138 66l63 42c14 -25 37 -42 73 -42c32 0 48 13 48 34v8c0 25 -25 38 -60 38h-27v63h31c37 0 52 15 52 34v8c0 17 -16 30 -43 30c-29 0 -58 -15 -78 -41l-52 50c32 36 66 57 130 57c84 0 135 -37 135 -91c0 -43 -33 -71 -71 -76v-4
c47 -7 77 -32 77 -76c0 -61 -56 -100 -140 -100zM496 698h103l-173 -300h-103zM174 300h103l-173 -300h-103zM36 432h85v194l-76 -39l-32 58l102 53h94v-266h75v-69h-248v69z" />
    <glyph glyph-name="uni2154" unicode="&#x2154;" 
d="M448 -6c-76 0 -116 32 -138 66l63 42c14 -25 37 -42 73 -42c32 0 48 13 48 34v8c0 25 -25 38 -60 38h-27v63h31c37 0 52 15 52 34v8c0 17 -16 30 -43 30c-29 0 -58 -15 -78 -41l-52 50c32 36 66 57 130 57c84 0 135 -37 135 -91c0 -43 -33 -71 -71 -76v-4
c47 -7 77 -32 77 -76c0 -61 -56 -100 -140 -100zM496 698h103l-173 -300h-103zM174 300h103l-173 -300h-103zM21 438l106 80c46 35 58 52 58 81v2c0 22 -19 33 -42 33c-30 0 -48 -20 -58 -47l-73 28c15 44 52 89 135 89c82 0 131 -44 131 -102c0 -55 -44 -91 -105 -133
l-54 -37h164v-69h-262v75z" />
    <glyph glyph-name="onequarter" unicode="&#xbc;" 
d="M462 63h-151v74l131 198h104v-211h44v-61h-44v-63h-84v63zM462 124v126h-5l-84 -126h89zM496 698h103l-173 -300h-103zM174 300h103l-173 -300h-103zM36 432h85v194l-76 -39l-32 58l102 53h94v-266h75v-69h-248v69z" />
    <glyph glyph-name="threequarters" unicode="&#xbe;" 
d="M462 63h-151v74l131 198h104v-211h44v-61h-44v-63h-84v63zM462 124v126h-5l-84 -126h89zM496 698h103l-173 -300h-103zM174 300h103l-173 -300h-103zM148 357c-76 0 -116 32 -138 66l63 42c14 -25 37 -42 73 -42c32 0 48 13 48 34v8c0 25 -25 38 -60 38h-27v63h31
c37 0 52 15 52 34v8c0 17 -16 30 -43 30c-29 0 -58 -15 -78 -41l-52 50c32 36 66 57 130 57c84 0 135 -37 135 -91c0 -43 -33 -71 -71 -76v-4c47 -7 77 -32 77 -76c0 -61 -56 -100 -140 -100z" />
    <glyph glyph-name="uni2155" unicode="&#x2155;" 
d="M447 -6c-74 0 -113 32 -134 68l63 42c14 -27 40 -44 72 -44c35 0 50 21 50 48v5c0 27 -18 44 -45 44c-25 0 -46 -15 -52 -23l-76 8l13 193h232v-69h-172l-8 -105h5c13 33 35 58 87 58c61 0 111 -36 111 -104c0 -69 -51 -121 -146 -121zM496 698h103l-173 -300h-103z
M174 300h103l-173 -300h-103zM36 432h85v194l-76 -39l-32 58l102 53h94v-266h75v-69h-248v69z" />
    <glyph glyph-name="uni2156" unicode="&#x2156;" 
d="M447 -6c-74 0 -113 32 -134 68l63 42c14 -27 40 -44 72 -44c35 0 50 21 50 48v5c0 27 -18 44 -45 44c-25 0 -46 -15 -52 -23l-76 8l13 193h232v-69h-172l-8 -105h5c13 33 35 58 87 58c61 0 111 -36 111 -104c0 -69 -51 -121 -146 -121zM496 698h103l-173 -300h-103z
M174 300h103l-173 -300h-103zM21 438l106 80c46 35 58 52 58 81v2c0 22 -19 33 -42 33c-30 0 -48 -20 -58 -47l-73 28c15 44 52 89 135 89c82 0 131 -44 131 -102c0 -55 -44 -91 -105 -133l-54 -37h164v-69h-262v75z" />
    <glyph glyph-name="uni2157" unicode="&#x2157;" 
d="M447 -6c-74 0 -113 32 -134 68l63 42c14 -27 40 -44 72 -44c35 0 50 21 50 48v5c0 27 -18 44 -45 44c-25 0 -46 -15 -52 -23l-76 8l13 193h232v-69h-172l-8 -105h5c13 33 35 58 87 58c61 0 111 -36 111 -104c0 -69 -51 -121 -146 -121zM496 698h103l-173 -300h-103z
M174 300h103l-173 -300h-103zM148 357c-76 0 -116 32 -138 66l63 42c14 -25 37 -42 73 -42c32 0 48 13 48 34v8c0 25 -25 38 -60 38h-27v63h31c37 0 52 15 52 34v8c0 17 -16 30 -43 30c-29 0 -58 -15 -78 -41l-52 50c32 36 66 57 130 57c84 0 135 -37 135 -91
c0 -43 -33 -71 -71 -76v-4c47 -7 77 -32 77 -76c0 -61 -56 -100 -140 -100z" />
    <glyph glyph-name="uni2158" unicode="&#x2158;" 
d="M447 -6c-74 0 -113 32 -134 68l63 42c14 -27 40 -44 72 -44c35 0 50 21 50 48v5c0 27 -18 44 -45 44c-25 0 -46 -15 -52 -23l-76 8l13 193h232v-69h-172l-8 -105h5c13 33 35 58 87 58c61 0 111 -36 111 -104c0 -69 -51 -121 -146 -121zM496 698h103l-173 -300h-103z
M174 300h103l-173 -300h-103zM162 426h-151v74l131 198h104v-211h44v-61h-44v-63h-84v63zM162 487v126h-5l-84 -126h89z" />
    <glyph glyph-name="uni2159" unicode="&#x2159;" 
d="M452 -6c-88 0 -138 54 -138 134c0 91 63 167 129 207h124c-96 -62 -157 -110 -169 -170l6 -2c10 21 34 54 86 54c57 0 102 -41 102 -104c0 -69 -54 -119 -140 -119zM455 56c34 0 47 19 47 46v10c0 27 -13 46 -47 46s-47 -19 -47 -46v-10c0 -27 13 -46 47 -46zM496 698
h103l-173 -300h-103zM174 300h103l-173 -300h-103zM36 432h85v194l-76 -39l-32 58l102 53h94v-266h75v-69h-248v69z" />
    <glyph glyph-name="uni215A" unicode="&#x215a;" 
d="M452 -6c-88 0 -138 54 -138 134c0 91 63 167 129 207h124c-96 -62 -157 -110 -169 -170l6 -2c10 21 34 54 86 54c57 0 102 -41 102 -104c0 -69 -54 -119 -140 -119zM455 56c34 0 47 19 47 46v10c0 27 -13 46 -47 46s-47 -19 -47 -46v-10c0 -27 13 -46 47 -46zM496 698
h103l-173 -300h-103zM174 300h103l-173 -300h-103zM147 357c-74 0 -113 32 -134 68l63 42c14 -27 40 -44 72 -44c35 0 50 21 50 48v5c0 27 -18 44 -45 44c-25 0 -46 -15 -52 -23l-76 8l13 193h232v-69h-172l-8 -105h5c13 33 35 58 87 58c61 0 111 -36 111 -104
c0 -69 -51 -121 -146 -121z" />
    <glyph glyph-name="uni2150" unicode="&#x2150;" 
d="M494 269h-99v-67h-73v133h261v-73l-108 -262h-95zM496 698h103l-173 -300h-103zM174 300h103l-173 -300h-103zM36 432h85v194l-76 -39l-32 58l102 53h94v-266h75v-69h-248v69z" />
    <glyph glyph-name="uni215B" unicode="&#x215b;" 
d="M450 -6c-85 0 -137 41 -137 97c0 44 32 69 73 79v4c-35 11 -63 35 -63 76c0 52 45 91 127 91s127 -39 127 -91c0 -41 -28 -65 -63 -76v-4c41 -10 73 -35 73 -79c0 -56 -52 -97 -137 -97zM450 197c28 0 45 16 45 38v8c0 21 -16 36 -45 36s-45 -15 -45 -36v-8
c0 -22 17 -38 45 -38zM450 56c30 0 46 16 46 38v8c0 21 -16 38 -46 38s-46 -17 -46 -38v-8c0 -22 16 -38 46 -38zM496 698h103l-173 -300h-103zM174 300h103l-173 -300h-103zM36 432h85v194l-76 -39l-32 58l102 53h94v-266h75v-69h-248v69z" />
    <glyph glyph-name="uni215C" unicode="&#x215c;" 
d="M450 -6c-85 0 -137 41 -137 97c0 44 32 69 73 79v4c-35 11 -63 35 -63 76c0 52 45 91 127 91s127 -39 127 -91c0 -41 -28 -65 -63 -76v-4c41 -10 73 -35 73 -79c0 -56 -52 -97 -137 -97zM450 197c28 0 45 16 45 38v8c0 21 -16 36 -45 36s-45 -15 -45 -36v-8
c0 -22 17 -38 45 -38zM450 56c30 0 46 16 46 38v8c0 21 -16 38 -46 38s-46 -17 -46 -38v-8c0 -22 16 -38 46 -38zM496 698h103l-173 -300h-103zM174 300h103l-173 -300h-103zM148 357c-76 0 -116 32 -138 66l63 42c14 -25 37 -42 73 -42c32 0 48 13 48 34v8
c0 25 -25 38 -60 38h-27v63h31c37 0 52 15 52 34v8c0 17 -16 30 -43 30c-29 0 -58 -15 -78 -41l-52 50c32 36 66 57 130 57c84 0 135 -37 135 -91c0 -43 -33 -71 -71 -76v-4c47 -7 77 -32 77 -76c0 -61 -56 -100 -140 -100z" />
    <glyph glyph-name="uni215D" unicode="&#x215d;" 
d="M450 -6c-85 0 -137 41 -137 97c0 44 32 69 73 79v4c-35 11 -63 35 -63 76c0 52 45 91 127 91s127 -39 127 -91c0 -41 -28 -65 -63 -76v-4c41 -10 73 -35 73 -79c0 -56 -52 -97 -137 -97zM450 197c28 0 45 16 45 38v8c0 21 -16 36 -45 36s-45 -15 -45 -36v-8
c0 -22 17 -38 45 -38zM450 56c30 0 46 16 46 38v8c0 21 -16 38 -46 38s-46 -17 -46 -38v-8c0 -22 16 -38 46 -38zM496 698h103l-173 -300h-103zM174 300h103l-173 -300h-103zM147 357c-74 0 -113 32 -134 68l63 42c14 -27 40 -44 72 -44c35 0 50 21 50 48v5
c0 27 -18 44 -45 44c-25 0 -46 -15 -52 -23l-76 8l13 193h232v-69h-172l-8 -105h5c13 33 35 58 87 58c61 0 111 -36 111 -104c0 -69 -51 -121 -146 -121z" />
    <glyph glyph-name="uni215E" unicode="&#x215e;" 
d="M450 -6c-85 0 -137 41 -137 97c0 44 32 69 73 79v4c-35 11 -63 35 -63 76c0 52 45 91 127 91s127 -39 127 -91c0 -41 -28 -65 -63 -76v-4c41 -10 73 -35 73 -79c0 -56 -52 -97 -137 -97zM450 197c28 0 45 16 45 38v8c0 21 -16 36 -45 36s-45 -15 -45 -36v-8
c0 -22 17 -38 45 -38zM450 56c30 0 46 16 46 38v8c0 21 -16 38 -46 38s-46 -17 -46 -38v-8c0 -22 16 -38 46 -38zM496 698h103l-173 -300h-103zM174 300h103l-173 -300h-103zM194 632h-99v-67h-73v133h261v-73l-108 -262h-95z" />
    <glyph glyph-name="uni2151" unicode="&#x2151;" 
d="M333 0c96 62 157 110 169 170l-6 2c-10 -21 -34 -54 -86 -54c-57 0 -102 41 -102 104c0 69 54 119 140 119c88 0 138 -54 138 -134c0 -91 -63 -167 -129 -207h-124zM445 177c34 0 47 19 47 46v10c0 27 -13 46 -47 46s-47 -19 -47 -46v-10c0 -27 13 -46 47 -46zM496 698
h103l-173 -300h-103zM174 300h103l-173 -300h-103zM36 432h85v194l-76 -39l-32 58l102 53h94v-266h75v-69h-248v69z" />
    <glyph glyph-name="uni2713" unicode="&#x2713;" 
d="M0 486l135 37l61 -186l52 -176h8l59 177l156 392l129 -44l-269 -686h-164z" />
    <glyph glyph-name="uni274C" unicode="&#x274c;" 
d="M10 46l210 305l-210 300l111 70l180 -260l178 260l111 -69l-210 -305l210 -300l-111 -70l-180 260l-178 -260z" />
    <glyph glyph-name="arrowleft" unicode="&#x2190;" 
d="M247 588l80 -80l-60 -60l-44 -38l1 -4l80 4h268v-122h-268l-80 4l-1 -4l44 -38l60 -60l-80 -80l-239 239z" />
    <glyph glyph-name="arrowup" unicode="&#x2191;" 
d="M539 471l-80 -80l-60 60l-38 44l-4 -1l4 -80v-414h-122v414l4 80l-4 1l-38 -44l-60 -60l-80 80l239 239z" />
    <glyph glyph-name="arrowdown" unicode="&#x2193;" 
d="M61 227l80 80l60 -60l38 -44l4 1l-4 80v414h122v-414l-4 -80l4 -1l38 44l60 60l80 -80l-239 -239z" />
    <glyph glyph-name="arrowright" unicode="&#x2192;" 
d="M353 110l-80 80l60 60l44 38l-1 4l-80 -4h-268v122h268l80 -4l1 4l-44 38l-60 60l80 80l239 -239z" />
    <glyph glyph-name="uni2196" unicode="&#x2196;" 
d="M380 622v-113h-85l-58 4l-2 -3l59 -54l289 -289l-86 -86l-289 289l-54 59l-3 -2l4 -58v-85h-113v338h338z" />
    <glyph glyph-name="uni2197" unicode="&#x2197;" 
d="M558 284h-113v85l4 58l-3 2l-54 -59l-289 -289l-86 86l289 289l59 54l-2 3l-58 -4h-85v113h338v-338z" />
    <glyph glyph-name="uni2199" unicode="&#x2199;" 
d="M42 419h113v-85l-4 -58l3 -2l54 59l289 289l86 -86l-289 -289l-59 -54l2 -3l58 4h85v-113h-338v338z" />
    <glyph glyph-name="uni2198" unicode="&#x2198;" 
d="M220 81v113h85l58 -4l2 3l-59 54l-289 289l86 86l289 -289l54 -59l3 2l-4 58v85h113v-338h-338z" />
    <glyph glyph-name="uni21B0" unicode="&#x21b0;" 
d="M263 698l80 -80l-60 -60l-44 -38l1 -4l80 4h227v-520h-122v398h-105l-80 4l-1 -4l44 -38l60 -60l-80 -80l-239 239z" />
    <glyph glyph-name="uni21B2" unicode="&#x21b2;" 
d="M263 478l80 -80l-60 -60l-44 -38l1 -4l80 4h105v398h122v-520h-227l-80 4l-1 -4l44 -38l60 -60l-80 -80l-239 239z" />
    <glyph glyph-name="uni2B11" unicode="&#x2b11;" 
d="M485 398l-80 -80l-60 60l-38 44l-4 -1l4 -81v-114h263v-122h-385v236l4 81l-4 1l-38 -44l-60 -60l-80 80l239 239z" />
    <glyph glyph-name="uni2B0F" unicode="&#x2b0f;" 
d="M593 398l-80 -80l-60 60l-38 44l-4 -1l4 -81v-236h-385v122h263v114l4 81l-4 1l-38 -44l-60 -60l-80 80l239 239z" />
    <glyph glyph-name="uni2B10" unicode="&#x2b10;" 
d="M7 312l80 80l60 -60l38 -44l4 1l-4 81v236h385v-122h-263v-114l-4 -81l4 -1l38 44l60 60l80 -80l-239 -239z" />
    <glyph glyph-name="uni2B0E" unicode="&#x2b0e;" 
d="M115 312l80 80l60 -60l38 -44l4 1l-4 81v114h-263v122h385v-236l-4 -81l4 -1l38 44l60 60l80 -80l-239 -239z" />
    <glyph glyph-name="uni21B1" unicode="&#x21b1;" 
d="M338 220l-80 80l60 60l44 38l-1 4l-80 -4h-105v-398h-122v520h227l80 -4l1 4l-44 38l-60 60l80 80l239 -239z" />
    <glyph glyph-name="uni21B3" unicode="&#x21b3;" 
d="M338 0l-80 80l60 60l44 38l-1 4l-80 -4h-227v520h122v-398h105l80 -4l1 4l-44 38l-60 60l80 80l239 -239z" />
    <glyph glyph-name="uni21C6" unicode="&#x21c6;" 
d="M353 -100l-80 80l60 60l44 38l-1 4l-80 -4h-268v122h268l80 -4l1 4l-44 38l-60 60l80 80l239 -239zM247 798l80 -80l-60 -60l-44 -38l1 -4l80 4h268v-122h-268l-80 4l-1 -4l44 -38l60 -60l-80 -80l-239 239z" />
    <glyph glyph-name="uni21C4" unicode="&#x21c4;" 
d="M247 378l80 -80l-60 -60l-44 -38l1 -4l80 4h268v-122h-268l-80 4l-1 -4l44 -38l60 -60l-80 -80l-239 239zM353 320l-80 80l60 60l44 38l-1 4l-80 -4h-268v122h268l80 -4l1 4l-44 38l-60 60l80 80l239 -239z" />
    <glyph glyph-name="arrowboth" unicode="&#x2194;" 
d="M209 558l80 -80l-30 -30l-44 -38l1 -4l80 4h8l80 -4l1 4l-44 38l-30 30l80 80l209 -209l-209 -209l-80 80l30 30l44 38l-1 4l-80 -4h-8l-80 4l-1 -4l44 -38l30 -30l-80 -80l-209 209z" />
    <glyph glyph-name="arrowupdn" unicode="&#x2195;" 
d="M61 227l80 80l60 -60l38 -44l4 1l-4 80v130l4 80l-4 1l-38 -44l-60 -60l-80 80l239 239l239 -239l-80 -80l-60 60l-38 44l-4 -1l4 -80v-130l-4 -80l4 -1l38 44l60 60l80 -80l-239 -239z" />
    <glyph glyph-name="uni21B6" unicode="&#x21b6;" 
d="M5 276l80 80l60 -60l38 -44l4 1l-4 81v118c0 125 68 217 200 217c120 0 203 -88 203 -212v-29h-122v29c0 60 -30 99 -81 99c-48 0 -78 -38 -78 -112v-110l-4 -81l4 -1l38 44l60 60l80 -80l-239 -239z" />
    <glyph glyph-name="uni21B7" unicode="&#x21b7;" 
d="M117 276l80 80l60 -60l38 -44l4 1l-4 81v110c0 74 -30 112 -78 112c-51 0 -81 -39 -81 -99v-29h-122v29c0 124 83 212 203 212c132 0 200 -92 200 -217v-118l-4 -81l4 -1l38 44l60 60l80 -80l-239 -239z" />
    <glyph glyph-name="uni21A9" unicode="&#x21a9;" 
d="M239 537l80 -80l-60 -60l-44 -38l1 -4l80 4h72c49 0 93 24 93 83s-44 83 -93 83v114c124 0 232 -68 232 -201s-108 -201 -232 -201h-72l-80 4l-1 -4l44 -38l60 -60l-80 -80l-239 239z" />
    <glyph glyph-name="uni21AA" unicode="&#x21aa;" 
d="M361 59l-80 80l60 60l44 38l-1 4l-80 -4h-72c-124 0 -232 68 -232 201s108 201 232 201v-114c-49 0 -93 -24 -93 -83s44 -83 93 -83h72l80 -4l1 4l-44 38l-60 60l80 80l239 -239z" />
    <glyph glyph-name="uni21BA" unicode="&#x21ba;" 
d="M577 698v-112h-80l-58 11l-2 -4l15 -13c73 -64 125 -135 125 -276c0 -201 -113 -316 -276 -316c-167 0 -278 119 -278 306c0 110 38 197 120 273l84 -70c-56 -53 -82 -119 -82 -203c0 -122 71 -193 156 -193c91 0 154 69 154 203c0 81 -23 142 -80 199l-15 15l-4 -2
l6 -61v-84h-112v327h327z" />
    <glyph glyph-name="uni21BB" unicode="&#x21bb;" 
d="M350 371h-112v84l6 61l-4 2l-15 -15c-57 -57 -80 -118 -80 -199c0 -134 63 -203 154 -203c85 0 156 71 156 193c0 84 -26 150 -82 203l84 70c82 -76 120 -163 120 -273c0 -187 -111 -306 -278 -306c-163 0 -276 115 -276 316c0 141 52 212 125 276l15 13l-2 4l-58 -11
h-80v112h327v-327z" />
    <glyph glyph-name="tilde" unicode="&#x2dc;" 
d="M376 592c-30 0 -52 9 -77 20c-29 12 -52 22 -78 22c-23 0 -38 -8 -59 -25l-52 68c24 36 61 64 114 64c30 0 52 -9 77 -20c29 -12 52 -22 78 -22c23 0 38 8 59 25l52 -68c-24 -36 -61 -64 -114 -64z" />
    <glyph glyph-name="tilde.alt01" 
d="M354 592c-26 0 -45 9 -67 20c-25 12 -45 22 -67 22c-17 0 -32 -6 -49 -21l-51 62c22 37 54 66 102 66c26 0 45 -9 67 -20c25 -12 45 -22 67 -22c17 0 32 6 49 21l51 -62c-22 -37 -54 -66 -102 -66z" />
    <glyph glyph-name="macron" unicode="&#xaf;" 
d="M147 718h306v-103h-306v103z" />
    <glyph glyph-name="dotaccent" unicode="&#x2d9;" 
d="M300 582c-66 0 -89 31 -89 70v29c0 40 23 70 89 70s89 -30 89 -70v-29c0 -39 -23 -70 -89 -70z" />
    <glyph glyph-name="dieresis" unicode="&#xa8;" 
d="M190 591c-59 0 -80 28 -80 63v26c0 35 21 62 80 62c60 0 81 -27 81 -62v-26c0 -35 -21 -63 -81 -63zM410 591c-60 0 -81 28 -81 63v26c0 35 21 62 81 62c59 0 80 -27 80 -62v-26c0 -35 -21 -63 -80 -63z" />
    <glyph glyph-name="hungarumlaut" unicode="&#x2dd;" 
d="M210 570l-81 39l99 194l116 -57zM415 570l-81 39l99 194l116 -57z" />
    <glyph glyph-name="acute" unicode="&#xb4;" 
d="M316 570l-88 43l99 194l123 -61z" />
    <glyph glyph-name="grave" unicode="`" 
d="M150 746l123 61l99 -194l-88 -43z" />
    <glyph glyph-name="circumflex" unicode="&#x2c6;" 
d="M362 786l132 -159l-75 -58l-121 115l-121 -115l-71 58l132 159h124z" />
    <glyph glyph-name="caron" unicode="&#x2c7;" 
d="M238 578l-132 159l75 58l121 -115l121 115l71 -58l-132 -159h-124z" />
    <glyph glyph-name="breve" unicode="&#x2d8;" 
d="M300 570c-120 0 -169 98 -194 170l83 42l21 -32c31 -48 51 -77 90 -77s59 29 90 77l21 32l83 -42c-25 -72 -74 -170 -194 -170z" />
    <glyph glyph-name="ring" unicode="&#x2da;" 
d="M300 549c-83 0 -148 60 -148 143c0 82 65 143 148 143s148 -60 148 -143c0 -82 -65 -143 -148 -143zM300 624c33 0 51 20 51 51v34c0 32 -18 51 -51 51s-51 -20 -51 -51v-34c0 -32 18 -51 51 -51z" />
    <glyph glyph-name="ringacute" 
d="M293 806l-53 57l129 117l74 -81zM300 555c-85 0 -152 44 -152 120c0 75 67 120 152 120s152 -44 152 -120c0 -75 -67 -120 -152 -120zM300 625c36 0 55 14 55 45v10c0 32 -19 45 -55 45s-55 -14 -55 -45v-10c0 -32 19 -45 55 -45z" />
    <glyph glyph-name="uni02BB" unicode="&#x2bb;" 
d="M308 794h88l-18 -215h-157z" />
    <glyph glyph-name="uni02BC" unicode="&#x2bc;" 
d="M234 525h-97l6 215h157z" />
    <glyph glyph-name="cedilla" unicode="&#xb8;" 
d="M314 -212c-69 0 -107 24 -124 44l46 56c13 -16 35 -29 66 -29c25 0 44 8 44 25c0 15 -13 34 -75 40l-21 2l22 104h67l-18 -85l4 -4c16 4 32 7 48 7c40 0 73 -20 73 -69c0 -68 -64 -91 -132 -91z" />
    <glyph glyph-name="ogonek" unicode="&#x2db;" 
d="M210 -212c-66 0 -124 21 -124 85c0 56 45 89 119 123l-5 16l90 10l10 -22c-98 -60 -114 -81 -114 -105c0 -25 18 -33 38 -33c24 0 41 12 55 28l53 -51c-17 -32 -59 -51 -122 -51z" />
    <glyph glyph-name="uni0303" unicode="&#x303;" horiz-adv-x="0" 
d="M76 592c-30 0 -52 9 -77 20c-29 12 -52 22 -78 22c-23 0 -38 -8 -59 -25l-52 68c24 36 61 64 114 64c30 0 52 -9 77 -20c29 -12 52 -22 78 -22c23 0 38 8 59 25l52 -68c-24 -36 -61 -64 -114 -64z" />
    <glyph glyph-name="uni0304" unicode="&#x304;" horiz-adv-x="0" 
d="M-153 718h306v-103h-306v103z" />
    <glyph glyph-name="uni0307" unicode="&#x307;" horiz-adv-x="0" 
d="M0 582c-66 0 -89 31 -89 70v29c0 40 23 70 89 70s89 -30 89 -70v-29c0 -39 -23 -70 -89 -70z" />
    <glyph glyph-name="uni0308" unicode="&#x308;" horiz-adv-x="0" 
d="M-110 591c-59 0 -80 28 -80 63v26c0 35 21 62 80 62c60 0 81 -27 81 -62v-26c0 -35 -21 -63 -81 -63zM110 591c-60 0 -81 28 -81 63v26c0 35 21 62 81 62c59 0 80 -27 80 -62v-26c0 -35 -21 -63 -80 -63z" />
    <glyph glyph-name="uni030B" unicode="&#x30b;" horiz-adv-x="0" 
d="M-90 570l-81 39l99 194l116 -57zM115 570l-81 39l99 194l116 -57z" />
    <glyph glyph-name="uni0301" unicode="&#x301;" horiz-adv-x="0" 
d="M16 570l-88 43l99 194l123 -61z" />
    <glyph glyph-name="uni0300" unicode="&#x300;" horiz-adv-x="0" 
d="M-150 746l123 61l99 -194l-88 -43z" />
    <glyph glyph-name="uni0302" unicode="&#x302;" horiz-adv-x="0" 
d="M62 786l132 -159l-75 -58l-121 115l-121 -115l-71 58l132 159h124z" />
    <glyph glyph-name="uni030C" unicode="&#x30c;" horiz-adv-x="0" 
d="M-62 578l-132 159l75 58l121 -115l121 115l71 -58l-132 -159h-124z" />
    <glyph glyph-name="uni0306" unicode="&#x306;" horiz-adv-x="0" 
d="M0 570c-120 0 -169 98 -194 170l83 42l21 -32c31 -48 51 -77 90 -77s59 29 90 77l21 32l83 -42c-25 -72 -74 -170 -194 -170z" />
    <glyph glyph-name="uni030A" unicode="&#x30a;" horiz-adv-x="0" 
d="M0 549c-83 0 -148 60 -148 143c0 82 65 143 148 143s148 -60 148 -143c0 -82 -65 -143 -148 -143zM0 624c33 0 51 20 51 51v34c0 32 -18 51 -51 51s-51 -20 -51 -51v-34c0 -32 18 -51 51 -51z" />
    <glyph glyph-name="uni0309" unicode="&#x309;" horiz-adv-x="0" 
d="M-120 793h143c75 0 98 -34 98 -73s-24 -86 -57 -126l-28 -34l-75 35l41 92h-122v106z" />
    <glyph glyph-name="uni0312" unicode="&#x312;" horiz-adv-x="0" 
d="M8 794h88l-18 -215h-157z" />
    <glyph glyph-name="uni0315" unicode="&#x315;" horiz-adv-x="0" 
d="M97 525h-97l6 215h157z" />
    <glyph glyph-name="uni031B" unicode="&#x31b;" horiz-adv-x="0" 
d="M125 528c0 -67 -20 -101 -100 -101h-150v89h126v115h124v-103z" />
    <glyph glyph-name="uni0327" unicode="&#x327;" horiz-adv-x="0" 
d="M14 -212c-69 0 -107 24 -124 44l46 56c13 -16 35 -29 66 -29c25 0 44 8 44 25c0 15 -13 34 -75 40l-21 2l22 104h67l-18 -85l4 -4c16 4 32 7 48 7c40 0 73 -20 73 -69c0 -68 -64 -91 -132 -91z" />
    <glyph glyph-name="uni0323" unicode="&#x323;" horiz-adv-x="0" 
d="M0 -203c-59 0 -81 27 -81 62v26c0 36 22 63 81 63s81 -27 81 -63v-26c0 -35 -22 -62 -81 -62z" />
    <glyph glyph-name="uni0326" unicode="&#x326;" horiz-adv-x="0" 
d="M-78 -54h157l-87 -215h-88z" />
    <glyph glyph-name="uni0328" unicode="&#x328;" horiz-adv-x="0" 
d="M-90 -212c-66 0 -124 21 -124 85c0 56 45 89 119 123l-5 16l90 10l10 -22c-98 -60 -114 -81 -114 -105c0 -25 18 -33 38 -33c24 0 41 12 55 28l53 -51c-17 -32 -59 -51 -122 -51z" />
    <glyph glyph-name="uni03060301" horiz-adv-x="0" 
d="M0 563c-122 0 -176 81 -202 149l75 47l21 -28c39 -52 64 -67 106 -67s67 15 106 67l21 28l75 -47c-26 -68 -80 -149 -202 -149zM19 724l-79 39l99 194l114 -57z" />
    <glyph glyph-name="uni03060300" horiz-adv-x="0" 
d="M0 563c-122 0 -176 81 -202 149l75 47l21 -28c39 -52 64 -67 106 -67s67 15 106 67l21 28l75 -47c-26 -68 -80 -149 -202 -149zM-153 900l114 57l99 -194l-79 -39z" />
    <glyph glyph-name="uni03060309" horiz-adv-x="0" 
d="M0 563c-122 0 -176 81 -202 149l75 47l21 -28c39 -52 64 -67 106 -67s67 15 106 67l21 28l75 -47c-26 -68 -80 -149 -202 -149zM-130 943h136c75 0 98 -34 98 -72c0 -40 -29 -86 -62 -127l-27 -33l-66 32l43 99h-122v101z" />
    <glyph glyph-name="uni03060303" horiz-adv-x="0" 
d="M0 563c-122 0 -176 81 -202 149l75 47l21 -28c39 -52 64 -67 106 -67s67 15 106 67l21 28l75 -47c-26 -68 -80 -149 -202 -149zM75 778c-30 0 -52 9 -77 20c-29 12 -52 22 -78 22c-23 0 -38 -8 -59 -25l-50 64c24 36 61 64 114 64c30 0 52 -9 77 -20
c29 -12 52 -22 78 -22c23 0 38 8 59 25l50 -64c-24 -36 -61 -64 -114 -64z" />
    <glyph glyph-name="uniF6D7" unicode="&#xf6d7;" horiz-adv-x="0" 
d="M10 724l-79 39l99 194l114 -57zM-110 578c-60 0 -81 28 -81 62v27c0 35 21 62 81 62c59 0 80 -27 80 -62v-27c0 -34 -21 -62 -80 -62zM110 578c-59 0 -80 28 -80 62v27c0 35 21 62 80 62c60 0 81 -27 81 -62v-27c0 -34 -21 -62 -81 -62z" />
    <glyph glyph-name="uni0308030C" horiz-adv-x="0" 
d="M-47 748l-145 147l69 64l124 -104l124 104l67 -64l-145 -147h-94zM-110 578c-60 0 -81 28 -81 62v27c0 35 21 62 81 62c59 0 80 -27 80 -62v-27c0 -34 -21 -62 -80 -62zM110 578c-59 0 -80 28 -80 62v27c0 35 21 62 80 62c60 0 81 -27 81 -62v-27c0 -34 -21 -62 -81 -62z
" />
    <glyph glyph-name="uniF6D8" unicode="&#xf6d8;" horiz-adv-x="0" 
d="M-144 900l114 57l99 -194l-79 -39zM-110 578c-60 0 -81 28 -81 62v27c0 35 21 62 81 62c59 0 80 -27 80 -62v-27c0 -34 -21 -62 -80 -62zM110 578c-59 0 -80 28 -80 62v27c0 35 21 62 80 62c60 0 81 -27 81 -62v-27c0 -34 -21 -62 -81 -62z" />
    <glyph glyph-name="uni03020301" horiz-adv-x="0" 
d="M173 724l-79 39l99 194l114 -57zM47 772l145 -147l-70 -64l-124 104l-124 -104l-66 64l145 147h94z" />
    <glyph glyph-name="uni03020306" horiz-adv-x="0" 
d="M48 746l139 -117l-60 -65l-128 83l-126 -83l-60 65l139 117h96zM0 769c-113 0 -163 73 -187 134l69 44l20 -26c34 -44 60 -58 98 -58s64 14 98 58l20 26l69 -44c-24 -61 -74 -134 -187 -134z" />
    <glyph glyph-name="uni03020300" horiz-adv-x="0" 
d="M-307 900l114 57l99 -194l-79 -39zM47 772l145 -147l-70 -64l-124 104l-124 -104l-66 64l145 147h94z" />
    <glyph glyph-name="uni03020309" horiz-adv-x="0" 
d="M38 943h134c74 0 98 -34 98 -72c0 -40 -30 -87 -63 -127l-27 -33l-66 34l43 97h-119v101zM47 772l145 -147l-70 -64l-124 104l-124 -104l-66 64l145 147h94z" />
    <glyph glyph-name="uni03080304" horiz-adv-x="0" 
d="M-153 880h306v-103h-306v103zM-110 578c-60 0 -81 28 -81 62v27c0 35 21 62 81 62c59 0 80 -27 80 -62v-27c0 -34 -21 -62 -80 -62zM110 578c-59 0 -80 28 -80 62v27c0 35 21 62 80 62c60 0 81 -27 81 -62v-27c0 -34 -21 -62 -81 -62z" />
    <glyph glyph-name="uni03020303" horiz-adv-x="0" 
d="M-75 933c30 0 52 -9 77 -20c29 -12 52 -22 78 -22c23 0 38 8 59 25l50 -64c-24 -36 -61 -64 -114 -64c-30 0 -52 9 -77 20c-29 12 -52 22 -78 22c-23 0 -38 -8 -59 -25l-50 64c24 36 61 64 114 64zM48 759l142 -134l-67 -64l-124 95l-124 -95l-65 64l142 134h96z" />
    <glyph glyph-name="tilde.case" 
d="M376 762c-30 0 -52 9 -77 20c-29 12 -52 22 -78 22c-23 0 -38 -8 -59 -25l-52 68c24 36 61 64 114 64c30 0 52 -9 77 -20c29 -12 52 -22 78 -22c23 0 38 8 59 25l52 -68c-24 -36 -61 -64 -114 -64z" />
    <glyph glyph-name="tilde.alt01.case" 
d="M350 762c-26 0 -45 9 -67 20c-25 12 -45 22 -67 22c-17 0 -32 -6 -49 -21l-51 62c22 37 54 66 102 66c26 0 45 -9 67 -20c25 -12 45 -22 67 -22c17 0 32 6 49 21l51 -62c-22 -37 -54 -66 -102 -66z" />
    <glyph glyph-name="macron.case" 
d="M147 888h306v-103h-306v103z" />
    <glyph glyph-name="dotaccent.case" 
d="M300 752c-66 0 -89 31 -89 70v29c0 40 23 70 89 70s89 -30 89 -70v-29c0 -39 -23 -70 -89 -70z" />
    <glyph glyph-name="dieresis.case" 
d="M190 761c-59 0 -80 28 -80 63v26c0 35 21 62 80 62c60 0 81 -27 81 -62v-26c0 -35 -21 -63 -81 -63zM410 761c-60 0 -81 28 -81 63v26c0 35 21 62 81 62c59 0 80 -27 80 -62v-26c0 -35 -21 -63 -80 -63z" />
    <glyph glyph-name="hungarumlaut.case" 
d="M210 740l-81 39l99 194l116 -57zM415 740l-81 39l99 194l116 -57z" />
    <glyph glyph-name="acute.case" 
d="M316 740l-88 43l99 194l123 -61z" />
    <glyph glyph-name="grave.case" 
d="M150 916l123 61l99 -194l-88 -43z" />
    <glyph glyph-name="circumflex.case" 
d="M362 956l132 -159l-75 -58l-121 115l-121 -115l-71 58l132 159h124z" />
    <glyph glyph-name="caron.case" 
d="M238 748l-132 159l75 58l121 -115l121 115l71 -58l-132 -159h-124z" />
    <glyph glyph-name="breve.case" 
d="M300 740c-120 0 -169 98 -194 170l83 42l21 -32c31 -48 51 -77 90 -77s59 29 90 77l21 32l83 -42c-25 -72 -74 -170 -194 -170z" />
    <glyph glyph-name="ring.case" 
d="M300 719c-83 0 -148 60 -148 143c0 82 65 143 148 143s148 -60 148 -143c0 -82 -65 -143 -148 -143zM300 794c33 0 51 20 51 51v34c0 32 -18 51 -51 51s-51 -20 -51 -51v-34c0 -32 18 -51 51 -51z" />
    <glyph glyph-name="ringacute.case" 
d="M293 976l-53 57l129 117l74 -81zM300 725c-85 0 -152 44 -152 120c0 75 67 120 152 120s152 -44 152 -120c0 -75 -67 -120 -152 -120zM300 795c36 0 55 14 55 45v10c0 32 -19 45 -55 45s-55 -14 -55 -45v-10c0 -32 19 -45 55 -45z" />
    <glyph glyph-name="hookabovecomb.case" horiz-adv-x="0" 
d="M-120 963h143c75 0 98 -34 98 -73s-24 -86 -57 -126l-28 -34l-75 35l41 92h-122v106z" />
    <glyph glyph-name="uni03060301.ccmp0" horiz-adv-x="0" 
d="M0 733c-122 0 -176 81 -202 149l75 47l21 -28c39 -52 64 -67 106 -67s67 15 106 67l21 28l75 -47c-26 -68 -80 -149 -202 -149zM19 894l-79 39l99 194l114 -57z" />
    <glyph glyph-name="uni03060300.ccmp0" horiz-adv-x="0" 
d="M0 733c-122 0 -176 81 -202 149l75 47l21 -28c39 -52 64 -67 106 -67s67 15 106 67l21 28l75 -47c-26 -68 -80 -149 -202 -149zM-153 1070l114 57l99 -194l-79 -39z" />
    <glyph glyph-name="uni03060309.ccmp0" horiz-adv-x="0" 
d="M-130 1113h136c75 0 98 -34 98 -72c0 -40 -29 -86 -62 -127l-27 -33l-66 32l43 99h-122v101zM0 733c-122 0 -176 81 -202 149l75 47l21 -28c39 -52 64 -67 106 -67s67 15 106 67l21 28l75 -47c-26 -68 -80 -149 -202 -149z" />
    <glyph glyph-name="uni03060303.ccmp0" horiz-adv-x="0" 
d="M75 948c-30 0 -52 9 -77 20c-29 12 -52 22 -78 22c-23 0 -38 -8 -59 -25l-50 64c24 36 61 64 114 64c30 0 52 -9 77 -20c29 -12 52 -22 78 -22c23 0 38 8 59 25l50 -64c-24 -36 -61 -64 -114 -64zM0 733c-122 0 -176 81 -202 149l75 47l21 -28c39 -52 64 -67 106 -67
s67 15 106 67l21 28l75 -47c-26 -68 -80 -149 -202 -149z" />
    <glyph glyph-name="uniF6D7.case" horiz-adv-x="0" 
d="M10 894l-79 39l99 194l114 -57zM-110 748c-60 0 -81 28 -81 62v27c0 35 21 62 81 62c59 0 80 -27 80 -62v-27c0 -34 -21 -62 -80 -62zM110 748c-59 0 -80 28 -80 62v27c0 35 21 62 80 62c60 0 81 -27 81 -62v-27c0 -34 -21 -62 -81 -62z" />
    <glyph glyph-name="uni0308030C.ccmp0" horiz-adv-x="0" 
d="M-47 918l-145 147l69 64l124 -104l124 104l67 -64l-145 -147h-94zM-110 748c-60 0 -81 28 -81 62v27c0 35 21 62 81 62c59 0 80 -27 80 -62v-27c0 -34 -21 -62 -80 -62zM110 748c-59 0 -80 28 -80 62v27c0 35 21 62 80 62c60 0 81 -27 81 -62v-27c0 -34 -21 -62 -81 -62z
" />
    <glyph glyph-name="uniF6D8.case" horiz-adv-x="0" 
d="M-144 1070l114 57l99 -194l-79 -39zM-110 748c-60 0 -81 28 -81 62v27c0 35 21 62 81 62c59 0 80 -27 80 -62v-27c0 -34 -21 -62 -80 -62zM110 748c-59 0 -80 28 -80 62v27c0 35 21 62 80 62c60 0 81 -27 81 -62v-27c0 -34 -21 -62 -81 -62z" />
    <glyph glyph-name="uni03020301.ccmp0" horiz-adv-x="0" 
d="M173 894l-79 39l99 194l114 -57zM47 942l145 -147l-70 -64l-124 104l-124 -104l-66 64l145 147h94z" />
    <glyph glyph-name="uni03020306.ccmp0" horiz-adv-x="0" 
d="M48 916l139 -117l-61 -65l-127 83l-127 -83l-59 65l139 117h96zM0 939c-113 0 -163 73 -187 134l69 44l20 -26c34 -44 60 -58 98 -58s64 14 98 58l20 26l69 -44c-24 -61 -74 -134 -187 -134z" />
    <glyph glyph-name="uni03020300.ccmp0" horiz-adv-x="0" 
d="M-307 1070l114 57l99 -194l-79 -39zM47 942l145 -147l-70 -64l-124 104l-124 -104l-66 64l145 147h94z" />
    <glyph glyph-name="uni03020309.ccmp0" horiz-adv-x="0" 
d="M38 1113h134c74 0 98 -34 98 -72c0 -40 -30 -87 -63 -127l-27 -33l-66 34l43 97h-119v101zM47 942l145 -147l-70 -64l-124 104l-124 -104l-66 64l145 147h94z" />
    <glyph glyph-name="uni03080304.ccmp0" horiz-adv-x="0" 
d="M-153 1050h306v-103h-306v103zM-110 748c-60 0 -81 28 -81 62v27c0 35 21 62 81 62c59 0 80 -27 80 -62v-27c0 -34 -21 -62 -80 -62zM110 748c-59 0 -80 28 -80 62v27c0 35 21 62 80 62c60 0 81 -27 81 -62v-27c0 -34 -21 -62 -81 -62z" />
    <glyph glyph-name="uni03020303.ccmp0" horiz-adv-x="0" 
d="M-75 1103c30 0 52 -9 77 -20c29 -12 52 -22 78 -22c23 0 38 8 59 25l50 -64c-24 -36 -61 -64 -114 -64c-30 0 -52 9 -77 20c-29 12 -52 22 -78 22c-23 0 -38 -8 -59 -25l-50 64c24 36 61 64 114 64zM48 929l142 -134l-68 -64l-124 95l-124 -95l-64 64l142 134h96z" />
    <glyph glyph-name="space" unicode=" " 
 />
    <glyph glyph-name="uni00A0" unicode="&#xa0;" 
 />
    <glyph glyph-name="uniEBE7" unicode="&#xebe7;" 
d="M466 160c-27 0 -47 17 -54 43l-38 142l121 -82c17 -12 27 -28 27 -48c0 -30 -25 -55 -56 -55zM134 160c-31 0 -56 25 -56 55c0 20 10 36 27 48l121 82l-38 -142c-7 -26 -27 -43 -54 -43zM374 252h-148v37h148v-37zM374 178h-148v37h148v-37zM300 104c-27 0 -52 14 -64 37
h128c-12 -23 -37 -37 -64 -37zM300 363c27 0 52 -14 64 -37h-128c12 23 37 37 64 37zM342 373c-18 0 -33 14 -33 32s15 32 33 32s33 -14 33 -32s-15 -32 -33 -32zM258 373c-18 0 -33 14 -33 32s15 32 33 32s33 -14 33 -32s-15 -32 -33 -32zM152 2v19h116l7 -19h-123zM325 2
l7 19h116v-19h-123zM152 39v19h104l6 -19h-110zM338 39l6 19h104v-19h-110zM313 -35l6 19h92v-19h-98zM189 -35v19h92l6 -19h-98zM152 -183v19h93v-19h-93zM355 -183v19h93v-19h-93zM152 -220v19h93v-19h-93zM355 -220v19h93v-19h-93zM257 -90h86l-6 -19h-74zM355 -109v19
h56v-19h-56zM355 -72v19h56v-19h-56zM355 -146v19h56v-19h-56zM189 -109v19h56v-19h-56zM189 -72v19h56v-19h-56zM189 -146v19h56v-19h-56zM269 -127h62l-7 -19h-48zM251 -72l-6 19h48l7 -19h-49zM300 -72l7 19h48l-6 -19h-49zM282 -164h36l-6 -19h-24zM294 -201h12l-6 -19z
M263 586c0 21 16 37 37 37s37 -16 37 -37s-16 -37 -37 -37s-37 16 -37 37zM217 586c0 -47 36 -83 83 -83s83 36 83 83s-36 83 -83 83s-83 -36 -83 -83zM448 586c-24 -60 -82 -102 -148 -102s-124 42 -148 102c24 60 82 102 148 102s124 -42 148 -102zM300 734
c-56 0 -106 -26 -139 -65v28c28 50 80 83 139 83s111 -33 139 -83v-28c-33 39 -83 65 -139 65z" />
  </font>
</defs>
</svg>
