<?xml version="1.0" standalone="no"?>
<!DOCTYPE svg PUBLIC "-//W3C//DTD SVG 1.1//EN" "http://www.w3.org/Graphics/SVG/1.1/DTD/svg11.dtd" >
<svg xmlns="http://www.w3.org/2000/svg" xmlns:xlink="http://www.w3.org/1999/xlink" version="1.1">
<metadata>
Created by FontForge 20170910 at Tue Nov 28 10:57:48 2017
 By Jimmy Wärting
\\\(c\\\) 2017 IBM Corp. All rights reserved.
</metadata>
<defs>
<font id="iAWriterDuospace-BoldItalic" horiz-adv-x="600" >
  <font-face 
    font-family="iA Writer Duospace Bold"
    font-weight="700"
    font-style="italic"
    font-stretch="normal"
    units-per-em="1000"
    panose-1="2 11 6 9 5 0 0 0 0 0"
    ascent="780"
    descent="-220"
    x-height="516"
    cap-height="698"
    bbox="-256 -269 974 1149"
    underline-thickness="100"
    underline-position="-150"
    slope="-9.5"
    stemh="76"
    stemv="96"
    unicode-range="U+0020-FB02"
  />
<missing-glyph 
d="M50 670h500v-920h-500v920z" />
    <glyph glyph-name=".notdef" 
d="M50 670h500v-920h-500v920z" />
    <glyph glyph-name="a" unicode="a" 
d="M347 0l20 123h-5c-39 -79 -85 -135 -173 -135c-109 0 -151 79 -151 200c0 205 94 340 237 340c81 0 120 -40 135 -108h7l16 96h146l-86 -516h-146zM254 101c36 0 63 19 87 49c16 19 40 54 47 97l14 83c9 54 -17 85 -80 85c-72 0 -109 -44 -122 -122l-10 -60
c-2 -12 -4 -28 -4 -45c1 -49 18 -87 68 -87z" />
    <glyph glyph-name="a.alt01" 
d="M199 -12c-100 0 -162 48 -162 129c0 123 89 184 255 184h95l4 22c1 6 2 16 2 24c0 44 -28 73 -95 73c-62 0 -100 -24 -136 -63l-74 75c41 49 116 96 223 96c137 0 227 -57 227 -170c0 -21 -3 -42 -7 -68l-48 -290h-140l15 91h-5c-29 -66 -84 -103 -154 -103zM253 84
c55 0 103 29 111 77l10 60h-85c-60 0 -97 -21 -102 -61c-2 -16 -2 -21 -2 -28c0 -32 26 -48 68 -48z" />
    <glyph glyph-name="b" unicode="b" 
d="M144 740h146l-57 -347h5c39 79 85 135 173 135c109 0 151 -79 151 -200c0 -205 -94 -340 -237 -340c-81 0 -120 40 -135 108h-7l-16 -96h-146zM278 101c72 0 109 44 122 122l10 60c2 12 4 28 4 45c-1 49 -18 87 -68 87c-36 0 -63 -19 -87 -49c-16 -19 -40 -54 -47 -97
l-14 -83c-9 -54 17 -85 80 -85z" />
    <glyph glyph-name="c" unicode="c" 
d="M273 -12c-140 0 -216 80 -216 218c0 176 102 322 286 322c118 0 178 -53 200 -131l-119 -56c-14 43 -35 70 -93 70c-57 0 -99 -38 -111 -110l-10 -60c-2 -12 -4 -31 -4 -47c0 -53 25 -89 91 -89c42 0 72 14 145 110l91 -59c-68 -108 -136 -168 -260 -168z" />
    <glyph glyph-name="d" unicode="d" 
d="M367 123h-5c-39 -79 -85 -135 -173 -135c-109 0 -151 79 -151 200c0 205 94 340 237 340c81 0 120 -40 135 -108h7l53 320h146l-123 -740h-146zM254 101c36 0 63 19 87 49c16 19 40 54 47 97l14 83c9 54 -17 85 -80 85c-72 0 -109 -44 -122 -122l-10 -60
c-2 -12 -4 -28 -4 -45c1 -49 18 -87 68 -87z" />
    <glyph glyph-name="e" unicode="e" 
d="M281 -12c-152 0 -225 83 -225 220c0 192 121 320 304 320c104 0 190 -47 190 -142c0 -83 -54 -172 -348 -183c-1 -8 -1 -12 -1 -17c0 -55 29 -86 99 -86c57 0 89 20 142 88l91 -59c-54 -77 -120 -141 -252 -141zM345 425c-63 0 -111 -35 -130 -124l-3 -14
c185 10 197 53 197 86s-20 52 -64 52z" />
    <glyph glyph-name="f" unicode="f" 
d="M173 -212c-73 0 -112 49 -164 123l-41 59l100 69l103 -136l12 5l82 494h-163l19 114h163l13 78c14 86 71 146 178 146h178l-19 -114h-186l-18 -110h186l-19 -114h-187l-76 -455c-19 -112 -77 -159 -161 -159z" />
    <glyph glyph-name="g" unicode="g" 
d="M224 -212c-96 0 -159 15 -211 76l87 90c32 -39 74 -53 120 -53c74 0 118 27 139 153l15 89h-6c-38 -79 -83 -135 -172 -135c-111 0 -155 85 -155 200c0 188 89 320 234 320c83 0 122 -40 136 -108h8l16 96h146l-80 -480c-28 -167 -124 -248 -277 -248zM260 122
c36 0 61 18 85 46c16 19 41 50 49 98l11 67c8 48 -15 82 -80 82c-74 0 -111 -50 -123 -122l-7 -42c-2 -12 -4 -28 -4 -49c0 -44 19 -80 69 -80z" />
    <glyph glyph-name="g.alt01" 
d="M222 -212c-177 0 -231 42 -231 103c0 68 43 99 117 117l1 6c-37 12 -59 33 -59 70c0 58 40 84 108 95l2 7c-48 26 -75 70 -75 129c0 136 107 213 257 213c33 0 63 -4 89 -12l5 28c7 40 42 70 91 70h91l-18 -107h-124l-2 -11c42 -26 66 -67 66 -123
c0 -135 -107 -213 -259 -213c-30 0 -57 3 -81 10c-20 -8 -34 -22 -34 -43c0 -28 32 -31 70 -31h110c128 0 190 -52 190 -126c0 -123 -97 -182 -314 -182zM117 -69c0 -29 23 -49 83 -49h96c68 0 98 22 98 59c0 26 -17 40 -71 40h-178c-19 -12 -28 -29 -28 -50zM301 253
c56 0 88 31 96 79c4 24 5 32 5 40c0 37 -21 63 -77 63s-88 -31 -96 -79c-4 -24 -5 -32 -5 -40c0 -37 21 -63 77 -63z" />
    <glyph glyph-name="g.alt02" 
d="M222 -212c-177 0 -231 42 -231 103c0 68 43 99 117 117l1 6c-37 12 -59 33 -59 70c0 58 40 84 108 95l2 7c-48 26 -75 70 -75 129c0 136 107 213 257 213c31 0 58 -5 81 -12h195l-17 -98h-71c6 -14 10 -28 10 -45c0 -135 -107 -213 -259 -213c-30 0 -57 3 -81 10
c-20 -8 -34 -22 -34 -43c0 -28 32 -31 70 -31h110c128 0 190 -52 190 -126c0 -123 -97 -182 -314 -182zM301 253c56 0 88 31 96 79c4 24 5 32 5 40c0 37 -21 63 -77 63s-88 -31 -96 -79c-4 -24 -5 -32 -5 -40c0 -37 21 -63 77 -63zM394 -59c0 26 -17 40 -71 40h-178
c-19 -12 -28 -29 -28 -50c0 -29 23 -49 83 -49h96c68 0 98 22 98 59z" />
    <glyph glyph-name="h" unicode="h" 
d="M148 740h146l-57 -347h5c39 84 86 135 168 135c101 0 141 -69 141 -149c0 -29 -3 -56 -11 -104l-46 -275h-146l49 293c3 18 7 37 7 62c0 27 -15 61 -60 61c-34 0 -58 -17 -81 -47c-15 -20 -40 -58 -47 -100l-45 -269h-146z" />
    <glyph glyph-name="i" unicode="i" 
d="M339 584c-60 0 -82 26 -82 61c0 7 1 16 5 40c7 42 34 66 94 66s82 -26 82 -61c0 -7 -1 -16 -5 -40c-7 -42 -34 -66 -94 -66zM298 -12c-82 0 -124 47 -124 120c0 22 2 39 10 80l40 214h-156l19 114h304l-77 -410l17 -5l140 143l80 -71l-61 -70
c-67 -76 -123 -115 -192 -115z" />
    <glyph glyph-name="j" unicode="j" 
d="M216 -212c-79 0 -119 52 -180 147l-32 50l100 69l113 -155l13 5l83 498h-189l19 114h335l-92 -553c-21 -125 -74 -175 -170 -175zM422 584c-60 0 -82 26 -82 61c0 7 1 16 5 40c7 42 34 66 94 66s82 -26 82 -61c0 -7 -1 -16 -5 -40c-7 -42 -34 -66 -94 -66z" />
    <glyph glyph-name="k" unicode="k" 
d="M147 740h146l-57 -347h6c35 77 90 135 178 135c85 0 134 -54 134 -122c0 -95 -62 -153 -177 -188l42 -110l15 -3l82 80l70 -69l-52 -56c-43 -46 -87 -72 -140 -72c-63 0 -96 38 -119 102l-50 137c119 35 183 70 183 134c0 34 -24 58 -67 58c-25 0 -50 -10 -80 -48
c-20 -25 -38 -54 -46 -102l-45 -269h-146z" />
    <glyph glyph-name="l" unicode="l" 
d="M270 -12c-82 0 -122 47 -122 120c0 22 2 39 10 80l81 438h-152l19 114h299l-117 -634l15 -5l140 143l80 -71l-61 -70c-67 -76 -123 -115 -192 -115z" />
    <glyph glyph-name="m" unicode="m" horiz-adv-x="900" 
d="M24 0l105 525h140l-24 -122h6c39 82 89 134 169 134c78 0 121 -50 122 -134h5c39 78 90 134 174 134c77 0 119 -51 119 -133c0 -31 -6 -60 -12 -91l-40 -201h53l-22 -112h-91c-53 0 -84 29 -84 76c0 12 2 23 3 28l41 208c4 19 8 38 8 55c0 32 -13 53 -44 53
s-60 -20 -82 -47s-41 -67 -48 -103l-54 -270h-140l62 312c4 19 7 38 7 54c0 33 -13 54 -47 54s-61 -20 -84 -48s-40 -62 -48 -102l-54 -270h-140z" />
    <glyph glyph-name="n" unicode="n" 
d="M25 0l86 516h146l-20 -123h5c39 84 86 135 168 135c101 0 141 -69 141 -149c0 -29 -3 -56 -11 -104l-46 -275h-146l49 293c3 18 7 37 7 62c0 27 -15 61 -60 61c-34 0 -58 -17 -81 -47c-15 -20 -40 -58 -47 -100l-45 -269h-146z" />
    <glyph glyph-name="o" unicode="o" 
d="M265 -12c-140 0 -222 86 -222 222c0 197 119 318 292 318c140 0 222 -86 222 -222c0 -197 -119 -318 -292 -318zM276 97c64 0 106 40 118 112l13 78c2 12 5 29 5 41c0 61 -34 91 -88 91c-64 0 -106 -40 -118 -112l-13 -78c-2 -12 -5 -29 -5 -41c0 -61 34 -91 88 -91z" />
    <glyph glyph-name="p" unicode="p" 
d="M107 516h146l-20 -123h5c39 79 85 135 173 135c109 0 151 -79 151 -200c0 -205 -94 -340 -237 -340c-81 0 -120 40 -135 108h-7l-50 -296h-146zM278 101c72 0 109 44 122 122l10 60c2 12 4 28 4 45c-1 49 -18 87 -68 87c-36 0 -63 -19 -87 -49c-16 -19 -40 -54 -47 -97
l-14 -83c-9 -54 17 -85 80 -85z" />
    <glyph glyph-name="q" unicode="q" 
d="M367 123h-5c-39 -79 -85 -135 -173 -135c-109 0 -151 79 -151 200c0 205 94 340 237 340c81 0 120 -40 135 -108h7l16 96h146l-119 -716h-146zM254 101c36 0 63 19 87 49c16 19 40 54 47 97l14 83c9 54 -17 85 -80 85c-72 0 -109 -44 -122 -122l-10 -60
c-2 -12 -4 -28 -4 -45c1 -49 18 -87 68 -87z" />
    <glyph glyph-name="r" unicode="r" 
d="M146 0l67 402h-118l19 114h264l-27 -156h6c43 98 105 156 206 156h34l-26 -146h-91c-54 0 -84 -15 -108 -45c-13 -16 -35 -53 -41 -89l-39 -236h-146z" />
    <glyph glyph-name="s" unicode="s" 
d="M258 -12c-103 0 -182 30 -217 84l82 81c29 -41 84 -62 145 -62c60 0 98 20 98 57c0 28 -22 38 -53 45l-74 16c-78 17 -139 50 -139 141c0 116 100 178 234 178c92 0 170 -28 205 -73l-80 -82c-23 29 -71 52 -129 52c-52 0 -86 -19 -86 -56c0 -28 19 -36 51 -43l77 -17
c86 -19 139 -55 139 -139c0 -114 -99 -182 -253 -182z" />
    <glyph glyph-name="t" unicode="t" 
d="M278 -12c-88 0 -127 51 -127 128c0 18 2 36 7 66l37 220h-132l19 114h83c43 0 63 15 70 60l20 122h136l-30 -182h202l-19 -114h-202l-48 -288l20 -7l156 123l72 -82l-60 -52c-85 -73 -133 -108 -204 -108z" />
    <glyph glyph-name="u" unicode="u" 
d="M362 123h-5c-39 -84 -86 -135 -168 -135c-101 0 -141 69 -141 149c0 29 3 56 11 104l46 275h146l-49 -292c-3 -18 -7 -38 -7 -63c0 -27 15 -61 60 -61c34 0 58 17 81 47c15 20 40 58 47 100l45 269h146l-86 -516h-146z" />
    <glyph glyph-name="v" unicode="v" 
d="M286 516l-65 -420l12 -8c127 45 173 154 173 262c0 45 -13 91 -34 130l130 48c34 -42 51 -105 51 -178c0 -204 -168 -362 -342 -362c-85 0 -127 48 -127 123c0 22 2 36 6 61l35 230h-89l19 114h231z" />
    <glyph glyph-name="w" unicode="w" horiz-adv-x="900" 
d="M88 525h139l10 -368h6l173 368h130l55 -375h6l152 375h138l-240 -525h-147l-58 349h-6l-169 -349h-149z" />
    <glyph glyph-name="x" unicode="x" 
d="M106 -12c-67 0 -110 49 -110 141c0 24 1 32 2 44l116 14v-11c0 -57 8 -82 36 -82c67 0 89 188 89 279c0 16 -1 30 -2 44l-12 5l-131 -91l-61 81l71 53c51 38 94 63 143 63c72 0 106 -50 106 -138v-15h7c29 110 72 153 137 153s108 -56 108 -138c0 -20 0 -36 -1 -47
l-116 -14v16c0 51 -10 77 -37 77c-68 0 -87 -172 -87 -273c0 -18 1 -34 2 -49l12 -6l134 93l61 -77l-51 -45c-61 -54 -114 -77 -163 -77c-64 0 -106 45 -106 151h-7c-28 -109 -74 -151 -140 -151z" />
    <glyph glyph-name="y" unicode="y" 
d="M217 -212c-96 0 -159 15 -211 76l87 90c32 -39 74 -53 120 -53c74 0 118 28 138 153l14 86h-5c-39 -84 -86 -135 -168 -135c-101 0 -141 69 -141 149c0 29 3 56 11 104l43 258h146l-46 -275c-3 -18 -7 -38 -7 -63c0 -27 15 -61 60 -61c34 0 58 17 81 47
c15 20 40 58 47 100l42 252h146l-80 -480c-28 -167 -124 -248 -277 -248z" />
    <glyph glyph-name="z" unicode="z" 
d="M414 -12c-48 0 -100 8 -154 36l-101 52l-4 -3l-12 -73h-125l20 120l320 254c-38 30 -68 41 -111 41c-34 0 -64 -18 -64 -76h-108v9c0 115 64 180 163 180c62 0 129 -19 198 -88l2 -2l6 5l12 73h125l-20 -120l-324 -258l196 -37l11 13l-30 88l85 37l15 -27
c22 -39 30 -68 30 -98c0 -65 -49 -126 -130 -126z" />
    <glyph glyph-name="A" unicode="A" 
d="M400 0l-17 169h-196l-69 -169h-155l307 698h206l76 -698h-152zM356 553h-9l-110 -264h140z" />
    <glyph glyph-name="B" unicode="B" 
d="M152 698h237c121 0 187 -64 187 -161c0 -96 -48 -158 -145 -182l-1 -5c73 -14 114 -59 114 -133c0 -131 -91 -217 -239 -217h-270zM273 104c66 0 106 21 115 75l4 24c2 12 5 27 5 35c0 46 -25 65 -85 65h-82l-33 -199h76zM304 402c70 0 105 16 115 76l4 24c1 6 3 22 3 31
c0 45 -30 61 -83 61h-64l-32 -192h57z" />
    <glyph glyph-name="C" unicode="C" 
d="M290 -12c-164 0 -240 99 -240 266c0 271 126 456 323 456c155 0 224 -84 231 -205l-143 -29c-4 66 -22 114 -94 114c-82 0 -123 -70 -142 -182l-18 -109c-4 -24 -8 -46 -8 -78c0 -70 28 -113 101 -113c64 0 105 53 132 119l127 -38c-55 -131 -134 -201 -269 -201z" />
    <glyph glyph-name="D" unicode="D" 
d="M142 698h205c156 0 241 -92 241 -257c0 -275 -119 -441 -336 -441h-227zM255 117c89 0 139 50 157 158l21 126c4 24 6 49 6 68c0 76 -34 112 -105 112h-65l-77 -464h63z" />
    <glyph glyph-name="E" unicode="E" 
d="M38 0l117 698h446l-20 -122h-300l-27 -162h286l-20 -122h-287l-28 -170h299l-20 -122h-446z" />
    <glyph glyph-name="F" unicode="F" 
d="M38 0l117 698h462l-20 -122h-316l-27 -162h282l-20 -122h-282l-49 -292h-147z" />
    <glyph glyph-name="G" unicode="G" 
d="M390 101h-9c-35 -62 -70 -113 -151 -113c-114 0 -185 89 -185 257c0 265 109 465 323 465c145 0 212 -85 221 -206l-143 -28c-5 60 -22 114 -91 114c-76 0 -116 -69 -134 -177l-17 -102c-4 -24 -8 -60 -8 -87c0 -70 29 -116 93 -116c70 0 111 51 121 111l8 48h-123
l17 105h254l-62 -372h-131z" />
    <glyph glyph-name="H" unicode="H" 
d="M397 293h-180l-49 -293h-148l116 698h148l-47 -284h180l47 284h148l-116 -698h-148z" />
    <glyph glyph-name="I" unicode="I" 
d="M32 0l18 110h151l80 478h-151l18 110h450l-18 -110h-151l-80 -478h151l-18 -110h-450z" />
    <glyph glyph-name="J" unicode="J" 
d="M583 698l-83 -496c-24 -142 -111 -214 -257 -214c-140 0 -211 80 -214 197l139 26c3 -59 22 -103 86 -103c53 0 88 32 99 98l62 370h-234l20 122h382z" />
    <glyph glyph-name="K" unicode="K" 
d="M289 282l-82 -91l-32 -191h-148l116 698h148l-50 -299h8l112 137l132 162h174l-260 -310l155 -388h-164z" />
    <glyph glyph-name="L" unicode="L" 
d="M51 0l116 698h148l-96 -576h302l-20 -122h-450z" />
    <glyph glyph-name="M" unicode="M" horiz-adv-x="900" 
d="M698 461h-6l-106 -134l-165 -212l-84 227l-49 121h-5l-93 -463h-138l140 698h152l121 -332h4l253 332h161l-140 -698h-138z" />
    <glyph glyph-name="N" unicode="N" 
d="M237 468h-10l-78 -468h-129l116 698h178l81 -468h10l78 468h129l-116 -698h-178z" />
    <glyph glyph-name="O" unicode="O" 
d="M279 -12c-169 0 -243 100 -243 263c0 237 91 459 313 459c169 0 243 -100 243 -263c0 -237 -91 -459 -313 -459zM279 108c84 0 117 66 136 180l20 120c4 24 6 47 6 72c0 69 -29 110 -92 110c-84 0 -117 -66 -136 -180l-20 -120c-4 -24 -6 -47 -6 -72
c0 -69 29 -110 92 -110z" />
    <glyph glyph-name="P" unicode="P" 
d="M37 0l117 698h252c124 0 190 -77 190 -185c0 -159 -98 -257 -249 -257h-119l-43 -256h-148zM248 376h78c68 0 99 23 109 83l5 30c1 6 2 16 2 27c0 45 -23 63 -82 63h-78z" />
    <glyph glyph-name="Q" unicode="Q" 
d="M406 -205c-50 0 -76 27 -98 59l-93 140c-124 23 -179 116 -179 257c0 237 91 459 313 459c169 0 243 -100 243 -263c0 -207 -69 -403 -235 -449l54 -82l16 -4l85 84l76 -69l-48 -53c-59 -65 -89 -79 -134 -79zM279 108c84 0 117 66 136 180l20 120c4 24 6 47 6 72
c0 69 -29 110 -92 110c-84 0 -117 -66 -136 -180l-20 -120c-4 -24 -6 -47 -6 -72c0 -69 29 -110 92 -110z" />
    <glyph glyph-name="R" unicode="R" 
d="M181 0h-146l117 698h252c124 0 190 -75 190 -186c0 -123 -63 -208 -167 -237l95 -275h-156l-77 260h-64zM324 376c72 0 100 22 109 80l4 24c2 12 3 23 3 33c0 46 -30 66 -79 66h-83l-34 -203h80z" />
    <glyph glyph-name="S" unicode="S" 
d="M268 -12c-115 0 -214 40 -256 107l93 94c41 -53 110 -79 172 -79c76 0 116 39 116 103c0 46 -25 65 -81 78l-69 16c-101 23 -145 89 -145 175c0 138 103 228 269 228c100 0 187 -37 227 -98l-97 -89c-30 42 -77 67 -137 67c-73 0 -109 -36 -109 -92c0 -40 22 -58 84 -74
l66 -17c99 -25 146 -82 146 -177c0 -143 -102 -242 -279 -242z" />
    <glyph glyph-name="T" unicode="T" 
d="M427 576l-96 -576h-148l96 576h-202l20 122h552l-20 -122h-202z" />
    <glyph glyph-name="U" unicode="U" 
d="M275 698l-73 -438c-6 -36 -8 -60 -8 -74c0 -50 22 -78 83 -78c89 0 105 57 120 147l74 443h147l-71 -426c-31 -186 -77 -284 -278 -284c-166 0 -220 74 -220 188c0 34 4 73 11 115l68 407h147z" />
    <glyph glyph-name="V" unicode="V" 
d="M152 0l-67 698h158l24 -351l9 -205h9l78 205l136 351h162l-298 -698h-211z" />
    <glyph glyph-name="W" unicode="W" horiz-adv-x="900" 
d="M107 0l-14 698h143l-4 -279l-11 -275h10l97 257l126 297h159l7 -282l-7 -282h10l87 250l118 314h146l-291 -698h-168l-8 291v245h-9l-89 -224l-130 -312h-172z" />
    <glyph glyph-name="X" unicode="X" 
d="M550 0h-165l-49 139l-34 110h-9l-66 -110l-97 -139h-163l256 361l-129 337h166l39 -111l33 -112h8l70 112l78 111h162l-237 -339z" />
    <glyph glyph-name="Y" unicode="Y" 
d="M184 0l41 246l-147 452h158l49 -164l31 -137h9l78 137l100 164h165l-295 -449l-41 -249h-148z" />
    <glyph glyph-name="Z" unicode="Z" 
d="M507 0h-499l22 130l387 446h-304l20 122h479l-21 -130l-387 -446h323z" />
    <glyph glyph-name="zero" unicode="0" 
d="M278 -12c-166 0 -242 101 -242 268c0 230 91 454 314 454c168 0 242 -101 242 -268c0 -230 -91 -454 -314 -454zM278 103c91 0 122 65 141 179l21 127c5 30 7 51 7 74c0 70 -31 112 -97 112c-91 0 -122 -65 -141 -179l-21 -127c-5 -30 -7 -51 -7 -74
c0 -70 31 -112 97 -112zM307 290c-41 0 -58 18 -58 42c0 6 1 16 3 28c5 30 25 48 69 48c41 0 58 -18 58 -42c0 -6 -1 -16 -3 -28c-5 -30 -25 -48 -69 -48z" />
    <glyph glyph-name="zero.alt01" 
d="M278 98c95 0 128 67 147 184l20 121l-267 -224c10 -51 42 -81 100 -81zM278 -12c-166 0 -242 101 -242 268c0 230 91 454 314 454c168 0 242 -101 242 -268c0 -230 -91 -454 -314 -454zM350 600c-95 0 -128 -67 -147 -184l-20 -121l267 224c-10 51 -42 81 -100 81z" />
    <glyph glyph-name="zero.alt02" 
d="M279 -12c-169 0 -243 100 -243 263c0 237 91 459 313 459c169 0 243 -100 243 -263c0 -237 -91 -459 -313 -459zM279 108c84 0 117 66 136 180l20 120c4 24 6 47 6 72c0 69 -29 110 -92 110c-84 0 -117 -66 -136 -180l-20 -120c-4 -24 -6 -47 -6 -72
c0 -69 29 -110 92 -110z" />
    <glyph glyph-name="one" unicode="1" 
d="M35 0l20 120h176l73 437l-166 -86l-48 111l230 116h155l-96 -578h160l-20 -120h-484z" />
    <glyph glyph-name="two" unicode="2" 
d="M512 0h-500l22 136l253 187c88 65 124 108 133 162c1 6 2 15 2 26c0 41 -30 71 -84 71c-66 0 -104 -47 -126 -99l-128 50c47 100 131 177 266 177c145 0 230 -78 230 -195c0 -119 -85 -185 -221 -283l-150 -108h324z" />
    <glyph glyph-name="three" unicode="3" 
d="M294 422c81 0 117 33 123 69c2 12 3 18 3 27c0 44 -36 71 -92 71s-106 -23 -150 -82l-82 92c62 66 135 111 258 111c138 0 226 -65 226 -166c0 -91 -62 -154 -164 -177l-1 -5c74 -13 124 -64 124 -147c0 -130 -99 -227 -284 -227c-141 0 -211 63 -243 134l106 77
c25 -53 64 -90 143 -90c70 0 111 32 120 86c1 6 2 17 2 26c0 48 -40 77 -102 77h-75l21 124h67z" />
    <glyph glyph-name="four" unicode="4" 
d="M298 0l22 134h-314l22 130l351 434h179l-75 -449h89l-19 -115h-89l-22 -134h-144zM151 249h188l47 281h-8z" />
    <glyph glyph-name="five" unicode="5" 
d="M571 569h-323l-52 -223h8c40 70 81 110 169 110c109 0 190 -71 190 -194c0 -136 -99 -274 -295 -274c-151 0 -217 65 -250 136l117 75c21 -51 64 -90 136 -90c74 0 117 43 127 103c2 12 3 26 3 40c0 53 -35 84 -95 84c-55 0 -94 -28 -118 -49l-118 16l92 395h431z" />
    <glyph glyph-name="six" unicode="6" 
d="M274 -12c-154 0 -238 92 -238 236c0 203 157 380 321 474h211c-188 -116 -307 -215 -359 -350l8 -3c35 53 83 105 172 105c108 0 176 -77 176 -192c0 -142 -103 -270 -291 -270zM285 104c67 0 111 37 122 103c2 12 3 24 3 33c0 64 -35 96 -99 96
c-67 0 -111 -37 -122 -103c-2 -12 -3 -24 -3 -33c0 -64 35 -96 99 -96z" />
    <glyph glyph-name="seven" unicode="7" 
d="M110 0l336 577h-225l-21 -127h-126l41 248h502l-22 -129l-325 -569h-160z" />
    <glyph glyph-name="eight" unicode="8" 
d="M269 -12c-160 0 -245 73 -245 178c0 97 64 171 169 195l1 7c-58 23 -94 69 -94 138c0 98 82 204 267 204c146 0 221 -68 221 -167c0 -83 -55 -144 -145 -176l-1 -7c70 -20 114 -72 114 -147c0 -110 -96 -225 -287 -225zM275 102c72 0 113 36 122 90c3 18 3 24 3 35
c0 46 -33 75 -97 75c-72 0 -113 -36 -122 -90c-3 -18 -3 -24 -3 -35c0 -46 33 -75 97 -75zM329 411c65 0 103 31 112 85c2 12 3 23 3 31c0 43 -32 69 -92 69c-65 0 -103 -31 -112 -85c-2 -12 -3 -23 -3 -31c0 -43 32 -69 92 -69z" />
    <glyph glyph-name="nine" unicode="9" 
d="M592 474c0 -203 -157 -380 -321 -474h-211c188 116 307 215 359 350l-8 3c-35 -53 -83 -105 -172 -105c-108 0 -176 77 -176 192c0 142 103 270 291 270c154 0 238 -92 238 -236zM317 362c67 0 111 37 122 103c2 12 3 24 3 33c0 64 -35 96 -99 96
c-67 0 -111 -37 -122 -103c-2 -12 -3 -24 -3 -33c0 -64 35 -96 99 -96z" />
    <glyph glyph-name="ampersand" unicode="&#x26;" 
d="M153 -12c-84 0 -143 62 -143 183s54 220 190 228c-14 43 -25 90 -25 132c0 100 73 179 204 179c106 0 177 -70 177 -175c0 -110 -72 -188 -196 -211l72 -201l17 -4l68 95l82 -59l-48 -81c-38 -65 -74 -86 -127 -86c-52 0 -99 39 -126 149h-6c-10 -85 -55 -149 -139 -149z
M207 115c24 0 51 4 70 54l-57 169c-53 -16 -62 -55 -65 -96c-3 -32 -3 -47 -3 -59c0 -42 22 -68 55 -68zM368 606c-45 0 -63 -35 -63 -76c0 -43 10 -82 29 -134l3 -9c54 20 78 48 86 96c4 24 5 40 5 59c0 36 -24 64 -60 64z" />
    <glyph glyph-name="at" unicode="@" 
d="M404 -113h-119c-179 0 -250 97 -250 283c0 62 8 135 19 196c35 191 122 344 318 344c145 0 217 -84 217 -205c0 -14 -1 -32 -4 -50l-61 -364h-113l14 82h-4c-25 -54 -55 -93 -107 -93c-75 0 -104 56 -104 154c0 157 65 274 164 274c51 0 82 -31 89 -80h4l6 35
c3 17 4 34 4 46c0 78 -42 107 -111 107c-92 0 -160 -52 -194 -258l-21 -126c-5 -30 -6 -63 -6 -85c0 -106 43 -165 152 -165h122zM361 172c21 0 37 13 49 28c11 14 27 42 33 80l14 85c5 32 -11 58 -47 58c-42 0 -64 -35 -74 -95l-8 -48c-2 -15 -3 -47 -3 -57
c0 -33 11 -51 36 -51z" />
    <glyph glyph-name="hyphen" unicode="-" 
d="M139 235l23 140h317l-23 -140h-317z" />
    <glyph glyph-name="uni00AD" unicode="&#xad;" 
d="M139 235l23 140h317l-23 -140h-317z" />
    <glyph glyph-name="endash" unicode="&#x2013;" horiz-adv-x="900" 
d="M62 245l20 119h775l-20 -119h-775z" />
    <glyph glyph-name="emdash" unicode="&#x2014;" 
d="M2 245l20 119h594l-20 -119h-594z" />
    <glyph glyph-name="underscore" unicode="_" 
d="M-12 -191l20 119h475l-20 -119h-475z" />
    <glyph glyph-name="period" unicode="." 
d="M255 -12c-66 0 -92 30 -92 67c0 11 2 27 6 51c7 42 42 80 115 80c66 0 92 -30 92 -67c0 -11 -2 -27 -6 -51c-7 -42 -42 -80 -115 -80z" />
    <glyph glyph-name="ellipsis" unicode="&#x2026;" 
d="M63 -7c-47 0 -65 23 -65 51c0 7 1 16 5 40c6 36 31 61 82 61c47 0 65 -23 65 -51c0 -7 -1 -16 -5 -40c-6 -36 -31 -61 -82 -61zM258 -7c-47 0 -65 23 -65 51c0 7 1 16 5 40c6 36 31 61 82 61c47 0 65 -23 65 -51c0 -7 -1 -16 -5 -40c-6 -36 -31 -61 -82 -61zM453 -7
c-47 0 -65 23 -65 51c0 7 1 16 5 40c6 36 31 61 82 61c47 0 65 -23 65 -51c0 -7 -1 -16 -5 -40c-6 -36 -31 -61 -82 -61z" />
    <glyph glyph-name="colon" unicode=":" 
d="M310 329c-66 0 -92 30 -92 67c0 11 2 27 6 51c7 42 42 80 115 80c66 0 92 -30 92 -67c0 -11 -2 -27 -6 -51c-7 -42 -42 -80 -115 -80zM255 -12c-66 0 -92 30 -92 67c0 11 2 27 6 51c7 42 42 80 115 80c66 0 92 -30 92 -67c0 -11 -2 -27 -6 -51c-7 -42 -42 -80 -115 -80z
" />
    <glyph glyph-name="comma" unicode="," 
d="M211 173h187l-183 -324h-113z" />
    <glyph glyph-name="semicolon" unicode=";" 
d="M310 329c-66 0 -92 30 -92 67c0 11 2 27 6 51c7 42 42 80 115 80c66 0 92 -30 92 -67c0 -11 -2 -27 -6 -51c-7 -42 -42 -80 -115 -80zM211 173h187l-183 -324h-113z" />
    <glyph glyph-name="quotesingle" unicode="'" 
d="M262 415l54 325h130l-54 -325h-130z" />
    <glyph glyph-name="quotedbl" unicode="&#x22;" 
d="M374 415l54 325h130l-54 -325h-130zM150 415l54 325h130l-54 -325h-130z" />
    <glyph glyph-name="quoteleft" unicode="&#x2018;" 
d="M368 740h107l-110 -325h-188z" />
    <glyph glyph-name="quoteright" unicode="&#x2019;" 
d="M326 740h188l-190 -325h-108z" />
    <glyph glyph-name="quotedblleft" unicode="&#x201c;" 
d="M509 740h107l-110 -325h-188zM252 740h107l-110 -325h-188z" />
    <glyph glyph-name="quotedblright" unicode="&#x201d;" 
d="M454 740h188l-190 -325h-108zM198 740h188l-190 -325h-108z" />
    <glyph glyph-name="quotesinglbase" unicode="&#x201a;" 
d="M230 173h188l-189 -324h-109z" />
    <glyph glyph-name="quotedblbase" unicode="&#x201e;" 
d="M352 173h188l-189 -324h-109zM96 173h188l-189 -324h-109z" />
    <glyph glyph-name="guilsinglleft" unicode="&#x2039;" 
d="M333 43l-170 168l22 130l214 160l39 -92l-152 -141l106 -138z" />
    <glyph glyph-name="guilsinglright" unicode="&#x203a;" 
d="M161 135l152 141l-106 138l59 87l170 -168l-22 -130l-214 -160z" />
    <glyph glyph-name="guillemotleft" unicode="&#xab;" 
d="M464 43l-170 168l22 130l214 160l39 -92l-152 -141l106 -138zM220 43l-170 168l22 130l214 160l39 -92l-152 -141l106 -138z" />
    <glyph glyph-name="guillemotright" unicode="&#xbb;" 
d="M274 135l152 141l-106 138l59 87l170 -168l-22 -130l-214 -160zM30 135l152 141l-106 138l59 87l170 -168l-22 -130l-214 -160z" />
    <glyph glyph-name="exclamdown" unicode="&#xa1;" 
d="M143 -182l34 203l96 253h53l12 -253l-34 -203h-161zM315 342c-62 0 -88 28 -88 63c0 8 1 18 6 48c7 42 39 75 105 75c62 0 88 -28 88 -63c0 -8 -1 -18 -6 -48c-7 -42 -39 -75 -105 -75z" />
    <glyph glyph-name="exclam" unicode="!" 
d="M269 243l-12 252l33 203h161l-34 -203l-96 -252h-52zM256 -12c-62 0 -88 28 -88 63c0 8 1 18 6 48c7 42 39 75 105 75c62 0 88 -28 88 -63c0 -8 -1 -18 -6 -48c-7 -42 -39 -75 -105 -75z" />
    <glyph glyph-name="questiondown" unicode="&#xbf;" 
d="M244 -194c-134 0 -216 72 -216 186c0 123 95 202 210 219l12 71h146l-25 -152c-113 -5 -172 -32 -184 -104c-2 -12 -2 -25 -2 -28c0 -45 36 -68 81 -68c50 0 87 33 108 84l114 -53c-35 -85 -112 -155 -244 -155zM334 342c-62 0 -88 28 -88 63c0 8 1 18 6 48
c7 42 39 75 105 75c62 0 88 -28 88 -63c0 -8 -1 -18 -6 -48c-7 -42 -39 -75 -105 -75z" />
    <glyph glyph-name="question" unicode="?" 
d="M198 234l25 152c113 5 172 32 184 104c2 12 2 25 2 28c0 45 -36 68 -81 68c-50 0 -87 -33 -108 -84l-114 53c35 85 112 155 244 155c134 0 216 -72 216 -186c0 -123 -95 -202 -210 -219l-12 -71h-146zM237 -12c-62 0 -88 28 -88 63c0 8 1 18 6 48c7 42 39 75 105 75
c62 0 88 -28 88 -63c0 -8 -1 -18 -6 -48c-7 -42 -39 -75 -105 -75z" />
    <glyph glyph-name="parenleft" unicode="(" 
d="M170 239c0 222 131 420 283 521h143c-143 -101 -259 -240 -284 -390l-16 -95c-4 -24 -5 -41 -5 -62c0 -131 76 -270 156 -350h-131c-81 79 -146 219 -146 376z" />
    <glyph glyph-name="parenright" unicode=")" 
d="M452 384c0 -222 -131 -420 -283 -521h-143c143 101 259 240 284 390l16 95c4 24 5 41 5 62c0 131 -76 270 -156 350h131c81 -79 146 -219 146 -376z" />
    <glyph glyph-name="bracketleft" unicode="[" 
d="M118 -138l150 898h320l-16 -98h-203l-117 -702h203l-17 -98h-320z" />
    <glyph glyph-name="bracketright" unicode="]" 
d="M501 760l-150 -898h-320l16 98h203l117 702h-203l17 98h320z" />
    <glyph glyph-name="braceleft" unicode="{" 
d="M268 -138c-78 0 -109 34 -109 83c0 8 1 24 10 70c13 67 48 99 76 127c34 34 42 51 42 71c0 31 -34 49 -99 49h-89l16 98h89c76 0 118 23 118 65c0 16 -6 34 -20 55c-19 28 -37 54 -37 99c0 14 8 62 10 74c10 63 53 107 142 107h177l-17 -98h-183c-8 -48 -10 -63 -10 -73
c0 -33 9 -48 25 -74c15 -24 31 -52 31 -86c0 -62 -43 -104 -134 -114l-2 -8c69 -8 102 -38 102 -85c0 -49 -34 -82 -65 -115c-25 -26 -48 -48 -56 -98l-8 -49h183l-16 -98h-176z" />
    <glyph glyph-name="braceright" unicode="}" 
d="M350 760c78 0 109 -34 109 -83c0 -8 -1 -24 -10 -70c-13 -67 -48 -99 -76 -127c-34 -34 -42 -51 -42 -71c0 -31 34 -49 99 -49h89l-16 -98h-89c-76 0 -118 -23 -118 -65c0 -16 6 -34 20 -55c19 -28 37 -54 37 -99c0 -14 -8 -62 -10 -74c-10 -63 -53 -107 -142 -107h-177
l17 98h183c8 48 10 63 10 73c0 33 -9 48 -25 74c-15 24 -31 52 -31 86c0 62 43 104 134 114l2 8c-69 8 -102 38 -102 85c0 49 34 82 65 115c25 26 48 48 56 98l8 49h-183l16 98h176z" />
    <glyph glyph-name="slash" unicode="/" 
d="M1 -138l464 898h134l-464 -898h-134z" />
    <glyph glyph-name="backslash" unicode="\" 
d="M330 -138l-169 898h119l169 -898h-119z" />
    <glyph glyph-name="fraction" unicode="&#x2044;" 
d="M568 698h106l-223 -300h-106zM181 300h106l-223 -300h-106z" />
    <glyph glyph-name="percent" unicode="%" 
d="M187 339c-88 0 -137 56 -137 146c0 134 72 225 185 225c88 0 137 -56 137 -146c0 -134 -72 -225 -185 -225zM196 425c41 0 56 29 63 71c3 18 12 61 12 77c0 35 -14 51 -45 51c-41 0 -56 -29 -63 -71c-3 -18 -12 -61 -12 -77c0 -35 14 -51 45 -51zM561 698h111l-201 -300
h-111zM162 300h111l-201 -300h-111zM398 -12c-88 0 -137 56 -137 146c0 134 72 225 185 225c88 0 137 -56 137 -146c0 -134 -72 -225 -185 -225zM407 74c41 0 56 29 63 71c3 18 12 61 12 77c0 35 -14 51 -45 51c-41 0 -56 -29 -63 -71c-3 -18 -12 -61 -12 -77
c0 -35 14 -51 45 -51z" />
    <glyph glyph-name="perthousand" unicode="&#x2030;" 
d="M168 401c-85 0 -128 49 -128 125c0 106 64 184 173 184c85 0 128 -49 128 -125c0 -106 -64 -184 -173 -184zM178 479c32 0 54 25 60 61c2 12 8 38 8 48c0 25 -14 44 -43 44c-32 0 -54 -25 -60 -61c-2 -12 -8 -38 -8 -48c0 -25 14 -44 43 -44zM67 343l485 143l9 -67
l-485 -143zM203 -12c-80 0 -125 51 -125 129c0 105 67 180 169 180c47 0 76 -17 94 -45h8c24 26 63 45 105 45c80 0 125 -51 125 -129c0 -105 -67 -180 -169 -180c-47 0 -76 17 -94 45h-8c-24 -26 -63 -45 -105 -45zM216 66c32 0 54 25 60 61c2 12 8 38 8 48
c0 25 -14 44 -43 44c-32 0 -54 -25 -60 -61c-2 -12 -8 -38 -8 -48c0 -25 14 -44 43 -44zM416 66c32 0 54 25 60 61c2 12 8 38 8 48c0 25 -14 44 -43 44c-32 0 -54 -25 -60 -61c-2 -12 -8 -38 -8 -48c0 -25 14 -44 43 -44z" />
    <glyph glyph-name="bar" unicode="|" 
d="M173 -138l150 898h124l-150 -898h-124z" />
    <glyph glyph-name="brokenbar" unicode="&#xa6;" 
d="M263 400l60 360h124l-60 -360h-124zM173 -138l60 359h124l-60 -359h-124z" />
    <glyph glyph-name="section" unicode="&#xa7;" 
d="M464 14c0 -111 -79 -190 -225 -190c-77 0 -159 22 -208 72l78 88c29 -35 81 -55 131 -55c52 0 97 26 97 66c0 29 -14 48 -78 70l-72 25c-90 31 -132 77 -132 131c0 80 44 130 142 155l2 13c-48 36 -69 83 -69 131c0 111 79 190 225 190c77 0 159 -22 208 -72l-78 -88
c-29 35 -81 55 -131 55c-52 0 -97 -26 -97 -66c0 -29 14 -48 78 -70l72 -25c90 -31 132 -77 132 -131c0 -80 -44 -130 -142 -155l-2 -13c48 -36 69 -83 69 -131zM410 255c0 29 -17 62 -71 79l-73 23c-7 2 -15 5 -22 8c-46 -31 -60 -53 -60 -86c0 -29 17 -62 71 -79l73 -23
c7 -2 15 -5 22 -8c46 31 60 53 60 86z" />
    <glyph glyph-name="paragraph" unicode="&#xb6;" 
d="M257 246c-106 0 -188 73 -188 192c0 153 127 261 263 261h303l-141 -847h-116l122 733h-71l-122 -733h-116z" />
    <glyph glyph-name="copyright" unicode="&#xa9;" 
d="M271 18c-152 0 -260 107 -260 282c0 224 145 380 345 380c152 0 260 -107 260 -282c0 -224 -145 -380 -345 -380zM276 72c138 0 244 96 269 237c10 55 11 74 11 89c0 118 -58 228 -205 228c-138 0 -244 -96 -269 -237c-10 -55 -11 -74 -11 -89c0 -118 58 -228 205 -228z
M296 153c-100 0 -165 66 -165 166c0 119 87 226 206 226c89 0 129 -44 149 -104l-90 -41c-7 31 -25 52 -60 52c-39 0 -67 -28 -73 -66l-11 -65c-1 -8 -2 -14 -2 -22c0 -31 19 -53 55 -53c35 0 58 23 77 52l81 -43c-32 -53 -82 -102 -167 -102z" />
    <glyph glyph-name="registered" unicode="&#xae;" 
d="M310 346c-93 0 -164 63 -164 161c0 110 86 203 204 203c93 0 164 -63 164 -161c0 -110 -86 -203 -204 -203zM311 386c80 0 138 47 151 125c3 18 5 30 5 39c0 69 -35 120 -118 120c-80 0 -138 -47 -151 -125c-3 -18 -5 -30 -5 -39c0 -69 35 -120 118 -120zM293 438h-56
l31 185h92c43 0 62 -22 62 -52c0 -34 -18 -57 -45 -68l29 -65h-61l-21 55h-22zM333 533c16 0 27 7 29 20c1 8 1 10 1 11c0 10 -8 16 -22 16h-24l-8 -47h24z" />
    <glyph glyph-name="trademark" unicode="&#x2122;" 
d="M109 409l38 228h-70l10 61h224l-10 -61h-69l-38 -228h-85zM285 409l48 289h90l34 -115h6l78 115h85l-48 -289h-72l16 98l23 93h-4l-103 -146l-52 146h-4l-8 -93l-16 -98h-73z" />
    <glyph glyph-name="ordfeminine" unicode="&#xaa;" 
d="M366 341l10 63h-8c-21 -46 -55 -71 -105 -71c-64 0 -108 34 -108 92c0 84 64 126 182 126h57l3 18c1 6 2 13 2 19c0 31 -23 47 -60 47c-42 0 -67 -19 -91 -45l-48 55c28 36 75 65 156 65c87 0 146 -37 146 -110c0 -9 0 -19 -2 -31l-38 -228h-96zM331 495
c-42 0 -69 -15 -73 -43c-2 -10 -2 -15 -2 -18c0 -22 19 -34 50 -34c36 0 66 18 72 52l7 43h-54z" />
    <glyph glyph-name="ordmasculine" unicode="&#xba;" 
d="M320 333c-102 0 -158 59 -158 153c0 135 81 224 208 224c102 0 158 -59 158 -153c0 -135 -81 -224 -208 -224zM330 409c44 0 76 34 84 82l10 60c1 6 2 14 2 21c0 40 -24 62 -66 62c-44 0 -76 -34 -84 -82l-10 -60c-1 -6 -2 -14 -2 -21c0 -40 24 -62 66 -62z" />
    <glyph glyph-name="degree" unicode="&#xb0;" 
d="M326 335c-102 0 -170 73 -170 170c0 118 94 205 211 205c102 0 170 -73 170 -170c0 -118 -94 -205 -211 -205zM334 428c62 0 101 51 101 111c0 43 -30 78 -76 78c-62 0 -101 -51 -101 -111c0 -43 30 -78 76 -78z" />
    <glyph glyph-name="asterisk" unicode="*" 
d="M157 40l-96 69l137 150l-158 61l55 111l158 -61l30 178h126l-30 -178l178 61l21 -114l-181 -65l88 -143l-109 -69l-88 150z" />
    <glyph glyph-name="dagger" unicode="&#x2020;" 
d="M163 -200l101 609h-176l18 107h176l37 224h124l-37 -224h177l-18 -107h-177l-101 -609h-124z" />
    <glyph glyph-name="daggerdbl" unicode="&#x2021;" 
d="M163 -200l37 224h-176l18 107h176l46 278h-176l18 107h176l37 224h124l-37 -224h176l-18 -107h-176l-46 -278h176l-18 -107h-176l-37 -224h-124z" />
    <glyph glyph-name="numbersign" unicode="#" 
d="M109 195h-110l18 108h129l31 92h-107l18 108h126l67 195h115l-239 -698h-115zM475 698h115l-67 -195h110l-18 -108h-129l-31 -92h107l-18 -108h-126l-67 -195h-115z" />
    <glyph glyph-name="asciicircum" unicode="^" 
d="M459 256l-106 306h-11l-198 -310l-110 52l255 394h156l133 -394z" />
    <glyph glyph-name="asciitilde" unicode="~" 
d="M411 211c-49 0 -80 15 -122 37c-34 18 -65 34 -107 34c-30 0 -52 -8 -84 -27l-36 82c31 34 77 62 144 62c49 0 80 -15 122 -37c34 -18 65 -34 107 -34c30 0 52 8 84 27l36 -82c-31 -34 -77 -62 -144 -62z" />
    <glyph glyph-name="plus" unicode="+" 
d="M205 62l31 185h-175l20 116h174l31 185h126l-31 -185h176l-20 -116h-175l-31 -185h-126z" />
    <glyph glyph-name="minus" unicode="&#x2212;" 
d="M61 247l20 116h476l-20 -116h-476z" />
    <glyph glyph-name="plusminus" unicode="&#xb1;" 
d="M226 183l28 167h-176l20 116h175l28 167h126l-28 -167h175l-20 -116h-174l-28 -167h-126zM20 0l20 116h476l-20 -116h-476z" />
    <glyph glyph-name="multiply" unicode="&#xd7;" 
d="M298 220l-169 -144l-76 88l172 146l-119 143l95 81l119 -144l169 144l75 -87l-171 -146l119 -144l-95 -81z" />
    <glyph glyph-name="divide" unicode="&#xf7;" 
d="M61 247l20 116h476l-20 -116h-476zM266 30c-56 0 -78 24 -78 54c0 8 2 23 5 41c6 36 34 65 94 65c56 0 78 -24 78 -54c0 -8 -2 -23 -5 -41c-6 -36 -34 -65 -94 -65zM330 420c-56 0 -78 24 -78 54c0 8 2 23 5 41c6 36 34 65 94 65c56 0 78 -24 78 -54c0 -8 -2 -23 -5 -41
c-6 -36 -34 -65 -94 -65z" />
    <glyph glyph-name="equal" unicode="=" 
d="M80 362l20 116h476l-20 -116h-476zM42 132l20 116h476l-20 -116h-476z" />
    <glyph glyph-name="approxequal" unicode="&#x2248;" 
d="M392 96c-49 0 -80 15 -122 37c-34 18 -65 34 -107 34c-30 0 -52 -8 -84 -27l-36 82c31 34 77 62 144 62c49 0 80 -15 122 -37c34 -18 65 -34 107 -34c30 0 52 8 84 27l36 -82c-31 -34 -77 -62 -144 -62zM430 326c-49 0 -80 15 -122 37c-34 18 -65 34 -107 34
c-30 0 -52 -8 -84 -27l-36 82c31 34 77 62 144 62c49 0 80 -15 122 -37c34 -18 65 -34 107 -34c30 0 52 8 84 27l36 -82c-31 -34 -77 -62 -144 -62z" />
    <glyph glyph-name="notequal" unicode="&#x2260;" 
d="M56 37l68 95h-82l20 116h147l82 114h-211l20 116h268l68 95h126l-68 -95h82l-20 -116h-147l-82 -114h211l-20 -116h-269l-67 -95h-126z" />
    <glyph glyph-name="less" unicode="&#x3c;" 
d="M81 237l23 138l468 229l-24 -143l-323 -157l-1 -8l271 -158l-22 -131z" />
    <glyph glyph-name="greater" unicode="&#x3e;" 
d="M69 151l324 157l1 8l-272 157l22 131l393 -229l-23 -138l-469 -231z" />
    <glyph glyph-name="lessequal" unicode="&#x2264;" 
d="M43 0l19 114h430l-19 -114h-430zM551 466l-305 -98l-1 -7l272 -96l-20 -122l-403 158l22 137l456 157z" />
    <glyph glyph-name="greaterequal" unicode="&#x2265;" 
d="M89 273l306 98l1 7l-273 97l20 120l403 -157l-23 -137l-456 -157zM62 114h430l-19 -114h-430z" />
    <glyph glyph-name="periodcentered" unicode="&#xb7;" 
d="M295 207c-66 0 -92 30 -92 67c0 11 2 27 6 51c7 42 42 80 115 80c66 0 92 -30 92 -67c0 -11 -2 -27 -6 -51c-7 -42 -42 -80 -115 -80z" />
    <glyph glyph-name="bullet" unicode="&#x2022;" 
d="M291 157c-104 0 -140 45 -140 106c0 9 0 22 6 58c13 78 63 130 169 130c104 0 140 -45 140 -106c0 -9 0 -22 -6 -58c-13 -78 -63 -130 -169 -130z" />
    <glyph glyph-name="lozenge" unicode="&#x25ca;" 
d="M208 0l-164 349l272 349h108l164 -349l-272 -349h-108zM281 121l177 232l-101 224h-6l-177 -232l101 -224h6z" />
    <glyph glyph-name="logicalnot" unicode="&#xac;" 
d="M370 55l32 192h-341l20 116h460l-52 -308h-119z" />
    <glyph glyph-name="radical" unicode="&#x221a;" 
d="M172 0l-53 394h-80l20 122h173l24 -195l18 -217h8l91 217l172 377h124l-322 -698h-175z" />
    <glyph glyph-name="integral" unicode="&#x222b;" 
d="M154 -212c-73 0 -112 49 -164 123l-41 59l100 69l103 -136l12 5l114 686c14 86 71 146 178 146h178l-19 -114h-186l-114 -679c-19 -112 -77 -159 -161 -159z" />
    <glyph glyph-name="infinity" unicode="&#x221e;" 
d="M141 126c-81 0 -126 52 -126 139c0 132 68 219 179 219c70 0 110 -33 141 -129h4c20 84 76 129 137 129c81 0 126 -52 126 -139c0 -132 -68 -219 -179 -219c-70 0 -110 33 -141 129h-4c-20 -84 -76 -129 -137 -129zM173 227c37 0 70 28 92 68c-10 42 -28 88 -70 88
c-31 0 -53 -28 -60 -70c-3 -18 -4 -30 -4 -37c0 -32 17 -49 42 -49zM422 227c31 0 53 28 60 70c3 18 4 30 4 37c0 32 -17 49 -42 49c-37 0 -70 -28 -92 -68c10 -42 28 -88 70 -88z" />
    <glyph glyph-name="uni212E" unicode="&#x212e;" 
d="M185 85c24 -23 69 -41 115 -41c98 0 156 57 197 136l52 -29c-48 -89 -123 -163 -249 -163c-166 0 -274 154 -274 361s108 361 274 361s274 -154 274 -361h-389v-264zM415 401v217c-25 23 -69 38 -115 38s-90 -15 -115 -38v-217h230z" />
    <glyph glyph-name="uni2113" unicode="&#x2113;" 
d="M328 -12c-103 0 -186 66 -186 172v7c-10 -7 -35 -23 -47 -30l-62 99c37 21 80 50 102 65v245c0 149 79 206 181 206c117 0 182 -72 182 -189c0 -126 -75 -217 -227 -334v-42c0 -50 22 -77 61 -77c43 0 69 24 109 106l111 -57c-39 -101 -106 -171 -224 -171zM320 630
c-26 0 -49 -18 -49 -70v-184c52 46 93 101 93 174v19c0 43 -18 61 -44 61z" />
    <glyph glyph-name="uni2116" unicode="&#x2116;" 
d="M500 326c-67 0 -101 47 -101 124c0 23 3 59 9 92c17 94 54 164 136 164c67 0 101 -47 101 -124c0 -23 -3 -59 -9 -92c-17 -94 -54 -164 -136 -164zM-24 0l116 698h174l-30 -335l-25 -263h12l99 598h87l-116 -698h-174l30 335l25 263h-12l-99 -598h-87zM505 402
c29 0 38 26 46 76l12 77c3 17 5 31 5 42c0 19 -9 33 -29 33c-29 0 -38 -26 -46 -76l-12 -77c-3 -17 -5 -31 -5 -42c0 -19 9 -33 29 -33zM365 227l12 76h220l-12 -76h-220z" />
    <glyph glyph-name="partialdiff" unicode="&#x2202;" 
d="M267 -12c-150 0 -229 82 -229 217c0 171 104 299 246 299c74 0 118 -37 140 -96l8 4c-20 107 -112 197 -262 286h200c100 -67 198 -180 198 -354c0 -240 -129 -356 -301 -356zM278 97c64 0 109 43 122 121l9 55c2 12 3 21 3 31c0 57 -34 89 -93 89
c-64 0 -109 -43 -122 -121l-9 -55c-2 -12 -3 -21 -3 -31c0 -57 34 -89 93 -89z" />
    <glyph glyph-name="cent" unicode="&#xa2;" 
d="M216 -6c-104 22 -159 96 -159 212c0 163 89 301 248 320l17 104h112l-18 -109c76 -17 122 -62 139 -122l-111 -46c-10 29 -25 51 -55 61l-52 -314c28 9 58 33 106 96l86 -52c-55 -88 -111 -140 -202 -153l-17 -105h-112zM197 194c0 -42 14 -74 47 -89l52 311
c-45 -15 -76 -55 -85 -114l-10 -62c-3 -16 -4 -30 -4 -46z" />
    <glyph glyph-name="Euro" unicode="&#x20ac;" 
d="M308 -12c-169 0 -255 104 -255 278c0 266 139 444 345 444c126 0 191 -58 227 -126l-118 -71c-21 53 -60 80 -120 80c-71 0 -118 -44 -145 -118h223l-15 -90h-228l-12 -72h228l-15 -90h-222c3 -75 42 -118 118 -118c56 0 98 25 136 76l92 -75
c-52 -59 -118 -118 -239 -118z" />
    <glyph glyph-name="florin" unicode="&#x192;" 
d="M124 -212c-76 0 -114 47 -163 123l-38 59l97 66l97 -132l18 6l99 414h-143l19 114h151l29 122c21 87 87 138 194 138h165l-19 -114h-186l-35 -146h167l-19 -114h-175l-91 -378c-26 -110 -81 -158 -167 -158z" />
    <glyph glyph-name="sterling" unicode="&#xa3;" 
d="M472 -12c-46 0 -98 14 -155 36l-152 58l-12 -82h-125l22 141c66 27 108 68 108 137c0 6 0 12 -1 18h-107l17 101h74c-4 22 -8 49 -8 76c0 140 116 237 261 237c102 0 173 -46 216 -127l-114 -71c-23 45 -56 71 -106 71c-66 0 -114 -40 -114 -118c0 -24 4 -46 9 -68h177
l-17 -101h-141v-8c0 -52 -40 -81 -83 -93l-4 -7l237 -74l11 13l-17 89l99 26l10 -30c15 -46 21 -71 21 -103c0 -62 -39 -121 -106 -121z" />
    <glyph glyph-name="dollar" unicode="$" 
d="M210 -7c-87 12 -158 49 -192 105l90 92c31 -44 81 -69 131 -79l32 190l-20 6c-107 31 -161 91 -161 178c0 125 90 211 239 223l17 103h112l-18 -109c66 -14 120 -47 151 -91l-92 -90c-23 31 -51 51 -89 61l-29 -174l14 -4c100 -31 167 -82 167 -177
c0 -130 -87 -222 -241 -237l-17 -103h-112zM232 501c0 -36 19 -51 62 -65l24 148c-59 -11 -86 -44 -86 -83zM419 211c0 32 -20 49 -61 64l-26 -162c59 13 87 47 87 98z" />
    <glyph glyph-name="yen" unicode="&#xa5;" 
d="M38 112h169l16 100h-168l19 112h127l-126 374h150l89 -307h8l192 307h159l-250 -374h128l-19 -112h-169l-16 -100h169l-19 -112h-478z" />
    <glyph glyph-name="uni0E3F" unicode="&#xe3f;" 
d="M296 -113h-112l19 113h-178l115 698h179l19 113h112l-19 -115c103 -10 159 -71 159 -159c0 -96 -55 -158 -156 -178v-5c79 -16 125 -59 125 -137c0 -131 -91 -217 -239 -217h-5zM279 402l32 192h-56l-32 -192h56zM450 533c0 33 -17 51 -47 58l-31 -186c42 7 63 27 70 69
l5 30c2 12 3 20 3 29zM229 104l33 199h-56l-33 -199h56zM422 238c0 41 -20 61 -67 65l-33 -198c52 4 83 23 91 70l5 30c2 12 4 27 4 33z" />
    <glyph glyph-name="colonmonetary" unicode="&#x20a1;" 
d="M273 -12c-17 0 -34 2 -49 4l-24 -105h-71l30 127c-74 39 -111 123 -111 241c0 235 91 415 276 449l24 107h71l-24 -101c17 0 34 -2 49 -4l24 105h71l-29 -123c55 -25 90 -71 107 -142l-117 -52c-5 24 -12 43 -23 59l-103 -434c29 15 54 42 76 83l103 -53
c-52 -91 -121 -138 -208 -155l-25 -107h-71zM368 598l-118 -494c11 -3 24 -5 51 -5l117 494c-13 3 -30 5 -46 5h-4zM182 220c0 -26 3 -49 11 -67l101 425c-47 -29 -72 -89 -85 -167l-21 -124c-4 -24 -6 -46 -6 -67z" />
    <glyph glyph-name="uni20A4" unicode="&#x20a4;" 
d="M466 -12c-37 0 -92 14 -149 36l-152 58l-12 -82h-125l22 141c55 22 94 55 105 105h-113l14 79h98c-3 20 -8 39 -12 61h-75l14 79h52v8c0 140 116 237 262 237c101 0 172 -46 215 -127l-114 -71c-23 45 -55 71 -107 71c-64 0 -113 -39 -113 -117v-1h180l-14 -79h-154
c5 -21 10 -40 13 -61h130l-14 -79h-123c-16 -27 -44 -43 -73 -51l-4 -7l237 -74l11 13l-17 89l99 26l10 -30c15 -46 21 -72 21 -99c0 -66 -35 -125 -112 -125z" />
    <glyph glyph-name="uni20A6" unicode="&#x20a6;" 
d="M281 239h-104l-39 -239h-108l38 231h-45l15 93h46l8 50h-46l15 93h47l38 231h179l28 -239h103l40 239h108l-38 -231h45l-15 -93h-46l-8 -50h46l-15 -93h-47l-38 -231h-179zM272 317l-30 249h-10l-42 -249h82zM392 132h10l41 249h-81z" />
    <glyph glyph-name="uni20A8" unicode="&#x20a8;" 
d="M-5 0l117 698h149c101 0 154 -54 154 -147c0 -84 -40 -167 -116 -205l30 -179c8 -50 25 -82 71 -82c35 0 53 18 53 50c0 17 -8 33 -25 54l-12 15c-29 36 -47 70 -47 112c0 97 73 160 163 160c36 0 70 -9 95 -27l-47 -86c-14 11 -28 17 -48 17c-26 0 -44 -18 -44 -48
c0 -19 9 -34 25 -54l14 -18c29 -37 45 -71 45 -113c0 -93 -48 -159 -185 -159c-95 0 -167 48 -181 150l-26 183h-13l-54 -321h-118zM217 418c42 0 63 20 71 69l7 42c1 7 2 16 2 23c0 33 -16 46 -50 46h-34l-30 -180h34z" />
    <glyph glyph-name="uni20A9" unicode="&#x20a9;" 
d="M70 270h-59l15 91h56l11 76h-55l15 92h52l23 169h126l-30 -176h243l30 176h123l-35 -169h52l-15 -92h-55l-15 -76h57l-15 -91h-60l-54 -270h-180l43 444h-24l-105 -444h-180zM170 93l83 351h-50l-58 -351h25zM404 93l58 351h-50l-33 -351h25z" />
    <glyph glyph-name="uni20AA" unicode="&#x20aa;" 
d="M231 532h95l-74 -443h85c56 0 108 30 121 109l83 500h102l-83 -498c-22 -132 -94 -200 -195 -200h-223zM109 698h185c104 0 171 -49 171 -150c0 -15 -1 -31 -4 -48l-56 -334h-95l55 333c2 14 3 24 3 33c0 55 -34 77 -83 77h-89l-101 -609h-102z" />
    <glyph glyph-name="uni20AB" unicode="&#x20ab;" 
d="M380 252h-6c-31 -52 -74 -97 -149 -97c-86 0 -143 50 -143 154c0 158 88 236 204 236c78 0 107 -45 120 -97h7l23 137h-128l18 104h127l9 51h138l-9 -51h51l-18 -104h-50l-70 -420h-138zM297 258c53 0 90 33 95 63l9 54c5 30 -15 67 -74 67c-56 0 -86 -35 -96 -82
c-4 -19 -5 -28 -5 -38c0 -38 23 -64 71 -64zM40 0l18 106h459l-18 -106h-459z" />
    <glyph glyph-name="uni20AD" unicode="&#x20ad;" 
d="M176 0h-148l49 297h-51l20 118h51l47 283h148l-47 -283h39l214 283h160l-222 -283h146l-20 -118h-138l133 -297h-159l-130 297h-43z" />
    <glyph glyph-name="uni20AE" unicode="&#x20ae;" 
d="M358 179l-30 -179h-140l20 118l-139 -57l17 100l138 56l14 83l-138 -56l17 100l138 57l30 181h-206l19 116h552l-19 -116h-206l-20 -120l138 56l-17 -100l-138 -57l-14 -83l140 57l-17 -100z" />
    <glyph glyph-name="uni20B1" unicode="&#x20b1;" 
d="M87 318h-51l15 93h52l8 50h-51l15 93h52l24 144h231c103 0 168 -43 183 -144h64l-15 -93h-46c-1 -18 -3 -34 -5 -50h42l-15 -93h-50c-38 -98 -115 -146 -233 -146h-104l-29 -172h-140zM434 549c-3 37 -27 56 -81 56h-78l-10 -56h169zM414 407l9 58h-171l-10 -58h172z
M301 266c54 0 83 16 97 57h-170l-9 -57h82z" />
    <glyph glyph-name="uni20B2" unicode="&#x20b2;" 
d="M157 10c-77 38 -116 122 -116 242c0 255 111 454 327 458l31 101h120l-43 -120c61 -26 98 -79 109 -158l-118 -40c-4 31 -14 60 -35 79l-61 -200h193l-23 -138c-27 -158 -119 -245 -277 -247l-30 -100h-115zM181 214c0 -37 7 -64 22 -83l139 464
c-82 -10 -116 -82 -133 -189l-20 -120c-6 -36 -8 -59 -8 -72zM290 101c58 2 108 40 122 124l7 42h-79z" />
    <glyph glyph-name="uni20B4" unicode="&#x20b4;" 
d="M293 -12c-143 0 -212 83 -212 186c0 22 3 41 11 59h-68l14 81h109l171 84v6h-265l14 81h342c2 8 3 16 3 26c0 54 -28 83 -82 83c-46 0 -85 -21 -123 -55l-61 94c50 49 119 77 197 77c130 0 207 -79 207 -170c0 -21 -4 -39 -9 -55h71l-14 -81h-108l-170 -84l-1 -6h265
l-14 -81h-346c-7 -13 -11 -28 -11 -48c0 -55 32 -83 88 -83c49 0 97 21 147 67l61 -98c-54 -53 -129 -83 -216 -83z" />
    <glyph glyph-name="uni20B5" unicode="&#x20b5;" 
d="M164 13c-78 39 -116 123 -116 242c0 246 116 455 329 455h3l30 101h114l-36 -118c76 -28 106 -88 115 -158l-122 -39c-6 34 -14 63 -38 82l-148 -477c74 5 110 57 134 118l124 -37c-50 -120 -131 -194 -270 -194h-13l-31 -101h-114zM189 216c0 -36 7 -63 21 -82l143 463
c-75 -10 -117 -76 -136 -185l-21 -125c-5 -27 -7 -50 -7 -71z" />
    <glyph glyph-name="uni20B8" unicode="&#x20b8;" 
d="M101 594l17 104h510l-17 -104h-510zM402 418l-70 -418h-148l70 418h-182l17 104h510l-17 -104h-180z" />
    <glyph glyph-name="uni20B9" unicode="&#x20b9;" 
d="M317 0l-153 247h-119l18 108h129c72 0 110 31 128 73h-244l15 92h239c-8 47 -39 68 -89 70h-138l18 108h517l-18 -108h-210l-1 -5c26 -6 49 -25 58 -65h141l-15 -92h-126c-15 -78 -68 -137 -151 -165l167 -263h-166z" />
    <glyph glyph-name="uni20BA" unicode="&#x20ba;" 
d="M102 200l-76 -32l18 104l75 32l11 66l-76 -32l18 104l75 32l37 224h138l-26 -160l174 75l-17 -104l-174 -75l-11 -66l173 75l-17 -104l-174 -75l-24 -144h60c91 0 142 50 164 185h133c-21 -190 -127 -305 -305 -305h-210z" />
    <glyph glyph-name="uni20BD" unicode="&#x20bd;" 
d="M219 115l-19 -115h-149l19 115h-60l18 107h60l9 54h-60l18 107h60l53 315h247c127 0 193 -70 193 -177c0 -145 -94 -245 -252 -245h-110l-9 -54h206l-18 -107h-206zM264 383h73c68 0 98 24 108 84l6 36c1 6 3 16 3 26c0 40 -24 59 -81 59h-75z" />
    <glyph glyph-name="uni20BF" unicode="&#x20bf;" 
d="M271 0h-61l-19 -113h-83l19 113h-92l117 698h91l19 113h83l-19 -113h62l18 113h83l-20 -125c70 -22 107 -77 107 -149c0 -96 -48 -158 -145 -182l-1 -5c73 -14 114 -59 114 -133c0 -116 -71 -196 -190 -214l-19 -116h-83zM246 402h57c73 0 105 20 114 74l5 30
c2 12 4 21 4 32c0 45 -30 61 -83 61h-64zM196 100h76c65 0 107 23 116 77l4 24c2 12 5 32 5 45c0 38 -28 57 -85 57h-82z" />
    <glyph glyph-name="fi" unicode="&#xfb01;" 
d="M101 402h-45l19 114h45l14 83c14 83 72 141 175 141h101l-19 -114h-106l-19 -110h312l-86 -516h-146l67 402h-166l-67 -402h-146zM523 584c-60 0 -82 26 -82 61c0 7 0 10 5 40c6 39 30 66 94 66c60 0 82 -26 82 -61c0 -7 0 -10 -5 -40c-6 -39 -30 -66 -94 -66z" />
    <glyph glyph-name="fl" unicode="&#xfb02;" 
d="M101 402h-45l19 114h45l14 83c14 84 72 141 175 141h102l-19 -114h-107l-19 -110h109l-19 -114h-109l-67 -402h-146zM469 740h146l-123 -740h-146z" />
    <glyph glyph-name="aacute" unicode="&#xe1;" 
d="M355 570l-86 46l115 190l114 -60zM347 0l20 123h-5c-39 -79 -85 -135 -173 -135c-109 0 -151 79 -151 200c0 205 94 340 237 340c81 0 120 -40 135 -108h7l16 96h146l-86 -516h-146zM254 101c36 0 63 19 87 49c16 19 40 54 47 97l14 83c9 54 -17 85 -80 85
c-72 0 -109 -44 -122 -122l-10 -60c-2 -12 -4 -28 -4 -45c1 -49 18 -87 68 -87z" />
    <glyph glyph-name="abreve" unicode="&#x103;" 
d="M355 570c-113 0 -158 88 -179 170l81 42l20 -37c24 -45 42 -72 84 -72c36 0 58 25 94 74l26 35l83 -42c-43 -85 -100 -170 -209 -170zM347 0l20 123h-5c-39 -79 -85 -135 -173 -135c-109 0 -151 79 -151 200c0 205 94 340 237 340c81 0 120 -40 135 -108h7l16 96h146
l-86 -516h-146zM254 101c36 0 63 19 87 49c16 19 40 54 47 97l14 83c9 54 -17 85 -80 85c-72 0 -109 -44 -122 -122l-10 -60c-2 -12 -4 -28 -4 -45c1 -49 18 -87 68 -87z" />
    <glyph glyph-name="acircumflex" unicode="&#xe2;" 
d="M435 785l108 -158l-76 -57l-106 115l-134 -115l-70 57l154 158h124zM347 0l20 123h-5c-39 -79 -85 -135 -173 -135c-109 0 -151 79 -151 200c0 205 94 340 237 340c81 0 120 -40 135 -108h7l16 96h146l-86 -516h-146zM254 101c36 0 63 19 87 49c16 19 40 54 47 97l14 83
c9 54 -17 85 -80 85c-72 0 -109 -44 -122 -122l-10 -60c-2 -12 -4 -28 -4 -45c1 -49 18 -87 68 -87z" />
    <glyph glyph-name="adieresis" unicode="&#xe4;" 
d="M240 592c-54 0 -74 23 -74 54c0 6 2 17 5 35c6 36 27 60 85 60c54 0 74 -23 74 -54c0 -6 -2 -17 -5 -35c-6 -36 -27 -60 -85 -60zM458 592c-54 0 -74 23 -74 54c0 6 2 17 5 35c6 36 27 60 85 60c54 0 74 -23 74 -54c0 -6 -2 -17 -5 -35c-6 -36 -27 -60 -85 -60zM347 0
l20 123h-5c-39 -79 -85 -135 -173 -135c-109 0 -151 79 -151 200c0 205 94 340 237 340c81 0 120 -40 135 -108h7l16 96h146l-86 -516h-146zM254 101c36 0 63 19 87 49c16 19 40 54 47 97l14 83c9 54 -17 85 -80 85c-72 0 -109 -44 -122 -122l-10 -60c-2 -12 -4 -28 -4 -45
c1 -49 18 -87 68 -87z" />
    <glyph glyph-name="uni1EA1" unicode="&#x1ea1;" 
d="M226 -202c-54 0 -72 23 -72 54c0 7 2 18 5 36c6 36 28 59 83 59c54 0 72 -23 72 -54c0 -7 -2 -18 -5 -36c-6 -36 -28 -59 -83 -59zM347 0l20 123h-5c-39 -79 -85 -135 -173 -135c-109 0 -151 79 -151 200c0 205 94 340 237 340c81 0 120 -40 135 -108h7l16 96h146
l-86 -516h-146zM254 101c36 0 63 19 87 49c16 19 40 54 47 97l14 83c9 54 -17 85 -80 85c-72 0 -109 -44 -122 -122l-10 -60c-2 -12 -4 -28 -4 -45c1 -49 18 -87 68 -87z" />
    <glyph glyph-name="agrave" unicode="&#xe0;" 
d="M211 747l124 59l77 -196l-87 -39zM347 0l20 123h-5c-39 -79 -85 -135 -173 -135c-109 0 -151 79 -151 200c0 205 94 340 237 340c81 0 120 -40 135 -108h7l16 96h146l-86 -516h-146zM254 101c36 0 63 19 87 49c16 19 40 54 47 97l14 83c9 54 -17 85 -80 85
c-72 0 -109 -44 -122 -122l-10 -60c-2 -12 -4 -28 -4 -45c1 -49 18 -87 68 -87z" />
    <glyph glyph-name="uni1EA3" unicode="&#x1ea3;" 
d="M259 792h147c55 0 81 -26 81 -59c0 -41 -21 -71 -49 -106l-54 -66l-71 34l50 93h-122zM347 0l20 123h-5c-39 -79 -85 -135 -173 -135c-109 0 -151 79 -151 200c0 205 94 340 237 340c81 0 120 -40 135 -108h7l16 96h146l-86 -516h-146zM254 101c36 0 63 19 87 49
c16 19 40 54 47 97l14 83c9 54 -17 85 -80 85c-72 0 -109 -44 -122 -122l-10 -60c-2 -12 -4 -28 -4 -45c1 -49 18 -87 68 -87z" />
    <glyph glyph-name="amacron" unicode="&#x101;" 
d="M213 718h305l-17 -102h-305zM347 0l20 123h-5c-39 -79 -85 -135 -173 -135c-109 0 -151 79 -151 200c0 205 94 340 237 340c81 0 120 -40 135 -108h7l16 96h146l-86 -516h-146zM254 101c36 0 63 19 87 49c16 19 40 54 47 97l14 83c9 54 -17 85 -80 85
c-72 0 -109 -44 -122 -122l-10 -60c-2 -12 -4 -28 -4 -45c1 -49 18 -87 68 -87z" />
    <glyph glyph-name="aogonek" unicode="&#x105;" 
d="M493 0c-105 -63 -116 -90 -116 -110c0 -17 11 -30 37 -30c20 0 39 6 53 27l54 -45c-25 -32 -64 -54 -121 -54c-71 0 -122 30 -122 85c0 49 41 97 140 123l-1 4h-70l20 123h-5c-39 -79 -85 -135 -173 -135c-109 0 -151 79 -151 200c0 205 96 340 235 340
c83 0 122 -40 137 -108h7l16 96h146zM254 101c36 0 63 19 87 49c16 19 40 54 47 97l14 83c9 54 -17 85 -80 85c-73 0 -109 -45 -122 -122l-10 -60c-2 -12 -4 -28 -4 -45c1 -49 18 -87 68 -87z" />
    <glyph glyph-name="aring" unicode="&#xe5;" 
d="M341 550c-73 0 -130 54 -130 124c0 94 76 160 168 160c73 0 130 -54 130 -124c0 -94 -76 -160 -168 -160zM349 624c34 0 54 21 59 51c4 24 6 35 6 45c0 25 -14 40 -43 40c-34 0 -54 -21 -59 -51c-4 -24 -6 -35 -6 -45c0 -25 14 -40 43 -40zM347 0l20 123h-5
c-39 -79 -85 -135 -173 -135c-109 0 -151 79 -151 200c0 205 94 340 237 340c81 0 120 -40 135 -108h7l16 96h146l-86 -516h-146zM254 101c36 0 63 19 87 49c16 19 40 54 47 97l14 83c9 54 -17 85 -80 85c-72 0 -109 -44 -122 -122l-10 -60c-2 -12 -4 -28 -4 -45
c1 -49 18 -87 68 -87z" />
    <glyph glyph-name="aringacute" unicode="&#x1fb;" 
d="M378 806l-49 56l142 117l65 -79zM339 556c-75 0 -133 39 -133 105c0 84 76 134 168 134c75 0 133 -39 133 -105c0 -84 -76 -134 -168 -134zM348 625c36 0 55 14 60 44c2 12 3 19 3 22c0 24 -16 35 -46 35c-36 0 -55 -14 -60 -44c-2 -12 -3 -19 -3 -22
c0 -24 16 -35 46 -35zM347 0l20 123h-5c-39 -79 -85 -135 -173 -135c-109 0 -151 79 -151 200c0 205 94 340 237 340c81 0 120 -40 135 -108h7l16 96h146l-86 -516h-146zM254 101c36 0 63 19 87 49c16 19 40 54 47 97l14 83c9 54 -17 85 -80 85c-72 0 -109 -44 -122 -122
l-10 -60c-2 -12 -4 -28 -4 -45c1 -49 18 -87 68 -87z" />
    <glyph glyph-name="atilde" unicode="&#xe3;" 
d="M421 592c-30 0 -50 10 -73 21c-27 12 -49 22 -75 22c-23 0 -39 -8 -63 -25l-40 67c29 36 71 64 124 64c30 0 50 -10 73 -21c27 -12 49 -22 75 -22c23 0 39 8 63 25l40 -67c-29 -36 -71 -64 -124 -64zM347 0l20 123h-5c-39 -79 -85 -135 -173 -135
c-109 0 -151 79 -151 200c0 205 94 340 237 340c81 0 120 -40 135 -108h7l16 96h146l-86 -516h-146zM254 101c36 0 63 19 87 49c16 19 40 54 47 97l14 83c9 54 -17 85 -80 85c-72 0 -109 -44 -122 -122l-10 -60c-2 -12 -4 -28 -4 -45c1 -49 18 -87 68 -87z" />
    <glyph glyph-name="uni1EAF" unicode="&#x1eaf;" 
d="M353 563c-121 0 -172 73 -192 149l74 47l18 -28c33 -51 55 -67 100 -67c40 0 67 15 113 67l25 28l74 -47c-48 -84 -102 -149 -212 -149zM380 724l-79 40l103 194l109 -58zM347 0l20 123h-5c-39 -79 -85 -135 -173 -135c-109 0 -151 79 -151 200c0 205 94 340 237 340
c81 0 120 -40 135 -108h7l16 96h146l-86 -516h-146zM254 101c36 0 63 19 87 49c16 19 40 54 47 97l14 83c9 54 -17 85 -80 85c-72 0 -109 -44 -122 -122l-10 -60c-2 -12 -4 -28 -4 -45c1 -49 18 -87 68 -87z" />
    <glyph glyph-name="uni1EB7" unicode="&#x1eb7;" 
d="M226 -202c-54 0 -72 23 -72 54c0 7 2 18 5 36c6 36 28 59 83 59c54 0 72 -23 72 -54c0 -7 -2 -18 -5 -36c-6 -36 -28 -59 -83 -59zM355 570c-113 0 -158 88 -179 170l81 42l20 -37c24 -45 42 -72 84 -72c36 0 58 25 94 74l26 35l83 -42c-43 -85 -100 -170 -209 -170z
M347 0l20 123h-5c-39 -79 -85 -135 -173 -135c-109 0 -151 79 -151 200c0 205 94 340 237 340c81 0 120 -40 135 -108h7l16 96h146l-86 -516h-146zM254 101c36 0 63 19 87 49c16 19 40 54 47 97l14 83c9 54 -17 85 -80 85c-72 0 -109 -44 -122 -122l-10 -60
c-2 -12 -4 -28 -4 -45c1 -49 18 -87 68 -87z" />
    <glyph glyph-name="uni1EB1" unicode="&#x1eb1;" 
d="M353 563c-121 0 -172 73 -192 149l74 47l18 -28c33 -51 55 -67 100 -67c40 0 67 15 113 67l25 28l74 -47c-48 -84 -102 -149 -212 -149zM229 901l119 55l69 -193l-80 -38zM347 0l20 123h-5c-39 -79 -85 -135 -173 -135c-109 0 -151 79 -151 200c0 205 94 340 237 340
c81 0 120 -40 135 -108h7l16 96h146l-86 -516h-146zM254 101c36 0 63 19 87 49c16 19 40 54 47 97l14 83c9 54 -17 85 -80 85c-72 0 -109 -44 -122 -122l-10 -60c-2 -12 -4 -28 -4 -45c1 -49 18 -87 68 -87z" />
    <glyph glyph-name="uni1EB3" unicode="&#x1eb3;" 
d="M353 563c-121 0 -172 73 -192 149l74 47l18 -28c33 -51 55 -67 100 -67c40 0 67 15 113 67l25 28l74 -47c-48 -84 -102 -149 -212 -149zM250 943h142c55 0 81 -25 81 -62s-27 -75 -82 -131l-36 -37l-61 31l57 98h-117zM347 0l20 123h-5c-39 -79 -85 -135 -173 -135
c-109 0 -151 79 -151 200c0 205 94 340 237 340c81 0 120 -40 135 -108h7l16 96h146l-86 -516h-146zM254 101c36 0 63 19 87 49c16 19 40 54 47 97l14 83c9 54 -17 85 -80 85c-72 0 -109 -44 -122 -122l-10 -60c-2 -12 -4 -28 -4 -45c1 -49 18 -87 68 -87z" />
    <glyph glyph-name="uni1EB5" unicode="&#x1eb5;" 
d="M353 563c-121 0 -172 73 -192 149l74 47l18 -28c33 -51 55 -67 100 -67c40 0 67 15 113 67l25 28l74 -47c-48 -84 -102 -149 -212 -149zM430 782c-32 0 -51 9 -71 18c-28 12 -48 20 -74 20c-25 0 -40 -8 -64 -25l-38 65c29 34 70 61 126 61c32 0 51 -9 71 -18
c28 -12 48 -20 74 -20c25 0 40 8 64 25l38 -65c-29 -34 -70 -61 -126 -61zM347 0l20 123h-5c-39 -79 -85 -135 -173 -135c-109 0 -151 79 -151 200c0 205 94 340 237 340c81 0 120 -40 135 -108h7l16 96h146l-86 -516h-146zM254 101c36 0 63 19 87 49c16 19 40 54 47 97
l14 83c9 54 -17 85 -80 85c-72 0 -109 -44 -122 -122l-10 -60c-2 -12 -4 -28 -4 -45c1 -49 18 -87 68 -87z" />
    <glyph glyph-name="uni1EA5" unicode="&#x1ea5;" 
d="M543 726l-79 40l100 190l110 -55zM419 771l121 -146l-74 -63l-109 104l-136 -104l-63 63l167 146h94zM347 0l20 123h-5c-39 -79 -85 -135 -173 -135c-109 0 -151 79 -151 200c0 205 94 340 237 340c81 0 120 -40 135 -108h7l16 96h146l-86 -516h-146zM254 101
c36 0 63 19 87 49c16 19 40 54 47 97l14 83c9 54 -17 85 -80 85c-72 0 -109 -44 -122 -122l-10 -60c-2 -12 -4 -28 -4 -45c1 -49 18 -87 68 -87z" />
    <glyph glyph-name="uni1EAD" unicode="&#x1ead;" 
d="M226 -202c-54 0 -72 23 -72 54c0 7 2 18 5 36c6 36 28 59 83 59c54 0 72 -23 72 -54c0 -7 -2 -18 -5 -36c-6 -36 -28 -59 -83 -59zM435 785l108 -158l-76 -57l-106 115l-134 -115l-70 57l154 158h124zM347 0l20 123h-5c-39 -79 -85 -135 -173 -135
c-109 0 -151 79 -151 200c0 205 94 340 237 340c81 0 120 -40 135 -108h7l16 96h146l-86 -516h-146zM254 101c36 0 63 19 87 49c16 19 40 54 47 97l14 83c9 54 -17 85 -80 85c-72 0 -109 -44 -122 -122l-10 -60c-2 -12 -4 -28 -4 -45c1 -49 18 -87 68 -87z" />
    <glyph glyph-name="uni1EA7" unicode="&#x1ea7;" 
d="M78 901l113 55l74 -193l-74 -38zM419 771l121 -146l-74 -63l-109 104l-136 -104l-63 63l167 146h94zM347 0l20 123h-5c-39 -79 -85 -135 -173 -135c-109 0 -151 79 -151 200c0 205 94 340 237 340c81 0 120 -40 135 -108h7l16 96h146l-86 -516h-146zM254 101
c36 0 63 19 87 49c16 19 40 54 47 97l14 83c9 54 -17 85 -80 85c-72 0 -109 -44 -122 -122l-10 -60c-2 -12 -4 -28 -4 -45c1 -49 18 -87 68 -87z" />
    <glyph glyph-name="uni1EA9" unicode="&#x1ea9;" 
d="M439 943h137c55 0 81 -26 81 -59c0 -41 -21 -71 -49 -106l-54 -66l-71 34l52 96h-112zM419 771l121 -146l-74 -63l-109 104l-136 -104l-63 63l167 146h94zM347 0l20 123h-5c-39 -79 -85 -135 -173 -135c-109 0 -151 79 -151 200c0 205 94 340 237 340
c81 0 120 -40 135 -108h7l16 96h146l-86 -516h-146zM254 101c36 0 63 19 87 49c16 19 40 54 47 97l14 83c9 54 -17 85 -80 85c-72 0 -109 -44 -122 -122l-10 -60c-2 -12 -4 -28 -4 -45c1 -49 18 -87 68 -87z" />
    <glyph glyph-name="uni1EAB" unicode="&#x1eab;" 
d="M324 932c30 0 50 -9 73 -20c27 -13 49 -22 75 -22c23 0 39 8 63 25l38 -66c-28 -35 -71 -62 -124 -62c-30 0 -50 9 -73 20c-27 13 -49 22 -75 22c-23 0 -39 -8 -63 -25l-38 66c28 35 71 62 124 62zM418 759l122 -134l-72 -63l-111 96l-134 -96l-65 63l165 134h95zM347 0
l20 123h-5c-39 -79 -85 -135 -173 -135c-109 0 -151 79 -151 200c0 205 94 340 237 340c81 0 120 -40 135 -108h7l16 96h146l-86 -516h-146zM254 101c36 0 63 19 87 49c16 19 40 54 47 97l14 83c9 54 -17 85 -80 85c-72 0 -109 -44 -122 -122l-10 -60c-2 -12 -4 -28 -4 -45
c1 -49 18 -87 68 -87z" />
    <glyph glyph-name="aacute.alt01" 
d="M363 570l-86 46l115 190l114 -60zM199 -12c-100 0 -162 48 -162 129c0 123 89 184 255 184h95l4 22c1 6 2 16 2 24c0 44 -28 73 -95 73c-62 0 -100 -24 -136 -63l-74 75c41 49 116 96 223 96c137 0 227 -57 227 -170c0 -21 -3 -42 -7 -68l-48 -290h-140l15 91h-5
c-29 -66 -84 -103 -154 -103zM253 84c55 0 103 29 111 77l10 60h-85c-60 0 -97 -21 -102 -61c-2 -16 -2 -21 -2 -28c0 -32 26 -48 68 -48z" />
    <glyph glyph-name="abreve.alt01" 
d="M363 570c-113 0 -158 88 -179 170l81 42l20 -37c24 -45 42 -72 84 -72c36 0 58 25 94 74l26 35l83 -42c-43 -85 -100 -170 -209 -170zM199 -12c-100 0 -162 48 -162 129c0 123 89 184 255 184h95l4 22c1 6 2 16 2 24c0 44 -28 73 -95 73c-62 0 -100 -24 -136 -63l-74 75
c41 49 116 96 223 96c137 0 227 -57 227 -170c0 -21 -3 -42 -7 -68l-48 -290h-140l15 91h-5c-29 -66 -84 -103 -154 -103zM253 84c55 0 103 29 111 77l10 60h-85c-60 0 -97 -21 -102 -61c-2 -16 -2 -21 -2 -28c0 -32 26 -48 68 -48z" />
    <glyph glyph-name="acircumflex.alt01" 
d="M443 785l108 -158l-76 -57l-106 115l-134 -115l-70 57l154 158h124zM199 -12c-100 0 -162 48 -162 129c0 123 89 184 255 184h95l4 22c1 6 2 16 2 24c0 44 -28 73 -95 73c-62 0 -100 -24 -136 -63l-74 75c41 49 116 96 223 96c137 0 227 -57 227 -170
c0 -21 -3 -42 -7 -68l-48 -290h-140l15 91h-5c-29 -66 -84 -103 -154 -103zM253 84c55 0 103 29 111 77l10 60h-85c-60 0 -97 -21 -102 -61c-2 -16 -2 -21 -2 -28c0 -32 26 -48 68 -48z" />
    <glyph glyph-name="adieresis.alt01" 
d="M248 592c-54 0 -74 23 -74 54c0 6 2 17 5 35c6 36 27 60 85 60c54 0 74 -23 74 -54c0 -6 -2 -17 -5 -35c-6 -36 -27 -60 -85 -60zM466 592c-54 0 -74 23 -74 54c0 6 2 17 5 35c6 36 27 60 85 60c54 0 74 -23 74 -54c0 -6 -2 -17 -5 -35c-6 -36 -27 -60 -85 -60zM199 -12
c-100 0 -162 48 -162 129c0 123 89 184 255 184h95l4 22c1 6 2 16 2 24c0 44 -28 73 -95 73c-62 0 -100 -24 -136 -63l-74 75c41 49 116 96 223 96c137 0 227 -57 227 -170c0 -21 -3 -42 -7 -68l-48 -290h-140l15 91h-5c-29 -66 -84 -103 -154 -103zM253 84
c55 0 103 29 111 77l10 60h-85c-60 0 -97 -21 -102 -61c-2 -16 -2 -21 -2 -28c0 -32 26 -48 68 -48z" />
    <glyph glyph-name="uni1EA1.alt01" 
d="M229 -202c-54 0 -72 23 -72 54c0 7 2 18 5 36c6 36 28 59 83 59c54 0 72 -23 72 -54c0 -7 -2 -18 -5 -36c-6 -36 -28 -59 -83 -59zM199 -12c-100 0 -162 48 -162 129c0 123 89 184 255 184h95l4 22c1 6 2 16 2 24c0 44 -28 73 -95 73c-62 0 -100 -24 -136 -63l-74 75
c41 49 116 96 223 96c137 0 227 -57 227 -170c0 -21 -3 -42 -7 -68l-48 -290h-140l15 91h-5c-29 -66 -84 -103 -154 -103zM253 84c55 0 103 29 111 77l10 60h-85c-60 0 -97 -21 -102 -61c-2 -16 -2 -21 -2 -28c0 -32 26 -48 68 -48z" />
    <glyph glyph-name="agrave.alt01" 
d="M219 747l124 59l77 -196l-87 -39zM199 -12c-100 0 -162 48 -162 129c0 123 89 184 255 184h95l4 22c1 6 2 16 2 24c0 44 -28 73 -95 73c-62 0 -100 -24 -136 -63l-74 75c41 49 116 96 223 96c137 0 227 -57 227 -170c0 -21 -3 -42 -7 -68l-48 -290h-140l15 91h-5
c-29 -66 -84 -103 -154 -103zM253 84c55 0 103 29 111 77l10 60h-85c-60 0 -97 -21 -102 -61c-2 -16 -2 -21 -2 -28c0 -32 26 -48 68 -48z" />
    <glyph glyph-name="uni1EA3.alt01" 
d="M267 792h147c55 0 81 -26 81 -59c0 -41 -21 -71 -49 -106l-54 -66l-71 34l50 93h-122zM199 -12c-100 0 -162 48 -162 129c0 123 89 184 255 184h95l4 22c1 6 2 16 2 24c0 44 -28 73 -95 73c-62 0 -100 -24 -136 -63l-74 75c41 49 116 96 223 96c137 0 227 -57 227 -170
c0 -21 -3 -42 -7 -68l-48 -290h-140l15 91h-5c-29 -66 -84 -103 -154 -103zM253 84c55 0 103 29 111 77l10 60h-85c-60 0 -97 -21 -102 -61c-2 -16 -2 -21 -2 -28c0 -32 26 -48 68 -48z" />
    <glyph glyph-name="amacron.alt01" 
d="M221 718h305l-17 -102h-305zM199 -12c-100 0 -162 48 -162 129c0 123 89 184 255 184h95l4 22c1 6 2 16 2 24c0 44 -28 73 -95 73c-62 0 -100 -24 -136 -63l-74 75c41 49 116 96 223 96c137 0 227 -57 227 -170c0 -21 -3 -42 -7 -68l-48 -290h-140l15 91h-5
c-29 -66 -84 -103 -154 -103zM253 84c55 0 103 29 111 77l10 60h-85c-60 0 -97 -21 -102 -61c-2 -16 -2 -21 -2 -28c0 -32 26 -48 68 -48z" />
    <glyph glyph-name="aogonek.alt01" 
d="M390 -212c-71 0 -122 30 -122 85c0 49 41 97 140 123l-1 4h-64l15 91h-5c-29 -66 -84 -103 -154 -103c-100 0 -162 48 -162 129c0 123 89 184 255 184h95l4 22c1 6 2 16 2 24c0 44 -28 73 -95 73c-62 0 -100 -24 -136 -63l-74 75c41 49 116 96 223 96
c137 0 227 -57 227 -170c0 -21 -3 -42 -7 -68l-48 -290c-105 -63 -116 -90 -116 -110c0 -17 11 -30 37 -30c20 0 39 6 53 27l54 -45c-25 -32 -64 -54 -121 -54zM253 84c55 0 103 29 111 77l10 60h-85c-60 0 -97 -21 -102 -61c-2 -16 -2 -21 -2 -28c0 -32 26 -48 68 -48z" />
    <glyph glyph-name="aring.alt01" 
d="M349 550c-73 0 -130 54 -130 124c0 94 76 160 168 160c73 0 130 -54 130 -124c0 -94 -76 -160 -168 -160zM357 624c34 0 54 21 59 51c4 24 6 35 6 45c0 25 -14 40 -43 40c-34 0 -54 -21 -59 -51c-4 -24 -6 -35 -6 -45c0 -25 14 -40 43 -40zM199 -12
c-100 0 -162 48 -162 129c0 123 89 184 255 184h95l4 22c1 6 2 16 2 24c0 44 -28 73 -95 73c-62 0 -100 -24 -136 -63l-74 75c41 49 116 96 223 96c137 0 227 -57 227 -170c0 -21 -3 -42 -7 -68l-48 -290h-140l15 91h-5c-29 -66 -84 -103 -154 -103zM253 84
c55 0 103 29 111 77l10 60h-85c-60 0 -97 -21 -102 -61c-2 -16 -2 -21 -2 -28c0 -32 26 -48 68 -48z" />
    <glyph glyph-name="aringacute.alt01" 
d="M386 806l-49 56l142 117l65 -79zM347 556c-75 0 -133 39 -133 105c0 84 76 134 168 134c75 0 133 -39 133 -105c0 -84 -76 -134 -168 -134zM356 625c36 0 55 14 60 44c2 12 3 19 3 22c0 24 -16 35 -46 35c-36 0 -55 -14 -60 -44c-2 -12 -3 -19 -3 -22
c0 -24 16 -35 46 -35zM199 -12c-100 0 -162 48 -162 129c0 123 89 184 255 184h95l4 22c1 6 2 16 2 24c0 44 -28 73 -95 73c-62 0 -100 -24 -136 -63l-74 75c41 49 116 96 223 96c137 0 227 -57 227 -170c0 -21 -3 -42 -7 -68l-48 -290h-140l15 91h-5
c-29 -66 -84 -103 -154 -103zM253 84c55 0 103 29 111 77l10 60h-85c-60 0 -97 -21 -102 -61c-2 -16 -2 -21 -2 -28c0 -32 26 -48 68 -48z" />
    <glyph glyph-name="atilde.alt01" 
d="M429 592c-30 0 -50 10 -73 21c-27 12 -49 22 -75 22c-23 0 -39 -8 -63 -25l-40 67c29 36 71 64 124 64c30 0 50 -10 73 -21c27 -12 49 -22 75 -22c23 0 39 8 63 25l40 -67c-29 -36 -71 -64 -124 -64zM199 -12c-100 0 -162 48 -162 129c0 123 89 184 255 184h95l4 22
c1 6 2 16 2 24c0 44 -28 73 -95 73c-62 0 -100 -24 -136 -63l-74 75c41 49 116 96 223 96c137 0 227 -57 227 -170c0 -21 -3 -42 -7 -68l-48 -290h-140l15 91h-5c-29 -66 -84 -103 -154 -103zM253 84c55 0 103 29 111 77l10 60h-85c-60 0 -97 -21 -102 -61
c-2 -16 -2 -21 -2 -28c0 -32 26 -48 68 -48z" />
    <glyph glyph-name="uni1EAF.alt01" 
d="M361 563c-121 0 -172 73 -192 149l74 47l18 -28c33 -51 55 -67 100 -67c40 0 67 15 113 67l25 28l74 -47c-48 -84 -102 -149 -212 -149zM388 724l-79 40l103 194l109 -58zM199 -12c-100 0 -162 48 -162 129c0 123 89 184 255 184h95l4 22c1 6 2 16 2 24
c0 44 -28 73 -95 73c-62 0 -100 -24 -136 -63l-74 75c41 49 116 96 223 96c137 0 227 -57 227 -170c0 -21 -3 -42 -7 -68l-48 -290h-140l15 91h-5c-29 -66 -84 -103 -154 -103zM253 84c55 0 103 29 111 77l10 60h-85c-60 0 -97 -21 -102 -61c-2 -16 -2 -21 -2 -28
c0 -32 26 -48 68 -48z" />
    <glyph glyph-name="uni1EB7.alt01" 
d="M229 -202c-54 0 -72 23 -72 54c0 7 2 18 5 36c6 36 28 59 83 59c54 0 72 -23 72 -54c0 -7 -2 -18 -5 -36c-6 -36 -28 -59 -83 -59zM363 570c-113 0 -158 88 -179 170l81 42l20 -37c24 -45 42 -72 84 -72c36 0 58 25 94 74l26 35l83 -42c-43 -85 -100 -170 -209 -170z
M199 -12c-100 0 -162 48 -162 129c0 123 89 184 255 184h95l4 22c1 6 2 16 2 24c0 44 -28 73 -95 73c-62 0 -100 -24 -136 -63l-74 75c41 49 116 96 223 96c137 0 227 -57 227 -170c0 -21 -3 -42 -7 -68l-48 -290h-140l15 91h-5c-29 -66 -84 -103 -154 -103zM253 84
c55 0 103 29 111 77l10 60h-85c-60 0 -97 -21 -102 -61c-2 -16 -2 -21 -2 -28c0 -32 26 -48 68 -48z" />
    <glyph glyph-name="uni1EB1.alt01" 
d="M361 563c-121 0 -172 73 -192 149l74 47l18 -28c33 -51 55 -67 100 -67c40 0 67 15 113 67l25 28l74 -47c-48 -84 -102 -149 -212 -149zM237 901l119 55l69 -193l-80 -38zM199 -12c-100 0 -162 48 -162 129c0 123 89 184 255 184h95l4 22c1 6 2 16 2 24
c0 44 -28 73 -95 73c-62 0 -100 -24 -136 -63l-74 75c41 49 116 96 223 96c137 0 227 -57 227 -170c0 -21 -3 -42 -7 -68l-48 -290h-140l15 91h-5c-29 -66 -84 -103 -154 -103zM253 84c55 0 103 29 111 77l10 60h-85c-60 0 -97 -21 -102 -61c-2 -16 -2 -21 -2 -28
c0 -32 26 -48 68 -48z" />
    <glyph glyph-name="uni1EB3.alt01" 
d="M361 563c-121 0 -172 73 -192 149l74 47l18 -28c33 -51 55 -67 100 -67c40 0 67 15 113 67l25 28l74 -47c-48 -84 -102 -149 -212 -149zM258 943h142c55 0 81 -25 81 -62s-27 -75 -82 -131l-36 -37l-61 31l57 98h-117zM199 -12c-100 0 -162 48 -162 129
c0 123 89 184 255 184h95l4 22c1 6 2 16 2 24c0 44 -28 73 -95 73c-62 0 -100 -24 -136 -63l-74 75c41 49 116 96 223 96c137 0 227 -57 227 -170c0 -21 -3 -42 -7 -68l-48 -290h-140l15 91h-5c-29 -66 -84 -103 -154 -103zM253 84c55 0 103 29 111 77l10 60h-85
c-60 0 -97 -21 -102 -61c-2 -16 -2 -21 -2 -28c0 -32 26 -48 68 -48z" />
    <glyph glyph-name="uni1EB5.alt01" 
d="M361 563c-121 0 -172 73 -192 149l74 47l18 -28c33 -51 55 -67 100 -67c40 0 67 15 113 67l25 28l74 -47c-48 -84 -102 -149 -212 -149zM438 782c-32 0 -51 9 -71 18c-28 12 -48 20 -74 20c-25 0 -40 -8 -64 -25l-38 65c29 34 70 61 126 61c32 0 51 -9 71 -18
c28 -12 48 -20 74 -20c25 0 40 8 64 25l38 -65c-29 -34 -70 -61 -126 -61zM199 -12c-100 0 -162 48 -162 129c0 123 89 184 255 184h95l4 22c1 6 2 16 2 24c0 44 -28 73 -95 73c-62 0 -100 -24 -136 -63l-74 75c41 49 116 96 223 96c137 0 227 -57 227 -170
c0 -21 -3 -42 -7 -68l-48 -290h-140l15 91h-5c-29 -66 -84 -103 -154 -103zM253 84c55 0 103 29 111 77l10 60h-85c-60 0 -97 -21 -102 -61c-2 -16 -2 -21 -2 -28c0 -32 26 -48 68 -48z" />
    <glyph glyph-name="uni1EA5.alt01" 
d="M551 726l-79 40l100 190l110 -55zM427 771l121 -146l-74 -63l-109 104l-136 -104l-63 63l167 146h94zM199 -12c-100 0 -162 48 -162 129c0 123 89 184 255 184h95l4 22c1 6 2 16 2 24c0 44 -28 73 -95 73c-62 0 -100 -24 -136 -63l-74 75c41 49 116 96 223 96
c137 0 227 -57 227 -170c0 -21 -3 -42 -7 -68l-48 -290h-140l15 91h-5c-29 -66 -84 -103 -154 -103zM253 84c55 0 103 29 111 77l10 60h-85c-60 0 -97 -21 -102 -61c-2 -16 -2 -21 -2 -28c0 -32 26 -48 68 -48z" />
    <glyph glyph-name="uni1EAD.alt01" 
d="M229 -202c-54 0 -72 23 -72 54c0 7 2 18 5 36c6 36 28 59 83 59c54 0 72 -23 72 -54c0 -7 -2 -18 -5 -36c-6 -36 -28 -59 -83 -59zM443 785l108 -158l-76 -57l-106 115l-134 -115l-70 57l154 158h124zM199 -12c-100 0 -162 48 -162 129c0 123 89 184 255 184h95l4 22
c1 6 2 16 2 24c0 44 -28 73 -95 73c-62 0 -100 -24 -136 -63l-74 75c41 49 116 96 223 96c137 0 227 -57 227 -170c0 -21 -3 -42 -7 -68l-48 -290h-140l15 91h-5c-29 -66 -84 -103 -154 -103zM253 84c55 0 103 29 111 77l10 60h-85c-60 0 -97 -21 -102 -61
c-2 -16 -2 -21 -2 -28c0 -32 26 -48 68 -48z" />
    <glyph glyph-name="uni1EA7.alt01" 
d="M86 901l113 55l74 -193l-74 -38zM427 771l121 -146l-74 -63l-109 104l-136 -104l-63 63l167 146h94zM199 -12c-100 0 -162 48 -162 129c0 123 89 184 255 184h95l4 22c1 6 2 16 2 24c0 44 -28 73 -95 73c-62 0 -100 -24 -136 -63l-74 75c41 49 116 96 223 96
c137 0 227 -57 227 -170c0 -21 -3 -42 -7 -68l-48 -290h-140l15 91h-5c-29 -66 -84 -103 -154 -103zM253 84c55 0 103 29 111 77l10 60h-85c-60 0 -97 -21 -102 -61c-2 -16 -2 -21 -2 -28c0 -32 26 -48 68 -48z" />
    <glyph glyph-name="uni1EA9.alt01" 
d="M447 943h137c55 0 81 -26 81 -59c0 -41 -21 -71 -49 -106l-54 -66l-71 34l52 96h-112zM427 771l121 -146l-74 -63l-109 104l-136 -104l-63 63l167 146h94zM199 -12c-100 0 -162 48 -162 129c0 123 89 184 255 184h95l4 22c1 6 2 16 2 24c0 44 -28 73 -95 73
c-62 0 -100 -24 -136 -63l-74 75c41 49 116 96 223 96c137 0 227 -57 227 -170c0 -21 -3 -42 -7 -68l-48 -290h-140l15 91h-5c-29 -66 -84 -103 -154 -103zM253 84c55 0 103 29 111 77l10 60h-85c-60 0 -97 -21 -102 -61c-2 -16 -2 -21 -2 -28c0 -32 26 -48 68 -48z" />
    <glyph glyph-name="uni1EAB.alt01" 
d="M332 932c30 0 50 -9 73 -20c27 -13 49 -22 75 -22c23 0 39 8 63 25l38 -66c-28 -35 -71 -62 -124 -62c-30 0 -50 9 -73 20c-27 13 -49 22 -75 22c-23 0 -39 -8 -63 -25l-38 66c28 35 71 62 124 62zM426 759l122 -134l-72 -63l-111 96l-134 -96l-65 63l165 134h95z
M199 -12c-100 0 -162 48 -162 129c0 123 89 184 255 184h95l4 22c1 6 2 16 2 24c0 44 -28 73 -95 73c-62 0 -100 -24 -136 -63l-74 75c41 49 116 96 223 96c137 0 227 -57 227 -170c0 -21 -3 -42 -7 -68l-48 -290h-140l15 91h-5c-29 -66 -84 -103 -154 -103zM253 84
c55 0 103 29 111 77l10 60h-85c-60 0 -97 -21 -102 -61c-2 -16 -2 -21 -2 -28c0 -32 26 -48 68 -48z" />
    <glyph glyph-name="ae" unicode="&#xe6;" 
d="M110 -12c-69 0 -118 42 -118 133c0 113 77 184 211 184h40l7 42c2 12 3 22 3 31c0 39 -19 59 -50 59c-36 0 -60 -26 -79 -72l-80 46c39 86 90 117 164 117c59 0 108 -20 116 -79h3c27 46 74 79 139 79c84 0 135 -56 135 -134c0 -71 -42 -164 -254 -168l-2 -11
c-3 -18 -4 -36 -4 -48c0 -52 19 -84 56 -84c36 0 56 31 73 74l91 -39c-37 -87 -89 -130 -173 -130c-73 0 -132 32 -143 117h-4c-19 -78 -65 -117 -131 -117zM146 77c40 0 65 35 76 102l8 49h-29c-53 0 -88 -22 -97 -71c-3 -19 -3 -30 -3 -32c0 -34 19 -48 45 -48zM450 439
c-43 0 -74 -40 -89 -128l-1 -8c101 4 136 43 136 87c0 32 -18 49 -46 49z" />
    <glyph glyph-name="aeacute" unicode="&#x1fd;" 
d="M356 570l-86 46l115 190l114 -60zM110 -12c-69 0 -118 42 -118 133c0 113 77 184 211 184h40l7 42c2 12 3 22 3 31c0 39 -19 59 -50 59c-36 0 -60 -26 -79 -72l-80 46c39 86 90 117 164 117c59 0 108 -20 116 -79h3c27 46 74 79 139 79c84 0 135 -56 135 -134
c0 -71 -42 -164 -254 -168l-2 -11c-3 -18 -4 -36 -4 -48c0 -52 19 -84 56 -84c36 0 56 31 73 74l91 -39c-37 -87 -89 -130 -173 -130c-73 0 -132 32 -143 117h-4c-19 -78 -65 -117 -131 -117zM146 77c40 0 65 35 76 102l8 49h-29c-53 0 -88 -22 -97 -71
c-3 -19 -3 -30 -3 -32c0 -34 19 -48 45 -48zM450 439c-43 0 -74 -40 -89 -128l-1 -8c101 4 136 43 136 87c0 32 -18 49 -46 49z" />
    <glyph glyph-name="cacute" unicode="&#x107;" 
d="M362 570l-86 46l115 190l114 -60zM273 -12c-140 0 -216 80 -216 218c0 176 102 322 286 322c118 0 178 -53 200 -131l-119 -56c-14 43 -35 70 -93 70c-57 0 -99 -38 -111 -110l-10 -60c-2 -12 -4 -31 -4 -47c0 -53 25 -89 91 -89c42 0 72 14 145 110l91 -59
c-68 -108 -136 -168 -260 -168z" />
    <glyph glyph-name="ccaron" unicode="&#x10d;" 
d="M292 579l-108 158l76 57l106 -115l134 115l70 -57l-154 -158h-124zM273 -12c-140 0 -216 80 -216 218c0 176 102 322 286 322c118 0 178 -53 200 -131l-119 -56c-14 43 -35 70 -93 70c-57 0 -99 -38 -111 -110l-10 -60c-2 -12 -4 -31 -4 -47c0 -53 25 -89 91 -89
c42 0 72 14 145 110l91 -59c-68 -108 -136 -168 -260 -168z" />
    <glyph glyph-name="ccedilla" unicode="&#xe7;" 
d="M343 528c118 0 178 -53 200 -131l-119 -56c-14 43 -35 70 -93 70s-99 -39 -111 -110l-10 -60c-2 -12 -4 -31 -4 -47c0 -53 25 -89 91 -89c42 0 72 14 145 110l91 -59c-62 -98 -124 -157 -227 -167l-16 -44l3 -4c15 5 29 7 42 7c37 0 66 -22 66 -58
c0 -68 -62 -102 -143 -102c-56 0 -96 21 -115 46l51 53c10 -12 31 -28 61 -28c29 0 50 9 50 29c0 17 -16 31 -68 36l-23 2l25 64c-118 12 -182 90 -182 216c0 176 102 322 286 322z" />
    <glyph glyph-name="ccircumflex" unicode="&#x109;" 
d="M442 785l108 -158l-76 -57l-106 115l-134 -115l-70 57l154 158h124zM273 -12c-140 0 -216 80 -216 218c0 176 102 322 286 322c118 0 178 -53 200 -131l-119 -56c-14 43 -35 70 -93 70c-57 0 -99 -38 -111 -110l-10 -60c-2 -12 -4 -31 -4 -47c0 -53 25 -89 91 -89
c42 0 72 14 145 110l91 -59c-68 -108 -136 -168 -260 -168z" />
    <glyph glyph-name="cdotaccent" unicode="&#x10b;" 
d="M356 584c-60 0 -82 26 -82 61c0 7 1 16 5 40c7 42 34 66 94 66s82 -26 82 -61c0 -7 -1 -16 -5 -40c-7 -42 -34 -66 -94 -66zM273 -12c-140 0 -216 80 -216 218c0 176 102 322 286 322c118 0 178 -53 200 -131l-119 -56c-14 43 -35 70 -93 70c-57 0 -99 -38 -111 -110
l-10 -60c-2 -12 -4 -31 -4 -47c0 -53 25 -89 91 -89c42 0 72 14 145 110l91 -59c-68 -108 -136 -168 -260 -168z" />
    <glyph glyph-name="dcaron" unicode="&#x10f;" 
d="M150 -12c-95 0 -132 79 -132 200c0 205 82 340 201 340c69 0 98 -41 113 -108h6l54 320h139l-124 -740h-139l16 95h-7c-31 -62 -62 -107 -127 -107zM213 101c22 0 32 7 45 18c17 16 38 49 45 91l21 124c9 51 -12 81 -57 81c-50 0 -74 -45 -86 -116l-11 -66
c-3 -18 -5 -37 -5 -61c0 -40 18 -71 48 -71zM582 740h129l-89 -210h-76z" />
    <glyph glyph-name="dcroat" unicode="&#x111;" 
d="M367 123h-5c-39 -79 -85 -135 -173 -135c-109 0 -151 79 -151 200c0 205 94 340 237 340c81 0 120 -40 135 -108h7l27 161h-140l18 108h140l9 51h146l-9 -51h54l-18 -108h-54l-97 -581h-146zM254 101c36 0 63 19 87 49c16 19 40 54 47 97l14 83c9 54 -17 85 -80 85
c-72 0 -109 -44 -122 -122l-10 -60c-2 -12 -4 -28 -4 -45c1 -49 18 -87 68 -87z" />
    <glyph glyph-name="eth" unicode="&#xf0;" 
d="M468 648c59 -74 100 -172 100 -295c0 -251 -130 -365 -313 -365c-143 0 -223 83 -223 216c0 171 106 296 248 296c76 0 120 -36 143 -96l8 4c-8 61 -39 121 -84 175l-102 -55l-41 60l91 48c-41 38 -91 73 -145 104h223c15 -12 30 -24 45 -38l95 51l39 -60zM271 97
c67 0 115 43 128 121l9 54c2 12 3 22 3 31c0 57 -35 86 -92 86c-67 0 -115 -43 -128 -121l-9 -54c-2 -12 -3 -22 -3 -31c0 -57 35 -86 92 -86z" />
    <glyph glyph-name="eacute" unicode="&#xe9;" 
d="M366 570l-86 46l115 190l114 -60zM281 -12c-152 0 -225 83 -225 220c0 192 121 320 304 320c104 0 190 -47 190 -142c0 -83 -54 -172 -348 -183c-1 -8 -1 -12 -1 -17c0 -55 29 -86 99 -86c57 0 89 20 142 88l91 -59c-54 -77 -120 -141 -252 -141zM345 425
c-63 0 -111 -35 -130 -124l-3 -14c185 10 197 53 197 86s-20 52 -64 52z" />
    <glyph glyph-name="ebreve" unicode="&#x115;" 
d="M366 570c-113 0 -158 88 -179 170l81 42l20 -37c24 -45 42 -72 84 -72c36 0 58 25 94 74l26 35l83 -42c-43 -85 -100 -170 -209 -170zM281 -12c-152 0 -225 83 -225 220c0 192 121 320 304 320c104 0 190 -47 190 -142c0 -83 -54 -172 -348 -183c-1 -8 -1 -12 -1 -17
c0 -55 29 -86 99 -86c57 0 89 20 142 88l91 -59c-54 -77 -120 -141 -252 -141zM345 425c-63 0 -111 -35 -130 -124l-3 -14c185 10 197 53 197 86s-20 52 -64 52z" />
    <glyph glyph-name="ecaron" unicode="&#x11b;" 
d="M296 579l-108 158l76 57l106 -115l134 115l70 -57l-154 -158h-124zM281 -12c-152 0 -225 83 -225 220c0 192 121 320 304 320c104 0 190 -47 190 -142c0 -83 -54 -172 -348 -183c-1 -8 -1 -12 -1 -17c0 -55 29 -86 99 -86c57 0 89 20 142 88l91 -59
c-54 -77 -120 -141 -252 -141zM345 425c-63 0 -111 -35 -130 -124l-3 -14c185 10 197 53 197 86s-20 52 -64 52z" />
    <glyph glyph-name="ecircumflex" unicode="&#xea;" 
d="M446 785l108 -158l-76 -57l-106 115l-134 -115l-70 57l154 158h124zM281 -12c-152 0 -225 83 -225 220c0 192 121 320 304 320c104 0 190 -47 190 -142c0 -83 -54 -172 -348 -183c-1 -8 -1 -12 -1 -17c0 -55 29 -86 99 -86c57 0 89 20 142 88l91 -59
c-54 -77 -120 -141 -252 -141zM345 425c-63 0 -111 -35 -130 -124l-3 -14c185 10 197 53 197 86s-20 52 -64 52z" />
    <glyph glyph-name="edieresis" unicode="&#xeb;" 
d="M251 592c-54 0 -74 23 -74 54c0 6 2 17 5 35c6 36 27 60 85 60c54 0 74 -23 74 -54c0 -6 -2 -17 -5 -35c-6 -36 -27 -60 -85 -60zM469 592c-54 0 -74 23 -74 54c0 6 2 17 5 35c6 36 27 60 85 60c54 0 74 -23 74 -54c0 -6 -2 -17 -5 -35c-6 -36 -27 -60 -85 -60zM281 -12
c-152 0 -225 83 -225 220c0 192 121 320 304 320c104 0 190 -47 190 -142c0 -83 -54 -172 -348 -183c-1 -8 -1 -12 -1 -17c0 -55 29 -86 99 -86c57 0 89 20 142 88l91 -59c-54 -77 -120 -141 -252 -141zM345 425c-63 0 -111 -35 -130 -124l-3 -14c185 10 197 53 197 86
s-20 52 -64 52z" />
    <glyph glyph-name="edotaccent" unicode="&#x117;" 
d="M360 584c-60 0 -82 26 -82 61c0 7 1 16 5 40c7 42 34 66 94 66s82 -26 82 -61c0 -7 -1 -16 -5 -40c-7 -42 -34 -66 -94 -66zM281 -12c-152 0 -225 83 -225 220c0 192 121 320 304 320c104 0 190 -47 190 -142c0 -83 -54 -172 -348 -183c-1 -8 -1 -12 -1 -17
c0 -55 29 -86 99 -86c57 0 89 20 142 88l91 -59c-54 -77 -120 -141 -252 -141zM345 425c-63 0 -111 -35 -130 -124l-3 -14c185 10 197 53 197 86s-20 52 -64 52z" />
    <glyph glyph-name="uni1EB9" unicode="&#x1eb9;" 
d="M266 -202c-54 0 -72 23 -72 54c0 7 2 18 5 36c6 36 28 59 83 59c54 0 72 -23 72 -54c0 -7 -2 -18 -5 -36c-6 -36 -28 -59 -83 -59zM281 -12c-152 0 -225 83 -225 220c0 192 121 320 304 320c104 0 190 -47 190 -142c0 -83 -54 -172 -348 -183c-1 -8 -1 -12 -1 -17
c0 -55 29 -86 99 -86c57 0 89 20 142 88l91 -59c-54 -77 -120 -141 -252 -141zM345 425c-63 0 -111 -35 -130 -124l-3 -14c185 10 197 53 197 86s-20 52 -64 52z" />
    <glyph glyph-name="egrave" unicode="&#xe8;" 
d="M222 747l124 59l77 -196l-87 -39zM281 -12c-152 0 -225 83 -225 220c0 192 121 320 304 320c104 0 190 -47 190 -142c0 -83 -54 -172 -348 -183c-1 -8 -1 -12 -1 -17c0 -55 29 -86 99 -86c57 0 89 20 142 88l91 -59c-54 -77 -120 -141 -252 -141zM345 425
c-63 0 -111 -35 -130 -124l-3 -14c185 10 197 53 197 86s-20 52 -64 52z" />
    <glyph glyph-name="uni1EBB" unicode="&#x1ebb;" 
d="M270 792h147c55 0 81 -26 81 -59c0 -41 -21 -71 -49 -106l-54 -66l-71 34l50 93h-122zM281 -12c-152 0 -225 83 -225 220c0 192 121 320 304 320c104 0 190 -47 190 -142c0 -83 -54 -172 -348 -183c-1 -8 -1 -12 -1 -17c0 -55 29 -86 99 -86c57 0 89 20 142 88l91 -59
c-54 -77 -120 -141 -252 -141zM345 425c-63 0 -111 -35 -130 -124l-3 -14c185 10 197 53 197 86s-20 52 -64 52z" />
    <glyph glyph-name="emacron" unicode="&#x113;" 
d="M224 718h305l-17 -102h-305zM281 -12c-152 0 -225 83 -225 220c0 192 121 320 304 320c104 0 190 -47 190 -142c0 -83 -54 -172 -348 -183c-1 -8 -1 -12 -1 -17c0 -55 29 -86 99 -86c57 0 89 20 142 88l91 -59c-54 -77 -120 -141 -252 -141zM345 425
c-63 0 -111 -35 -130 -124l-3 -14c185 10 197 53 197 86s-20 52 -64 52z" />
    <glyph glyph-name="eogonek" unicode="&#x119;" 
d="M326 -212c-71 0 -122 30 -122 85c0 50 45 91 113 113l-1 4c-7 -1 -24 -2 -35 -2c-152 0 -225 83 -225 220c0 192 121 320 304 320c104 0 190 -47 190 -142c0 -83 -54 -172 -348 -183c-1 -6 -1 -12 -1 -18c0 -54 30 -85 99 -85c57 0 89 20 142 88l91 -59
c-30 -42 -59 -77 -123 -117c-84 -53 -107 -89 -107 -118c0 -25 15 -34 37 -34c20 0 39 6 53 27l54 -45c-25 -32 -64 -54 -121 -54zM345 425c-63 0 -111 -35 -130 -124l-3 -14c185 10 197 53 197 86s-20 52 -64 52z" />
    <glyph glyph-name="uni1EBD" unicode="&#x1ebd;" 
d="M432 592c-30 0 -50 10 -73 21c-27 12 -49 22 -75 22c-23 0 -39 -8 -63 -25l-40 67c29 36 71 64 124 64c30 0 50 -10 73 -21c27 -12 49 -22 75 -22c23 0 39 8 63 25l40 -67c-29 -36 -71 -64 -124 -64zM281 -12c-152 0 -225 83 -225 220c0 192 121 320 304 320
c104 0 190 -47 190 -142c0 -83 -54 -172 -348 -183c-1 -8 -1 -12 -1 -17c0 -55 29 -86 99 -86c57 0 89 20 142 88l91 -59c-54 -77 -120 -141 -252 -141zM345 425c-63 0 -111 -35 -130 -124l-3 -14c185 10 197 53 197 86s-20 52 -64 52z" />
    <glyph glyph-name="uni1EBF" unicode="&#x1ebf;" 
d="M554 726l-79 40l100 190l110 -55zM430 771l121 -146l-74 -63l-109 104l-136 -104l-63 63l167 146h94zM281 -12c-152 0 -225 83 -225 220c0 192 121 320 304 320c104 0 190 -47 190 -142c0 -83 -54 -172 -348 -183c-1 -8 -1 -12 -1 -17c0 -55 29 -86 99 -86
c57 0 89 20 142 88l91 -59c-54 -77 -120 -141 -252 -141zM345 425c-63 0 -111 -35 -130 -124l-3 -14c185 10 197 53 197 86s-20 52 -64 52z" />
    <glyph glyph-name="uni1EC7" unicode="&#x1ec7;" 
d="M266 -202c-54 0 -72 23 -72 54c0 7 2 18 5 36c6 36 28 59 83 59c54 0 72 -23 72 -54c0 -7 -2 -18 -5 -36c-6 -36 -28 -59 -83 -59zM446 785l108 -158l-76 -57l-106 115l-134 -115l-70 57l154 158h124zM281 -12c-152 0 -225 83 -225 220c0 192 121 320 304 320
c104 0 190 -47 190 -142c0 -83 -54 -172 -348 -183c-1 -8 -1 -12 -1 -17c0 -55 29 -86 99 -86c57 0 89 20 142 88l91 -59c-54 -77 -120 -141 -252 -141zM345 425c-63 0 -111 -35 -130 -124l-3 -14c185 10 197 53 197 86s-20 52 -64 52z" />
    <glyph glyph-name="uni1EC1" unicode="&#x1ec1;" 
d="M89 901l113 55l74 -193l-74 -38zM430 771l121 -146l-74 -63l-109 104l-136 -104l-63 63l167 146h94zM281 -12c-152 0 -225 83 -225 220c0 192 121 320 304 320c104 0 190 -47 190 -142c0 -83 -54 -172 -348 -183c-1 -8 -1 -12 -1 -17c0 -55 29 -86 99 -86
c57 0 89 20 142 88l91 -59c-54 -77 -120 -141 -252 -141zM345 425c-63 0 -111 -35 -130 -124l-3 -14c185 10 197 53 197 86s-20 52 -64 52z" />
    <glyph glyph-name="uni1EC3" unicode="&#x1ec3;" 
d="M450 943h137c55 0 81 -26 81 -59c0 -41 -21 -71 -49 -106l-54 -66l-71 34l52 96h-112zM430 771l121 -146l-74 -63l-109 104l-136 -104l-63 63l167 146h94zM281 -12c-152 0 -225 83 -225 220c0 192 121 320 304 320c104 0 190 -47 190 -142c0 -83 -54 -172 -348 -183
c-1 -8 -1 -12 -1 -17c0 -55 29 -86 99 -86c57 0 89 20 142 88l91 -59c-54 -77 -120 -141 -252 -141zM345 425c-63 0 -111 -35 -130 -124l-3 -14c185 10 197 53 197 86s-20 52 -64 52z" />
    <glyph glyph-name="uni1EC5" unicode="&#x1ec5;" 
d="M335 932c30 0 50 -9 73 -20c27 -13 49 -22 75 -22c23 0 39 8 63 25l38 -66c-28 -35 -71 -62 -124 -62c-30 0 -50 9 -73 20c-27 13 -49 22 -75 22c-23 0 -39 -8 -63 -25l-38 66c28 35 71 62 124 62zM429 759l122 -134l-72 -63l-111 96l-134 -96l-65 63l165 134h95z
M281 -12c-152 0 -225 83 -225 220c0 192 121 320 304 320c104 0 190 -47 190 -142c0 -83 -54 -172 -348 -183c-1 -8 -1 -12 -1 -17c0 -55 29 -86 99 -86c57 0 89 20 142 88l91 -59c-54 -77 -120 -141 -252 -141zM345 425c-63 0 -111 -35 -130 -124l-3 -14
c185 10 197 53 197 86s-20 52 -64 52z" />
    <glyph glyph-name="uni0259" unicode="&#x259;" 
d="M240 -12c-104 0 -190 47 -190 142c0 83 54 172 348 183c1 8 1 12 1 17c0 55 -29 86 -99 86c-57 0 -89 -20 -142 -88l-91 59c54 77 120 141 252 141c152 0 225 -83 225 -220c0 -192 -121 -320 -304 -320zM255 91c63 0 111 35 130 124l3 14c-185 -10 -197 -53 -197 -86
s20 -52 64 -52z" />
    <glyph glyph-name="gbreve" unicode="&#x11f;" 
d="M354 570c-113 0 -158 88 -179 170l81 42l20 -37c24 -45 42 -72 84 -72c36 0 58 25 94 74l26 35l83 -42c-43 -85 -100 -170 -209 -170zM224 -212c-96 0 -159 15 -211 76l87 90c32 -39 74 -53 120 -53c74 0 118 27 139 153l15 89h-6c-38 -79 -83 -135 -172 -135
c-111 0 -155 85 -155 200c0 188 89 320 234 320c83 0 122 -40 136 -108h8l16 96h146l-80 -480c-28 -167 -124 -248 -277 -248zM260 122c36 0 61 18 85 46c16 19 41 50 49 98l11 67c8 48 -15 82 -80 82c-74 0 -111 -50 -123 -122l-7 -42c-2 -12 -4 -28 -4 -49
c0 -44 19 -80 69 -80z" />
    <glyph glyph-name="gcircumflex" unicode="&#x11d;" 
d="M434 785l108 -158l-76 -57l-106 115l-134 -115l-70 57l154 158h124zM224 -212c-96 0 -159 15 -211 76l87 90c32 -39 74 -53 120 -53c74 0 118 27 139 153l15 89h-6c-38 -79 -83 -135 -172 -135c-111 0 -155 85 -155 200c0 188 89 320 234 320c83 0 122 -40 136 -108h8
l16 96h146l-80 -480c-28 -167 -124 -248 -277 -248zM260 122c36 0 61 18 85 46c16 19 41 50 49 98l11 67c8 48 -15 82 -80 82c-74 0 -111 -50 -123 -122l-7 -42c-2 -12 -4 -28 -4 -49c0 -44 19 -80 69 -80z" />
    <glyph glyph-name="uni0123" unicode="&#x123;" 
d="M384 794h88l-53 -215h-156zM224 -212c-96 0 -159 15 -211 76l87 90c32 -39 74 -53 120 -53c74 0 118 27 139 153l15 89h-6c-38 -79 -83 -135 -172 -135c-111 0 -155 85 -155 200c0 188 89 320 234 320c83 0 122 -40 136 -108h8l16 96h146l-80 -480
c-28 -167 -124 -248 -277 -248zM260 122c36 0 61 18 85 46c16 19 41 50 49 98l11 67c8 48 -15 82 -80 82c-74 0 -111 -50 -123 -122l-7 -42c-2 -12 -4 -28 -4 -49c0 -44 19 -80 69 -80z" />
    <glyph glyph-name="gdotaccent" unicode="&#x121;" 
d="M348 584c-60 0 -82 26 -82 61c0 7 1 16 5 40c7 42 34 66 94 66s82 -26 82 -61c0 -7 -1 -16 -5 -40c-7 -42 -34 -66 -94 -66zM224 -212c-96 0 -159 15 -211 76l87 90c32 -39 74 -53 120 -53c74 0 118 27 139 153l15 89h-6c-38 -79 -83 -135 -172 -135
c-111 0 -155 85 -155 200c0 188 89 320 234 320c83 0 122 -40 136 -108h8l16 96h146l-80 -480c-28 -167 -124 -248 -277 -248zM260 122c36 0 61 18 85 46c16 19 41 50 49 98l11 67c8 48 -15 82 -80 82c-74 0 -111 -50 -123 -122l-7 -42c-2 -12 -4 -28 -4 -49
c0 -44 19 -80 69 -80z" />
    <glyph glyph-name="gbreve.alt01" 
d="M357 570c-113 0 -158 88 -179 170l81 42l20 -37c24 -45 42 -72 84 -72c36 0 58 25 94 74l26 35l83 -42c-43 -85 -100 -170 -209 -170zM222 -212c-177 0 -231 42 -231 103c0 68 43 99 117 117l1 6c-37 12 -59 33 -59 70c0 58 40 84 108 95l2 7c-48 26 -75 70 -75 129
c0 136 107 213 257 213c31 0 58 -5 81 -12h195l-17 -98h-71c6 -14 10 -28 10 -45c0 -135 -107 -213 -259 -213c-30 0 -57 3 -81 10c-20 -8 -34 -22 -34 -43c0 -28 32 -31 70 -31h110c128 0 190 -52 190 -126c0 -123 -97 -182 -314 -182zM301 253c56 0 88 31 96 79
c4 24 5 32 5 40c0 37 -21 63 -77 63s-88 -31 -96 -79c-4 -24 -5 -32 -5 -40c0 -37 21 -63 77 -63zM394 -59c0 26 -17 40 -71 40h-178c-19 -12 -28 -29 -28 -50c0 -29 23 -49 83 -49h96c68 0 98 22 98 59z" />
    <glyph glyph-name="gcircumflex.alt01" 
d="M437 785l108 -158l-76 -57l-106 115l-134 -115l-70 57l154 158h124zM222 -212c-177 0 -231 42 -231 103c0 68 43 99 117 117l1 6c-37 12 -59 33 -59 70c0 58 40 84 108 95l2 7c-48 26 -75 70 -75 129c0 136 107 213 257 213c31 0 58 -5 81 -12h195l-17 -98h-71
c6 -14 10 -28 10 -45c0 -135 -107 -213 -259 -213c-30 0 -57 3 -81 10c-20 -8 -34 -22 -34 -43c0 -28 32 -31 70 -31h110c128 0 190 -52 190 -126c0 -123 -97 -182 -314 -182zM301 253c56 0 88 31 96 79c4 24 5 32 5 40c0 37 -21 63 -77 63s-88 -31 -96 -79
c-4 -24 -5 -32 -5 -40c0 -37 21 -63 77 -63zM394 -59c0 26 -17 40 -71 40h-178c-19 -12 -28 -29 -28 -50c0 -29 23 -49 83 -49h96c68 0 98 22 98 59z" />
    <glyph glyph-name="uni0123.alt01" 
d="M387 794h88l-53 -215h-156zM222 -212c-177 0 -231 42 -231 103c0 68 43 99 117 117l1 6c-37 12 -59 33 -59 70c0 58 40 84 108 95l2 7c-48 26 -75 70 -75 129c0 136 107 213 257 213c33 0 63 -4 89 -12l5 28c7 40 42 70 91 70h91l-18 -107h-124l-2 -11
c42 -26 66 -67 66 -123c0 -135 -107 -213 -259 -213c-30 0 -57 3 -81 10c-20 -8 -34 -22 -34 -43c0 -28 32 -31 70 -31h110c128 0 190 -52 190 -126c0 -123 -97 -182 -314 -182zM117 -69c0 -29 23 -49 83 -49h96c68 0 98 22 98 59c0 26 -17 40 -71 40h-178
c-19 -12 -28 -29 -28 -50zM301 253c56 0 88 31 96 79c4 24 5 32 5 40c0 37 -21 63 -77 63s-88 -31 -96 -79c-4 -24 -5 -32 -5 -40c0 -37 21 -63 77 -63z" />
    <glyph glyph-name="gdotaccent.alt01" 
d="M351 584c-60 0 -82 26 -82 61c0 7 1 16 5 40c7 42 34 66 94 66s82 -26 82 -61c0 -7 -1 -16 -5 -40c-7 -42 -34 -66 -94 -66zM222 -212c-177 0 -231 42 -231 103c0 68 43 99 117 117l1 6c-37 12 -59 33 -59 70c0 58 40 84 108 95l2 7c-48 26 -75 70 -75 129
c0 136 107 213 257 213c33 0 63 -4 89 -12l5 28c7 40 42 70 91 70h91l-18 -107h-124l-2 -11c42 -26 66 -67 66 -123c0 -135 -107 -213 -259 -213c-30 0 -57 3 -81 10c-20 -8 -34 -22 -34 -43c0 -28 32 -31 70 -31h110c128 0 190 -52 190 -126c0 -123 -97 -182 -314 -182z
M117 -69c0 -29 23 -49 83 -49h96c68 0 98 22 98 59c0 26 -17 40 -71 40h-178c-19 -12 -28 -29 -28 -50zM301 253c56 0 88 31 96 79c4 24 5 32 5 40c0 37 -21 63 -77 63s-88 -31 -96 -79c-4 -24 -5 -32 -5 -40c0 -37 21 -63 77 -63z" />
    <glyph glyph-name="hbar" unicode="&#x127;" 
d="M122 581h-59l18 108h59l8 51h146l-8 -51h135l-18 -108h-135l-31 -188h5c39 84 86 135 168 135c101 0 141 -69 141 -149c0 -29 -3 -56 -11 -104l-46 -275h-146l49 292c3 18 7 38 7 63c0 27 -15 61 -60 61c-34 0 -58 -17 -81 -47c-15 -20 -40 -58 -47 -100l-45 -269h-146z
" />
    <glyph glyph-name="hcircumflex" unicode="&#x125;" 
d="M316 967l108 -158l-76 -57l-106 115l-134 -115l-70 57l154 158h124zM148 740h146l-57 -347h5c39 84 86 135 168 135c101 0 141 -69 141 -149c0 -29 -3 -56 -11 -104l-46 -275h-146l49 293c3 18 7 37 7 62c0 27 -15 61 -60 61c-34 0 -58 -17 -81 -47
c-15 -20 -40 -58 -47 -100l-45 -269h-146z" />
    <glyph glyph-name="dotlessi" unicode="&#x131;" 
d="M298 -12c-82 0 -124 47 -124 120c0 22 2 39 10 80l40 214h-156l19 114h304l-77 -410l17 -5l140 143l80 -71l-61 -70c-67 -76 -123 -115 -192 -115z" />
    <glyph glyph-name="iacute" unicode="&#xed;" 
d="M341 570l-86 46l115 190l114 -60zM298 -12c-82 0 -124 47 -124 120c0 22 2 39 10 80l40 214h-156l19 114h304l-77 -410l17 -5l140 143l80 -71l-61 -70c-67 -76 -123 -115 -192 -115z" />
    <glyph glyph-name="ibreve" unicode="&#x12d;" 
d="M341 570c-113 0 -158 88 -179 170l81 42l20 -37c24 -45 42 -72 84 -72c36 0 58 25 94 74l26 35l83 -42c-43 -85 -100 -170 -209 -170zM298 -12c-82 0 -124 47 -124 120c0 22 2 39 10 80l40 214h-156l19 114h304l-77 -410l17 -5l140 143l80 -71l-61 -70
c-67 -76 -123 -115 -192 -115z" />
    <glyph glyph-name="icircumflex" unicode="&#xee;" 
d="M421 785l108 -158l-76 -57l-106 115l-134 -115l-70 57l154 158h124zM298 -12c-82 0 -124 47 -124 120c0 22 2 39 10 80l40 214h-156l19 114h304l-77 -410l17 -5l140 143l80 -71l-61 -70c-67 -76 -123 -115 -192 -115z" />
    <glyph glyph-name="idieresis" unicode="&#xef;" 
d="M226 592c-54 0 -74 23 -74 54c0 6 2 17 5 35c6 36 27 60 85 60c54 0 74 -23 74 -54c0 -6 -2 -17 -5 -35c-6 -36 -27 -60 -85 -60zM444 592c-54 0 -74 23 -74 54c0 6 2 17 5 35c6 36 27 60 85 60c54 0 74 -23 74 -54c0 -6 -2 -17 -5 -35c-6 -36 -27 -60 -85 -60zM298 -12
c-82 0 -124 47 -124 120c0 22 2 39 10 80l40 214h-156l19 114h304l-77 -410l17 -5l140 143l80 -71l-61 -70c-67 -76 -123 -115 -192 -115z" />
    <glyph glyph-name="uni1ECB" unicode="&#x1ecb;" 
d="M268 -202c-54 0 -72 23 -72 54c0 7 2 18 5 36c6 36 28 59 83 59c54 0 72 -23 72 -54c0 -7 -2 -18 -5 -36c-6 -36 -28 -59 -83 -59zM339 584c-60 0 -82 26 -82 61c0 7 1 16 5 40c7 42 34 66 94 66s82 -26 82 -61c0 -7 -1 -16 -5 -40c-7 -42 -34 -66 -94 -66zM298 -12
c-82 0 -124 47 -124 120c0 22 2 39 10 80l40 214h-156l19 114h304l-77 -410l17 -5l140 143l80 -71l-61 -70c-67 -76 -123 -115 -192 -115z" />
    <glyph glyph-name="igrave" unicode="&#xec;" 
d="M197 747l124 59l77 -196l-87 -39zM298 -12c-82 0 -124 47 -124 120c0 22 2 39 10 80l40 214h-156l19 114h304l-77 -410l17 -5l140 143l80 -71l-61 -70c-67 -76 -123 -115 -192 -115z" />
    <glyph glyph-name="uni1EC9" unicode="&#x1ec9;" 
d="M245 792h147c55 0 81 -26 81 -59c0 -41 -21 -71 -49 -106l-54 -66l-71 34l50 93h-122zM298 -12c-82 0 -124 47 -124 120c0 22 2 39 10 80l40 214h-156l19 114h304l-77 -410l17 -5l140 143l80 -71l-61 -70c-67 -76 -123 -115 -192 -115z" />
    <glyph glyph-name="imacron" unicode="&#x12b;" 
d="M199 718h305l-17 -102h-305zM298 -12c-82 0 -124 47 -124 120c0 22 2 39 10 80l40 214h-156l19 114h304l-77 -410l17 -5l140 143l80 -71l-61 -70c-67 -76 -123 -115 -192 -115z" />
    <glyph glyph-name="iogonek" unicode="&#x12f;" 
d="M336 -212c-71 0 -122 30 -122 85c0 52 45 84 103 112l-2 4c-8 -1 -9 -1 -17 -1c-82 0 -124 47 -124 120c0 22 2 39 10 80l40 214h-156l19 114h304l-77 -410l17 -5l140 143l80 -71l-147 -153c-59 -62 -91 -91 -91 -129c0 -19 13 -31 37 -31c20 0 39 6 53 27l54 -45
c-25 -32 -64 -54 -121 -54zM338 584c-58 0 -81 26 -81 62c0 6 0 10 4 38c6 40 31 67 95 67c59 0 82 -26 82 -61c0 -7 0 -10 -5 -40c-6 -39 -30 -66 -95 -66z" />
    <glyph glyph-name="itilde" unicode="&#x129;" 
d="M407 592c-30 0 -50 10 -73 21c-27 12 -49 22 -75 22c-23 0 -39 -8 -63 -25l-40 67c29 36 71 64 124 64c30 0 50 -10 73 -21c27 -12 49 -22 75 -22c23 0 39 8 63 25l40 -67c-29 -36 -71 -64 -124 -64zM298 -12c-82 0 -124 47 -124 120c0 22 2 39 10 80l40 214h-156l19 114
h304l-77 -410l17 -5l140 143l80 -71l-61 -70c-67 -76 -123 -115 -192 -115z" />
    <glyph glyph-name="ij" unicode="&#x133;" 
d="M116 516h146l-86 -516h-146zM302 -212c-66 0 -115 43 -151 93l-29 41l98 72l83 -95l13 5l102 612h146l-92 -553c-19 -115 -74 -175 -170 -175zM209 584c-60 0 -82 26 -82 61c0 7 0 10 5 40c6 39 30 66 94 66c60 0 82 -26 82 -61c0 -7 0 -10 -5 -40
c-6 -39 -30 -66 -94 -66zM506 584c-60 0 -82 26 -82 61c0 7 0 10 5 40c6 39 30 66 94 66c60 0 82 -26 82 -61c0 -7 0 -10 -5 -40c-6 -39 -30 -66 -94 -66z" />
    <glyph glyph-name="ijacute" 
d="M116 516h146l-86 -516h-146zM302 -212c-66 0 -115 43 -151 93l-29 41l98 72l83 -95l13 5l102 612h146l-92 -553c-19 -115 -74 -175 -170 -175zM137 616l115 190l114 -60l-143 -176zM438 616l115 190l114 -60l-143 -176z" />
    <glyph glyph-name="uni0237" unicode="&#x237;" 
d="M216 -212c-79 0 -119 52 -180 147l-32 50l100 69l113 -155l13 5l83 498h-189l19 114h335l-92 -553c-21 -125 -74 -175 -170 -175z" />
    <glyph glyph-name="uni006A0301" 
d="M428 570l-86 46l115 190l114 -60zM216 -212c-79 0 -119 52 -180 147l-32 50l100 69l113 -155l13 5l83 498h-189l19 114h335l-92 -553c-21 -125 -74 -175 -170 -175z" />
    <glyph glyph-name="jcircumflex" unicode="&#x135;" 
d="M508 785l108 -158l-76 -57l-106 115l-134 -115l-70 57l154 158h124zM216 -212c-79 0 -119 52 -180 147l-32 50l100 69l113 -155l13 5l83 498h-189l19 114h335l-92 -553c-21 -125 -74 -175 -170 -175z" />
    <glyph glyph-name="uni0137" unicode="&#x137;" 
d="M162 -54h156l-121 -215h-88zM147 740h146l-57 -347h6c35 77 90 135 178 135c85 0 134 -54 134 -122c0 -95 -62 -153 -177 -188l42 -110l15 -3l82 80l70 -69l-52 -56c-43 -46 -87 -72 -140 -72c-63 0 -96 38 -119 102l-50 137c119 35 183 70 183 134c0 34 -24 58 -67 58
c-25 0 -50 -10 -80 -48c-20 -25 -38 -54 -46 -102l-45 -269h-146z" />
    <glyph glyph-name="kgreenlandic" unicode="&#x138;" 
d="M262 219l-69 -62l-26 -157h-145l86 516h145l-33 -201h8l82 82l127 119h168l-230 -215l164 -301h-165z" />
    <glyph glyph-name="lacute" unicode="&#x13a;" 
d="M349 752l-86 46l115 190l114 -60zM270 -12c-82 0 -122 47 -122 120c0 22 2 39 10 80l81 438h-152l19 114h299l-117 -634l15 -5l140 143l80 -71l-61 -70c-67 -76 -123 -115 -192 -115z" />
    <glyph glyph-name="lcaron" unicode="&#x13e;" 
d="M532 525h-97l41 215h157zM270 -12c-82 0 -122 47 -122 120c0 22 2 39 10 80l81 438h-152l19 114h299l-117 -634l15 -5l140 143l80 -71l-61 -70c-67 -76 -123 -115 -192 -115z" />
    <glyph glyph-name="uni013C" unicode="&#x13c;" 
d="M184 -54h156l-121 -215h-88zM270 -12c-82 0 -122 47 -122 120c0 22 2 39 10 80l81 438h-152l19 114h299l-117 -634l15 -5l140 143l80 -71l-61 -70c-67 -76 -123 -115 -192 -115z" />
    <glyph glyph-name="ldot" unicode="&#x140;" 
d="M498 305c-60 0 -82 26 -82 61c0 7 1 16 5 40c7 42 34 66 94 66s82 -26 82 -61c0 -7 -1 -16 -5 -40c-7 -42 -34 -66 -94 -66zM270 -12c-82 0 -122 47 -122 120c0 22 2 39 10 80l81 438h-152l19 114h299l-117 -634l15 -5l140 143l80 -71l-61 -70
c-67 -76 -123 -115 -192 -115z" />
    <glyph glyph-name="lslash" unicode="&#x142;" 
d="M270 -12c-82 0 -122 47 -122 120c0 22 2 39 10 80l18 96l-125 -38l18 107l127 38l43 235h-152l19 114h299l-56 -305l147 44l-18 -107l-149 -45l-41 -221l15 -5l140 143l80 -71l-61 -70c-67 -76 -123 -115 -192 -115z" />
    <glyph glyph-name="nacute" unicode="&#x144;" 
d="M355 570l-86 46l115 190l114 -60zM25 0l86 516h146l-20 -123h5c39 84 86 135 168 135c101 0 141 -69 141 -149c0 -29 -3 -56 -11 -104l-46 -275h-146l49 293c3 18 7 37 7 62c0 27 -15 61 -60 61c-34 0 -58 -17 -81 -47c-15 -20 -40 -58 -47 -100l-45 -269h-146z" />
    <glyph glyph-name="ncaron" unicode="&#x148;" 
d="M285 579l-108 158l76 57l106 -115l134 115l70 -57l-154 -158h-124zM25 0l86 516h146l-20 -123h5c39 84 86 135 168 135c101 0 141 -69 141 -149c0 -29 -3 -56 -11 -104l-46 -275h-146l49 293c3 18 7 37 7 62c0 27 -15 61 -60 61c-34 0 -58 -17 -81 -47
c-15 -20 -40 -58 -47 -100l-45 -269h-146z" />
    <glyph glyph-name="uni0146" unicode="&#x146;" 
d="M175 -54h156l-121 -215h-88zM25 0l86 516h146l-20 -123h5c39 84 86 135 168 135c101 0 141 -69 141 -149c0 -29 -3 -56 -11 -104l-46 -275h-146l49 293c3 18 7 37 7 62c0 27 -15 61 -60 61c-34 0 -58 -17 -81 -47c-15 -20 -40 -58 -47 -100l-45 -269h-146z" />
    <glyph glyph-name="ntilde" unicode="&#xf1;" 
d="M421 592c-30 0 -50 10 -73 21c-27 12 -49 22 -75 22c-23 0 -39 -8 -63 -25l-40 67c29 36 71 64 124 64c30 0 50 -10 73 -21c27 -12 49 -22 75 -22c23 0 39 8 63 25l40 -67c-29 -36 -71 -64 -124 -64zM25 0l86 516h146l-20 -123h5c39 84 86 135 168 135
c101 0 141 -69 141 -149c0 -29 -3 -56 -11 -104l-46 -275h-146l49 293c3 18 7 37 7 62c0 27 -15 61 -60 61c-34 0 -58 -17 -81 -47c-15 -20 -40 -58 -47 -100l-45 -269h-146z" />
    <glyph glyph-name="napostrophe" unicode="&#x149;" 
d="M166 516h140l-18 -108h5c35 74 77 120 153 120c92 0 128 -65 128 -140c0 -30 -2 -59 -10 -107l-47 -281h-140l49 293c4 24 6 43 6 68c0 24 -12 54 -50 54c-29 0 -48 -10 -69 -35c-15 -16 -38 -52 -45 -94l-48 -286h-140zM93 740h129l-92 -210h-73z" />
    <glyph glyph-name="eng" unicode="&#x14b;" 
d="M318 -212c-67 0 -110 46 -145 97l-18 26l93 69l71 -81l13 5l65 389c3 18 7 37 7 62c0 27 -15 61 -60 61c-34 0 -58 -17 -81 -47c-15 -20 -40 -58 -47 -100l-45 -269h-146l86 516h146l-20 -123h5c39 84 86 135 168 135c101 0 141 -69 141 -149c0 -29 -3 -56 -11 -104
l-52 -312c-19 -115 -74 -175 -170 -175z" />
    <glyph glyph-name="oacute" unicode="&#xf3;" 
d="M366 570l-86 46l115 190l114 -60zM265 -12c-140 0 -222 86 -222 222c0 197 119 318 292 318c140 0 222 -86 222 -222c0 -197 -119 -318 -292 -318zM276 97c64 0 106 40 118 112l13 78c2 12 5 29 5 41c0 61 -34 91 -88 91c-64 0 -106 -40 -118 -112l-13 -78
c-2 -12 -5 -29 -5 -41c0 -61 34 -91 88 -91z" />
    <glyph glyph-name="obreve" unicode="&#x14f;" 
d="M366 570c-113 0 -158 88 -179 170l81 42l20 -37c24 -45 42 -72 84 -72c36 0 58 25 94 74l26 35l83 -42c-43 -85 -100 -170 -209 -170zM265 -12c-140 0 -222 86 -222 222c0 197 119 318 292 318c140 0 222 -86 222 -222c0 -197 -119 -318 -292 -318zM276 97
c64 0 106 40 118 112l13 78c2 12 5 29 5 41c0 61 -34 91 -88 91c-64 0 -106 -40 -118 -112l-13 -78c-2 -12 -5 -29 -5 -41c0 -61 34 -91 88 -91z" />
    <glyph glyph-name="ocircumflex" unicode="&#xf4;" 
d="M446 785l108 -158l-76 -57l-106 115l-134 -115l-70 57l154 158h124zM265 -12c-140 0 -222 86 -222 222c0 197 119 318 292 318c140 0 222 -86 222 -222c0 -197 -119 -318 -292 -318zM276 97c64 0 106 40 118 112l13 78c2 12 5 29 5 41c0 61 -34 91 -88 91
c-64 0 -106 -40 -118 -112l-13 -78c-2 -12 -5 -29 -5 -41c0 -61 34 -91 88 -91z" />
    <glyph glyph-name="odieresis" unicode="&#xf6;" 
d="M251 592c-54 0 -74 23 -74 54c0 6 2 17 5 35c6 36 27 60 85 60c54 0 74 -23 74 -54c0 -6 -2 -17 -5 -35c-6 -36 -27 -60 -85 -60zM469 592c-54 0 -74 23 -74 54c0 6 2 17 5 35c6 36 27 60 85 60c54 0 74 -23 74 -54c0 -6 -2 -17 -5 -35c-6 -36 -27 -60 -85 -60zM265 -12
c-140 0 -222 86 -222 222c0 197 119 318 292 318c140 0 222 -86 222 -222c0 -197 -119 -318 -292 -318zM276 97c64 0 106 40 118 112l13 78c2 12 5 29 5 41c0 61 -34 91 -88 91c-64 0 -106 -40 -118 -112l-13 -78c-2 -12 -5 -29 -5 -41c0 -61 34 -91 88 -91z" />
    <glyph glyph-name="uni1ECD" unicode="&#x1ecd;" 
d="M231 -202c-54 0 -72 23 -72 54c0 7 2 18 5 36c6 36 28 59 83 59c54 0 72 -23 72 -54c0 -7 -2 -18 -5 -36c-6 -36 -28 -59 -83 -59zM265 -12c-140 0 -222 86 -222 222c0 197 119 318 292 318c140 0 222 -86 222 -222c0 -197 -119 -318 -292 -318zM276 97
c64 0 106 40 118 112l13 78c2 12 5 29 5 41c0 61 -34 91 -88 91c-64 0 -106 -40 -118 -112l-13 -78c-2 -12 -5 -29 -5 -41c0 -61 34 -91 88 -91z" />
    <glyph glyph-name="ograve" unicode="&#xf2;" 
d="M222 747l124 59l77 -196l-87 -39zM265 -12c-140 0 -222 86 -222 222c0 197 119 318 292 318c140 0 222 -86 222 -222c0 -197 -119 -318 -292 -318zM276 97c64 0 106 40 118 112l13 78c2 12 5 29 5 41c0 61 -34 91 -88 91c-64 0 -106 -40 -118 -112l-13 -78
c-2 -12 -5 -29 -5 -41c0 -61 34 -91 88 -91z" />
    <glyph glyph-name="uni1ECF" unicode="&#x1ecf;" 
d="M270 792h147c55 0 81 -26 81 -59c0 -41 -21 -71 -49 -106l-54 -66l-71 34l50 93h-122zM265 -12c-140 0 -222 86 -222 222c0 197 119 318 292 318c140 0 222 -86 222 -222c0 -197 -119 -318 -292 -318zM276 97c64 0 106 40 118 112l13 78c2 12 5 29 5 41
c0 61 -34 91 -88 91c-64 0 -106 -40 -118 -112l-13 -78c-2 -12 -5 -29 -5 -41c0 -61 34 -91 88 -91z" />
    <glyph glyph-name="ohungarumlaut" unicode="&#x151;" 
d="M263 571l-78 38l108 193l108 -56zM462 571l-78 38l108 193l108 -56zM265 -12c-140 0 -222 86 -222 222c0 197 119 318 292 318c140 0 222 -86 222 -222c0 -197 -119 -318 -292 -318zM276 97c64 0 106 40 118 112l13 78c2 12 5 29 5 41c0 61 -34 91 -88 91
c-64 0 -106 -40 -118 -112l-13 -78c-2 -12 -5 -29 -5 -41c0 -61 34 -91 88 -91z" />
    <glyph glyph-name="omacron" unicode="&#x14d;" 
d="M224 718h305l-17 -102h-305zM265 -12c-140 0 -222 86 -222 222c0 197 119 318 292 318c140 0 222 -86 222 -222c0 -197 -119 -318 -292 -318zM276 97c64 0 106 40 118 112l13 78c2 12 5 29 5 41c0 61 -34 91 -88 91c-64 0 -106 -40 -118 -112l-13 -78
c-2 -12 -5 -29 -5 -41c0 -61 34 -91 88 -91z" />
    <glyph glyph-name="oslash" unicode="&#xf8;" 
d="M-18 3l87 89c-17 33 -26 73 -26 118c0 197 119 318 292 318c53 0 98 -12 134 -36l81 82l68 -61l-87 -89c17 -33 26 -73 26 -118c0 -197 -119 -318 -292 -318c-53 0 -98 12 -134 36l-81 -82zM324 419c-64 0 -106 -40 -118 -112l-13 -78c-1 -6 -4 -23 -4 -25l192 199
c-14 10 -34 16 -57 16zM276 97c65 0 106 40 118 112l13 78c1 7 4 23 4 25l-192 -199c14 -10 34 -16 57 -16z" />
    <glyph glyph-name="oslashacute" unicode="&#x1ff;" 
d="M323 570l-86 46l115 190l114 -60zM-18 3l87 89c-17 33 -26 73 -26 118c0 197 119 318 292 318c53 0 98 -12 134 -36l81 82l68 -61l-87 -89c17 -33 26 -73 26 -118c0 -197 -119 -318 -292 -318c-53 0 -98 12 -134 36l-81 -82zM324 419c-64 0 -106 -40 -118 -112l-13 -78
c-1 -6 -4 -23 -4 -25l192 199c-14 10 -34 16 -57 16zM276 97c65 0 106 40 118 112l13 78c1 7 4 23 4 25l-192 -199c14 -10 34 -16 57 -16z" />
    <glyph glyph-name="otilde" unicode="&#xf5;" 
d="M432 592c-30 0 -50 10 -73 21c-27 12 -49 22 -75 22c-23 0 -39 -8 -63 -25l-40 67c29 36 71 64 124 64c30 0 50 -10 73 -21c27 -12 49 -22 75 -22c23 0 39 8 63 25l40 -67c-29 -36 -71 -64 -124 -64zM265 -12c-140 0 -222 86 -222 222c0 197 119 318 292 318
c140 0 222 -86 222 -222c0 -197 -119 -318 -292 -318zM276 97c64 0 106 40 118 112l13 78c2 12 5 29 5 41c0 61 -34 91 -88 91c-64 0 -106 -40 -118 -112l-13 -78c-2 -12 -5 -29 -5 -41c0 -61 34 -91 88 -91z" />
    <glyph glyph-name="ohorn" unicode="&#x1a1;" 
d="M265 -12c-140 0 -222 86 -222 222c0 197 119 318 292 318c30 0 58 -4 83 -12h79l20 115h123l-17 -103c-11 -62 -34 -93 -104 -95c26 -34 38 -72 38 -127c0 -197 -119 -318 -292 -318zM276 97c64 0 106 40 118 112l13 78c2 12 5 29 5 41c0 61 -34 91 -88 91
c-64 0 -106 -40 -118 -112l-13 -78c-2 -12 -5 -29 -5 -41c0 -61 34 -91 88 -91z" />
    <glyph glyph-name="uni1EDB" unicode="&#x1edb;" 
d="M366 570l-86 46l115 190l114 -60zM265 -12c-140 0 -222 86 -222 222c0 197 119 318 292 318c30 0 58 -4 83 -12h79l20 115h123l-17 -103c-11 -62 -34 -93 -104 -95c26 -34 38 -72 38 -127c0 -197 -119 -318 -292 -318zM276 97c64 0 106 40 118 112l13 78c2 12 5 29 5 41
c0 61 -34 91 -88 91c-64 0 -106 -40 -118 -112l-13 -78c-2 -12 -5 -29 -5 -41c0 -61 34 -91 88 -91z" />
    <glyph glyph-name="uni1EE3" unicode="&#x1ee3;" 
d="M231 -202c-54 0 -72 23 -72 54c0 7 2 18 5 36c6 36 28 59 83 59c54 0 72 -23 72 -54c0 -7 -2 -18 -5 -36c-6 -36 -28 -59 -83 -59zM265 -12c-140 0 -222 86 -222 222c0 197 119 318 292 318c30 0 58 -4 83 -12h79l20 115h123l-17 -103c-11 -62 -34 -93 -104 -95
c26 -34 38 -72 38 -127c0 -197 -119 -318 -292 -318zM276 97c64 0 106 40 118 112l13 78c2 12 5 29 5 41c0 61 -34 91 -88 91c-64 0 -106 -40 -118 -112l-13 -78c-2 -12 -5 -29 -5 -41c0 -61 34 -91 88 -91z" />
    <glyph glyph-name="uni1EDD" unicode="&#x1edd;" 
d="M222 747l124 59l77 -196l-87 -39zM265 -12c-140 0 -222 86 -222 222c0 197 119 318 292 318c30 0 58 -4 83 -12h79l20 115h123l-17 -103c-11 -62 -34 -93 -104 -95c26 -34 38 -72 38 -127c0 -197 -119 -318 -292 -318zM276 97c64 0 106 40 118 112l13 78c2 12 5 29 5 41
c0 61 -34 91 -88 91c-64 0 -106 -40 -118 -112l-13 -78c-2 -12 -5 -29 -5 -41c0 -61 34 -91 88 -91z" />
    <glyph glyph-name="uni1EDF" unicode="&#x1edf;" 
d="M270 792h147c55 0 81 -26 81 -59c0 -41 -21 -71 -49 -106l-54 -66l-71 34l50 93h-122zM265 -12c-140 0 -222 86 -222 222c0 197 119 318 292 318c30 0 58 -4 83 -12h79l20 115h123l-17 -103c-11 -62 -34 -93 -104 -95c26 -34 38 -72 38 -127c0 -197 -119 -318 -292 -318z
M276 97c64 0 106 40 118 112l13 78c2 12 5 29 5 41c0 61 -34 91 -88 91c-64 0 -106 -40 -118 -112l-13 -78c-2 -12 -5 -29 -5 -41c0 -61 34 -91 88 -91z" />
    <glyph glyph-name="uni1EE1" unicode="&#x1ee1;" 
d="M401 593c-26 0 -44 9 -64 20c-23 12 -41 22 -63 22c-17 0 -33 -6 -52 -21l-41 61c28 36 65 65 113 65c26 0 44 -9 64 -20c23 -12 41 -22 63 -22c17 0 33 6 52 21l41 -61c-28 -36 -65 -65 -113 -65zM265 -12c-140 0 -222 86 -222 222c0 197 119 318 292 318
c30 0 58 -4 83 -12h79l20 115h123l-17 -103c-11 -62 -34 -93 -104 -95c26 -34 38 -72 38 -127c0 -197 -119 -318 -292 -318zM276 97c64 0 106 40 118 112l13 78c2 12 5 29 5 41c0 61 -34 91 -88 91c-64 0 -106 -40 -118 -112l-13 -78c-2 -12 -5 -29 -5 -41
c0 -61 34 -91 88 -91z" />
    <glyph glyph-name="uni1ED1" unicode="&#x1ed1;" 
d="M554 726l-79 40l100 190l110 -55zM430 771l121 -146l-74 -63l-109 104l-136 -104l-63 63l167 146h94zM265 -12c-140 0 -222 86 -222 222c0 197 119 318 292 318c140 0 222 -86 222 -222c0 -197 -119 -318 -292 -318zM276 97c64 0 106 40 118 112l13 78c2 12 5 29 5 41
c0 61 -34 91 -88 91c-64 0 -106 -40 -118 -112l-13 -78c-2 -12 -5 -29 -5 -41c0 -61 34 -91 88 -91z" />
    <glyph glyph-name="uni1ED9" unicode="&#x1ed9;" 
d="M231 -202c-54 0 -72 23 -72 54c0 7 2 18 5 36c6 36 28 59 83 59c54 0 72 -23 72 -54c0 -7 -2 -18 -5 -36c-6 -36 -28 -59 -83 -59zM446 785l108 -158l-76 -57l-106 115l-134 -115l-70 57l154 158h124zM265 -12c-140 0 -222 86 -222 222c0 197 119 318 292 318
c140 0 222 -86 222 -222c0 -197 -119 -318 -292 -318zM276 97c64 0 106 40 118 112l13 78c2 12 5 29 5 41c0 61 -34 91 -88 91c-64 0 -106 -40 -118 -112l-13 -78c-2 -12 -5 -29 -5 -41c0 -61 34 -91 88 -91z" />
    <glyph glyph-name="uni1ED3" unicode="&#x1ed3;" 
d="M89 901l113 55l74 -193l-74 -38zM430 771l121 -146l-74 -63l-109 104l-136 -104l-63 63l167 146h94zM265 -12c-140 0 -222 86 -222 222c0 197 119 318 292 318c140 0 222 -86 222 -222c0 -197 -119 -318 -292 -318zM276 97c64 0 106 40 118 112l13 78c2 12 5 29 5 41
c0 61 -34 91 -88 91c-64 0 -106 -40 -118 -112l-13 -78c-2 -12 -5 -29 -5 -41c0 -61 34 -91 88 -91z" />
    <glyph glyph-name="uni1ED5" unicode="&#x1ed5;" 
d="M450 943h137c55 0 81 -26 81 -59c0 -41 -21 -71 -49 -106l-54 -66l-71 34l52 96h-112zM430 771l121 -146l-74 -63l-109 104l-136 -104l-63 63l167 146h94zM265 -12c-140 0 -222 86 -222 222c0 197 119 318 292 318c140 0 222 -86 222 -222c0 -197 -119 -318 -292 -318z
M276 97c64 0 106 40 118 112l13 78c2 12 5 29 5 41c0 61 -34 91 -88 91c-64 0 -106 -40 -118 -112l-13 -78c-2 -12 -5 -29 -5 -41c0 -61 34 -91 88 -91z" />
    <glyph glyph-name="uni1ED7" unicode="&#x1ed7;" 
d="M335 932c30 0 50 -9 73 -20c27 -13 49 -22 75 -22c23 0 39 8 63 25l38 -66c-28 -35 -71 -62 -124 -62c-30 0 -50 9 -73 20c-27 13 -49 22 -75 22c-23 0 -39 -8 -63 -25l-38 66c28 35 71 62 124 62zM429 759l122 -134l-72 -63l-111 96l-134 -96l-65 63l165 134h95z
M265 -12c-140 0 -222 86 -222 222c0 197 119 318 292 318c140 0 222 -86 222 -222c0 -197 -119 -318 -292 -318zM276 97c64 0 106 40 118 112l13 78c2 12 5 29 5 41c0 61 -34 91 -88 91c-64 0 -106 -40 -118 -112l-13 -78c-2 -12 -5 -29 -5 -41c0 -61 34 -91 88 -91z" />
    <glyph glyph-name="oe" unicode="&#x153;" 
d="M399 -12c-60 0 -103 24 -121 78h-5c-12 -31 -51 -78 -121 -78c-85 0 -143 56 -143 188c0 211 76 352 210 352c55 0 95 -26 109 -71h4c29 44 77 71 136 71c84 0 139 -57 139 -129c0 -75 -40 -168 -254 -173l-2 -11c-3 -18 -4 -35 -4 -50c0 -50 20 -82 58 -82
c35 0 62 33 78 74l91 -39c-34 -81 -90 -130 -175 -130zM164 83c37 0 61 29 74 107l23 138c2 14 3 27 3 39c0 43 -18 66 -48 66c-37 0 -61 -29 -74 -107l-23 -138c-2 -12 -3 -27 -3 -39c0 -43 18 -66 48 -66zM450 439c-38 0 -68 -39 -83 -129l-1 -7c96 4 135 38 135 90
c0 29 -20 46 -51 46z" />
    <glyph glyph-name="racute" unicode="&#x155;" 
d="M379 570l-86 46l115 190l114 -60zM146 0l67 402h-118l19 114h264l-27 -156h6c43 98 105 156 206 156h34l-26 -146h-91c-54 0 -84 -15 -108 -45c-13 -16 -35 -53 -41 -89l-39 -236h-146z" />
    <glyph glyph-name="rcaron" unicode="&#x159;" 
d="M309 579l-108 158l76 57l106 -115l134 115l70 -57l-154 -158h-124zM146 0l67 402h-118l19 114h264l-27 -156h6c43 98 105 156 206 156h34l-26 -146h-91c-54 0 -84 -15 -108 -45c-13 -16 -35 -53 -41 -89l-39 -236h-146z" />
    <glyph glyph-name="uni0157" unicode="&#x157;" 
d="M131 -54h156l-121 -215h-88zM146 0l67 402h-118l19 114h264l-27 -156h6c43 98 105 156 206 156h34l-26 -146h-91c-54 0 -84 -15 -108 -45c-13 -16 -35 -53 -41 -89l-39 -236h-146z" />
    <glyph glyph-name="sacute" unicode="&#x15b;" 
d="M358 570l-86 46l115 190l114 -60zM258 -12c-103 0 -182 30 -217 84l82 81c29 -41 84 -62 145 -62c60 0 98 20 98 57c0 28 -22 38 -53 45l-74 16c-78 17 -139 50 -139 141c0 116 100 178 234 178c92 0 170 -28 205 -73l-80 -82c-23 29 -71 52 -129 52
c-52 0 -86 -19 -86 -56c0 -28 19 -36 51 -43l77 -17c86 -19 139 -55 139 -139c0 -114 -99 -182 -253 -182z" />
    <glyph glyph-name="scaron" unicode="&#x161;" 
d="M288 579l-108 158l76 57l106 -115l134 115l70 -57l-154 -158h-124zM258 -12c-103 0 -182 30 -217 84l82 81c29 -41 84 -62 145 -62c60 0 98 20 98 57c0 28 -22 38 -53 45l-74 16c-78 17 -139 50 -139 141c0 116 100 178 234 178c92 0 170 -28 205 -73l-80 -82
c-23 29 -71 52 -129 52c-52 0 -86 -19 -86 -56c0 -28 19 -36 51 -43l77 -17c86 -19 139 -55 139 -139c0 -114 -99 -182 -253 -182z" />
    <glyph glyph-name="scedilla" unicode="&#x15f;" 
d="M245 -212c-56 0 -96 21 -115 46l51 53c10 -12 31 -28 61 -28c29 0 50 9 50 29c0 17 -16 31 -68 36l-23 2l24 63c-87 6 -153 35 -184 83l82 81c29 -41 84 -62 146 -62c59 0 97 20 97 58c0 25 -20 37 -53 44l-74 16c-81 18 -139 52 -139 140c0 117 100 179 234 179
c92 0 170 -28 205 -73l-80 -82c-23 29 -71 52 -129 52c-53 0 -86 -19 -86 -57c0 -25 17 -35 51 -42l77 -17c84 -19 139 -54 139 -137c0 -108 -85 -173 -218 -183l-16 -44l3 -4c15 5 29 7 42 7c37 0 66 -22 66 -58c0 -68 -62 -102 -143 -102z" />
    <glyph glyph-name="scircumflex" unicode="&#x15d;" 
d="M438 785l108 -158l-76 -57l-106 115l-134 -115l-70 57l154 158h124zM258 -12c-103 0 -182 30 -217 84l82 81c29 -41 84 -62 145 -62c60 0 98 20 98 57c0 28 -22 38 -53 45l-74 16c-78 17 -139 50 -139 141c0 116 100 178 234 178c92 0 170 -28 205 -73l-80 -82
c-23 29 -71 52 -129 52c-52 0 -86 -19 -86 -56c0 -28 19 -36 51 -43l77 -17c86 -19 139 -55 139 -139c0 -114 -99 -182 -253 -182z" />
    <glyph glyph-name="uni0219" unicode="&#x219;" 
d="M177 -54h156l-121 -215h-88zM258 -12c-103 0 -182 30 -217 84l82 81c29 -41 84 -62 145 -62c60 0 98 20 98 57c0 28 -22 38 -53 45l-74 16c-78 17 -139 50 -139 141c0 116 100 178 234 178c92 0 170 -28 205 -73l-80 -82c-23 29 -71 52 -129 52c-52 0 -86 -19 -86 -56
c0 -28 19 -36 51 -43l77 -17c86 -19 139 -55 139 -139c0 -114 -99 -182 -253 -182z" />
    <glyph glyph-name="germandbls" unicode="&#xdf;" 
d="M82 401h-48l19 115h48l1 7c20 140 131 229 283 229c133 0 211 -71 211 -184c0 -15 -4 -47 -9 -80l-10 -61h-64c-61 0 -96 -17 -96 -52c0 -30 19 -40 55 -58l31 -15c60 -29 85 -65 85 -122c0 -104 -76 -192 -217 -192c-72 0 -135 22 -166 71l80 79c20 -29 54 -47 93 -47
c42 0 72 19 72 63c0 30 -14 45 -50 63l-29 15c-60 31 -94 62 -94 123c0 83 64 138 178 159l1 7c3 20 4 27 4 38c0 53 -25 83 -90 83c-76 0 -111 -42 -124 -119l-88 -523h-143z" />
    <glyph glyph-name="germandbls.alt01" 
d="M17 0l96 595c14 84 71 145 176 145h140l-19 -112h-147l-19 -112h330l-18 -105l-170 -203c89 -18 142 -74 142 -167c0 -157 -118 -241 -295 -241h-70l19 112h57c84 0 126 27 137 93c5 30 5 34 5 41c0 50 -38 72 -114 72h-24l19 112l145 174h-181l-67 -404h-142z" />
    <glyph glyph-name="tbar" unicode="&#x167;" 
d="M281 -12c-90 0 -130 51 -130 128c0 18 2 36 7 66l10 61h-92l17 100h92l10 59h-132l19 114h83c43 0 63 15 70 60l20 122h136l-30 -182h202l-19 -114h-202l-10 -59h144l-17 -100h-143l-22 -131l15 -9l150 90l65 -85l-62 -43c-72 -50 -123 -77 -181 -77z" />
    <glyph glyph-name="tcaron" unicode="&#x165;" 
d="M528 565h-97l41 215h157zM278 -12c-88 0 -127 51 -127 128c0 18 2 36 7 66l37 220h-132l19 114h83c43 0 63 15 70 60l20 122h136l-30 -182h202l-19 -114h-202l-48 -288l20 -7l156 123l72 -82l-60 -52c-85 -73 -133 -108 -204 -108z" />
    <glyph glyph-name="uni0163" unicode="&#x163;" 
d="M195 -54h156l-121 -215h-88zM278 -12c-88 0 -127 51 -127 128c0 18 2 36 7 66l37 220h-132l19 114h83c43 0 63 15 70 60l20 122h136l-30 -182h202l-19 -114h-202l-48 -288l20 -7l156 123l72 -82l-60 -52c-85 -73 -133 -108 -204 -108z" />
    <glyph glyph-name="uni021B" unicode="&#x21b;" 
d="M195 -54h156l-121 -215h-88zM278 -12c-88 0 -127 51 -127 128c0 18 2 36 7 66l37 220h-132l19 114h83c43 0 63 15 70 60l20 122h136l-30 -182h202l-19 -114h-202l-48 -288l20 -7l156 123l72 -82l-60 -52c-85 -73 -133 -108 -204 -108z" />
    <glyph glyph-name="thorn" unicode="&#xfe;" 
d="M144 740h146l-57 -347h5c39 79 85 135 173 135c109 0 151 -79 151 -200c0 -205 -94 -340 -237 -340c-81 0 -120 40 -135 108h-7l-50 -296h-146zM278 101c72 0 109 44 122 122l10 60c2 12 4 28 4 45c-1 49 -18 87 -68 87c-36 0 -63 -19 -87 -49c-16 -19 -40 -54 -47 -97
l-14 -83c-9 -54 17 -85 80 -85z" />
    <glyph glyph-name="uacute" unicode="&#xfa;" 
d="M361 570l-86 46l115 190l114 -60zM362 123h-5c-39 -84 -86 -135 -168 -135c-101 0 -141 69 -141 149c0 29 3 56 11 104l46 275h146l-49 -292c-3 -18 -7 -38 -7 -63c0 -27 15 -61 60 -61c34 0 58 17 81 47c15 20 40 58 47 100l45 269h146l-86 -516h-146z" />
    <glyph glyph-name="ubreve" unicode="&#x16d;" 
d="M361 570c-113 0 -158 88 -179 170l81 42l20 -37c24 -45 42 -72 84 -72c36 0 58 25 94 74l26 35l83 -42c-43 -85 -100 -170 -209 -170zM362 123h-5c-39 -84 -86 -135 -168 -135c-101 0 -141 69 -141 149c0 29 3 56 11 104l46 275h146l-49 -292c-3 -18 -7 -38 -7 -63
c0 -27 15 -61 60 -61c34 0 58 17 81 47c15 20 40 58 47 100l45 269h146l-86 -516h-146z" />
    <glyph glyph-name="ucircumflex" unicode="&#xfb;" 
d="M441 785l108 -158l-76 -57l-106 115l-134 -115l-70 57l154 158h124zM362 123h-5c-39 -84 -86 -135 -168 -135c-101 0 -141 69 -141 149c0 29 3 56 11 104l46 275h146l-49 -292c-3 -18 -7 -38 -7 -63c0 -27 15 -61 60 -61c34 0 58 17 81 47c15 20 40 58 47 100l45 269h146
l-86 -516h-146z" />
    <glyph glyph-name="udieresis" unicode="&#xfc;" 
d="M246 592c-54 0 -74 23 -74 54c0 6 2 17 5 35c6 36 27 60 85 60c54 0 74 -23 74 -54c0 -6 -2 -17 -5 -35c-6 -36 -27 -60 -85 -60zM464 592c-54 0 -74 23 -74 54c0 6 2 17 5 35c6 36 27 60 85 60c54 0 74 -23 74 -54c0 -6 -2 -17 -5 -35c-6 -36 -27 -60 -85 -60zM362 123
h-5c-39 -84 -86 -135 -168 -135c-101 0 -141 69 -141 149c0 29 3 56 11 104l46 275h146l-49 -292c-3 -18 -7 -38 -7 -63c0 -27 15 -61 60 -61c34 0 58 17 81 47c15 20 40 58 47 100l45 269h146l-86 -516h-146z" />
    <glyph glyph-name="uni1EE5" unicode="&#x1ee5;" 
d="M239 -202c-54 0 -72 23 -72 54c0 7 2 18 5 36c6 36 28 59 83 59c54 0 72 -23 72 -54c0 -7 -2 -18 -5 -36c-6 -36 -28 -59 -83 -59zM362 123h-5c-39 -84 -86 -135 -168 -135c-101 0 -141 69 -141 149c0 29 3 56 11 104l46 275h146l-49 -292c-3 -18 -7 -38 -7 -63
c0 -27 15 -61 60 -61c34 0 58 17 81 47c15 20 40 58 47 100l45 269h146l-86 -516h-146z" />
    <glyph glyph-name="ugrave" unicode="&#xf9;" 
d="M217 747l124 59l77 -196l-87 -39zM362 123h-5c-39 -84 -86 -135 -168 -135c-101 0 -141 69 -141 149c0 29 3 56 11 104l46 275h146l-49 -292c-3 -18 -7 -38 -7 -63c0 -27 15 -61 60 -61c34 0 58 17 81 47c15 20 40 58 47 100l45 269h146l-86 -516h-146z" />
    <glyph glyph-name="uni1EE7" unicode="&#x1ee7;" 
d="M265 792h147c55 0 81 -26 81 -59c0 -41 -21 -71 -49 -106l-54 -66l-71 34l50 93h-122zM362 123h-5c-39 -84 -86 -135 -168 -135c-101 0 -141 69 -141 149c0 29 3 56 11 104l46 275h146l-49 -292c-3 -18 -7 -38 -7 -63c0 -27 15 -61 60 -61c34 0 58 17 81 47
c15 20 40 58 47 100l45 269h146l-86 -516h-146z" />
    <glyph glyph-name="uhungarumlaut" unicode="&#x171;" 
d="M258 571l-78 38l108 193l108 -56zM457 571l-78 38l108 193l108 -56zM362 123h-5c-39 -84 -86 -135 -168 -135c-101 0 -141 69 -141 149c0 29 3 56 11 104l46 275h146l-49 -292c-3 -18 -7 -38 -7 -63c0 -27 15 -61 60 -61c34 0 58 17 81 47c15 20 40 58 47 100l45 269h146
l-86 -516h-146z" />
    <glyph glyph-name="umacron" unicode="&#x16b;" 
d="M219 718h305l-17 -102h-305zM362 123h-5c-39 -84 -86 -135 -168 -135c-101 0 -141 69 -141 149c0 29 3 56 11 104l46 275h146l-49 -292c-3 -18 -7 -38 -7 -63c0 -27 15 -61 60 -61c34 0 58 17 81 47c15 20 40 58 47 100l45 269h146l-86 -516h-146z" />
    <glyph glyph-name="uogonek" unicode="&#x173;" 
d="M488 0c-105 -63 -116 -90 -116 -110c0 -17 11 -30 37 -30c20 0 39 6 53 27l54 -45c-25 -32 -64 -54 -121 -54c-71 0 -122 30 -122 85c0 49 41 97 140 123l-1 4h-70l20 123h-5c-39 -84 -86 -135 -168 -135c-101 0 -141 69 -141 149c0 29 3 56 11 104l46 275h146l-49 -292
c-3 -18 -7 -38 -7 -63c0 -27 15 -61 60 -61c34 0 57 16 81 47c15 20 40 58 47 100l45 269h146z" />
    <glyph glyph-name="uring" unicode="&#x16f;" 
d="M347 550c-73 0 -130 54 -130 124c0 94 76 160 168 160c73 0 130 -54 130 -124c0 -94 -76 -160 -168 -160zM355 624c34 0 54 21 59 51c4 24 6 35 6 45c0 25 -14 40 -43 40c-34 0 -54 -21 -59 -51c-4 -24 -6 -35 -6 -45c0 -25 14 -40 43 -40zM362 123h-5
c-39 -84 -86 -135 -168 -135c-101 0 -141 69 -141 149c0 29 3 56 11 104l46 275h146l-49 -292c-3 -18 -7 -38 -7 -63c0 -27 15 -61 60 -61c34 0 58 17 81 47c15 20 40 58 47 100l45 269h146l-86 -516h-146z" />
    <glyph glyph-name="utilde" unicode="&#x169;" 
d="M427 592c-30 0 -50 10 -73 21c-27 12 -49 22 -75 22c-23 0 -39 -8 -63 -25l-40 67c29 36 71 64 124 64c30 0 50 -10 73 -21c27 -12 49 -22 75 -22c23 0 39 8 63 25l40 -67c-29 -36 -71 -64 -124 -64zM362 123h-5c-39 -84 -86 -135 -168 -135c-101 0 -141 69 -141 149
c0 29 3 56 11 104l46 275h146l-49 -292c-3 -18 -7 -38 -7 -63c0 -27 15 -61 60 -61c34 0 58 17 81 47c15 20 40 58 47 100l45 269h146l-86 -516h-146z" />
    <glyph glyph-name="uhorn" unicode="&#x1b0;" 
d="M189 -12c-101 0 -141 69 -141 149c0 29 3 56 11 104l46 275h146l-49 -292c-3 -18 -7 -38 -7 -63c0 -27 15 -61 60 -61c34 0 58 17 81 47c15 20 40 58 47 100l45 269h83l20 115h123l-17 -103c-9 -54 -28 -87 -77 -96l-72 -432h-146l20 123h-5c-39 -84 -86 -135 -168 -135z
" />
    <glyph glyph-name="uni1EE9" unicode="&#x1ee9;" 
d="M364 570l-86 46l115 190l114 -60zM189 -12c-101 0 -141 69 -141 149c0 29 3 56 11 104l46 275h146l-49 -292c-3 -18 -7 -38 -7 -63c0 -27 15 -61 60 -61c34 0 58 17 81 47c15 20 40 58 47 100l45 269h83l20 115h123l-17 -103c-9 -54 -28 -87 -77 -96l-72 -432h-146
l20 123h-5c-39 -84 -86 -135 -168 -135z" />
    <glyph glyph-name="uni1EF1" unicode="&#x1ef1;" 
d="M249 -202c-54 0 -72 23 -72 54c0 7 2 18 5 36c6 36 28 59 83 59c54 0 72 -23 72 -54c0 -7 -2 -18 -5 -36c-6 -36 -28 -59 -83 -59zM189 -12c-101 0 -141 69 -141 149c0 29 3 56 11 104l46 275h146l-49 -292c-3 -18 -7 -38 -7 -63c0 -27 15 -61 60 -61c34 0 58 17 81 47
c15 20 40 58 47 100l45 269h83l20 115h123l-17 -103c-9 -54 -28 -87 -77 -96l-72 -432h-146l20 123h-5c-39 -84 -86 -135 -168 -135z" />
    <glyph glyph-name="uni1EEB" unicode="&#x1eeb;" 
d="M220 747l124 59l77 -196l-87 -39zM189 -12c-101 0 -141 69 -141 149c0 29 3 56 11 104l46 275h146l-49 -292c-3 -18 -7 -38 -7 -63c0 -27 15 -61 60 -61c34 0 58 17 81 47c15 20 40 58 47 100l45 269h83l20 115h123l-17 -103c-9 -54 -28 -87 -77 -96l-72 -432h-146
l20 123h-5c-39 -84 -86 -135 -168 -135z" />
    <glyph glyph-name="uni1EED" unicode="&#x1eed;" 
d="M268 792h147c55 0 81 -26 81 -59c0 -41 -21 -71 -49 -106l-54 -66l-71 34l50 93h-122zM189 -12c-101 0 -141 69 -141 149c0 29 3 56 11 104l46 275h146l-49 -292c-3 -18 -7 -38 -7 -63c0 -27 15 -61 60 -61c34 0 58 17 81 47c15 20 40 58 47 100l45 269h83l20 115h123
l-17 -103c-9 -54 -28 -87 -77 -96l-72 -432h-146l20 123h-5c-39 -84 -86 -135 -168 -135z" />
    <glyph glyph-name="uni1EEF" unicode="&#x1eef;" 
d="M399 593c-26 0 -44 9 -64 20c-23 12 -41 22 -63 22c-17 0 -33 -6 -52 -21l-41 61c28 36 65 65 113 65c26 0 44 -9 64 -20c23 -12 41 -22 63 -22c17 0 33 6 52 21l41 -61c-28 -36 -65 -65 -113 -65zM189 -12c-101 0 -141 69 -141 149c0 29 3 56 11 104l46 275h146
l-49 -292c-3 -18 -7 -38 -7 -63c0 -27 15 -61 60 -61c34 0 58 17 81 47c15 20 40 58 47 100l45 269h83l20 115h123l-17 -103c-9 -54 -28 -87 -77 -96l-72 -432h-146l20 123h-5c-39 -84 -86 -135 -168 -135z" />
    <glyph glyph-name="wacute" unicode="&#x1e83;" 
d="M359 570l-86 46l115 190l114 -60zM108 -12c-66 0 -95 44 -95 109c0 18 4 63 9 95l54 324h118l-61 -329c-2 -11 -4 -33 -4 -45c0 -21 9 -35 31 -35c20 0 36 15 51 39c9 14 17 37 20 60l48 310h113l-54 -334c-2 -11 -5 -34 -5 -43c0 -19 8 -36 30 -36c49 0 98 126 98 263
c0 47 -6 95 -18 128l102 30c20 -37 34 -91 34 -159c0 -119 -34 -225 -88 -293c-43 -54 -99 -84 -154 -84c-72 0 -98 51 -95 110h-7c-24 -73 -68 -110 -127 -110z" />
    <glyph glyph-name="wcircumflex" unicode="&#x175;" 
d="M439 785l108 -158l-76 -57l-106 115l-134 -115l-70 57l154 158h124zM108 -12c-66 0 -95 44 -95 109c0 18 4 63 9 95l54 324h118l-61 -329c-2 -11 -4 -33 -4 -45c0 -21 9 -35 31 -35c20 0 36 15 51 39c9 14 17 37 20 60l48 310h113l-54 -334c-2 -11 -5 -34 -5 -43
c0 -19 8 -36 30 -36c49 0 98 126 98 263c0 47 -6 95 -18 128l102 30c20 -37 34 -91 34 -159c0 -119 -34 -225 -88 -293c-43 -54 -99 -84 -154 -84c-72 0 -98 51 -95 110h-7c-24 -73 -68 -110 -127 -110z" />
    <glyph glyph-name="wdieresis" unicode="&#x1e85;" 
d="M244 592c-54 0 -74 23 -74 54c0 6 2 17 5 35c6 36 27 60 85 60c54 0 74 -23 74 -54c0 -6 -2 -17 -5 -35c-6 -36 -27 -60 -85 -60zM462 592c-54 0 -74 23 -74 54c0 6 2 17 5 35c6 36 27 60 85 60c54 0 74 -23 74 -54c0 -6 -2 -17 -5 -35c-6 -36 -27 -60 -85 -60zM108 -12
c-66 0 -95 44 -95 109c0 18 4 63 9 95l54 324h118l-61 -329c-2 -11 -4 -33 -4 -45c0 -21 9 -35 31 -35c20 0 36 15 51 39c9 14 17 37 20 60l48 310h113l-54 -334c-2 -11 -5 -34 -5 -43c0 -19 8 -36 30 -36c49 0 98 126 98 263c0 47 -6 95 -18 128l102 30
c20 -37 34 -91 34 -159c0 -119 -34 -225 -88 -293c-43 -54 -99 -84 -154 -84c-72 0 -98 51 -95 110h-7c-24 -73 -68 -110 -127 -110z" />
    <glyph glyph-name="wgrave" unicode="&#x1e81;" 
d="M215 747l124 59l77 -196l-87 -39zM108 -12c-66 0 -95 44 -95 109c0 18 4 63 9 95l54 324h118l-61 -329c-2 -11 -4 -33 -4 -45c0 -21 9 -35 31 -35c20 0 36 15 51 39c9 14 17 37 20 60l48 310h113l-54 -334c-2 -11 -5 -34 -5 -43c0 -19 8 -36 30 -36c49 0 98 126 98 263
c0 47 -6 95 -18 128l102 30c20 -37 34 -91 34 -159c0 -119 -34 -225 -88 -293c-43 -54 -99 -84 -154 -84c-72 0 -98 51 -95 110h-7c-24 -73 -68 -110 -127 -110z" />
    <glyph glyph-name="yacute" unicode="&#xfd;" 
d="M372 570l-86 46l115 190l114 -60zM217 -212c-96 0 -159 15 -211 76l87 90c32 -39 74 -53 120 -53c74 0 118 28 138 153l14 86h-5c-39 -84 -86 -135 -168 -135c-101 0 -141 69 -141 149c0 29 3 56 11 104l43 258h146l-46 -275c-3 -18 -7 -38 -7 -63c0 -27 15 -61 60 -61
c34 0 58 17 81 47c15 20 40 58 47 100l42 252h146l-80 -480c-28 -167 -124 -248 -277 -248z" />
    <glyph glyph-name="ycircumflex" unicode="&#x177;" 
d="M452 785l108 -158l-76 -57l-106 115l-134 -115l-70 57l154 158h124zM217 -212c-96 0 -159 15 -211 76l87 90c32 -39 74 -53 120 -53c74 0 118 28 138 153l14 86h-5c-39 -84 -86 -135 -168 -135c-101 0 -141 69 -141 149c0 29 3 56 11 104l43 258h146l-46 -275
c-3 -18 -7 -38 -7 -63c0 -27 15 -61 60 -61c34 0 58 17 81 47c15 20 40 58 47 100l42 252h146l-80 -480c-28 -167 -124 -248 -277 -248z" />
    <glyph glyph-name="ydieresis" unicode="&#xff;" 
d="M257 592c-54 0 -74 23 -74 54c0 6 2 17 5 35c6 36 27 60 85 60c54 0 74 -23 74 -54c0 -6 -2 -17 -5 -35c-6 -36 -27 -60 -85 -60zM475 592c-54 0 -74 23 -74 54c0 6 2 17 5 35c6 36 27 60 85 60c54 0 74 -23 74 -54c0 -6 -2 -17 -5 -35c-6 -36 -27 -60 -85 -60zM217 -212
c-96 0 -159 15 -211 76l87 90c32 -39 74 -53 120 -53c74 0 118 28 138 153l14 86h-5c-39 -84 -86 -135 -168 -135c-101 0 -141 69 -141 149c0 29 3 56 11 104l43 258h146l-46 -275c-3 -18 -7 -38 -7 -63c0 -27 15 -61 60 -61c34 0 58 17 81 47c15 20 40 58 47 100l42 252
h146l-80 -480c-28 -167 -124 -248 -277 -248z" />
    <glyph glyph-name="uni1EF5" unicode="&#x1ef5;" 
d="M217 -212c-96 0 -159 15 -211 76l84 85c32 -39 77 -53 123 -53c75 0 122 29 143 156l21 131h-6c-37 -85 -89 -129 -171 -129c-103 0 -144 57 -144 128c0 36 4 68 10 102l39 232h146l-42 -250c-4 -21 -5 -39 -5 -48c0 -30 13 -58 57 -58c36 0 64 14 88 42
c16 19 36 54 44 104l35 210h146l-80 -480c-28 -167 -124 -248 -277 -248zM214 -82c-40 0 -58 17 -58 43c0 4 1 12 4 29c5 28 22 46 66 46c41 0 58 -17 58 -43c0 -4 -1 -12 -4 -29c-5 -28 -22 -46 -66 -46z" />
    <glyph glyph-name="ygrave" unicode="&#x1ef3;" 
d="M228 747l124 59l77 -196l-87 -39zM217 -212c-96 0 -159 15 -211 76l87 90c32 -39 74 -53 120 -53c74 0 118 28 138 153l14 86h-5c-39 -84 -86 -135 -168 -135c-101 0 -141 69 -141 149c0 29 3 56 11 104l43 258h146l-46 -275c-3 -18 -7 -38 -7 -63c0 -27 15 -61 60 -61
c34 0 58 17 81 47c15 20 40 58 47 100l42 252h146l-80 -480c-28 -167 -124 -248 -277 -248z" />
    <glyph glyph-name="uni1EF7" unicode="&#x1ef7;" 
d="M276 792h147c55 0 81 -26 81 -59c0 -41 -21 -71 -49 -106l-54 -66l-71 34l50 93h-122zM217 -212c-96 0 -159 15 -211 76l87 90c32 -39 74 -53 120 -53c74 0 118 28 138 153l14 86h-5c-39 -84 -86 -135 -168 -135c-101 0 -141 69 -141 149c0 29 3 56 11 104l43 258h146
l-46 -275c-3 -18 -7 -38 -7 -63c0 -27 15 -61 60 -61c34 0 58 17 81 47c15 20 40 58 47 100l42 252h146l-80 -480c-28 -167 -124 -248 -277 -248z" />
    <glyph glyph-name="uni1EF9" unicode="&#x1ef9;" 
d="M438 592c-30 0 -50 10 -73 21c-27 12 -49 22 -75 22c-23 0 -39 -8 -63 -25l-40 67c29 36 71 64 124 64c30 0 50 -10 73 -21c27 -12 49 -22 75 -22c23 0 39 8 63 25l40 -67c-29 -36 -71 -64 -124 -64zM217 -212c-96 0 -159 15 -211 76l87 90c32 -39 74 -53 120 -53
c74 0 118 28 138 153l14 86h-5c-39 -84 -86 -135 -168 -135c-101 0 -141 69 -141 149c0 29 3 56 11 104l43 258h146l-46 -275c-3 -18 -7 -38 -7 -63c0 -27 15 -61 60 -61c34 0 58 17 81 47c15 20 40 58 47 100l42 252h146l-80 -480c-28 -167 -124 -248 -277 -248z" />
    <glyph glyph-name="zacute" unicode="&#x17a;" 
d="M343 570l-86 46l115 190l114 -60zM414 -12c-48 0 -100 8 -154 36l-101 52l-4 -3l-12 -73h-125l20 120l320 254c-38 30 -68 41 -111 41c-34 0 -64 -18 -64 -76h-108v9c0 115 64 180 163 180c62 0 129 -19 198 -88l2 -2l6 5l12 73h125l-20 -120l-324 -258l196 -37l11 13
l-30 88l85 37l15 -27c22 -39 30 -68 30 -98c0 -65 -49 -126 -130 -126z" />
    <glyph glyph-name="zcaron" unicode="&#x17e;" 
d="M273 579l-108 158l76 57l106 -115l134 115l70 -57l-154 -158h-124zM414 -12c-48 0 -100 8 -154 36l-101 52l-4 -3l-12 -73h-125l20 120l320 254c-38 30 -68 41 -111 41c-34 0 -64 -18 -64 -76h-108v9c0 115 64 180 163 180c62 0 129 -19 198 -88l2 -2l6 5l12 73h125
l-20 -120l-324 -258l196 -37l11 13l-30 88l85 37l15 -27c22 -39 30 -68 30 -98c0 -65 -49 -126 -130 -126z" />
    <glyph glyph-name="zdotaccent" unicode="&#x17c;" 
d="M337 584c-60 0 -82 26 -82 61c0 7 1 16 5 40c7 42 34 66 94 66s82 -26 82 -61c0 -7 -1 -16 -5 -40c-7 -42 -34 -66 -94 -66zM414 -12c-48 0 -100 8 -154 36l-101 52l-4 -3l-12 -73h-125l20 120l320 254c-38 30 -68 41 -111 41c-34 0 -64 -18 -64 -76h-108v9
c0 115 64 180 163 180c62 0 129 -19 198 -88l2 -2l6 5l12 73h125l-20 -120l-324 -258l196 -37l11 13l-30 88l85 37l15 -27c22 -39 30 -68 30 -98c0 -65 -49 -126 -130 -126z" />
    <glyph glyph-name="Aacute" unicode="&#xc1;" 
d="M391 740l-86 46l115 190l114 -60zM400 0l-17 169h-196l-69 -169h-155l307 698h206l76 -698h-152zM356 553h-9l-110 -264h140z" />
    <glyph glyph-name="Abreve" unicode="&#x102;" 
d="M391 740c-113 0 -158 88 -179 170l81 42l20 -37c24 -45 42 -72 84 -72c36 0 58 25 94 74l26 35l83 -42c-43 -85 -100 -170 -209 -170zM400 0l-17 169h-196l-69 -169h-155l307 698h206l76 -698h-152zM356 553h-9l-110 -264h140z" />
    <glyph glyph-name="Acircumflex" unicode="&#xc2;" 
d="M471 955l108 -158l-76 -57l-106 115l-134 -115l-70 57l154 158h124zM400 0l-17 169h-196l-69 -169h-155l307 698h206l76 -698h-152zM356 553h-9l-110 -264h140z" />
    <glyph glyph-name="Adieresis" unicode="&#xc4;" 
d="M276 762c-54 0 -74 23 -74 54c0 7 1 15 5 36c7 35 27 59 85 59c54 0 74 -23 74 -54c0 -7 -1 -15 -5 -36c-7 -35 -27 -59 -85 -59zM494 762c-54 0 -74 23 -74 54c0 7 1 15 5 36c7 35 27 59 85 59c54 0 74 -23 74 -54c0 -7 -1 -15 -5 -36c-7 -35 -27 -59 -85 -59zM400 0
l-17 169h-196l-69 -169h-155l307 698h206l76 -698h-152zM356 553h-9l-110 -264h140z" />
    <glyph glyph-name="uni1EA0" unicode="&#x1ea0;" 
d="M233 -202c-54 0 -72 23 -72 54c0 7 2 18 5 36c6 36 28 59 83 59c54 0 72 -23 72 -54c0 -7 -2 -18 -5 -36c-6 -36 -28 -59 -83 -59zM400 0l-17 169h-196l-69 -169h-155l307 698h206l76 -698h-152zM356 553h-9l-110 -264h140z" />
    <glyph glyph-name="Agrave" unicode="&#xc0;" 
d="M247 917l124 59l77 -196l-87 -39zM400 0l-17 169h-196l-69 -169h-155l307 698h206l76 -698h-152zM356 553h-9l-110 -264h140z" />
    <glyph glyph-name="uni1EA2" unicode="&#x1ea2;" 
d="M295 962h147c55 0 81 -26 81 -59c0 -41 -21 -71 -49 -106l-54 -66l-71 34l50 93h-122zM400 0l-17 169h-196l-69 -169h-155l307 698h206l76 -698h-152zM356 553h-9l-110 -264h140z" />
    <glyph glyph-name="Amacron" unicode="&#x100;" 
d="M249 888h305l-17 -102h-305zM400 0l-17 169h-196l-69 -169h-155l307 698h206l76 -698h-152zM356 553h-9l-110 -264h140z" />
    <glyph glyph-name="Aogonek" unicode="&#x104;" 
d="M270 698h206l76 -698c-105 -63 -116 -90 -116 -110c0 -17 11 -30 37 -30c20 0 39 6 53 27l54 -45c-25 -32 -64 -54 -121 -54c-71 0 -122 30 -122 85c0 49 41 97 140 123l-1 4h-76l-17 169h-196l-69 -169h-155zM356 553h-9l-110 -264h140z" />
    <glyph glyph-name="Aring" unicode="&#xc5;" 
d="M377 720c-73 0 -130 54 -130 124c0 94 76 160 168 160c73 0 130 -54 130 -124c0 -94 -76 -160 -168 -160zM385 794c34 0 54 21 59 51c4 24 6 35 6 45c0 25 -14 40 -43 40c-34 0 -54 -21 -59 -51c-4 -24 -6 -35 -6 -45c0 -25 14 -40 43 -40zM400 0l-17 169h-196l-69 -169
h-155l307 698h206l76 -698h-152zM356 553h-9l-110 -264h140z" />
    <glyph glyph-name="Aringacute" unicode="&#x1fa;" 
d="M414 976l-49 56l142 117l65 -79zM375 726c-75 0 -133 39 -133 105c0 84 76 134 168 134c75 0 133 -39 133 -105c0 -84 -76 -134 -168 -134zM384 795c36 0 55 14 60 44c2 12 3 19 3 22c0 24 -16 35 -46 35c-36 0 -55 -14 -60 -44c-2 -12 -3 -19 -3 -22
c0 -24 16 -35 46 -35zM400 0l-17 169h-196l-69 -169h-155l307 698h206l76 -698h-152zM356 553h-9l-110 -264h140z" />
    <glyph glyph-name="Atilde" unicode="&#xc3;" 
d="M457 762c-30 0 -50 10 -73 21c-27 12 -49 22 -75 22c-23 0 -39 -8 -63 -25l-40 67c29 36 71 64 124 64c30 0 50 -10 73 -21c27 -12 49 -22 75 -22c23 0 39 8 63 25l40 -67c-29 -36 -71 -64 -124 -64zM400 0l-17 169h-196l-69 -169h-155l307 698h206l76 -698h-152z
M356 553h-9l-110 -264h140z" />
    <glyph glyph-name="uni1EAE" unicode="&#x1eae;" 
d="M389 733c-121 0 -172 73 -192 149l74 47l18 -28c33 -51 55 -67 100 -67c40 0 67 15 113 67l25 28l74 -47c-48 -84 -102 -149 -212 -149zM416 894l-79 40l103 194l109 -58zM400 0l-17 169h-196l-69 -169h-155l307 698h206l76 -698h-152zM356 553h-9l-110 -264h140z" />
    <glyph glyph-name="uni1EB6" unicode="&#x1eb6;" 
d="M233 -202c-54 0 -72 23 -72 54c0 7 2 18 5 36c6 36 28 59 83 59c54 0 72 -23 72 -54c0 -7 -2 -18 -5 -36c-6 -36 -28 -59 -83 -59zM391 740c-113 0 -158 88 -179 170l81 42l20 -37c24 -45 42 -72 84 -72c36 0 58 25 94 74l26 35l83 -42c-43 -85 -100 -170 -209 -170z
M400 0l-17 169h-196l-69 -169h-155l307 698h206l76 -698h-152zM356 553h-9l-110 -264h140z" />
    <glyph glyph-name="uni1EB0" unicode="&#x1eb0;" 
d="M389 733c-121 0 -172 73 -192 149l74 47l18 -28c33 -51 55 -67 100 -67c40 0 67 15 113 67l25 28l74 -47c-48 -84 -102 -149 -212 -149zM265 1071l119 55l69 -193l-80 -38zM400 0l-17 169h-196l-69 -169h-155l307 698h206l76 -698h-152zM356 553h-9l-110 -264h140z" />
    <glyph glyph-name="uni1EB2" unicode="&#x1eb2;" 
d="M286 1113h142c55 0 81 -25 81 -62s-27 -75 -82 -131l-36 -37l-61 31l57 98h-117zM389 733c-121 0 -172 73 -192 149l74 47l18 -28c33 -51 55 -67 100 -67c40 0 67 15 113 67l25 28l74 -47c-48 -84 -102 -149 -212 -149zM400 0l-17 169h-196l-69 -169h-155l307 698h206
l76 -698h-152zM356 553h-9l-110 -264h140z" />
    <glyph glyph-name="uni1EB4" unicode="&#x1eb4;" 
d="M466 952c-32 0 -51 9 -71 18c-28 12 -48 20 -74 20c-25 0 -40 -8 -64 -25l-38 65c29 34 70 61 126 61c32 0 51 -9 71 -18c28 -12 48 -20 74 -20c25 0 40 8 64 25l38 -65c-29 -34 -70 -61 -126 -61zM389 733c-121 0 -172 73 -192 149l74 47l18 -28c33 -51 55 -67 100 -67
c40 0 67 15 113 67l25 28l74 -47c-48 -84 -102 -149 -212 -149zM400 0l-17 169h-196l-69 -169h-155l307 698h206l76 -698h-152zM356 553h-9l-110 -264h140z" />
    <glyph glyph-name="uni1EA4" unicode="&#x1ea4;" 
d="M579 896l-79 40l100 190l110 -55zM455 941l121 -146l-74 -63l-109 104l-136 -104l-63 63l167 146h94zM400 0l-17 169h-196l-69 -169h-155l307 698h206l76 -698h-152zM356 553h-9l-110 -264h140z" />
    <glyph glyph-name="uni1EAC" unicode="&#x1eac;" 
d="M233 -202c-54 0 -72 23 -72 54c0 7 2 18 5 36c6 36 28 59 83 59c54 0 72 -23 72 -54c0 -7 -2 -18 -5 -36c-6 -36 -28 -59 -83 -59zM471 955l108 -158l-76 -57l-106 115l-134 -115l-70 57l154 158h124zM400 0l-17 169h-196l-69 -169h-155l307 698h206l76 -698h-152z
M356 553h-9l-110 -264h140z" />
    <glyph glyph-name="uni1EA6" unicode="&#x1ea6;" 
d="M114 1071l113 55l74 -193l-74 -38zM455 941l121 -146l-74 -63l-109 104l-136 -104l-63 63l167 146h94zM400 0l-17 169h-196l-69 -169h-155l307 698h206l76 -698h-152zM356 553h-9l-110 -264h140z" />
    <glyph glyph-name="uni1EA8" unicode="&#x1ea8;" 
d="M475 1113h137c55 0 81 -26 81 -59c0 -41 -21 -71 -49 -106l-54 -66l-71 34l52 96h-112zM455 941l121 -146l-74 -63l-109 104l-136 -104l-63 63l167 146h94zM400 0l-17 169h-196l-69 -169h-155l307 698h206l76 -698h-152zM356 553h-9l-110 -264h140z" />
    <glyph glyph-name="uni1EAA" unicode="&#x1eaa;" 
d="M360 1102c30 0 50 -9 73 -20c27 -13 49 -22 75 -22c23 0 39 8 63 25l38 -66c-28 -35 -71 -62 -124 -62c-30 0 -50 9 -73 20c-27 13 -49 22 -75 22c-23 0 -39 -8 -63 -25l-38 66c28 35 71 62 124 62zM454 929l122 -134l-72 -63l-111 96l-134 -96l-65 63l165 134h95zM400 0
l-17 169h-196l-69 -169h-155l307 698h206l76 -698h-152zM356 553h-9l-110 -264h140z" />
    <glyph glyph-name="AE" unicode="&#xc6;" 
d="M308 169h-104l-63 -169h-144l276 698h415l-18 -110h-156l-30 -180h145l-18 -110h-145l-32 -188h155l-18 -110h-291zM357 595l-114 -316h84l53 316h-23z" />
    <glyph glyph-name="AEacute" unicode="&#x1fc;" 
d="M475 740l-86 46l115 190l114 -60zM308 169h-104l-63 -169h-144l276 698h415l-18 -110h-156l-30 -180h145l-18 -110h-145l-32 -188h155l-18 -110h-291zM357 595l-114 -316h84l53 316h-23z" />
    <glyph glyph-name="Cacute" unicode="&#x106;" 
d="M394 740l-86 46l115 190l114 -60zM290 -12c-164 0 -240 99 -240 266c0 271 126 456 323 456c155 0 224 -84 231 -205l-143 -29c-4 66 -22 114 -94 114c-82 0 -123 -70 -142 -182l-18 -109c-4 -24 -8 -46 -8 -78c0 -70 28 -113 101 -113c64 0 105 53 132 119l127 -38
c-55 -131 -134 -201 -269 -201z" />
    <glyph glyph-name="Ccaron" unicode="&#x10c;" 
d="M324 749l-108 158l76 57l106 -115l134 115l70 -57l-154 -158h-124zM290 -12c-164 0 -240 99 -240 266c0 271 126 456 323 456c155 0 224 -84 231 -205l-143 -29c-4 66 -22 114 -94 114c-82 0 -123 -70 -142 -182l-18 -109c-4 -24 -8 -46 -8 -78c0 -70 28 -113 101 -113
c64 0 105 53 132 119l127 -38c-55 -131 -134 -201 -269 -201z" />
    <glyph glyph-name="Ccedilla" unicode="&#xc7;" 
d="M367 590c-82 0 -123 -70 -142 -182l-18 -109c-4 -24 -8 -46 -8 -78c0 -70 28 -113 101 -113c64 0 105 53 132 119l127 -38c-51 -120 -121 -189 -236 -200l-16 -44l3 -4c15 5 29 7 42 7c37 0 66 -22 66 -58c0 -68 -62 -102 -143 -102c-56 0 -96 21 -115 46l51 53
c10 -12 31 -28 61 -28c29 0 50 9 50 29c0 17 -16 31 -68 36l-23 2l24 63c-140 15 -205 110 -205 265c0 271 126 456 323 456c155 0 224 -84 231 -205l-143 -29c-4 66 -22 114 -94 114z" />
    <glyph glyph-name="Ccircumflex" unicode="&#x108;" 
d="M474 955l108 -158l-76 -57l-106 115l-134 -115l-70 57l154 158h124zM290 -12c-164 0 -240 99 -240 266c0 271 126 456 323 456c155 0 224 -84 231 -205l-143 -29c-4 66 -22 114 -94 114c-82 0 -123 -70 -142 -182l-18 -109c-4 -24 -8 -46 -8 -78c0 -70 28 -113 101 -113
c64 0 105 53 132 119l127 -38c-55 -131 -134 -201 -269 -201z" />
    <glyph glyph-name="Cdotaccent" unicode="&#x10a;" 
d="M388 754c-60 0 -82 26 -82 61c0 7 1 16 5 40c7 42 34 66 94 66s82 -26 82 -61c0 -7 -1 -16 -5 -40c-7 -42 -34 -66 -94 -66zM290 -12c-164 0 -240 99 -240 266c0 271 126 456 323 456c155 0 224 -84 231 -205l-143 -29c-4 66 -22 114 -94 114c-82 0 -123 -70 -142 -182
l-18 -109c-4 -24 -8 -46 -8 -78c0 -70 28 -113 101 -113c64 0 105 53 132 119l127 -38c-55 -131 -134 -201 -269 -201z" />
    <glyph glyph-name="Dcaron" unicode="&#x10e;" 
d="M274 749l-108 158l76 57l106 -115l134 115l70 -57l-154 -158h-124zM142 698h205c156 0 241 -92 241 -257c0 -275 -119 -441 -336 -441h-227zM255 117c89 0 139 50 157 158l21 126c4 24 6 49 6 68c0 76 -34 112 -105 112h-65l-77 -464h63z" />
    <glyph glyph-name="Dcroat" unicode="&#x110;" 
d="M77 312h-57l19 112h58l45 274h205c156 0 241 -92 241 -257c0 -275 -119 -441 -336 -441h-227zM255 117c89 0 139 50 157 158l21 126c4 24 6 49 6 68c0 76 -34 112 -105 112h-65l-27 -162h110l-17 -102h-110l-33 -200h63z" />
    <glyph glyph-name="Eth" unicode="&#xd0;" 
d="M77 312h-57l19 112h58l45 274h205c156 0 241 -92 241 -257c0 -275 -119 -441 -336 -441h-227zM255 117c89 0 139 50 157 158l21 126c4 24 6 49 6 68c0 76 -34 112 -105 112h-65l-27 -162h110l-17 -102h-110l-33 -200h63z" />
    <glyph glyph-name="Eacute" unicode="&#xc9;" 
d="M394 740l-86 46l115 190l114 -60zM38 0l117 698h446l-20 -122h-300l-27 -162h286l-20 -122h-287l-28 -170h299l-20 -122h-446z" />
    <glyph glyph-name="Ebreve" unicode="&#x114;" 
d="M394 740c-113 0 -158 88 -179 170l81 42l20 -37c24 -45 42 -72 84 -72c36 0 58 25 94 74l26 35l83 -42c-43 -85 -100 -170 -209 -170zM38 0l117 698h446l-20 -122h-300l-27 -162h286l-20 -122h-287l-28 -170h299l-20 -122h-446z" />
    <glyph glyph-name="Ecaron" unicode="&#x11a;" 
d="M324 749l-108 158l76 57l106 -115l134 115l70 -57l-154 -158h-124zM38 0l117 698h446l-20 -122h-300l-27 -162h286l-20 -122h-287l-28 -170h299l-20 -122h-446z" />
    <glyph glyph-name="Ecircumflex" unicode="&#xca;" 
d="M474 955l108 -158l-76 -57l-106 115l-134 -115l-70 57l154 158h124zM38 0l117 698h446l-20 -122h-300l-27 -162h286l-20 -122h-287l-28 -170h299l-20 -122h-446z" />
    <glyph glyph-name="Edieresis" unicode="&#xcb;" 
d="M279 762c-54 0 -74 23 -74 54c0 7 1 15 5 36c7 35 27 59 85 59c54 0 74 -23 74 -54c0 -7 -1 -15 -5 -36c-7 -35 -27 -59 -85 -59zM497 762c-54 0 -74 23 -74 54c0 7 1 15 5 36c7 35 27 59 85 59c54 0 74 -23 74 -54c0 -7 -1 -15 -5 -36c-7 -35 -27 -59 -85 -59zM38 0
l117 698h446l-20 -122h-300l-27 -162h286l-20 -122h-287l-28 -170h299l-20 -122h-446z" />
    <glyph glyph-name="Edotaccent" unicode="&#x116;" 
d="M388 754c-60 0 -82 26 -82 61c0 7 1 16 5 40c7 42 34 66 94 66s82 -26 82 -61c0 -7 -1 -16 -5 -40c-7 -42 -34 -66 -94 -66zM38 0l117 698h446l-20 -122h-300l-27 -162h286l-20 -122h-287l-28 -170h299l-20 -122h-446z" />
    <glyph glyph-name="uni1EB8" unicode="&#x1eb8;" 
d="M255 -202c-54 0 -72 23 -72 54c0 7 2 18 5 36c6 36 28 59 83 59c54 0 72 -23 72 -54c0 -7 -2 -18 -5 -36c-6 -36 -28 -59 -83 -59zM38 0l117 698h446l-20 -122h-300l-27 -162h286l-20 -122h-287l-28 -170h299l-20 -122h-446z" />
    <glyph glyph-name="Egrave" unicode="&#xc8;" 
d="M250 917l124 59l77 -196l-87 -39zM38 0l117 698h446l-20 -122h-300l-27 -162h286l-20 -122h-287l-28 -170h299l-20 -122h-446z" />
    <glyph glyph-name="uni1EBA" unicode="&#x1eba;" 
d="M298 962h147c55 0 81 -26 81 -59c0 -41 -21 -71 -49 -106l-54 -66l-71 34l50 93h-122zM38 0l117 698h446l-20 -122h-300l-27 -162h286l-20 -122h-287l-28 -170h299l-20 -122h-446z" />
    <glyph glyph-name="Emacron" unicode="&#x112;" 
d="M252 888h305l-17 -102h-305zM38 0l117 698h446l-20 -122h-300l-27 -162h286l-20 -122h-287l-28 -170h299l-20 -122h-446z" />
    <glyph glyph-name="Eogonek" unicode="&#x118;" 
d="M155 698h446l-20 -122h-300l-27 -162h286l-20 -122h-286l-29 -170h299l-20 -122c-105 -63 -116 -90 -116 -110c0 -17 11 -30 37 -30c20 0 39 6 53 27l54 -45c-25 -32 -64 -54 -121 -54c-71 0 -122 30 -122 85c0 49 41 97 140 123l-1 4h-370z" />
    <glyph glyph-name="uni1EBC" unicode="&#x1ebc;" 
d="M460 762c-30 0 -50 10 -73 21c-27 12 -49 22 -75 22c-23 0 -39 -8 -63 -25l-40 67c29 36 71 64 124 64c30 0 50 -10 73 -21c27 -12 49 -22 75 -22c23 0 39 8 63 25l40 -67c-29 -36 -71 -64 -124 -64zM38 0l117 698h446l-20 -122h-300l-27 -162h286l-20 -122h-287
l-28 -170h299l-20 -122h-446z" />
    <glyph glyph-name="uni1EBE" unicode="&#x1ebe;" 
d="M582 896l-79 40l100 190l110 -55zM458 941l121 -146l-74 -63l-109 104l-136 -104l-63 63l167 146h94zM38 0l117 698h446l-20 -122h-300l-27 -162h286l-20 -122h-287l-28 -170h299l-20 -122h-446z" />
    <glyph glyph-name="uni1EC6" unicode="&#x1ec6;" 
d="M255 -202c-54 0 -72 23 -72 54c0 7 2 18 5 36c6 36 28 59 83 59c54 0 72 -23 72 -54c0 -7 -2 -18 -5 -36c-6 -36 -28 -59 -83 -59zM474 955l108 -158l-76 -57l-106 115l-134 -115l-70 57l154 158h124zM38 0l117 698h446l-20 -122h-300l-27 -162h286l-20 -122h-287
l-28 -170h299l-20 -122h-446z" />
    <glyph glyph-name="uni1EC0" unicode="&#x1ec0;" 
d="M117 1071l113 55l74 -193l-74 -38zM458 941l121 -146l-74 -63l-109 104l-136 -104l-63 63l167 146h94zM38 0l117 698h446l-20 -122h-300l-27 -162h286l-20 -122h-287l-28 -170h299l-20 -122h-446z" />
    <glyph glyph-name="uni1EC2" unicode="&#x1ec2;" 
d="M478 1113h137c55 0 81 -26 81 -59c0 -41 -21 -71 -49 -106l-54 -66l-71 34l52 96h-112zM458 941l121 -146l-74 -63l-109 104l-136 -104l-63 63l167 146h94zM38 0l117 698h446l-20 -122h-300l-27 -162h286l-20 -122h-287l-28 -170h299l-20 -122h-446z" />
    <glyph glyph-name="uni1EC4" unicode="&#x1ec4;" 
d="M363 1102c30 0 50 -9 73 -20c27 -13 49 -22 75 -22c23 0 39 8 63 25l38 -66c-28 -35 -71 -62 -124 -62c-30 0 -50 9 -73 20c-27 13 -49 22 -75 22c-23 0 -39 -8 -63 -25l-38 66c28 35 71 62 124 62zM457 929l122 -134l-72 -63l-111 96l-134 -96l-65 63l165 134h95zM38 0
l117 698h446l-20 -122h-300l-27 -162h286l-20 -122h-287l-28 -170h299l-20 -122h-446z" />
    <glyph glyph-name="uni018F" unicode="&#x18f;" 
d="M273 -12c-154 0 -232 97 -232 268c0 19 1 56 7 92l8 50h388l2 12c4 24 5 44 5 58c0 77 -30 123 -100 123c-73 0 -109 -50 -138 -125l-125 49c49 128 144 195 277 195c155 0 232 -90 232 -287c0 -214 -92 -435 -324 -435zM278 105c85 0 129 66 148 180l1 6h-236
c-5 -24 -8 -57 -8 -79c0 -65 27 -107 95 -107z" />
    <glyph glyph-name="Gbreve" unicode="&#x11e;" 
d="M387 740c-113 0 -158 88 -179 170l81 42l20 -37c24 -45 42 -72 84 -72c36 0 58 25 94 74l26 35l83 -42c-43 -85 -100 -170 -209 -170zM390 101h-9c-35 -62 -70 -113 -151 -113c-114 0 -185 89 -185 257c0 265 109 465 323 465c145 0 212 -85 221 -206l-143 -28
c-5 60 -22 114 -91 114c-76 0 -116 -69 -134 -177l-17 -102c-4 -24 -8 -60 -8 -87c0 -70 29 -116 93 -116c70 0 111 51 121 111l8 48h-123l17 105h254l-62 -372h-131z" />
    <glyph glyph-name="Gcircumflex" unicode="&#x11c;" 
d="M467 955l108 -158l-76 -57l-106 115l-134 -115l-70 57l154 158h124zM390 101h-9c-35 -62 -70 -113 -151 -113c-114 0 -185 89 -185 257c0 265 109 465 323 465c145 0 212 -85 221 -206l-143 -28c-5 60 -22 114 -91 114c-76 0 -116 -69 -134 -177l-17 -102
c-4 -24 -8 -60 -8 -87c0 -70 29 -116 93 -116c70 0 111 51 121 111l8 48h-123l17 105h254l-62 -372h-131z" />
    <glyph glyph-name="uni0122" unicode="&#x122;" 
d="M212 -54h156l-121 -215h-88zM390 101h-9c-35 -62 -70 -113 -151 -113c-114 0 -185 89 -185 257c0 265 109 465 323 465c145 0 212 -85 221 -206l-143 -28c-5 60 -22 114 -91 114c-76 0 -116 -69 -134 -177l-17 -102c-4 -24 -8 -60 -8 -87c0 -70 29 -116 93 -116
c70 0 111 51 121 111l8 48h-123l17 105h254l-62 -372h-131z" />
    <glyph glyph-name="Gdotaccent" unicode="&#x120;" 
d="M381 754c-60 0 -82 26 -82 61c0 7 1 16 5 40c7 42 34 66 94 66s82 -26 82 -61c0 -7 -1 -16 -5 -40c-7 -42 -34 -66 -94 -66zM390 101h-9c-35 -62 -70 -113 -151 -113c-114 0 -185 89 -185 257c0 265 109 465 323 465c145 0 212 -85 221 -206l-143 -28
c-5 60 -22 114 -91 114c-76 0 -116 -69 -134 -177l-17 -102c-4 -24 -8 -60 -8 -87c0 -70 29 -116 93 -116c70 0 111 51 121 111l8 48h-123l17 105h254l-62 -372h-131z" />
    <glyph glyph-name="Hbar" unicode="&#x126;" 
d="M397 293h-180l-49 -293h-148l85 507h-53l19 112h52l13 79h148l-14 -86h180l14 86h148l-13 -79h53l-19 -112h-52l-85 -507h-148zM417 414l17 100h-180l-16 -100h179z" />
    <glyph glyph-name="Hcircumflex" unicode="&#x124;" 
d="M475 955l108 -158l-76 -57l-106 115l-134 -115l-70 57l154 158h124zM397 293h-180l-49 -293h-148l116 698h148l-47 -284h180l47 284h148l-116 -698h-148z" />
    <glyph glyph-name="Iacute" unicode="&#xcd;" 
d="M395 740l-86 46l115 190l114 -60zM32 0l18 110h151l80 478h-151l18 110h450l-18 -110h-151l-80 -478h151l-18 -110h-450z" />
    <glyph glyph-name="Ibreve" unicode="&#x12c;" 
d="M395 740c-113 0 -158 88 -179 170l81 42l20 -37c24 -45 42 -72 84 -72c36 0 58 25 94 74l26 35l83 -42c-43 -85 -100 -170 -209 -170zM32 0l18 110h151l80 478h-151l18 110h450l-18 -110h-151l-80 -478h151l-18 -110h-450z" />
    <glyph glyph-name="Icircumflex" unicode="&#xce;" 
d="M475 955l108 -158l-76 -57l-106 115l-134 -115l-70 57l154 158h124zM32 0l18 110h151l80 478h-151l18 110h450l-18 -110h-151l-80 -478h151l-18 -110h-450z" />
    <glyph glyph-name="Idieresis" unicode="&#xcf;" 
d="M280 762c-54 0 -74 23 -74 54c0 7 1 15 5 36c7 35 27 59 85 59c54 0 74 -23 74 -54c0 -7 -1 -15 -5 -36c-7 -35 -27 -59 -85 -59zM498 762c-54 0 -74 23 -74 54c0 7 1 15 5 36c7 35 27 59 85 59c54 0 74 -23 74 -54c0 -7 -1 -15 -5 -36c-7 -35 -27 -59 -85 -59zM32 0
l18 110h151l80 478h-151l18 110h450l-18 -110h-151l-80 -478h151l-18 -110h-450z" />
    <glyph glyph-name="Idotaccent" unicode="&#x130;" 
d="M389 754c-60 0 -82 26 -82 61c0 7 1 16 5 40c7 42 34 66 94 66s82 -26 82 -61c0 -7 -1 -16 -5 -40c-7 -42 -34 -66 -94 -66zM32 0l18 110h151l80 478h-151l18 110h450l-18 -110h-151l-80 -478h151l-18 -110h-450z" />
    <glyph glyph-name="uni1ECA" unicode="&#x1eca;" 
d="M230 -202c-54 0 -72 23 -72 54c0 7 2 18 5 36c6 36 28 59 83 59c54 0 72 -23 72 -54c0 -7 -2 -18 -5 -36c-6 -36 -28 -59 -83 -59zM32 0l18 110h151l80 478h-151l18 110h450l-18 -110h-151l-80 -478h151l-18 -110h-450z" />
    <glyph glyph-name="Igrave" unicode="&#xcc;" 
d="M251 917l124 59l77 -196l-87 -39zM32 0l18 110h151l80 478h-151l18 110h450l-18 -110h-151l-80 -478h151l-18 -110h-450z" />
    <glyph glyph-name="uni1EC8" unicode="&#x1ec8;" 
d="M299 962h147c55 0 81 -26 81 -59c0 -41 -21 -71 -49 -106l-54 -66l-71 34l50 93h-122zM32 0l18 110h151l80 478h-151l18 110h450l-18 -110h-151l-80 -478h151l-18 -110h-450z" />
    <glyph glyph-name="Imacron" unicode="&#x12a;" 
d="M253 888h305l-17 -102h-305zM32 0l18 110h151l80 478h-151l18 110h450l-18 -110h-151l-80 -478h151l-18 -110h-450z" />
    <glyph glyph-name="Iogonek" unicode="&#x12e;" 
d="M50 110h151l80 478h-151l18 110h450l-18 -110h-151l-80 -478h151l-18 -110c-105 -63 -115 -90 -115 -110c0 -17 11 -30 37 -30c20 0 39 6 53 27l54 -45c-25 -32 -64 -54 -121 -54c-71 0 -122 30 -122 85c0 49 41 97 140 123l-1 4h-375z" />
    <glyph glyph-name="Itilde" unicode="&#x128;" 
d="M461 762c-30 0 -50 10 -73 21c-27 12 -49 22 -75 22c-23 0 -39 -8 -63 -25l-40 67c29 36 71 64 124 64c30 0 50 -10 73 -21c27 -12 49 -22 75 -22c23 0 39 8 63 25l40 -67c-29 -36 -71 -64 -124 -64zM32 0l18 110h151l80 478h-151l18 110h450l-18 -110h-151l-80 -478h151
l-18 -110h-450z" />
    <glyph glyph-name="IJ" unicode="&#x132;" 
d="M643 698l-82 -493c-25 -150 -117 -217 -258 -217c-140 0 -211 80 -214 197l139 26c3 -59 22 -103 86 -103c53 0 87 32 99 104l81 486h149zM180 698h148l-65 -390h-148z" />
    <glyph glyph-name="IJacute" 
d="M570 740l-86 46l115 190l114 -60zM273 740l-86 46l115 190l114 -60zM643 698l-82 -493c-25 -150 -117 -217 -258 -217c-140 0 -211 80 -214 197l139 26c3 -59 22 -103 86 -103c53 0 87 32 99 104l81 486h149zM180 698h148l-65 -390h-148z" />
    <glyph glyph-name="uni00A40301" 
d="M413 740l-86 46l115 190l114 -60zM583 698l-83 -496c-24 -142 -111 -214 -257 -214c-140 0 -211 80 -214 197l139 26c3 -59 22 -103 86 -103c53 0 88 32 99 98l62 370h-234l20 122h382z" />
    <glyph glyph-name="Jcircumflex" unicode="&#x134;" 
d="M493 955l108 -158l-76 -57l-106 115l-134 -115l-70 57l154 158h124zM583 698l-83 -496c-24 -142 -111 -214 -257 -214c-140 0 -211 80 -214 197l139 26c3 -59 22 -103 86 -103c53 0 88 32 99 98l62 370h-234l20 122h382z" />
    <glyph glyph-name="uni0136" unicode="&#x136;" 
d="M189 -54h156l-121 -215h-88zM289 282l-82 -91l-32 -191h-148l116 698h148l-50 -299h8l112 137l132 162h174l-260 -310l155 -388h-164z" />
    <glyph glyph-name="Lacute" unicode="&#x139;" 
d="M258 740l-86 46l115 190l114 -60zM51 0l116 698h148l-96 -576h302l-20 -122h-450z" />
    <glyph glyph-name="Lcaron" unicode="&#x13d;" 
d="M462 525h-97l41 215h157zM51 0l116 698h148l-96 -576h302l-20 -122h-450z" />
    <glyph glyph-name="uni013B" unicode="&#x13b;" 
d="M191 -54h156l-121 -215h-88zM51 0l116 698h148l-96 -576h302l-20 -122h-450z" />
    <glyph glyph-name="Ldot" unicode="&#x13f;" 
d="M450 245c-60 0 -82 26 -82 61c0 7 1 16 5 40c7 42 34 66 94 66s82 -26 82 -61c0 -7 -1 -16 -5 -40c-7 -42 -34 -66 -94 -66zM51 0l116 698h148l-96 -576h302l-20 -122h-450z" />
    <glyph glyph-name="Lslash" unicode="&#x141;" 
d="M510 0h-438l41 245l-76 -23l19 113l76 23l56 340h148l-49 -295l195 61l-19 -114l-195 -61l-28 -167h290z" />
    <glyph glyph-name="Nacute" unicode="&#x143;" 
d="M395 740l-86 46l115 190l114 -60zM237 468h-10l-78 -468h-129l116 698h178l81 -468h10l78 468h129l-116 -698h-178z" />
    <glyph glyph-name="Ncaron" unicode="&#x147;" 
d="M325 749l-108 158l76 57l106 -115l134 115l70 -57l-154 -158h-124zM237 468h-10l-78 -468h-129l116 698h178l81 -468h10l78 468h129l-116 -698h-178z" />
    <glyph glyph-name="uni0145" unicode="&#x145;" 
d="M172 -54h156l-121 -215h-88zM237 468h-10l-78 -468h-129l116 698h178l81 -468h10l78 468h129l-116 -698h-178z" />
    <glyph glyph-name="Ntilde" unicode="&#xd1;" 
d="M461 762c-30 0 -50 10 -73 21c-27 12 -49 22 -75 22c-23 0 -39 -8 -63 -25l-40 67c29 36 71 64 124 64c30 0 50 -10 73 -21c27 -12 49 -22 75 -22c23 0 39 8 63 25l40 -67c-29 -36 -71 -64 -124 -64zM237 468h-10l-78 -468h-129l116 698h178l81 -468h10l78 468h129
l-116 -698h-178z" />
    <glyph glyph-name="Eng" unicode="&#x14a;" 
d="M20 0l116 698h178l81 -468h10l78 468h129l-124 -744c-20 -120 -64 -166 -143 -166c-67 0 -95 31 -150 97l-31 37l89 71l85 -93l15 4l16 96h-51l-81 468h-10l-78 -468h-129z" />
    <glyph glyph-name="Oacute" unicode="&#xd3;" 
d="M379 740l-86 46l115 190l114 -60zM279 -12c-169 0 -243 100 -243 263c0 237 91 459 313 459c169 0 243 -100 243 -263c0 -237 -91 -459 -313 -459zM279 108c84 0 117 66 136 180l20 120c4 24 6 47 6 72c0 69 -29 110 -92 110c-84 0 -117 -66 -136 -180l-20 -120
c-4 -24 -6 -47 -6 -72c0 -69 29 -110 92 -110z" />
    <glyph glyph-name="Obreve" unicode="&#x14e;" 
d="M379 740c-113 0 -158 88 -179 170l81 42l20 -37c24 -45 42 -72 84 -72c36 0 58 25 94 74l26 35l83 -42c-43 -85 -100 -170 -209 -170zM279 -12c-169 0 -243 100 -243 263c0 237 91 459 313 459c169 0 243 -100 243 -263c0 -237 -91 -459 -313 -459zM279 108
c84 0 117 66 136 180l20 120c4 24 6 47 6 72c0 69 -29 110 -92 110c-84 0 -117 -66 -136 -180l-20 -120c-4 -24 -6 -47 -6 -72c0 -69 29 -110 92 -110z" />
    <glyph glyph-name="Ocircumflex" unicode="&#xd4;" 
d="M459 955l108 -158l-76 -57l-106 115l-134 -115l-70 57l154 158h124zM279 -12c-169 0 -243 100 -243 263c0 237 91 459 313 459c169 0 243 -100 243 -263c0 -237 -91 -459 -313 -459zM279 108c84 0 117 66 136 180l20 120c4 24 6 47 6 72c0 69 -29 110 -92 110
c-84 0 -117 -66 -136 -180l-20 -120c-4 -24 -6 -47 -6 -72c0 -69 29 -110 92 -110z" />
    <glyph glyph-name="Odieresis" unicode="&#xd6;" 
d="M264 762c-54 0 -74 23 -74 54c0 7 1 15 5 36c7 35 27 59 85 59c54 0 74 -23 74 -54c0 -7 -1 -15 -5 -36c-7 -35 -27 -59 -85 -59zM482 762c-54 0 -74 23 -74 54c0 7 1 15 5 36c7 35 27 59 85 59c54 0 74 -23 74 -54c0 -7 -1 -15 -5 -36c-7 -35 -27 -59 -85 -59zM279 -12
c-169 0 -243 100 -243 263c0 237 91 459 313 459c169 0 243 -100 243 -263c0 -237 -91 -459 -313 -459zM279 108c84 0 117 66 136 180l20 120c4 24 6 47 6 72c0 69 -29 110 -92 110c-84 0 -117 -66 -136 -180l-20 -120c-4 -24 -6 -47 -6 -72c0 -69 29 -110 92 -110z" />
    <glyph glyph-name="uni1ECC" unicode="&#x1ecc;" 
d="M237 -202c-54 0 -72 23 -72 54c0 7 2 18 5 36c6 36 28 59 83 59c54 0 72 -23 72 -54c0 -7 -2 -18 -5 -36c-6 -36 -28 -59 -83 -59zM279 -12c-169 0 -243 100 -243 263c0 237 91 459 313 459c169 0 243 -100 243 -263c0 -237 -91 -459 -313 -459zM279 108
c84 0 117 66 136 180l20 120c4 24 6 47 6 72c0 69 -29 110 -92 110c-84 0 -117 -66 -136 -180l-20 -120c-4 -24 -6 -47 -6 -72c0 -69 29 -110 92 -110z" />
    <glyph glyph-name="Ograve" unicode="&#xd2;" 
d="M235 917l124 59l77 -196l-87 -39zM279 -12c-169 0 -243 100 -243 263c0 237 91 459 313 459c169 0 243 -100 243 -263c0 -237 -91 -459 -313 -459zM279 108c84 0 117 66 136 180l20 120c4 24 6 47 6 72c0 69 -29 110 -92 110c-84 0 -117 -66 -136 -180l-20 -120
c-4 -24 -6 -47 -6 -72c0 -69 29 -110 92 -110z" />
    <glyph glyph-name="uni1ECE" unicode="&#x1ece;" 
d="M283 962h147c55 0 81 -26 81 -59c0 -41 -21 -71 -49 -106l-54 -66l-71 34l50 93h-122zM279 -12c-169 0 -243 100 -243 263c0 237 91 459 313 459c169 0 243 -100 243 -263c0 -237 -91 -459 -313 -459zM279 108c84 0 117 66 136 180l20 120c4 24 6 47 6 72
c0 69 -29 110 -92 110c-84 0 -117 -66 -136 -180l-20 -120c-4 -24 -6 -47 -6 -72c0 -69 29 -110 92 -110z" />
    <glyph glyph-name="Ohungarumlaut" unicode="&#x150;" 
d="M276 741l-78 38l108 193l108 -56zM475 741l-78 38l108 193l108 -56zM279 -12c-169 0 -243 100 -243 263c0 237 91 459 313 459c169 0 243 -100 243 -263c0 -237 -91 -459 -313 -459zM279 108c84 0 117 66 136 180l20 120c4 24 6 47 6 72c0 69 -29 110 -92 110
c-84 0 -117 -66 -136 -180l-20 -120c-4 -24 -6 -47 -6 -72c0 -69 29 -110 92 -110z" />
    <glyph glyph-name="Omacron" unicode="&#x14c;" 
d="M237 888h305l-17 -102h-305zM279 -12c-169 0 -243 100 -243 263c0 237 91 459 313 459c169 0 243 -100 243 -263c0 -237 -91 -459 -313 -459zM279 108c84 0 117 66 136 180l20 120c4 24 6 47 6 72c0 69 -29 110 -92 110c-84 0 -117 -66 -136 -180l-20 -120
c-4 -24 -6 -47 -6 -72c0 -69 29 -110 92 -110z" />
    <glyph glyph-name="Oslash" unicode="&#xd8;" 
d="M279 -12c-61 0 -110 13 -147 38l-71 -93l-88 57l90 117c-19 39 -27 88 -27 144c0 237 91 459 313 459c61 0 110 -13 147 -38l71 93l88 -57l-90 -117c19 -39 27 -88 27 -144c0 -237 -91 -459 -313 -459zM191 302c-4 -23 -6 -35 -6 -47v-1l236 308c-16 18 -40 29 -72 29
c-84 0 -121 -67 -140 -181zM279 107c84 0 121 67 140 181l18 108c4 23 6 35 6 47v1l-236 -308c16 -18 40 -29 72 -29z" />
    <glyph glyph-name="Oslashacute" unicode="&#x1fe;" 
d="M377 740l-86 46l115 190l114 -60zM279 -12c-61 0 -110 13 -147 38l-71 -93l-88 57l90 117c-19 39 -27 88 -27 144c0 237 91 459 313 459c61 0 110 -13 147 -38l71 93l88 -57l-90 -117c19 -39 27 -88 27 -144c0 -237 -91 -459 -313 -459zM191 302c-4 -23 -6 -35 -6 -47v-1
l236 308c-16 18 -40 29 -72 29c-84 0 -121 -67 -140 -181zM279 107c84 0 121 67 140 181l18 108c4 23 6 35 6 47v1l-236 -308c16 -18 40 -29 72 -29z" />
    <glyph glyph-name="Otilde" unicode="&#xd5;" 
d="M445 762c-30 0 -50 10 -73 21c-27 12 -49 22 -75 22c-23 0 -39 -8 -63 -25l-40 67c29 36 71 64 124 64c30 0 50 -10 73 -21c27 -12 49 -22 75 -22c23 0 39 8 63 25l40 -67c-29 -36 -71 -64 -124 -64zM279 -12c-169 0 -243 100 -243 263c0 237 91 459 313 459
c169 0 243 -100 243 -263c0 -237 -91 -459 -313 -459zM279 108c84 0 117 66 136 180l20 120c4 24 6 47 6 72c0 69 -29 110 -92 110c-84 0 -117 -66 -136 -180l-20 -120c-4 -24 -6 -47 -6 -72c0 -69 29 -110 92 -110z" />
    <glyph glyph-name="Ohorn" unicode="&#x1a0;" 
d="M664 710c-11 -63 -36 -99 -108 -99h-2c26 -43 38 -99 38 -164c0 -237 -91 -459 -313 -459c-169 0 -243 100 -243 263c0 237 91 459 313 459c34 0 65 -4 91 -12h98l20 115h123zM279 108c84 0 117 66 136 180l20 120c4 24 6 47 6 72c0 69 -29 110 -92 110
c-84 0 -117 -66 -136 -180l-20 -120c-4 -24 -6 -47 -6 -72c0 -69 29 -110 92 -110z" />
    <glyph glyph-name="uni1EDA" unicode="&#x1eda;" 
d="M379 740l-86 46l115 190l114 -60zM664 710c-11 -63 -36 -99 -108 -99h-2c26 -43 38 -99 38 -164c0 -237 -91 -459 -313 -459c-169 0 -243 100 -243 263c0 237 91 459 313 459c34 0 65 -4 91 -12h98l20 115h123zM279 108c84 0 117 66 136 180l20 120c4 24 6 47 6 72
c0 69 -29 110 -92 110c-84 0 -117 -66 -136 -180l-20 -120c-4 -24 -6 -47 -6 -72c0 -69 29 -110 92 -110z" />
    <glyph glyph-name="uni1EE2" unicode="&#x1ee2;" 
d="M237 -202c-54 0 -72 23 -72 54c0 7 2 18 5 36c6 36 28 59 83 59c54 0 72 -23 72 -54c0 -7 -2 -18 -5 -36c-6 -36 -28 -59 -83 -59zM664 710c-11 -63 -36 -99 -108 -99h-2c26 -43 38 -99 38 -164c0 -237 -91 -459 -313 -459c-169 0 -243 100 -243 263
c0 237 91 459 313 459c34 0 65 -4 91 -12h98l20 115h123zM279 108c84 0 117 66 136 180l20 120c4 24 6 47 6 72c0 69 -29 110 -92 110c-84 0 -117 -66 -136 -180l-20 -120c-4 -24 -6 -47 -6 -72c0 -69 29 -110 92 -110z" />
    <glyph glyph-name="uni1EDC" unicode="&#x1edc;" 
d="M235 917l124 59l77 -196l-87 -39zM664 710c-11 -63 -36 -99 -108 -99h-2c26 -43 38 -99 38 -164c0 -237 -91 -459 -313 -459c-169 0 -243 100 -243 263c0 237 91 459 313 459c34 0 65 -4 91 -12h98l20 115h123zM279 108c84 0 117 66 136 180l20 120c4 24 6 47 6 72
c0 69 -29 110 -92 110c-84 0 -117 -66 -136 -180l-20 -120c-4 -24 -6 -47 -6 -72c0 -69 29 -110 92 -110z" />
    <glyph glyph-name="uni1EDE" unicode="&#x1ede;" 
d="M283 962h147c55 0 81 -26 81 -59c0 -41 -21 -71 -49 -106l-54 -66l-71 34l50 93h-122zM664 710c-11 -63 -36 -99 -108 -99h-2c26 -43 38 -99 38 -164c0 -237 -91 -459 -313 -459c-169 0 -243 100 -243 263c0 237 91 459 313 459c34 0 65 -4 91 -12h98l20 115h123z
M279 108c84 0 117 66 136 180l20 120c4 24 6 47 6 72c0 69 -29 110 -92 110c-84 0 -117 -66 -136 -180l-20 -120c-4 -24 -6 -47 -6 -72c0 -69 29 -110 92 -110z" />
    <glyph glyph-name="uni1EE0" unicode="&#x1ee0;" 
d="M422 763c-26 0 -44 9 -64 20c-23 12 -41 22 -63 22c-17 0 -33 -6 -52 -21l-41 61c28 36 65 65 113 65c26 0 44 -9 64 -20c23 -12 41 -22 63 -22c17 0 33 6 52 21l41 -61c-28 -36 -65 -65 -113 -65zM664 710c-11 -63 -36 -99 -108 -99h-2c26 -43 38 -99 38 -164
c0 -237 -91 -459 -313 -459c-169 0 -243 100 -243 263c0 237 91 459 313 459c34 0 65 -4 91 -12h98l20 115h123zM279 108c84 0 117 66 136 180l20 120c4 24 6 47 6 72c0 69 -29 110 -92 110c-84 0 -117 -66 -136 -180l-20 -120c-4 -24 -6 -47 -6 -72c0 -69 29 -110 92 -110z
" />
    <glyph glyph-name="uni1ED0" unicode="&#x1ed0;" 
d="M567 896l-79 40l100 190l110 -55zM443 941l121 -146l-74 -63l-109 104l-136 -104l-63 63l167 146h94zM279 -12c-169 0 -243 100 -243 263c0 237 91 459 313 459c169 0 243 -100 243 -263c0 -237 -91 -459 -313 -459zM279 108c84 0 117 66 136 180l20 120c4 24 6 47 6 72
c0 69 -29 110 -92 110c-84 0 -117 -66 -136 -180l-20 -120c-4 -24 -6 -47 -6 -72c0 -69 29 -110 92 -110z" />
    <glyph glyph-name="uni1ED8" unicode="&#x1ed8;" 
d="M237 -202c-54 0 -72 23 -72 54c0 7 2 18 5 36c6 36 28 59 83 59c54 0 72 -23 72 -54c0 -7 -2 -18 -5 -36c-6 -36 -28 -59 -83 -59zM459 955l108 -158l-76 -57l-106 115l-134 -115l-70 57l154 158h124zM279 -12c-169 0 -243 100 -243 263c0 237 91 459 313 459
c169 0 243 -100 243 -263c0 -237 -91 -459 -313 -459zM279 108c84 0 117 66 136 180l20 120c4 24 6 47 6 72c0 69 -29 110 -92 110c-84 0 -117 -66 -136 -180l-20 -120c-4 -24 -6 -47 -6 -72c0 -69 29 -110 92 -110z" />
    <glyph glyph-name="uni1ED2" unicode="&#x1ed2;" 
d="M102 1071l113 55l74 -193l-74 -38zM443 941l121 -146l-74 -63l-109 104l-136 -104l-63 63l167 146h94zM279 -12c-169 0 -243 100 -243 263c0 237 91 459 313 459c169 0 243 -100 243 -263c0 -237 -91 -459 -313 -459zM279 108c84 0 117 66 136 180l20 120c4 24 6 47 6 72
c0 69 -29 110 -92 110c-84 0 -117 -66 -136 -180l-20 -120c-4 -24 -6 -47 -6 -72c0 -69 29 -110 92 -110z" />
    <glyph glyph-name="uni1ED4" unicode="&#x1ed4;" 
d="M463 1113h137c55 0 81 -26 81 -59c0 -41 -21 -71 -49 -106l-54 -66l-71 34l52 96h-112zM443 941l121 -146l-74 -63l-109 104l-136 -104l-63 63l167 146h94zM279 -12c-169 0 -243 100 -243 263c0 237 91 459 313 459c169 0 243 -100 243 -263c0 -237 -91 -459 -313 -459z
M279 108c84 0 117 66 136 180l20 120c4 24 6 47 6 72c0 69 -29 110 -92 110c-84 0 -117 -66 -136 -180l-20 -120c-4 -24 -6 -47 -6 -72c0 -69 29 -110 92 -110z" />
    <glyph glyph-name="uni1ED6" unicode="&#x1ed6;" 
d="M348 1102c30 0 50 -9 73 -20c27 -13 49 -22 75 -22c23 0 39 8 63 25l38 -66c-28 -35 -71 -62 -124 -62c-30 0 -50 9 -73 20c-27 13 -49 22 -75 22c-23 0 -39 -8 -63 -25l-38 66c28 35 71 62 124 62zM442 929l122 -134l-72 -63l-111 96l-134 -96l-65 63l165 134h95z
M279 -12c-169 0 -243 100 -243 263c0 237 91 459 313 459c169 0 243 -100 243 -263c0 -237 -91 -459 -313 -459zM279 108c84 0 117 66 136 180l20 120c4 24 6 47 6 72c0 69 -29 110 -92 110c-84 0 -117 -66 -136 -180l-20 -120c-4 -24 -6 -47 -6 -72c0 -69 29 -110 92 -110z
" />
    <glyph glyph-name="OE" unicode="&#x152;" 
d="M277 0c-147 0 -218 94 -218 258c0 258 107 440 334 440h308l-18 -110h-155l-30 -180h145l-18 -110h-145l-32 -188h155l-18 -110h-308zM392 588h-7c-90 0 -140 -47 -160 -167l-22 -131c-4 -24 -6 -44 -6 -62c0 -78 35 -118 108 -118h7z" />
    <glyph glyph-name="Racute" unicode="&#x154;" 
d="M375 740l-86 46l115 190l114 -60zM181 0h-146l117 698h252c124 0 190 -75 190 -186c0 -123 -63 -208 -167 -237l95 -275h-156l-77 260h-64zM324 376c72 0 100 22 109 80l4 24c2 12 3 23 3 33c0 46 -30 66 -79 66h-83l-34 -203h80z" />
    <glyph glyph-name="Rcaron" unicode="&#x158;" 
d="M305 749l-108 158l76 57l106 -115l134 115l70 -57l-154 -158h-124zM181 0h-146l117 698h252c124 0 190 -75 190 -186c0 -123 -63 -208 -167 -237l95 -275h-156l-77 260h-64zM324 376c72 0 100 22 109 80l4 24c2 12 3 23 3 33c0 46 -30 66 -79 66h-83l-34 -203h80z" />
    <glyph glyph-name="uni0156" unicode="&#x156;" 
d="M189 -54h156l-121 -215h-88zM181 0h-146l117 698h252c124 0 190 -75 190 -186c0 -123 -63 -208 -167 -237l95 -275h-156l-77 260h-64zM324 376c72 0 100 22 109 80l4 24c2 12 3 23 3 33c0 46 -30 66 -79 66h-83l-34 -203h80z" />
    <glyph glyph-name="Sacute" unicode="&#x15a;" 
d="M388 740l-86 46l115 190l114 -60zM268 -12c-115 0 -214 40 -256 107l93 94c41 -53 110 -79 172 -79c76 0 116 39 116 103c0 46 -25 65 -81 78l-69 16c-101 23 -145 89 -145 175c0 138 103 228 269 228c100 0 187 -37 227 -98l-97 -89c-30 42 -77 67 -137 67
c-73 0 -109 -36 -109 -92c0 -40 22 -58 84 -74l66 -17c99 -25 146 -82 146 -177c0 -143 -102 -242 -279 -242z" />
    <glyph glyph-name="Scaron" unicode="&#x160;" 
d="M318 749l-108 158l76 57l106 -115l134 115l70 -57l-154 -158h-124zM268 -12c-115 0 -214 40 -256 107l93 94c41 -53 110 -79 172 -79c76 0 116 39 116 103c0 46 -25 65 -81 78l-69 16c-101 23 -145 89 -145 175c0 138 103 228 269 228c100 0 187 -37 227 -98l-97 -89
c-30 42 -77 67 -137 67c-73 0 -109 -36 -109 -92c0 -40 22 -58 84 -74l66 -17c99 -25 146 -82 146 -177c0 -143 -102 -242 -279 -242z" />
    <glyph glyph-name="Scedilla" unicode="&#x15e;" 
d="M251 -212c-56 0 -96 21 -115 46l51 53c10 -12 31 -28 61 -28c29 0 50 9 50 29c0 17 -16 31 -68 36l-23 2l24 63c-100 9 -182 46 -219 106l93 94c41 -53 110 -79 172 -79c76 0 116 39 116 103c0 46 -25 65 -81 78l-69 16c-101 23 -145 89 -145 175c0 138 103 228 269 228
c100 0 187 -37 227 -98l-97 -89c-30 42 -77 67 -137 67c-73 0 -109 -36 -109 -92c0 -40 22 -58 84 -74l66 -17c99 -25 146 -82 146 -177c0 -135 -90 -230 -248 -241l-16 -44l3 -4c15 5 29 7 42 7c37 0 66 -22 66 -58c0 -68 -62 -102 -143 -102z" />
    <glyph glyph-name="Scircumflex" unicode="&#x15c;" 
d="M468 955l108 -158l-76 -57l-106 115l-134 -115l-70 57l154 158h124zM268 -12c-115 0 -214 40 -256 107l93 94c41 -53 110 -79 172 -79c76 0 116 39 116 103c0 46 -25 65 -81 78l-69 16c-101 23 -145 89 -145 175c0 138 103 228 269 228c100 0 187 -37 227 -98l-97 -89
c-30 42 -77 67 -137 67c-73 0 -109 -36 -109 -92c0 -40 22 -58 84 -74l66 -17c99 -25 146 -82 146 -177c0 -143 -102 -242 -279 -242z" />
    <glyph glyph-name="uni0218" unicode="&#x218;" 
d="M183 -54h156l-121 -215h-88zM268 -12c-115 0 -214 40 -256 107l93 94c41 -53 110 -79 172 -79c76 0 116 39 116 103c0 46 -25 65 -81 78l-69 16c-101 23 -145 89 -145 175c0 138 103 228 269 228c100 0 187 -37 227 -98l-97 -89c-30 42 -77 67 -137 67
c-73 0 -109 -36 -109 -92c0 -40 22 -58 84 -74l66 -17c99 -25 146 -82 146 -177c0 -143 -102 -242 -279 -242z" />
    <glyph glyph-name="uni1E9E" unicode="&#x1e9e;" 
d="M105 698h510l-21 -129l-156 -157l-1 -6c65 -2 142 -44 142 -154c0 -118 -74 -264 -247 -264c-56 0 -124 20 -162 60l87 92c20 -26 47 -35 77 -35c57 0 80 43 91 91c5 21 6 39 6 49c0 34 -19 57 -69 57h-84l20 117l164 167h-228l-98 -586h-147z" />
    <glyph glyph-name="Tbar" unicode="&#x166;" 
d="M378 284l-47 -284h-148l47 284h-141l19 112h141l30 180h-202l20 122h552l-20 -122h-202l-30 -180h141l-19 -112h-141z" />
    <glyph glyph-name="Tcaron" unicode="&#x164;" 
d="M324 749l-108 158l76 57l106 -115l134 115l70 -57l-154 -158h-124zM427 576l-96 -576h-148l96 576h-202l20 122h552l-20 -122h-202z" />
    <glyph glyph-name="uni0162" unicode="&#x162;" 
d="M172 -54h156l-121 -215h-88zM427 576l-96 -576h-148l96 576h-202l20 122h552l-20 -122h-202z" />
    <glyph glyph-name="uni021A" unicode="&#x21a;" 
d="M172 -54h156l-121 -215h-88zM427 576l-96 -576h-148l96 576h-202l20 122h552l-20 -122h-202z" />
    <glyph glyph-name="Thorn" unicode="&#xde;" 
d="M33 0l117 698h148l-20 -122h103c124 0 190 -77 190 -185c0 -159 -98 -257 -249 -257h-119l-22 -134h-148zM223 254h78c68 0 99 23 109 83l5 30c1 6 2 16 2 27c0 45 -23 63 -82 63h-78z" />
    <glyph glyph-name="Uacute" unicode="&#xda;" 
d="M392 740l-86 46l115 190l114 -60zM275 698l-73 -438c-6 -36 -8 -60 -8 -74c0 -50 22 -78 83 -78c89 0 105 57 120 147l74 443h147l-71 -426c-31 -186 -77 -284 -278 -284c-166 0 -220 74 -220 188c0 34 4 73 11 115l68 407h147z" />
    <glyph glyph-name="Ubreve" unicode="&#x16c;" 
d="M392 740c-113 0 -158 88 -179 170l81 42l20 -37c24 -45 42 -72 84 -72c36 0 58 25 94 74l26 35l83 -42c-43 -85 -100 -170 -209 -170zM275 698l-73 -438c-6 -36 -8 -60 -8 -74c0 -50 22 -78 83 -78c89 0 105 57 120 147l74 443h147l-71 -426c-31 -186 -77 -284 -278 -284
c-166 0 -220 74 -220 188c0 34 4 73 11 115l68 407h147z" />
    <glyph glyph-name="Ucircumflex" unicode="&#xdb;" 
d="M472 955l108 -158l-76 -57l-106 115l-134 -115l-70 57l154 158h124zM275 698l-73 -438c-6 -36 -8 -60 -8 -74c0 -50 22 -78 83 -78c89 0 105 57 120 147l74 443h147l-71 -426c-31 -186 -77 -284 -278 -284c-166 0 -220 74 -220 188c0 34 4 73 11 115l68 407h147z" />
    <glyph glyph-name="Udieresis" unicode="&#xdc;" 
d="M277 762c-54 0 -74 23 -74 54c0 7 1 15 5 36c7 35 27 59 85 59c54 0 74 -23 74 -54c0 -7 -1 -15 -5 -36c-7 -35 -27 -59 -85 -59zM495 762c-54 0 -74 23 -74 54c0 7 1 15 5 36c7 35 27 59 85 59c54 0 74 -23 74 -54c0 -7 -1 -15 -5 -36c-7 -35 -27 -59 -85 -59zM275 698
l-73 -438c-6 -36 -8 -60 -8 -74c0 -50 22 -78 83 -78c89 0 105 57 120 147l74 443h147l-71 -426c-31 -186 -77 -284 -278 -284c-166 0 -220 74 -220 188c0 34 4 73 11 115l68 407h147z" />
    <glyph glyph-name="uni1EE4" unicode="&#x1ee4;" 
d="M239 -202c-54 0 -72 23 -72 54c0 7 2 18 5 36c6 36 28 59 83 59c54 0 72 -23 72 -54c0 -7 -2 -18 -5 -36c-6 -36 -28 -59 -83 -59zM275 698l-73 -438c-6 -36 -8 -60 -8 -74c0 -50 22 -78 83 -78c89 0 105 57 120 147l74 443h147l-71 -426c-31 -186 -77 -284 -278 -284
c-166 0 -220 74 -220 188c0 34 4 73 11 115l68 407h147z" />
    <glyph glyph-name="Ugrave" unicode="&#xd9;" 
d="M248 917l124 59l77 -196l-87 -39zM275 698l-73 -438c-6 -36 -8 -60 -8 -74c0 -50 22 -78 83 -78c89 0 105 57 120 147l74 443h147l-71 -426c-31 -186 -77 -284 -278 -284c-166 0 -220 74 -220 188c0 34 4 73 11 115l68 407h147z" />
    <glyph glyph-name="uni1EE6" unicode="&#x1ee6;" 
d="M296 962h147c55 0 81 -26 81 -59c0 -41 -21 -71 -49 -106l-54 -66l-71 34l50 93h-122zM275 698l-73 -438c-6 -36 -8 -60 -8 -74c0 -50 22 -78 83 -78c89 0 105 57 120 147l74 443h147l-71 -426c-31 -186 -77 -284 -278 -284c-166 0 -220 74 -220 188c0 34 4 73 11 115
l68 407h147z" />
    <glyph glyph-name="Uhungarumlaut" unicode="&#x170;" 
d="M289 741l-78 38l108 193l108 -56zM488 741l-78 38l108 193l108 -56zM275 698l-73 -438c-6 -36 -8 -60 -8 -74c0 -50 22 -78 83 -78c89 0 105 57 120 147l74 443h147l-71 -426c-31 -186 -77 -284 -278 -284c-166 0 -220 74 -220 188c0 34 4 73 11 115l68 407h147z" />
    <glyph glyph-name="Umacron" unicode="&#x16a;" 
d="M250 888h305l-17 -102h-305zM275 698l-73 -438c-6 -36 -8 -60 -8 -74c0 -50 22 -78 83 -78c89 0 105 57 120 147l74 443h147l-71 -426c-31 -186 -77 -284 -278 -284c-166 0 -220 74 -220 188c0 34 4 73 11 115l68 407h147z" />
    <glyph glyph-name="Uogonek" unicode="&#x172;" 
d="M275 698l-73 -437c-6 -36 -8 -61 -8 -75c0 -50 22 -78 83 -78c89 0 105 57 120 148l74 442h147l-71 -427c-22 -129 -45 -211 -146 -262c-91 -46 -107 -99 -107 -119c0 -17 11 -30 37 -30c20 0 39 6 53 27l54 -45c-25 -32 -64 -54 -121 -54c-71 0 -122 30 -122 85
c0 44 33 84 105 111l-2 6c-12 -2 -19 -2 -29 -2c-166 0 -220 74 -220 188c0 34 4 73 11 115l68 407h147z" />
    <glyph glyph-name="Uring" unicode="&#x16e;" 
d="M378 720c-73 0 -130 54 -130 124c0 94 76 160 168 160c73 0 130 -54 130 -124c0 -94 -76 -160 -168 -160zM386 794c34 0 54 21 59 51c4 24 6 35 6 45c0 25 -14 40 -43 40c-34 0 -54 -21 -59 -51c-4 -24 -6 -35 -6 -45c0 -25 14 -40 43 -40zM275 698l-73 -438
c-6 -36 -8 -60 -8 -74c0 -50 22 -78 83 -78c89 0 105 57 120 147l74 443h147l-71 -426c-31 -186 -77 -284 -278 -284c-166 0 -220 74 -220 188c0 34 4 73 11 115l68 407h147z" />
    <glyph glyph-name="Utilde" unicode="&#x168;" 
d="M458 762c-30 0 -50 10 -73 21c-27 12 -49 22 -75 22c-23 0 -39 -8 -63 -25l-40 67c29 36 71 64 124 64c30 0 50 -10 73 -21c27 -12 49 -22 75 -22c23 0 39 8 63 25l40 -67c-29 -36 -71 -64 -124 -64zM275 698l-73 -438c-6 -36 -8 -60 -8 -74c0 -50 22 -78 83 -78
c89 0 105 57 120 147l74 443h147l-71 -426c-31 -186 -77 -284 -278 -284c-166 0 -220 74 -220 188c0 34 4 73 11 115l68 407h147z" />
    <glyph glyph-name="Uhorn" unicode="&#x1af;" 
d="M275 698l-73 -437c-6 -36 -8 -61 -8 -75c0 -50 22 -78 83 -78c89 0 105 57 120 148l74 442h73l20 115h123l-17 -103c-9 -49 -25 -81 -66 -93l-57 -346c-31 -185 -77 -283 -278 -283c-166 0 -220 74 -220 188c0 34 4 73 11 115l68 407h147z" />
    <glyph glyph-name="uni1EE8" unicode="&#x1ee8;" 
d="M391 740l-86 46l115 190l114 -60zM275 698l-73 -437c-6 -36 -8 -61 -8 -75c0 -50 22 -78 83 -78c89 0 105 57 120 148l74 442h73l20 115h123l-17 -103c-9 -49 -25 -81 -66 -93l-57 -346c-31 -185 -77 -283 -278 -283c-166 0 -220 74 -220 188c0 34 4 73 11 115l68 407
h147z" />
    <glyph glyph-name="uni1EF0" unicode="&#x1ef0;" 
d="M239 -202c-54 0 -72 23 -72 54c0 7 2 18 5 36c6 36 28 59 83 59c54 0 72 -23 72 -54c0 -7 -2 -18 -5 -36c-6 -36 -28 -59 -83 -59zM275 698l-73 -437c-6 -36 -8 -61 -8 -75c0 -50 22 -78 83 -78c89 0 105 57 120 148l74 442h73l20 115h123l-17 -103
c-9 -49 -25 -81 -66 -93l-57 -346c-31 -185 -77 -283 -278 -283c-166 0 -220 74 -220 188c0 34 4 73 11 115l68 407h147z" />
    <glyph glyph-name="uni1EEA" unicode="&#x1eea;" 
d="M247 917l124 59l77 -196l-87 -39zM275 698l-73 -437c-6 -36 -8 -61 -8 -75c0 -50 22 -78 83 -78c89 0 105 57 120 148l74 442h73l20 115h123l-17 -103c-9 -49 -25 -81 -66 -93l-57 -346c-31 -185 -77 -283 -278 -283c-166 0 -220 74 -220 188c0 34 4 73 11 115l68 407
h147z" />
    <glyph glyph-name="uni1EEC" unicode="&#x1eec;" 
d="M295 962h147c55 0 81 -26 81 -59c0 -41 -21 -71 -49 -106l-54 -66l-71 34l50 93h-122zM275 698l-73 -437c-6 -36 -8 -61 -8 -75c0 -50 22 -78 83 -78c89 0 105 57 120 148l74 442h73l20 115h123l-17 -103c-9 -49 -25 -81 -66 -93l-57 -346c-31 -185 -77 -283 -278 -283
c-166 0 -220 74 -220 188c0 34 4 73 11 115l68 407h147z" />
    <glyph glyph-name="uni1EEE" unicode="&#x1eee;" 
d="M424 763c-26 0 -44 9 -64 20c-23 12 -41 22 -63 22c-17 0 -33 -6 -52 -21l-41 61c28 36 65 65 113 65c26 0 44 -9 64 -20c23 -12 41 -22 63 -22c17 0 33 6 52 21l41 -61c-28 -36 -65 -65 -113 -65zM275 698l-73 -437c-6 -36 -8 -61 -8 -75c0 -50 22 -78 83 -78
c89 0 105 57 120 148l74 442h73l20 115h123l-17 -103c-9 -49 -25 -81 -66 -93l-57 -346c-31 -185 -77 -283 -278 -283c-166 0 -220 74 -220 188c0 34 4 73 11 115l68 407h147z" />
    <glyph glyph-name="Wacute" unicode="&#x1e82;" 
d="M395 740l-86 46l115 190l114 -60zM10 0l74 698h127l-48 -418l-17 -144h9l127 410h135l-6 -410h9l27 138l93 424h121l-159 -698h-190l15 386h-10l-117 -386h-190z" />
    <glyph glyph-name="Wcircumflex" unicode="&#x174;" 
d="M475 955l108 -158l-76 -57l-106 115l-134 -115l-70 57l154 158h124zM10 0l74 698h127l-48 -418l-17 -144h9l127 410h135l-6 -410h9l27 138l93 424h121l-159 -698h-190l15 386h-10l-117 -386h-190z" />
    <glyph glyph-name="Wdieresis" unicode="&#x1e84;" 
d="M280 762c-54 0 -74 23 -74 54c0 7 1 15 5 36c7 35 27 59 85 59c54 0 74 -23 74 -54c0 -7 -1 -15 -5 -36c-7 -35 -27 -59 -85 -59zM498 762c-54 0 -74 23 -74 54c0 7 1 15 5 36c7 35 27 59 85 59c54 0 74 -23 74 -54c0 -7 -1 -15 -5 -36c-7 -35 -27 -59 -85 -59zM10 0
l74 698h127l-48 -418l-17 -144h9l127 410h135l-6 -410h9l27 138l93 424h121l-159 -698h-190l15 386h-10l-117 -386h-190z" />
    <glyph glyph-name="Wgrave" unicode="&#x1e80;" 
d="M251 917l124 59l77 -196l-87 -39zM10 0l74 698h127l-48 -418l-17 -144h9l127 410h135l-6 -410h9l27 138l93 424h121l-159 -698h-190l15 386h-10l-117 -386h-190z" />
    <glyph glyph-name="Yacute" unicode="&#xdd;" 
d="M388 740l-86 46l115 190l114 -60zM184 0l41 246l-147 452h158l49 -164l31 -137h9l78 137l100 164h165l-295 -449l-41 -249h-148z" />
    <glyph glyph-name="Ycircumflex" unicode="&#x176;" 
d="M468 955l108 -158l-76 -57l-106 115l-134 -115l-70 57l154 158h124zM184 0l41 246l-147 452h158l49 -164l31 -137h9l78 137l100 164h165l-295 -449l-41 -249h-148z" />
    <glyph glyph-name="uni1EF4" unicode="&#x1ef4;" 
d="M230 -202c-54 0 -72 23 -72 54c0 7 2 18 5 36c6 36 28 59 83 59c54 0 72 -23 72 -54c0 -7 -2 -18 -5 -36c-6 -36 -28 -59 -83 -59zM184 0l41 246l-147 452h158l49 -164l31 -137h9l78 137l100 164h165l-295 -449l-41 -249h-148z" />
    <glyph glyph-name="Ydieresis" unicode="&#x178;" 
d="M273 762c-54 0 -74 23 -74 54c0 7 1 15 5 36c7 35 27 59 85 59c54 0 74 -23 74 -54c0 -7 -1 -15 -5 -36c-7 -35 -27 -59 -85 -59zM491 762c-54 0 -74 23 -74 54c0 7 1 15 5 36c7 35 27 59 85 59c54 0 74 -23 74 -54c0 -7 -1 -15 -5 -36c-7 -35 -27 -59 -85 -59zM184 0
l41 246l-147 452h158l49 -164l31 -137h9l78 137l100 164h165l-295 -449l-41 -249h-148z" />
    <glyph glyph-name="Ygrave" unicode="&#x1ef2;" 
d="M244 917l124 59l77 -196l-87 -39zM184 0l41 246l-147 452h158l49 -164l31 -137h9l78 137l100 164h165l-295 -449l-41 -249h-148z" />
    <glyph glyph-name="uni1EF6" unicode="&#x1ef6;" 
d="M292 962h147c55 0 81 -26 81 -59c0 -41 -21 -71 -49 -106l-54 -66l-71 34l50 93h-122zM184 0l41 246l-147 452h158l49 -164l31 -137h9l78 137l100 164h165l-295 -449l-41 -249h-148z" />
    <glyph glyph-name="uni1EF8" unicode="&#x1ef8;" 
d="M454 762c-30 0 -50 10 -73 21c-27 12 -49 22 -75 22c-23 0 -39 -8 -63 -25l-40 67c29 36 71 64 124 64c30 0 50 -10 73 -21c27 -12 49 -22 75 -22c23 0 39 8 63 25l40 -67c-29 -36 -71 -64 -124 -64zM184 0l41 246l-147 452h158l49 -164l31 -137h9l78 137l100 164h165
l-295 -449l-41 -249h-148z" />
    <glyph glyph-name="Zacute" unicode="&#x179;" 
d="M385 740l-86 46l115 190l114 -60zM507 0h-499l22 130l387 446h-304l20 122h479l-21 -130l-387 -446h323z" />
    <glyph glyph-name="Zcaron" unicode="&#x17d;" 
d="M315 749l-108 158l76 57l106 -115l134 115l70 -57l-154 -158h-124zM507 0h-499l22 130l387 446h-304l20 122h479l-21 -130l-387 -446h323z" />
    <glyph glyph-name="Zdotaccent" unicode="&#x17b;" 
d="M379 754c-60 0 -82 26 -82 61c0 7 1 16 5 40c7 42 34 66 94 66s82 -26 82 -61c0 -7 -1 -16 -5 -40c-7 -42 -34 -66 -94 -66zM507 0h-499l22 130l387 446h-304l20 122h479l-21 -130l-387 -446h323z" />
    <glyph glyph-name="uni00B5" unicode="&#xb5;" 
d="M-9 -200l120 716h146l-51 -304c-2 -13 -3 -26 -3 -37c0 -49 22 -74 64 -74c28 0 58 16 80 43c18 22 32 51 37 84l48 288h146l-86 -516h-146l20 116h-6c-29 -78 -74 -128 -141 -128c-26 0 -50 9 -66 42h-6l6 -131l-16 -99h-146z" />
    <glyph glyph-name="uni2206" unicode="&#x2206;" 
d="M15 125l255 573h208l64 -573l-20 -125h-528zM354 558h-8l-179 -437h220z" />
    <glyph glyph-name="product" unicode="&#x220f;" 
d="M137 698h477l-117 -698h-145l96 577h-187l-96 -577h-145z" />
    <glyph glyph-name="summation" unicode="&#x2211;" 
d="M461 -200h-478l22 128l281 333l1 4l-175 305l21 128h478l-20 -121h-322l161 -284l-17 -95l-246 -277h314z" />
    <glyph glyph-name="uni2126" unicode="&#x2126;" 
d="M3 104h153l2 10c-71 42 -108 102 -108 212c0 232 112 384 318 384c154 0 232 -89 232 -238c0 -179 -69 -302 -194 -358l-2 -10h143l-17 -104h-242l29 171c58 28 91 90 100 144l20 119c3 18 4 35 4 51c0 64 -28 101 -90 101c-73 0 -112 -56 -128 -152l-17 -102
c-2 -12 -3 -28 -3 -42c0 -49 14 -96 53 -119l-28 -171h-242z" />
    <glyph glyph-name="pi" unicode="&#x3c0;" 
d="M104 402h-70l19 114h551l-19 -114h-78l-53 -306l15 -5l77 56l53 -59l-30 -29c-53 -51 -89 -71 -145 -71c-65 0 -104 37 -104 110c0 22 3 49 10 90l35 214h-120l-67 -402h-141z" />
    <glyph glyph-name="uni2070" unicode="&#x2070;" 
d="M329 323c-112 0 -135 87 -135 146c0 132 58 235 172 235c112 0 135 -87 135 -146c0 -132 -58 -235 -172 -235zM331 399c39 0 50 28 59 80l11 66c3 17 4 30 4 39c0 28 -11 44 -41 44c-39 0 -50 -28 -59 -80l-11 -66c-3 -17 -4 -30 -4 -39c0 -28 11 -44 41 -44zM343 485
c-18 0 -25 9 -25 20c0 4 1 10 2 16c2 12 12 21 32 21c18 0 25 -9 25 -20c0 -4 -1 -10 -2 -16c-2 -12 -12 -21 -32 -21z" />
    <glyph glyph-name="uni00B9" unicode="&#xb9;" 
d="M204 329l13 76h81l34 203l-79 -38l-30 71l120 57h101l-49 -293h72l-13 -76h-250z" />
    <glyph glyph-name="uni00B2" unicode="&#xb2;" 
d="M453 329h-281l14 84l138 92c21 14 60 37 65 68c1 6 2 11 2 16c0 22 -19 34 -41 34c-33 0 -51 -25 -59 -47l-83 31c24 53 69 97 149 97c77 0 136 -41 136 -111c0 -62 -46 -100 -122 -145l-68 -40h163z" />
    <glyph glyph-name="uni00B3" unicode="&#xb3;" 
d="M327 556c43 0 59 16 61 28c1 6 2 10 2 14c0 19 -18 30 -45 30s-51 -12 -76 -43l-54 60c36 37 77 59 142 59c84 0 133 -37 133 -94c0 -41 -26 -77 -87 -88v-2c45 -10 67 -38 67 -79c0 -66 -58 -118 -159 -118c-80 0 -121 32 -140 73l68 49c12 -27 33 -46 71 -46
c28 0 52 12 56 36c1 6 2 10 2 14c0 20 -17 30 -49 30h-40l13 77h35z" />
    <glyph glyph-name="uni2074" unicode="&#x2074;" 
d="M332 329l11 69h-169l13 82l189 218h110l-38 -228h45l-12 -72h-45l-11 -69h-93zM375 589h-7l-103 -119h90z" />
    <glyph glyph-name="uni2075" unicode="&#x2075;" 
d="M492 615h-180l-27 -105h6c17 39 46 65 94 65c61 0 103 -42 103 -104c0 -69 -51 -148 -169 -148c-73 0 -113 30 -138 76l74 45c12 -29 33 -45 66 -45c40 0 56 25 59 43c1 6 2 13 2 19c0 27 -20 38 -45 38c-28 0 -46 -13 -55 -22l-77 10l54 211h247z" />
    <glyph glyph-name="uni2076" unicode="&#x2076;" 
d="M333 323c-90 0 -139 55 -139 136c0 109 88 190 176 239h142c-106 -65 -176 -101 -206 -183l5 -2c15 20 36 58 91 58c58 0 93 -42 93 -101c0 -76 -59 -147 -162 -147zM336 395c30 0 50 16 55 46c2 12 2 18 2 23c0 21 -13 36 -43 36s-50 -16 -55 -46c-2 -12 -2 -18 -2 -23
c0 -21 13 -36 43 -36z" />
    <glyph glyph-name="uni2077" unicode="&#x2077;" 
d="M231 329l180 292h-109l-11 -66h-82l24 143h289l-13 -79l-172 -290h-106z" />
    <glyph glyph-name="uni2078" unicode="&#x2078;" 
d="M315 323c-90 0 -131 37 -131 95c0 52 36 85 89 100l1 3c-31 14 -49 40 -49 77c0 49 44 106 152 106c84 0 124 -40 124 -89c0 -45 -32 -76 -77 -92l-1 -4c37 -12 58 -34 58 -76c0 -59 -58 -120 -166 -120zM353 549c31 0 49 13 53 37c1 6 2 10 2 18c0 18 -16 29 -41 29
c-31 0 -49 -13 -53 -37c-1 -6 -2 -10 -2 -18c0 -18 16 -29 41 -29zM324 394c36 0 50 20 53 38c1 6 2 11 2 18c0 19 -17 31 -42 31c-36 0 -50 -20 -53 -38c-1 -6 -2 -11 -2 -18c0 -19 17 -31 42 -31z" />
    <glyph glyph-name="uni2079" unicode="&#x2079;" 
d="M500 568c0 -109 -88 -190 -176 -239h-142c106 65 176 101 206 183l-5 2c-15 -20 -36 -58 -91 -58c-58 0 -93 42 -93 101c0 76 59 147 162 147c90 0 139 -55 139 -136zM344 527c30 0 50 16 55 46c2 12 2 18 2 23c0 21 -13 36 -43 36s-50 -16 -55 -46c-2 -12 -2 -18 -2 -23
c0 -21 13 -36 43 -36z" />
    <glyph glyph-name="uni2080" unicode="&#x2080;" 
d="M274 -6c-112 0 -135 87 -135 146c0 132 58 235 172 235c112 0 135 -87 135 -146c0 -132 -58 -235 -172 -235zM276 70c39 0 50 28 59 80l11 66c3 17 4 30 4 39c0 28 -11 44 -41 44c-39 0 -50 -28 -59 -80l-11 -66c-3 -17 -4 -30 -4 -39c0 -28 11 -44 41 -44zM288 156
c-18 0 -25 9 -25 20c0 4 1 10 2 16c2 12 12 21 32 21c18 0 25 -9 25 -20c0 -4 -1 -10 -2 -16c-2 -12 -12 -21 -32 -21z" />
    <glyph glyph-name="uni2081" unicode="&#x2081;" 
d="M149 0l13 76h81l34 203l-79 -38l-30 71l120 57h101l-49 -293h72l-13 -76h-250z" />
    <glyph glyph-name="uni2082" unicode="&#x2082;" 
d="M398 0h-281l14 84l138 92c21 14 60 37 65 68c1 6 2 11 2 16c0 22 -19 34 -41 34c-33 0 -51 -25 -59 -47l-83 31c24 53 69 97 149 97c77 0 136 -41 136 -111c0 -62 -46 -100 -122 -145l-68 -40h163z" />
    <glyph glyph-name="uni2083" unicode="&#x2083;" 
d="M272 227c43 0 59 16 61 28c1 6 2 10 2 14c0 19 -18 30 -45 30s-51 -12 -76 -43l-54 60c36 37 77 59 142 59c84 0 133 -37 133 -94c0 -41 -26 -77 -87 -88v-2c45 -10 67 -38 67 -79c0 -66 -58 -118 -159 -118c-80 0 -121 32 -140 73l68 49c12 -27 33 -46 71 -46
c28 0 52 12 56 36c1 6 2 10 2 14c0 20 -17 30 -49 30h-40l13 77h35z" />
    <glyph glyph-name="uni2084" unicode="&#x2084;" 
d="M277 0l11 69h-169l13 82l189 218h110l-38 -228h45l-12 -72h-45l-11 -69h-93zM320 260h-7l-103 -119h90z" />
    <glyph glyph-name="uni2085" unicode="&#x2085;" 
d="M257 286l-27 -105h6c17 39 46 65 94 65c61 0 103 -42 103 -104c0 -69 -51 -148 -169 -148c-73 0 -113 30 -138 76l74 45c12 -29 33 -45 66 -45c40 0 56 25 59 43c1 6 2 13 2 19c0 27 -20 38 -45 38c-28 0 -46 -13 -55 -22l-77 10l54 211h247l-14 -83h-180z" />
    <glyph glyph-name="uni2086" unicode="&#x2086;" 
d="M278 -6c-90 0 -139 55 -139 136c0 109 88 190 176 239h142c-106 -65 -176 -101 -206 -183l5 -2c15 20 36 58 91 58c58 0 93 -42 93 -101c0 -76 -59 -147 -162 -147zM281 66c30 0 50 16 55 46c2 12 2 18 2 23c0 21 -13 36 -43 36s-50 -16 -55 -46c-2 -12 -2 -18 -2 -23
c0 -21 13 -36 43 -36z" />
    <glyph glyph-name="uni2087" unicode="&#x2087;" 
d="M176 0l180 292h-109l-11 -66h-82l24 143h289l-13 -79l-172 -290h-106z" />
    <glyph glyph-name="uni2088" unicode="&#x2088;" 
d="M260 -6c-90 0 -131 37 -131 95c0 52 36 85 89 100l1 3c-31 14 -49 40 -49 77c0 49 44 106 152 106c84 0 124 -40 124 -89c0 -45 -32 -76 -77 -92l-1 -4c37 -12 58 -34 58 -76c0 -59 -58 -120 -166 -120zM269 65c36 0 50 20 53 38c1 6 2 11 2 18c0 19 -17 31 -42 31
c-36 0 -50 -20 -53 -38c-1 -6 -2 -11 -2 -18c0 -19 17 -31 42 -31zM298 220c31 0 49 13 53 37c1 6 2 10 2 18c0 18 -16 29 -41 29c-31 0 -49 -13 -53 -37c-1 -6 -2 -10 -2 -18c0 -18 16 -29 41 -29z" />
    <glyph glyph-name="uni2089" unicode="&#x2089;" 
d="M445 239c0 -109 -88 -190 -176 -239h-142c106 65 176 101 206 183l-5 2c-15 -20 -36 -58 -91 -58c-58 0 -93 42 -93 101c0 76 59 147 162 147c90 0 139 -55 139 -136zM289 198c30 0 50 16 55 46c2 12 2 18 2 23c0 21 -13 36 -43 36s-50 -16 -55 -46c-2 -12 -2 -18 -2 -23
c0 -21 13 -36 43 -36z" />
    <glyph glyph-name="zero.numr" 
d="M329 357c-90 0 -130 49 -130 127c0 109 47 220 164 220c90 0 130 -49 130 -127c0 -109 -47 -220 -164 -220zM331 421c39 0 55 33 63 81l10 60c2 12 3 20 3 31c0 30 -13 47 -46 47c-39 0 -55 -33 -63 -81l-10 -60c-2 -12 -3 -20 -3 -31c0 -30 13 -47 46 -47zM342 502
c-18 0 -26 9 -26 20c0 4 1 10 2 16c2 12 12 21 32 21c18 0 26 -9 26 -20c0 -4 -1 -10 -2 -16c-2 -12 -12 -21 -32 -21z" />
    <glyph glyph-name="one.numr" 
d="M214 432h86l32 192l-83 -39l-22 60l111 53h94l-44 -266h75l-11 -69h-249z" />
    <glyph glyph-name="two.numr" 
d="M201 438l120 80c54 36 70 57 73 75c1 6 1 10 1 12c0 19 -19 31 -40 31c-29 0 -50 -22 -65 -49l-68 30c22 48 64 87 142 87c79 0 122 -41 122 -93c0 -68 -72 -108 -127 -142l-63 -39h166l-11 -67h-262z" />
    <glyph glyph-name="three.numr" 
d="M323 357c-72 0 -110 28 -131 69l62 36c9 -24 32 -39 70 -39c35 0 50 13 53 31c1 6 2 13 2 17c0 20 -22 32 -54 32h-27l11 63h31c38 0 54 13 57 31c1 6 2 10 2 14c0 16 -16 27 -42 27c-31 0 -58 -16 -81 -41l-44 50c38 36 77 57 136 57c77 0 125 -35 125 -85
c0 -43 -35 -75 -85 -82l-1 -4c46 -4 66 -33 66 -69c0 -62 -59 -107 -150 -107z" />
    <glyph glyph-name="four.numr" 
d="M339 426h-153l12 74l164 198h106l-35 -211h44l-10 -61h-44l-10 -63h-84zM349 487l21 126h-5l-104 -126h88z" />
    <glyph glyph-name="five.numr" 
d="M324 357c-82 0 -117 32 -132 68l67 40c8 -23 26 -41 60 -41c36 0 56 19 60 43c1 6 2 11 2 15c0 22 -17 36 -42 36c-23 0 -38 -8 -51 -21l-71 8l45 193h231l-12 -69h-172l-25 -103h7c17 34 41 58 84 58c58 0 102 -34 102 -99c0 -70 -59 -128 -153 -128z" />
    <glyph glyph-name="six.numr" 
d="M329 357c-83 0 -127 41 -127 116c0 95 81 179 164 225h124c-109 -62 -175 -110 -197 -170l6 -2c13 21 37 54 89 54c49 0 90 -36 90 -92c0 -74 -56 -131 -149 -131zM334 418c32 0 47 18 52 48c2 12 2 16 2 20c0 22 -11 35 -41 35c-32 0 -47 -18 -52 -48
c-2 -12 -2 -16 -2 -20c0 -22 11 -35 41 -35z" />
    <glyph glyph-name="seven.numr" 
d="M406 632h-98l-11 -67h-73l22 133h261l-12 -73l-150 -262h-96z" />
    <glyph glyph-name="eight.numr" 
d="M322 357c-81 0 -127 36 -127 88c0 48 37 78 87 88l1 4c-29 10 -51 30 -51 65c0 48 45 102 137 102c79 0 119 -34 119 -82c0 -42 -33 -74 -77 -85l-1 -4c35 -9 61 -31 61 -69c0 -60 -56 -107 -149 -107zM353 560c32 0 46 17 49 35c1 6 2 12 2 17c0 18 -15 30 -42 30
c-32 0 -46 -17 -49 -35c-1 -6 -2 -12 -2 -17c0 -18 15 -30 42 -30zM330 419c32 0 46 17 49 35c1 6 2 14 2 19c0 18 -15 30 -42 30c-32 0 -46 -17 -49 -35c-1 -6 -2 -14 -2 -19c0 -18 15 -30 42 -30z" />
    <glyph glyph-name="nine.numr" 
d="M201 363c109 62 175 110 197 170l-6 2c-13 -21 -37 -54 -89 -54c-49 0 -90 36 -90 92c0 74 56 131 149 131c83 0 127 -41 127 -116c0 -95 -81 -179 -164 -225h-124zM344 540c32 0 47 18 52 48c2 12 2 16 2 20c0 22 -11 35 -41 35c-32 0 -47 -18 -52 -48
c-2 -12 -2 -16 -2 -20c0 -22 11 -35 41 -35z" />
    <glyph glyph-name="zero.dnom" 
d="M269 -6c-90 0 -130 49 -130 127c0 109 47 220 164 220c90 0 130 -49 130 -127c0 -109 -47 -220 -164 -220zM271 58c39 0 55 33 63 81l10 60c2 12 3 20 3 31c0 30 -13 47 -46 47c-39 0 -55 -33 -63 -81l-10 -60c-2 -12 -3 -20 -3 -31c0 -30 13 -47 46 -47zM282 139
c-18 0 -26 9 -26 20c0 4 1 10 2 16c2 12 12 21 32 21c18 0 26 -9 26 -20c0 -4 -1 -10 -2 -16c-2 -12 -12 -21 -32 -21z" />
    <glyph glyph-name="one.dnom" 
d="M154 69h86l32 192l-83 -39l-22 60l111 53h94l-44 -266h75l-11 -69h-249z" />
    <glyph glyph-name="two.dnom" 
d="M141 75l120 80c54 36 70 57 73 75c1 6 1 10 1 12c0 19 -19 31 -40 31c-29 0 -50 -22 -65 -49l-68 30c22 48 64 87 142 87c79 0 122 -41 122 -93c0 -68 -72 -108 -127 -142l-63 -39h166l-11 -67h-262z" />
    <glyph glyph-name="three.dnom" 
d="M263 -6c-72 0 -110 28 -131 69l62 36c9 -24 32 -39 70 -39c35 0 50 13 53 31c1 6 2 13 2 17c0 20 -22 32 -54 32h-27l11 63h31c38 0 54 13 57 31c1 6 2 10 2 14c0 16 -16 27 -42 27c-31 0 -58 -16 -81 -41l-44 50c38 36 77 57 136 57c77 0 125 -35 125 -85
c0 -43 -35 -75 -85 -82l-1 -4c46 -4 66 -33 66 -69c0 -62 -59 -107 -150 -107z" />
    <glyph glyph-name="four.dnom" 
d="M279 63h-153l12 74l164 198h106l-35 -211h44l-10 -61h-44l-10 -63h-84zM289 124l21 126h-5l-104 -126h88z" />
    <glyph glyph-name="five.dnom" 
d="M264 -6c-82 0 -117 32 -132 68l67 40c8 -23 26 -41 60 -41c36 0 56 19 60 43c1 6 2 11 2 15c0 22 -17 36 -42 36c-23 0 -38 -8 -51 -21l-71 8l45 193h231l-12 -69h-172l-25 -103h7c17 34 41 58 84 58c58 0 102 -34 102 -99c0 -70 -59 -128 -153 -128z" />
    <glyph glyph-name="six.dnom" 
d="M269 -6c-83 0 -127 41 -127 116c0 95 81 179 164 225h124c-109 -62 -175 -110 -197 -170l6 -2c13 21 37 54 89 54c49 0 90 -36 90 -92c0 -74 -56 -131 -149 -131zM274 55c32 0 47 18 52 48c2 12 2 16 2 20c0 22 -11 35 -41 35c-32 0 -47 -18 -52 -48
c-2 -12 -2 -16 -2 -20c0 -22 11 -35 41 -35z" />
    <glyph glyph-name="seven.dnom" 
d="M346 269h-98l-11 -67h-73l22 133h261l-12 -73l-150 -262h-96z" />
    <glyph glyph-name="eight.dnom" 
d="M262 -6c-81 0 -127 36 -127 88c0 48 37 78 87 88l1 4c-29 10 -51 30 -51 65c0 48 45 102 137 102c79 0 119 -34 119 -82c0 -42 -33 -74 -77 -85l-1 -4c35 -9 61 -31 61 -69c0 -60 -56 -107 -149 -107zM293 197c32 0 46 17 49 35c1 6 2 12 2 17c0 18 -15 30 -42 30
c-32 0 -46 -17 -49 -35c-1 -6 -2 -12 -2 -17c0 -18 15 -30 42 -30zM270 56c32 0 46 17 49 35c1 6 2 14 2 19c0 18 -15 30 -42 30c-32 0 -46 -17 -49 -35c-1 -6 -2 -14 -2 -19c0 -18 15 -30 42 -30z" />
    <glyph glyph-name="nine.dnom" 
d="M141 0c109 62 175 110 197 170l-6 2c-13 -21 -37 -54 -89 -54c-49 0 -90 36 -90 92c0 74 56 131 149 131c83 0 127 -41 127 -116c0 -95 -81 -179 -164 -225h-124zM284 177c32 0 47 18 52 48c2 12 2 16 2 20c0 22 -11 35 -41 35c-32 0 -47 -18 -52 -48
c-2 -12 -2 -16 -2 -20c0 -22 11 -35 41 -35z" />
    <glyph glyph-name="onehalf" unicode="&#xbd;" 
d="M291 75l120 80c54 36 70 57 73 75c1 6 1 10 1 12c0 19 -19 31 -40 31c-29 0 -50 -22 -65 -49l-68 30c22 48 64 87 142 87c79 0 122 -41 122 -93c0 -68 -72 -108 -127 -142l-63 -39h166l-11 -67h-262zM568 698h106l-223 -300h-106zM181 300h106l-223 -300h-106zM64 432h86
l32 192l-83 -39l-22 60l111 53h94l-44 -266h75l-11 -69h-249z" />
    <glyph glyph-name="uni2153" unicode="&#x2153;" 
d="M413 -6c-72 0 -110 28 -131 69l62 36c9 -24 32 -39 70 -39c35 0 50 13 53 31c1 6 2 13 2 17c0 20 -22 32 -54 32h-27l11 63h31c38 0 54 13 57 31c1 6 2 10 2 14c0 16 -16 27 -42 27c-31 0 -58 -16 -81 -41l-44 50c38 36 77 57 136 57c77 0 125 -35 125 -85
c0 -43 -35 -75 -85 -82l-1 -4c46 -4 66 -33 66 -69c0 -62 -59 -107 -150 -107zM568 698h106l-223 -300h-106zM181 300h106l-223 -300h-106zM64 432h86l32 192l-83 -39l-22 60l111 53h94l-44 -266h75l-11 -69h-249z" />
    <glyph glyph-name="uni2154" unicode="&#x2154;" 
d="M413 -6c-72 0 -110 28 -131 69l62 36c9 -24 32 -39 70 -39c35 0 50 13 53 31c1 6 2 13 2 17c0 20 -22 32 -54 32h-27l11 63h31c38 0 54 13 57 31c1 6 2 10 2 14c0 16 -16 27 -42 27c-31 0 -58 -16 -81 -41l-44 50c38 36 77 57 136 57c77 0 125 -35 125 -85
c0 -43 -35 -75 -85 -82l-1 -4c46 -4 66 -33 66 -69c0 -62 -59 -107 -150 -107zM568 698h106l-223 -300h-106zM181 300h106l-223 -300h-106zM51 438l120 80c54 36 70 57 73 75c1 6 1 10 1 12c0 19 -19 31 -40 31c-29 0 -50 -22 -65 -49l-68 30c22 48 64 87 142 87
c79 0 122 -41 122 -93c0 -68 -72 -108 -127 -142l-63 -39h166l-11 -67h-262z" />
    <glyph glyph-name="onequarter" unicode="&#xbc;" 
d="M429 63h-153l12 74l164 198h106l-35 -211h44l-10 -61h-44l-10 -63h-84zM439 124l21 126h-5l-104 -126h88zM568 698h106l-223 -300h-106zM181 300h106l-223 -300h-106zM64 432h86l32 192l-83 -39l-22 60l111 53h94l-44 -266h75l-11 -69h-249z" />
    <glyph glyph-name="threequarters" unicode="&#xbe;" 
d="M429 63h-153l12 74l164 198h106l-35 -211h44l-10 -61h-44l-10 -63h-84zM439 124l21 126h-5l-104 -126h88zM568 698h106l-223 -300h-106zM181 300h106l-223 -300h-106zM173 357c-72 0 -110 28 -131 69l62 36c9 -24 32 -39 70 -39c35 0 50 13 53 31c1 6 2 13 2 17
c0 20 -22 32 -54 32h-27l11 63h31c38 0 54 13 57 31c1 6 2 10 2 14c0 16 -16 27 -42 27c-31 0 -58 -16 -81 -41l-44 50c38 36 77 57 136 57c77 0 125 -35 125 -85c0 -43 -35 -75 -85 -82l-1 -4c46 -4 66 -33 66 -69c0 -62 -59 -107 -150 -107z" />
    <glyph glyph-name="uni2155" unicode="&#x2155;" 
d="M414 -6c-82 0 -117 32 -132 68l67 40c8 -23 26 -41 60 -41c36 0 56 19 60 43c1 6 2 11 2 15c0 22 -17 36 -42 36c-23 0 -38 -8 -51 -21l-71 8l45 193h231l-12 -69h-172l-25 -103h7c17 34 41 58 84 58c58 0 102 -34 102 -99c0 -70 -59 -128 -153 -128zM568 698h106
l-223 -300h-106zM181 300h106l-223 -300h-106zM64 432h86l32 192l-83 -39l-22 60l111 53h94l-44 -266h75l-11 -69h-249z" />
    <glyph glyph-name="uni2156" unicode="&#x2156;" 
d="M414 -6c-82 0 -117 32 -132 68l67 40c8 -23 26 -41 60 -41c36 0 56 19 60 43c1 6 2 11 2 15c0 22 -17 36 -42 36c-23 0 -38 -8 -51 -21l-71 8l45 193h231l-12 -69h-172l-25 -103h7c17 34 41 58 84 58c58 0 102 -34 102 -99c0 -70 -59 -128 -153 -128zM568 698h106
l-223 -300h-106zM181 300h106l-223 -300h-106zM51 438l120 80c54 36 70 57 73 75c1 6 1 10 1 12c0 19 -19 31 -40 31c-29 0 -50 -22 -65 -49l-68 30c22 48 64 87 142 87c79 0 122 -41 122 -93c0 -68 -72 -108 -127 -142l-63 -39h166l-11 -67h-262z" />
    <glyph glyph-name="uni2157" unicode="&#x2157;" 
d="M414 -6c-82 0 -117 32 -132 68l67 40c8 -23 26 -41 60 -41c36 0 56 19 60 43c1 6 2 11 2 15c0 22 -17 36 -42 36c-23 0 -38 -8 -51 -21l-71 8l45 193h231l-12 -69h-172l-25 -103h7c17 34 41 58 84 58c58 0 102 -34 102 -99c0 -70 -59 -128 -153 -128zM568 698h106
l-223 -300h-106zM181 300h106l-223 -300h-106zM173 357c-72 0 -110 28 -131 69l62 36c9 -24 32 -39 70 -39c35 0 50 13 53 31c1 6 2 13 2 17c0 20 -22 32 -54 32h-27l11 63h31c38 0 54 13 57 31c1 6 2 10 2 14c0 16 -16 27 -42 27c-31 0 -58 -16 -81 -41l-44 50
c38 36 77 57 136 57c77 0 125 -35 125 -85c0 -43 -35 -75 -85 -82l-1 -4c46 -4 66 -33 66 -69c0 -62 -59 -107 -150 -107z" />
    <glyph glyph-name="uni2158" unicode="&#x2158;" 
d="M414 -6c-82 0 -117 32 -132 68l67 40c8 -23 26 -41 60 -41c36 0 56 19 60 43c1 6 2 11 2 15c0 22 -17 36 -42 36c-23 0 -38 -8 -51 -21l-71 8l45 193h231l-12 -69h-172l-25 -103h7c17 34 41 58 84 58c58 0 102 -34 102 -99c0 -70 -59 -128 -153 -128zM568 698h106
l-223 -300h-106zM181 300h106l-223 -300h-106zM189 426h-153l12 74l164 198h106l-35 -211h44l-10 -61h-44l-10 -63h-84zM199 487l21 126h-5l-104 -126h88z" />
    <glyph glyph-name="uni2159" unicode="&#x2159;" 
d="M419 -6c-83 0 -127 41 -127 116c0 95 81 179 164 225h124c-109 -62 -175 -110 -197 -170l6 -2c13 21 37 54 89 54c49 0 90 -36 90 -92c0 -74 -56 -131 -149 -131zM424 55c32 0 47 18 52 48c2 12 2 16 2 20c0 22 -11 35 -41 35c-32 0 -47 -18 -52 -48
c-2 -12 -2 -16 -2 -20c0 -22 11 -35 41 -35zM568 698h106l-223 -300h-106zM181 300h106l-223 -300h-106zM64 432h86l32 192l-83 -39l-22 60l111 53h94l-44 -266h75l-11 -69h-249z" />
    <glyph glyph-name="uni215A" unicode="&#x215a;" 
d="M419 -6c-83 0 -127 41 -127 116c0 95 81 179 164 225h124c-109 -62 -175 -110 -197 -170l6 -2c13 21 37 54 89 54c49 0 90 -36 90 -92c0 -74 -56 -131 -149 -131zM424 55c32 0 47 18 52 48c2 12 2 16 2 20c0 22 -11 35 -41 35c-32 0 -47 -18 -52 -48
c-2 -12 -2 -16 -2 -20c0 -22 11 -35 41 -35zM568 698h106l-223 -300h-106zM181 300h106l-223 -300h-106zM174 357c-82 0 -117 32 -132 68l67 40c8 -23 26 -41 60 -41c36 0 56 19 60 43c1 6 2 11 2 15c0 22 -17 36 -42 36c-23 0 -38 -8 -51 -21l-71 8l45 193h231l-12 -69
h-172l-25 -103h7c17 34 41 58 84 58c58 0 102 -34 102 -99c0 -70 -59 -128 -153 -128z" />
    <glyph glyph-name="uni2150" unicode="&#x2150;" 
d="M496 269h-98l-11 -67h-73l22 133h261l-12 -73l-150 -262h-96zM568 698h106l-223 -300h-106zM181 300h106l-223 -300h-106zM64 432h86l32 192l-83 -39l-22 60l111 53h94l-44 -266h75l-11 -69h-249z" />
    <glyph glyph-name="uni215B" unicode="&#x215b;" 
d="M412 -6c-81 0 -127 36 -127 88c0 48 37 78 87 88l1 4c-29 10 -51 30 -51 65c0 48 45 102 137 102c79 0 119 -34 119 -82c0 -42 -33 -74 -77 -85l-1 -4c35 -9 61 -31 61 -69c0 -60 -56 -107 -149 -107zM443 197c32 0 46 17 49 35c1 6 2 12 2 17c0 18 -15 30 -42 30
c-32 0 -46 -17 -49 -35c-1 -6 -2 -12 -2 -17c0 -18 15 -30 42 -30zM420 56c32 0 46 17 49 35c1 6 2 14 2 19c0 18 -15 30 -42 30c-32 0 -46 -17 -49 -35c-1 -6 -2 -14 -2 -19c0 -18 15 -30 42 -30zM568 698h106l-223 -300h-106zM181 300h106l-223 -300h-106zM64 432h86
l32 192l-83 -39l-22 60l111 53h94l-44 -266h75l-11 -69h-249z" />
    <glyph glyph-name="uni215C" unicode="&#x215c;" 
d="M412 -6c-81 0 -127 36 -127 88c0 48 37 78 87 88l1 4c-29 10 -51 30 -51 65c0 48 45 102 137 102c79 0 119 -34 119 -82c0 -42 -33 -74 -77 -85l-1 -4c35 -9 61 -31 61 -69c0 -60 -56 -107 -149 -107zM443 197c32 0 46 17 49 35c1 6 2 12 2 17c0 18 -15 30 -42 30
c-32 0 -46 -17 -49 -35c-1 -6 -2 -12 -2 -17c0 -18 15 -30 42 -30zM420 56c32 0 46 17 49 35c1 6 2 14 2 19c0 18 -15 30 -42 30c-32 0 -46 -17 -49 -35c-1 -6 -2 -14 -2 -19c0 -18 15 -30 42 -30zM568 698h106l-223 -300h-106zM181 300h106l-223 -300h-106zM173 357
c-72 0 -110 28 -131 69l62 36c9 -24 32 -39 70 -39c35 0 50 13 53 31c1 6 2 13 2 17c0 20 -22 32 -54 32h-27l11 63h31c38 0 54 13 57 31c1 6 2 10 2 14c0 16 -16 27 -42 27c-31 0 -58 -16 -81 -41l-44 50c38 36 77 57 136 57c77 0 125 -35 125 -85c0 -43 -35 -75 -85 -82
l-1 -4c46 -4 66 -33 66 -69c0 -62 -59 -107 -150 -107z" />
    <glyph glyph-name="uni215D" unicode="&#x215d;" 
d="M412 -6c-81 0 -127 36 -127 88c0 48 37 78 87 88l1 4c-29 10 -51 30 -51 65c0 48 45 102 137 102c79 0 119 -34 119 -82c0 -42 -33 -74 -77 -85l-1 -4c35 -9 61 -31 61 -69c0 -60 -56 -107 -149 -107zM443 197c32 0 46 17 49 35c1 6 2 12 2 17c0 18 -15 30 -42 30
c-32 0 -46 -17 -49 -35c-1 -6 -2 -12 -2 -17c0 -18 15 -30 42 -30zM420 56c32 0 46 17 49 35c1 6 2 14 2 19c0 18 -15 30 -42 30c-32 0 -46 -17 -49 -35c-1 -6 -2 -14 -2 -19c0 -18 15 -30 42 -30zM568 698h106l-223 -300h-106zM181 300h106l-223 -300h-106zM174 357
c-82 0 -117 32 -132 68l67 40c8 -23 26 -41 60 -41c36 0 56 19 60 43c1 6 2 11 2 15c0 22 -17 36 -42 36c-23 0 -38 -8 -51 -21l-71 8l45 193h231l-12 -69h-172l-25 -103h7c17 34 41 58 84 58c58 0 102 -34 102 -99c0 -70 -59 -128 -153 -128z" />
    <glyph glyph-name="uni215E" unicode="&#x215e;" 
d="M412 -6c-81 0 -127 36 -127 88c0 48 37 78 87 88l1 4c-29 10 -51 30 -51 65c0 48 45 102 137 102c79 0 119 -34 119 -82c0 -42 -33 -74 -77 -85l-1 -4c35 -9 61 -31 61 -69c0 -60 -56 -107 -149 -107zM443 197c32 0 46 17 49 35c1 6 2 12 2 17c0 18 -15 30 -42 30
c-32 0 -46 -17 -49 -35c-1 -6 -2 -12 -2 -17c0 -18 15 -30 42 -30zM420 56c32 0 46 17 49 35c1 6 2 14 2 19c0 18 -15 30 -42 30c-32 0 -46 -17 -49 -35c-1 -6 -2 -14 -2 -19c0 -18 15 -30 42 -30zM568 698h106l-223 -300h-106zM181 300h106l-223 -300h-106zM256 632h-98
l-11 -67h-73l22 133h261l-12 -73l-150 -262h-96z" />
    <glyph glyph-name="uni2151" unicode="&#x2151;" 
d="M291 0c109 62 175 110 197 170l-6 2c-13 -21 -37 -54 -89 -54c-49 0 -90 36 -90 92c0 74 56 131 149 131c83 0 127 -41 127 -116c0 -95 -81 -179 -164 -225h-124zM434 177c32 0 47 18 52 48c2 12 2 16 2 20c0 22 -11 35 -41 35c-32 0 -47 -18 -52 -48
c-2 -12 -2 -16 -2 -20c0 -22 11 -35 41 -35zM568 698h106l-223 -300h-106zM181 300h106l-223 -300h-106zM64 432h86l32 192l-83 -39l-22 60l111 53h94l-44 -266h75l-11 -69h-249z" />
    <glyph glyph-name="uni2713" unicode="&#x2713;" 
d="M0 486l135 37l61 -186l52 -176h8l59 177l156 392l129 -44l-269 -686h-164z" />
    <glyph glyph-name="uni274C" unicode="&#x274c;" 
d="M10 46l210 305l-210 300l111 70l180 -260l178 260l111 -69l-210 -305l210 -300l-111 -70l-180 260l-178 -260z" />
    <glyph glyph-name="arrowleft" unicode="&#x2190;" 
d="M247 588l80 -80l-60 -60l-44 -38l1 -4l80 4h268v-122h-268l-80 4l-1 -4l44 -38l60 -60l-80 -80l-239 239z" />
    <glyph glyph-name="arrowup" unicode="&#x2191;" 
d="M539 471l-80 -80l-60 60l-38 44l-4 -1l4 -80v-414h-122v414l4 80l-4 1l-38 -44l-60 -60l-80 80l239 239z" />
    <glyph glyph-name="arrowdown" unicode="&#x2193;" 
d="M61 227l80 80l60 -60l38 -44l4 1l-4 80v414h122v-414l-4 -80l4 -1l38 44l60 60l80 -80l-239 -239z" />
    <glyph glyph-name="arrowright" unicode="&#x2192;" 
d="M353 110l-80 80l60 60l44 38l-1 4l-80 -4h-268v122h268l80 -4l1 4l-44 38l-60 60l80 80l239 -239z" />
    <glyph glyph-name="uni2196" unicode="&#x2196;" 
d="M380 622v-113h-85l-58 4l-2 -3l59 -54l289 -289l-86 -86l-289 289l-54 59l-3 -2l4 -58v-85h-113v338h338z" />
    <glyph glyph-name="uni2197" unicode="&#x2197;" 
d="M558 284h-113v85l4 58l-3 2l-54 -59l-289 -289l-86 86l289 289l59 54l-2 3l-58 -4h-85v113h338v-338z" />
    <glyph glyph-name="uni2199" unicode="&#x2199;" 
d="M42 419h113v-85l-4 -58l3 -2l54 59l289 289l86 -86l-289 -289l-59 -54l2 -3l58 4h85v-113h-338v338z" />
    <glyph glyph-name="uni2198" unicode="&#x2198;" 
d="M220 81v113h85l58 -4l2 3l-59 54l-289 289l86 86l289 -289l54 -59l3 2l-4 58v85h113v-338h-338z" />
    <glyph glyph-name="uni21B0" unicode="&#x21b0;" 
d="M263 698l80 -80l-60 -60l-44 -38l1 -4l80 4h227v-520h-122v398h-105l-80 4l-1 -4l44 -38l60 -60l-80 -80l-239 239z" />
    <glyph glyph-name="uni21B2" unicode="&#x21b2;" 
d="M263 478l80 -80l-60 -60l-44 -38l1 -4l80 4h105v398h122v-520h-227l-80 4l-1 -4l44 -38l60 -60l-80 -80l-239 239z" />
    <glyph glyph-name="uni2B11" unicode="&#x2b11;" 
d="M485 398l-80 -80l-60 60l-38 44l-4 -1l4 -81v-114h263v-122h-385v236l4 81l-4 1l-38 -44l-60 -60l-80 80l239 239z" />
    <glyph glyph-name="uni2B0F" unicode="&#x2b0f;" 
d="M593 398l-80 -80l-60 60l-38 44l-4 -1l4 -81v-236h-385v122h263v114l4 81l-4 1l-38 -44l-60 -60l-80 80l239 239z" />
    <glyph glyph-name="uni2B10" unicode="&#x2b10;" 
d="M7 312l80 80l60 -60l38 -44l4 1l-4 81v236h385v-122h-263v-114l-4 -81l4 -1l38 44l60 60l80 -80l-239 -239z" />
    <glyph glyph-name="uni2B0E" unicode="&#x2b0e;" 
d="M115 312l80 80l60 -60l38 -44l4 1l-4 81v114h-263v122h385v-236l-4 -81l4 -1l38 44l60 60l80 -80l-239 -239z" />
    <glyph glyph-name="uni21B1" unicode="&#x21b1;" 
d="M338 220l-80 80l60 60l44 38l-1 4l-80 -4h-105v-398h-122v520h227l80 -4l1 4l-44 38l-60 60l80 80l239 -239z" />
    <glyph glyph-name="uni21B3" unicode="&#x21b3;" 
d="M338 0l-80 80l60 60l44 38l-1 4l-80 -4h-227v520h122v-398h105l80 -4l1 4l-44 38l-60 60l80 80l239 -239z" />
    <glyph glyph-name="uni21C6" unicode="&#x21c6;" 
d="M353 -100l-80 80l60 60l44 38l-1 4l-80 -4h-268v122h268l80 -4l1 4l-44 38l-60 60l80 80l239 -239zM247 798l80 -80l-60 -60l-44 -38l1 -4l80 4h268v-122h-268l-80 4l-1 -4l44 -38l60 -60l-80 -80l-239 239z" />
    <glyph glyph-name="uni21C4" unicode="&#x21c4;" 
d="M247 378l80 -80l-60 -60l-44 -38l1 -4l80 4h268v-122h-268l-80 4l-1 -4l44 -38l60 -60l-80 -80l-239 239zM353 320l-80 80l60 60l44 38l-1 4l-80 -4h-268v122h268l80 -4l1 4l-44 38l-60 60l80 80l239 -239z" />
    <glyph glyph-name="arrowboth" unicode="&#x2194;" 
d="M209 558l80 -80l-30 -30l-44 -38l1 -4l80 4h8l80 -4l1 4l-44 38l-30 30l80 80l209 -209l-209 -209l-80 80l30 30l44 38l-1 4l-80 -4h-8l-80 4l-1 -4l44 -38l30 -30l-80 -80l-209 209z" />
    <glyph glyph-name="arrowupdn" unicode="&#x2195;" 
d="M61 227l80 80l60 -60l38 -44l4 1l-4 80v130l4 80l-4 1l-38 -44l-60 -60l-80 80l239 239l239 -239l-80 -80l-60 60l-38 44l-4 -1l4 -80v-130l-4 -80l4 -1l38 44l60 60l80 -80l-239 -239z" />
    <glyph glyph-name="uni21B6" unicode="&#x21b6;" 
d="M5 276l80 80l60 -60l38 -44l4 1l-4 81v118c0 125 68 217 200 217c120 0 203 -88 203 -212v-29h-122v29c0 60 -30 99 -81 99c-48 0 -78 -38 -78 -112v-110l-4 -81l4 -1l38 44l60 60l80 -80l-239 -239z" />
    <glyph glyph-name="uni21B7" unicode="&#x21b7;" 
d="M117 276l80 80l60 -60l38 -44l4 1l-4 81v110c0 74 -30 112 -78 112c-51 0 -81 -39 -81 -99v-29h-122v29c0 124 83 212 203 212c132 0 200 -92 200 -217v-118l-4 -81l4 -1l38 44l60 60l80 -80l-239 -239z" />
    <glyph glyph-name="uni21A9" unicode="&#x21a9;" 
d="M239 537l80 -80l-60 -60l-44 -38l1 -4l80 4h72c49 0 93 24 93 83s-44 83 -93 83v114c124 0 232 -68 232 -201s-108 -201 -232 -201h-72l-80 4l-1 -4l44 -38l60 -60l-80 -80l-239 239z" />
    <glyph glyph-name="uni21AA" unicode="&#x21aa;" 
d="M361 59l-80 80l60 60l44 38l-1 4l-80 -4h-72c-124 0 -232 68 -232 201s108 201 232 201v-114c-49 0 -93 -24 -93 -83s44 -83 93 -83h72l80 -4l1 4l-44 38l-60 60l80 80l239 -239z" />
    <glyph glyph-name="uni21BA" unicode="&#x21ba;" 
d="M577 698v-112h-80l-58 11l-2 -4l15 -13c73 -64 125 -135 125 -276c0 -201 -113 -316 -276 -316c-167 0 -278 119 -278 306c0 110 38 197 120 273l84 -70c-56 -53 -82 -119 -82 -203c0 -122 71 -193 156 -193c91 0 154 69 154 203c0 81 -23 142 -80 199l-15 15l-4 -2
l6 -61v-84h-112v327h327z" />
    <glyph glyph-name="uni21BB" unicode="&#x21bb;" 
d="M350 371h-112v84l6 61l-4 2l-15 -15c-57 -57 -80 -118 -80 -199c0 -134 63 -203 154 -203c85 0 156 71 156 193c0 84 -26 150 -82 203l84 70c82 -76 120 -163 120 -273c0 -187 -111 -306 -278 -306c-163 0 -276 115 -276 316c0 141 52 212 125 276l15 13l-2 4l-58 -11
h-80v112h327v-327z" />
    <glyph glyph-name="tilde" unicode="&#x2dc;" 
d="M389 592c-30 0 -50 10 -73 21c-27 12 -49 22 -75 22c-23 0 -39 -8 -63 -25l-40 67c29 36 71 64 124 64c30 0 50 -10 73 -21c27 -12 49 -22 75 -22c23 0 39 8 63 25l40 -67c-29 -36 -71 -64 -124 -64z" />
    <glyph glyph-name="tilde.alt01" 
d="M358 593c-26 0 -44 9 -64 20c-23 12 -41 22 -63 22c-17 0 -33 -6 -52 -21l-41 61c28 36 65 65 113 65c26 0 44 -9 64 -20c23 -12 41 -22 63 -22c17 0 33 6 52 21l41 -61c-28 -36 -65 -65 -113 -65z" />
    <glyph glyph-name="macron" unicode="&#xaf;" 
d="M181 718h305l-17 -102h-305z" />
    <glyph glyph-name="dotaccent" unicode="&#x2d9;" 
d="M317 584c-60 0 -82 26 -82 61c0 7 1 16 5 40c7 42 34 66 94 66s82 -26 82 -61c0 -7 -1 -16 -5 -40c-7 -42 -34 -66 -94 -66z" />
    <glyph glyph-name="dieresis" unicode="&#xa8;" 
d="M208 592c-54 0 -74 23 -74 54c0 6 2 17 5 35c6 36 27 60 85 60c54 0 74 -23 74 -54c0 -6 -2 -17 -5 -35c-6 -36 -27 -60 -85 -60zM426 592c-54 0 -74 23 -74 54c0 6 2 17 5 35c6 36 27 60 85 60c54 0 74 -23 74 -54c0 -6 -2 -17 -5 -35c-6 -36 -27 -60 -85 -60z" />
    <glyph glyph-name="hungarumlaut" unicode="&#x2dd;" 
d="M220 571l-78 38l108 193l108 -56zM419 571l-78 38l108 193l108 -56z" />
    <glyph glyph-name="acute" unicode="&#xb4;" 
d="M323 570l-86 46l115 190l114 -60z" />
    <glyph glyph-name="grave" unicode="`" 
d="M179 747l124 59l77 -196l-87 -39z" />
    <glyph glyph-name="circumflex" unicode="&#x2c6;" 
d="M403 785l108 -158l-76 -57l-106 115l-134 -115l-70 57l154 158h124z" />
    <glyph glyph-name="caron" unicode="&#x2c7;" 
d="M253 579l-108 158l76 57l106 -115l134 115l70 -57l-154 -158h-124z" />
    <glyph glyph-name="breve" unicode="&#x2d8;" 
d="M323 570c-113 0 -158 88 -179 170l81 42l20 -37c24 -45 42 -72 84 -72c36 0 58 25 94 74l26 35l83 -42c-43 -85 -100 -170 -209 -170z" />
    <glyph glyph-name="ring" unicode="&#x2da;" 
d="M309 550c-73 0 -130 54 -130 124c0 94 76 160 168 160c73 0 130 -54 130 -124c0 -94 -76 -160 -168 -160zM317 624c34 0 54 21 59 51c4 24 6 35 6 45c0 25 -14 40 -43 40c-34 0 -54 -21 -59 -51c-4 -24 -6 -35 -6 -45c0 -25 14 -40 43 -40z" />
    <glyph glyph-name="ringacute" 
d="M346 806l-49 56l142 117l65 -79zM307 556c-75 0 -133 39 -133 105c0 84 76 134 168 134c75 0 133 -39 133 -105c0 -84 -76 -134 -168 -134zM316 625c36 0 55 14 60 44c2 12 3 19 3 22c0 24 -16 35 -46 35c-36 0 -55 -14 -60 -44c-2 -12 -3 -19 -3 -22
c0 -24 16 -35 46 -35z" />
    <glyph glyph-name="uni02BB" unicode="&#x2bb;" 
d="M353 794h88l-53 -215h-156z" />
    </font>
</defs>
</svg>
