<svg width="126" height="118" viewBox="0 0 126 118" fill="none" xmlns="http://www.w3.org/2000/svg">
<path d="M117.2 19.3C119.3 19.3 121.1 20.1 122.7 21.6C124.3 23.1 125 25 125 27.1V109.1C125 111.2 124.2 113 122.7 114.6C121.2 116.1 119.3 116.9 117.2 116.9H7.8C5.7 116.9 3.9 116.1 2.3 114.6C0.800003 113.1 0 111.2 0 109.1V27.1C0 25 0.800003 23.2 2.3 21.6C3.8 20 5.7 19.3 7.8 19.3H39.1V11.7C39.1 8.49999 40.2 5.80001 42.5 3.50001C44.8 1.20001 47.5 6.10352e-06 50.8 6.10352e-06H74.2C77.5 6.10352e-06 80.2 1.20001 82.5 3.50001C84.8 5.80001 85.9 8.59999 85.9 11.7V19.3H117.2V19.3ZM46.9 11.7V19.3H78.1V11.7C78.1 10.6 77.7 9.70001 77 9.00001C76.3 8.20001 75.3 7.79999 74.2 7.79999H50.8C49.7 7.79999 48.8 8.20001 48.1 9.00001C47.3 9.70001 46.9 10.7 46.9 11.7ZM7.8 27.1V54.6H50.8V50.6C50.8 48.5 51.6 46.7 53.1 45.1C54.6 43.5 56.5 42.8 58.7 42.8H66.5C68.6 42.8 70.4 43.6 72 45.1C73.6 46.6 74.3 48.5 74.3 50.6V54.6H117.3V27.1H7.8ZM66.4 70.2V50.5H58.6V70.2H66.4ZM7.8 109.1H117.2V62.3H74.2V70.1C74.2 72.3 73.4 74.1 71.9 75.7C70.4 77.3 68.5 78 66.4 78H58.6C56.4 78 54.6 77.2 53 75.7C51.4 74.2 50.7 72.3 50.7 70.1V62.3H7.7V109.1H7.8Z" transform="translate(0.900391 0.193359)" fill="black"/>
</svg>
