<svg width="126" height="126" viewBox="0 0 126 126" fill="none" xmlns="http://www.w3.org/2000/svg">
<path d="M116.4 0.392976C118.7 -0.307024 120.7 0.0929761 122.5 1.49298C124.3 2.89298 125.2 4.69298 125.2 6.99298V101.993C125.2 103.993 124.5 105.793 123.2 107.393C121.9 108.993 120.3 110.093 118.4 110.593L66.8 124.593C66 124.793 65.2 124.993 64.3 125.093C63.4 125.193 62.7 125.193 62 125.193C61.1 125.193 60.2 125.093 59.4 124.993C58.6 124.893 57.8 124.693 57.1 124.593L6.80001 110.693C4.90001 110.093 3.3 108.993 2 107.293C0.700003 105.593 3.05176e-06 103.793 3.05176e-06 101.893V6.89298C3.05176e-06 4.59298 0.9 2.79298 2.7 1.39298C4.5 -0.00702393 6.50001 -0.307024 8.80001 0.292976L59.1 14.193C59.8 14.393 60.7 14.393 61.8 14.393C62.9 14.393 63.9 14.293 64.5 14.193L116.4 0.392976ZM58.8 116.993V22.093C58.6 22.093 58.3 22.093 58 21.993C57.7 21.893 57.5 21.893 57.2 21.893L8 8.19298V101.993C8 102.193 8.10001 102.493 8.30001 102.693C8.50001 102.893 8.70001 103.093 8.80001 103.193L58.8 116.993ZM117.4 101.993V8.19298L66.9 21.893H66.7V116.593L116.5 103.193C116.7 103.093 116.9 102.993 117.1 102.693C117.3 102.393 117.4 102.193 117.4 101.993ZM78.6 44.793C77.8 44.793 77 44.593 76.3 44.093C75.6 43.593 75.1 42.893 74.8 41.993C74.6 40.893 74.7 39.893 75.2 38.993C75.7 38.093 76.5 37.393 77.5 37.093L104.8 29.393C105.9 29.193 106.9 29.293 107.8 29.793C108.7 30.293 109.4 31.093 109.7 32.193C109.9 33.193 109.8 34.093 109.3 35.093C108.8 36.093 108 36.693 107 36.993L79.7 44.693C79.5 44.793 79.4 44.793 79.2 44.793H78.6ZM78.6 68.293C77.8 68.293 77 68.093 76.3 67.593C75.6 67.093 75.1 66.393 74.8 65.493C74.6 64.393 74.7 63.393 75.2 62.493C75.7 61.593 76.5 60.893 77.5 60.593L104.8 52.893C105.9 52.693 106.9 52.793 107.8 53.293C108.7 53.793 109.4 54.593 109.7 55.693C109.9 56.693 109.8 57.593 109.3 58.593C108.8 59.593 108 60.193 107 60.493L79.7 68.193C79.5 68.293 79.4 68.293 79.2 68.293H78.6V68.293ZM78.6 91.693C77.8 91.693 77 91.493 76.3 90.993C75.6 90.493 75.1 89.793 74.8 88.893C74.6 87.793 74.7 86.793 75.2 85.893C75.7 84.993 76.5 84.293 77.5 83.993L104.8 76.293C105.9 76.093 106.9 76.193 107.8 76.693C108.7 77.193 109.4 77.993 109.7 79.093C109.9 80.093 109.8 80.993 109.3 81.993C108.8 82.993 108 83.593 107 83.893L79.7 91.593C79.5 91.693 79.4 91.693 79.2 91.693H78.6V91.693ZM48.4 37.193C49.4 37.493 50.1 38.193 50.7 39.093C51.3 39.993 51.4 40.993 51.1 42.093C50.9 42.993 50.4 43.693 49.6 44.193C48.8 44.693 48.1 44.893 47.3 44.893H46.8C46.6 44.893 46.4 44.893 46.3 44.793L19 37.093C18 36.793 17.3 36.093 16.7 35.193C16.1 34.293 16 33.293 16.3 32.293C16.6 31.193 17.3 30.393 18.2 29.893C19.1 29.393 20.1 29.193 21.2 29.493L48.4 37.193ZM48.4 60.593C49.4 60.893 50.1 61.593 50.7 62.493C51.3 63.393 51.4 64.393 51.1 65.493C50.9 66.393 50.4 67.093 49.6 67.593C48.8 68.093 48.1 68.293 47.3 68.293H46.8C46.6 68.293 46.4 68.293 46.3 68.193L19 60.493C18 60.193 17.3 59.493 16.7 58.593C16.1 57.693 16 56.693 16.3 55.693C16.6 54.593 17.3 53.793 18.2 53.293C19.1 52.793 20.1 52.593 21.2 52.893L48.4 60.593ZM48.4 83.993C49.4 84.293 50.1 84.993 50.7 85.893C51.3 86.793 51.4 87.793 51.1 88.893C50.9 89.793 50.4 90.493 49.6 90.993C48.8 91.493 48.1 91.693 47.3 91.693C47.1 91.693 47 91.693 46.8 91.693C46.6 91.693 46.4 91.693 46.3 91.593L19 83.893C18 83.593 17.3 82.893 16.7 81.993C16.1 81.093 15.9 80.093 16.2 79.093C16.5 77.993 17.2 77.193 18.1 76.693C19 76.193 20 75.993 21.1 76.293L48.4 83.993Z" transform="translate(0.200195)" fill="white"/>
</svg>
