<svg width="127" height="113" viewBox="0 0 127 113" fill="none" xmlns="http://www.w3.org/2000/svg">
<path d="M35.2 7.8C31.5 7.8 28 8.40001 24.9 9.50001C21.8 10.6 18.9 12.5 16.2 15.1C13.5 17.9 11.4 21 10 24.5C8.6 28 7.79999 31.7 7.79999 35.5C7.79999 39.3 8.5 43 10 46.5C11.5 50 13.5 53.1 16.2 55.8C17.2 56.8 19.8 59.6 24.1 64.3C28.4 69 33 74 37.9 79.4C42.8 84.8 47.4 89.9 51.8 94.8C56.2 99.7 58.9 102.7 60.1 104C60.6 104.4 61.1 104.7 61.5 104.8C61.9 104.9 62.3 105 62.7 105C62.9 105 63.3 104.9 63.8 104.8C64.3 104.7 64.8 104.4 65.3 104C70.2 98.6 75.2 93.2 80.4 87.6C85.6 82 90.2 77 94.4 72.5C98.6 68 102 64.2 104.8 61.3C107.6 58.4 109 56.9 109.1 56.8C111.8 54 113.9 50.9 115.3 47.4C116.7 43.9 117.5 40.2 117.5 36.4C117.5 32.6 116.8 28.9 115.3 25.4C113.8 21.9 111.8 18.8 109.1 16.1C106.3 13.3 103.3 11.2 100.2 9.8C97.1 8.4 93.7 7.8 89.9 7.8C87.1 7.8 83.8 8.89999 80 11.2C76.2 13.5 72.2 16.6 68.3 20.6L62.8 26.2L57.2 20.7C51.6 15.2 47 11.6 43.5 10.1C40 8.59999 37.1 7.8 35.2 7.8ZM35.2 1.2207e-05C40 1.2207e-05 44.8 1.49999 49.5 4.59999C54.2 7.69999 58.6 11.2 62.6 15.1C66.4 11.2 70.8 7.69999 75.6 4.59999C80.4 1.49999 85.2 1.2207e-05 89.8 1.2207e-05C94.6 1.2207e-05 99 0.899988 103.1 2.59999C107.2 4.29999 111 6.99999 114.5 10.6C118.1 14.1 120.8 18.1 122.6 22.6C124.4 27.1 125.3 31.7 125.3 36.3C125.3 40.9 124.4 45.5 122.6 50C120.8 54.5 118.1 58.6 114.5 62.1C114.4 62.2 112.1 64.7 107.5 69.6C102.9 74.5 97.9 79.9 92.5 85.8C87.1 91.7 82.1 97.1 77.6 101.9C73.1 106.7 70.8 109.2 70.8 109.2C69.7 110.3 68.4 111.2 67 111.8C65.6 112.4 64.1 112.7 62.7 112.7C61.2 112.7 59.7 112.4 58.3 111.8C56.9 111.2 55.7 110.4 54.5 109.2C54.5 109.2 52.4 106.9 48.2 102.3C44 97.7 39.3 92.5 34.1 86.7C28.9 80.9 23.9 75.5 19.3 70.3C14.7 65.1 11.8 62.1 10.8 61C7.19999 57.4 4.50001 53.4 2.70001 48.9C0.900012 44.4 0 39.8 0 35.2C0 30.6 0.900012 25.9 2.70001 21.5C4.50001 17.1 7.19999 13 10.8 9.40001C14.2 6.00001 18 3.50001 22.1 2.00001C26.1 0.700012 30.5 1.2207e-05 35.2 1.2207e-05Z" transform="translate(0.900391 0.292969)" fill="black"/>
</svg>
