<svg width="126" height="126" viewBox="0 0 126 126" fill="none" xmlns="http://www.w3.org/2000/svg">
<path d="M62.5 1.49012e-09C71.1 1.49012e-09 79.2 1.6 86.9 4.9C94.6 8.2 101.1 12.6 106.8 18.3C112.5 24 116.9 30.6 120.2 38.2C123.5 45.8 125.1 53.9 125.1 62.6C125.1 71.2 123.5 79.3 120.2 87C116.9 94.7 112.5 101.2 106.8 106.9C101.1 112.6 94.5 117 86.9 120.3C79.3 123.6 71.2 125.2 62.5 125.2C53.8 125.2 45.8 123.6 38.1 120.3C30.4 117 23.9 112.6 18.2 106.9C12.5 101.2 8.09999 94.6 4.79999 87C1.49999 79.4 0 71.1 0 62.5C0 53.9 1.59999 45.8 4.89999 38.1C8.19999 30.4 12.6 23.9 18.3 18.2C24 12.5 30.5 8.1 38.1 4.9C45.7 1.7 53.9 1.49012e-09 62.5 1.49012e-09ZM62.5 117.3C70.1 117.3 77.2 115.9 83.8 113C90.4 110.1 96.2 106.2 101.1 101.2C106 96.2 109.9 90.4 112.8 83.8C115.7 77.2 117.1 70.1 117.1 62.5C117.1 54.9 115.7 47.8 112.8 41.2C109.9 34.6 106 28.8 101.1 23.9C96.2 19 90.4 15.1 83.8 12.2C77.2 9.3 70.1 7.9 62.5 7.9C54.9 7.9 47.8 9.3 41.2 12.2C34.6 15.1 28.8 19 23.9 23.9C19 28.8 15.1 34.6 12.2 41.2C9.30001 47.8 7.89999 54.9 7.89999 62.5C7.89999 70.1 9.30001 77.2 12.2 83.8C15.1 90.4 19 96.2 23.9 101.2C28.8 106.2 34.6 110.1 41.2 113C47.8 115.9 54.9 117.3 62.5 117.3ZM87.4 39.6C88.2 38.8 89.1 38.4 90.2 38.4C91.3 38.4 92.2 38.8 93 39.6C93.7 40.3 94.1 41.2 94.1 42.3C94.1 43.4 93.7 44.3 93 45L54.1 84.2C54 84.3 53.9 84.4 53.9 84.4L53.7 84.6C53 85.4 52.1 85.8 51 85.8C49.9 85.8 49 85.4 48.3 84.6L28.9 65.3C28.2 64.6 27.8 63.7 27.8 62.6C27.8 61.5 28.2 60.6 28.9 59.9C29.7 59.1 30.6 58.7 31.7 58.7C32.8 58.7 33.7 59.1 34.5 59.9L51 76.4L87.4 39.6Z" transform="translate(0.400391 0.193359)" fill="white"/>
</svg>
