<svg width="127" height="126" viewBox="0 0 127 126" fill="none" xmlns="http://www.w3.org/2000/svg">
<path d="M124.215 62.5C124.915 63.3 125.315 64.2 125.215 65.3C125.115 66.4 124.815 67.3 124.015 68.1C123.615 68.4 123.215 68.7 122.715 68.9C122.215 69.1 121.815 69.2 121.315 69.2C120.715 69.2 120.215 69.1 119.715 68.9C119.215 68.7 118.815 68.4 118.515 68L113.315 62.5V121C113.315 122.1 112.915 123 112.115 123.7C111.315 124.4 110.415 124.9 109.415 124.9H82.1152C81.0152 124.9 80.1152 124.5 79.4152 123.7C78.7152 122.9 78.2152 122 78.2152 121V81.9H47.1152L47.0152 121C47.0152 122.1 46.6152 123 45.8152 123.7C45.0152 124.4 44.1152 124.9 43.1152 124.9H15.9152C14.8152 124.9 13.8152 124.5 13.1152 123.7C12.4152 122.9 12.0152 122 12.0152 121V62.5L6.81522 68C6.01522 68.7 5.1152 69.1 4.0152 69.2C2.9152 69.3 2.01521 68.9 1.21521 68.2C0.515212 67.4 0.1152 66.5 0.0152001 65.4C-0.0847999 64.3 0.3152 63.4 1.0152 62.6L60.0152 1.19999C60.4152 0.799994 60.9152 0.5 61.3152 0.3C61.7152 0.1 62.3152 1.2207e-05 62.8152 1.2207e-05C63.4152 1.2207e-05 63.9152 0.1 64.4152 0.3C64.9152 0.5 65.3152 0.799994 65.6152 1.19999L124.215 62.5ZM105.615 54.9C105.615 54.7 105.615 54.6 105.715 54.4L62.7152 9.50001L19.6152 54.4C19.6152 54.6 19.6152 54.7 19.7152 54.9C19.8152 55.1 19.8152 55.2 19.8152 55.4V117H39.2152L39.3152 77.9C39.3152 76.8 39.7152 75.9 40.5152 75.2C41.3152 74.5 42.2152 74 43.2152 74H82.1152C83.2152 74 84.1152 74.4 84.8152 75.2C85.5152 76 86.0152 76.9 86.0152 77.9V117H105.515V54.9H105.615Z" transform="translate(0.785156 0.292969)" fill="black"/>
</svg>
