<svg width="126" height="126" viewBox="0 0 126 126" fill="none" xmlns="http://www.w3.org/2000/svg">
<path d="M117.3 11.7C119.5 11.7 121.3 12.5 122.9 14C124.5 15.5 125.2 17.4 125.2 19.6V117.3C125.2 119.4 124.4 121.2 122.9 122.8C121.4 124.4 119.5 125.1 117.3 125.1H7.90005C5.70005 125.1 3.89995 124.3 2.29995 122.8C0.699951 121.3 2.44141e-05 119.4 2.44141e-05 117.3V19.5C2.44141e-05 17.3 0.799951 15.5 2.29995 13.9C3.79995 12.3 5.70005 11.6 7.90005 11.6H39.1V3.9C39.1 2.8 39.4999 1.9 40.2999 1.2C41.0999 0.5 42 1.49012e-09 43 1.49012e-09C44 1.49012e-09 45 0.4 45.7 1.2C46.4 2 46.9 2.9 46.9 3.9V11.7H78.1V3.9C78.1 2.8 78.4999 1.9 79.2999 1.2C80.0999 0.5 81 1.49012e-09 82 1.49012e-09C83 1.49012e-09 84 0.4 84.7 1.2C85.4 2 85.9 2.9 85.9 3.9V11.7H117.3ZM117.3 117.2V19.5H86.1V23.4C86.1 24.5 85.7 25.4 84.9 26.1C84.1 26.8 83.2 27.3 82.2 27.3C81.2 27.3 80.2 26.9 79.5 26.1C78.8 25.3 78.2999 24.4 78.2999 23.4V19.5H47.1V23.4C47.1 24.5 46.7 25.4 45.9 26.1C45.1 26.8 44.2 27.3 43.2 27.3C42.2 27.3 41.2 26.9 40.5 26.1C39.8 25.3 39.2999 24.4 39.2999 23.4V19.5H8.1V117.2H117.3V117.2ZM89.9 62.5C88.8 62.5 87.9 62.1 87.2 61.3C86.5 60.5 86 59.6 86 58.6V50.8C86 49.7 86.4 48.8 87.2 48.1C88 47.4 88.9 46.9 89.9 46.9H97.7C98.8 46.9 99.7 47.3 100.4 48.1C101.1 48.9 101.6 49.8 101.6 50.8V58.6C101.6 59.7 101.2 60.6 100.4 61.3C99.6 62 98.7 62.5 97.7 62.5H89.9ZM89.9 93.7C88.8 93.7 87.9 93.3 87.2 92.5C86.5 91.7 86 90.8 86 89.8V82C86 80.9 86.4 80 87.2 79.3C88 78.6 88.9 78.1 89.9 78.1H97.7C98.8 78.1 99.7 78.5 100.4 79.3C101.1 80.1 101.6 81 101.6 82V89.8C101.6 90.9 101.2 91.8 100.4 92.5C99.6 93.2 98.7 93.7 97.7 93.7H89.9ZM66.5 78.1C67.6 78.1 68.5 78.5 69.2 79.3C69.9 80.1 70.4 81 70.4 82V89.8C70.4 90.9 70 91.8 69.2 92.5C68.4 93.2 67.5 93.7 66.5 93.7H58.7C57.6 93.7 56.7 93.3 56 92.5C55.3 91.7 54.7999 90.8 54.7999 89.8V82C54.7999 80.9 55.2 80 56 79.3C56.8 78.6 57.7 78.1 58.7 78.1H66.5ZM66.5 46.8C67.6 46.8 68.5 47.2 69.2 48C69.9 48.8 70.4 49.7 70.4 50.7V58.5C70.4 59.6 70 60.5 69.2 61.2C68.4 61.9 67.5 62.4 66.5 62.4H58.7C57.6 62.4 56.7 62 56 61.2C55.3 60.4 54.7999 59.5 54.7999 58.5V50.7C54.7999 49.6 55.2 48.7 56 48C56.8 47.3 57.7 46.8 58.7 46.8H66.5ZM35.2999 46.8C36.3999 46.8 37.3 47.2 38 48C38.7 48.8 39.2 49.7 39.2 50.7V58.5C39.2 59.6 38.8 60.5 38 61.2C37.2 61.9 36.2999 62.4 35.2999 62.4H27.5C26.4 62.4 25.5 62 24.8 61.2C24.1 60.4 23.6 59.5 23.6 58.5V50.7C23.6 49.6 24 48.7 24.8 48C25.6 47.3 26.5 46.8 27.5 46.8H35.2999ZM35.2999 78.1C36.3999 78.1 37.3 78.5 38 79.3C38.7 80.1 39.2 81 39.2 82V89.8C39.2 90.9 38.8 91.8 38 92.5C37.2 93.2 36.2999 93.7 35.2999 93.7H27.5C26.4 93.7 25.5 93.3 24.8 92.5C24.1 91.7 23.6 90.8 23.6 89.8V82C23.6 80.9 24 80 24.8 79.3C25.6 78.6 26.5 78.1 27.5 78.1H35.2999Z" transform="translate(0.299805 0.193359)" fill="white"/>
</svg>
