<svg width="125" height="121" viewBox="0 0 125 121" fill="none" xmlns="http://www.w3.org/2000/svg">
<path d="M124.239 25.425C124.339 26.025 124.239 26.625 124.039 27.225C123.839 27.825 123.439 28.325 122.939 28.725L102.839 45.525L120.039 59.225C120.539 59.525 120.939 60.025 121.139 60.525C121.339 61.025 121.539 61.725 121.539 62.325C121.539 63.025 121.339 63.525 121.039 64.125C120.739 64.725 120.339 65.125 119.839 65.425L104.739 75.525V94.725C104.739 95.425 104.539 96.025 104.239 96.525C103.939 97.025 103.439 97.625 102.939 98.025L64.1393 120.225C63.8393 120.425 63.4393 120.625 63.1393 120.725C62.8393 120.825 62.4393 120.825 62.1393 120.825C61.8393 120.825 61.4393 120.825 61.1393 120.725C60.8393 120.625 60.4393 120.525 60.1393 120.225L20.8392 98.025C20.2392 97.625 19.8392 97.125 19.5392 96.525C19.2392 95.925 19.0392 95.325 19.0392 94.725V79.025C19.0392 78.425 19.1392 77.925 19.4392 77.425C19.7392 76.925 20.0392 76.525 20.4392 76.225L4.43921 65.525C3.83921 65.225 3.43928 64.725 3.13928 64.225C2.83928 63.725 2.63928 63.125 2.63928 62.425C2.63928 61.725 2.73918 61.125 3.03918 60.625C3.33918 60.125 3.73925 59.625 4.23925 59.325L21.4392 45.625L1.33923 28.825C0.839231 28.425 0.439255 27.925 0.239255 27.325C0.0392549 26.725 -0.0608183 26.125 0.0391817 25.525C0.0391817 24.825 0.239182 24.325 0.539182 23.725C0.839182 23.125 1.33923 22.725 1.83923 22.425L36.6393 0.725C37.3393 0.225 38.0392 0.025 38.9392 0.125C39.8392 0.225 40.5393 0.525 41.2393 1.025L62.4392 18.225L83.0392 0.925C83.7392 0.425 84.4392 0.125 85.3392 0.0249999C86.2392 -0.0750001 86.9393 0.125 87.6393 0.625L122.439 22.325C123.039 22.625 123.439 23.125 123.739 23.625C124.039 24.125 124.239 24.825 124.239 25.425ZM89.3392 45.725L61.8392 27.825L34.3392 45.725L61.8392 62.825L89.3392 45.725ZM9.93921 26.225L27.4392 40.825L55.2393 22.725L37.7393 8.725L9.93921 26.225ZM27.4392 50.525L12.8392 62.125L39.4392 79.825L55.0392 67.825L27.4392 50.525ZM26.4392 80.525V92.625L57.6393 110.125V75.625L41.9392 87.725C41.2392 88.225 40.4393 88.425 39.6393 88.425C38.8393 88.425 38.0392 88.225 37.3392 87.825L26.4392 80.525ZM96.7393 92.625V80.725L86.2393 87.825C85.9393 88.025 85.5393 88.125 85.2393 88.225C84.9393 88.325 84.4392 88.425 84.0392 88.425C83.6392 88.425 83.2392 88.325 82.8392 88.225C82.4392 88.125 82.0393 87.925 81.7393 87.725L65.5392 75.225V110.225L96.7393 92.625ZM110.839 61.925L96.3392 50.425L68.7393 67.725L84.2393 79.725L110.839 61.925ZM96.2393 40.825L113.739 26.225L85.9392 8.725L68.4392 22.725L96.2393 40.825Z" transform="translate(0.0605469 0.167969)" fill="white"/>
</svg>
