<svg width="94" height="126" viewBox="0 0 94 126" fill="none" xmlns="http://www.w3.org/2000/svg">
<path d="M47.4 1.49012e-09C54.7 1.49012e-09 61.3 1.3 67.1 3.8C72.9 6.3 77.7 9.8 81.7 14.1C85.7 18.4 88.7 23.5 90.7 29.3C92.8 35.1 93.8 41.2 93.8 47.6C93.8 54.1 92.5 60.8 90 67.6C87.5 74.4 84.2 81.1 80.3 87.6C76.4 94.1 72.2 100.4 67.6 106.2C63 112 58.8 117.3 54.8 121.8C54.8 121.9 54.2 122.4 53 123.4C51.8 124.4 50.4 124.9 48.7 124.9H48.3C46.6 124.9 45.1 124.4 44 123.4C42.9 122.4 42.2 121.8 42.2 121.8C38 116.9 33.4 111.6 28.5 105.8C23.6 100 18.9 93.9 14.7 87.6C10.5 81.3 7 74.6 4.2 67.9C1.4 61.2 3.8147e-07 54.3 3.8147e-07 47.6C3.8147e-07 41.2 1.3 35.1 3.8 29.3C6.3 23.5 9.7 18.5 14.1 14.1C18.5 9.7 23.4 6.3 29.1 3.8C34.8 1.3 41 1.49012e-09 47.4 1.49012e-09ZM48.9 116.5C55.1 109.4 60.5 102.7 65.1 96.2C69.7 89.7 73.6 83.7 76.7 78C79.8 72.3 82.1 66.9 83.7 61.8C85.3 56.7 86 52 86 47.6C86 42.6 85.2 37.8 83.7 33C82.2 28.2 79.9 24 76.7 20.2C73.5 16.4 69.5 13.4 64.7 11.2C59.9 9 54.1 7.8 47.4 7.8C42 7.8 36.9 8.9 32.1 11C27.3 13.1 23.1 16 19.5 19.6C15.9 23.2 13.1 27.5 11 32.3C8.9 37.1 7.8 42.2 7.8 47.6C7.8 53.4 9 59.2 11.5 65.2C14 71.2 17 77 20.8 82.7C24.6 88.4 28.6 93.9 33.1 99.3C37.6 104.7 41.8 109.6 45.8 114.3L47.9 116.6L48.4 117.1C48.5 117 48.6 116.9 48.7 116.9C48.8 116.9 48.9 116.6 48.9 116.5ZM47 23.5C53.5 23.5 59 25.8 63.6 30.4C68.2 35 70.4 40.5 70.4 46.9C70.4 53.4 68.1 58.9 63.6 63.5C59.1 68.1 53.5 70.3 47 70.3C40.6 70.3 35.1 68 30.5 63.5C25.9 59 23.6 53.4 23.6 46.9C23.6 40.5 25.9 35 30.5 30.4C35.1 25.8 40.6 23.5 47 23.5ZM47 62.6C51.3 62.6 55 61.1 58 58C61 54.9 62.5 51.2 62.5 46.9C62.5 42.6 61 38.9 57.9 35.9C54.8 32.9 51.2 31.3 46.9 31.3C42.6 31.3 38.9 32.8 35.9 35.9C32.9 39 31.3 42.6 31.3 46.9C31.3 51.2 32.8 54.9 35.9 58C39 61.1 42.7 62.6 47 62.6Z" transform="translate(0 0.193359)" fill="white"/>
</svg>
