<svg width="1920" height="1080" viewBox="0 0 1920 1080" fill="none" xmlns="http://www.w3.org/2000/svg">
<rect width="1920" height="1080" fill="white"/>
<path d="M5.82 31H12.18L17.73 10.06H12.96L10.47 20.71L9.21 26.74H8.97L7.74 20.71L5.28 10.06H0.27L5.82 31ZM26.9883 31.36C31.8183 31.36 34.7583 28.27 34.7583 23.26C34.7583 18.25 31.8183 15.16 26.9883 15.16C22.1583 15.16 19.2183 18.25 19.2183 23.26C19.2183 28.27 22.1583 31.36 26.9883 31.36ZM26.9883 28.06C25.0083 28.06 23.8083 26.77 23.8083 24.49V22.03C23.8083 19.75 25.0083 18.46 26.9883 18.46C28.9683 18.46 30.1683 19.75 30.1683 22.03V24.49C30.1683 26.77 28.9683 28.06 26.9883 28.06ZM38.1966 27.55V31H51.3066V27.55H46.2066V22.21C46.2066 20.47 47.5566 19.6 49.5366 19.6H52.8366V15.52H51.3666C48.5466 15.52 47.0766 17.5 46.4166 19.54H46.2066V15.52H38.1966V18.97H41.7666V27.55H38.1966ZM65.7548 28.18V31H70.1948V8.8H65.7548V18.34H65.5448C64.7648 16.48 63.4448 15.16 60.9548 15.16C57.5348 15.16 55.1348 17.65 55.1348 23.26C55.1348 28.87 57.5348 31.36 60.9548 31.36C63.4448 31.36 64.7648 30.04 65.5448 28.18H65.7548ZM62.8748 27.91C60.8948 27.91 59.7548 26.62 59.7548 24.46V22.06C59.7548 19.9 60.8948 18.61 62.8748 18.61C64.4348 18.61 65.7548 19.36 65.7548 20.98V25.54C65.7548 27.16 64.4348 27.91 62.8748 27.91ZM81.3731 31.36C84.7031 31.36 86.8031 30.1 88.0031 28.63L85.6031 26.02C84.6431 27.16 83.3531 27.94 81.5231 27.94C79.1531 27.94 77.8631 26.59 77.8631 24.61V24.34H88.4531V23.02C88.4531 18.19 85.6031 15.16 80.9831 15.16C76.3331 15.16 73.4531 18.25 73.4531 23.32C73.4531 28.27 76.1831 31.36 81.3731 31.36ZM81.0131 18.34C82.9331 18.34 84.1031 19.6 84.1031 21.61V21.85H77.8631V21.61C77.8631 19.63 79.0931 18.34 81.0131 18.34ZM92.1614 27.55V31H105.271V27.55H100.171V22.21C100.171 20.47 101.521 19.6 103.501 19.6H106.801V15.52H105.331C102.511 15.52 101.041 17.5 100.381 19.54H100.171V15.52H92.1614V18.97H95.7314V27.55H92.1614ZM116.75 31.36C121.34 31.36 123.95 29.32 123.95 26.11C123.95 23.17 121.76 22 118.97 21.58L116.51 21.19C115.31 21.01 114.59 20.74 114.59 19.84C114.59 18.82 115.49 18.28 117.17 18.28C119.18 18.28 120.65 19.06 121.55 20.05L123.77 17.53C122.48 16.03 120.35 15.16 117.32 15.16C112.85 15.16 110.24 17.11 110.24 20.35C110.24 23.29 112.43 24.46 115.19 24.88L117.68 25.27C118.88 25.45 119.6 25.72 119.6 26.59C119.6 27.7 118.52 28.24 116.78 28.24C114.71 28.24 113.09 27.46 111.89 26.14L109.4 28.45C110.66 30.25 113.33 31.36 116.75 31.36ZM135.338 31.36C138.668 31.36 140.768 30.1 141.968 28.63L139.568 26.02C138.608 27.16 137.318 27.94 135.488 27.94C133.118 27.94 131.828 26.59 131.828 24.61V24.34H142.418V23.02C142.418 18.19 139.568 15.16 134.948 15.16C130.298 15.16 127.418 18.25 127.418 23.32C127.418 28.27 130.148 31.36 135.338 31.36ZM134.978 18.34C136.898 18.34 138.068 19.6 138.068 21.61V21.85H131.828V21.61C131.828 19.63 133.058 18.34 134.978 18.34ZM153.866 13.54C155.846 13.54 156.536 12.61 156.536 11.44V10.57C156.536 9.37 155.846 8.47 153.866 8.47C151.886 8.47 151.196 9.37 151.196 10.57V11.44C151.196 12.61 151.886 13.54 153.866 13.54ZM146.726 27.55V31H160.646V27.55H156.086V15.52H146.726V18.97H151.646V27.55H146.726ZM172.095 31H177.825V27.55H171.795V18.97H177.825V15.52H171.795V10.06H167.715V13.69C167.715 15.07 167.205 15.52 165.885 15.52H163.155V18.97H167.355V26.53C167.355 29.14 168.885 31 172.095 31ZM189.303 31.36C192.633 31.36 194.733 30.1 195.933 28.63L193.533 26.02C192.573 27.16 191.283 27.94 189.453 27.94C187.083 27.94 185.793 26.59 185.793 24.61V24.34H196.383V23.02C196.383 18.19 193.533 15.16 188.913 15.16C184.263 15.16 181.383 18.25 181.383 23.32C181.383 28.27 184.113 31.36 189.303 31.36ZM188.943 18.34C190.863 18.34 192.033 19.6 192.033 21.61V21.85H185.793V21.61C185.793 19.63 187.023 18.34 188.943 18.34Z" transform="translate(234 839)" fill="black"/>
<path d="M6.72 31V23.23H8.79L12.3 31H17.22L13.11 22.63C15.45 21.97 16.8 19.66 16.8 16.72C16.8 12.67 14.49 10.06 10.38 10.06H2.28V31H6.72ZM9.3 19.75H6.72V13.69H9.3C11.4 13.69 12.12 14.44 12.12 16.27V17.17C12.12 19 11.4 19.75 9.3 19.75ZM23.6283 13.27C25.4283 13.27 26.0583 12.43 26.0583 11.38V10.6C26.0583 9.55 25.4283 8.74 23.6283 8.74C21.8583 8.74 21.2283 9.55 21.2283 10.6V11.38C21.2283 12.43 21.8583 13.27 23.6283 13.27ZM30.2283 13.27C31.9983 13.27 32.6283 12.43 32.6283 11.38V10.6C32.6283 9.55 31.9983 8.74 30.2283 8.74C28.4283 8.74 27.7983 9.55 27.7983 10.6V11.38C27.7983 12.43 28.4283 13.27 30.2283 13.27ZM29.5983 28.18V31H34.0383V15.52H29.5983V25.69C29.5983 27.19 28.2483 27.94 26.8683 27.94C25.1283 27.94 24.2583 26.89 24.2583 24.94V15.52H19.8183V25.54C19.8183 29.29 21.8883 31.36 24.8583 31.36C27.3483 31.36 28.7283 29.92 29.4183 28.18H29.5983ZM45.6066 31.36C49.0566 31.36 51.1566 29.83 52.2666 27.58L48.9066 25.66C48.2466 26.92 47.3466 27.82 45.6366 27.82C43.5366 27.82 42.3966 26.56 42.3966 24.52V22C42.3966 19.96 43.5666 18.7 45.5766 18.7C47.2266 18.7 48.0666 19.6 48.6066 20.8L52.0266 18.94C50.9466 16.69 48.9666 15.16 45.5766 15.16C40.7466 15.16 37.7766 18.25 37.7766 23.26C37.7766 28.27 40.7166 31.36 45.6066 31.36ZM55.9148 8.8V31H60.3548V25.63L61.8248 24.16L66.3248 31H71.6048L64.9748 21.64L70.9748 15.52H65.8748L62.6348 18.97L60.5648 21.4H60.3548V8.8H55.9148ZM80.7731 31.36C85.3631 31.36 87.9731 29.32 87.9731 26.11C87.9731 23.17 85.7831 22 82.9931 21.58L80.5331 21.19C79.3331 21.01 78.6131 20.74 78.6131 19.84C78.6131 18.82 79.5131 18.28 81.1931 18.28C83.2031 18.28 84.6731 19.06 85.5731 20.05L87.7931 17.53C86.5031 16.03 84.3731 15.16 81.3431 15.16C76.8731 15.16 74.2631 17.11 74.2631 20.35C74.2631 23.29 76.4531 24.46 79.2131 24.88L81.7031 25.27C82.9031 25.45 83.6231 25.72 83.6231 26.59C83.6231 27.7 82.5431 28.24 80.8031 28.24C78.7331 28.24 77.1131 27.46 75.9131 26.14L73.4231 28.45C74.6831 30.25 77.3531 31.36 80.7731 31.36ZM99.3614 31.36C102.691 31.36 104.791 30.1 105.991 28.63L103.591 26.02C102.631 27.16 101.341 27.94 99.5114 27.94C97.1414 27.94 95.8514 26.59 95.8514 24.61V24.34H106.441V23.02C106.441 18.19 103.591 15.16 98.9714 15.16C94.3214 15.16 91.4414 18.25 91.4414 23.32C91.4414 28.27 94.1714 31.36 99.3614 31.36ZM99.0014 18.34C100.921 18.34 102.091 19.6 102.091 21.61V21.85H95.8514V21.61C95.8514 19.63 97.0814 18.34 99.0014 18.34ZM117.89 13.54C119.87 13.54 120.56 12.61 120.56 11.44V10.57C120.56 9.37 119.87 8.47 117.89 8.47C115.91 8.47 115.22 9.37 115.22 10.57V11.44C115.22 12.61 115.91 13.54 117.89 13.54ZM110.75 27.55V31H124.67V27.55H120.11V15.52H110.75V18.97H115.67V27.55H110.75ZM136.118 31H141.848V27.55H135.818V18.97H141.848V15.52H135.818V10.06H131.738V13.69C131.738 15.07 131.228 15.52 129.908 15.52H127.178V18.97H131.378V26.53C131.378 29.14 132.908 31 136.118 31ZM153.326 31.36C156.656 31.36 158.756 30.1 159.956 28.63L157.556 26.02C156.596 27.16 155.306 27.94 153.476 27.94C151.106 27.94 149.816 26.59 149.816 24.61V24.34H160.406V23.02C160.406 18.19 157.556 15.16 152.936 15.16C148.286 15.16 145.406 18.25 145.406 23.32C145.406 28.27 148.136 31.36 153.326 31.36ZM152.966 18.34C154.886 18.34 156.056 19.6 156.056 21.61V21.85H149.816V21.61C149.816 19.63 151.046 18.34 152.966 18.34Z" transform="translate(1321 839)" fill="black"/>
<path fill-rule="evenodd" clip-rule="evenodd" d="M0 0.16C0 0.103995 0 0.0759921 0.0108993 0.0546009C0.0204867 0.0357847 0.0357847 0.0204867 0.0546009 0.0108993C0.0759921 0 0.103995 0 0.16 0H426.84C426.896 0 426.924 0 426.945 0.0108993C426.964 0.0204867 426.98 0.0357847 426.989 0.0546009C427 0.0759921 427 0.103995 427 0.16V425.84C427 425.896 427 425.924 426.989 425.945C426.98 425.964 426.964 425.98 426.945 425.989C426.924 426 426.896 426 426.84 426H0.16C0.103995 426 0.0759921 426 0.0546009 425.989C0.0357847 425.98 0.0204867 425.964 0.0108993 425.945C0 425.924 0 425.896 0 425.84V0.16Z" transform="translate(144 361)" stroke="black" stroke-width="4"/>
<path fill-rule="evenodd" clip-rule="evenodd" d="M0.311255 107C0.214047 107 0.173993 106.875 0.253012 106.819L149.333 0H575.689C575.786 0 575.826 0.124669 575.747 0.181287L426.667 107H0.311255Z" transform="translate(144 254)" stroke="black" stroke-width="4"/>
<path fill-rule="evenodd" clip-rule="evenodd" d="M0 532.805C0 532.887 0.0921746 532.934 0.158335 532.886L148.789 426.138V0.194606C148.789 0.113214 148.697 0.065915 148.631 0.113303L0 106.548V532.805Z" transform="translate(571 254)" stroke="black" stroke-width="4"/>
<path fill-rule="evenodd" clip-rule="evenodd" d="M0 0.16C0 0.103995 0 0.0759921 0.0108993 0.0546009C0.0204867 0.0357847 0.0357847 0.0204867 0.0546009 0.0108993C0.0759921 0 0.103995 0 0.16 0H426.84C426.896 0 426.924 0 426.945 0.0108993C426.964 0.0204867 426.98 0.0357847 426.989 0.0546009C427 0.0759921 427 0.103995 427 0.16V425.84C427 425.896 427 425.924 426.989 425.945C426.98 425.964 426.964 425.98 426.945 425.989C426.924 426 426.896 426 426.84 426H0.16C0.103995 426 0.0759921 426 0.0546009 425.989C0.0357847 425.98 0.0204867 425.964 0.0108993 425.945C0 425.924 0 425.896 0 425.84V0.16Z" transform="translate(1195 361)" stroke="black" stroke-width="4"/>
<path fill-rule="evenodd" clip-rule="evenodd" d="M0.311255 107C0.214047 107 0.173993 106.875 0.253012 106.819L149.333 0H575.689C575.786 0 575.826 0.124669 575.747 0.181287L426.667 107H0.311255Z" transform="translate(1195 254)" stroke="black" stroke-width="4"/>
<path fill-rule="evenodd" clip-rule="evenodd" d="M0 532.805C0 532.887 0.0921746 532.934 0.158335 532.886L148.789 426.138V0.194606C148.789 0.113214 148.697 0.065915 148.631 0.113303L0 106.548V532.805Z" transform="translate(1622 254)" stroke="black" stroke-width="4"/>
<path fill-rule="evenodd" clip-rule="evenodd" d="M120.853 98.1958C120.853 98.1958 140.559 88.1652 158.089 61.3926C175.619 34.62 183.044 0 183.044 0L34.1602 0.742188L0 98.1958H120.853Z" transform="translate(1308.59 531)" stroke="black" stroke-width="4"/>
<path fill-rule="evenodd" clip-rule="evenodd" d="M62.1752 0C62.1752 0 39.0277 3.8872 18.3705 36.5078C-2.28657 69.1284 0.284608 97.7344 0.284608 97.7344H149.3C149.3 97.7344 135.892 61.3316 149.3 36.5078C162.708 11.6841 202.089 0 202.089 0H62.1752Z" transform="translate(1278.22 531.461)" fill="white" stroke="black" stroke-width="4"/>
<path d="M0 1H118.5" transform="translate(646.83 268.49) rotate(-30)" stroke="#C5C4C0" stroke-width="7" stroke-linecap="square"/>
<path d="M0 22.9692H23.7688V0" transform="translate(671.742 255.541) rotate(105)" stroke="#C5C4C0" stroke-width="7" stroke-linecap="square"/>
<path d="M0 1H118.5" transform="translate(646.83 337.49) rotate(-30)" stroke="#C5C4C0" stroke-width="7" stroke-linecap="square"/>
<path d="M0 22.9692H23.7688V0" transform="translate(671.742 324.541) rotate(105)" stroke="#C5C4C0" stroke-width="7" stroke-linecap="square"/>
<path d="M0 1H118.5" transform="translate(646.83 412.49) rotate(-30)" stroke="#C5C4C0" stroke-width="7" stroke-linecap="square"/>
<path d="M0 22.9692H23.7688V0" transform="translate(671.742 399.541) rotate(105)" stroke="#C5C4C0" stroke-width="7" stroke-linecap="square"/>
<path d="M0 1H118.5" transform="translate(646.83 479.49) rotate(-30)" stroke="#C5C4C0" stroke-width="7" stroke-linecap="square"/>
<path d="M0 22.9692H23.7688V0" transform="translate(671.742 466.541) rotate(105)" stroke="#C5C4C0" stroke-width="7" stroke-linecap="square"/>
<path d="M0 1H118.5" transform="translate(646.83 553.49) rotate(-30)" stroke="#C5C4C0" stroke-width="7" stroke-linecap="square"/>
<path d="M0 22.9692H23.7688V0" transform="translate(671.742 540.541) rotate(105)" stroke="#C5C4C0" stroke-width="7" stroke-linecap="square"/>
<path d="M0 1H118.5" transform="translate(646.83 621.49) rotate(-30)" stroke="#C5C4C0" stroke-width="7" stroke-linecap="square"/>
<path d="M0 22.9692H23.7688V0" transform="translate(671.742 608.541) rotate(105)" stroke="#C5C4C0" stroke-width="7" stroke-linecap="square"/>
<path d="M0 1H175.628" transform="translate(1315.56 667.954) rotate(150)" stroke="#C5C4C0" stroke-width="7" stroke-linecap="square"/>
<path d="M0 22.9692H23.7688V0" transform="translate(1290.65 680.904) rotate(-75)" stroke="#C5C4C0" stroke-width="7" stroke-linecap="square"/>
<path d="M0 1H78.5" transform="translate(352 619) rotate(90)" stroke="#C5C4C0" stroke-width="7" stroke-linecap="square"/>
<path d="M0 22.9692H23.7688V0" transform="translate(350.758 647.049) rotate(-135)" stroke="#C5C4C0" stroke-width="7" stroke-linecap="square"/>
<path d="M0 1H78.5" transform="translate(439 283) rotate(-90)" stroke="#C5C4C0" stroke-width="7" stroke-linecap="square"/>
<path d="M0 22.9692H23.7688V0" transform="translate(440.242 254.951) rotate(45)" stroke="#C5C4C0" stroke-width="7" stroke-linecap="square"/>
<path d="M9 31.36C14.1 31.36 16.32 27.37 16.32 20.53C16.32 13.69 14.1 9.7 9 9.7C3.9 9.7 1.68 13.69 1.68 20.53C1.68 27.37 3.9 31.36 9 31.36ZM9 29.17C5.67 29.17 4.35 26.44 4.35 22.24V18.82C4.35 14.62 5.67 11.89 9 11.89C12.33 11.89 13.65 14.62 13.65 18.82V22.24C13.65 26.44 12.33 29.17 9 29.17ZM21.5883 31H34.0383V28.81H24.1083V10.06H21.5883V31ZM38.6766 31H51.5766V28.81H41.1966V21.49H51.2166V19.3H41.1966V12.25H51.5766V10.06H38.6766V31ZM56.8148 10.06V31H62.6648C67.7648 31 70.2848 27.4 70.2848 20.53C70.2848 13.66 67.7648 10.06 62.6648 10.06H56.8148ZM62.5448 28.81H59.3348V12.25H62.5448C65.8748 12.25 67.6148 14.71 67.6148 18.91V22.15C67.6148 26.35 65.8748 28.81 62.5448 28.81ZM76.6031 23.14H85.3031V20.62H76.6031V23.14ZM92.7914 10.06V31H98.6414C103.741 31 106.261 27.4 106.261 20.53C106.261 13.66 103.741 10.06 98.6414 10.06H92.7914ZM98.5214 28.81H95.3114V12.25H98.5214C101.851 12.25 103.591 14.71 103.591 18.91V22.15C103.591 26.35 101.851 28.81 98.5214 28.81ZM117.89 12.1C119.27 12.1 119.78 11.44 119.78 10.57V10.09C119.78 9.22 119.27 8.56 117.89 8.56C116.51 8.56 116 9.22 116 10.09V10.57C116 11.44 116.51 12.1 117.89 12.1ZM111.11 28.96V31H124.31V28.96H119.09V15.52H111.11V17.56H116.69V28.96H111.11ZM135.098 31.36C139.058 31.36 141.638 29.59 141.638 26.53C141.638 23.17 138.548 22.57 136.328 22.24L133.898 21.88C132.518 21.67 131.168 21.25 131.168 19.63C131.168 18.04 132.518 17.17 134.948 17.17C137.678 17.17 139.058 18.25 139.778 19.12L141.338 17.65C139.868 16.09 137.828 15.16 135.038 15.16C131.438 15.16 128.798 16.69 128.798 19.78C128.798 23.14 131.918 23.74 134.108 24.07L136.538 24.43C137.948 24.64 139.268 25.06 139.268 26.68C139.268 28.51 137.558 29.35 135.158 29.35C132.698 29.35 131.018 28.48 129.548 26.92L127.928 28.33C129.548 30.16 131.858 31.36 135.098 31.36ZM146.756 15.52V37H149.156V28.48H149.276C150.266 30.37 151.886 31.36 154.046 31.36C157.826 31.36 160.106 28.33 160.106 23.26C160.106 18.19 157.826 15.16 154.046 15.16C151.886 15.16 150.266 16.15 149.276 18.04H149.156V15.52H146.756ZM153.116 29.23C150.986 29.23 149.156 28.12 149.156 26.05V20.47C149.156 18.4 150.986 17.29 153.116 17.29C155.906 17.29 157.526 19.15 157.526 21.94V24.58C157.526 27.37 155.906 29.23 153.116 29.23ZM164.295 28.96V31H177.495V28.96H172.095V8.8H164.295V10.84H169.695V28.96H164.295ZM194.733 31H196.383V28.9H194.223V20.38C194.223 17.11 191.913 15.16 188.283 15.16C185.133 15.16 183.153 16.66 182.373 18.28L183.993 19.48C184.803 18.07 186.063 17.2 188.133 17.2C190.473 17.2 191.823 18.37 191.823 20.62V22.15H188.523C183.873 22.15 181.863 23.8 181.863 26.65C181.863 29.56 183.933 31.36 187.173 31.36C189.693 31.36 191.163 30.25 191.823 28.48H191.973C192.153 29.92 192.873 31 194.733 31ZM187.593 29.35C185.613 29.35 184.383 28.51 184.383 26.92V26.29C184.383 24.79 185.673 23.95 188.523 23.95H191.823V26.5C191.823 28.09 190.053 29.35 187.593 29.35ZM211.881 15.52L209.271 22L206.961 27.88H206.841L204.531 22L201.921 15.52H199.461L205.701 30.7L203.961 34.96H200.361V37H202.641C204.981 37 205.881 36.16 206.601 34.39L214.281 15.52H211.881Z" transform="translate(242 717)" fill="black"/>
<path d="M2.64 10.06V31H10.65C13.89 31 16.29 28.36 16.29 24.97C16.29 22.06 14.58 20.59 12.24 20.05V19.96C14.16 19.36 15.51 17.95 15.51 15.46C15.51 12.19 13.32 10.06 9.75 10.06H2.64ZM9.9 28.81H5.16V21.22H9.9C12.21 21.22 13.62 22.3 13.62 24.4V25.63C13.62 27.76 12.21 28.81 9.9 28.81ZM9.48 19.15H5.16V12.25H9.48C11.58 12.25 12.87 13.21 12.87 15.13V16.3C12.87 18.22 11.58 19.15 9.48 19.15ZM20.3883 28.96V31H33.5883V28.96H28.1883V8.8H20.3883V10.84H25.7883V28.96H20.3883ZM48.6366 28.48V31H51.0366V15.52H48.6366V26.26C48.6366 28.3 46.7166 29.23 44.7966 29.23C42.4266 29.23 41.1366 27.85 41.1366 25.03V15.52H38.7366V25.45C38.7366 29.2 40.8666 31.36 44.1066 31.36C46.6566 31.36 47.8566 30.01 48.5166 28.48H48.6366ZM63.2348 31.36C66.2948 31.36 68.5148 29.86 69.4448 27.79L67.6748 26.59C66.8648 28.27 65.3048 29.29 63.2348 29.29C60.3248 29.29 58.4948 27.31 58.4948 24.58V23.86H69.9548V22.72C69.9548 18.34 67.2548 15.16 63.0848 15.16C58.8848 15.16 55.9748 18.34 55.9748 23.29C55.9748 28.18 58.7948 31.36 63.2348 31.36ZM63.0848 17.14C65.6348 17.14 67.3748 19 67.3748 21.73V22.06H58.4948V21.85C58.4948 19.15 60.4448 17.14 63.0848 17.14ZM81.7031 31H87.7331V28.96H80.6831V17.56H87.7331V15.52H80.6831V10.06H78.3731V14.11C78.3731 15.16 77.9831 15.52 76.9631 15.52H73.1231V17.56H78.2831V27.46C78.2831 29.53 79.3631 31 81.7031 31ZM98.9414 31.36C103.291 31.36 105.961 28.18 105.961 23.26C105.961 18.34 103.291 15.16 98.9414 15.16C94.5914 15.16 91.9214 18.34 91.9214 23.26C91.9214 28.18 94.5914 31.36 98.9414 31.36ZM98.9414 29.29C96.2714 29.29 94.4714 27.7 94.4714 24.37V22.15C94.4714 18.82 96.2714 17.23 98.9414 17.23C101.611 17.23 103.411 18.82 103.411 22.15V24.37C103.411 27.7 101.611 29.29 98.9414 29.29ZM116.93 31.36C121.28 31.36 123.95 28.18 123.95 23.26C123.95 18.34 121.28 15.16 116.93 15.16C112.58 15.16 109.91 18.34 109.91 23.26C109.91 28.18 112.58 31.36 116.93 31.36ZM116.93 29.29C114.26 29.29 112.46 27.7 112.46 24.37V22.15C112.46 18.82 114.26 17.23 116.93 17.23C119.6 17.23 121.4 18.82 121.4 22.15V24.37C121.4 27.7 119.6 29.29 116.93 29.29ZM135.668 31H141.698V28.96H134.648V17.56H141.698V15.52H134.648V10.06H132.338V14.11C132.338 15.16 131.948 15.52 130.928 15.52H127.088V17.56H132.248V27.46C132.248 29.53 133.328 31 135.668 31ZM146.846 8.8V31H149.246V20.26C149.246 18.22 151.166 17.29 153.086 17.29C155.456 17.29 156.746 18.67 156.746 21.49V31H159.146V21.07C159.146 17.32 157.016 15.16 153.776 15.16C151.226 15.16 150.026 16.51 149.366 18.04H149.246V8.8H146.846Z" transform="translate(781 179)" fill="black"/>
<path d="M10.26 12.25H17.25V10.06H0.75V12.25H7.74V31H10.26V12.25ZM26.9883 31.36C31.3383 31.36 34.0083 28.18 34.0083 23.26C34.0083 18.34 31.3383 15.16 26.9883 15.16C22.6383 15.16 19.9683 18.34 19.9683 23.26C19.9683 28.18 22.6383 31.36 26.9883 31.36ZM26.9883 29.29C24.3183 29.29 22.5183 27.7 22.5183 24.37V22.15C22.5183 18.82 24.3183 17.23 26.9883 17.23C29.6583 17.23 31.4583 18.82 31.4583 22.15V24.37C31.4583 27.7 29.6583 29.29 26.9883 29.29ZM48.6366 28.48V31H51.0366V15.52H48.6366V26.26C48.6366 28.3 46.7166 29.23 44.7966 29.23C42.4266 29.23 41.1366 27.85 41.1366 25.03V15.52H38.7366V25.45C38.7366 29.2 40.8666 31.36 44.1066 31.36C46.6566 31.36 47.8566 30.01 48.5166 28.48H48.6366ZM63.5048 31.36C66.5948 31.36 68.5448 29.83 69.4448 27.76L67.7348 26.59C66.9548 28.27 65.6048 29.29 63.5348 29.29C60.6248 29.29 59.0648 27.31 59.0648 24.58V21.94C59.0648 19.21 60.6548 17.23 63.4748 17.23C65.3948 17.23 66.7148 18.16 67.2848 19.75L69.2048 18.73C68.3348 16.63 66.4748 15.16 63.4748 15.16C59.0948 15.16 56.4848 18.34 56.4848 23.26C56.4848 28.15 59.0648 31.36 63.5048 31.36ZM74.8931 8.8V31H77.2931V20.26C77.2931 18.22 79.2131 17.29 81.1331 17.29C83.5031 17.29 84.7931 18.67 84.7931 21.49V31H87.1931V21.07C87.1931 17.32 85.0631 15.16 81.8231 15.16C79.2731 15.16 78.0731 16.51 77.4131 18.04H77.2931V8.8H74.8931ZM116.87 31.36C121.52 31.36 124.19 29.02 124.19 25.15C124.19 22.42 122.84 20.14 118.73 19.42L116.48 19.03C113.51 18.52 112.55 17.32 112.55 15.46C112.55 13.09 114.14 11.86 116.96 11.86C119.57 11.86 121.07 12.91 122.24 14.44L124.01 12.91C122.6 10.9 120.32 9.7 116.99 9.7C112.73 9.7 110 11.68 110 15.52C110 18.16 111.29 20.53 115.4 21.22L117.74 21.61C120.59 22.09 121.64 23.17 121.64 25.21C121.64 27.73 119.99 29.2 116.96 29.2C114.44 29.2 112.73 28.21 111.11 26.17L109.28 27.67C110.84 29.83 113.12 31.36 116.87 31.36ZM135.188 31.36C138.248 31.36 140.468 29.86 141.398 27.79L139.628 26.59C138.818 28.27 137.258 29.29 135.188 29.29C132.278 29.29 130.448 27.31 130.448 24.58V23.86H141.908V22.72C141.908 18.34 139.208 15.16 135.038 15.16C130.838 15.16 127.928 18.34 127.928 23.29C127.928 28.18 130.748 31.36 135.188 31.36ZM135.038 17.14C137.588 17.14 139.328 19 139.328 21.73V22.06H130.448V21.85C130.448 19.15 132.398 17.14 135.038 17.14ZM146.846 31H149.246V20.26C149.246 18.22 151.166 17.29 153.086 17.29C155.456 17.29 156.746 18.67 156.746 21.49V31H159.146V21.07C159.146 17.32 157.016 15.16 153.776 15.16C151.226 15.16 150.026 16.51 149.366 18.04H149.246V15.52H146.846V31ZM171.075 31.36C175.035 31.36 177.615 29.59 177.615 26.53C177.615 23.17 174.525 22.57 172.305 22.24L169.875 21.88C168.495 21.67 167.145 21.25 167.145 19.63C167.145 18.04 168.495 17.17 170.925 17.17C173.655 17.17 175.035 18.25 175.755 19.12L177.315 17.65C175.845 16.09 173.805 15.16 171.015 15.16C167.415 15.16 164.775 16.69 164.775 19.78C164.775 23.14 167.895 23.74 170.085 24.07L172.515 24.43C173.925 24.64 175.245 25.06 175.245 26.68C175.245 28.51 173.535 29.35 171.135 29.35C168.675 29.35 166.995 28.48 165.525 26.92L163.905 28.33C165.525 30.16 167.835 31.36 171.075 31.36ZM188.883 31.36C193.233 31.36 195.903 28.18 195.903 23.26C195.903 18.34 193.233 15.16 188.883 15.16C184.533 15.16 181.863 18.34 181.863 23.26C181.863 28.18 184.533 31.36 188.883 31.36ZM188.883 29.29C186.213 29.29 184.413 27.7 184.413 24.37V22.15C184.413 18.82 186.213 17.23 188.883 17.23C191.553 17.23 193.353 18.82 193.353 22.15V24.37C193.353 27.7 191.553 29.29 188.883 29.29ZM200.181 28.96V31H213.111V28.96H207.111V20.47C207.111 19 208.731 17.92 211.431 17.92H214.641V15.52H211.911C209.331 15.52 207.861 16.81 207.261 18.28H207.111V15.52H200.181V17.56H204.711V28.96H200.181ZM225.129 31.36C228.189 31.36 230.409 29.86 231.339 27.79L229.569 26.59C228.759 28.27 227.199 29.29 225.129 29.29C222.219 29.29 220.389 27.31 220.389 24.58V23.86H231.849V22.72C231.849 18.34 229.149 15.16 224.979 15.16C220.779 15.16 217.869 18.34 217.869 23.29C217.869 28.18 220.689 31.36 225.129 31.36ZM224.979 17.14C227.529 17.14 229.269 19 229.269 21.73V22.06H220.389V21.85C220.389 19.15 222.339 17.14 224.979 17.14ZM236.788 31H239.188V20.26C239.188 18.22 241.108 17.29 243.028 17.29C245.398 17.29 246.688 18.67 246.688 21.49V31H249.088V21.07C249.088 17.32 246.958 15.16 243.718 15.16C241.168 15.16 239.968 16.51 239.308 18.04H239.188V15.52H236.788V31Z" transform="translate(340 145)" fill="black"/>
<path d="M5.22 31V22.06H8.55L13.65 31H16.47L11.13 21.94C14.46 21.61 16.29 19.45 16.29 16.09C16.29 12.31 14.19 10.06 10.32 10.06H2.7V31H5.22ZM10.26 19.93H5.22V12.25H10.26C12.36 12.25 13.62 13.36 13.62 15.31V16.87C13.62 18.82 12.36 19.93 10.26 19.93ZM20.6883 31H23.2083V21.49H32.9883V19.3H23.2083V12.25H33.8883V10.06H20.6883V31ZM38.4966 31H51.4566V28.99H46.2366V12.07H51.4566V10.06H38.4966V12.07H43.7166V28.99H38.4966V31ZM56.8148 10.06V31H62.6648C67.7648 31 70.2848 27.4 70.2848 20.53C70.2848 13.66 67.7648 10.06 62.6648 10.06H56.8148ZM62.5448 28.81H59.3348V12.25H62.5448C65.8748 12.25 67.6148 14.71 67.6148 18.91V22.15C67.6148 26.35 65.8748 28.81 62.5448 28.81Z" transform="translate(781 242)" fill="black"/>
<path d="M14.43 31H17.1L10.68 10.06H7.35L0.93 31H3.54L5.31 25.03H12.66L14.43 31ZM9.12 12.73L12.06 22.84H5.91L8.85 12.73H9.12ZM27.5283 31.36C30.6183 31.36 32.5683 29.83 33.4683 27.76L31.7583 26.59C30.9783 28.27 29.6283 29.29 27.5583 29.29C24.6483 29.29 23.0883 27.31 23.0883 24.58V21.94C23.0883 19.21 24.6783 17.23 27.4983 17.23C29.4183 17.23 30.7383 18.16 31.3083 19.75L33.2283 18.73C32.3583 16.63 30.4983 15.16 27.4983 15.16C23.1183 15.16 20.5083 18.34 20.5083 23.26C20.5083 28.15 23.0883 31.36 27.5283 31.36ZM45.5166 31.36C48.6066 31.36 50.5566 29.83 51.4566 27.76L49.7466 26.59C48.9666 28.27 47.6166 29.29 45.5466 29.29C42.6366 29.29 41.0766 27.31 41.0766 24.58V21.94C41.0766 19.21 42.6666 17.23 45.4866 17.23C47.4066 17.23 48.7266 18.16 49.2966 19.75L51.2166 18.73C50.3466 16.63 48.4866 15.16 45.4866 15.16C41.1066 15.16 38.4966 18.34 38.4966 23.26C38.4966 28.15 41.0766 31.36 45.5166 31.36ZM63.2348 31.36C66.2948 31.36 68.5148 29.86 69.4448 27.79L67.6748 26.59C66.8648 28.27 65.3048 29.29 63.2348 29.29C60.3248 29.29 58.4948 27.31 58.4948 24.58V23.86H69.9548V22.72C69.9548 18.34 67.2548 15.16 63.0848 15.16C58.8848 15.16 55.9748 18.34 55.9748 23.29C55.9748 28.18 58.7948 31.36 63.2348 31.36ZM63.0848 17.14C65.6348 17.14 67.3748 19 67.3748 21.73V22.06H58.4948V21.85C58.4948 19.15 60.4448 17.14 63.0848 17.14ZM74.3531 28.96V31H87.5531V28.96H82.1531V8.8H74.3531V10.84H79.7531V28.96H74.3531ZM99.2114 31.36C102.271 31.36 104.491 29.86 105.421 27.79L103.651 26.59C102.841 28.27 101.281 29.29 99.2114 29.29C96.3014 29.29 94.4714 27.31 94.4714 24.58V23.86H105.931V22.72C105.931 18.34 103.231 15.16 99.0614 15.16C94.8614 15.16 91.9514 18.34 91.9514 23.29C91.9514 28.18 94.7714 31.36 99.2114 31.36ZM99.0614 17.14C101.611 17.14 103.351 19 103.351 21.73V22.06H94.4714V21.85C94.4714 19.15 96.4214 17.14 99.0614 17.14ZM110.24 28.96V31H123.17V28.96H117.17V20.47C117.17 19 118.79 17.92 121.49 17.92H124.7V15.52H121.97C119.39 15.52 117.92 16.81 117.32 18.28H117.17V15.52H110.24V17.56H114.77V28.96H110.24ZM134.918 31.36C139.268 31.36 141.938 28.18 141.938 23.26C141.938 18.34 139.268 15.16 134.918 15.16C130.568 15.16 127.898 18.34 127.898 23.26C127.898 28.18 130.568 31.36 134.918 31.36ZM134.918 29.29C132.248 29.29 130.448 27.7 130.448 24.37V22.15C130.448 18.82 132.248 17.23 134.918 17.23C137.588 17.23 139.388 18.82 139.388 22.15V24.37C139.388 27.7 137.588 29.29 134.918 29.29ZM146.786 31H149.186V20.26C149.186 18.28 150.986 17.32 152.876 17.32C155.156 17.32 156.206 18.73 156.206 21.49V31H158.606V20.26C158.606 18.28 160.346 17.32 162.236 17.32C164.576 17.32 165.626 18.76 165.626 21.49V31H168.026V21.07C168.026 17.32 166.136 15.16 162.986 15.16C160.346 15.16 158.846 16.63 158.276 18.31H158.216C157.376 16.09 155.516 15.16 153.476 15.16C151.076 15.16 149.996 16.45 149.306 18.04H149.186V15.52H146.786V31ZM180.188 31.36C183.248 31.36 185.468 29.86 186.398 27.79L184.628 26.59C183.818 28.27 182.258 29.29 180.188 29.29C177.278 29.29 175.448 27.31 175.448 24.58V23.86H186.908V22.72C186.908 18.34 184.208 15.16 180.038 15.16C175.838 15.16 172.928 18.34 172.928 23.29C172.928 28.18 175.748 31.36 180.188 31.36ZM180.038 17.14C182.588 17.14 184.328 19 184.328 21.73V22.06H175.448V21.85C175.448 19.15 177.398 17.14 180.038 17.14ZM198.656 31H204.686V28.96H197.636V17.56H204.686V15.52H197.636V10.06H195.326V14.11C195.326 15.16 194.936 15.52 193.916 15.52H190.076V17.56H195.236V27.46C195.236 29.53 196.316 31 198.656 31ZM216.165 31.36C219.225 31.36 221.445 29.86 222.375 27.79L220.605 26.59C219.795 28.27 218.235 29.29 216.165 29.29C213.255 29.29 211.425 27.31 211.425 24.58V23.86H222.885V22.72C222.885 18.34 220.185 15.16 216.015 15.16C211.815 15.16 208.905 18.34 208.905 23.29C208.905 28.18 211.725 31.36 216.165 31.36ZM216.015 17.14C218.565 17.14 220.305 19 220.305 21.73V22.06H211.425V21.85C211.425 19.15 213.375 17.14 216.015 17.14ZM227.193 28.96V31H240.123V28.96H234.123V20.47C234.123 19 235.743 17.92 238.443 17.92H241.653V15.52H238.923C236.343 15.52 234.873 16.81 234.273 18.28H234.123V15.52H227.193V17.56H231.723V28.96H227.193ZM6.51 76.36C9.21 76.36 10.98 74.98 11.55 72.91H11.7L14.31 76H17.16L13.5 71.68C14.19 69.82 14.31 68.5 14.58 66.58H16.83V64.57H12.6C12.51 66.49 12.48 68.62 12.21 70.18H12.06L9.87 67.48L7.17 64.15C5.64 62.23 5.04 61.18 5.04 59.92V59.68C5.04 57.97 6.18 56.74 7.98 56.74C9.54 56.74 10.59 57.67 11.1 58.9L13.08 57.88C12.51 56.35 10.77 54.7 8.1 54.7C5.13 54.7 2.67 56.74 2.67 59.77C2.67 61.54 3.51 63.04 4.62 64.48C1.62 66.01 0.75 68.47 0.75 70.57C0.75 73.78 2.85 76.36 6.51 76.36ZM7.14 74.23C4.83 74.23 3.24 72.85 3.24 70.69V70.24C3.24 68.53 3.93 67.03 5.76 65.89L10.98 72.19C10.23 73.48 8.85 74.23 7.14 74.23ZM49.2966 73.21V76H51.6366V65.65H44.8866V67.66H49.2966V69.82C49.2966 72.4 47.6766 74.23 44.9766 74.23C41.5566 74.23 40.3266 71.26 40.3266 67.06V63.82C40.3266 59.62 41.8566 56.89 45.2166 56.89C47.7366 56.89 48.7266 58.42 49.4766 60.28L51.6366 59.29C50.7366 57.01 49.0566 54.7 45.1266 54.7C40.0866 54.7 37.6566 58.54 37.6566 65.68C37.6566 72.52 39.8766 76.36 44.4066 76.36C47.2866 76.36 48.4566 74.83 49.1466 73.21H49.2966ZM67.9748 60.52L65.3648 67L63.0548 72.88H62.9348L60.6248 67L58.0148 60.52H55.5548L61.7948 75.7L60.0548 79.96H56.4548V82H58.7348C61.0748 82 61.9748 81.16 62.6948 79.39L70.3748 60.52H67.9748ZM74.2631 73.96V76H87.1931V73.96H81.1931V65.47C81.1931 64 82.8131 62.92 85.5131 62.92H88.7231V60.52H85.9931C83.4131 60.52 81.9431 61.81 81.3431 63.28H81.1931V60.52H74.2631V62.56H78.7931V73.96H74.2631ZM98.9414 76.36C103.291 76.36 105.961 73.18 105.961 68.26C105.961 63.34 103.291 60.16 98.9414 60.16C94.5914 60.16 91.9214 63.34 91.9214 68.26C91.9214 73.18 94.5914 76.36 98.9414 76.36ZM98.9414 74.29C96.2714 74.29 94.4714 72.7 94.4714 69.37V67.15C94.4714 63.82 96.2714 62.23 98.9414 62.23C101.611 62.23 103.411 63.82 103.411 67.15V69.37C103.411 72.7 101.611 74.29 98.9414 74.29ZM117.11 76.36C121.07 76.36 123.65 74.59 123.65 71.53C123.65 68.17 120.56 67.57 118.34 67.24L115.91 66.88C114.53 66.67 113.18 66.25 113.18 64.63C113.18 63.04 114.53 62.17 116.96 62.17C119.69 62.17 121.07 63.25 121.79 64.12L123.35 62.65C121.88 61.09 119.84 60.16 117.05 60.16C113.45 60.16 110.81 61.69 110.81 64.78C110.81 68.14 113.93 68.74 116.12 69.07L118.55 69.43C119.96 69.64 121.28 70.06 121.28 71.68C121.28 73.51 119.57 74.35 117.17 74.35C114.71 74.35 113.03 73.48 111.56 71.92L109.94 73.33C111.56 75.16 113.87 76.36 117.11 76.36ZM135.458 76.36C138.548 76.36 140.498 74.83 141.398 72.76L139.688 71.59C138.908 73.27 137.558 74.29 135.488 74.29C132.578 74.29 131.018 72.31 131.018 69.58V66.94C131.018 64.21 132.608 62.23 135.428 62.23C137.348 62.23 138.668 63.16 139.238 64.75L141.158 63.73C140.288 61.63 138.428 60.16 135.428 60.16C131.048 60.16 128.438 63.34 128.438 68.26C128.438 73.15 131.018 76.36 135.458 76.36ZM152.906 76.36C157.256 76.36 159.926 73.18 159.926 68.26C159.926 63.34 157.256 60.16 152.906 60.16C148.556 60.16 145.886 63.34 145.886 68.26C145.886 73.18 148.556 76.36 152.906 76.36ZM152.906 74.29C150.236 74.29 148.436 72.7 148.436 69.37V67.15C148.436 63.82 150.236 62.23 152.906 62.23C155.576 62.23 157.376 63.82 157.376 67.15V69.37C157.376 72.7 155.576 74.29 152.906 74.29ZM164.745 60.52V82H167.145V73.48H167.265C168.255 75.37 169.875 76.36 172.035 76.36C175.815 76.36 178.095 73.33 178.095 68.26C178.095 63.19 175.815 60.16 172.035 60.16C169.875 60.16 168.255 61.15 167.265 63.04H167.145V60.52H164.745ZM171.105 74.23C168.975 74.23 167.145 73.12 167.145 71.05V65.47C167.145 63.4 168.975 62.29 171.105 62.29C173.895 62.29 175.515 64.15 175.515 66.94V69.58C175.515 72.37 173.895 74.23 171.105 74.23ZM189.153 76.36C192.213 76.36 194.433 74.86 195.363 72.79L193.593 71.59C192.783 73.27 191.223 74.29 189.153 74.29C186.243 74.29 184.413 72.31 184.413 69.58V68.86H195.873V67.72C195.873 63.34 193.173 60.16 189.003 60.16C184.803 60.16 181.893 63.34 181.893 68.29C181.893 73.18 184.713 76.36 189.153 76.36ZM189.003 62.14C191.553 62.14 193.293 64 193.293 66.73V67.06H184.413V66.85C184.413 64.15 186.363 62.14 189.003 62.14Z" transform="translate(781 302)" fill="black"/>
<path d="M7.29 31H10.71L16.92 10.06H14.34L11.37 20.53L9.12 28.45H8.97L6.72 20.53L3.75 10.06H1.08L7.29 31ZM27.9483 12.1C29.3283 12.1 29.8383 11.44 29.8383 10.57V10.09C29.8383 9.22 29.3283 8.56 27.9483 8.56C26.5683 8.56 26.0583 9.22 26.0583 10.09V10.57C26.0583 11.44 26.5683 12.1 27.9483 12.1ZM21.1683 28.96V31H34.3683V28.96H29.1483V15.52H21.1683V17.56H26.7483V28.96H21.1683ZM38.8266 8.8V31H41.2266V28.48H41.3466C42.3366 30.37 43.9566 31.36 46.1166 31.36C49.8966 31.36 52.1766 28.33 52.1766 23.26C52.1766 18.19 49.8966 15.16 46.1166 15.16C43.9566 15.16 42.3366 16.15 41.3466 18.04H41.2266V8.8H38.8266ZM45.1866 29.23C43.0566 29.23 41.2266 28.12 41.2266 26.05V20.47C41.2266 18.4 43.0566 17.29 45.1866 17.29C47.9766 17.29 49.5966 19.15 49.5966 21.94V24.58C49.5966 27.37 47.9766 29.23 45.1866 29.23ZM56.2748 28.96V31H69.2048V28.96H63.2048V20.47C63.2048 19 64.8248 17.92 67.5248 17.92H70.7348V15.52H68.0048C65.4248 15.52 63.9548 16.81 63.3548 18.28H63.2048V15.52H56.2748V17.56H60.8048V28.96H56.2748ZM86.8031 31H88.4531V28.9H86.2931V20.38C86.2931 17.11 83.9831 15.16 80.3531 15.16C77.2031 15.16 75.2231 16.66 74.4431 18.28L76.0631 19.48C76.8731 18.07 78.1331 17.2 80.2031 17.2C82.5431 17.2 83.8931 18.37 83.8931 20.62V22.15H80.5931C75.9431 22.15 73.9331 23.8 73.9331 26.65C73.9331 29.56 76.0031 31.36 79.2431 31.36C81.7631 31.36 83.2331 30.25 83.8931 28.48H84.0431C84.2231 29.92 84.9431 31 86.8031 31ZM79.6631 29.35C77.6831 29.35 76.4531 28.51 76.4531 26.92V26.29C76.4531 24.79 77.7431 23.95 80.5931 23.95H83.8931V26.5C83.8931 28.09 82.1231 29.35 79.6631 29.35ZM99.6914 31H105.721V28.96H98.6714V17.56H105.721V15.52H98.6714V10.06H96.3614V14.11C96.3614 15.16 95.9714 15.52 94.9514 15.52H91.1114V17.56H96.2714V27.46C96.2714 29.53 97.3514 31 99.6914 31ZM117.89 12.1C119.27 12.1 119.78 11.44 119.78 10.57V10.09C119.78 9.22 119.27 8.56 117.89 8.56C116.51 8.56 116 9.22 116 10.09V10.57C116 11.44 116.51 12.1 117.89 12.1ZM111.11 28.96V31H124.31V28.96H119.09V15.52H111.11V17.56H116.69V28.96H111.11ZM134.918 31.36C139.268 31.36 141.938 28.18 141.938 23.26C141.938 18.34 139.268 15.16 134.918 15.16C130.568 15.16 127.898 18.34 127.898 23.26C127.898 28.18 130.568 31.36 134.918 31.36ZM134.918 29.29C132.248 29.29 130.448 27.7 130.448 24.37V22.15C130.448 18.82 132.248 17.23 134.918 17.23C137.588 17.23 139.388 18.82 139.388 22.15V24.37C139.388 27.7 137.588 29.29 134.918 29.29ZM146.846 31H149.246V20.26C149.246 18.22 151.166 17.29 153.086 17.29C155.456 17.29 156.746 18.67 156.746 21.49V31H159.146V21.07C159.146 17.32 157.016 15.16 153.776 15.16C151.226 15.16 150.026 16.51 149.366 18.04H149.246V15.52H146.846V31ZM200.973 13.36V31H203.433V10.06H199.533L193.503 21.34H193.383L187.383 10.06H183.483V31H185.943V13.39H186.693L188.463 16.87L193.443 25.99L198.453 16.87L200.223 13.36H200.973ZM215.895 31.36C220.245 31.36 222.915 28.18 222.915 23.26C222.915 18.34 220.245 15.16 215.895 15.16C211.545 15.16 208.875 18.34 208.875 23.26C208.875 28.18 211.545 31.36 215.895 31.36ZM215.895 29.29C213.225 29.29 211.425 27.7 211.425 24.37V22.15C211.425 18.82 213.225 17.23 215.895 17.23C218.565 17.23 220.365 18.82 220.365 22.15V24.37C220.365 27.7 218.565 29.29 215.895 29.29ZM234.633 31H240.663V28.96H233.613V17.56H240.663V15.52H233.613V10.06H231.303V14.11C231.303 15.16 230.913 15.52 229.893 15.52H226.053V17.56H231.213V27.46C231.213 29.53 232.293 31 234.633 31ZM251.871 31.36C256.221 31.36 258.891 28.18 258.891 23.26C258.891 18.34 256.221 15.16 251.871 15.16C247.521 15.16 244.851 18.34 244.851 23.26C244.851 28.18 247.521 31.36 251.871 31.36ZM251.871 29.29C249.201 29.29 247.401 27.7 247.401 24.37V22.15C247.401 18.82 249.201 17.23 251.871 17.23C254.541 17.23 256.341 18.82 256.341 22.15V24.37C256.341 27.7 254.541 29.29 251.871 29.29ZM263.169 28.96V31H276.099V28.96H270.099V20.47C270.099 19 271.719 17.92 274.419 17.92H277.629V15.52H274.899C272.319 15.52 270.849 16.81 270.249 18.28H270.099V15.52H263.169V17.56H267.699V28.96H263.169Z" transform="translate(781 407)" fill="black"/>
<path d="M5.22 31V22.06H8.55L13.65 31H16.47L11.13 21.94C14.46 21.61 16.29 19.45 16.29 16.09C16.29 12.31 14.19 10.06 10.32 10.06H2.7V31H5.22ZM10.26 19.93H5.22V12.25H10.26C12.36 12.25 13.62 13.36 13.62 15.31V16.87C13.62 18.82 12.36 19.93 10.26 19.93ZM31.3083 28.21V31H33.6483V20.65H26.8983V22.66H31.3083V24.82C31.3083 27.4 29.6883 29.23 26.9883 29.23C23.5683 29.23 22.3383 26.26 22.3383 22.06V18.82C22.3383 14.62 23.8683 11.89 27.2283 11.89C29.7483 11.89 30.7383 13.42 31.4883 15.28L33.6483 14.29C32.7483 12.01 31.0683 9.7 27.1383 9.7C22.0983 9.7 19.6683 13.54 19.6683 20.68C19.6683 27.52 21.8883 31.36 26.4183 31.36C29.2983 31.36 30.4683 29.83 31.1583 28.21H31.3083ZM38.6166 10.06V31H46.6266C49.8666 31 52.2666 28.36 52.2666 24.97C52.2666 22.06 50.5566 20.59 48.2166 20.05V19.96C50.1366 19.36 51.4866 17.95 51.4866 15.46C51.4866 12.19 49.2966 10.06 45.7266 10.06H38.6166ZM45.8766 28.81H41.1366V21.22H45.8766C48.1866 21.22 49.5966 22.3 49.5966 24.4V25.63C49.5966 27.76 48.1866 28.81 45.8766 28.81ZM45.4566 19.15H41.1366V12.25H45.4566C47.5566 12.25 48.8466 13.21 48.8466 15.13V16.3C48.8466 18.22 47.5566 19.15 45.4566 19.15ZM75.5531 31H88.0031V28.81H78.0731V10.06H75.5531V31ZM92.6414 31H105.541V28.81H95.1614V21.49H105.181V19.3H95.1614V12.25H105.541V10.06H92.6414V31ZM110.78 10.06V31H116.63C121.73 31 124.25 27.4 124.25 20.53C124.25 13.66 121.73 10.06 116.63 10.06H110.78ZM116.51 28.81H113.3V12.25H116.51C119.84 12.25 121.58 14.71 121.58 18.91V22.15C121.58 26.35 119.84 28.81 116.51 28.81Z" transform="translate(781 467)" fill="black"/>
<path d="M14.43 31H17.1L10.68 10.06H7.35L0.93 31H3.54L5.31 25.03H12.66L14.43 31ZM9.12 12.73L12.06 22.84H5.91L8.85 12.73H9.12ZM21.1383 8.8V31H23.5383V25.39L26.2083 22.96L32.2383 31H35.2083L28.0383 21.58L34.4583 15.52H31.5183L26.3583 20.26L23.6583 22.81H23.5383V8.8H21.1383ZM39.1266 8.8V31H41.5266V25.39L44.1966 22.96L50.2266 31H53.1966L46.0266 21.58L52.4466 15.52H49.5066L44.3466 20.26L41.6466 22.81H41.5266V8.8H39.1266ZM66.6248 28.48V31H69.0248V15.52H66.6248V26.26C66.6248 28.3 64.7048 29.23 62.7848 29.23C60.4148 29.23 59.1248 27.85 59.1248 25.03V15.52H56.7248V25.45C56.7248 29.2 58.8548 31.36 62.0948 31.36C64.6448 31.36 65.8448 30.01 66.5048 28.48H66.6248Z" transform="translate(781 537)" fill="black"/>
<path d="M0 1H118.5" transform="translate(646.83 701.49) rotate(-30)" stroke="#C5C4C0" stroke-width="7" stroke-linecap="square"/>
<path d="M0 22.9692H23.7688V0" transform="translate(671.742 688.541) rotate(105)" stroke="#C5C4C0" stroke-width="7" stroke-linecap="square"/>
<path d="M21.09 13.36V31H23.55V10.06H19.65L13.62 21.34H13.5L7.5 10.06H3.6V31H6.06V13.39H6.81L8.58 16.87L13.56 25.99L18.57 16.87L20.34 13.36H21.09ZM36.9717 12.1C38.3517 12.1 38.8617 11.44 38.8617 10.57V10.09C38.8617 9.22 38.3517 8.56 36.9717 8.56C35.5917 8.56 35.0817 9.22 35.0817 10.09V10.57C35.0817 11.44 35.5917 12.1 36.9717 12.1ZM30.1917 28.96V31H43.3917V28.96H38.1717V15.52H30.1917V17.56H35.7717V28.96H30.1917ZM47.94 31H50.34V20.26C50.34 18.22 52.26 17.29 54.18 17.29C56.55 17.29 57.84 18.67 57.84 21.49V31H60.24V21.07C60.24 17.32 58.11 15.16 54.87 15.16C52.32 15.16 51.12 16.51 50.46 18.04H50.34V15.52H47.94V31ZM72.9483 12.1C74.3283 12.1 74.8383 11.44 74.8383 10.57V10.09C74.8383 9.22 74.3283 8.56 72.9483 8.56C71.5683 8.56 71.0583 9.22 71.0583 10.09V10.57C71.0583 11.44 71.5683 12.1 72.9483 12.1ZM66.1683 28.96V31H79.3683V28.96H74.1483V15.52H66.1683V17.56H71.7483V28.96H66.1683ZM3.6 70H16.05V67.81H6.12V49.06H3.6V70ZM32.8383 70H34.4883V67.9H32.3283V59.38C32.3283 56.11 30.0183 54.16 26.3883 54.16C23.2383 54.16 21.2583 55.66 20.4783 57.28L22.0983 58.48C22.9083 57.07 24.1683 56.2 26.2383 56.2C28.5783 56.2 29.9283 57.37 29.9283 59.62V61.15H26.6283C21.9783 61.15 19.9683 62.8 19.9683 65.65C19.9683 68.56 22.0383 70.36 25.2783 70.36C27.7983 70.36 29.2683 69.25 29.9283 67.48H30.0783C30.2583 68.92 30.9783 70 32.8383 70ZM25.6983 68.35C23.7183 68.35 22.4883 67.51 22.4883 65.92V65.29C22.4883 63.79 23.7783 62.95 26.6283 62.95H29.9283V65.5C29.9283 67.09 28.1583 68.35 25.6983 68.35ZM48.6366 67.48V70H51.0366V54.52H48.6366V65.26C48.6366 67.3 46.7166 68.23 44.7966 68.23C42.4266 68.23 41.1366 66.85 41.1366 64.03V54.52H38.7366V64.45C38.7366 68.2 40.8666 70.36 44.1066 70.36C46.6566 70.36 47.8566 69.01 48.5166 67.48H48.6366ZM63.7148 70H69.7448V67.96H62.6948V56.56H69.7448V54.52H62.6948V49.06H60.3848V53.11C60.3848 54.16 59.9948 54.52 58.9748 54.52H55.1348V56.56H60.2948V66.46C60.2948 68.53 61.3748 70 63.7148 70ZM81.1331 70.36C85.0931 70.36 87.6731 68.59 87.6731 65.53C87.6731 62.17 84.5831 61.57 82.3631 61.24L79.9331 60.88C78.5531 60.67 77.2031 60.25 77.2031 58.63C77.2031 57.04 78.5531 56.17 80.9831 56.17C83.7131 56.17 85.0931 57.25 85.8131 58.12L87.3731 56.65C85.9031 55.09 83.8631 54.16 81.0731 54.16C77.4731 54.16 74.8331 55.69 74.8331 58.78C74.8331 62.14 77.9531 62.74 80.1431 63.07L82.5731 63.43C83.9831 63.64 85.3031 64.06 85.3031 65.68C85.3031 67.51 83.5931 68.35 81.1931 68.35C78.7331 68.35 77.0531 67.48 75.5831 65.92L73.9631 67.33C75.5831 69.16 77.8931 70.36 81.1331 70.36ZM92.7914 54.52V76H95.1914V67.48H95.3114C96.3014 69.37 97.9214 70.36 100.081 70.36C103.861 70.36 106.141 67.33 106.141 62.26C106.141 57.19 103.861 54.16 100.081 54.16C97.9214 54.16 96.3014 55.15 95.3114 57.04H95.1914V54.52H92.7914ZM99.1514 68.23C97.0214 68.23 95.1914 67.12 95.1914 65.05V59.47C95.1914 57.4 97.0214 56.29 99.1514 56.29C101.941 56.29 103.561 58.15 103.561 60.94V63.58C103.561 66.37 101.941 68.23 99.1514 68.23ZM110.24 67.96V70H123.17V67.96H117.17V59.47C117.17 58 118.79 56.92 121.49 56.92H124.7V54.52H121.97C119.39 54.52 117.92 55.81 117.32 57.28H117.17V54.52H110.24V56.56H114.77V67.96H110.24ZM135.188 70.36C138.248 70.36 140.468 68.86 141.398 66.79L139.628 65.59C138.818 67.27 137.258 68.29 135.188 68.29C132.278 68.29 130.448 66.31 130.448 63.58V62.86H141.908V61.72C141.908 57.34 139.208 54.16 135.038 54.16C130.838 54.16 127.928 57.34 127.928 62.29C127.928 67.18 130.748 70.36 135.188 70.36ZM135.038 56.14C137.588 56.14 139.328 58 139.328 60.73V61.06H130.448V60.85C130.448 58.15 132.398 56.14 135.038 56.14ZM153.446 70.36C156.536 70.36 158.486 68.83 159.386 66.76L157.676 65.59C156.896 67.27 155.546 68.29 153.476 68.29C150.566 68.29 149.006 66.31 149.006 63.58V60.94C149.006 58.21 150.596 56.23 153.416 56.23C155.336 56.23 156.656 57.16 157.226 58.75L159.146 57.73C158.276 55.63 156.416 54.16 153.416 54.16C149.036 54.16 146.426 57.34 146.426 62.26C146.426 67.15 149.006 70.36 153.446 70.36ZM164.835 47.8V70H167.235V59.26C167.235 57.22 169.155 56.29 171.075 56.29C173.445 56.29 174.735 57.67 174.735 60.49V70H177.135V60.07C177.135 56.32 175.005 54.16 171.765 54.16C169.215 54.16 168.015 55.51 167.355 57.04H167.235V47.8H164.835ZM189.153 70.36C192.213 70.36 194.433 68.86 195.363 66.79L193.593 65.59C192.783 67.27 191.223 68.29 189.153 68.29C186.243 68.29 184.413 66.31 184.413 63.58V62.86H195.873V61.72C195.873 57.34 193.173 54.16 189.003 54.16C184.803 54.16 181.893 57.34 181.893 62.29C181.893 67.18 184.713 70.36 189.153 70.36ZM189.003 56.14C191.553 56.14 193.293 58 193.293 60.73V61.06H184.413V60.85C184.413 58.15 186.363 56.14 189.003 56.14ZM200.181 67.96V70H213.111V67.96H207.111V59.47C207.111 58 208.731 56.92 211.431 56.92H214.641V54.52H211.911C209.331 54.52 207.861 55.81 207.261 57.28H207.111V54.52H200.181V56.56H204.711V67.96H200.181Z" transform="translate(781 607)" fill="black"/>
<path d="M8.94 31.36C13.59 31.36 16.26 29.02 16.26 25.15C16.26 22.42 14.91 20.14 10.8 19.42L8.55 19.03C5.58 18.52 4.62 17.32 4.62 15.46C4.62 13.09 6.21 11.86 9.03 11.86C11.64 11.86 13.14 12.91 14.31 14.44L16.08 12.91C14.67 10.9 12.39 9.7 9.06 9.7C4.8 9.7 2.07 11.68 2.07 15.52C2.07 18.16 3.36 20.53 7.47 21.22L9.81 21.61C12.66 22.09 13.71 23.17 13.71 25.21C13.71 27.73 12.06 29.2 9.03 29.2C6.51 29.2 4.8 28.21 3.18 26.17L1.35 27.67C2.91 29.83 5.19 31.36 8.94 31.36ZM27.5283 31.36C30.6183 31.36 32.5683 29.83 33.4683 27.76L31.7583 26.59C30.9783 28.27 29.6283 29.29 27.5583 29.29C24.6483 29.29 23.0883 27.31 23.0883 24.58V21.94C23.0883 19.21 24.6783 17.23 27.4983 17.23C29.4183 17.23 30.7383 18.16 31.3083 19.75L33.2283 18.73C32.3583 16.63 30.4983 15.16 27.4983 15.16C23.1183 15.16 20.5083 18.34 20.5083 23.26C20.5083 28.15 23.0883 31.36 27.5283 31.36ZM38.9166 8.8V31H41.3166V20.26C41.3166 18.22 43.2366 17.29 45.1566 17.29C47.5266 17.29 48.8166 18.67 48.8166 21.49V31H51.2166V21.07C51.2166 17.32 49.0866 15.16 45.8466 15.16C43.2966 15.16 42.0966 16.51 41.4366 18.04H41.3166V8.8H38.9166ZM56.3648 28.96V31H69.5648V28.96H64.1648V8.8H56.3648V10.84H61.7648V28.96H56.3648ZM86.8031 31H88.4531V28.9H86.2931V20.38C86.2931 17.11 83.9831 15.16 80.3531 15.16C77.2031 15.16 75.2231 16.66 74.4431 18.28L76.0631 19.48C76.8731 18.07 78.1331 17.2 80.2031 17.2C82.5431 17.2 83.8931 18.37 83.8931 20.62V22.15H80.5931C75.9431 22.15 73.9331 23.8 73.9331 26.65C73.9331 29.56 76.0031 31.36 79.2431 31.36C81.7631 31.36 83.2331 30.25 83.8931 28.48H84.0431C84.2231 29.92 84.9431 31 86.8031 31ZM79.6631 29.35C77.6831 29.35 76.4531 28.51 76.4531 26.92V26.29C76.4531 24.79 77.7431 23.95 80.5931 23.95H83.8931V26.5C83.8931 28.09 82.1231 29.35 79.6631 29.35ZM102.601 28.48V31H105.001V15.52H102.601V26.26C102.601 28.3 100.681 29.23 98.7614 29.23C96.3914 29.23 95.1014 27.85 95.1014 25.03V15.52H92.7014V25.45C92.7014 29.2 94.8314 31.36 98.0714 31.36C100.621 31.36 101.821 30.01 102.481 28.48H102.601ZM110.42 28.96V31H123.56V28.96H118.04V17.56H124.25V15.52H118.04V10.84H124.25V8.8H119.06C116.72 8.8 115.64 10.27 115.64 12.34V15.52H110.12V17.56H115.64V28.96H110.42ZM135.188 31.36C138.248 31.36 140.468 29.86 141.398 27.79L139.628 26.59C138.818 28.27 137.258 29.29 135.188 29.29C132.278 29.29 130.448 27.31 130.448 24.58V23.86H141.908V22.72C141.908 18.34 139.208 15.16 135.038 15.16C130.838 15.16 127.928 18.34 127.928 23.29C127.928 28.18 130.748 31.36 135.188 31.36ZM135.038 17.14C137.588 17.14 139.328 19 139.328 21.73V22.06H130.448V21.85C130.448 19.15 132.398 17.14 135.038 17.14Z" transform="translate(996 739)" fill="black"/>
</svg>
