<svg width="1920" height="1080" viewBox="0 0 1920 1080" fill="none" xmlns="http://www.w3.org/2000/svg">
<rect width="1920" height="1080" fill="white"/>
<path fill-rule="evenodd" clip-rule="evenodd" d="M0 0.16C0 0.103995 0 0.0759921 0.0108993 0.0546009C0.0204867 0.0357847 0.0357847 0.0204867 0.0546009 0.0108993C0.0759921 0 0.103995 0 0.16 0H552.84C552.896 0 552.924 0 552.945 0.0108993C552.964 0.0204867 552.98 0.0357847 552.989 0.0546009C553 0.0759921 553 0.103995 553 0.16V425.84C553 425.896 553 425.924 552.989 425.945C552.98 425.964 552.964 425.98 552.945 425.989C552.924 426 552.896 426 552.84 426H0.16C0.103995 426 0.0759921 426 0.0546009 425.989C0.0357847 425.98 0.0204867 425.964 0.0108993 425.945C0 425.924 0 425.896 0 425.84V0.16Z" transform="translate(144 361)" stroke="black" stroke-width="4"/>
<path fill-rule="evenodd" clip-rule="evenodd" d="M0.387452 107C0.284162 107 0.248668 106.862 0.339056 106.812L193.478 0H745.886C745.99 0 746.025 0.137522 745.935 0.187509L552.795 107H0.387452Z" transform="translate(144 254)" stroke="black" stroke-width="4"/>
<path fill-rule="evenodd" clip-rule="evenodd" d="M0 532.925C0 533.001 0.0817954 533.049 0.148446 533.012L193 426.213V0.169447C193 0.093314 192.918 0.0451051 192.852 0.0819057L0 106.567V532.925Z" transform="translate(697 253.905)" stroke="black" stroke-width="4"/>
<path d="M2.28 31H6.81V23.38H10.38C14.49 23.38 16.8 20.77 16.8 16.72C16.8 12.67 14.49 10.06 10.38 10.06H2.28V31ZM6.81 19.75V13.69H9.24C11.34 13.69 12.06 14.44 12.06 16.27V17.17C12.06 19 11.34 19.75 9.24 19.75H6.81ZM32.5983 31H35.1483V27.79H33.4383V21.01C33.4383 17.11 30.9183 15.16 26.6883 15.16C23.2383 15.16 20.9883 16.45 19.9683 18.19L22.3983 20.35C23.2383 19.21 24.3183 18.4 26.1783 18.4C28.2183 18.4 28.9983 19.36 28.9983 21.19V21.97H26.5083C21.9783 21.97 19.5483 23.5 19.5483 26.74C19.5483 29.65 21.5283 31.36 24.5283 31.36C26.8983 31.36 28.6983 30.28 29.2383 28.27H29.3883C29.5683 30.01 30.7683 31 32.5983 31ZM26.2083 28.45C24.7983 28.45 23.8983 27.88 23.8983 26.8V26.2C23.8983 25 24.8583 24.37 26.6283 24.37H28.9983V26.23C28.9983 27.67 27.7683 28.45 26.2083 28.45ZM37.9266 8.8V31H42.3666V25.63L43.8366 24.16L48.3366 31H53.6166L46.9866 21.64L52.9866 15.52H47.8866L44.6466 18.97L42.5766 21.4H42.3666V8.8H37.9266ZM63.3848 31.36C66.7148 31.36 68.8148 30.1 70.0148 28.63L67.6148 26.02C66.6548 27.16 65.3648 27.94 63.5348 27.94C61.1648 27.94 59.8748 26.59 59.8748 24.61V24.34H70.4648V23.02C70.4648 18.19 67.6148 15.16 62.9948 15.16C58.3448 15.16 55.4648 18.25 55.4648 23.32C55.4648 28.27 58.1948 31.36 63.3848 31.36ZM63.0248 18.34C64.9448 18.34 66.1148 19.6 66.1148 21.61V21.85H59.8748V21.61C59.8748 19.63 61.1048 18.34 63.0248 18.34ZM82.1531 31H87.8831V27.55H81.8531V18.97H87.8831V15.52H81.8531V10.06H77.7731V13.69C77.7731 15.07 77.2631 15.52 75.9431 15.52H73.2131V18.97H77.4131V26.53C77.4131 29.14 78.9431 31 82.1531 31Z" transform="translate(144 809)" fill="black"/>
<path d="M2.7 31H5.22V22.12H10.32C14.19 22.12 16.29 19.87 16.29 16.09C16.29 12.31 14.19 10.06 10.32 10.06H2.7V31ZM5.22 19.93V12.25H10.26C12.36 12.25 13.62 13.36 13.62 15.31V16.87C13.62 18.82 12.36 19.93 10.26 19.93H5.22ZM32.8383 31H34.4883V28.9H32.3283V20.38C32.3283 17.11 30.0183 15.16 26.3883 15.16C23.2383 15.16 21.2583 16.66 20.4783 18.28L22.0983 19.48C22.9083 18.07 24.1683 17.2 26.2383 17.2C28.5783 17.2 29.9283 18.37 29.9283 20.62V22.15H26.6283C21.9783 22.15 19.9683 23.8 19.9683 26.65C19.9683 29.56 22.0383 31.36 25.2783 31.36C27.7983 31.36 29.2683 30.25 29.9283 28.48H30.0783C30.2583 29.92 30.9783 31 32.8383 31ZM25.6983 29.35C23.7183 29.35 22.4883 28.51 22.4883 26.92V26.29C22.4883 24.79 23.7783 23.95 26.6283 23.95H29.9283V26.5C29.9283 28.09 28.1583 29.35 25.6983 29.35ZM38.2866 28.96V31H51.2166V28.96H45.2166V20.47C45.2166 19 46.8366 17.92 49.5366 17.92H52.7466V15.52H50.0166C47.4366 15.52 45.9666 16.81 45.3666 18.28H45.2166V15.52H38.2866V17.56H42.8166V28.96H38.2866ZM63.5048 31.36C66.5948 31.36 68.5448 29.83 69.4448 27.76L67.7348 26.59C66.9548 28.27 65.6048 29.29 63.5348 29.29C60.6248 29.29 59.0648 27.31 59.0648 24.58V21.94C59.0648 19.21 60.6548 17.23 63.4748 17.23C65.3948 17.23 66.7148 18.16 67.2848 19.75L69.2048 18.73C68.3348 16.63 66.4748 15.16 63.4748 15.16C59.0948 15.16 56.4848 18.34 56.4848 23.26C56.4848 28.15 59.0648 31.36 63.5048 31.36ZM81.2231 31.36C84.2831 31.36 86.5031 29.86 87.4331 27.79L85.6631 26.59C84.8531 28.27 83.2931 29.29 81.2231 29.29C78.3131 29.29 76.4831 27.31 76.4831 24.58V23.86H87.9431V22.72C87.9431 18.34 85.2431 15.16 81.0731 15.16C76.8731 15.16 73.9631 18.34 73.9631 23.29C73.9631 28.18 76.7831 31.36 81.2231 31.36ZM81.0731 17.14C83.6231 17.14 85.3631 19 85.3631 21.73V22.06H76.4831V21.85C76.4831 19.15 78.4331 17.14 81.0731 17.14ZM92.3414 28.96V31H105.541V28.96H100.141V8.8H92.3414V10.84H97.7414V28.96H92.3414ZM116 20.74L122.33 31H125.27L117.71 18.88L125.06 10.06H122.03L115.85 17.5L113.09 20.98H113V10.06H110.48V31H113V24.28L116 20.74ZM135.188 31.36C138.248 31.36 140.468 29.86 141.398 27.79L139.628 26.59C138.818 28.27 137.258 29.29 135.188 29.29C132.278 29.29 130.448 27.31 130.448 24.58V23.86H141.908V22.72C141.908 18.34 139.208 15.16 135.038 15.16C130.838 15.16 127.928 18.34 127.928 23.29C127.928 28.18 130.748 31.36 135.188 31.36ZM135.038 17.14C137.588 17.14 139.328 19 139.328 21.73V22.06H130.448V21.85C130.448 19.15 132.398 17.14 135.038 17.14ZM157.916 15.52L155.306 22L152.996 27.88H152.876L150.566 22L147.956 15.52H145.496L151.736 30.7L149.996 34.96H146.396V37H148.676C151.016 37 151.916 36.16 152.636 34.39L160.316 15.52H157.916ZM190.143 12.25H197.133V10.06H180.633V12.25H187.623V31H190.143V12.25ZM200.181 28.96V31H213.111V28.96H207.111V20.47C207.111 19 208.731 17.92 211.431 17.92H214.641V15.52H211.911C209.331 15.52 207.861 16.81 207.261 18.28H207.111V15.52H200.181V17.56H204.711V28.96H200.181ZM230.709 31H232.359V28.9H230.199V20.38C230.199 17.11 227.889 15.16 224.259 15.16C221.109 15.16 219.129 16.66 218.349 18.28L219.969 19.48C220.779 18.07 222.039 17.2 224.109 17.2C226.449 17.2 227.799 18.37 227.799 20.62V22.15H224.499C219.849 22.15 217.839 23.8 217.839 26.65C217.839 29.56 219.909 31.36 223.149 31.36C225.669 31.36 227.139 30.25 227.799 28.48H227.949C228.129 29.92 228.849 31 230.709 31ZM223.569 29.35C221.589 29.35 220.359 28.51 220.359 26.92V26.29C220.359 24.79 221.649 23.95 224.499 23.95H227.799V26.5C227.799 28.09 226.029 29.35 223.569 29.35ZM243.388 31.36C246.478 31.36 248.428 29.83 249.328 27.76L247.618 26.59C246.838 28.27 245.488 29.29 243.418 29.29C240.508 29.29 238.948 27.31 238.948 24.58V21.94C238.948 19.21 240.538 17.23 243.358 17.23C245.278 17.23 246.598 18.16 247.168 19.75L249.088 18.73C248.218 16.63 246.358 15.16 243.358 15.16C238.978 15.16 236.368 18.34 236.368 23.26C236.368 28.15 238.948 31.36 243.388 31.36ZM254.986 8.8V31H257.386V25.39L260.056 22.96L266.086 31H269.056L261.886 21.58L268.306 15.52H265.366L260.206 20.26L257.506 22.81H257.386V8.8H254.986ZM279.094 31.36C282.154 31.36 284.374 29.86 285.304 27.79L283.534 26.59C282.724 28.27 281.164 29.29 279.094 29.29C276.184 29.29 274.354 27.31 274.354 24.58V23.86H285.814V22.72C285.814 18.34 283.114 15.16 278.944 15.16C274.744 15.16 271.834 18.34 271.834 23.29C271.834 28.18 274.654 31.36 279.094 31.36ZM278.944 17.14C281.494 17.14 283.234 19 283.234 21.73V22.06H274.354V21.85C274.354 19.15 276.304 17.14 278.944 17.14ZM290.122 28.96V31H303.053V28.96H297.052V20.47C297.052 19 298.672 17.92 301.372 17.92H304.583V15.52H301.852C299.272 15.52 297.803 16.81 297.202 18.28H297.052V15.52H290.122V17.56H294.653V28.96H290.122Z" transform="translate(502 819)" fill="black"/>
<path d="M9 31.36C14.1 31.36 16.32 27.37 16.32 20.53C16.32 13.69 14.1 9.7 9 9.7C3.9 9.7 1.68 13.69 1.68 20.53C1.68 27.37 3.9 31.36 9 31.36ZM9 29.17C5.67 29.17 4.35 26.44 4.35 22.24V18.82C4.35 14.62 5.67 11.89 9 11.89C12.33 11.89 13.65 14.62 13.65 18.82V22.24C13.65 26.44 12.33 29.17 9 29.17ZM21.5883 31H34.0383V28.81H24.1083V10.06H21.5883V31ZM38.6766 31H51.5766V28.81H41.1966V21.49H51.2166V19.3H41.1966V12.25H51.5766V10.06H38.6766V31ZM56.8148 10.06V31H62.6648C67.7648 31 70.2848 27.4 70.2848 20.53C70.2848 13.66 67.7648 10.06 62.6648 10.06H56.8148ZM62.5448 28.81H59.3348V12.25H62.5448C65.8748 12.25 67.6148 14.71 67.6148 18.91V22.15C67.6148 26.35 65.8748 28.81 62.5448 28.81ZM92.7914 10.06V31H98.6414C103.741 31 106.261 27.4 106.261 20.53C106.261 13.66 103.741 10.06 98.6414 10.06H92.7914ZM98.5214 28.81H95.3114V12.25H98.5214C101.851 12.25 103.591 14.71 103.591 18.91V22.15C103.591 26.35 101.851 28.81 98.5214 28.81ZM117.89 12.1C119.27 12.1 119.78 11.44 119.78 10.57V10.09C119.78 9.22 119.27 8.56 117.89 8.56C116.51 8.56 116 9.22 116 10.09V10.57C116 11.44 116.51 12.1 117.89 12.1ZM111.11 28.96V31H124.31V28.96H119.09V15.52H111.11V17.56H116.69V28.96H111.11ZM135.098 31.36C139.058 31.36 141.638 29.59 141.638 26.53C141.638 23.17 138.548 22.57 136.328 22.24L133.898 21.88C132.518 21.67 131.168 21.25 131.168 19.63C131.168 18.04 132.518 17.17 134.948 17.17C137.678 17.17 139.058 18.25 139.778 19.12L141.338 17.65C139.868 16.09 137.828 15.16 135.038 15.16C131.438 15.16 128.798 16.69 128.798 19.78C128.798 23.14 131.918 23.74 134.108 24.07L136.538 24.43C137.948 24.64 139.268 25.06 139.268 26.68C139.268 28.51 137.558 29.35 135.158 29.35C132.698 29.35 131.018 28.48 129.548 26.92L127.928 28.33C129.548 30.16 131.858 31.36 135.098 31.36ZM146.756 15.52V37H149.156V28.48H149.276C150.266 30.37 151.886 31.36 154.046 31.36C157.826 31.36 160.106 28.33 160.106 23.26C160.106 18.19 157.826 15.16 154.046 15.16C151.886 15.16 150.266 16.15 149.276 18.04H149.156V15.52H146.756ZM153.116 29.23C150.986 29.23 149.156 28.12 149.156 26.05V20.47C149.156 18.4 150.986 17.29 153.116 17.29C155.906 17.29 157.526 19.15 157.526 21.94V24.58C157.526 27.37 155.906 29.23 153.116 29.23ZM164.295 28.96V31H177.495V28.96H172.095V8.8H164.295V10.84H169.695V28.96H164.295ZM194.733 31H196.383V28.9H194.223V20.38C194.223 17.11 191.913 15.16 188.283 15.16C185.133 15.16 183.153 16.66 182.373 18.28L183.993 19.48C184.803 18.07 186.063 17.2 188.133 17.2C190.473 17.2 191.823 18.37 191.823 20.62V22.15H188.523C183.873 22.15 181.863 23.8 181.863 26.65C181.863 29.56 183.933 31.36 187.173 31.36C189.693 31.36 191.163 30.25 191.823 28.48H191.973C192.153 29.92 192.873 31 194.733 31ZM187.593 29.35C185.613 29.35 184.383 28.51 184.383 26.92V26.29C184.383 24.79 185.673 23.95 188.523 23.95H191.823V26.5C191.823 28.09 190.053 29.35 187.593 29.35ZM211.881 15.52L209.271 22L206.961 27.88H206.841L204.531 22L201.921 15.52H199.461L205.701 30.7L203.961 34.96H200.361V37H202.641C204.981 37 205.881 36.16 206.601 34.39L214.281 15.52H211.881Z" transform="translate(1021 160)" fill="black"/>
<path d="M13.32 28.21V31H15.66V20.65H8.91V22.66H13.32V24.82C13.32 27.4 11.7 29.23 9 29.23C5.58 29.23 4.35 26.26 4.35 22.06V18.82C4.35 14.62 5.88 11.89 9.24 11.89C11.76 11.89 12.75 13.42 13.5 15.28L15.66 14.29C14.76 12.01 13.08 9.7 9.15 9.7C4.11 9.7 1.68 13.54 1.68 20.68C1.68 27.52 3.9 31.36 8.43 31.36C11.31 31.36 12.48 29.83 13.17 28.21H13.32ZM20.6883 31H23.2083V22.12H28.3083C32.1783 22.12 34.2783 19.87 34.2783 16.09C34.2783 12.31 32.1783 10.06 28.3083 10.06H20.6883V31ZM23.2083 19.93V12.25H28.2483C30.3483 12.25 31.6083 13.36 31.6083 15.31V16.87C31.6083 18.82 30.3483 19.93 28.2483 19.93H23.2083ZM44.9166 31.36C49.5666 31.36 52.2366 29.02 52.2366 25.15C52.2366 22.42 50.8866 20.14 46.7766 19.42L44.5266 19.03C41.5566 18.52 40.5966 17.32 40.5966 15.46C40.5966 13.09 42.1866 11.86 45.0066 11.86C47.6166 11.86 49.1166 12.91 50.2866 14.44L52.0566 12.91C50.6466 10.9 48.3666 9.7 45.0366 9.7C40.7766 9.7 38.0466 11.68 38.0466 15.52C38.0466 18.16 39.3366 20.53 43.4466 21.22L45.7866 21.61C48.6366 22.09 49.6866 23.17 49.6866 25.21C49.6866 27.73 48.0366 29.2 45.0066 29.2C42.4866 29.2 40.7766 28.21 39.1566 26.17L37.3266 27.67C38.8866 29.83 41.1666 31.36 44.9166 31.36Z" transform="translate(1225 71.7063)" fill="black"/>
<path d="M5.85 31H8.64L11.43 20.56L13.41 12.88H13.47L15.39 20.56L18.12 31H20.91L26.28 10.06H23.7L21.33 20.14L19.53 27.94H19.44L17.49 20.14L14.94 10.06H12.06L9.42 20.14L7.47 27.97H7.41L5.67 20.14L3.42 10.06H0.75L5.85 31ZM30.6117 31H43.0617V28.81H33.1317V10.06H30.6117V31ZM59.43 31H62.1L55.68 10.06H52.35L45.93 31H48.54L50.31 25.03H57.66L59.43 31ZM54.12 12.73L57.06 22.84H50.91L53.85 12.73H54.12ZM67.8783 13.27L75.0183 31H78.5883V10.06H76.3083V27.61H76.0983L68.9583 10.06H65.3883V31H67.6683V13.27H67.8783Z" transform="translate(1347 71.7063)" fill="black"/>
<path d="M5.22 31V22.06H8.55L13.65 31H16.47L11.13 21.94C14.46 21.61 16.29 19.45 16.29 16.09C16.29 12.31 14.19 10.06 10.32 10.06H2.7V31H5.22ZM10.26 19.93H5.22V12.25H10.26C12.36 12.25 13.62 13.36 13.62 15.31V16.87C13.62 18.82 12.36 19.93 10.26 19.93ZM20.6883 31H23.2083V21.49H32.9883V19.3H23.2083V12.25H33.8883V10.06H20.6883V31ZM38.4966 31H51.4566V28.99H46.2366V12.07H51.4566V10.06H38.4966V12.07H43.7166V28.99H38.4966V31ZM56.8148 10.06V31H62.6648C67.7648 31 70.2848 27.4 70.2848 20.53C70.2848 13.66 67.7648 10.06 62.6648 10.06H56.8148ZM62.5448 28.81H59.3348V12.25H62.5448C65.8748 12.25 67.6148 14.71 67.6148 18.91V22.15C67.6148 26.35 65.8748 28.81 62.5448 28.81Z" transform="translate(1483 72)" fill="black"/>
<path d="M14.43 31H17.1L10.68 10.06H7.35L0.93 31H3.54L5.31 25.03H12.66L14.43 31ZM9.12 12.73L12.06 22.84H5.91L8.85 12.73H9.12ZM21.1383 8.8V31H23.5383V25.39L26.2083 22.96L32.2383 31H35.2083L28.0383 21.58L34.4583 15.52H31.5183L26.3583 20.26L23.6583 22.81H23.5383V8.8H21.1383ZM39.1266 8.8V31H41.5266V25.39L44.1966 22.96L50.2266 31H53.1966L46.0266 21.58L52.4466 15.52H49.5066L44.3466 20.26L41.6466 22.81H41.5266V8.8H39.1266ZM66.6248 28.48V31H69.0248V15.52H66.6248V26.26C66.6248 28.3 64.7048 29.23 62.7848 29.23C60.4148 29.23 59.1248 27.85 59.1248 25.03V15.52H56.7248V25.45C56.7248 29.2 58.8548 31.36 62.0948 31.36C64.6448 31.36 65.8448 30.01 66.5048 28.48H66.6248ZM97.8014 29.14H100.081V22.87H106.081V20.83H100.081V14.56H97.8014V20.83H91.8014V22.87H97.8014V29.14ZM130.838 10.06H128.318V22.03C128.318 28.24 129.218 31.36 134.918 31.36C140.618 31.36 141.518 28.24 141.518 22.03V10.06H138.998V22.63C138.998 26.68 138.848 29.17 134.918 29.17C130.988 29.17 130.838 26.68 130.838 22.63V10.06ZM152.846 31.36C157.496 31.36 160.166 29.02 160.166 25.15C160.166 22.42 158.816 20.14 154.706 19.42L152.456 19.03C149.486 18.52 148.526 17.32 148.526 15.46C148.526 13.09 150.116 11.86 152.936 11.86C155.546 11.86 157.046 12.91 158.216 14.44L159.986 12.91C158.576 10.9 156.296 9.7 152.966 9.7C148.706 9.7 145.976 11.68 145.976 15.52C145.976 18.16 147.266 20.53 151.376 21.22L153.716 21.61C156.566 22.09 157.616 23.17 157.616 25.21C157.616 27.73 155.966 29.2 152.936 29.2C150.416 29.2 148.706 28.21 147.086 26.17L145.256 27.67C146.816 29.83 149.096 31.36 152.846 31.36ZM164.535 10.06V31H172.545C175.785 31 178.185 28.36 178.185 24.97C178.185 22.06 176.475 20.59 174.135 20.05V19.96C176.055 19.36 177.405 17.95 177.405 15.46C177.405 12.19 175.215 10.06 171.645 10.06H164.535ZM171.795 28.81H167.055V21.22H171.795C174.105 21.22 175.515 22.3 175.515 24.4V25.63C175.515 27.76 174.105 28.81 171.795 28.81ZM171.375 19.15H167.055V12.25H171.375C173.475 12.25 174.765 13.21 174.765 15.13V16.3C174.765 18.22 173.475 19.15 171.375 19.15ZM207.561 31.36C211.401 31.36 212.991 29.05 214.011 26.77L211.851 25.78C211.101 27.64 210.111 29.17 207.561 29.17C204.231 29.17 202.641 26.44 202.641 22.24V18.82C202.641 14.62 204.231 11.89 207.561 11.89C210.111 11.89 211.101 13.42 211.851 15.28L214.011 14.29C212.991 12.01 211.401 9.7 207.561 9.7C202.461 9.7 199.971 13.57 199.971 20.53C199.971 27.49 202.461 31.36 207.561 31.36Z" transform="translate(1605.47 72)" fill="black"/>
<path d="M5.82 31H12.18L17.73 10.06H12.96L10.47 20.71L9.21 26.74H8.97L7.74 20.71L5.28 10.06H0.27L5.82 31ZM26.9883 31.36C31.8183 31.36 34.7583 28.27 34.7583 23.26C34.7583 18.25 31.8183 15.16 26.9883 15.16C22.1583 15.16 19.2183 18.25 19.2183 23.26C19.2183 28.27 22.1583 31.36 26.9883 31.36ZM26.9883 28.06C25.0083 28.06 23.8083 26.77 23.8083 24.49V22.03C23.8083 19.75 25.0083 18.46 26.9883 18.46C28.9683 18.46 30.1683 19.75 30.1683 22.03V24.49C30.1683 26.77 28.9683 28.06 26.9883 28.06ZM38.1966 27.55V31H51.3066V27.55H46.2066V22.21C46.2066 20.47 47.5566 19.6 49.5366 19.6H52.8366V15.52H51.3666C48.5466 15.52 47.0766 17.5 46.4166 19.54H46.2066V15.52H38.1966V18.97H41.7666V27.55H38.1966ZM65.7548 28.18V31H70.1948V8.8H65.7548V18.34H65.5448C64.7648 16.48 63.4448 15.16 60.9548 15.16C57.5348 15.16 55.1348 17.65 55.1348 23.26C55.1348 28.87 57.5348 31.36 60.9548 31.36C63.4448 31.36 64.7648 30.04 65.5448 28.18H65.7548ZM62.8748 27.91C60.8948 27.91 59.7548 26.62 59.7548 24.46V22.06C59.7548 19.9 60.8948 18.61 62.8748 18.61C64.4348 18.61 65.7548 19.36 65.7548 20.98V25.54C65.7548 27.16 64.4348 27.91 62.8748 27.91ZM81.3731 31.36C84.7031 31.36 86.8031 30.1 88.0031 28.63L85.6031 26.02C84.6431 27.16 83.3531 27.94 81.5231 27.94C79.1531 27.94 77.8631 26.59 77.8631 24.61V24.34H88.4531V23.02C88.4531 18.19 85.6031 15.16 80.9831 15.16C76.3331 15.16 73.4531 18.25 73.4531 23.32C73.4531 28.27 76.1831 31.36 81.3731 31.36ZM81.0131 18.34C82.9331 18.34 84.1031 19.6 84.1031 21.61V21.85H77.8631V21.61C77.8631 19.63 79.0931 18.34 81.0131 18.34ZM92.1614 27.55V31H105.271V27.55H100.171V22.21C100.171 20.47 101.521 19.6 103.501 19.6H106.801V15.52H105.331C102.511 15.52 101.041 17.5 100.381 19.54H100.171V15.52H92.1614V18.97H95.7314V27.55H92.1614ZM116.75 31.36C121.34 31.36 123.95 29.32 123.95 26.11C123.95 23.17 121.76 22 118.97 21.58L116.51 21.19C115.31 21.01 114.59 20.74 114.59 19.84C114.59 18.82 115.49 18.28 117.17 18.28C119.18 18.28 120.65 19.06 121.55 20.05L123.77 17.53C122.48 16.03 120.35 15.16 117.32 15.16C112.85 15.16 110.24 17.11 110.24 20.35C110.24 23.29 112.43 24.46 115.19 24.88L117.68 25.27C118.88 25.45 119.6 25.72 119.6 26.59C119.6 27.7 118.52 28.24 116.78 28.24C114.71 28.24 113.09 27.46 111.89 26.14L109.4 28.45C110.66 30.25 113.33 31.36 116.75 31.36ZM135.338 31.36C138.668 31.36 140.768 30.1 141.968 28.63L139.568 26.02C138.608 27.16 137.318 27.94 135.488 27.94C133.118 27.94 131.828 26.59 131.828 24.61V24.34H142.418V23.02C142.418 18.19 139.568 15.16 134.948 15.16C130.298 15.16 127.418 18.25 127.418 23.32C127.418 28.27 130.148 31.36 135.338 31.36ZM134.978 18.34C136.898 18.34 138.068 19.6 138.068 21.61V21.85H131.828V21.61C131.828 19.63 133.058 18.34 134.978 18.34ZM153.866 13.54C155.846 13.54 156.536 12.61 156.536 11.44V10.57C156.536 9.37 155.846 8.47 153.866 8.47C151.886 8.47 151.196 9.37 151.196 10.57V11.44C151.196 12.61 151.886 13.54 153.866 13.54ZM146.726 27.55V31H160.646V27.55H156.086V15.52H146.726V18.97H151.646V27.55H146.726ZM172.095 31H177.825V27.55H171.795V18.97H177.825V15.52H171.795V10.06H167.715V13.69C167.715 15.07 167.205 15.52 165.885 15.52H163.155V18.97H167.355V26.53C167.355 29.14 168.885 31 172.095 31ZM189.303 31.36C192.633 31.36 194.733 30.1 195.933 28.63L193.533 26.02C192.573 27.16 191.283 27.94 189.453 27.94C187.083 27.94 185.793 26.59 185.793 24.61V24.34H196.383V23.02C196.383 18.19 193.533 15.16 188.913 15.16C184.263 15.16 181.383 18.25 181.383 23.32C181.383 28.27 184.113 31.36 189.303 31.36ZM188.943 18.34C190.863 18.34 192.033 19.6 192.033 21.61V21.85H185.793V21.61C185.793 19.63 187.023 18.34 188.943 18.34Z" transform="translate(1584 501)" fill="black"/>
<path d="M6.72 31V23.23H8.79L12.3 31H17.22L13.11 22.63C15.45 21.97 16.8 19.66 16.8 16.72C16.8 12.67 14.49 10.06 10.38 10.06H2.28V31H6.72ZM9.3 19.75H6.72V13.69H9.3C11.4 13.69 12.12 14.44 12.12 16.27V17.17C12.12 19 11.4 19.75 9.3 19.75ZM23.6283 13.27C25.4283 13.27 26.0583 12.43 26.0583 11.38V10.6C26.0583 9.55 25.4283 8.74 23.6283 8.74C21.8583 8.74 21.2283 9.55 21.2283 10.6V11.38C21.2283 12.43 21.8583 13.27 23.6283 13.27ZM30.2283 13.27C31.9983 13.27 32.6283 12.43 32.6283 11.38V10.6C32.6283 9.55 31.9983 8.74 30.2283 8.74C28.4283 8.74 27.7983 9.55 27.7983 10.6V11.38C27.7983 12.43 28.4283 13.27 30.2283 13.27ZM29.5983 28.18V31H34.0383V15.52H29.5983V25.69C29.5983 27.19 28.2483 27.94 26.8683 27.94C25.1283 27.94 24.2583 26.89 24.2583 24.94V15.52H19.8183V25.54C19.8183 29.29 21.8883 31.36 24.8583 31.36C27.3483 31.36 28.7283 29.92 29.4183 28.18H29.5983ZM45.6066 31.36C49.0566 31.36 51.1566 29.83 52.2666 27.58L48.9066 25.66C48.2466 26.92 47.3466 27.82 45.6366 27.82C43.5366 27.82 42.3966 26.56 42.3966 24.52V22C42.3966 19.96 43.5666 18.7 45.5766 18.7C47.2266 18.7 48.0666 19.6 48.6066 20.8L52.0266 18.94C50.9466 16.69 48.9666 15.16 45.5766 15.16C40.7466 15.16 37.7766 18.25 37.7766 23.26C37.7766 28.27 40.7166 31.36 45.6066 31.36ZM55.9148 8.8V31H60.3548V25.63L61.8248 24.16L66.3248 31H71.6048L64.9748 21.64L70.9748 15.52H65.8748L62.6348 18.97L60.5648 21.4H60.3548V8.8H55.9148ZM80.7731 31.36C85.3631 31.36 87.9731 29.32 87.9731 26.11C87.9731 23.17 85.7831 22 82.9931 21.58L80.5331 21.19C79.3331 21.01 78.6131 20.74 78.6131 19.84C78.6131 18.82 79.5131 18.28 81.1931 18.28C83.2031 18.28 84.6731 19.06 85.5731 20.05L87.7931 17.53C86.5031 16.03 84.3731 15.16 81.3431 15.16C76.8731 15.16 74.2631 17.11 74.2631 20.35C74.2631 23.29 76.4531 24.46 79.2131 24.88L81.7031 25.27C82.9031 25.45 83.6231 25.72 83.6231 26.59C83.6231 27.7 82.5431 28.24 80.8031 28.24C78.7331 28.24 77.1131 27.46 75.9131 26.14L73.4231 28.45C74.6831 30.25 77.3531 31.36 80.7731 31.36ZM99.3614 31.36C102.691 31.36 104.791 30.1 105.991 28.63L103.591 26.02C102.631 27.16 101.341 27.94 99.5114 27.94C97.1414 27.94 95.8514 26.59 95.8514 24.61V24.34H106.441V23.02C106.441 18.19 103.591 15.16 98.9714 15.16C94.3214 15.16 91.4414 18.25 91.4414 23.32C91.4414 28.27 94.1714 31.36 99.3614 31.36ZM99.0014 18.34C100.921 18.34 102.091 19.6 102.091 21.61V21.85H95.8514V21.61C95.8514 19.63 97.0814 18.34 99.0014 18.34ZM117.89 13.54C119.87 13.54 120.56 12.61 120.56 11.44V10.57C120.56 9.37 119.87 8.47 117.89 8.47C115.91 8.47 115.22 9.37 115.22 10.57V11.44C115.22 12.61 115.91 13.54 117.89 13.54ZM110.75 27.55V31H124.67V27.55H120.11V15.52H110.75V18.97H115.67V27.55H110.75ZM136.118 31H141.848V27.55H135.818V18.97H141.848V15.52H135.818V10.06H131.738V13.69C131.738 15.07 131.228 15.52 129.908 15.52H127.178V18.97H131.378V26.53C131.378 29.14 132.908 31 136.118 31ZM153.326 31.36C156.656 31.36 158.756 30.1 159.956 28.63L157.556 26.02C156.596 27.16 155.306 27.94 153.476 27.94C151.106 27.94 149.816 26.59 149.816 24.61V24.34H160.406V23.02C160.406 18.19 157.556 15.16 152.936 15.16C148.286 15.16 145.406 18.25 145.406 23.32C145.406 28.27 148.136 31.36 153.326 31.36ZM152.966 18.34C154.886 18.34 156.056 19.6 156.056 21.61V21.85H149.816V21.61C149.816 19.63 151.046 18.34 152.966 18.34Z" transform="translate(1621 921)" fill="black"/>
<path d="M14.43 31H17.1L10.68 10.06H7.35L0.93 31H3.54L5.31 25.03H12.66L14.43 31ZM9.12 12.73L12.06 22.84H5.91L8.85 12.73H9.12ZM30.6483 28.48V31H33.0483V15.52H30.6483V26.26C30.6483 28.3 28.7283 29.23 26.8083 29.23C24.4383 29.23 23.1483 27.85 23.1483 25.03V15.52H20.7483V25.45C20.7483 29.2 22.8783 31.36 26.1183 31.36C28.6683 31.36 29.8683 30.01 30.5283 28.48H30.6483ZM39.0366 17.56V31H41.4066V15.16C41.4066 12.01 42.6066 10.45 45.1266 10.45C47.6166 10.45 48.7566 11.95 48.7566 15.16V15.4C45.6666 15.46 43.7166 16.99 43.7166 19.78C43.7166 22.72 45.8466 23.41 48.0966 24.13L48.8466 24.37C50.4666 24.88 50.8866 25.93 50.8866 27.04C50.8866 28.72 49.9266 29.44 48.1266 29.44C46.6566 29.44 45.4566 28.96 44.5266 27.7L42.9966 29.08C44.2566 30.67 45.7866 31.36 47.9766 31.36C51.1866 31.36 53.1366 29.86 53.1366 26.8C53.1366 24.28 51.8166 23.2 48.9966 22.27L48.2766 22.03C46.8366 21.55 45.9666 21.13 45.9666 19.69C45.9666 17.89 47.2866 17.2 49.6866 17.2H51.0966V15.37C51.0966 11.17 48.9966 8.44 45.1566 8.44C41.2866 8.44 39.0366 11.17 39.0366 15.37V15.52H36.8166V17.56H39.0366ZM63.2348 31.36C66.2948 31.36 68.5148 29.86 69.4448 27.79L67.6748 26.59C66.8648 28.27 65.3048 29.29 63.2348 29.29C60.3248 29.29 58.4948 27.31 58.4948 24.58V23.86H69.9548V22.72C69.9548 18.34 67.2548 15.16 63.0848 15.16C58.8848 15.16 55.9748 18.34 55.9748 23.29C55.9748 28.18 58.7948 31.36 63.2348 31.36ZM63.0848 17.14C65.6348 17.14 67.3748 19 67.3748 21.73V22.06H58.4948V21.85C58.4948 19.15 60.4448 17.14 63.0848 17.14ZM74.8931 31H77.2931V20.26C77.2931 18.22 79.2131 17.29 81.1331 17.29C83.5031 17.29 84.7931 18.67 84.7931 21.49V31H87.1931V21.07C87.1931 17.32 85.0631 15.16 81.8231 15.16C79.2731 15.16 78.0731 16.51 77.4131 18.04H77.2931V15.52H74.8931V31ZM92.7914 8.8V31H95.1914V28.48H95.3114C96.3014 30.37 97.9214 31.36 100.081 31.36C103.861 31.36 106.141 28.33 106.141 23.26C106.141 18.19 103.861 15.16 100.081 15.16C97.9214 15.16 96.3014 16.15 95.3114 18.04H95.1914V8.8H92.7914ZM99.1514 29.23C97.0214 29.23 95.1914 28.12 95.1914 26.05V20.47C95.1914 18.4 97.0214 17.29 99.1514 17.29C101.941 17.29 103.561 19.15 103.561 21.94V24.58C103.561 27.37 101.941 29.23 99.1514 29.23ZM117.2 31.36C120.26 31.36 122.48 29.86 123.41 27.79L121.64 26.59C120.83 28.27 119.27 29.29 117.2 29.29C114.29 29.29 112.46 27.31 112.46 24.58V23.86H123.92V22.72C123.92 18.34 121.22 15.16 117.05 15.16C112.85 15.16 109.94 18.34 109.94 23.29C109.94 28.18 112.76 31.36 117.2 31.36ZM117.05 17.14C119.6 17.14 121.34 19 121.34 21.73V22.06H112.46V21.85C112.46 19.15 114.41 17.14 117.05 17.14ZM128.408 28.96V31H141.548V28.96H136.028V17.56H142.238V15.52H136.028V10.84H142.238V8.8H137.048C134.708 8.8 133.628 10.27 133.628 12.34V15.52H128.108V17.56H133.628V28.96H128.408ZM153.176 31.36C156.236 31.36 158.456 29.86 159.386 27.79L157.616 26.59C156.806 28.27 155.246 29.29 153.176 29.29C150.266 29.29 148.436 27.31 148.436 24.58V23.86H159.896V22.72C159.896 18.34 157.196 15.16 153.026 15.16C148.826 15.16 145.916 18.34 145.916 23.29C145.916 28.18 148.736 31.36 153.176 31.36ZM153.026 17.14C155.576 17.14 157.316 19 157.316 21.73V22.06H148.436V21.85C148.436 19.15 150.386 17.14 153.026 17.14ZM171.075 31.36C175.035 31.36 177.615 29.59 177.615 26.53C177.615 23.17 174.525 22.57 172.305 22.24L169.875 21.88C168.495 21.67 167.145 21.25 167.145 19.63C167.145 18.04 168.495 17.17 170.925 17.17C173.655 17.17 175.035 18.25 175.755 19.12L177.315 17.65C175.845 16.09 173.805 15.16 171.015 15.16C167.415 15.16 164.775 16.69 164.775 19.78C164.775 23.14 167.895 23.74 170.085 24.07L172.515 24.43C173.925 24.64 175.245 25.06 175.245 26.68C175.245 28.51 173.535 29.35 171.135 29.35C168.675 29.35 166.995 28.48 165.525 26.92L163.905 28.33C165.525 30.16 167.835 31.36 171.075 31.36ZM189.633 31H195.663V28.96H188.613V17.56H195.663V15.52H188.613V10.06H186.303V14.11C186.303 15.16 185.913 15.52 184.893 15.52H181.053V17.56H186.213V27.46C186.213 29.53 187.293 31 189.633 31ZM207.831 12.1C209.211 12.1 209.721 11.44 209.721 10.57V10.09C209.721 9.22 209.211 8.56 207.831 8.56C206.451 8.56 205.941 9.22 205.941 10.09V10.57C205.941 11.44 206.451 12.1 207.831 12.1ZM201.051 28.96V31H214.251V28.96H209.031V15.52H201.051V17.56H206.631V28.96H201.051ZM231.009 30.49V15.52H228.609V18.04H228.489C227.499 16.15 225.879 15.16 223.719 15.16C219.939 15.16 217.659 18.19 217.659 23.05C217.659 27.91 219.939 30.94 223.719 30.94C225.879 30.94 227.499 29.95 228.489 28.06H228.609V30.64C228.609 33.7 227.139 35.26 224.229 35.26C222.459 35.26 221.109 34.66 220.059 33.58L218.649 35.23C219.879 36.49 221.679 37.36 224.199 37.36C228.519 37.36 231.009 34.75 231.009 30.49ZM224.649 28.81C221.859 28.81 220.239 26.95 220.239 24.16V21.94C220.239 19.15 221.859 17.29 224.649 17.29C226.779 17.29 228.609 18.4 228.609 20.47V25.63C228.609 27.7 226.779 28.81 224.649 28.81ZM246.508 28.48V31H248.908V15.52H246.508V26.26C246.508 28.3 244.588 29.23 242.668 29.23C240.298 29.23 239.008 27.85 239.008 25.03V15.52H236.608V25.45C236.608 29.2 238.738 31.36 241.978 31.36C244.528 31.36 245.728 30.01 246.388 28.48H246.508ZM254.776 31H257.176V20.26C257.176 18.22 259.096 17.29 261.016 17.29C263.386 17.29 264.676 18.67 264.676 21.49V31H267.076V21.07C267.076 17.32 264.946 15.16 261.706 15.16C259.156 15.16 257.956 16.51 257.296 18.04H257.176V15.52H254.776V31ZM284.974 30.49V15.52H282.574V18.04H282.454C281.464 16.15 279.844 15.16 277.684 15.16C273.904 15.16 271.624 18.19 271.624 23.05C271.624 27.91 273.904 30.94 277.684 30.94C279.844 30.94 281.464 29.95 282.454 28.06H282.574V30.64C282.574 33.7 281.104 35.26 278.194 35.26C276.424 35.26 275.074 34.66 274.024 33.58L272.614 35.23C273.844 36.49 275.644 37.36 278.164 37.36C282.484 37.36 284.974 34.75 284.974 30.49ZM278.614 28.81C275.824 28.81 274.204 26.95 274.204 24.16V21.94C274.204 19.15 275.824 17.29 278.614 17.29C280.744 17.29 282.574 18.4 282.574 20.47V25.63C282.574 27.7 280.744 28.81 278.614 28.81Z" transform="translate(197 703)" fill="black"/>
<path fill-rule="evenodd" clip-rule="evenodd" d="M0 11.2C0 7.27963 0 5.31945 0.762954 3.82207C1.43407 2.50493 2.50493 1.43407 3.82207 0.762954C5.31945 0 7.27963 0 11.2 0H148.8C152.72 0 154.681 0 156.178 0.762954C157.495 1.43407 158.566 2.50493 159.237 3.82207C160 5.31945 160 7.27963 160 11.2V87.8C160 91.7204 160 93.6805 159.237 95.1779C158.566 96.4951 157.495 97.5659 156.178 98.237C154.681 99 152.72 99 148.8 99H11.2C7.27963 99 5.31945 99 3.82207 98.237C2.50493 97.5659 1.43407 96.4951 0.762954 95.1779C0 93.6805 0 91.7204 0 87.8V11.2Z" transform="translate(614 491)" fill="white" stroke="black" stroke-width="4"/>
<path fill-rule="evenodd" clip-rule="evenodd" d="M0 96L157 0H0V96Z" transform="translate(616 492)" fill="#D8D8D8" fill-opacity="0.3"/>
<path fill-rule="evenodd" clip-rule="evenodd" d="M1.92188 0.179688C2.06771 0.382814 2.22786 0.614582 2.40234 0.875C2.57682 1.13542 2.76562 1.42448 2.96875 1.74219C3.02083 1.82552 3.04297 1.91927 3.03516 2.02344C3.02734 2.1276 2.98958 2.23958 2.92188 2.35938C2.89583 2.41146 2.85156 2.49479 2.78906 2.60938C2.72656 2.72396 2.64583 2.8724 2.54688 3.05469C2.65625 3.21094 2.79557 3.38542 2.96484 3.57812C3.13412 3.77083 3.33073 3.97917 3.55469 4.20312C3.78386 4.43229 3.99349 4.63151 4.18359 4.80078C4.3737 4.97005 4.54427 5.10937 4.69531 5.21875C4.8724 5.11458 5.01953 5.02995 5.13672 4.96484C5.25391 4.89974 5.33854 4.85417 5.39062 4.82812C5.45313 4.79167 5.51693 4.76432 5.58203 4.74609C5.64714 4.72786 5.70833 4.71875 5.76562 4.71875C5.8125 4.71875 5.85547 4.72396 5.89453 4.73438C5.93359 4.74479 5.97135 4.76042 6.00781 4.78125C6.24219 4.92188 6.48958 5.07943 6.75 5.25391C7.01042 5.42839 7.28906 5.61979 7.58594 5.82812C7.63802 5.86458 7.67969 5.91146 7.71094 5.96875C7.74219 6.02604 7.76302 6.08854 7.77344 6.15625C7.77865 6.22917 7.77083 6.30339 7.75 6.37891C7.72917 6.45443 7.69271 6.53125 7.64062 6.60938C7.61979 6.64583 7.58854 6.6901 7.54688 6.74219C7.50521 6.79427 7.45573 6.85417 7.39844 6.92188C7.34635 6.98958 7.27865 7.06641 7.19531 7.15234C7.11198 7.23828 7.01302 7.33333 6.89844 7.4375C6.78906 7.54167 6.6888 7.61979 6.59766 7.67188C6.50651 7.72396 6.42708 7.75 6.35938 7.75H6.34375C6.07292 7.73958 5.78906 7.68099 5.49219 7.57422C5.19531 7.46745 4.88281 7.3151 4.55469 7.11719C4.22656 6.91927 3.88281 6.67188 3.52344 6.375C3.16406 6.07812 2.78906 5.73698 2.39844 5.35156C2.00781 4.96094 1.66537 4.58594 1.37109 4.22656C1.07682 3.86719 0.829428 3.52344 0.628906 3.19531C0.428384 2.86719 0.276042 2.55339 0.171875 2.25391C0.0677078 1.95443 0.0104167 1.67188 0 1.40625C0 1.33333 0.0260414 1.2513 0.078125 1.16016C0.130209 1.06901 0.208333 0.966146 0.3125 0.851562C0.416667 0.736979 0.510416 0.639323 0.59375 0.558594C0.677084 0.477864 0.752604 0.411459 0.820312 0.359375C0.882813 0.3125 0.942708 0.268229 1 0.226562C1.05729 0.184896 1.10677 0.148438 1.14844 0.117188C1.20573 0.0755206 1.26562 0.045573 1.32812 0.0273438C1.39063 0.00911449 1.45833 0 1.53125 0C1.61458 0 1.6888 0.0143228 1.75391 0.0429688C1.81901 0.0716147 1.875 0.117187 1.92188 0.179688ZM1.42188 0.5C1.31771 0.572917 1.21615 0.652343 1.11719 0.738281C1.01823 0.824219 0.921875 0.914062 0.828125 1.00781C0.734375 1.10156 0.660157 1.18229 0.605469 1.25C0.550781 1.31771 0.515625 1.375 0.5 1.42188C0.510417 1.65625 0.565104 1.90625 0.664062 2.17188C0.763021 2.4375 0.906249 2.72005 1.09375 3.01953C1.28125 3.31901 1.51302 3.63411 1.78906 3.96484C2.06511 4.29557 2.38541 4.64323 2.75 5.00781C3.11459 5.3724 3.46224 5.69271 3.79297 5.96875C4.1237 6.24479 4.4388 6.47656 4.73828 6.66406C5.03776 6.85156 5.32161 6.99479 5.58984 7.09375C5.85807 7.19271 6.10937 7.25 6.34375 7.26562C6.38021 7.25 6.43229 7.21354 6.5 7.15625C6.56771 7.09896 6.64844 7.02344 6.74219 6.92969C6.83594 6.83594 6.92448 6.73828 7.00781 6.63672C7.09115 6.53516 7.17187 6.43229 7.25 6.32812C7.26562 6.30729 7.27604 6.28776 7.28125 6.26953C7.28646 6.2513 7.28646 6.23438 7.28125 6.21875C6.97917 6.00521 6.70182 5.8151 6.44922 5.64844C6.19661 5.48177 5.96875 5.33333 5.76562 5.20312C5.74479 5.20312 5.72135 5.20703 5.69531 5.21484C5.66927 5.22266 5.64062 5.23438 5.60938 5.25C5.56771 5.27604 5.48958 5.32031 5.375 5.38281C5.26042 5.44531 5.11198 5.52604 4.92969 5.625L4.67188 5.78125L4.41406 5.60938C4.2474 5.49479 4.0638 5.34766 3.86328 5.16797C3.66276 4.98828 3.44271 4.77865 3.20312 4.53906C2.96875 4.29948 2.76302 4.07943 2.58594 3.87891C2.40885 3.67838 2.26302 3.49479 2.14844 3.32812L1.96094 3.08594L2.11719 2.8125C2.21615 2.63021 2.29687 2.48307 2.35938 2.37109C2.42188 2.25911 2.46615 2.17969 2.49219 2.13281C2.50781 2.10156 2.51953 2.07292 2.52734 2.04688C2.53516 2.02083 2.53906 1.9974 2.53906 1.97656C2.35677 1.6901 2.18359 1.42188 2.01953 1.17188C1.85547 0.921874 1.69792 0.687501 1.54688 0.46875H1.53125C1.51042 0.46875 1.49089 0.471354 1.47266 0.476562C1.45443 0.481771 1.4375 0.489583 1.42188 0.5Z" transform="translate(627.125 573.609)" fill="black"/>
<path fill-rule="evenodd" clip-rule="evenodd" d="M7.98633 1.62612C7.99154 1.66257 7.98633 1.70033 7.9707 1.7394C7.95508 1.77846 7.93164 1.81101 7.90039 1.83705L6.61133 2.91518L7.71289 3.79018C7.74414 3.81101 7.76758 3.83966 7.7832 3.87612C7.79883 3.91257 7.80664 3.95164 7.80664 3.9933C7.80664 4.03497 7.79622 4.07273 7.77539 4.10659C7.75456 4.14044 7.72852 4.16778 7.69727 4.18862L6.72852 4.83705V6.06362C6.72852 6.10528 6.7181 6.14435 6.69727 6.1808C6.67643 6.21726 6.64779 6.24851 6.61133 6.27455L4.12695 7.69643C4.10612 7.71205 4.08398 7.72247 4.06055 7.72768C4.03711 7.73289 4.01497 7.73549 3.99414 7.73549C3.97331 7.73549 3.95117 7.73289 3.92773 7.72768C3.9043 7.72247 3.88216 7.71205 3.86133 7.69643L1.3457 6.27455C1.30924 6.24851 1.2806 6.21726 1.25977 6.1808C1.23893 6.14435 1.22852 6.10528 1.22852 6.06362V5.0558C1.22852 5.01935 1.23633 4.98549 1.25195 4.95424C1.26758 4.92299 1.28841 4.89695 1.31445 4.87612L0.291016 4.18862C0.254557 4.16778 0.227214 4.14044 0.208984 4.10659C0.190755 4.07273 0.179036 4.03497 0.173828 3.9933C0.173828 3.95164 0.181641 3.91257 0.197266 3.87612C0.212891 3.83966 0.238932 3.81101 0.275391 3.79018L1.37695 2.91518L0.0878906 1.83705C0.0566405 1.81101 0.0332032 1.77846 0.0175781 1.7394C0.00195307 1.70033 -0.00325521 1.66257 0.00195315 1.62612C0.00195315 1.58445 0.0123697 1.54669 0.0332031 1.51283C0.0540366 1.47898 0.0826821 1.45164 0.119141 1.4308L2.3457 0.0401786C2.38737 0.00892843 2.43555 -0.00409227 2.49023 0.00111609C2.54492 0.00632445 2.5931 0.0245534 2.63477 0.0558036L3.99414 1.15737L5.35352 0.0558036C5.39518 0.0245534 5.44336 0.00632445 5.49805 0.00111609C5.55273 -0.00409227 5.60091 0.00892843 5.64258 0.0401786L7.86914 1.4308C7.9056 1.45164 7.93424 1.47898 7.95508 1.51283C7.97591 1.54669 7.98633 1.58445 7.98633 1.62612ZM5.75195 2.9231L3.99414 1.77466L2.23633 2.9231L3.99414 4.01685L5.75195 2.9231ZM0.673828 1.6731L1.79102 2.6106L3.57227 1.45435L2.45508 0.555908L0.673828 1.6731ZM1.79102 3.22778L0.853516 3.96997L2.55664 5.10278L3.55664 4.33716L1.79102 3.22778ZM1.72852 5.14966V5.9231L3.72852 7.04028V4.83716L2.7207 5.6106C2.67383 5.64185 2.62435 5.65747 2.57227 5.65747C2.52018 5.65747 2.4707 5.64445 2.42383 5.61841L1.72852 5.14966ZM6.22852 5.9231V5.16528L5.55664 5.61841C5.53581 5.62882 5.51367 5.63794 5.49023 5.64575C5.4668 5.65356 5.44206 5.65747 5.41602 5.65747C5.38997 5.65747 5.36393 5.65356 5.33789 5.64575C5.31185 5.63794 5.28841 5.62622 5.26758 5.6106L4.22852 4.81372V7.05591L6.22852 5.9231ZM7.12695 3.96216L6.19727 3.22778L4.43164 4.33716L5.42383 5.10278L7.12695 3.96216ZM6.19727 2.6106L7.31445 1.6731L5.5332 0.555908L4.41602 1.45435L6.19727 2.6106Z" transform="translate(648.006 573.632)" fill="black"/>
<path fill-rule="evenodd" clip-rule="evenodd" d="M1.75 0C1.81771 0 1.8763 0.0247393 1.92578 0.0742188C1.97526 0.123698 2 0.182291 2 0.25C2 0.317709 1.97526 0.376302 1.92578 0.425781C1.8763 0.475261 1.81771 0.5 1.75 0.5H0.5V1.75C0.5 1.81771 0.475261 1.8763 0.425781 1.92578C0.376302 1.97526 0.317709 2 0.25 2C0.182291 2 0.123698 1.97526 0.0742188 1.92578C0.0247393 1.8763 0 1.81771 0 1.75V0.25C0 0.182291 0.0247393 0.123698 0.0742188 0.0742188C0.123698 0.0247393 0.182291 0 0.25 0H1.75ZM7.75 4.25C7.81771 4.25 7.8763 4.27474 7.92578 4.32422C7.97526 4.3737 8 4.43229 8 4.5V6C8 6.06771 7.97526 6.1263 7.92578 6.17578C7.8763 6.22526 7.81771 6.25 7.75 6.25H6.25C6.18229 6.25 6.1237 6.22526 6.07422 6.17578C6.02474 6.1263 6 6.06771 6 6C6 5.93229 6.02474 5.8737 6.07422 5.82422C6.1237 5.77474 6.18229 5.75 6.25 5.75H7.5V4.5C7.5 4.43229 7.52474 4.3737 7.57422 4.32422C7.6237 4.27474 7.68229 4.25 7.75 4.25ZM1.75 5.75C1.81771 5.75 1.8763 5.77474 1.92578 5.82422C1.97526 5.8737 2 5.93229 2 6C2 6.06771 1.97526 6.1263 1.92578 6.17578C1.8763 6.22526 1.81771 6.25 1.75 6.25H0.25C0.182291 6.25 0.123698 6.22526 0.0742188 6.17578C0.0247393 6.1263 0 6.06771 0 6V4.5C0 4.43229 0.0247393 4.3737 0.0742188 4.32422C0.123698 4.27474 0.182291 4.25 0.25 4.25C0.317709 4.25 0.376302 4.27474 0.425781 4.32422C0.475261 4.3737 0.5 4.43229 0.5 4.5V5.75H1.75ZM7.75 0C7.81771 0 7.8763 0.0247393 7.92578 0.0742188C7.97526 0.123698 8 0.182291 8 0.25V1.75C8 1.81771 7.97526 1.8763 7.92578 1.92578C7.8763 1.97526 7.81771 2 7.75 2C7.68229 2 7.6237 1.97526 7.57422 1.92578C7.52474 1.8763 7.5 1.81771 7.5 1.75V0.5H6.25C6.18229 0.5 6.1237 0.475261 6.07422 0.425781C6.02474 0.376302 6 0.317709 6 0.25C6 0.182291 6.02474 0.123698 6.07422 0.0742188C6.1237 0.0247393 6.18229 0 6.25 0H7.75Z" transform="translate(668 574.375)" fill="black"/>
<path d="M1.5 0.5V4.5" transform="translate(668 575)" stroke="black" stroke-width="0.5" stroke-linecap="round"/>
<path d="M1.5 0.5V4.5" transform="translate(669 575)" stroke="black" stroke-width="0.5" stroke-linecap="round"/>
<path d="M1.5 0.5V4.5" transform="translate(670 575)" stroke="black" stroke-width="0.5" stroke-linecap="round"/>
<path d="M1.5 0.5V4.5" transform="translate(671 575)" stroke="black" stroke-width="0.5" stroke-linecap="round"/>
<path d="M1.5 0.5V4.5" transform="translate(672 575)" stroke="black" stroke-width="0.5" stroke-linecap="round"/>
<path d="M1.5 0.5V4.5" transform="translate(673 575)" stroke="black" stroke-width="0.5" stroke-linecap="round"/>
<path fill-rule="evenodd" clip-rule="evenodd" d="M5.26483 0.583252L0.689697 2.51053L2.66272 3.11101L3.34327 5.07832L5.26483 0.583252ZM5.73943 0C5.79281 0 5.82712 0.0209691 5.84237 0.062908C5.85763 0.104847 5.85 0.162036 5.8195 0.234475L3.48618 5.69032C3.46331 5.7437 3.43662 5.78277 3.40612 5.80756C3.37562 5.83234 3.34321 5.84473 3.3089 5.84473C3.27839 5.84473 3.24694 5.83424 3.21453 5.81328C3.18213 5.79231 3.15449 5.76085 3.13161 5.71891L2.38815 3.40847L0.12918 2.70505C0.0376771 2.64786 -0.00521432 2.584 0.000504619 2.51346C0.00622356 2.44293 0.0586464 2.38669 0.157775 2.34475L5.61362 0.0285946C5.64031 0.0171567 5.66413 0.00953154 5.6851 0.00571891C5.70607 0.00190629 5.72418 0 5.73943 0Z" transform="translate(686 575)" fill="black"/>
<path fill-rule="evenodd" clip-rule="evenodd" d="M0 11.2C0 7.27963 0 5.31945 0.762954 3.82207C1.43407 2.50493 2.50493 1.43407 3.82207 0.762954C5.31945 0 7.27963 0 11.2 0H515.8C519.72 0 521.681 0 523.178 0.762954C524.495 1.43407 525.566 2.50493 526.237 3.82207C527 5.31945 527 7.27963 527 11.2V314.8C527 318.72 527 320.681 526.237 322.178C525.566 323.495 524.495 324.566 523.178 325.237C521.681 326 519.72 326 515.8 326H11.2C7.27963 326 5.31945 326 3.82207 325.237C2.50493 324.566 1.43407 323.495 0.762954 322.178C0 320.681 0 318.72 0 314.8V11.2Z" transform="translate(1255 159)" fill="white" stroke="black" stroke-width="4"/>
<path fill-rule="evenodd" clip-rule="evenodd" d="M0 316L527 0H0V316Z" transform="translate(1252 162)" fill="#D8D8D8" fill-opacity="0.3"/>
<path fill-rule="evenodd" clip-rule="evenodd" d="M24.1817 2.6792L3.16748 11.5315L12.2299 14.2896L15.3557 23.3257L24.1817 2.6792ZM26.3621 0C26.6072 0 26.7648 0.0963143 26.8349 0.288946C26.9049 0.481577 26.8699 0.744253 26.7298 1.07698L16.0125 26.1365C15.9075 26.3816 15.7849 26.5611 15.6448 26.675C15.5047 26.7888 15.3559 26.8457 15.1982 26.8457C15.0582 26.8457 14.9137 26.7975 14.7648 26.7012C14.616 26.6049 14.489 26.4604 14.3839 26.2678L10.9691 15.6556L0.593344 12.4247C0.173056 12.162 -0.0239502 11.8687 0.00231779 11.5447C0.0285857 11.2207 0.269372 10.9624 0.724683 10.7698L25.7842 0.131339C25.9068 0.0788032 26.0162 0.0437798 26.1125 0.0262678C26.2088 0.00875585 26.292 0 26.3621 0Z" transform="translate(1531 429)" fill="black"/>
<path fill-rule="evenodd" clip-rule="evenodd" d="M0 11.2C0 7.27963 0 5.31945 0.762954 3.82207C1.43407 2.50493 2.50493 1.43407 3.82207 0.762954C5.31945 0 7.27963 0 11.2 0H515.8C519.72 0 521.681 0 523.178 0.762954C524.495 1.43407 525.566 2.50493 526.237 3.82207C527 5.31945 527 7.27963 527 11.2V314.8C527 318.72 527 320.681 526.237 322.178C525.566 323.495 524.495 324.566 523.178 325.237C521.681 326 519.72 326 515.8 326H11.2C7.27963 326 5.31945 326 3.82207 325.237C2.50493 324.566 1.43407 323.495 0.762954 322.178C0 320.681 0 318.72 0 314.8V11.2Z" transform="translate(1255 579)" fill="white" stroke="black" stroke-width="4"/>
<path fill-rule="evenodd" clip-rule="evenodd" d="M0 316L527 0H0V316Z" transform="translate(1252 582)" fill="#D8D8D8" fill-opacity="0.3"/>
<path fill-rule="evenodd" clip-rule="evenodd" d="M0 11.2C0 7.27963 0 5.31945 0.762954 3.82207C1.43407 2.50493 2.50493 1.43407 3.82207 0.762954C5.31945 0 7.27963 0 11.2 0H30.8C34.7204 0 36.6805 0 38.1779 0.762954C39.4951 1.43407 40.5659 2.50493 41.237 3.82207C42 5.31945 42 7.27963 42 11.2V23.8C42 27.7204 42 29.6806 41.237 31.1779C40.5659 32.4951 39.4951 33.5659 38.1779 34.237C36.6805 35 34.7204 35 30.8 35H11.2C7.27963 35 5.31945 35 3.82207 34.237C2.50493 33.5659 1.43407 32.4951 0.762954 31.1779C0 29.6806 0 27.7204 0 23.8V11.2Z" transform="translate(1283 606)" fill="white" stroke="black" stroke-width="4"/>
<path d="M0 1H80.2883" transform="translate(507 539)" stroke="#C5C4C0" stroke-width="7" stroke-linecap="square"/>
<path d="M0 22.9692H23.7688V0" transform="translate(535.049 540.242) rotate(135)" stroke="#C5C4C0" stroke-width="7" stroke-linecap="square"/>
<path d="M0 1H80.2883" transform="translate(291.954 625.83) rotate(120)" stroke="#C5C4C0" stroke-width="7" stroke-linecap="square"/>
<path d="M0 22.9692H23.7688V0" transform="translate(276.855 649.5) rotate(-105)" stroke="#C5C4C0" stroke-width="7" stroke-linecap="square"/>
<path d="M0 2H163.877" transform="translate(660 647) rotate(90)" stroke="#C5C4C0" stroke-width="7" stroke-linecap="square"/>
<path d="M0 22.9692H23.7688V0" transform="translate(657.758 675.049) rotate(-135)" stroke="#C5C4C0" stroke-width="7" stroke-linecap="square"/>
<path d="M0 2H258.729" transform="translate(1422.58 295.022) rotate(-160)" stroke="#C5C4C0" stroke-width="7" stroke-linecap="square"/>
<path d="M0 22.9692H23.7688V0" transform="translate(1396.99 284.322) rotate(-25)" stroke="#C5C4C0" stroke-width="7" stroke-linecap="square"/>
<path d="M0 2H102.03" transform="translate(1328.93 199.464) rotate(-130)" stroke="#C5C4C0" stroke-width="7" stroke-linecap="square"/>
<path d="M0 22.9692H23.7688V0" transform="translate(1312.62 176.537) rotate(5)" stroke="#C5C4C0" stroke-width="7" stroke-linecap="square"/>
<path d="M0 2H102.03" transform="translate(1450.93 199.464) rotate(-130)" stroke="#C5C4C0" stroke-width="7" stroke-linecap="square"/>
<path d="M0 22.9692H23.7688V0" transform="translate(1434.62 176.537) rotate(5)" stroke="#C5C4C0" stroke-width="7" stroke-linecap="square"/>
<path d="M0 2H102.03" transform="translate(1586.93 199.758) rotate(-130)" stroke="#C5C4C0" stroke-width="7" stroke-linecap="square"/>
<path d="M0 22.9692H23.7688V0" transform="translate(1570.62 176.831) rotate(5)" stroke="#C5C4C0" stroke-width="7" stroke-linecap="square"/>
<path d="M0 2H102.03" transform="translate(1709.4 199.758) rotate(-130)" stroke="#C5C4C0" stroke-width="7" stroke-linecap="square"/>
<path d="M0 22.9692H23.7688V0" transform="translate(1693.09 176.831) rotate(5)" stroke="#C5C4C0" stroke-width="7" stroke-linecap="square"/>
<path d="M0 2H102.03" transform="translate(1325.46 694.685) rotate(69)" stroke="#C5C4C0" stroke-width="7" stroke-linecap="square"/>
<path d="M0 22.9692H23.7688V0" transform="translate(1333.42 721.674) rotate(-156)" stroke="#C5C4C0" stroke-width="7" stroke-linecap="square"/>
<path fill-rule="evenodd" clip-rule="evenodd" d="M0.762939 3.82202C0 5.31934 0 7.27954 0 11.2V106.8C0 110.72 0 112.681 0.762939 114.178C1.43408 115.495 2.50488 116.566 3.82202 117.237C5.31946 118 7.27966 118 11.2 118H194.8C198.72 118 200.681 118 202.178 117.237C203.495 116.566 204.566 115.495 205.237 114.178C206 112.681 206 110.72 206 106.8V84.8289C193.054 83.3416 183 72.3447 183 59C183 45.6553 193.054 34.6584 206 33.1711V11.2C206 7.27954 206 5.31934 205.237 3.82202C204.566 2.50488 203.495 1.43408 202.178 0.762939C200.681 0 198.72 0 194.8 0H11.2C7.27966 0 5.31946 0 3.82202 0.762939C2.50488 1.43408 1.43408 2.50488 0.762939 3.82202Z" transform="translate(296 482)" fill="white" stroke="black" stroke-width="4"/>
<mask id="mask0" mask-type="alpha" maskUnits="userSpaceOnUse" x="294" y="480" width="210" height="122">
<path fill-rule="evenodd" clip-rule="evenodd" d="M0.762939 3.82202C0 5.31934 0 7.27954 0 11.2V106.8C0 110.72 0 112.681 0.762939 114.178C1.43408 115.495 2.50488 116.566 3.82202 117.237C5.31946 118 7.27966 118 11.2 118H194.8C198.72 118 200.681 118 202.178 117.237C203.495 116.566 204.566 115.495 205.237 114.178C206 112.681 206 110.72 206 106.8V84.8289C193.054 83.3416 183 72.3447 183 59C183 45.6553 193.054 34.6584 206 33.1711V11.2C206 7.27954 206 5.31934 205.237 3.82202C204.566 2.50488 203.495 1.43408 202.178 0.762939C200.681 0 198.72 0 194.8 0H11.2C7.27966 0 5.31946 0 3.82202 0.762939C2.50488 1.43408 1.43408 2.50488 0.762939 3.82202Z" transform="translate(296 482)" fill="white" stroke="white" stroke-width="4"/>
</mask>
<g mask="url(#mask0)">
<path fill-rule="evenodd" clip-rule="evenodd" d="M0 122L200 0H0V122Z" transform="translate(296 482)" fill="#D8D8D8" fill-opacity="0.3"/>
<path d="M0.72 8H1.392V5.632H2.752C3.784 5.632 4.344 5.032 4.344 4.024C4.344 3.016 3.784 2.416 2.752 2.416H0.72V8ZM1.392 5.048V3H2.736C3.296 3 3.632 3.296 3.632 3.816V4.232C3.632 4.752 3.296 5.048 2.736 5.048H1.392ZM8.75688 8H9.19688V7.44H8.62087V5.168C8.62087 4.296 8.00487 3.776 7.03688 3.776C6.19687 3.776 5.66887 4.176 5.46087 4.608L5.89287 4.928C6.10888 4.552 6.44488 4.32 6.99688 4.32C7.62087 4.32 7.98088 4.632 7.98088 5.232V5.64H7.10087C5.86088 5.64 5.32487 6.08 5.32487 6.84C5.32487 7.616 5.87688 8.096 6.74088 8.096C7.41287 8.096 7.80487 7.8 7.98088 7.328H8.02087C8.06888 7.712 8.26087 8 8.75688 8ZM6.85287 7.56C6.32487 7.56 5.99688 7.336 5.99688 6.912V6.744C5.99688 6.344 6.34088 6.12 7.10087 6.12H7.98088V6.8C7.98088 7.224 7.50887 7.56 6.85287 7.56ZM10.2097 7.456V8H13.6578V7.456H12.0577V5.192C12.0577 4.8 12.4897 4.512 13.2097 4.512H14.0658V3.872H13.3377C12.6497 3.872 12.2578 4.216 12.0977 4.608H12.0577V3.872H10.2097V4.416H11.4178V7.456H10.2097ZM16.9346 8.096C17.7586 8.096 18.2786 7.688 18.5186 7.136L18.0626 6.824C17.8546 7.272 17.4946 7.544 16.9426 7.544C16.1666 7.544 15.7506 7.016 15.7506 6.288V5.584C15.7506 4.856 16.1746 4.328 16.9266 4.328C17.4386 4.328 17.7906 4.576 17.9426 5L18.4546 4.728C18.2226 4.168 17.7266 3.776 16.9266 3.776C15.7586 3.776 15.0626 4.624 15.0626 5.936C15.0626 7.24 15.7506 8.096 16.9346 8.096ZM21.6595 8.096C22.4755 8.096 23.0675 7.696 23.3155 7.144L22.8435 6.824C22.6275 7.272 22.2115 7.544 21.6595 7.544C20.8835 7.544 20.3955 7.016 20.3955 6.288V6.096H23.4515V5.792C23.4515 4.624 22.7315 3.776 21.6195 3.776C20.4995 3.776 19.7235 4.624 19.7235 5.944C19.7235 7.248 20.4755 8.096 21.6595 8.096ZM21.6195 4.304C22.2995 4.304 22.7635 4.8 22.7635 5.528V5.616H20.3955V5.56C20.3955 4.84 20.9155 4.304 21.6195 4.304ZM24.6244 7.456V8H28.1444V7.456H26.7044V2.08H24.6244V2.624H26.0644V7.456H24.6244ZM30.9332 5.264L32.6212 8H33.4053L31.3893 4.768L33.3492 2.416H32.5412L30.8932 4.4L30.1573 5.328H30.1332V2.416H29.4613V8H30.1332V6.208L30.9332 5.264ZM36.0501 8.096C36.8661 8.096 37.4581 7.696 37.7061 7.144L37.2341 6.824C37.0181 7.272 36.6021 7.544 36.0501 7.544C35.2741 7.544 34.7861 7.016 34.7861 6.288V6.096H37.8421V5.792C37.8421 4.624 37.1221 3.776 36.0101 3.776C34.8901 3.776 34.1141 4.624 34.1141 5.944C34.1141 7.248 34.8661 8.096 36.0501 8.096ZM36.0101 4.304C36.6901 4.304 37.1541 4.8 37.1541 5.528V5.616H34.7861V5.56C34.7861 4.84 35.3061 4.304 36.0101 4.304ZM42.111 3.872L41.415 5.6L40.799 7.168H40.767L40.151 5.6L39.455 3.872H38.799L40.463 7.92L39.999 9.056H39.039V9.6H39.647C40.271 9.6 40.511 9.376 40.703 8.904L42.751 3.872H42.111ZM45.5719 3.392C46.0919 3.392 46.4999 3 46.4999 2.472C46.4999 1.944 46.0919 1.552 45.5719 1.552C45.0519 1.552 44.6439 1.944 44.6439 2.472C44.6439 3 45.0519 3.392 45.5719 3.392ZM45.5719 3C45.2839 3 45.1079 2.84 45.1079 2.56V2.384C45.1079 2.104 45.2839 1.944 45.5719 1.944C45.8599 1.944 46.0359 2.104 46.0359 2.384V2.56C46.0359 2.84 45.8599 3 45.5719 3Z" transform="translate(306 495)" fill="black"/>
<path fill-rule="evenodd" clip-rule="evenodd" d="M0 11.2C0 7.27963 0 5.31945 0.762954 3.82207C1.43407 2.50493 2.50493 1.43407 3.82207 0.762954C5.31945 0 7.27963 0 11.2 0H122.8C126.72 0 128.681 0 130.178 0.762954C131.495 1.43407 132.566 2.50493 133.237 3.82207C134 5.31945 134 7.27963 134 11.2V21.8C134 25.7204 134 27.6806 133.237 29.1779C132.566 30.4951 131.495 31.5659 130.178 32.237C128.681 33 126.72 33 122.8 33H11.2C7.27963 33 5.31945 33 3.82207 32.237C2.50493 31.5659 1.43407 30.4951 0.762954 29.1779C0 27.6806 0 25.7204 0 21.8V11.2Z" transform="translate(322 524)" fill="white" stroke="black" stroke-width="4"/>
</g>
<path fill-rule="evenodd" clip-rule="evenodd" d="M1.92188 0.179688C2.06771 0.382814 2.22786 0.614582 2.40234 0.875C2.57682 1.13542 2.76562 1.42448 2.96875 1.74219C3.02083 1.82552 3.04297 1.91927 3.03516 2.02344C3.02734 2.1276 2.98958 2.23958 2.92188 2.35938C2.89583 2.41146 2.85156 2.49479 2.78906 2.60938C2.72656 2.72396 2.64583 2.8724 2.54688 3.05469C2.65625 3.21094 2.79557 3.38542 2.96484 3.57812C3.13412 3.77083 3.33073 3.97917 3.55469 4.20312C3.78386 4.43229 3.99349 4.63151 4.18359 4.80078C4.3737 4.97005 4.54427 5.10937 4.69531 5.21875C4.8724 5.11458 5.01953 5.02995 5.13672 4.96484C5.25391 4.89974 5.33854 4.85417 5.39062 4.82812C5.45313 4.79167 5.51693 4.76432 5.58203 4.74609C5.64714 4.72786 5.70833 4.71875 5.76562 4.71875C5.8125 4.71875 5.85547 4.72396 5.89453 4.73438C5.93359 4.74479 5.97135 4.76042 6.00781 4.78125C6.24219 4.92188 6.48958 5.07943 6.75 5.25391C7.01042 5.42839 7.28906 5.61979 7.58594 5.82812C7.63802 5.86458 7.67969 5.91146 7.71094 5.96875C7.74219 6.02604 7.76302 6.08854 7.77344 6.15625C7.77865 6.22917 7.77083 6.30339 7.75 6.37891C7.72917 6.45443 7.69271 6.53125 7.64062 6.60938C7.61979 6.64583 7.58854 6.6901 7.54688 6.74219C7.50521 6.79427 7.45573 6.85417 7.39844 6.92188C7.34635 6.98958 7.27865 7.06641 7.19531 7.15234C7.11198 7.23828 7.01302 7.33333 6.89844 7.4375C6.78906 7.54167 6.6888 7.61979 6.59766 7.67188C6.50651 7.72396 6.42708 7.75 6.35938 7.75H6.34375C6.07292 7.73958 5.78906 7.68099 5.49219 7.57422C5.19531 7.46745 4.88281 7.3151 4.55469 7.11719C4.22656 6.91927 3.88281 6.67188 3.52344 6.375C3.16406 6.07812 2.78906 5.73698 2.39844 5.35156C2.00781 4.96094 1.66537 4.58594 1.37109 4.22656C1.07682 3.86719 0.829428 3.52344 0.628906 3.19531C0.428384 2.86719 0.276042 2.55339 0.171875 2.25391C0.0677078 1.95443 0.0104167 1.67188 0 1.40625C0 1.33333 0.0260414 1.2513 0.078125 1.16016C0.130209 1.06901 0.208333 0.966146 0.3125 0.851562C0.416667 0.736979 0.510416 0.639323 0.59375 0.558594C0.677084 0.477864 0.752604 0.411459 0.820312 0.359375C0.882813 0.3125 0.942708 0.268229 1 0.226562C1.05729 0.184896 1.10677 0.148438 1.14844 0.117188C1.20573 0.0755206 1.26562 0.045573 1.32812 0.0273438C1.39063 0.00911449 1.45833 0 1.53125 0C1.61458 0 1.6888 0.0143228 1.75391 0.0429688C1.81901 0.0716147 1.875 0.117187 1.92188 0.179688ZM1.42188 0.5C1.31771 0.572917 1.21615 0.652343 1.11719 0.738281C1.01823 0.824219 0.921875 0.914062 0.828125 1.00781C0.734375 1.10156 0.660157 1.18229 0.605469 1.25C0.550781 1.31771 0.515625 1.375 0.5 1.42188C0.510417 1.65625 0.565104 1.90625 0.664062 2.17188C0.763021 2.4375 0.906249 2.72005 1.09375 3.01953C1.28125 3.31901 1.51302 3.63411 1.78906 3.96484C2.06511 4.29557 2.38541 4.64323 2.75 5.00781C3.11459 5.3724 3.46224 5.69271 3.79297 5.96875C4.1237 6.24479 4.4388 6.47656 4.73828 6.66406C5.03776 6.85156 5.32161 6.99479 5.58984 7.09375C5.85807 7.19271 6.10937 7.25 6.34375 7.26562C6.38021 7.25 6.43229 7.21354 6.5 7.15625C6.56771 7.09896 6.64844 7.02344 6.74219 6.92969C6.83594 6.83594 6.92448 6.73828 7.00781 6.63672C7.09115 6.53516 7.17187 6.43229 7.25 6.32812C7.26562 6.30729 7.27604 6.28776 7.28125 6.26953C7.28646 6.2513 7.28646 6.23438 7.28125 6.21875C6.97917 6.00521 6.70182 5.8151 6.44922 5.64844C6.19661 5.48177 5.96875 5.33333 5.76562 5.20312C5.74479 5.20312 5.72135 5.20703 5.69531 5.21484C5.66927 5.22266 5.64062 5.23438 5.60938 5.25C5.56771 5.27604 5.48958 5.32031 5.375 5.38281C5.26042 5.44531 5.11198 5.52604 4.92969 5.625L4.67188 5.78125L4.41406 5.60938C4.2474 5.49479 4.0638 5.34766 3.86328 5.16797C3.66276 4.98828 3.44271 4.77865 3.20312 4.53906C2.96875 4.29948 2.76302 4.07943 2.58594 3.87891C2.40885 3.67838 2.26302 3.49479 2.14844 3.32812L1.96094 3.08594L2.11719 2.8125C2.21615 2.63021 2.29687 2.48307 2.35938 2.37109C2.42188 2.25911 2.46615 2.17969 2.49219 2.13281C2.50781 2.10156 2.51953 2.07292 2.52734 2.04688C2.53516 2.02083 2.53906 1.9974 2.53906 1.97656C2.35677 1.6901 2.18359 1.42188 2.01953 1.17188C1.85547 0.921874 1.69792 0.687501 1.54688 0.46875H1.53125C1.51042 0.46875 1.49089 0.471354 1.47266 0.476562C1.45443 0.481771 1.4375 0.489583 1.42188 0.5Z" transform="translate(309.125 580.609)" fill="black"/>
<path fill-rule="evenodd" clip-rule="evenodd" d="M7.98633 1.62612C7.99154 1.66257 7.98633 1.70033 7.9707 1.7394C7.95508 1.77846 7.93164 1.81101 7.90039 1.83705L6.61133 2.91518L7.71289 3.79018C7.74414 3.81101 7.76758 3.83966 7.7832 3.87612C7.79883 3.91257 7.80664 3.95164 7.80664 3.9933C7.80664 4.03497 7.79622 4.07273 7.77539 4.10659C7.75456 4.14044 7.72852 4.16778 7.69727 4.18862L6.72852 4.83705V6.06362C6.72852 6.10528 6.7181 6.14435 6.69727 6.1808C6.67643 6.21726 6.64779 6.24851 6.61133 6.27455L4.12695 7.69643C4.10612 7.71205 4.08398 7.72247 4.06055 7.72768C4.03711 7.73289 4.01497 7.73549 3.99414 7.73549C3.97331 7.73549 3.95117 7.73289 3.92773 7.72768C3.9043 7.72247 3.88216 7.71205 3.86133 7.69643L1.3457 6.27455C1.30924 6.24851 1.2806 6.21726 1.25977 6.1808C1.23893 6.14435 1.22852 6.10528 1.22852 6.06362V5.0558C1.22852 5.01935 1.23633 4.98549 1.25195 4.95424C1.26758 4.92299 1.28841 4.89695 1.31445 4.87612L0.291016 4.18862C0.254557 4.16778 0.227214 4.14044 0.208984 4.10659C0.190755 4.07273 0.179036 4.03497 0.173828 3.9933C0.173828 3.95164 0.181641 3.91257 0.197266 3.87612C0.212891 3.83966 0.238932 3.81101 0.275391 3.79018L1.37695 2.91518L0.0878906 1.83705C0.0566405 1.81101 0.0332032 1.77846 0.0175781 1.7394C0.00195307 1.70033 -0.00325521 1.66257 0.00195315 1.62612C0.00195315 1.58445 0.0123697 1.54669 0.0332031 1.51283C0.0540366 1.47898 0.0826821 1.45164 0.119141 1.4308L2.3457 0.0401786C2.38737 0.00892843 2.43555 -0.00409227 2.49023 0.00111609C2.54492 0.00632445 2.5931 0.0245534 2.63477 0.0558036L3.99414 1.15737L5.35352 0.0558036C5.39518 0.0245534 5.44336 0.00632445 5.49805 0.00111609C5.55273 -0.00409227 5.60091 0.00892843 5.64258 0.0401786L7.86914 1.4308C7.9056 1.45164 7.93424 1.47898 7.95508 1.51283C7.97591 1.54669 7.98633 1.58445 7.98633 1.62612ZM5.75195 2.9231L3.99414 1.77466L2.23633 2.9231L3.99414 4.01685L5.75195 2.9231ZM0.673828 1.6731L1.79102 2.6106L3.57227 1.45435L2.45508 0.555908L0.673828 1.6731ZM1.79102 3.22778L0.853516 3.96997L2.55664 5.10278L3.55664 4.33716L1.79102 3.22778ZM1.72852 5.14966V5.9231L3.72852 7.04028V4.83716L2.7207 5.6106C2.67383 5.64185 2.62435 5.65747 2.57227 5.65747C2.52018 5.65747 2.4707 5.64445 2.42383 5.61841L1.72852 5.14966ZM6.22852 5.9231V5.16528L5.55664 5.61841C5.53581 5.62882 5.51367 5.63794 5.49023 5.64575C5.4668 5.65356 5.44206 5.65747 5.41602 5.65747C5.38997 5.65747 5.36393 5.65356 5.33789 5.64575C5.31185 5.63794 5.28841 5.62622 5.26758 5.6106L4.22852 4.81372V7.05591L6.22852 5.9231ZM7.12695 3.96216L6.19727 3.22778L4.43164 4.33716L5.42383 5.10278L7.12695 3.96216ZM6.19727 2.6106L7.31445 1.6731L5.5332 0.555908L4.41602 1.45435L6.19727 2.6106Z" transform="translate(330.006 580.632)" fill="black"/>
<path fill-rule="evenodd" clip-rule="evenodd" d="M1.75 0C1.81771 0 1.8763 0.0247393 1.92578 0.0742188C1.97526 0.123698 2 0.182291 2 0.25C2 0.317709 1.97526 0.376302 1.92578 0.425781C1.8763 0.475261 1.81771 0.5 1.75 0.5H0.5V1.75C0.5 1.81771 0.475261 1.8763 0.425781 1.92578C0.376302 1.97526 0.317709 2 0.25 2C0.182291 2 0.123698 1.97526 0.0742188 1.92578C0.0247393 1.8763 0 1.81771 0 1.75V0.25C0 0.182291 0.0247393 0.123698 0.0742188 0.0742188C0.123698 0.0247393 0.182291 0 0.25 0H1.75ZM7.75 4.25C7.81771 4.25 7.8763 4.27474 7.92578 4.32422C7.97526 4.3737 8 4.43229 8 4.5V6C8 6.06771 7.97526 6.1263 7.92578 6.17578C7.8763 6.22526 7.81771 6.25 7.75 6.25H6.25C6.18229 6.25 6.1237 6.22526 6.07422 6.17578C6.02474 6.1263 6 6.06771 6 6C6 5.93229 6.02474 5.8737 6.07422 5.82422C6.1237 5.77474 6.18229 5.75 6.25 5.75H7.5V4.5C7.5 4.43229 7.52474 4.3737 7.57422 4.32422C7.6237 4.27474 7.68229 4.25 7.75 4.25ZM1.75 5.75C1.81771 5.75 1.8763 5.77474 1.92578 5.82422C1.97526 5.8737 2 5.93229 2 6C2 6.06771 1.97526 6.1263 1.92578 6.17578C1.8763 6.22526 1.81771 6.25 1.75 6.25H0.25C0.182291 6.25 0.123698 6.22526 0.0742188 6.17578C0.0247393 6.1263 0 6.06771 0 6V4.5C0 4.43229 0.0247393 4.3737 0.0742188 4.32422C0.123698 4.27474 0.182291 4.25 0.25 4.25C0.317709 4.25 0.376302 4.27474 0.425781 4.32422C0.475261 4.3737 0.5 4.43229 0.5 4.5V5.75H1.75ZM7.75 0C7.81771 0 7.8763 0.0247393 7.92578 0.0742188C7.97526 0.123698 8 0.182291 8 0.25V1.75C8 1.81771 7.97526 1.8763 7.92578 1.92578C7.8763 1.97526 7.81771 2 7.75 2C7.68229 2 7.6237 1.97526 7.57422 1.92578C7.52474 1.8763 7.5 1.81771 7.5 1.75V0.5H6.25C6.18229 0.5 6.1237 0.475261 6.07422 0.425781C6.02474 0.376302 6 0.317709 6 0.25C6 0.182291 6.02474 0.123698 6.07422 0.0742188C6.1237 0.0247393 6.18229 0 6.25 0H7.75Z" transform="translate(350 581.375)" fill="black"/>
<path d="M1.5 0.5V4.5" transform="translate(350 582)" stroke="black" stroke-width="0.5" stroke-linecap="round"/>
<path d="M1.5 0.5V4.5" transform="translate(351 582)" stroke="black" stroke-width="0.5" stroke-linecap="round"/>
<path d="M1.5 0.5V4.5" transform="translate(352 582)" stroke="black" stroke-width="0.5" stroke-linecap="round"/>
<path d="M1.5 0.5V4.5" transform="translate(353 582)" stroke="black" stroke-width="0.5" stroke-linecap="round"/>
<path d="M1.5 0.5V4.5" transform="translate(354 582)" stroke="black" stroke-width="0.5" stroke-linecap="round"/>
<path d="M1.5 0.5V4.5" transform="translate(355 582)" stroke="black" stroke-width="0.5" stroke-linecap="round"/>
<path fill-rule="evenodd" clip-rule="evenodd" d="M5.26471 0.583252L0.689575 2.51053L2.6626 3.11101L3.34315 5.07832L5.26471 0.583252ZM5.73943 0C5.79281 0 5.82712 0.0209691 5.84237 0.062908C5.85763 0.104847 5.85 0.162036 5.8195 0.234475L3.48618 5.69032C3.46331 5.7437 3.43662 5.78277 3.40612 5.80756C3.37562 5.83234 3.34321 5.84473 3.3089 5.84473C3.27839 5.84473 3.24694 5.83424 3.21453 5.81328C3.18213 5.79231 3.15449 5.76085 3.13161 5.71891L2.38815 3.40847L0.12918 2.70505C0.0376771 2.64786 -0.00521432 2.584 0.000504619 2.51346C0.00622356 2.44293 0.0586464 2.38669 0.157775 2.34475L5.61362 0.0285946C5.64031 0.0171567 5.66413 0.00953154 5.6851 0.00571891C5.70607 0.00190629 5.72418 0 5.73943 0Z" transform="translate(369 582)" fill="black"/>
<path d="M10.26 12.25H17.25V10.06H0.75V12.25H7.74V31H10.26V12.25ZM26.9883 31.36C31.3383 31.36 34.0083 28.18 34.0083 23.26C34.0083 18.34 31.3383 15.16 26.9883 15.16C22.6383 15.16 19.9683 18.34 19.9683 23.26C19.9683 28.18 22.6383 31.36 26.9883 31.36ZM26.9883 29.29C24.3183 29.29 22.5183 27.7 22.5183 24.37V22.15C22.5183 18.82 24.3183 17.23 26.9883 17.23C29.6583 17.23 31.4583 18.82 31.4583 22.15V24.37C31.4583 27.7 29.6583 29.29 26.9883 29.29ZM48.6366 28.48V31H51.0366V15.52H48.6366V26.26C48.6366 28.3 46.7166 29.23 44.7966 29.23C42.4266 29.23 41.1366 27.85 41.1366 25.03V15.52H38.7366V25.45C38.7366 29.2 40.8666 31.36 44.1066 31.36C46.6566 31.36 47.8566 30.01 48.5166 28.48H48.6366ZM63.5048 31.36C66.5948 31.36 68.5448 29.83 69.4448 27.76L67.7348 26.59C66.9548 28.27 65.6048 29.29 63.5348 29.29C60.6248 29.29 59.0648 27.31 59.0648 24.58V21.94C59.0648 19.21 60.6548 17.23 63.4748 17.23C65.3948 17.23 66.7148 18.16 67.2848 19.75L69.2048 18.73C68.3348 16.63 66.4748 15.16 63.4748 15.16C59.0948 15.16 56.4848 18.34 56.4848 23.26C56.4848 28.15 59.0648 31.36 63.5048 31.36ZM74.8931 8.8V31H77.2931V20.26C77.2931 18.22 79.2131 17.29 81.1331 17.29C83.5031 17.29 84.7931 18.67 84.7931 21.49V31H87.1931V21.07C87.1931 17.32 85.0631 15.16 81.8231 15.16C79.2731 15.16 78.0731 16.51 77.4131 18.04H77.2931V8.8H74.8931ZM116.87 31.36C121.52 31.36 124.19 29.02 124.19 25.15C124.19 22.42 122.84 20.14 118.73 19.42L116.48 19.03C113.51 18.52 112.55 17.32 112.55 15.46C112.55 13.09 114.14 11.86 116.96 11.86C119.57 11.86 121.07 12.91 122.24 14.44L124.01 12.91C122.6 10.9 120.32 9.7 116.99 9.7C112.73 9.7 110 11.68 110 15.52C110 18.16 111.29 20.53 115.4 21.22L117.74 21.61C120.59 22.09 121.64 23.17 121.64 25.21C121.64 27.73 119.99 29.2 116.96 29.2C114.44 29.2 112.73 28.21 111.11 26.17L109.28 27.67C110.84 29.83 113.12 31.36 116.87 31.36ZM135.188 31.36C138.248 31.36 140.468 29.86 141.398 27.79L139.628 26.59C138.818 28.27 137.258 29.29 135.188 29.29C132.278 29.29 130.448 27.31 130.448 24.58V23.86H141.908V22.72C141.908 18.34 139.208 15.16 135.038 15.16C130.838 15.16 127.928 18.34 127.928 23.29C127.928 28.18 130.748 31.36 135.188 31.36ZM135.038 17.14C137.588 17.14 139.328 19 139.328 21.73V22.06H130.448V21.85C130.448 19.15 132.398 17.14 135.038 17.14ZM146.846 31H149.246V20.26C149.246 18.22 151.166 17.29 153.086 17.29C155.456 17.29 156.746 18.67 156.746 21.49V31H159.146V21.07C159.146 17.32 157.016 15.16 153.776 15.16C151.226 15.16 150.026 16.51 149.366 18.04H149.246V15.52H146.846V31ZM171.075 31.36C175.035 31.36 177.615 29.59 177.615 26.53C177.615 23.17 174.525 22.57 172.305 22.24L169.875 21.88C168.495 21.67 167.145 21.25 167.145 19.63C167.145 18.04 168.495 17.17 170.925 17.17C173.655 17.17 175.035 18.25 175.755 19.12L177.315 17.65C175.845 16.09 173.805 15.16 171.015 15.16C167.415 15.16 164.775 16.69 164.775 19.78C164.775 23.14 167.895 23.74 170.085 24.07L172.515 24.43C173.925 24.64 175.245 25.06 175.245 26.68C175.245 28.51 173.535 29.35 171.135 29.35C168.675 29.35 166.995 28.48 165.525 26.92L163.905 28.33C165.525 30.16 167.835 31.36 171.075 31.36ZM188.883 31.36C193.233 31.36 195.903 28.18 195.903 23.26C195.903 18.34 193.233 15.16 188.883 15.16C184.533 15.16 181.863 18.34 181.863 23.26C181.863 28.18 184.533 31.36 188.883 31.36ZM188.883 29.29C186.213 29.29 184.413 27.7 184.413 24.37V22.15C184.413 18.82 186.213 17.23 188.883 17.23C191.553 17.23 193.353 18.82 193.353 22.15V24.37C193.353 27.7 191.553 29.29 188.883 29.29ZM200.181 28.96V31H213.111V28.96H207.111V20.47C207.111 19 208.731 17.92 211.431 17.92H214.641V15.52H211.911C209.331 15.52 207.861 16.81 207.261 18.28H207.111V15.52H200.181V17.56H204.711V28.96H200.181ZM225.129 31.36C228.189 31.36 230.409 29.86 231.339 27.79L229.569 26.59C228.759 28.27 227.199 29.29 225.129 29.29C222.219 29.29 220.389 27.31 220.389 24.58V23.86H231.849V22.72C231.849 18.34 229.149 15.16 224.979 15.16C220.779 15.16 217.869 18.34 217.869 23.29C217.869 28.18 220.689 31.36 225.129 31.36ZM224.979 17.14C227.529 17.14 229.269 19 229.269 21.73V22.06H220.389V21.85C220.389 19.15 222.339 17.14 224.979 17.14ZM236.788 31H239.188V20.26C239.188 18.22 241.108 17.29 243.028 17.29C245.398 17.29 246.688 18.67 246.688 21.49V31H249.088V21.07C249.088 17.32 246.958 15.16 243.718 15.16C241.168 15.16 239.968 16.51 239.308 18.04H239.188V15.52H236.788V31Z" transform="translate(972 322)" fill="black"/>
<path d="M0 2H102.03" transform="translate(1265.2 427.821) rotate(-150)" stroke="#C5C4C0" stroke-width="7" stroke-linecap="square"/>
<path d="M0 22.9692H23.7688V0" transform="translate(1242.03 411.855) rotate(-15)" stroke="#C5C4C0" stroke-width="7" stroke-linecap="square"/>
<path d="M5.22 31V22.06H8.55L13.65 31H16.47L11.13 21.94C14.46 21.61 16.29 19.45 16.29 16.09C16.29 12.31 14.19 10.06 10.32 10.06H2.7V31H5.22ZM10.26 19.93H5.22V12.25H10.26C12.36 12.25 13.62 13.36 13.62 15.31V16.87C13.62 18.82 12.36 19.93 10.26 19.93ZM20.6883 31H23.2083V21.49H32.9883V19.3H23.2083V12.25H33.8883V10.06H20.6883V31ZM38.4966 31H51.4566V28.99H46.2366V12.07H51.4566V10.06H38.4966V12.07H43.7166V28.99H38.4966V31ZM56.8148 10.06V31H62.6648C67.7648 31 70.2848 27.4 70.2848 20.53C70.2848 13.66 67.7648 10.06 62.6648 10.06H56.8148ZM62.5448 28.81H59.3348V12.25H62.5448C65.8748 12.25 67.6148 14.71 67.6148 18.91V22.15C67.6148 26.35 65.8748 28.81 62.5448 28.81ZM96.4514 31.36C99.1514 31.36 100.921 29.98 101.491 27.91H101.641L104.251 31H107.101L103.441 26.68C104.131 24.82 104.251 23.5 104.521 21.58H106.771V19.57H102.541C102.451 21.49 102.421 23.62 102.151 25.18H102.001L99.8114 22.48L97.1114 19.15C95.5814 17.23 94.9814 16.18 94.9814 14.92V14.68C94.9814 12.97 96.1214 11.74 97.9214 11.74C99.4814 11.74 100.531 12.67 101.041 13.9L103.021 12.88C102.451 11.35 100.711 9.7 98.0414 9.7C95.0714 9.7 92.6114 11.74 92.6114 14.77C92.6114 16.54 93.4514 18.04 94.5614 19.48C91.5614 21.01 90.6914 23.47 90.6914 25.57C90.6914 28.78 92.7914 31.36 96.4514 31.36ZM97.0814 29.23C94.7714 29.23 93.1814 27.85 93.1814 25.69V25.24C93.1814 23.53 93.8714 22.03 95.7014 20.89L100.921 27.19C100.171 28.48 98.7914 29.23 97.0814 29.23ZM128.558 10.06V31H136.568C139.808 31 142.208 28.36 142.208 24.97C142.208 22.06 140.498 20.59 138.158 20.05V19.96C140.078 19.36 141.428 17.95 141.428 15.46C141.428 12.19 139.238 10.06 135.668 10.06H128.558ZM135.818 28.81H131.078V21.22H135.818C138.128 21.22 139.538 22.3 139.538 24.4V25.63C139.538 27.76 138.128 28.81 135.818 28.81ZM135.398 19.15H131.078V12.25H135.398C137.498 12.25 138.788 13.21 138.788 15.13V16.3C138.788 18.22 137.498 19.15 135.398 19.15ZM158.756 31H160.406V28.9H158.246V20.38C158.246 17.11 155.936 15.16 152.306 15.16C149.156 15.16 147.176 16.66 146.396 18.28L148.016 19.48C148.826 18.07 150.086 17.2 152.156 17.2C154.496 17.2 155.846 18.37 155.846 20.62V22.15H152.546C147.896 22.15 145.886 23.8 145.886 26.65C145.886 29.56 147.956 31.36 151.196 31.36C153.716 31.36 155.186 30.25 155.846 28.48H155.996C156.176 29.92 156.896 31 158.756 31ZM151.616 29.35C149.636 29.35 148.406 28.51 148.406 26.92V26.29C148.406 24.79 149.696 23.95 152.546 23.95H155.846V26.5C155.846 28.09 154.076 29.35 151.616 29.35ZM164.205 28.96V31H177.135V28.96H171.135V20.47C171.135 19 172.755 17.92 175.455 17.92H178.665V15.52H175.935C173.355 15.52 171.885 16.81 171.285 18.28H171.135V15.52H164.205V17.56H168.735V28.96H164.205ZM189.423 31.36C192.513 31.36 194.463 29.83 195.363 27.76L193.653 26.59C192.873 28.27 191.523 29.29 189.453 29.29C186.543 29.29 184.983 27.31 184.983 24.58V21.94C184.983 19.21 186.573 17.23 189.393 17.23C191.313 17.23 192.633 18.16 193.203 19.75L195.123 18.73C194.253 16.63 192.393 15.16 189.393 15.16C185.013 15.16 182.403 18.34 182.403 23.26C182.403 28.15 184.983 31.36 189.423 31.36ZM206.871 31.36C211.221 31.36 213.891 28.18 213.891 23.26C213.891 18.34 211.221 15.16 206.871 15.16C202.521 15.16 199.851 18.34 199.851 23.26C199.851 28.18 202.521 31.36 206.871 31.36ZM206.871 29.29C204.201 29.29 202.401 27.7 202.401 24.37V22.15C202.401 18.82 204.201 17.23 206.871 17.23C209.541 17.23 211.341 18.82 211.341 22.15V24.37C211.341 27.7 209.541 29.29 206.871 29.29ZM228.609 28.48V31H231.009V8.8H228.609V18.04H228.489C227.499 16.15 225.879 15.16 223.719 15.16C219.939 15.16 217.659 18.19 217.659 23.26C217.659 28.33 219.939 31.36 223.719 31.36C225.879 31.36 227.499 30.37 228.489 28.48H228.609ZM224.649 29.23C221.859 29.23 220.239 27.37 220.239 24.58V21.94C220.239 19.15 221.859 17.29 224.649 17.29C226.779 17.29 228.609 18.4 228.609 20.47V26.05C228.609 28.12 226.779 29.23 224.649 29.23ZM243.118 31.36C246.178 31.36 248.398 29.86 249.328 27.79L247.558 26.59C246.748 28.27 245.188 29.29 243.118 29.29C240.208 29.29 238.378 27.31 238.378 24.58V23.86H249.838V22.72C249.838 18.34 247.138 15.16 242.968 15.16C238.768 15.16 235.858 18.34 235.858 23.29C235.858 28.18 238.678 31.36 243.118 31.36ZM242.968 17.14C245.518 17.14 247.258 19 247.258 21.73V22.06H238.378V21.85C238.378 19.15 240.328 17.14 242.968 17.14ZM278.764 31.36C283.414 31.36 286.084 29.02 286.084 25.15C286.084 22.42 284.734 20.14 280.624 19.42L278.374 19.03C275.404 18.52 274.444 17.32 274.444 15.46C274.444 13.09 276.034 11.86 278.854 11.86C281.464 11.86 282.964 12.91 284.134 14.44L285.904 12.91C284.494 10.9 282.214 9.7 278.884 9.7C274.624 9.7 271.894 11.68 271.894 15.52C271.894 18.16 273.184 20.53 277.294 21.22L279.634 21.61C282.484 22.09 283.534 23.17 283.534 25.21C283.534 27.73 281.884 29.2 278.854 29.2C276.334 29.2 274.624 28.21 273.004 26.17L271.174 27.67C272.734 29.83 275.014 31.36 278.764 31.36ZM297.352 31.36C300.443 31.36 302.393 29.83 303.292 27.76L301.582 26.59C300.802 28.27 299.453 29.29 297.383 29.29C294.473 29.29 292.913 27.31 292.913 24.58V21.94C292.913 19.21 294.503 17.23 297.323 17.23C299.243 17.23 300.563 18.16 301.133 19.75L303.053 18.73C302.183 16.63 300.322 15.16 297.323 15.16C292.943 15.16 290.332 18.34 290.332 23.26C290.332 28.15 292.913 31.36 297.352 31.36ZM320.651 31H322.301V28.9H320.141V20.38C320.141 17.11 317.831 15.16 314.201 15.16C311.051 15.16 309.071 16.66 308.291 18.28L309.911 19.48C310.721 18.07 311.981 17.2 314.051 17.2C316.391 17.2 317.741 18.37 317.741 20.62V22.15H314.441C309.791 22.15 307.781 23.8 307.781 26.65C307.781 29.56 309.851 31.36 313.091 31.36C315.611 31.36 317.081 30.25 317.741 28.48H317.891C318.071 29.92 318.791 31 320.651 31ZM313.511 29.35C311.531 29.35 310.301 28.51 310.301 26.92V26.29C310.301 24.79 311.591 23.95 314.441 23.95H317.741V26.5C317.741 28.09 315.971 29.35 313.511 29.35ZM326.729 31H329.129V20.26C329.129 18.22 331.049 17.29 332.969 17.29C335.339 17.29 336.629 18.67 336.629 21.49V31H339.029V21.07C339.029 17.32 336.899 15.16 333.659 15.16C331.109 15.16 329.909 16.51 329.249 18.04H329.129V15.52H326.729V31ZM344.717 31H347.117V20.26C347.117 18.22 349.037 17.29 350.957 17.29C353.327 17.29 354.617 18.67 354.617 21.49V31H357.017V21.07C357.017 17.32 354.887 15.16 351.647 15.16C349.097 15.16 347.897 16.51 347.237 18.04H347.117V15.52H344.717V31ZM369.036 31.36C372.096 31.36 374.316 29.86 375.246 27.79L373.476 26.59C372.666 28.27 371.106 29.29 369.036 29.29C366.126 29.29 364.296 27.31 364.296 24.58V23.86H375.756V22.72C375.756 18.34 373.056 15.16 368.886 15.16C364.686 15.16 361.776 18.34 361.776 23.29C361.776 28.18 364.596 31.36 369.036 31.36ZM368.886 17.14C371.436 17.14 373.176 19 373.176 21.73V22.06H364.296V21.85C364.296 19.15 366.246 17.14 368.886 17.14ZM380.064 28.96V31H392.994V28.96H386.994V20.47C386.994 19 388.614 17.92 391.314 17.92H394.524V15.52H391.794C389.214 15.52 387.744 16.81 387.144 18.28H386.994V15.52H380.064V17.56H384.594V28.96H380.064Z" transform="translate(1319 825)" fill="black"/>
<path fill-rule="evenodd" clip-rule="evenodd" d="M7.90997 0.741935C8.51019 1.58065 9.16934 2.53763 9.88746 3.6129C10.6056 4.68818 11.3826 5.88171 12.2186 7.19355C12.433 7.53764 12.5241 7.92473 12.492 8.35484C12.4598 8.78495 12.3044 9.24731 12.0257 9.74194C11.9185 9.95699 11.7363 10.3011 11.4791 10.7742C11.2219 11.2473 10.8896 11.8602 10.4823 12.6129C10.9325 13.2581 11.5059 13.9785 12.2026 14.7742C12.8993 15.5699 13.7085 16.4301 14.6302 17.3548C15.5734 18.3011 16.4362 19.1237 17.2186 19.8226C18.0011 20.5215 18.7031 21.0968 19.3248 21.5484C20.0536 21.1183 20.6592 20.7688 21.1415 20.5C21.6238 20.2312 21.9721 20.043 22.1865 19.9355C22.4437 19.7849 22.7063 19.672 22.9743 19.5968C23.2422 19.5215 23.4941 19.4839 23.7299 19.4839C23.9228 19.4839 24.0997 19.5054 24.2605 19.5484C24.4212 19.5914 24.5766 19.6559 24.7267 19.7419C25.6913 20.3226 26.7095 20.9731 27.7814 21.6935C28.8532 22.414 30 23.2043 31.2219 24.0645C31.4362 24.2151 31.6077 24.4086 31.7363 24.6452C31.865 24.8817 31.9507 25.1398 31.9936 25.4194C32.015 25.7204 31.9829 26.0269 31.8971 26.3387C31.8114 26.6505 31.6613 26.9677 31.4469 27.2903C31.3612 27.4409 31.2326 27.6237 31.0611 27.8387C30.8896 28.0538 30.686 28.3011 30.4502 28.5806C30.2358 28.8602 29.9571 29.1774 29.6141 29.5323C29.2712 29.8871 28.8639 30.2796 28.3923 30.7097C27.9421 31.1398 27.5295 31.4624 27.1543 31.6774C26.7792 31.8925 26.4523 32 26.1736 32H26.1093C24.9946 31.957 23.8264 31.7151 22.6045 31.2742C21.3826 30.8333 20.0965 30.2043 18.746 29.3871C17.3955 28.5699 15.9807 27.5484 14.5016 26.3226C13.0225 25.0968 11.4791 23.6882 9.87138 22.0968C8.26366 20.4839 6.85424 18.9355 5.64309 17.4516C4.43193 15.9677 3.41372 14.5484 2.58842 13.1935C1.76313 11.8387 1.13612 10.543 0.707395 9.30645C0.278669 8.06989 0.0428727 6.90323 0 5.80645C0 5.50537 0.10718 5.16667 0.321543 4.79032C0.535907 4.41398 0.857447 3.98925 1.28617 3.51613C1.7149 3.04301 2.10075 2.63979 2.44373 2.30645C2.78671 1.97312 3.09753 1.69893 3.37621 1.48387C3.63344 1.29032 3.87996 1.10753 4.11576 0.935484C4.35156 0.76344 4.5552 0.612904 4.72669 0.483871C4.96249 0.311827 5.209 0.188172 5.46624 0.112903C5.72347 0.037634 6.00214 0 6.30225 0C6.64523 0 6.9507 0.0591392 7.21865 0.177419C7.4866 0.2957 7.71704 0.48387 7.90997 0.741935ZM5.85207 2.06458C5.42335 2.36566 5.00534 2.69361 4.59805 3.04845C4.19076 3.40329 3.7942 3.77425 3.40834 4.16135C3.02249 4.54845 2.71703 4.88178 2.49195 5.16135C2.26686 5.44092 2.12217 5.67748 2.05786 5.87103C2.10073 6.83878 2.32581 7.87103 2.7331 8.9678C3.14039 10.0646 3.72988 11.2312 4.50159 12.4678C5.2733 13.7044 6.2272 15.0054 7.36333 16.371C8.49945 17.7366 9.81777 19.1721 11.3183 20.6775C12.8189 22.1829 14.2497 23.5054 15.6109 24.6452C16.9721 25.785 18.269 26.742 19.5016 27.5162C20.7342 28.2904 21.9024 28.8818 23.0064 29.2904C24.1104 29.699 25.1447 29.9355 26.1093 30.0001C26.2594 29.9355 26.4737 29.785 26.7524 29.5485C27.0311 29.3119 27.3633 29.0001 27.7492 28.613C28.135 28.2259 28.4994 27.8226 28.8424 27.4033C29.1854 26.9839 29.5177 26.5592 29.8392 26.1291C29.9035 26.0431 29.9464 25.9624 29.9678 25.8872C29.9893 25.8119 29.9893 25.742 29.9678 25.6775C28.7245 24.7958 27.5831 24.0108 26.5434 23.3226C25.5037 22.6345 24.5659 22.0216 23.7299 21.4839C23.6441 21.4839 23.5477 21.5001 23.4405 21.5323C23.3333 21.5646 23.2154 21.613 23.0868 21.6775C22.9153 21.785 22.5938 21.9678 22.1222 22.2259C21.6506 22.4839 21.0396 22.8173 20.2894 23.2259L19.2283 23.871L18.1672 23.1614C17.4812 22.6882 16.7256 22.0807 15.9003 21.3388C15.075 20.5968 14.1693 19.7313 13.1833 18.742C12.2186 17.7527 11.3719 16.8442 10.6431 16.0162C9.91424 15.1882 9.31403 14.4302 8.84243 13.742L8.07072 12.742L8.71381 11.613C9.1211 10.8603 9.45336 10.2528 9.71059 9.79039C9.96783 9.32802 10.15 9.00006 10.2572 8.80651C10.3215 8.67748 10.3698 8.5592 10.4019 8.45168C10.4341 8.34415 10.4501 8.24738 10.4501 8.16135C9.69987 6.97855 8.98713 5.87104 8.31188 4.83877C7.63664 3.80651 6.9882 2.83878 6.36654 1.93555H6.30223C6.21649 1.93555 6.1361 1.9463 6.06108 1.9678C5.98605 1.98931 5.91638 2.02157 5.85207 2.06458Z" transform="translate(1288 428)" fill="black"/>
<path fill-rule="evenodd" clip-rule="evenodd" d="M31.9922 6.72688C32.013 6.8777 31.9922 7.03391 31.9296 7.1955C31.867 7.35709 31.7731 7.49175 31.6479 7.59948L26.4841 12.0594L30.8968 15.6791C31.022 15.7653 31.1159 15.8838 31.1785 16.0346C31.2411 16.1854 31.2724 16.347 31.2724 16.5194C31.2724 16.6918 31.2306 16.848 31.1472 16.988C31.0637 17.1281 30.9594 17.2412 30.8342 17.3274L26.9535 20.0098V25.0838C26.9535 25.2562 26.9118 25.4178 26.8284 25.5686C26.7449 25.7194 26.6302 25.8487 26.4841 25.9564L16.532 31.8384C16.4486 31.903 16.3599 31.9461 16.266 31.9677C16.1721 31.9892 16.0835 32 16 32C15.9165 32 15.8279 31.9892 15.734 31.9677C15.6401 31.9461 15.5514 31.903 15.468 31.8384L5.39071 25.9564C5.24466 25.8487 5.12991 25.7194 5.04645 25.5686C4.963 25.4178 4.92127 25.2562 4.92127 25.0838V20.9147C4.92127 20.7639 4.95257 20.6239 5.01516 20.4946C5.07775 20.3653 5.16121 20.2576 5.26553 20.1714L1.16577 17.3274C1.01972 17.2412 0.910188 17.1281 0.837164 16.988C0.76414 16.848 0.717197 16.6918 0.696333 16.5194C0.696333 16.347 0.727628 16.1854 0.79022 16.0346C0.852812 15.8838 0.957131 15.7653 1.10318 15.6791L5.51589 12.0594L0.352078 7.59948C0.226894 7.49175 0.133008 7.35709 0.0704157 7.1955C0.00782374 7.03391 -0.01304 6.8777 0.00782405 6.72688C0.00782405 6.55451 0.0495514 6.39831 0.133007 6.25826C0.216463 6.11821 0.331214 6.0051 0.477262 5.91892L9.39658 0.16621C9.56349 0.0369349 9.75648 -0.0169288 9.97555 0.00461701C10.1946 0.0261628 10.3876 0.101572 10.5545 0.230847L16 4.78777L21.4455 0.230847C21.6124 0.101572 21.8054 0.0261628 22.0245 0.00461701C22.2435 -0.0169288 22.4365 0.0369349 22.6034 0.16621L31.5227 5.91892C31.6688 6.0051 31.7835 6.11821 31.867 6.25826C31.9504 6.39831 31.9922 6.55451 31.9922 6.72688ZM23.0416 12.0917L16.0001 7.34082L8.9585 12.0917L16.0001 16.6162L23.0416 12.0917ZM2.69922 6.92087L7.17452 10.7991L14.31 6.01595L9.83467 2.29932L2.69922 6.92087ZM7.17469 13.3523L3.41919 16.4226L10.2417 21.1088L14.2476 17.9415L7.17469 13.3523ZM6.92432 21.3025V24.502L14.9361 29.1236V20.0098L10.8989 23.2093C10.7111 23.3386 10.5129 23.4032 10.3043 23.4032C10.0956 23.4032 9.89742 23.3494 9.70965 23.2416L6.92432 21.3025ZM24.9507 24.5021V21.3672L22.2593 23.2417C22.1758 23.2847 22.0871 23.3225 21.9932 23.3548C21.8994 23.3871 21.8003 23.4032 21.6959 23.4032C21.5916 23.4032 21.4873 23.3871 21.383 23.3548C21.2787 23.3225 21.1848 23.274 21.1013 23.2093L16.939 19.9128V29.1883L24.9507 24.5021ZM28.5498 16.3902L24.8255 13.3523L17.7527 17.9415L21.7273 21.1088L28.5498 16.3902ZM24.8254 10.7991L29.3007 6.92087L22.1652 2.29932L17.6899 6.01595L24.8254 10.7991Z" transform="translate(1372 428)" fill="black"/>
<path fill-rule="evenodd" clip-rule="evenodd" d="M7 0C7.27083 0 7.50521 0.0989573 7.70312 0.296875C7.90104 0.494793 8 0.729165 8 1C8 1.27083 7.90104 1.50521 7.70312 1.70312C7.50521 1.90104 7.27083 2 7 2H2V7C2 7.27083 1.90104 7.50521 1.70312 7.70312C1.50521 7.90104 1.27083 8 1 8C0.729165 8 0.494793 7.90104 0.296875 7.70312C0.0989573 7.50521 0 7.27083 0 7V1C0 0.729165 0.0989573 0.494793 0.296875 0.296875C0.494793 0.0989573 0.729165 0 1 0H7ZM31 17C31.2708 17 31.5052 17.099 31.7031 17.2969C31.901 17.4948 32 17.7292 32 18V24C32 24.2708 31.901 24.5052 31.7031 24.7031C31.5052 24.901 31.2708 25 31 25H25C24.7292 25 24.4948 24.901 24.2969 24.7031C24.099 24.5052 24 24.2708 24 24C24 23.7292 24.099 23.4948 24.2969 23.2969C24.4948 23.099 24.7292 23 25 23H30V18C30 17.7292 30.099 17.4948 30.2969 17.2969C30.4948 17.099 30.7292 17 31 17ZM7 23C7.27083 23 7.50521 23.099 7.70312 23.2969C7.90104 23.4948 8 23.7292 8 24C8 24.2708 7.90104 24.5052 7.70312 24.7031C7.50521 24.901 7.27083 25 7 25H1C0.729165 25 0.494793 24.901 0.296875 24.7031C0.0989573 24.5052 0 24.2708 0 24V18C0 17.7292 0.0989573 17.4948 0.296875 17.2969C0.494793 17.099 0.729165 17 1 17C1.27083 17 1.50521 17.099 1.70312 17.2969C1.90104 17.4948 2 17.7292 2 18V23H7ZM31 0C31.2708 0 31.5052 0.0989573 31.7031 0.296875C31.901 0.494793 32 0.729165 32 1V7C32 7.27083 31.901 7.50521 31.7031 7.70312C31.5052 7.90104 31.2708 8 31 8C30.7292 8 30.4948 7.90104 30.2969 7.70312C30.099 7.50521 30 7.27083 30 7V2H25C24.7292 2 24.4948 1.90104 24.2969 1.70312C24.099 1.50521 24 1.27083 24 1C24 0.729165 24.099 0.494793 24.2969 0.296875C24.4948 0.0989573 24.7292 0 25 0H31Z" transform="translate(1452 429.5)" fill="black"/>
<path d="M6 2V18" transform="translate(1452 432)" stroke="black" stroke-width="1.5" stroke-linecap="round"/>
<path d="M6 2V18" transform="translate(1456 432)" stroke="black" stroke-width="1.5" stroke-linecap="round"/>
<path d="M6 2V18" transform="translate(1460 432)" stroke="black" stroke-width="1.5" stroke-linecap="round"/>
<path d="M6 2V18" transform="translate(1464 432)" stroke="black" stroke-width="1.5" stroke-linecap="round"/>
<path d="M6 2V18" transform="translate(1468 432)" stroke="black" stroke-width="1.5" stroke-linecap="round"/>
<path d="M6 2V18" transform="translate(1472 432)" stroke="black" stroke-width="1.5" stroke-linecap="round"/>
</svg>
