<svg width="1920" height="882" viewBox="0 0 1920 882" fill="none" xmlns="http://www.w3.org/2000/svg">
<path fill-rule="evenodd" clip-rule="evenodd" d="M0 27.7199V23.2399L24.08 9.2959V13.9439L4.2 25.1999V25.6479L24.08 36.9039V41.6639L0 27.7199ZM33.8799 50.288L53.3679 0H57.3999L37.9119 50.288H33.8799ZM67.2002 37.0159L87.0802 25.7599V25.3119L67.2002 14.0559V9.2959L91.2802 23.2399V27.7199L67.2002 41.6639V37.0159Z" transform="translate(927.76 557.44)" fill="white"/>
<path fill-rule="evenodd" clip-rule="evenodd" d="M0 27.7199V23.2399L24.08 9.2959V13.9439L4.2 25.1999V25.6479L24.08 36.9039V41.6639L0 27.7199ZM33.8799 50.288L53.3679 0H57.3999L37.9119 50.288H33.8799ZM67.2002 37.0159L87.0802 25.7599V25.3119L67.2002 14.0559V9.2959L91.2802 23.2399V27.7199L67.2002 41.6639V37.0159Z" transform="translate(927.76 557.44)" fill="white"/>
<path d="M52.5684 6.0918C47.1908 2.94727 41.3346 1.375 35 1.375C28.6654 1.375 22.8092 2.94727 17.4316 6.0918C12.054 9.19076 7.79297 13.429 4.64844 18.8066C1.54948 24.1842 0 30.0404 0 36.375C0 42.7096 1.54948 48.5658 4.64844 53.9434C7.79297 59.321 12.054 63.582 17.4316 66.7266C22.8092 69.8255 28.6654 71.375 35 71.375C41.3346 71.375 47.1908 69.8255 52.5684 66.7266C57.946 63.582 62.1842 59.321 65.2832 53.9434C68.4277 48.5658 70 42.7096 70 36.375C70 30.0404 68.4277 24.1842 65.2832 18.8066C62.1842 13.429 57.946 9.19076 52.5684 6.0918ZM35 67.0684C31.6732 67.0684 28.4375 66.5671 25.293 65.5645C22.194 64.5163 19.3913 63.0352 16.8848 61.1211C14.3783 59.207 12.168 56.9967 10.2539 54.4902C8.38542 51.9837 6.92708 49.181 5.87891 46.082C4.8763 42.9375 4.375 39.7018 4.375 36.375C4.375 32.2279 5.17253 28.263 6.76758 24.4805C8.4082 20.6979 10.5957 17.4395 13.3301 14.7051C16.0645 11.9707 19.3229 9.80599 23.1055 8.21094C26.888 6.57031 30.8529 5.75 35 5.75C39.1471 5.75 43.112 6.57031 46.8945 8.21094C50.6771 9.80599 53.9355 11.9707 56.6699 14.7051C59.4043 17.4395 61.569 20.6979 63.1641 24.4805C64.8047 28.263 65.625 32.2279 65.625 36.375C65.625 40.5221 64.8047 44.487 63.1641 48.2695C61.569 52.0521 59.4043 55.3333 56.6699 58.1133C53.9355 60.8477 50.6771 63.0352 46.8945 64.6758C43.112 66.2708 39.1471 67.0684 35 67.0684ZM37.1875 35.4863V14.5C37.1875 13.9076 36.9596 13.4062 36.5039 12.9961C36.0938 12.5404 35.5924 12.3125 35 12.3125C34.4076 12.3125 33.8835 12.5404 33.4277 12.9961C33.0176 13.4062 32.8125 13.9076 32.8125 14.5V36.375C32.8125 37.013 33.0404 37.5371 33.4961 37.9473C33.4961 37.9473 33.4961 37.9701 33.4961 38.0156C33.5417 38.0612 33.5645 38.084 33.5645 38.084L44.4336 48.8848C44.8438 49.3405 45.3451 49.5684 45.9375 49.5684C46.5755 49.5684 47.0996 49.3633 47.5098 48.9531C47.9199 48.4974 48.125 47.9733 48.125 47.3809C48.125 46.7428 47.9199 46.2188 47.5098 45.8086L37.1875 35.4863Z" transform="translate(506 534)" fill="white"/>
<path d="M9.76617 31.36C7.24617 31.36 5.34617 30.44 4.06617 28.6C2.80617 26.74 2.17617 24.05 2.17617 20.53C2.17617 17.01 2.80617 14.33 4.06617 12.49C5.34617 10.63 7.24617 9.7 9.76617 9.7C11.5062 9.7 12.8562 10.12 13.8162 10.96C14.7962 11.78 15.5962 12.89 16.2162 14.29L14.0562 15.28C13.6162 14.18 13.0762 13.34 12.4362 12.76C11.8162 12.18 10.9262 11.89 9.76617 11.89C8.14617 11.89 6.91617 12.51 6.07617 13.75C5.25617 14.97 4.84617 16.66 4.84617 18.82V22.24C4.84617 24.4 5.25617 26.1 6.07617 27.34C6.91617 28.56 8.14617 29.17 9.76617 29.17C10.9262 29.17 11.8162 28.88 12.4362 28.3C13.0762 27.72 13.6162 26.88 14.0562 25.78L16.2162 26.77C15.5962 28.17 14.7962 29.29 13.8162 30.13C12.8562 30.95 11.5062 31.36 9.76617 31.36ZM27.0645 31.36C25.6245 31.36 24.3745 31.03 23.3145 30.37C22.2745 29.71 21.4645 28.77 20.8845 27.55C20.3245 26.33 20.0445 24.9 20.0445 23.26C20.0445 21.62 20.3245 20.19 20.8845 18.97C21.4645 17.75 22.2745 16.81 23.3145 16.15C24.3745 15.49 25.6245 15.16 27.0645 15.16C28.5045 15.16 29.7445 15.49 30.7845 16.15C31.8445 16.81 32.6545 17.75 33.2145 18.97C33.7945 20.19 34.0845 21.62 34.0845 23.26C34.0845 24.9 33.7945 26.33 33.2145 27.55C32.6545 28.77 31.8445 29.71 30.7845 30.37C29.7445 31.03 28.5045 31.36 27.0645 31.36ZM27.0645 29.29C28.4445 29.29 29.5345 28.88 30.3345 28.06C31.1345 27.22 31.5345 25.99 31.5345 24.37V22.15C31.5345 20.53 31.1345 19.31 30.3345 18.49C29.5345 17.65 28.4445 17.23 27.0645 17.23C25.6845 17.23 24.5945 17.65 23.7945 18.49C22.9945 19.31 22.5945 20.53 22.5945 22.15V24.37C22.5945 25.99 22.9945 27.22 23.7945 28.06C24.5945 28.88 25.6845 29.29 27.0645 29.29ZM48.6827 28.48C47.6827 30.4 46.0927 31.36 43.9127 31.36C42.0127 31.36 40.5227 30.65 39.4427 29.23C38.3827 27.79 37.8527 25.8 37.8527 23.26C37.8527 20.72 38.3827 18.74 39.4427 17.32C40.5227 15.88 42.0127 15.16 43.9127 15.16C46.0927 15.16 47.6827 16.12 48.6827 18.04H48.8027V8.8H51.2027V31H48.8027V28.48H48.6827ZM44.8427 29.23C45.9627 29.23 46.9027 28.95 47.6627 28.39C48.4227 27.83 48.8027 27.05 48.8027 26.05V20.47C48.8027 19.47 48.4227 18.69 47.6627 18.13C46.9027 17.57 45.9627 17.29 44.8427 17.29C43.4627 17.29 42.3827 17.71 41.6027 18.55C40.8227 19.39 40.4327 20.52 40.4327 21.94V24.58C40.4327 26 40.8227 27.13 41.6027 27.97C42.3827 28.81 43.4627 29.23 44.8427 29.23ZM63.311 31.36C61.851 31.36 60.571 31.03 59.471 30.37C58.371 29.71 57.521 28.77 56.921 27.55C56.341 26.33 56.051 24.91 56.051 23.29C56.051 21.67 56.351 20.25 56.951 19.03C57.551 17.79 58.381 16.84 59.441 16.18C60.521 15.5 61.761 15.16 63.161 15.16C64.521 15.16 65.721 15.49 66.761 16.15C67.801 16.79 68.601 17.68 69.161 18.82C69.741 19.96 70.031 21.26 70.031 22.72V23.86H58.571V24.58C58.571 25.96 59.001 27.09 59.861 27.97C60.721 28.85 61.871 29.29 63.311 29.29C64.331 29.29 65.221 29.06 65.981 28.6C66.741 28.12 67.331 27.45 67.751 26.59L69.521 27.79C69.041 28.87 68.251 29.74 67.151 30.4C66.071 31.04 64.791 31.36 63.311 31.36ZM63.161 17.14C62.301 17.14 61.521 17.35 60.821 17.77C60.121 18.17 59.571 18.73 59.171 19.45C58.771 20.17 58.571 20.97 58.571 21.85V22.06H67.451V21.73C67.451 20.37 67.051 19.27 66.251 18.43C65.471 17.57 64.441 17.14 63.161 17.14ZM98.9576 31.36C97.1776 31.36 95.6776 31.04 94.4576 30.4C93.2376 29.74 92.2076 28.83 91.3676 27.67L93.1976 26.17C94.0176 27.21 94.8876 27.98 95.8076 28.48C96.7276 28.96 97.8076 29.2 99.0476 29.2C100.548 29.2 101.698 28.85 102.498 28.15C103.318 27.45 103.728 26.47 103.728 25.21C103.728 24.17 103.428 23.37 102.828 22.81C102.228 22.25 101.228 21.85 99.8276 21.61L97.4876 21.22C95.5676 20.9 94.1876 20.24 93.3476 19.24C92.5076 18.22 92.0876 16.98 92.0876 15.52C92.0876 13.64 92.7076 12.2 93.9476 11.2C95.1876 10.2 96.8976 9.7 99.0776 9.7C102.258 9.7 104.598 10.77 106.098 12.91L104.328 14.44C103.688 13.6 102.948 12.96 102.108 12.52C101.288 12.08 100.268 11.86 99.0476 11.86C97.6276 11.86 96.5376 12.17 95.7776 12.79C95.0176 13.39 94.6376 14.28 94.6376 15.46C94.6376 16.44 94.9276 17.22 95.5076 17.8C96.1076 18.38 97.1276 18.79 98.5676 19.03L100.818 19.42C104.458 20.06 106.278 21.97 106.278 25.15C106.278 27.09 105.638 28.61 104.358 29.71C103.078 30.81 101.278 31.36 98.9576 31.36ZM110.946 15.52H113.346V18.04H113.466C114.286 16.12 115.756 15.16 117.876 15.16C119.516 15.16 120.816 15.68 121.776 16.72C122.756 17.76 123.246 19.21 123.246 21.07V31H120.846V21.49C120.846 20.09 120.536 19.04 119.916 18.34C119.296 17.64 118.386 17.29 117.186 17.29C116.126 17.29 115.216 17.55 114.456 18.07C113.716 18.57 113.346 19.3 113.346 20.26V31H110.946V15.52ZM135.954 12.1C135.294 12.1 134.814 11.96 134.514 11.68C134.214 11.4 134.064 11.03 134.064 10.57V10.09C134.064 9.63 134.214 9.26 134.514 8.98C134.814 8.7 135.294 8.56 135.954 8.56C136.614 8.56 137.094 8.7 137.394 8.98C137.694 9.26 137.844 9.63 137.844 10.09V10.57C137.844 11.03 137.694 11.4 137.394 11.68C137.094 11.96 136.614 12.1 135.954 12.1ZM134.754 28.96V17.56H129.174V15.52H137.154V28.96H142.374V31H129.174V28.96H134.754ZM149.232 15.52V18.04H149.352C150.352 16.12 151.942 15.16 154.122 15.16C156.022 15.16 157.502 15.88 158.562 17.32C159.642 18.74 160.182 20.72 160.182 23.26C160.182 25.8 159.642 27.79 158.562 29.23C157.502 30.65 156.022 31.36 154.122 31.36C151.942 31.36 150.352 30.4 149.352 28.48H149.232V37H146.832V15.52H149.232ZM153.192 29.23C154.572 29.23 155.652 28.81 156.432 27.97C157.212 27.13 157.602 26 157.602 24.58V21.94C157.602 20.52 157.212 19.39 156.432 18.55C155.652 17.71 154.572 17.29 153.192 17.29C152.072 17.29 151.132 17.57 150.372 18.13C149.612 18.69 149.232 19.47 149.232 20.47V26.05C149.232 27.05 149.612 27.83 150.372 28.39C151.132 28.95 152.072 29.23 153.192 29.23ZM167.221 15.52V18.04H167.341C168.341 16.12 169.931 15.16 172.111 15.16C174.011 15.16 175.491 15.88 176.551 17.32C177.631 18.74 178.171 20.72 178.171 23.26C178.171 25.8 177.631 27.79 176.551 29.23C175.491 30.65 174.011 31.36 172.111 31.36C169.931 31.36 168.341 30.4 167.341 28.48H167.221V37H164.821V15.52H167.221ZM171.181 29.23C172.561 29.23 173.641 28.81 174.421 27.97C175.201 27.13 175.591 26 175.591 24.58V21.94C175.591 20.52 175.201 19.39 174.421 18.55C173.641 17.71 172.561 17.29 171.181 17.29C170.061 17.29 169.121 17.57 168.361 18.13C167.601 18.69 167.221 19.47 167.221 20.47V26.05C167.221 27.05 167.601 27.83 168.361 28.39C169.121 28.95 170.061 29.23 171.181 29.23ZM189.229 31.36C187.769 31.36 186.489 31.03 185.389 30.37C184.289 29.71 183.439 28.77 182.839 27.55C182.259 26.33 181.969 24.91 181.969 23.29C181.969 21.67 182.269 20.25 182.869 19.03C183.469 17.79 184.299 16.84 185.359 16.18C186.439 15.5 187.679 15.16 189.079 15.16C190.439 15.16 191.639 15.49 192.679 16.15C193.719 16.79 194.519 17.68 195.079 18.82C195.659 19.96 195.949 21.26 195.949 22.72V23.86H184.489V24.58C184.489 25.96 184.919 27.09 185.779 27.97C186.639 28.85 187.789 29.29 189.229 29.29C190.249 29.29 191.139 29.06 191.899 28.6C192.659 28.12 193.249 27.45 193.669 26.59L195.439 27.79C194.959 28.87 194.169 29.74 193.069 30.4C191.989 31.04 190.709 31.36 189.229 31.36ZM189.079 17.14C188.219 17.14 187.439 17.35 186.739 17.77C186.039 18.17 185.489 18.73 185.089 19.45C184.689 20.17 184.489 20.97 184.489 21.85V22.06H193.369V21.73C193.369 20.37 192.969 19.27 192.169 18.43C191.389 17.57 190.359 17.14 189.079 17.14ZM207.697 31C206.577 31 205.727 30.68 205.147 30.04C204.567 29.4 204.277 28.54 204.277 27.46V17.56H199.117V15.52H202.957C203.477 15.52 203.837 15.42 204.037 15.22C204.257 15 204.367 14.63 204.367 14.11V10.06H206.677V15.52H213.727V17.56H206.677V28.96H213.727V31H207.697ZM34.7686 67.96V56.56H29.2486V54.52H34.7686V51.34C34.7686 50.26 35.0586 49.4 35.6386 48.76C36.2186 48.12 37.0686 47.8 38.1886 47.8H43.3786V49.84H37.1686V54.52H43.3786V56.56H37.1686V67.96H42.6886V70H29.5486V67.96H34.7686ZM51.1669 51.46C50.5869 51.46 50.1569 51.34 49.8769 51.1C49.5969 50.84 49.4569 50.5 49.4569 50.08V49.66C49.4569 49.24 49.5969 48.91 49.8769 48.67C50.1569 48.41 50.5869 48.28 51.1669 48.28C51.7469 48.28 52.1769 48.41 52.4569 48.67C52.7369 48.91 52.8769 49.24 52.8769 49.66V50.08C52.8769 50.5 52.7369 50.84 52.4569 51.1C52.1769 51.34 51.7469 51.46 51.1669 51.46ZM56.7469 51.46C56.1669 51.46 55.7369 51.34 55.4569 51.1C55.1769 50.84 55.0369 50.5 55.0369 50.08V49.66C55.0369 49.24 55.1769 48.91 55.4569 48.67C55.7369 48.41 56.1669 48.28 56.7469 48.28C57.3269 48.28 57.7569 48.41 58.0369 48.67C58.3169 48.91 58.4569 49.24 58.4569 49.66V50.08C58.4569 50.5 58.3169 50.84 58.0369 51.1C57.7569 51.34 57.3269 51.46 56.7469 51.46ZM57.5869 67.48C56.7669 69.4 55.2969 70.36 53.1769 70.36C51.5369 70.36 50.2269 69.84 49.2469 68.8C48.2869 67.76 47.8069 66.31 47.8069 64.45V54.52H50.2069V64.03C50.2069 65.43 50.5169 66.48 51.1369 67.18C51.7569 67.88 52.6669 68.23 53.8669 68.23C54.9269 68.23 55.8269 67.98 56.5669 67.48C57.3269 66.96 57.7069 66.22 57.7069 65.26V54.52H60.1069V70H57.7069V67.48H57.5869ZM69.8752 67.96V56.56H65.3452V54.52H72.2752V57.28H72.4252C72.7452 56.48 73.2952 55.82 74.0752 55.3C74.8552 54.78 75.8552 54.52 77.0752 54.52H79.8052V56.92H76.5952C75.2752 56.92 74.2252 57.16 73.4452 57.64C72.6652 58.1 72.2752 58.71 72.2752 59.47V67.96H78.2752V70H65.3452V67.96H69.8752ZM107.952 70.36C106.172 70.36 104.672 70.04 103.452 69.4C102.232 68.74 101.202 67.83 100.362 66.67L102.192 65.17C103.012 66.21 103.882 66.98 104.802 67.48C105.722 67.96 106.802 68.2 108.042 68.2C109.542 68.2 110.692 67.85 111.492 67.15C112.312 66.45 112.722 65.47 112.722 64.21C112.722 63.17 112.422 62.37 111.822 61.81C111.222 61.25 110.222 60.85 108.822 60.61L106.482 60.22C104.562 59.9 103.182 59.24 102.342 58.24C101.502 57.22 101.082 55.98 101.082 54.52C101.082 52.64 101.702 51.2 102.942 50.2C104.182 49.2 105.892 48.7 108.072 48.7C111.252 48.7 113.592 49.77 115.092 51.91L113.322 53.44C112.682 52.6 111.942 51.96 111.102 51.52C110.282 51.08 109.262 50.86 108.042 50.86C106.622 50.86 105.532 51.17 104.772 51.79C104.012 52.39 103.632 53.28 103.632 54.46C103.632 55.44 103.922 56.22 104.502 56.8C105.102 57.38 106.122 57.79 107.562 58.03L109.812 58.42C113.452 59.06 115.272 60.97 115.272 64.15C115.272 66.09 114.632 67.61 113.352 68.71C112.072 69.81 110.272 70.36 107.952 70.36ZM126.75 70C125.63 70 124.78 69.68 124.2 69.04C123.62 68.4 123.33 67.54 123.33 66.46V56.56H118.17V54.52H122.01C122.53 54.52 122.89 54.42 123.09 54.22C123.31 54 123.42 53.63 123.42 53.11V49.06H125.73V54.52H132.78V56.56H125.73V67.96H132.78V70H126.75ZM143.988 70.36C142.548 70.36 141.298 70.03 140.238 69.37C139.198 68.71 138.388 67.77 137.808 66.55C137.248 65.33 136.968 63.9 136.968 62.26C136.968 60.62 137.248 59.19 137.808 57.97C138.388 56.75 139.198 55.81 140.238 55.15C141.298 54.49 142.548 54.16 143.988 54.16C145.428 54.16 146.668 54.49 147.708 55.15C148.768 55.81 149.578 56.75 150.138 57.97C150.718 59.19 151.008 60.62 151.008 62.26C151.008 63.9 150.718 65.33 150.138 66.55C149.578 67.77 148.768 68.71 147.708 69.37C146.668 70.03 145.428 70.36 143.988 70.36ZM143.988 68.29C145.368 68.29 146.458 67.88 147.258 67.06C148.058 66.22 148.458 64.99 148.458 63.37V61.15C148.458 59.53 148.058 58.31 147.258 57.49C146.458 56.65 145.368 56.23 143.988 56.23C142.608 56.23 141.518 56.65 140.718 57.49C139.918 58.31 139.518 59.53 139.518 61.15V63.37C139.518 64.99 139.918 66.22 140.718 67.06C141.518 67.88 142.608 68.29 143.988 68.29ZM159.817 67.96V56.56H155.287V54.52H162.217V57.28H162.367C162.687 56.48 163.237 55.82 164.017 55.3C164.797 54.78 165.797 54.52 167.017 54.52H169.747V56.92H166.537C165.217 56.92 164.167 57.16 163.387 57.64C162.607 58.1 162.217 58.71 162.217 59.47V67.96H168.217V70H155.287V67.96H159.817ZM180.235 70.36C178.775 70.36 177.495 70.03 176.395 69.37C175.295 68.71 174.445 67.77 173.845 66.55C173.265 65.33 172.975 63.91 172.975 62.29C172.975 60.67 173.275 59.25 173.875 58.03C174.475 56.79 175.305 55.84 176.365 55.18C177.445 54.5 178.685 54.16 180.085 54.16C181.445 54.16 182.645 54.49 183.685 55.15C184.725 55.79 185.525 56.68 186.085 57.82C186.665 58.96 186.955 60.26 186.955 61.72V62.86H175.495V63.58C175.495 64.96 175.925 66.09 176.785 66.97C177.645 67.85 178.795 68.29 180.235 68.29C181.255 68.29 182.145 68.06 182.905 67.6C183.665 67.12 184.255 66.45 184.675 65.59L186.445 66.79C185.965 67.87 185.175 68.74 184.075 69.4C182.995 70.04 181.715 70.36 180.235 70.36ZM180.085 56.14C179.225 56.14 178.445 56.35 177.745 56.77C177.045 57.17 176.495 57.73 176.095 58.45C175.695 59.17 175.495 59.97 175.495 60.85V61.06H184.375V60.73C184.375 59.37 183.975 58.27 183.175 57.43C182.395 56.57 181.365 56.14 180.085 56.14ZM198.133 70.36C195.133 70.36 192.743 69.35 190.963 67.33L192.583 65.92C193.343 66.74 194.173 67.35 195.073 67.75C195.973 68.15 197.013 68.35 198.193 68.35C199.453 68.35 200.453 68.13 201.193 67.69C201.933 67.23 202.303 66.56 202.303 65.68C202.303 64.94 202.063 64.41 201.583 64.09C201.103 63.77 200.433 63.55 199.573 63.43L197.143 63.07C196.163 62.93 195.303 62.74 194.563 62.5C193.823 62.24 193.183 61.82 192.643 61.24C192.103 60.64 191.833 59.82 191.833 58.78C191.833 57.28 192.403 56.14 193.543 55.36C194.683 54.56 196.193 54.16 198.073 54.16C200.713 54.16 202.813 54.99 204.373 56.65L202.813 58.12C201.733 56.82 200.123 56.17 197.983 56.17C196.763 56.17 195.823 56.38 195.163 56.8C194.523 57.22 194.203 57.83 194.203 58.63C194.203 59.37 194.443 59.9 194.923 60.22C195.423 60.54 196.093 60.76 196.933 60.88L199.363 61.24C200.363 61.38 201.233 61.58 201.973 61.84C202.713 62.08 203.343 62.5 203.863 63.1C204.403 63.68 204.673 64.49 204.673 65.53C204.673 67.05 204.083 68.24 202.903 69.1C201.723 69.94 200.133 70.36 198.133 70.36Z" transform="translate(857 642)" fill="white"/>
<path d="M9.01617 31.36C7.23617 31.36 5.73617 31.04 4.51617 30.4C3.29617 29.74 2.26617 28.83 1.42617 27.67L3.25617 26.17C4.07617 27.21 4.94617 27.98 5.86617 28.48C6.78617 28.96 7.86617 29.2 9.10617 29.2C10.6062 29.2 11.7562 28.85 12.5562 28.15C13.3762 27.45 13.7862 26.47 13.7862 25.21C13.7862 24.17 13.4862 23.37 12.8862 22.81C12.2862 22.25 11.2862 21.85 9.88617 21.61L7.54617 21.22C5.62617 20.9 4.24617 20.24 3.40617 19.24C2.56617 18.22 2.14617 16.98 2.14617 15.52C2.14617 13.64 2.76617 12.2 4.00617 11.2C5.24617 10.2 6.95617 9.7 9.13617 9.7C12.3162 9.7 14.6562 10.77 16.1562 12.91L14.3862 14.44C13.7462 13.6 13.0062 12.96 12.1662 12.52C11.3462 12.08 10.3262 11.86 9.10617 11.86C7.68617 11.86 6.59617 12.17 5.83617 12.79C5.07617 13.39 4.69617 14.28 4.69617 15.46C4.69617 16.44 4.98617 17.22 5.56617 17.8C6.16617 18.38 7.18617 18.79 8.62617 19.03L10.8762 19.42C14.5162 20.06 16.3362 21.97 16.3362 25.15C16.3362 27.09 15.6962 28.61 14.4162 29.71C13.1362 30.81 11.3362 31.36 9.01617 31.36ZM27.8145 31C26.6945 31 25.8445 30.68 25.2645 30.04C24.6845 29.4 24.3945 28.54 24.3945 27.46V17.56H19.2345V15.52H23.0745C23.5945 15.52 23.9545 15.42 24.1545 15.22C24.3745 15 24.4845 14.63 24.4845 14.11V10.06H26.7945V15.52H33.8445V17.56H26.7945V28.96H33.8445V31H27.8145ZM45.0527 31.36C43.6127 31.36 42.3627 31.03 41.3027 30.37C40.2627 29.71 39.4527 28.77 38.8727 27.55C38.3127 26.33 38.0327 24.9 38.0327 23.26C38.0327 21.62 38.3127 20.19 38.8727 18.97C39.4527 17.75 40.2627 16.81 41.3027 16.15C42.3627 15.49 43.6127 15.16 45.0527 15.16C46.4927 15.16 47.7327 15.49 48.7727 16.15C49.8327 16.81 50.6427 17.75 51.2027 18.97C51.7827 20.19 52.0727 21.62 52.0727 23.26C52.0727 24.9 51.7827 26.33 51.2027 27.55C50.6427 28.77 49.8327 29.71 48.7727 30.37C47.7327 31.03 46.4927 31.36 45.0527 31.36ZM45.0527 29.29C46.4327 29.29 47.5227 28.88 48.3227 28.06C49.1227 27.22 49.5227 25.99 49.5227 24.37V22.15C49.5227 20.53 49.1227 19.31 48.3227 18.49C47.5227 17.65 46.4327 17.23 45.0527 17.23C43.6727 17.23 42.5827 17.65 41.7827 18.49C40.9827 19.31 40.5827 20.53 40.5827 22.15V24.37C40.5827 25.99 40.9827 27.22 41.7827 28.06C42.5827 28.88 43.6727 29.29 45.0527 29.29ZM60.881 28.96V17.56H56.351V15.52H63.281V18.28H63.431C63.751 17.48 64.301 16.82 65.081 16.3C65.861 15.78 66.861 15.52 68.081 15.52H70.811V17.92H67.601C66.281 17.92 65.231 18.16 64.451 18.64C63.671 19.1 63.281 19.71 63.281 20.47V28.96H69.281V31H56.351V28.96H60.881ZM81.2993 31.36C79.8393 31.36 78.5593 31.03 77.4593 30.37C76.3593 29.71 75.5093 28.77 74.9093 27.55C74.3293 26.33 74.0393 24.91 74.0393 23.29C74.0393 21.67 74.3393 20.25 74.9393 19.03C75.5393 17.79 76.3693 16.84 77.4293 16.18C78.5093 15.5 79.7493 15.16 81.1493 15.16C82.5093 15.16 83.7093 15.49 84.7493 16.15C85.7893 16.79 86.5893 17.68 87.1493 18.82C87.7293 19.96 88.0193 21.26 88.0193 22.72V23.86H76.5593V24.58C76.5593 25.96 76.9893 27.09 77.8493 27.97C78.7093 28.85 79.8593 29.29 81.2993 29.29C82.3193 29.29 83.2093 29.06 83.9693 28.6C84.7293 28.12 85.3193 27.45 85.7393 26.59L87.5093 27.79C87.0293 28.87 86.2393 29.74 85.1393 30.4C84.0593 31.04 82.7793 31.36 81.2993 31.36ZM81.1493 17.14C80.2893 17.14 79.5093 17.35 78.8093 17.77C78.1093 18.17 77.5593 18.73 77.1593 19.45C76.7593 20.17 76.5593 20.97 76.5593 21.85V22.06H85.4393V21.73C85.4393 20.37 85.0393 19.27 84.2393 18.43C83.4593 17.57 82.4293 17.14 81.1493 17.14ZM99.1976 31.36C96.1976 31.36 93.8076 30.35 92.0276 28.33L93.6476 26.92C94.4076 27.74 95.2376 28.35 96.1376 28.75C97.0376 29.15 98.0776 29.35 99.2576 29.35C100.518 29.35 101.518 29.13 102.258 28.69C102.998 28.23 103.368 27.56 103.368 26.68C103.368 25.94 103.128 25.41 102.648 25.09C102.168 24.77 101.498 24.55 100.638 24.43L98.2076 24.07C97.2276 23.93 96.3676 23.74 95.6276 23.5C94.8876 23.24 94.2476 22.82 93.7076 22.24C93.1676 21.64 92.8976 20.82 92.8976 19.78C92.8976 18.28 93.4676 17.14 94.6076 16.36C95.7476 15.56 97.2576 15.16 99.1376 15.16C101.778 15.16 103.878 15.99 105.438 17.65L103.878 19.12C102.798 17.82 101.188 17.17 99.0476 17.17C97.8276 17.17 96.8876 17.38 96.2276 17.8C95.5876 18.22 95.2676 18.83 95.2676 19.63C95.2676 20.37 95.5076 20.9 95.9876 21.22C96.4876 21.54 97.1576 21.76 97.9976 21.88L100.428 22.24C101.428 22.38 102.298 22.58 103.038 22.84C103.778 23.08 104.408 23.5 104.928 24.1C105.468 24.68 105.738 25.49 105.738 26.53C105.738 28.05 105.148 29.24 103.968 30.1C102.788 30.94 101.198 31.36 99.1976 31.36ZM132.504 31.36C131.324 31.36 130.294 31.11 129.414 30.61C128.554 30.09 127.894 29.39 127.434 28.51C126.974 27.63 126.744 26.65 126.744 25.57C126.744 24.37 127.044 23.23 127.644 22.15C128.244 21.07 129.234 20.18 130.614 19.48C129.994 18.68 129.514 17.9 129.174 17.14C128.834 16.38 128.664 15.59 128.664 14.77C128.664 13.79 128.904 12.92 129.384 12.16C129.884 11.38 130.544 10.78 131.364 10.36C132.204 9.92 133.114 9.7 134.094 9.7C135.334 9.7 136.394 10.02 137.274 10.66C138.154 11.28 138.754 12.02 139.074 12.88L137.094 13.9C136.814 13.24 136.404 12.72 135.864 12.34C135.344 11.94 134.714 11.74 133.974 11.74C133.094 11.74 132.384 12.02 131.844 12.58C131.304 13.12 131.034 13.82 131.034 14.68V14.92C131.034 15.54 131.184 16.15 131.484 16.75C131.804 17.35 132.364 18.15 133.164 19.15L138.054 25.18H138.204C138.344 24.36 138.454 22.89 138.534 20.77L138.594 19.57H142.824V21.58H140.574L140.484 22.24C140.364 23.18 140.234 23.97 140.094 24.61C139.974 25.23 139.774 25.92 139.494 26.68L143.154 31H140.304L137.694 27.91H137.544C137.244 28.97 136.654 29.81 135.774 30.43C134.914 31.05 133.824 31.36 132.504 31.36ZM133.134 29.23C133.994 29.23 134.754 29.05 135.414 28.69C136.074 28.33 136.594 27.83 136.974 27.19L131.754 20.89C130.074 21.93 129.234 23.38 129.234 25.24V25.69C129.234 26.77 129.594 27.63 130.314 28.27C131.034 28.91 131.974 29.23 133.134 29.23ZM167.041 24.28V31H164.521V10.06H167.041V20.98H167.131L169.891 17.5L176.071 10.06H179.101L171.751 18.88L179.311 31H176.371L170.041 20.74L167.041 24.28ZM182.659 10.06H195.559V12.25H185.179V19.3H195.199V21.49H185.179V28.81H195.559V31H182.659V10.06ZM200.647 10.06H208.267C210.187 10.06 211.657 10.59 212.677 11.65C213.717 12.71 214.237 14.19 214.237 16.09C214.237 17.99 213.717 19.47 212.677 20.53C211.657 21.59 210.187 22.12 208.267 22.12H203.167V31H200.647V10.06ZM208.207 19.93C209.267 19.93 210.087 19.67 210.667 19.15C211.267 18.61 211.567 17.85 211.567 16.87V15.31C211.567 14.33 211.267 13.58 210.667 13.06C210.087 12.52 209.267 12.25 208.207 12.25H203.167V19.93H208.207ZM225.116 31.36C222.116 31.36 219.726 30.35 217.946 28.33L219.566 26.92C220.326 27.74 221.156 28.35 222.056 28.75C222.956 29.15 223.996 29.35 225.176 29.35C226.436 29.35 227.436 29.13 228.176 28.69C228.916 28.23 229.286 27.56 229.286 26.68C229.286 25.94 229.046 25.41 228.566 25.09C228.086 24.77 227.416 24.55 226.556 24.43L224.126 24.07C223.146 23.93 222.286 23.74 221.546 23.5C220.806 23.24 220.166 22.82 219.626 22.24C219.086 21.64 218.816 20.82 218.816 19.78C218.816 18.28 219.386 17.14 220.526 16.36C221.666 15.56 223.176 15.16 225.056 15.16C227.696 15.16 229.796 15.99 231.356 17.65L229.796 19.12C228.716 17.82 227.106 17.17 224.966 17.17C223.746 17.17 222.806 17.38 222.146 17.8C221.506 18.22 221.186 18.83 221.186 19.63C221.186 20.37 221.426 20.9 221.906 21.22C222.406 21.54 223.076 21.76 223.916 21.88L226.346 22.24C227.346 22.38 228.216 22.58 228.956 22.84C229.696 23.08 230.326 23.5 230.846 24.1C231.386 24.68 231.656 25.49 231.656 26.53C231.656 28.05 231.066 29.24 229.886 30.1C228.706 30.94 227.116 31.36 225.116 31.36ZM11.741 55.06H19.361C21.281 55.06 22.751 55.59 23.771 56.65C24.811 57.71 25.331 59.19 25.331 61.09C25.331 62.99 24.811 64.47 23.771 65.53C22.751 66.59 21.281 67.12 19.361 67.12H14.261V76H11.741V55.06ZM19.301 64.93C20.361 64.93 21.181 64.67 21.761 64.15C22.361 63.61 22.661 62.85 22.661 61.87V60.31C22.661 59.33 22.361 58.58 21.761 58.06C21.181 57.52 20.361 57.25 19.301 57.25H14.261V64.93H19.301ZM41.8793 76C40.2593 76 39.3393 75.16 39.1193 73.48H38.9693C38.2493 75.4 36.6993 76.36 34.3193 76.36C32.6993 76.36 31.4093 75.94 30.4493 75.1C29.4893 74.26 29.0093 73.11 29.0093 71.65C29.0093 68.65 31.2293 67.15 35.6693 67.15H38.9693V65.62C38.9693 64.5 38.6493 63.65 38.0093 63.07C37.3693 62.49 36.4593 62.2 35.2793 62.2C33.3993 62.2 32.0193 62.96 31.1393 64.48L29.5193 63.28C29.9393 62.4 30.6593 61.66 31.6793 61.06C32.6993 60.46 33.9493 60.16 35.4293 60.16C37.2493 60.16 38.6893 60.63 39.7493 61.57C40.8293 62.49 41.3693 63.76 41.3693 65.38V73.9H43.5293V76H41.8793ZM34.7393 74.35C35.9593 74.35 36.9693 74.08 37.7693 73.54C38.5693 72.98 38.9693 72.3 38.9693 71.5V68.95H35.6693C32.9093 68.95 31.5293 69.73 31.5293 71.29V71.92C31.5293 72.7 31.8093 73.3 32.3693 73.72C32.9493 74.14 33.7393 74.35 34.7393 74.35ZM50.5676 53.8V67.81H50.6876L53.3876 65.26L58.5476 60.52H61.4876L55.0676 66.58L62.2376 76H59.2676L53.2376 67.96L50.5676 70.39V76H48.1676V53.8H50.5676ZM72.2759 76.36C70.8159 76.36 69.5359 76.03 68.4359 75.37C67.3359 74.71 66.4859 73.77 65.8859 72.55C65.3059 71.33 65.0159 69.91 65.0159 68.29C65.0159 66.67 65.3159 65.25 65.9159 64.03C66.5159 62.79 67.3459 61.84 68.4059 61.18C69.4859 60.5 70.7259 60.16 72.1259 60.16C73.4859 60.16 74.6859 60.49 75.7259 61.15C76.7659 61.79 77.5659 62.68 78.1259 63.82C78.7059 64.96 78.9959 66.26 78.9959 67.72V68.86H67.5359V69.58C67.5359 70.96 67.9659 72.09 68.8259 72.97C69.6859 73.85 70.8359 74.29 72.2759 74.29C73.2959 74.29 74.1859 74.06 74.9459 73.6C75.7059 73.12 76.2959 72.45 76.7159 71.59L78.4859 72.79C78.0059 73.87 77.2159 74.74 76.1159 75.4C75.0359 76.04 73.7559 76.36 72.2759 76.36ZM72.1259 62.14C71.2659 62.14 70.4859 62.35 69.7859 62.77C69.0859 63.17 68.5359 63.73 68.1359 64.45C67.7359 65.17 67.5359 65.97 67.5359 66.85V67.06H76.4159V66.73C76.4159 65.37 76.0159 64.27 75.2159 63.43C74.4359 62.57 73.4059 62.14 72.1259 62.14ZM90.7441 76C89.6241 76 88.7741 75.68 88.1941 75.04C87.6141 74.4 87.3241 73.54 87.3241 72.46V62.56H82.1641V60.52H86.0041C86.5241 60.52 86.8841 60.42 87.0841 60.22C87.3041 60 87.4141 59.63 87.4141 59.11V55.06H89.7241V60.52H96.7741V62.56H89.7241V73.96H96.7741V76H90.7441ZM101.922 60.52H104.322V63.04H104.442C105.262 61.12 106.732 60.16 108.852 60.16C110.492 60.16 111.792 60.68 112.752 61.72C113.732 62.76 114.222 64.21 114.222 66.07V76H111.822V66.49C111.822 65.09 111.512 64.04 110.892 63.34C110.272 62.64 109.362 62.29 108.162 62.29C107.102 62.29 106.192 62.55 105.432 63.07C104.692 63.57 104.322 64.3 104.322 65.26V76H101.922V60.52ZM129.511 73.48C128.691 75.4 127.221 76.36 125.101 76.36C123.461 76.36 122.151 75.84 121.171 74.8C120.211 73.76 119.731 72.31 119.731 70.45V60.52H122.131V70.03C122.131 71.43 122.441 72.48 123.061 73.18C123.681 73.88 124.591 74.23 125.791 74.23C126.851 74.23 127.751 73.98 128.491 73.48C129.251 72.96 129.631 72.22 129.631 71.26V60.52H132.031V76H129.631V73.48H129.511ZM137.839 60.52H140.239V63.04H140.359C140.759 62.14 141.279 61.44 141.919 60.94C142.559 60.42 143.429 60.16 144.529 60.16C145.609 60.16 146.569 60.42 147.409 60.94C148.249 61.46 148.869 62.25 149.269 63.31H149.329C149.649 62.39 150.199 61.64 150.979 61.06C151.779 60.46 152.799 60.16 154.039 60.16C155.619 60.16 156.849 60.68 157.729 61.72C158.629 62.76 159.079 64.21 159.079 66.07V76H156.679V66.49C156.679 65.11 156.399 64.07 155.839 63.37C155.299 62.67 154.449 62.32 153.289 62.32C152.269 62.32 151.409 62.58 150.709 63.1C150.009 63.6 149.659 64.32 149.659 65.26V76H147.259V66.49C147.259 65.09 146.989 64.05 146.449 63.37C145.909 62.67 145.069 62.32 143.929 62.32C142.909 62.32 142.039 62.58 141.319 63.1C140.599 63.6 140.239 64.32 140.239 65.26V76H137.839V60.52ZM164.851 60.52H167.251V63.04H167.371C167.771 62.14 168.291 61.44 168.931 60.94C169.571 60.42 170.441 60.16 171.541 60.16C172.621 60.16 173.581 60.42 174.421 60.94C175.261 61.46 175.881 62.25 176.281 63.31H176.341C176.661 62.39 177.211 61.64 177.991 61.06C178.791 60.46 179.811 60.16 181.051 60.16C182.631 60.16 183.861 60.68 184.741 61.72C185.641 62.76 186.091 64.21 186.091 66.07V76H183.691V66.49C183.691 65.11 183.411 64.07 182.851 63.37C182.311 62.67 181.461 62.32 180.301 62.32C179.281 62.32 178.421 62.58 177.721 63.1C177.021 63.6 176.671 64.32 176.671 65.26V76H174.271V66.49C174.271 65.09 174.001 64.05 173.461 63.37C172.921 62.67 172.081 62.32 170.941 62.32C169.921 62.32 169.051 62.58 168.331 63.1C167.611 63.6 167.251 64.32 167.251 65.26V76H164.851V60.52ZM198.252 76.36C196.792 76.36 195.512 76.03 194.412 75.37C193.312 74.71 192.462 73.77 191.862 72.55C191.282 71.33 190.992 69.91 190.992 68.29C190.992 66.67 191.292 65.25 191.892 64.03C192.492 62.79 193.322 61.84 194.382 61.18C195.462 60.5 196.702 60.16 198.102 60.16C199.462 60.16 200.662 60.49 201.702 61.15C202.742 61.79 203.542 62.68 204.102 63.82C204.682 64.96 204.972 66.26 204.972 67.72V68.86H193.512V69.58C193.512 70.96 193.942 72.09 194.802 72.97C195.662 73.85 196.812 74.29 198.252 74.29C199.272 74.29 200.162 74.06 200.922 73.6C201.682 73.12 202.272 72.45 202.692 71.59L204.462 72.79C203.982 73.87 203.192 74.74 202.092 75.4C201.012 76.04 199.732 76.36 198.252 76.36ZM198.102 62.14C197.242 62.14 196.462 62.35 195.762 62.77C195.062 63.17 194.512 63.73 194.112 64.45C193.712 65.17 193.512 65.97 193.512 66.85V67.06H202.392V66.73C202.392 65.37 201.992 64.27 201.192 63.43C200.412 62.57 199.382 62.14 198.102 62.14ZM213.811 73.96V62.56H209.281V60.52H216.211V63.28H216.361C216.681 62.48 217.231 61.82 218.011 61.3C218.791 60.78 219.791 60.52 221.011 60.52H223.741V62.92H220.531C219.211 62.92 218.161 63.16 217.381 63.64C216.601 64.1 216.211 64.71 216.211 65.47V73.96H222.211V76H209.281V73.96H213.811Z" transform="translate(1269 642)" fill="white"/>
<path d="M49.0396 31V28.75L60.8896 12.25H49.5496V10.06H63.6496V12.31L51.7696 28.81H64.1596V31H49.0396ZM74.8579 31.36C73.3979 31.36 72.1179 31.03 71.0179 30.37C69.9179 29.71 69.0679 28.77 68.4679 27.55C67.8879 26.33 67.5979 24.91 67.5979 23.29C67.5979 21.67 67.8979 20.25 68.4979 19.03C69.0979 17.79 69.9279 16.84 70.9879 16.18C72.0679 15.5 73.3079 15.16 74.7079 15.16C76.0679 15.16 77.2679 15.49 78.3079 16.15C79.3479 16.79 80.1479 17.68 80.7079 18.82C81.2879 19.96 81.5779 21.26 81.5779 22.72V23.86H70.1179V24.58C70.1179 25.96 70.5479 27.09 71.4079 27.97C72.2679 28.85 73.4179 29.29 74.8579 29.29C75.8779 29.29 76.7679 29.06 77.5279 28.6C78.2879 28.12 78.8779 27.45 79.2979 26.59L81.0679 27.79C80.5879 28.87 79.7979 29.74 78.6979 30.4C77.6179 31.04 76.3379 31.36 74.8579 31.36ZM74.7079 17.14C73.8479 17.14 73.0679 17.35 72.3679 17.77C71.6679 18.17 71.1179 18.73 70.7179 19.45C70.3179 20.17 70.1179 20.97 70.1179 21.85V22.06H78.9979V21.73C78.9979 20.37 78.5979 19.27 77.7979 18.43C77.0179 17.57 75.9879 17.14 74.7079 17.14ZM93.5362 12.1C92.8762 12.1 92.3962 11.96 92.0962 11.68C91.7962 11.4 91.6462 11.03 91.6462 10.57V10.09C91.6462 9.63 91.7962 9.26 92.0962 8.98C92.3962 8.7 92.8762 8.56 93.5362 8.56C94.1962 8.56 94.6762 8.7 94.9762 8.98C95.2762 9.26 95.4262 9.63 95.4262 10.09V10.57C95.4262 11.03 95.2762 11.4 94.9762 11.68C94.6762 11.96 94.1962 12.1 93.5362 12.1ZM92.3362 28.96V17.56H86.7562V15.52H94.7362V28.96H99.9562V31H86.7562V28.96H92.3362ZM111.314 31C110.194 31 109.344 30.68 108.764 30.04C108.184 29.4 107.894 28.54 107.894 27.46V17.56H102.734V15.52H106.574C107.094 15.52 107.454 15.42 107.654 15.22C107.874 15 107.984 14.63 107.984 14.11V10.06H110.294V15.52H117.344V17.56H110.294V28.96H117.344V31H111.314ZM124.803 8.8V18.04H124.923C125.923 16.12 127.513 15.16 129.693 15.16C131.593 15.16 133.073 15.88 134.133 17.32C135.213 18.74 135.753 20.72 135.753 23.26C135.753 25.8 135.213 27.79 134.133 29.23C133.073 30.65 131.593 31.36 129.693 31.36C127.513 31.36 125.923 30.4 124.923 28.48H124.803V31H122.403V8.8H124.803ZM128.763 29.23C130.143 29.23 131.223 28.81 132.003 27.97C132.783 27.13 133.173 26 133.173 24.58V21.94C133.173 20.52 132.783 19.39 132.003 18.55C131.223 17.71 130.143 17.29 128.763 17.29C127.643 17.29 126.703 17.57 125.943 18.13C125.183 18.69 124.803 19.47 124.803 20.47V26.05C124.803 27.05 125.183 27.83 125.943 28.39C126.703 28.95 127.643 29.23 128.763 29.23ZM146.811 31.36C145.351 31.36 144.071 31.03 142.971 30.37C141.871 29.71 141.021 28.77 140.421 27.55C139.841 26.33 139.551 24.91 139.551 23.29C139.551 21.67 139.851 20.25 140.451 19.03C141.051 17.79 141.881 16.84 142.941 16.18C144.021 15.5 145.261 15.16 146.661 15.16C148.021 15.16 149.221 15.49 150.261 16.15C151.301 16.79 152.101 17.68 152.661 18.82C153.241 19.96 153.531 21.26 153.531 22.72V23.86H142.071V24.58C142.071 25.96 142.501 27.09 143.361 27.97C144.221 28.85 145.371 29.29 146.811 29.29C147.831 29.29 148.721 29.06 149.481 28.6C150.241 28.12 150.831 27.45 151.251 26.59L153.021 27.79C152.541 28.87 151.751 29.74 150.651 30.4C149.571 31.04 148.291 31.36 146.811 31.36ZM146.661 17.14C145.801 17.14 145.021 17.35 144.321 17.77C143.621 18.17 143.071 18.73 142.671 19.45C142.271 20.17 142.071 20.97 142.071 21.85V22.06H150.951V21.73C150.951 20.37 150.551 19.27 149.751 18.43C148.971 17.57 147.941 17.14 146.661 17.14ZM162.369 28.96V17.56H157.839V15.52H164.769V18.28H164.919C165.239 17.48 165.789 16.82 166.569 16.3C167.349 15.78 168.349 15.52 169.569 15.52H172.299V17.92H169.089C167.769 17.92 166.719 18.16 165.939 18.64C165.159 19.1 164.769 19.71 164.769 20.47V28.96H170.769V31H157.839V28.96H162.369ZM182.788 31.36C181.328 31.36 180.048 31.03 178.948 30.37C177.848 29.71 176.998 28.77 176.398 27.55C175.818 26.33 175.528 24.91 175.528 23.29C175.528 21.67 175.828 20.25 176.428 19.03C177.028 17.79 177.858 16.84 178.918 16.18C179.998 15.5 181.238 15.16 182.638 15.16C183.998 15.16 185.198 15.49 186.238 16.15C187.278 16.79 188.078 17.68 188.638 18.82C189.218 19.96 189.508 21.26 189.508 22.72V23.86H178.048V24.58C178.048 25.96 178.478 27.09 179.338 27.97C180.198 28.85 181.348 29.29 182.788 29.29C183.808 29.29 184.698 29.06 185.458 28.6C186.218 28.12 186.808 27.45 187.228 26.59L188.998 27.79C188.518 28.87 187.728 29.74 186.628 30.4C185.548 31.04 184.268 31.36 182.788 31.36ZM182.638 17.14C181.778 17.14 180.998 17.35 180.298 17.77C179.598 18.17 179.048 18.73 178.648 19.45C178.248 20.17 178.048 20.97 178.048 21.85V22.06H186.928V21.73C186.928 20.37 186.528 19.27 185.728 18.43C184.948 17.57 183.918 17.14 182.638 17.14ZM201.046 31.36C198.846 31.36 197.126 30.63 195.886 29.17C194.646 27.71 194.026 25.74 194.026 23.26C194.026 20.78 194.646 18.81 195.886 17.35C197.126 15.89 198.836 15.16 201.016 15.16C202.456 15.16 203.656 15.48 204.616 16.12C205.576 16.76 206.286 17.63 206.746 18.73L204.826 19.75C204.546 18.95 204.076 18.33 203.416 17.89C202.756 17.45 201.956 17.23 201.016 17.23C199.636 17.23 198.556 17.67 197.776 18.55C196.996 19.41 196.606 20.54 196.606 21.94V24.58C196.606 25.98 196.996 27.12 197.776 28C198.556 28.86 199.656 29.29 201.076 29.29C203.036 29.29 204.436 28.39 205.276 26.59L206.986 27.76C206.506 28.86 205.766 29.74 204.766 30.4C203.766 31.04 202.526 31.36 201.046 31.36ZM214.834 8.8V18.04H214.954C215.774 16.12 217.244 15.16 219.364 15.16C221.004 15.16 222.304 15.68 223.264 16.72C224.244 17.76 224.734 19.21 224.734 21.07V31H222.334V21.49C222.334 20.09 222.024 19.04 221.404 18.34C220.784 17.64 219.874 17.29 218.674 17.29C217.614 17.29 216.704 17.55 215.944 18.07C215.204 18.57 214.834 19.3 214.834 20.26V31H212.434V8.8H214.834ZM230.422 15.52H232.822V18.04H232.942C233.762 16.12 235.232 15.16 237.352 15.16C238.992 15.16 240.292 15.68 241.252 16.72C242.232 17.76 242.722 19.21 242.722 21.07V31H240.322V21.49C240.322 20.09 240.012 19.04 239.392 18.34C238.772 17.64 237.862 17.29 236.662 17.29C235.602 17.29 234.692 17.55 233.932 18.07C233.192 18.57 232.822 19.3 232.822 20.26V31H230.422V15.52ZM258.011 28.48C257.191 30.4 255.721 31.36 253.601 31.36C251.961 31.36 250.651 30.84 249.671 29.8C248.711 28.76 248.231 27.31 248.231 25.45V15.52H250.631V25.03C250.631 26.43 250.941 27.48 251.561 28.18C252.181 28.88 253.091 29.23 254.291 29.23C255.351 29.23 256.251 28.98 256.991 28.48C257.751 27.96 258.131 27.22 258.131 26.26V15.52H260.531V31H258.131V28.48H258.011ZM266.399 15.52H268.799V18.04H268.919C269.739 16.12 271.209 15.16 273.329 15.16C274.969 15.16 276.269 15.68 277.229 16.72C278.209 17.76 278.699 19.21 278.699 21.07V31H276.299V21.49C276.299 20.09 275.989 19.04 275.369 18.34C274.749 17.64 273.839 17.29 272.639 17.29C271.579 17.29 270.669 17.55 269.909 18.07C269.169 18.57 268.799 19.3 268.799 20.26V31H266.399V15.52ZM296.597 30.49C296.597 32.63 295.997 34.31 294.797 35.53C293.597 36.75 291.927 37.36 289.787 37.36C287.467 37.36 285.617 36.65 284.237 35.23L285.647 33.58C286.727 34.7 288.117 35.26 289.817 35.26C292.737 35.26 294.197 33.72 294.197 30.64V28.06H294.077C293.077 29.98 291.487 30.94 289.307 30.94C287.427 30.94 285.947 30.24 284.867 28.84C283.787 27.42 283.247 25.49 283.247 23.05C283.247 20.61 283.787 18.69 284.867 17.29C285.947 15.87 287.427 15.16 289.307 15.16C291.487 15.16 293.077 16.12 294.077 18.04H294.197V15.52H296.597V30.49ZM290.237 28.81C291.357 28.81 292.297 28.53 293.057 27.97C293.817 27.41 294.197 26.63 294.197 25.63V20.47C294.197 19.47 293.817 18.69 293.057 18.13C292.297 17.57 291.357 17.29 290.237 17.29C288.857 17.29 287.777 17.71 286.997 18.55C286.217 19.39 285.827 20.52 285.827 21.94V24.16C285.827 25.58 286.217 26.71 286.997 27.55C287.777 28.39 288.857 28.81 290.237 28.81ZM323.934 31.36C322.754 31.36 321.724 31.11 320.844 30.61C319.984 30.09 319.324 29.39 318.864 28.51C318.404 27.63 318.174 26.65 318.174 25.57C318.174 24.37 318.474 23.23 319.074 22.15C319.674 21.07 320.664 20.18 322.044 19.48C321.424 18.68 320.944 17.9 320.604 17.14C320.264 16.38 320.094 15.59 320.094 14.77C320.094 13.79 320.334 12.92 320.814 12.16C321.314 11.38 321.974 10.78 322.794 10.36C323.634 9.92 324.544 9.7 325.524 9.7C326.764 9.7 327.824 10.02 328.704 10.66C329.584 11.28 330.184 12.02 330.504 12.88L328.524 13.9C328.244 13.24 327.834 12.72 327.294 12.34C326.774 11.94 326.144 11.74 325.404 11.74C324.524 11.74 323.814 12.02 323.274 12.58C322.734 13.12 322.464 13.82 322.464 14.68V14.92C322.464 15.54 322.614 16.15 322.914 16.75C323.234 17.35 323.794 18.15 324.594 19.15L329.484 25.18H329.634C329.774 24.36 329.884 22.89 329.964 20.77L330.024 19.57H334.254V21.58H332.004L331.914 22.24C331.794 23.18 331.664 23.97 331.524 24.61C331.404 25.23 331.204 25.92 330.924 26.68L334.584 31H331.734L329.124 27.91H328.974C328.674 28.97 328.084 29.81 327.204 30.43C326.344 31.05 325.254 31.36 323.934 31.36ZM324.564 29.23C325.424 29.23 326.184 29.05 326.844 28.69C327.504 28.33 328.024 27.83 328.404 27.19L323.184 20.89C321.504 21.93 320.664 23.38 320.664 25.24V25.69C320.664 26.77 321.024 27.63 321.744 28.27C322.464 28.91 323.404 29.23 324.564 29.23ZM72.422 52.36L70.652 55.87L65.642 64.99L60.662 55.87L58.892 52.39H58.142V70H55.682V49.06H59.582L65.582 60.34H65.702L71.732 49.06H75.632V70H73.172V52.36H72.422ZM93.9438 70C92.3238 70 91.4038 69.16 91.1837 67.48H91.0338C90.3137 69.4 88.7637 70.36 86.3838 70.36C84.7638 70.36 83.4738 69.94 82.5138 69.1C81.5537 68.26 81.0737 67.11 81.0737 65.65C81.0737 62.65 83.2937 61.15 87.7337 61.15H91.0338V59.62C91.0338 58.5 90.7138 57.65 90.0737 57.07C89.4337 56.49 88.5237 56.2 87.3438 56.2C85.4637 56.2 84.0837 56.96 83.2037 58.48L81.5837 57.28C82.0038 56.4 82.7238 55.66 83.7438 55.06C84.7638 54.46 86.0138 54.16 87.4938 54.16C89.3137 54.16 90.7537 54.63 91.8137 55.57C92.8937 56.49 93.4337 57.76 93.4337 59.38V67.9H95.5938V70H93.9438ZM86.8037 68.35C88.0237 68.35 89.0337 68.08 89.8338 67.54C90.6338 66.98 91.0338 66.3 91.0338 65.5V62.95H87.7337C84.9737 62.95 83.5938 63.73 83.5938 65.29V65.92C83.5938 66.7 83.8738 67.3 84.4338 67.72C85.0138 68.14 85.8038 68.35 86.8037 68.35ZM106.622 70.36C104.422 70.36 102.702 69.63 101.462 68.17C100.222 66.71 99.602 64.74 99.602 62.26C99.602 59.78 100.222 57.81 101.462 56.35C102.702 54.89 104.412 54.16 106.592 54.16C108.032 54.16 109.232 54.48 110.192 55.12C111.152 55.76 111.862 56.63 112.322 57.73L110.402 58.75C110.122 57.95 109.652 57.33 108.992 56.89C108.332 56.45 107.532 56.23 106.592 56.23C105.212 56.23 104.132 56.67 103.352 57.55C102.572 58.41 102.182 59.54 102.182 60.94V63.58C102.182 64.98 102.572 66.12 103.352 67C104.132 67.86 105.232 68.29 106.652 68.29C108.612 68.29 110.012 67.39 110.852 65.59L112.562 66.76C112.082 67.86 111.342 68.74 110.342 69.4C109.342 70.04 108.102 70.36 106.622 70.36ZM120.41 47.8V57.04H120.53C121.35 55.12 122.82 54.16 124.94 54.16C126.58 54.16 127.88 54.68 128.84 55.72C129.82 56.76 130.31 58.21 130.31 60.07V70H127.91V60.49C127.91 59.09 127.6 58.04 126.98 57.34C126.36 56.64 125.45 56.29 124.25 56.29C123.19 56.29 122.28 56.55 121.52 57.07C120.78 57.57 120.41 58.3 120.41 59.26V70H118.01V47.8H120.41ZM143.019 51.1C142.359 51.1 141.879 50.96 141.579 50.68C141.279 50.4 141.129 50.03 141.129 49.57V49.09C141.129 48.63 141.279 48.26 141.579 47.98C141.879 47.7 142.359 47.56 143.019 47.56C143.679 47.56 144.159 47.7 144.459 47.98C144.759 48.26 144.909 48.63 144.909 49.09V49.57C144.909 50.03 144.759 50.4 144.459 50.68C144.159 50.96 143.679 51.1 143.019 51.1ZM141.819 67.96V56.56H136.239V54.52H144.219V67.96H149.439V70H136.239V67.96H141.819ZM153.987 54.52H156.387V57.04H156.507C157.327 55.12 158.797 54.16 160.917 54.16C162.557 54.16 163.857 54.68 164.817 55.72C165.797 56.76 166.287 58.21 166.287 60.07V70H163.887V60.49C163.887 59.09 163.577 58.04 162.957 57.34C162.337 56.64 161.427 56.29 160.227 56.29C159.167 56.29 158.257 56.55 157.497 57.07C156.757 57.57 156.387 58.3 156.387 59.26V70H153.987V54.52ZM178.305 70.36C176.845 70.36 175.565 70.03 174.465 69.37C173.365 68.71 172.515 67.77 171.915 66.55C171.335 65.33 171.045 63.91 171.045 62.29C171.045 60.67 171.345 59.25 171.945 58.03C172.545 56.79 173.375 55.84 174.435 55.18C175.515 54.5 176.755 54.16 178.155 54.16C179.515 54.16 180.715 54.49 181.755 55.15C182.795 55.79 183.595 56.68 184.155 57.82C184.735 58.96 185.025 60.26 185.025 61.72V62.86H173.565V63.58C173.565 64.96 173.995 66.09 174.855 66.97C175.715 67.85 176.865 68.29 178.305 68.29C179.325 68.29 180.215 68.06 180.975 67.6C181.735 67.12 182.325 66.45 182.745 65.59L184.515 66.79C184.035 67.87 183.245 68.74 182.145 69.4C181.065 70.04 179.785 70.36 178.305 70.36ZM178.155 56.14C177.295 56.14 176.515 56.35 175.815 56.77C175.115 57.17 174.565 57.73 174.165 58.45C173.765 59.17 173.565 59.97 173.565 60.85V61.06H182.445V60.73C182.445 59.37 182.045 58.27 181.245 57.43C180.465 56.57 179.435 56.14 178.155 56.14ZM208.612 49.06H211.132V67.81H221.062V70H208.612V49.06ZM232.27 70.36C230.81 70.36 229.53 70.03 228.43 69.37C227.33 68.71 226.48 67.77 225.88 66.55C225.3 65.33 225.01 63.91 225.01 62.29C225.01 60.67 225.31 59.25 225.91 58.03C226.51 56.79 227.34 55.84 228.4 55.18C229.48 54.5 230.72 54.16 232.12 54.16C233.48 54.16 234.68 54.49 235.72 55.15C236.76 55.79 237.56 56.68 238.12 57.82C238.7 58.96 238.99 60.26 238.99 61.72V62.86H227.53V63.58C227.53 64.96 227.96 66.09 228.82 66.97C229.68 67.85 230.83 68.29 232.27 68.29C233.29 68.29 234.18 68.06 234.94 67.6C235.7 67.12 236.29 66.45 236.71 65.59L238.48 66.79C238 67.87 237.21 68.74 236.11 69.4C235.03 70.04 233.75 70.36 232.27 70.36ZM232.12 56.14C231.26 56.14 230.48 56.35 229.78 56.77C229.08 57.17 228.53 57.73 228.13 58.45C227.73 59.17 227.53 59.97 227.53 60.85V61.06H236.41V60.73C236.41 59.37 236.01 58.27 235.21 57.43C234.43 56.57 233.4 56.14 232.12 56.14ZM255.838 70C254.218 70 253.298 69.16 253.078 67.48H252.928C252.208 69.4 250.658 70.36 248.278 70.36C246.658 70.36 245.368 69.94 244.408 69.1C243.448 68.26 242.968 67.11 242.968 65.65C242.968 62.65 245.188 61.15 249.628 61.15H252.928V59.62C252.928 58.5 252.608 57.65 251.968 57.07C251.328 56.49 250.418 56.2 249.238 56.2C247.358 56.2 245.978 56.96 245.098 58.48L243.478 57.28C243.898 56.4 244.618 55.66 245.638 55.06C246.658 54.46 247.908 54.16 249.388 54.16C251.208 54.16 252.648 54.63 253.708 55.57C254.788 56.49 255.328 57.76 255.328 59.38V67.9H257.488V70H255.838ZM248.698 68.35C249.918 68.35 250.928 68.08 251.728 67.54C252.528 66.98 252.928 66.3 252.928 65.5V62.95H249.628C246.868 62.95 245.488 63.73 245.488 65.29V65.92C245.488 66.7 245.768 67.3 246.328 67.72C246.908 68.14 247.698 68.35 248.698 68.35ZM265.817 67.96V56.56H261.287V54.52H268.217V57.28H268.367C268.687 56.48 269.237 55.82 270.017 55.3C270.797 54.78 271.797 54.52 273.017 54.52H275.747V56.92H272.537C271.217 56.92 270.167 57.16 269.387 57.64C268.607 58.1 268.217 58.71 268.217 59.47V67.96H274.217V70H261.287V67.96H265.817ZM279.905 54.52H282.305V57.04H282.425C283.245 55.12 284.715 54.16 286.835 54.16C288.475 54.16 289.775 54.68 290.735 55.72C291.715 56.76 292.205 58.21 292.205 60.07V70H289.805V60.49C289.805 59.09 289.495 58.04 288.875 57.34C288.255 56.64 287.345 56.29 286.145 56.29C285.085 56.29 284.175 56.55 283.415 57.07C282.675 57.57 282.305 58.3 282.305 59.26V70H279.905V54.52ZM304.913 51.1C304.253 51.1 303.773 50.96 303.473 50.68C303.173 50.4 303.023 50.03 303.023 49.57V49.09C303.023 48.63 303.173 48.26 303.473 47.98C303.773 47.7 304.253 47.56 304.913 47.56C305.573 47.56 306.053 47.7 306.353 47.98C306.653 48.26 306.803 48.63 306.803 49.09V49.57C306.803 50.03 306.653 50.4 306.353 50.68C306.053 50.96 305.573 51.1 304.913 51.1ZM303.713 67.96V56.56H298.133V54.52H306.113V67.96H311.333V70H298.133V67.96H303.713ZM315.881 54.52H318.281V57.04H318.401C319.221 55.12 320.691 54.16 322.811 54.16C324.451 54.16 325.751 54.68 326.711 55.72C327.691 56.76 328.181 58.21 328.181 60.07V70H325.781V60.49C325.781 59.09 325.471 58.04 324.851 57.34C324.231 56.64 323.321 56.29 322.121 56.29C321.061 56.29 320.151 56.55 319.391 57.07C318.651 57.57 318.281 58.3 318.281 59.26V70H315.881V54.52ZM346.08 69.49C346.08 71.63 345.48 73.31 344.28 74.53C343.08 75.75 341.41 76.36 339.27 76.36C336.95 76.36 335.1 75.65 333.72 74.23L335.13 72.58C336.21 73.7 337.6 74.26 339.3 74.26C342.22 74.26 343.68 72.72 343.68 69.64V67.06H343.56C342.56 68.98 340.97 69.94 338.79 69.94C336.91 69.94 335.43 69.24 334.35 67.84C333.27 66.42 332.73 64.49 332.73 62.05C332.73 59.61 333.27 57.69 334.35 56.29C335.43 54.87 336.91 54.16 338.79 54.16C340.97 54.16 342.56 55.12 343.56 57.04H343.68V54.52H346.08V69.49ZM339.72 67.81C340.84 67.81 341.78 67.53 342.54 66.97C343.3 66.41 343.68 65.63 343.68 64.63V59.47C343.68 58.47 343.3 57.69 342.54 57.13C341.78 56.57 340.84 56.29 339.72 56.29C338.34 56.29 337.26 56.71 336.48 57.55C335.7 58.39 335.31 59.52 335.31 60.94V63.16C335.31 64.58 335.7 65.71 336.48 66.55C337.26 67.39 338.34 67.81 339.72 67.81Z" transform="translate(328 642)" fill="white"/>
<path fill-rule="evenodd" clip-rule="evenodd" d="M155.902 201C138.479 201 122.638 194.229 110.863 183.175C99.0889 194.229 83.2475 201 65.8251 201C29.4709 201 0 171.52 0 135.155C0 98.7901 29.4709 69.3103 65.8251 69.3103C66.0596 43.4322 87.1034 22.5259 113.029 22.5259C124.082 22.5259 134.248 26.3262 142.292 32.6919C154.627 13.0535 176.476 0 201.373 0C239.88 0 271.096 31.2252 271.096 69.7435C271.096 70.6209 271.079 71.4946 271.047 72.3641C297.689 80.793 317 105.718 317 135.155C317 171.52 287.529 201 251.175 201C232.436 201 203.538 180.597 203.538 180.597C203.538 180.597 174.64 201 155.902 201Z" transform="translate(817 120)" stroke="white" stroke-width="4"/>
<path d="M2.7 10.06H10.32C12.24 10.06 13.71 10.59 14.73 11.65C15.77 12.71 16.29 14.19 16.29 16.09C16.29 17.99 15.77 19.47 14.73 20.53C13.71 21.59 12.24 22.12 10.32 22.12H5.22V31H2.7V10.06ZM10.26 19.93C11.32 19.93 12.14 19.67 12.72 19.15C13.32 18.61 13.62 17.85 13.62 16.87V15.31C13.62 14.33 13.32 13.58 12.72 13.06C12.14 12.52 11.32 12.25 10.26 12.25H5.22V19.93H10.26ZM32.8383 31C31.2183 31 30.2983 30.16 30.0783 28.48H29.9283C29.2083 30.4 27.6583 31.36 25.2783 31.36C23.6583 31.36 22.3683 30.94 21.4083 30.1C20.4483 29.26 19.9683 28.11 19.9683 26.65C19.9683 23.65 22.1883 22.15 26.6283 22.15H29.9283V20.62C29.9283 19.5 29.6083 18.65 28.9683 18.07C28.3283 17.49 27.4183 17.2 26.2383 17.2C24.3583 17.2 22.9783 17.96 22.0983 19.48L20.4783 18.28C20.8983 17.4 21.6183 16.66 22.6383 16.06C23.6583 15.46 24.9083 15.16 26.3883 15.16C28.2083 15.16 29.6483 15.63 30.7083 16.57C31.7883 17.49 32.3283 18.76 32.3283 20.38V28.9H34.4883V31H32.8383ZM25.6983 29.35C26.9183 29.35 27.9283 29.08 28.7283 28.54C29.5283 27.98 29.9283 27.3 29.9283 26.5V23.95H26.6283C23.8683 23.95 22.4883 24.73 22.4883 26.29V26.92C22.4883 27.7 22.7683 28.3 23.3283 28.72C23.9083 29.14 24.6983 29.35 25.6983 29.35ZM42.8166 28.96V17.56H38.2866V15.52H45.2166V18.28H45.3666C45.6866 17.48 46.2366 16.82 47.0166 16.3C47.7966 15.78 48.7966 15.52 50.0166 15.52H52.7466V17.92H49.5366C48.2166 17.92 47.1666 18.16 46.3866 18.64C45.6066 19.1 45.2166 19.71 45.2166 20.47V28.96H51.2166V31H38.2866V28.96H42.8166ZM63.5048 31.36C61.3048 31.36 59.5848 30.63 58.3448 29.17C57.1048 27.71 56.4848 25.74 56.4848 23.26C56.4848 20.78 57.1048 18.81 58.3448 17.35C59.5848 15.89 61.2948 15.16 63.4748 15.16C64.9148 15.16 66.1148 15.48 67.0748 16.12C68.0348 16.76 68.7448 17.63 69.2048 18.73L67.2848 19.75C67.0048 18.95 66.5348 18.33 65.8748 17.89C65.2148 17.45 64.4148 17.23 63.4748 17.23C62.0948 17.23 61.0148 17.67 60.2348 18.55C59.4548 19.41 59.0648 20.54 59.0648 21.94V24.58C59.0648 25.98 59.4548 27.12 60.2348 28C61.0148 28.86 62.1148 29.29 63.5348 29.29C65.4948 29.29 66.8948 28.39 67.7348 26.59L69.4448 27.76C68.9648 28.86 68.2248 29.74 67.2248 30.4C66.2248 31.04 64.9848 31.36 63.5048 31.36ZM81.2231 31.36C79.7631 31.36 78.4831 31.03 77.3831 30.37C76.2831 29.71 75.4331 28.77 74.8331 27.55C74.2531 26.33 73.9631 24.91 73.9631 23.29C73.9631 21.67 74.2631 20.25 74.8631 19.03C75.4631 17.79 76.2931 16.84 77.3531 16.18C78.4331 15.5 79.6731 15.16 81.0731 15.16C82.4331 15.16 83.6331 15.49 84.6731 16.15C85.7131 16.79 86.5131 17.68 87.0731 18.82C87.6531 19.96 87.9431 21.26 87.9431 22.72V23.86H76.4831V24.58C76.4831 25.96 76.9131 27.09 77.7731 27.97C78.6331 28.85 79.7831 29.29 81.2231 29.29C82.2431 29.29 83.1331 29.06 83.8931 28.6C84.6531 28.12 85.2431 27.45 85.6631 26.59L87.4331 27.79C86.9531 28.87 86.1631 29.74 85.0631 30.4C83.9831 31.04 82.7031 31.36 81.2231 31.36ZM81.0731 17.14C80.2131 17.14 79.4331 17.35 78.7331 17.77C78.0331 18.17 77.4831 18.73 77.0831 19.45C76.6831 20.17 76.4831 20.97 76.4831 21.85V22.06H85.3631V21.73C85.3631 20.37 84.9631 19.27 84.1631 18.43C83.3831 17.57 82.3531 17.14 81.0731 17.14ZM97.7414 28.96V10.84H92.3414V8.8H100.141V28.96H105.541V31H92.3414V28.96H97.7414ZM113 24.28V31H110.48V10.06H113V20.98H113.09L115.85 17.5L122.03 10.06H125.06L117.71 18.88L125.27 31H122.33L116 20.74L113 24.28ZM135.188 31.36C133.728 31.36 132.448 31.03 131.348 30.37C130.248 29.71 129.398 28.77 128.798 27.55C128.218 26.33 127.928 24.91 127.928 23.29C127.928 21.67 128.228 20.25 128.828 19.03C129.428 17.79 130.258 16.84 131.318 16.18C132.398 15.5 133.638 15.16 135.038 15.16C136.398 15.16 137.598 15.49 138.638 16.15C139.678 16.79 140.478 17.68 141.038 18.82C141.618 19.96 141.908 21.26 141.908 22.72V23.86H130.448V24.58C130.448 25.96 130.878 27.09 131.738 27.97C132.598 28.85 133.748 29.29 135.188 29.29C136.208 29.29 137.098 29.06 137.858 28.6C138.618 28.12 139.208 27.45 139.628 26.59L141.398 27.79C140.918 28.87 140.128 29.74 139.028 30.4C137.948 31.04 136.668 31.36 135.188 31.36ZM135.038 17.14C134.178 17.14 133.398 17.35 132.698 17.77C131.998 18.17 131.448 18.73 131.048 19.45C130.648 20.17 130.448 20.97 130.448 21.85V22.06H139.328V21.73C139.328 20.37 138.928 19.27 138.128 18.43C137.348 17.57 136.318 17.14 135.038 17.14ZM160.316 15.52L152.636 34.39C152.256 35.33 151.776 36 151.196 36.4C150.636 36.8 149.796 37 148.676 37H146.396V34.96H149.996L151.736 30.7L145.496 15.52H147.956L150.566 22L152.876 27.88H152.996L155.306 22L157.916 15.52H160.316ZM192.543 25.03H185.193L183.423 31H180.813L187.233 10.06H190.563L196.983 31H194.313L192.543 25.03ZM188.733 12.73L185.793 22.84H191.943L189.003 12.73H188.733ZM200.571 10.06H208.191C210.111 10.06 211.581 10.59 212.601 11.65C213.641 12.71 214.161 14.19 214.161 16.09C214.161 17.99 213.641 19.47 212.601 20.53C211.581 21.59 210.111 22.12 208.191 22.12H203.091V31H200.571V10.06ZM208.131 19.93C209.191 19.93 210.011 19.67 210.591 19.15C211.191 18.61 211.491 17.85 211.491 16.87V15.31C211.491 14.33 211.191 13.58 210.591 13.06C210.011 12.52 209.191 12.25 208.131 12.25H203.091V19.93H208.131ZM218.379 28.99H223.599V12.07H218.379V10.06H231.339V12.07H226.119V28.99H231.339V31H218.379V28.99Z" transform="translate(857 221)" fill="white"/>
<path fill-rule="evenodd" clip-rule="evenodd" d="M16.4062 0C17.041 0 17.5903 0.233539 18.0542 0.700625C18.5181 1.16771 18.75 1.72083 18.75 2.36C18.75 2.99917 18.5181 3.55229 18.0542 4.01937C17.5903 4.48646 17.041 4.72 16.4062 4.72H4.6875V16.52C4.6875 17.1592 4.45557 17.7123 3.9917 18.1794C3.52783 18.6465 2.97852 18.88 2.34375 18.88C1.70898 18.88 1.15967 18.6465 0.695801 18.1794C0.231931 17.7123 0 17.1592 0 16.52V2.36C0 1.72083 0.231931 1.16771 0.695801 0.700625C1.15967 0.233539 1.70898 0 2.34375 0H16.4062ZM72.6562 40.1201C73.291 40.1201 73.8403 40.3537 74.3042 40.8207C74.7681 41.2878 75 41.8409 75 42.4801V56.6401C75 57.2793 74.7681 57.8324 74.3042 58.2995C73.8403 58.7666 73.291 59.0001 72.6562 59.0001H58.5938C57.959 59.0001 57.4097 58.7666 56.9458 58.2995C56.4819 57.8324 56.25 57.2793 56.25 56.6401C56.25 56.0009 56.4819 55.4478 56.9458 54.9807C57.4097 54.5137 57.959 54.2801 58.5938 54.2801H70.3125V42.4801C70.3125 41.8409 70.5444 41.2878 71.0083 40.8207C71.4722 40.3537 72.0215 40.1201 72.6562 40.1201ZM16.4062 54.2801C17.041 54.2801 17.5903 54.5137 18.0542 54.9807C18.5181 55.4478 18.75 56.0009 18.75 56.6401C18.75 57.2793 18.5181 57.8324 18.0542 58.2995C17.5903 58.7666 17.041 59.0001 16.4062 59.0001H2.34375C1.70898 59.0001 1.15967 58.7666 0.695801 58.2995C0.231931 57.8324 0 57.2793 0 56.6401V42.4801C0 41.8409 0.231931 41.2878 0.695801 40.8207C1.15967 40.3537 1.70898 40.1201 2.34375 40.1201C2.97852 40.1201 3.52783 40.3537 3.9917 40.8207C4.45557 41.2878 4.6875 41.8409 4.6875 42.4801V54.2801H16.4062ZM72.6562 0C73.291 0 73.8403 0.233539 74.3042 0.700625C74.7681 1.16771 75 1.72083 75 2.36V16.52C75 17.1592 74.7681 17.7123 74.3042 18.1794C73.8403 18.6465 73.291 18.88 72.6562 18.88C72.0215 18.88 71.4722 18.6465 71.0083 18.1794C70.5444 17.7123 70.3125 17.1592 70.3125 16.52V4.72H58.5938C57.959 4.72 57.4097 4.48646 56.9458 4.01937C56.4819 3.55229 56.25 2.99917 56.25 2.36C56.25 1.72083 56.4819 1.16771 56.9458 0.700625C57.4097 0.233539 57.959 0 58.5938 0H72.6562Z" transform="translate(1352 554)" fill="white"/>
<path d="M0 1.8C0 0.805887 0.671573 0 1.5 0C2.32843 0 3 0.805887 3 1.8V40.2C3 41.1941 2.32843 42 1.5 42C0.671573 42 0 41.1941 0 40.2L0 1.8Z" transform="translate(1364 563)" fill="white"/>
<path d="M0 1.8C0 0.805887 0.671573 0 1.5 0C2.32843 0 3 0.805887 3 1.8V40.2C3 41.1941 2.32843 42 1.5 42C0.671573 42 0 41.1941 0 40.2L0 1.8Z" transform="translate(1374 563)" fill="white"/>
<path d="M0 1.8C0 0.805887 0.671573 0 1.5 0C2.32843 0 3 0.805887 3 1.8V40.2C3 41.1941 2.32843 42 1.5 42C0.671573 42 0 41.1941 0 40.2L0 1.8Z" transform="translate(1384 563)" fill="white"/>
<path d="M0 1.8C0 0.805887 0.671573 0 1.5 0C2.32843 0 3 0.805887 3 1.8V40.2C3 41.1941 2.32843 42 1.5 42C0.671573 42 0 41.1941 0 40.2V1.8Z" transform="translate(1392 563)" fill="white"/>
<path d="M0 1.8C0 0.805887 0.671573 0 1.5 0C2.32843 0 3 0.805887 3 1.8V40.2C3 41.1941 2.32843 42 1.5 42C0.671573 42 0 41.1941 0 40.2V1.8Z" transform="translate(1402 563)" fill="white"/>
<path d="M0 1.8C0 0.805887 0.671573 0 1.5 0C2.32843 0 3 0.805887 3 1.8V40.2C3 41.1941 2.32843 42 1.5 42C0.671573 42 0 41.1941 0 40.2V1.8Z" transform="translate(1411 563)" fill="white"/>
<path opacity="0.229799" d="M208 0L0 184" transform="translate(593 328)" stroke="#F3F3F3" stroke-width="4"/>
<path opacity="0.229799" d="M2 0V162" transform="translate(983 351)" stroke="#F3F3F3" stroke-width="4"/>
<path opacity="0.229799" d="M0 0L187 165" transform="translate(1155 330)" stroke="#F3F3F3" stroke-width="4"/>
</svg>
