<svg width="1920" height="1080" viewBox="0 0 1920 1080" fill="none" xmlns="http://www.w3.org/2000/svg">
<path fill-rule="evenodd" clip-rule="evenodd" d="M0 0.16C0 0.103995 0 0.0759921 0.0108993 0.0546009C0.0204867 0.0357847 0.0357847 0.0204867 0.0546009 0.0108993C0.0759921 0 0.103995 0 0.16 0H552.84C552.896 0 552.924 0 552.945 0.0108993C552.964 0.0204867 552.98 0.0357847 552.989 0.0546009C553 0.0759921 553 0.103995 553 0.16V425.84C553 425.896 553 425.924 552.989 425.945C552.98 425.964 552.964 425.98 552.945 425.989C552.924 426 552.896 426 552.84 426H0.16C0.103995 426 0.0759921 426 0.0546009 425.989C0.0357847 425.98 0.0204867 425.964 0.0108993 425.945C0 425.924 0 425.896 0 425.84V0.16Z" transform="translate(144 361)" stroke="white" stroke-width="4"/>
<path fill-rule="evenodd" clip-rule="evenodd" d="M0.387452 107C0.284162 107 0.248668 106.862 0.339056 106.812L193.478 0H745.886C745.99 0 746.025 0.137522 745.935 0.187509L552.795 107H0.387452Z" transform="translate(144 254)" stroke="white" stroke-width="4"/>
<path fill-rule="evenodd" clip-rule="evenodd" d="M0 532.925C0 533.001 0.0817954 533.049 0.148446 533.012L193 426.213V0.169447C193 0.093314 192.918 0.0451051 192.852 0.0819057L0 106.567V532.925Z" transform="translate(697 253.905)" stroke="white" stroke-width="4"/>
<path d="M2.28 31H6.81V23.38H10.38C14.49 23.38 16.8 20.77 16.8 16.72C16.8 12.67 14.49 10.06 10.38 10.06H2.28V31ZM6.81 19.75V13.69H9.24C11.34 13.69 12.06 14.44 12.06 16.27V17.17C12.06 19 11.34 19.75 9.24 19.75H6.81ZM32.5983 31H35.1483V27.79H33.4383V21.01C33.4383 17.11 30.9183 15.16 26.6883 15.16C23.2383 15.16 20.9883 16.45 19.9683 18.19L22.3983 20.35C23.2383 19.21 24.3183 18.4 26.1783 18.4C28.2183 18.4 28.9983 19.36 28.9983 21.19V21.97H26.5083C21.9783 21.97 19.5483 23.5 19.5483 26.74C19.5483 29.65 21.5283 31.36 24.5283 31.36C26.8983 31.36 28.6983 30.28 29.2383 28.27H29.3883C29.5683 30.01 30.7683 31 32.5983 31ZM26.2083 28.45C24.7983 28.45 23.8983 27.88 23.8983 26.8V26.2C23.8983 25 24.8583 24.37 26.6283 24.37H28.9983V26.23C28.9983 27.67 27.7683 28.45 26.2083 28.45ZM37.9266 8.8V31H42.3666V25.63L43.8366 24.16L48.3366 31H53.6166L46.9866 21.64L52.9866 15.52H47.8866L44.6466 18.97L42.5766 21.4H42.3666V8.8H37.9266ZM63.3848 31.36C66.7148 31.36 68.8148 30.1 70.0148 28.63L67.6148 26.02C66.6548 27.16 65.3648 27.94 63.5348 27.94C61.1648 27.94 59.8748 26.59 59.8748 24.61V24.34H70.4648V23.02C70.4648 18.19 67.6148 15.16 62.9948 15.16C58.3448 15.16 55.4648 18.25 55.4648 23.32C55.4648 28.27 58.1948 31.36 63.3848 31.36ZM63.0248 18.34C64.9448 18.34 66.1148 19.6 66.1148 21.61V21.85H59.8748V21.61C59.8748 19.63 61.1048 18.34 63.0248 18.34ZM82.1531 31H87.8831V27.55H81.8531V18.97H87.8831V15.52H81.8531V10.06H77.7731V13.69C77.7731 15.07 77.2631 15.52 75.9431 15.52H73.2131V18.97H77.4131V26.53C77.4131 29.14 78.9431 31 82.1531 31Z" transform="translate(144 809)" fill="white"/>
<path d="M2.7 10.06H10.32C12.24 10.06 13.71 10.59 14.73 11.65C15.77 12.71 16.29 14.19 16.29 16.09C16.29 17.99 15.77 19.47 14.73 20.53C13.71 21.59 12.24 22.12 10.32 22.12H5.22V31H2.7V10.06ZM10.26 19.93C11.32 19.93 12.14 19.67 12.72 19.15C13.32 18.61 13.62 17.85 13.62 16.87V15.31C13.62 14.33 13.32 13.58 12.72 13.06C12.14 12.52 11.32 12.25 10.26 12.25H5.22V19.93H10.26ZM32.8383 31C31.2183 31 30.2983 30.16 30.0783 28.48H29.9283C29.2083 30.4 27.6583 31.36 25.2783 31.36C23.6583 31.36 22.3683 30.94 21.4083 30.1C20.4483 29.26 19.9683 28.11 19.9683 26.65C19.9683 23.65 22.1883 22.15 26.6283 22.15H29.9283V20.62C29.9283 19.5 29.6083 18.65 28.9683 18.07C28.3283 17.49 27.4183 17.2 26.2383 17.2C24.3583 17.2 22.9783 17.96 22.0983 19.48L20.4783 18.28C20.8983 17.4 21.6183 16.66 22.6383 16.06C23.6583 15.46 24.9083 15.16 26.3883 15.16C28.2083 15.16 29.6483 15.63 30.7083 16.57C31.7883 17.49 32.3283 18.76 32.3283 20.38V28.9H34.4883V31H32.8383ZM25.6983 29.35C26.9183 29.35 27.9283 29.08 28.7283 28.54C29.5283 27.98 29.9283 27.3 29.9283 26.5V23.95H26.6283C23.8683 23.95 22.4883 24.73 22.4883 26.29V26.92C22.4883 27.7 22.7683 28.3 23.3283 28.72C23.9083 29.14 24.6983 29.35 25.6983 29.35ZM42.8166 28.96V17.56H38.2866V15.52H45.2166V18.28H45.3666C45.6866 17.48 46.2366 16.82 47.0166 16.3C47.7966 15.78 48.7966 15.52 50.0166 15.52H52.7466V17.92H49.5366C48.2166 17.92 47.1666 18.16 46.3866 18.64C45.6066 19.1 45.2166 19.71 45.2166 20.47V28.96H51.2166V31H38.2866V28.96H42.8166ZM63.5048 31.36C61.3048 31.36 59.5848 30.63 58.3448 29.17C57.1048 27.71 56.4848 25.74 56.4848 23.26C56.4848 20.78 57.1048 18.81 58.3448 17.35C59.5848 15.89 61.2948 15.16 63.4748 15.16C64.9148 15.16 66.1148 15.48 67.0748 16.12C68.0348 16.76 68.7448 17.63 69.2048 18.73L67.2848 19.75C67.0048 18.95 66.5348 18.33 65.8748 17.89C65.2148 17.45 64.4148 17.23 63.4748 17.23C62.0948 17.23 61.0148 17.67 60.2348 18.55C59.4548 19.41 59.0648 20.54 59.0648 21.94V24.58C59.0648 25.98 59.4548 27.12 60.2348 28C61.0148 28.86 62.1148 29.29 63.5348 29.29C65.4948 29.29 66.8948 28.39 67.7348 26.59L69.4448 27.76C68.9648 28.86 68.2248 29.74 67.2248 30.4C66.2248 31.04 64.9848 31.36 63.5048 31.36ZM81.2231 31.36C79.7631 31.36 78.4831 31.03 77.3831 30.37C76.2831 29.71 75.4331 28.77 74.8331 27.55C74.2531 26.33 73.9631 24.91 73.9631 23.29C73.9631 21.67 74.2631 20.25 74.8631 19.03C75.4631 17.79 76.2931 16.84 77.3531 16.18C78.4331 15.5 79.6731 15.16 81.0731 15.16C82.4331 15.16 83.6331 15.49 84.6731 16.15C85.7131 16.79 86.5131 17.68 87.0731 18.82C87.6531 19.96 87.9431 21.26 87.9431 22.72V23.86H76.4831V24.58C76.4831 25.96 76.9131 27.09 77.7731 27.97C78.6331 28.85 79.7831 29.29 81.2231 29.29C82.2431 29.29 83.1331 29.06 83.8931 28.6C84.6531 28.12 85.2431 27.45 85.6631 26.59L87.4331 27.79C86.9531 28.87 86.1631 29.74 85.0631 30.4C83.9831 31.04 82.7031 31.36 81.2231 31.36ZM81.0731 17.14C80.2131 17.14 79.4331 17.35 78.7331 17.77C78.0331 18.17 77.4831 18.73 77.0831 19.45C76.6831 20.17 76.4831 20.97 76.4831 21.85V22.06H85.3631V21.73C85.3631 20.37 84.9631 19.27 84.1631 18.43C83.3831 17.57 82.3531 17.14 81.0731 17.14ZM97.7414 28.96V10.84H92.3414V8.8H100.141V28.96H105.541V31H92.3414V28.96H97.7414ZM113 24.28V31H110.48V10.06H113V20.98H113.09L115.85 17.5L122.03 10.06H125.06L117.71 18.88L125.27 31H122.33L116 20.74L113 24.28ZM135.188 31.36C133.728 31.36 132.448 31.03 131.348 30.37C130.248 29.71 129.398 28.77 128.798 27.55C128.218 26.33 127.928 24.91 127.928 23.29C127.928 21.67 128.228 20.25 128.828 19.03C129.428 17.79 130.258 16.84 131.318 16.18C132.398 15.5 133.638 15.16 135.038 15.16C136.398 15.16 137.598 15.49 138.638 16.15C139.678 16.79 140.478 17.68 141.038 18.82C141.618 19.96 141.908 21.26 141.908 22.72V23.86H130.448V24.58C130.448 25.96 130.878 27.09 131.738 27.97C132.598 28.85 133.748 29.29 135.188 29.29C136.208 29.29 137.098 29.06 137.858 28.6C138.618 28.12 139.208 27.45 139.628 26.59L141.398 27.79C140.918 28.87 140.128 29.74 139.028 30.4C137.948 31.04 136.668 31.36 135.188 31.36ZM135.038 17.14C134.178 17.14 133.398 17.35 132.698 17.77C131.998 18.17 131.448 18.73 131.048 19.45C130.648 20.17 130.448 20.97 130.448 21.85V22.06H139.328V21.73C139.328 20.37 138.928 19.27 138.128 18.43C137.348 17.57 136.318 17.14 135.038 17.14ZM160.316 15.52L152.636 34.39C152.256 35.33 151.776 36 151.196 36.4C150.636 36.8 149.796 37 148.676 37H146.396V34.96H149.996L151.736 30.7L145.496 15.52H147.956L150.566 22L152.876 27.88H152.996L155.306 22L157.916 15.52H160.316ZM190.143 31H187.623V12.25H180.633V10.06H197.133V12.25H190.143V31ZM204.711 28.96V17.56H200.181V15.52H207.111V18.28H207.261C207.581 17.48 208.131 16.82 208.911 16.3C209.691 15.78 210.691 15.52 211.911 15.52H214.641V17.92H211.431C210.111 17.92 209.061 18.16 208.281 18.64C207.501 19.1 207.111 19.71 207.111 20.47V28.96H213.111V31H200.181V28.96H204.711ZM230.709 31C229.089 31 228.169 30.16 227.949 28.48H227.799C227.079 30.4 225.529 31.36 223.149 31.36C221.529 31.36 220.239 30.94 219.279 30.1C218.319 29.26 217.839 28.11 217.839 26.65C217.839 23.65 220.059 22.15 224.499 22.15H227.799V20.62C227.799 19.5 227.479 18.65 226.839 18.07C226.199 17.49 225.289 17.2 224.109 17.2C222.229 17.2 220.849 17.96 219.969 19.48L218.349 18.28C218.769 17.4 219.489 16.66 220.509 16.06C221.529 15.46 222.779 15.16 224.259 15.16C226.079 15.16 227.519 15.63 228.579 16.57C229.659 17.49 230.199 18.76 230.199 20.38V28.9H232.359V31H230.709ZM223.569 29.35C224.789 29.35 225.799 29.08 226.599 28.54C227.399 27.98 227.799 27.3 227.799 26.5V23.95H224.499C221.739 23.95 220.359 24.73 220.359 26.29V26.92C220.359 27.7 220.639 28.3 221.199 28.72C221.779 29.14 222.569 29.35 223.569 29.35ZM243.388 31.36C241.188 31.36 239.468 30.63 238.228 29.17C236.988 27.71 236.368 25.74 236.368 23.26C236.368 20.78 236.988 18.81 238.228 17.35C239.468 15.89 241.178 15.16 243.358 15.16C244.798 15.16 245.998 15.48 246.958 16.12C247.918 16.76 248.628 17.63 249.088 18.73L247.168 19.75C246.888 18.95 246.418 18.33 245.758 17.89C245.098 17.45 244.298 17.23 243.358 17.23C241.978 17.23 240.898 17.67 240.118 18.55C239.338 19.41 238.948 20.54 238.948 21.94V24.58C238.948 25.98 239.338 27.12 240.118 28C240.898 28.86 241.998 29.29 243.418 29.29C245.378 29.29 246.778 28.39 247.618 26.59L249.328 27.76C248.848 28.86 248.108 29.74 247.108 30.4C246.108 31.04 244.868 31.36 243.388 31.36ZM257.386 8.8V22.81H257.506L260.206 20.26L265.366 15.52H268.306L261.886 21.58L269.056 31H266.086L260.056 22.96L257.386 25.39V31H254.986V8.8H257.386ZM279.094 31.36C277.634 31.36 276.354 31.03 275.254 30.37C274.154 29.71 273.304 28.77 272.704 27.55C272.124 26.33 271.834 24.91 271.834 23.29C271.834 21.67 272.134 20.25 272.734 19.03C273.334 17.79 274.164 16.84 275.224 16.18C276.304 15.5 277.544 15.16 278.944 15.16C280.304 15.16 281.504 15.49 282.544 16.15C283.584 16.79 284.384 17.68 284.944 18.82C285.524 19.96 285.814 21.26 285.814 22.72V23.86H274.354V24.58C274.354 25.96 274.784 27.09 275.644 27.97C276.504 28.85 277.654 29.29 279.094 29.29C280.114 29.29 281.004 29.06 281.764 28.6C282.524 28.12 283.114 27.45 283.534 26.59L285.304 27.79C284.824 28.87 284.034 29.74 282.934 30.4C281.854 31.04 280.574 31.36 279.094 31.36ZM278.944 17.14C278.084 17.14 277.304 17.35 276.604 17.77C275.904 18.17 275.354 18.73 274.954 19.45C274.554 20.17 274.354 20.97 274.354 21.85V22.06H283.234V21.73C283.234 20.37 282.834 19.27 282.034 18.43C281.254 17.57 280.224 17.14 278.944 17.14ZM294.653 28.96V17.56H290.122V15.52H297.052V18.28H297.202C297.522 17.48 298.072 16.82 298.853 16.3C299.633 15.78 300.633 15.52 301.852 15.52H304.583V17.92H301.372C300.053 17.92 299.003 18.16 298.223 18.64C297.442 19.1 297.052 19.71 297.052 20.47V28.96H303.053V31H290.122V28.96H294.653Z" transform="translate(502 819)" fill="white"/>
<path d="M9 31.36C4.12 31.36 1.68 27.75 1.68 20.53C1.68 13.31 4.12 9.7 9 9.7C13.88 9.7 16.32 13.31 16.32 20.53C16.32 27.75 13.88 31.36 9 31.36ZM9 29.17C10.6 29.17 11.77 28.57 12.51 27.37C13.27 26.15 13.65 24.44 13.65 22.24V18.82C13.65 16.62 13.27 14.92 12.51 13.72C11.77 12.5 10.6 11.89 9 11.89C7.4 11.89 6.22 12.5 5.46 13.72C4.72 14.92 4.35 16.62 4.35 18.82V22.24C4.35 24.44 4.72 26.15 5.46 27.37C6.22 28.57 7.4 29.17 9 29.17ZM21.5883 10.06H24.1083V28.81H34.0383V31H21.5883V10.06ZM38.6766 10.06H51.5766V12.25H41.1966V19.3H51.2166V21.49H41.1966V28.81H51.5766V31H38.6766V10.06ZM62.6648 10.06C65.2048 10.06 67.1048 10.94 68.3648 12.7C69.6448 14.46 70.2848 17.07 70.2848 20.53C70.2848 23.99 69.6448 26.6 68.3648 28.36C67.1048 30.12 65.2048 31 62.6648 31H56.8148V10.06H62.6648ZM62.5448 28.81C64.1848 28.81 65.4348 28.23 66.2948 27.07C67.1748 25.91 67.6148 24.27 67.6148 22.15V18.91C67.6148 16.79 67.1748 15.15 66.2948 13.99C65.4348 12.83 64.1848 12.25 62.5448 12.25H59.3348V28.81H62.5448ZM98.6414 10.06C101.181 10.06 103.081 10.94 104.341 12.7C105.621 14.46 106.261 17.07 106.261 20.53C106.261 23.99 105.621 26.6 104.341 28.36C103.081 30.12 101.181 31 98.6414 31H92.7914V10.06H98.6414ZM98.5214 28.81C100.161 28.81 101.411 28.23 102.271 27.07C103.151 25.91 103.591 24.27 103.591 22.15V18.91C103.591 16.79 103.151 15.15 102.271 13.99C101.411 12.83 100.161 12.25 98.5214 12.25H95.3114V28.81H98.5214ZM117.89 12.1C117.23 12.1 116.75 11.96 116.45 11.68C116.15 11.4 116 11.03 116 10.57V10.09C116 9.63 116.15 9.26 116.45 8.98C116.75 8.7 117.23 8.56 117.89 8.56C118.55 8.56 119.03 8.7 119.33 8.98C119.63 9.26 119.78 9.63 119.78 10.09V10.57C119.78 11.03 119.63 11.4 119.33 11.68C119.03 11.96 118.55 12.1 117.89 12.1ZM116.69 28.96V17.56H111.11V15.52H119.09V28.96H124.31V31H111.11V28.96H116.69ZM135.098 31.36C132.098 31.36 129.708 30.35 127.928 28.33L129.548 26.92C130.308 27.74 131.138 28.35 132.038 28.75C132.938 29.15 133.978 29.35 135.158 29.35C136.418 29.35 137.418 29.13 138.158 28.69C138.898 28.23 139.268 27.56 139.268 26.68C139.268 25.94 139.028 25.41 138.548 25.09C138.068 24.77 137.398 24.55 136.538 24.43L134.108 24.07C133.128 23.93 132.268 23.74 131.528 23.5C130.788 23.24 130.148 22.82 129.608 22.24C129.068 21.64 128.798 20.82 128.798 19.78C128.798 18.28 129.368 17.14 130.508 16.36C131.648 15.56 133.158 15.16 135.038 15.16C137.678 15.16 139.778 15.99 141.338 17.65L139.778 19.12C138.698 17.82 137.088 17.17 134.948 17.17C133.728 17.17 132.788 17.38 132.128 17.8C131.488 18.22 131.168 18.83 131.168 19.63C131.168 20.37 131.408 20.9 131.888 21.22C132.388 21.54 133.058 21.76 133.898 21.88L136.328 22.24C137.328 22.38 138.198 22.58 138.938 22.84C139.678 23.08 140.308 23.5 140.828 24.1C141.368 24.68 141.638 25.49 141.638 26.53C141.638 28.05 141.048 29.24 139.868 30.1C138.688 30.94 137.098 31.36 135.098 31.36ZM149.156 15.52V18.04H149.276C150.276 16.12 151.866 15.16 154.046 15.16C155.946 15.16 157.426 15.88 158.486 17.32C159.566 18.74 160.106 20.72 160.106 23.26C160.106 25.8 159.566 27.79 158.486 29.23C157.426 30.65 155.946 31.36 154.046 31.36C151.866 31.36 150.276 30.4 149.276 28.48H149.156V37H146.756V15.52H149.156ZM153.116 29.23C154.496 29.23 155.576 28.81 156.356 27.97C157.136 27.13 157.526 26 157.526 24.58V21.94C157.526 20.52 157.136 19.39 156.356 18.55C155.576 17.71 154.496 17.29 153.116 17.29C151.996 17.29 151.056 17.57 150.296 18.13C149.536 18.69 149.156 19.47 149.156 20.47V26.05C149.156 27.05 149.536 27.83 150.296 28.39C151.056 28.95 151.996 29.23 153.116 29.23ZM169.695 28.96V10.84H164.295V8.8H172.095V28.96H177.495V31H164.295V28.96H169.695ZM194.733 31C193.113 31 192.193 30.16 191.973 28.48H191.823C191.103 30.4 189.553 31.36 187.173 31.36C185.553 31.36 184.263 30.94 183.303 30.1C182.343 29.26 181.863 28.11 181.863 26.65C181.863 23.65 184.083 22.15 188.523 22.15H191.823V20.62C191.823 19.5 191.503 18.65 190.863 18.07C190.223 17.49 189.313 17.2 188.133 17.2C186.253 17.2 184.873 17.96 183.993 19.48L182.373 18.28C182.793 17.4 183.513 16.66 184.533 16.06C185.553 15.46 186.803 15.16 188.283 15.16C190.103 15.16 191.543 15.63 192.603 16.57C193.683 17.49 194.223 18.76 194.223 20.38V28.9H196.383V31H194.733ZM187.593 29.35C188.813 29.35 189.823 29.08 190.623 28.54C191.423 27.98 191.823 27.3 191.823 26.5V23.95H188.523C185.763 23.95 184.383 24.73 184.383 26.29V26.92C184.383 27.7 184.663 28.3 185.223 28.72C185.803 29.14 186.593 29.35 187.593 29.35ZM214.281 15.52L206.601 34.39C206.221 35.33 205.741 36 205.161 36.4C204.601 36.8 203.761 37 202.641 37H200.361V34.96H203.961L205.701 30.7L199.461 15.52H201.921L204.531 22L206.841 27.88H206.961L209.271 22L211.881 15.52H214.281Z" transform="translate(1021 160)" fill="white"/>
<path d="M13.17 28.21C12.77 29.17 12.21 29.94 11.49 30.52C10.77 31.08 9.75 31.36 8.43 31.36C6.19 31.36 4.5 30.45 3.36 28.63C2.24 26.79 1.68 24.14 1.68 20.68C1.68 17.08 2.3 14.35 3.54 12.49C4.78 10.63 6.65 9.7 9.15 9.7C10.93 9.7 12.32 10.13 13.32 10.99C14.34 11.83 15.12 12.93 15.66 14.29L13.5 15.28C13.06 14.18 12.53 13.34 11.91 12.76C11.29 12.18 10.4 11.89 9.24 11.89C7.6 11.89 6.37 12.5 5.55 13.72C4.75 14.94 4.35 16.64 4.35 18.82V22.06C4.35 24.3 4.72 26.06 5.46 27.34C6.2 28.6 7.38 29.23 9 29.23C10.32 29.23 11.37 28.83 12.15 28.03C12.93 27.21 13.32 26.14 13.32 24.82V22.66H8.91V20.65H15.66V31H13.32V28.21H13.17ZM20.6883 10.06H28.3083C30.2283 10.06 31.6983 10.59 32.7183 11.65C33.7583 12.71 34.2783 14.19 34.2783 16.09C34.2783 17.99 33.7583 19.47 32.7183 20.53C31.6983 21.59 30.2283 22.12 28.3083 22.12H23.2083V31H20.6883V10.06ZM28.2483 19.93C29.3083 19.93 30.1283 19.67 30.7083 19.15C31.3083 18.61 31.6083 17.85 31.6083 16.87V15.31C31.6083 14.33 31.3083 13.58 30.7083 13.06C30.1283 12.52 29.3083 12.25 28.2483 12.25H23.2083V19.93H28.2483ZM44.9166 31.36C43.1366 31.36 41.6366 31.04 40.4166 30.4C39.1966 29.74 38.1666 28.83 37.3266 27.67L39.1566 26.17C39.9766 27.21 40.8466 27.98 41.7666 28.48C42.6866 28.96 43.7666 29.2 45.0066 29.2C46.5066 29.2 47.6566 28.85 48.4566 28.15C49.2766 27.45 49.6866 26.47 49.6866 25.21C49.6866 24.17 49.3866 23.37 48.7866 22.81C48.1866 22.25 47.1866 21.85 45.7866 21.61L43.4466 21.22C41.5266 20.9 40.1466 20.24 39.3066 19.24C38.4666 18.22 38.0466 16.98 38.0466 15.52C38.0466 13.64 38.6666 12.2 39.9066 11.2C41.1466 10.2 42.8566 9.7 45.0366 9.7C48.2166 9.7 50.5566 10.77 52.0566 12.91L50.2866 14.44C49.6466 13.6 48.9066 12.96 48.0666 12.52C47.2466 12.08 46.2266 11.86 45.0066 11.86C43.5866 11.86 42.4966 12.17 41.7366 12.79C40.9766 13.39 40.5966 14.28 40.5966 15.46C40.5966 16.44 40.8866 17.22 41.4666 17.8C42.0666 18.38 43.0866 18.79 44.5266 19.03L46.7766 19.42C50.4166 20.06 52.2366 21.97 52.2366 25.15C52.2366 27.09 51.5966 28.61 50.3166 29.71C49.0366 30.81 47.2366 31.36 44.9166 31.36Z" transform="translate(1225 71.7061)" fill="white"/>
<path d="M0.75 10.06H3.42L5.67 20.14L7.41 27.97H7.47L9.42 20.14L12.06 10.06H14.94L17.49 20.14L19.44 27.94H19.53L21.33 20.14L23.7 10.06H26.28L20.91 31H18.12L15.39 20.56L13.47 12.88H13.41L11.43 20.56L8.64 31H5.85L0.75 10.06ZM30.6117 10.06H33.1317V28.81H43.0617V31H30.6117V10.06ZM57.66 25.03H50.31L48.54 31H45.93L52.35 10.06H55.68L62.1 31H59.43L57.66 25.03ZM53.85 12.73L50.91 22.84H57.06L54.12 12.73H53.85ZM67.6683 13.27V31H65.3883V10.06H68.9583L76.0983 27.61H76.3083V10.06H78.5883V31H75.0183L67.8783 13.27H67.6683Z" transform="translate(1347 71.7061)" fill="white"/>
<path d="M2.7 31V10.06H10.32C12.24 10.06 13.71 10.59 14.73 11.65C15.77 12.71 16.29 14.19 16.29 16.09C16.29 17.79 15.84 19.15 14.94 20.17C14.06 21.19 12.79 21.78 11.13 21.94L16.47 31H13.65L8.55 22.06H5.22V31H2.7ZM10.26 19.93C11.32 19.93 12.14 19.67 12.72 19.15C13.32 18.61 13.62 17.85 13.62 16.87V15.31C13.62 14.33 13.32 13.58 12.72 13.06C12.14 12.52 11.32 12.25 10.26 12.25H5.22V19.93H10.26ZM20.6883 10.06H33.8883V12.25H23.2083V19.3H32.9883V21.49H23.2083V31H20.6883V10.06ZM38.4966 28.99H43.7166V12.07H38.4966V10.06H51.4566V12.07H46.2366V28.99H51.4566V31H38.4966V28.99ZM62.6648 10.06C65.2048 10.06 67.1048 10.94 68.3648 12.7C69.6448 14.46 70.2848 17.07 70.2848 20.53C70.2848 23.99 69.6448 26.6 68.3648 28.36C67.1048 30.12 65.2048 31 62.6648 31H56.8148V10.06H62.6648ZM62.5448 28.81C64.1848 28.81 65.4348 28.23 66.2948 27.07C67.1748 25.91 67.6148 24.27 67.6148 22.15V18.91C67.6148 16.79 67.1748 15.15 66.2948 13.99C65.4348 12.83 64.1848 12.25 62.5448 12.25H59.3348V28.81H62.5448Z" transform="translate(1483 72)" fill="white"/>
<path d="M12.66 25.03H5.31L3.54 31H0.93L7.35 10.06H10.68L17.1 31H14.43L12.66 25.03ZM8.85 12.73L5.91 22.84H12.06L9.12 12.73H8.85ZM23.5383 8.8V22.81H23.6583L26.3583 20.26L31.5183 15.52H34.4583L28.0383 21.58L35.2083 31H32.2383L26.2083 22.96L23.5383 25.39V31H21.1383V8.8H23.5383ZM41.5266 8.8V22.81H41.6466L44.3466 20.26L49.5066 15.52H52.4466L46.0266 21.58L53.1966 31H50.2266L44.1966 22.96L41.5266 25.39V31H39.1266V8.8H41.5266ZM66.5048 28.48C65.6848 30.4 64.2148 31.36 62.0948 31.36C60.4548 31.36 59.1448 30.84 58.1648 29.8C57.2048 28.76 56.7248 27.31 56.7248 25.45V15.52H59.1248V25.03C59.1248 26.43 59.4348 27.48 60.0548 28.18C60.6748 28.88 61.5848 29.23 62.7848 29.23C63.8448 29.23 64.7448 28.98 65.4848 28.48C66.2448 27.96 66.6248 27.22 66.6248 26.26V15.52H69.0248V31H66.6248V28.48H66.5048ZM97.8014 22.87H91.8014V20.83H97.8014V14.56H100.081V20.83H106.081V22.87H100.081V29.14H97.8014V22.87ZM130.838 22.63C130.838 24.25 130.908 25.5 131.048 26.38C131.208 27.24 131.578 27.92 132.158 28.42C132.738 28.92 133.658 29.17 134.918 29.17C136.178 29.17 137.098 28.92 137.678 28.42C138.258 27.92 138.618 27.24 138.758 26.38C138.918 25.5 138.998 24.25 138.998 22.63V10.06H141.518V22.03C141.518 24.29 141.348 26.08 141.008 27.4C140.688 28.7 140.058 29.69 139.118 30.37C138.178 31.03 136.778 31.36 134.918 31.36C133.058 31.36 131.658 31.03 130.718 30.37C129.778 29.69 129.138 28.7 128.798 27.4C128.478 26.08 128.318 24.29 128.318 22.03V10.06H130.838V22.63ZM152.846 31.36C151.066 31.36 149.566 31.04 148.346 30.4C147.126 29.74 146.096 28.83 145.256 27.67L147.086 26.17C147.906 27.21 148.776 27.98 149.696 28.48C150.616 28.96 151.696 29.2 152.936 29.2C154.436 29.2 155.586 28.85 156.386 28.15C157.206 27.45 157.616 26.47 157.616 25.21C157.616 24.17 157.316 23.37 156.716 22.81C156.116 22.25 155.116 21.85 153.716 21.61L151.376 21.22C149.456 20.9 148.076 20.24 147.236 19.24C146.396 18.22 145.976 16.98 145.976 15.52C145.976 13.64 146.596 12.2 147.836 11.2C149.076 10.2 150.786 9.7 152.966 9.7C156.146 9.7 158.486 10.77 159.986 12.91L158.216 14.44C157.576 13.6 156.836 12.96 155.996 12.52C155.176 12.08 154.156 11.86 152.936 11.86C151.516 11.86 150.426 12.17 149.666 12.79C148.906 13.39 148.526 14.28 148.526 15.46C148.526 16.44 148.816 17.22 149.396 17.8C149.996 18.38 151.016 18.79 152.456 19.03L154.706 19.42C158.346 20.06 160.166 21.97 160.166 25.15C160.166 27.09 159.526 28.61 158.246 29.71C156.966 30.81 155.166 31.36 152.846 31.36ZM171.645 10.06C173.425 10.06 174.825 10.55 175.845 11.53C176.885 12.51 177.405 13.82 177.405 15.46C177.405 16.66 177.115 17.63 176.535 18.37C175.955 19.11 175.155 19.64 174.135 19.96V20.05C175.395 20.33 176.385 20.88 177.105 21.7C177.825 22.5 178.185 23.59 178.185 24.97C178.185 26.09 177.935 27.11 177.435 28.03C176.955 28.95 176.285 29.68 175.425 30.22C174.565 30.74 173.605 31 172.545 31H164.535V10.06H171.645ZM171.375 19.15C172.455 19.15 173.285 18.91 173.865 18.43C174.465 17.95 174.765 17.24 174.765 16.3V15.13C174.765 14.19 174.465 13.48 173.865 13C173.285 12.5 172.455 12.25 171.375 12.25H167.055V19.15H171.375ZM171.795 28.81C172.975 28.81 173.885 28.54 174.525 28C175.185 27.46 175.515 26.67 175.515 25.63V24.4C175.515 23.36 175.185 22.57 174.525 22.03C173.885 21.49 172.975 21.22 171.795 21.22H167.055V28.81H171.795ZM207.561 31.36C205.041 31.36 203.141 30.44 201.861 28.6C200.601 26.74 199.971 24.05 199.971 20.53C199.971 17.01 200.601 14.33 201.861 12.49C203.141 10.63 205.041 9.7 207.561 9.7C209.301 9.7 210.651 10.12 211.611 10.96C212.591 11.78 213.391 12.89 214.011 14.29L211.851 15.28C211.411 14.18 210.871 13.34 210.231 12.76C209.611 12.18 208.721 11.89 207.561 11.89C205.941 11.89 204.711 12.51 203.871 13.75C203.051 14.97 202.641 16.66 202.641 18.82V22.24C202.641 24.4 203.051 26.1 203.871 27.34C204.711 28.56 205.941 29.17 207.561 29.17C208.721 29.17 209.611 28.88 210.231 28.3C210.871 27.72 211.411 26.88 211.851 25.78L214.011 26.77C213.391 28.17 212.591 29.29 211.611 30.13C210.651 30.95 209.301 31.36 207.561 31.36Z" transform="translate(1605.47 72)" fill="white"/>
<path d="M5.82 31H12.18L17.73 10.06H12.96L10.47 20.71L9.21 26.74H8.97L7.74 20.71L5.28 10.06H0.27L5.82 31ZM26.9883 31.36C31.8183 31.36 34.7583 28.27 34.7583 23.26C34.7583 18.25 31.8183 15.16 26.9883 15.16C22.1583 15.16 19.2183 18.25 19.2183 23.26C19.2183 28.27 22.1583 31.36 26.9883 31.36ZM26.9883 28.06C25.0083 28.06 23.8083 26.77 23.8083 24.49V22.03C23.8083 19.75 25.0083 18.46 26.9883 18.46C28.9683 18.46 30.1683 19.75 30.1683 22.03V24.49C30.1683 26.77 28.9683 28.06 26.9883 28.06ZM38.1966 27.55V31H51.3066V27.55H46.2066V22.21C46.2066 20.47 47.5566 19.6 49.5366 19.6H52.8366V15.52H51.3666C48.5466 15.52 47.0766 17.5 46.4166 19.54H46.2066V15.52H38.1966V18.97H41.7666V27.55H38.1966ZM65.7548 28.18V31H70.1948V8.8H65.7548V18.34H65.5448C64.7648 16.48 63.4448 15.16 60.9548 15.16C57.5348 15.16 55.1348 17.65 55.1348 23.26C55.1348 28.87 57.5348 31.36 60.9548 31.36C63.4448 31.36 64.7648 30.04 65.5448 28.18H65.7548ZM62.8748 27.91C60.8948 27.91 59.7548 26.62 59.7548 24.46V22.06C59.7548 19.9 60.8948 18.61 62.8748 18.61C64.4348 18.61 65.7548 19.36 65.7548 20.98V25.54C65.7548 27.16 64.4348 27.91 62.8748 27.91ZM81.3731 31.36C84.7031 31.36 86.8031 30.1 88.0031 28.63L85.6031 26.02C84.6431 27.16 83.3531 27.94 81.5231 27.94C79.1531 27.94 77.8631 26.59 77.8631 24.61V24.34H88.4531V23.02C88.4531 18.19 85.6031 15.16 80.9831 15.16C76.3331 15.16 73.4531 18.25 73.4531 23.32C73.4531 28.27 76.1831 31.36 81.3731 31.36ZM81.0131 18.34C82.9331 18.34 84.1031 19.6 84.1031 21.61V21.85H77.8631V21.61C77.8631 19.63 79.0931 18.34 81.0131 18.34ZM92.1614 27.55V31H105.271V27.55H100.171V22.21C100.171 20.47 101.521 19.6 103.501 19.6H106.801V15.52H105.331C102.511 15.52 101.041 17.5 100.381 19.54H100.171V15.52H92.1614V18.97H95.7314V27.55H92.1614ZM116.75 31.36C121.34 31.36 123.95 29.32 123.95 26.11C123.95 23.17 121.76 22 118.97 21.58L116.51 21.19C115.31 21.01 114.59 20.74 114.59 19.84C114.59 18.82 115.49 18.28 117.17 18.28C119.18 18.28 120.65 19.06 121.55 20.05L123.77 17.53C122.48 16.03 120.35 15.16 117.32 15.16C112.85 15.16 110.24 17.11 110.24 20.35C110.24 23.29 112.43 24.46 115.19 24.88L117.68 25.27C118.88 25.45 119.6 25.72 119.6 26.59C119.6 27.7 118.52 28.24 116.78 28.24C114.71 28.24 113.09 27.46 111.89 26.14L109.4 28.45C110.66 30.25 113.33 31.36 116.75 31.36ZM135.338 31.36C138.668 31.36 140.768 30.1 141.968 28.63L139.568 26.02C138.608 27.16 137.318 27.94 135.488 27.94C133.118 27.94 131.828 26.59 131.828 24.61V24.34H142.418V23.02C142.418 18.19 139.568 15.16 134.948 15.16C130.298 15.16 127.418 18.25 127.418 23.32C127.418 28.27 130.148 31.36 135.338 31.36ZM134.978 18.34C136.898 18.34 138.068 19.6 138.068 21.61V21.85H131.828V21.61C131.828 19.63 133.058 18.34 134.978 18.34ZM153.866 13.54C155.846 13.54 156.536 12.61 156.536 11.44V10.57C156.536 9.37 155.846 8.47 153.866 8.47C151.886 8.47 151.196 9.37 151.196 10.57V11.44C151.196 12.61 151.886 13.54 153.866 13.54ZM146.726 27.55V31H160.646V27.55H156.086V15.52H146.726V18.97H151.646V27.55H146.726ZM172.095 31H177.825V27.55H171.795V18.97H177.825V15.52H171.795V10.06H167.715V13.69C167.715 15.07 167.205 15.52 165.885 15.52H163.155V18.97H167.355V26.53C167.355 29.14 168.885 31 172.095 31ZM189.303 31.36C192.633 31.36 194.733 30.1 195.933 28.63L193.533 26.02C192.573 27.16 191.283 27.94 189.453 27.94C187.083 27.94 185.793 26.59 185.793 24.61V24.34H196.383V23.02C196.383 18.19 193.533 15.16 188.913 15.16C184.263 15.16 181.383 18.25 181.383 23.32C181.383 28.27 184.113 31.36 189.303 31.36ZM188.943 18.34C190.863 18.34 192.033 19.6 192.033 21.61V21.85H185.793V21.61C185.793 19.63 187.023 18.34 188.943 18.34Z" transform="translate(1584 501)" fill="white"/>
<path d="M6.72 31V23.23H8.79L12.3 31H17.22L13.11 22.63C15.45 21.97 16.8 19.66 16.8 16.72C16.8 12.67 14.49 10.06 10.38 10.06H2.28V31H6.72ZM9.3 19.75H6.72V13.69H9.3C11.4 13.69 12.12 14.44 12.12 16.27V17.17C12.12 19 11.4 19.75 9.3 19.75ZM23.6283 13.27C25.4283 13.27 26.0583 12.43 26.0583 11.38V10.6C26.0583 9.55 25.4283 8.74 23.6283 8.74C21.8583 8.74 21.2283 9.55 21.2283 10.6V11.38C21.2283 12.43 21.8583 13.27 23.6283 13.27ZM30.2283 13.27C31.9983 13.27 32.6283 12.43 32.6283 11.38V10.6C32.6283 9.55 31.9983 8.74 30.2283 8.74C28.4283 8.74 27.7983 9.55 27.7983 10.6V11.38C27.7983 12.43 28.4283 13.27 30.2283 13.27ZM29.5983 28.18V31H34.0383V15.52H29.5983V25.69C29.5983 27.19 28.2483 27.94 26.8683 27.94C25.1283 27.94 24.2583 26.89 24.2583 24.94V15.52H19.8183V25.54C19.8183 29.29 21.8883 31.36 24.8583 31.36C27.3483 31.36 28.7283 29.92 29.4183 28.18H29.5983ZM45.6066 31.36C49.0566 31.36 51.1566 29.83 52.2666 27.58L48.9066 25.66C48.2466 26.92 47.3466 27.82 45.6366 27.82C43.5366 27.82 42.3966 26.56 42.3966 24.52V22C42.3966 19.96 43.5666 18.7 45.5766 18.7C47.2266 18.7 48.0666 19.6 48.6066 20.8L52.0266 18.94C50.9466 16.69 48.9666 15.16 45.5766 15.16C40.7466 15.16 37.7766 18.25 37.7766 23.26C37.7766 28.27 40.7166 31.36 45.6066 31.36ZM55.9148 8.8V31H60.3548V25.63L61.8248 24.16L66.3248 31H71.6048L64.9748 21.64L70.9748 15.52H65.8748L62.6348 18.97L60.5648 21.4H60.3548V8.8H55.9148ZM80.7731 31.36C85.3631 31.36 87.9731 29.32 87.9731 26.11C87.9731 23.17 85.7831 22 82.9931 21.58L80.5331 21.19C79.3331 21.01 78.6131 20.74 78.6131 19.84C78.6131 18.82 79.5131 18.28 81.1931 18.28C83.2031 18.28 84.6731 19.06 85.5731 20.05L87.7931 17.53C86.5031 16.03 84.3731 15.16 81.3431 15.16C76.8731 15.16 74.2631 17.11 74.2631 20.35C74.2631 23.29 76.4531 24.46 79.2131 24.88L81.7031 25.27C82.9031 25.45 83.6231 25.72 83.6231 26.59C83.6231 27.7 82.5431 28.24 80.8031 28.24C78.7331 28.24 77.1131 27.46 75.9131 26.14L73.4231 28.45C74.6831 30.25 77.3531 31.36 80.7731 31.36ZM99.3614 31.36C102.691 31.36 104.791 30.1 105.991 28.63L103.591 26.02C102.631 27.16 101.341 27.94 99.5114 27.94C97.1414 27.94 95.8514 26.59 95.8514 24.61V24.34H106.441V23.02C106.441 18.19 103.591 15.16 98.9714 15.16C94.3214 15.16 91.4414 18.25 91.4414 23.32C91.4414 28.27 94.1714 31.36 99.3614 31.36ZM99.0014 18.34C100.921 18.34 102.091 19.6 102.091 21.61V21.85H95.8514V21.61C95.8514 19.63 97.0814 18.34 99.0014 18.34ZM117.89 13.54C119.87 13.54 120.56 12.61 120.56 11.44V10.57C120.56 9.37 119.87 8.47 117.89 8.47C115.91 8.47 115.22 9.37 115.22 10.57V11.44C115.22 12.61 115.91 13.54 117.89 13.54ZM110.75 27.55V31H124.67V27.55H120.11V15.52H110.75V18.97H115.67V27.55H110.75ZM136.118 31H141.848V27.55H135.818V18.97H141.848V15.52H135.818V10.06H131.738V13.69C131.738 15.07 131.228 15.52 129.908 15.52H127.178V18.97H131.378V26.53C131.378 29.14 132.908 31 136.118 31ZM153.326 31.36C156.656 31.36 158.756 30.1 159.956 28.63L157.556 26.02C156.596 27.16 155.306 27.94 153.476 27.94C151.106 27.94 149.816 26.59 149.816 24.61V24.34H160.406V23.02C160.406 18.19 157.556 15.16 152.936 15.16C148.286 15.16 145.406 18.25 145.406 23.32C145.406 28.27 148.136 31.36 153.326 31.36ZM152.966 18.34C154.886 18.34 156.056 19.6 156.056 21.61V21.85H149.816V21.61C149.816 19.63 151.046 18.34 152.966 18.34Z" transform="translate(1621 921)" fill="white"/>
<path d="M12.66 25.03H5.31L3.54 31H0.93L7.35 10.06H10.68L17.1 31H14.43L12.66 25.03ZM8.85 12.73L5.91 22.84H12.06L9.12 12.73H8.85ZM30.5283 28.48C29.7083 30.4 28.2383 31.36 26.1183 31.36C24.4783 31.36 23.1683 30.84 22.1883 29.8C21.2283 28.76 20.7483 27.31 20.7483 25.45V15.52H23.1483V25.03C23.1483 26.43 23.4583 27.48 24.0783 28.18C24.6983 28.88 25.6083 29.23 26.8083 29.23C27.8683 29.23 28.7683 28.98 29.5083 28.48C30.2683 27.96 30.6483 27.22 30.6483 26.26V15.52H33.0483V31H30.6483V28.48H30.5283ZM36.8166 17.56V15.52H39.0366V15.37C39.0366 13.25 39.5766 11.57 40.6566 10.33C41.7366 9.07 43.2366 8.44 45.1566 8.44C47.0566 8.44 48.5166 9.06 49.5366 10.3C50.5766 11.54 51.0966 13.23 51.0966 15.37V17.2H49.6866C48.4466 17.2 47.5166 17.4 46.8966 17.8C46.2766 18.18 45.9666 18.81 45.9666 19.69C45.9666 20.35 46.1466 20.84 46.5066 21.16C46.8666 21.46 47.4566 21.75 48.2766 22.03L48.9966 22.27C50.4766 22.75 51.5366 23.32 52.1766 23.98C52.8166 24.64 53.1366 25.58 53.1366 26.8C53.1366 28.3 52.6866 29.44 51.7866 30.22C50.8866 30.98 49.6166 31.36 47.9766 31.36C46.8766 31.36 45.9266 31.18 45.1266 30.82C44.3266 30.46 43.6166 29.88 42.9966 29.08L44.5266 27.7C45.3866 28.86 46.5866 29.44 48.1266 29.44C49.0466 29.44 49.7366 29.25 50.1966 28.87C50.6566 28.47 50.8866 27.86 50.8866 27.04C50.8866 25.68 50.2066 24.79 48.8466 24.37L48.0966 24.13C47.1166 23.81 46.3366 23.51 45.7566 23.23C45.1766 22.95 44.6866 22.54 44.2866 22C43.9066 21.44 43.7166 20.7 43.7166 19.78C43.7166 18.4 44.1666 17.34 45.0666 16.6C45.9666 15.84 47.1966 15.44 48.7566 15.4V15.16C48.7566 13.56 48.4566 12.38 47.8566 11.62C47.2766 10.84 46.3666 10.45 45.1266 10.45C43.8666 10.45 42.9266 10.84 42.3066 11.62C41.7066 12.4 41.4066 13.58 41.4066 15.16V31H39.0366V17.56H36.8166ZM63.2348 31.36C61.7748 31.36 60.4948 31.03 59.3948 30.37C58.2948 29.71 57.4448 28.77 56.8448 27.55C56.2648 26.33 55.9748 24.91 55.9748 23.29C55.9748 21.67 56.2748 20.25 56.8748 19.03C57.4748 17.79 58.3048 16.84 59.3648 16.18C60.4448 15.5 61.6848 15.16 63.0848 15.16C64.4448 15.16 65.6448 15.49 66.6848 16.15C67.7248 16.79 68.5248 17.68 69.0848 18.82C69.6648 19.96 69.9548 21.26 69.9548 22.72V23.86H58.4948V24.58C58.4948 25.96 58.9248 27.09 59.7848 27.97C60.6448 28.85 61.7948 29.29 63.2348 29.29C64.2548 29.29 65.1448 29.06 65.9048 28.6C66.6648 28.12 67.2548 27.45 67.6748 26.59L69.4448 27.79C68.9648 28.87 68.1748 29.74 67.0748 30.4C65.9948 31.04 64.7148 31.36 63.2348 31.36ZM63.0848 17.14C62.2248 17.14 61.4448 17.35 60.7448 17.77C60.0448 18.17 59.4948 18.73 59.0948 19.45C58.6948 20.17 58.4948 20.97 58.4948 21.85V22.06H67.3748V21.73C67.3748 20.37 66.9748 19.27 66.1748 18.43C65.3948 17.57 64.3648 17.14 63.0848 17.14ZM74.8931 15.52H77.2931V18.04H77.4131C78.2331 16.12 79.7031 15.16 81.8231 15.16C83.4631 15.16 84.7631 15.68 85.7231 16.72C86.7031 17.76 87.1931 19.21 87.1931 21.07V31H84.7931V21.49C84.7931 20.09 84.4831 19.04 83.8631 18.34C83.2431 17.64 82.3331 17.29 81.1331 17.29C80.0731 17.29 79.1631 17.55 78.4031 18.07C77.6631 18.57 77.2931 19.3 77.2931 20.26V31H74.8931V15.52ZM95.1914 8.8V18.04H95.3114C96.3114 16.12 97.9014 15.16 100.081 15.16C101.981 15.16 103.461 15.88 104.521 17.32C105.601 18.74 106.141 20.72 106.141 23.26C106.141 25.8 105.601 27.79 104.521 29.23C103.461 30.65 101.981 31.36 100.081 31.36C97.9014 31.36 96.3114 30.4 95.3114 28.48H95.1914V31H92.7914V8.8H95.1914ZM99.1514 29.23C100.531 29.23 101.611 28.81 102.391 27.97C103.171 27.13 103.561 26 103.561 24.58V21.94C103.561 20.52 103.171 19.39 102.391 18.55C101.611 17.71 100.531 17.29 99.1514 17.29C98.0314 17.29 97.0914 17.57 96.3314 18.13C95.5714 18.69 95.1914 19.47 95.1914 20.47V26.05C95.1914 27.05 95.5714 27.83 96.3314 28.39C97.0914 28.95 98.0314 29.23 99.1514 29.23ZM117.2 31.36C115.74 31.36 114.46 31.03 113.36 30.37C112.26 29.71 111.41 28.77 110.81 27.55C110.23 26.33 109.94 24.91 109.94 23.29C109.94 21.67 110.24 20.25 110.84 19.03C111.44 17.79 112.27 16.84 113.33 16.18C114.41 15.5 115.65 15.16 117.05 15.16C118.41 15.16 119.61 15.49 120.65 16.15C121.69 16.79 122.49 17.68 123.05 18.82C123.63 19.96 123.92 21.26 123.92 22.72V23.86H112.46V24.58C112.46 25.96 112.89 27.09 113.75 27.97C114.61 28.85 115.76 29.29 117.2 29.29C118.22 29.29 119.11 29.06 119.87 28.6C120.63 28.12 121.22 27.45 121.64 26.59L123.41 27.79C122.93 28.87 122.14 29.74 121.04 30.4C119.96 31.04 118.68 31.36 117.2 31.36ZM117.05 17.14C116.19 17.14 115.41 17.35 114.71 17.77C114.01 18.17 113.46 18.73 113.06 19.45C112.66 20.17 112.46 20.97 112.46 21.85V22.06H121.34V21.73C121.34 20.37 120.94 19.27 120.14 18.43C119.36 17.57 118.33 17.14 117.05 17.14ZM133.628 28.96V17.56H128.108V15.52H133.628V12.34C133.628 11.26 133.918 10.4 134.498 9.76C135.078 9.12 135.928 8.8 137.048 8.8H142.238V10.84H136.028V15.52H142.238V17.56H136.028V28.96H141.548V31H128.408V28.96H133.628ZM153.176 31.36C151.716 31.36 150.436 31.03 149.336 30.37C148.236 29.71 147.386 28.77 146.786 27.55C146.206 26.33 145.916 24.91 145.916 23.29C145.916 21.67 146.216 20.25 146.816 19.03C147.416 17.79 148.246 16.84 149.306 16.18C150.386 15.5 151.626 15.16 153.026 15.16C154.386 15.16 155.586 15.49 156.626 16.15C157.666 16.79 158.466 17.68 159.026 18.82C159.606 19.96 159.896 21.26 159.896 22.72V23.86H148.436V24.58C148.436 25.96 148.866 27.09 149.726 27.97C150.586 28.85 151.736 29.29 153.176 29.29C154.196 29.29 155.086 29.06 155.846 28.6C156.606 28.12 157.196 27.45 157.616 26.59L159.386 27.79C158.906 28.87 158.116 29.74 157.016 30.4C155.936 31.04 154.656 31.36 153.176 31.36ZM153.026 17.14C152.166 17.14 151.386 17.35 150.686 17.77C149.986 18.17 149.436 18.73 149.036 19.45C148.636 20.17 148.436 20.97 148.436 21.85V22.06H157.316V21.73C157.316 20.37 156.916 19.27 156.116 18.43C155.336 17.57 154.306 17.14 153.026 17.14ZM171.075 31.36C168.075 31.36 165.685 30.35 163.905 28.33L165.525 26.92C166.285 27.74 167.115 28.35 168.015 28.75C168.915 29.15 169.955 29.35 171.135 29.35C172.395 29.35 173.395 29.13 174.135 28.69C174.875 28.23 175.245 27.56 175.245 26.68C175.245 25.94 175.005 25.41 174.525 25.09C174.045 24.77 173.375 24.55 172.515 24.43L170.085 24.07C169.105 23.93 168.245 23.74 167.505 23.5C166.765 23.24 166.125 22.82 165.585 22.24C165.045 21.64 164.775 20.82 164.775 19.78C164.775 18.28 165.345 17.14 166.485 16.36C167.625 15.56 169.135 15.16 171.015 15.16C173.655 15.16 175.755 15.99 177.315 17.65L175.755 19.12C174.675 17.82 173.065 17.17 170.925 17.17C169.705 17.17 168.765 17.38 168.105 17.8C167.465 18.22 167.145 18.83 167.145 19.63C167.145 20.37 167.385 20.9 167.865 21.22C168.365 21.54 169.035 21.76 169.875 21.88L172.305 22.24C173.305 22.38 174.175 22.58 174.915 22.84C175.655 23.08 176.285 23.5 176.805 24.1C177.345 24.68 177.615 25.49 177.615 26.53C177.615 28.05 177.025 29.24 175.845 30.1C174.665 30.94 173.075 31.36 171.075 31.36ZM189.633 31C188.513 31 187.663 30.68 187.083 30.04C186.503 29.4 186.213 28.54 186.213 27.46V17.56H181.053V15.52H184.893C185.413 15.52 185.773 15.42 185.973 15.22C186.193 15 186.303 14.63 186.303 14.11V10.06H188.613V15.52H195.663V17.56H188.613V28.96H195.663V31H189.633ZM207.831 12.1C207.171 12.1 206.691 11.96 206.391 11.68C206.091 11.4 205.941 11.03 205.941 10.57V10.09C205.941 9.63 206.091 9.26 206.391 8.98C206.691 8.7 207.171 8.56 207.831 8.56C208.491 8.56 208.971 8.7 209.271 8.98C209.571 9.26 209.721 9.63 209.721 10.09V10.57C209.721 11.03 209.571 11.4 209.271 11.68C208.971 11.96 208.491 12.1 207.831 12.1ZM206.631 28.96V17.56H201.051V15.52H209.031V28.96H214.251V31H201.051V28.96H206.631ZM231.009 30.49C231.009 32.63 230.409 34.31 229.209 35.53C228.009 36.75 226.339 37.36 224.199 37.36C221.879 37.36 220.029 36.65 218.649 35.23L220.059 33.58C221.139 34.7 222.529 35.26 224.229 35.26C227.149 35.26 228.609 33.72 228.609 30.64V28.06H228.489C227.489 29.98 225.899 30.94 223.719 30.94C221.839 30.94 220.359 30.24 219.279 28.84C218.199 27.42 217.659 25.49 217.659 23.05C217.659 20.61 218.199 18.69 219.279 17.29C220.359 15.87 221.839 15.16 223.719 15.16C225.899 15.16 227.489 16.12 228.489 18.04H228.609V15.52H231.009V30.49ZM224.649 28.81C225.769 28.81 226.709 28.53 227.469 27.97C228.229 27.41 228.609 26.63 228.609 25.63V20.47C228.609 19.47 228.229 18.69 227.469 18.13C226.709 17.57 225.769 17.29 224.649 17.29C223.269 17.29 222.189 17.71 221.409 18.55C220.629 19.39 220.239 20.52 220.239 21.94V24.16C220.239 25.58 220.629 26.71 221.409 27.55C222.189 28.39 223.269 28.81 224.649 28.81ZM246.388 28.48C245.568 30.4 244.098 31.36 241.978 31.36C240.338 31.36 239.028 30.84 238.048 29.8C237.088 28.76 236.608 27.31 236.608 25.45V15.52H239.008V25.03C239.008 26.43 239.318 27.48 239.938 28.18C240.558 28.88 241.468 29.23 242.668 29.23C243.728 29.23 244.628 28.98 245.368 28.48C246.128 27.96 246.508 27.22 246.508 26.26V15.52H248.908V31H246.508V28.48H246.388ZM254.776 15.52H257.176V18.04H257.296C258.116 16.12 259.586 15.16 261.706 15.16C263.346 15.16 264.646 15.68 265.606 16.72C266.586 17.76 267.076 19.21 267.076 21.07V31H264.676V21.49C264.676 20.09 264.366 19.04 263.746 18.34C263.126 17.64 262.216 17.29 261.016 17.29C259.956 17.29 259.046 17.55 258.286 18.07C257.546 18.57 257.176 19.3 257.176 20.26V31H254.776V15.52ZM284.974 30.49C284.974 32.63 284.374 34.31 283.174 35.53C281.974 36.75 280.304 37.36 278.164 37.36C275.844 37.36 273.994 36.65 272.614 35.23L274.024 33.58C275.104 34.7 276.494 35.26 278.194 35.26C281.114 35.26 282.574 33.72 282.574 30.64V28.06H282.454C281.454 29.98 279.864 30.94 277.684 30.94C275.804 30.94 274.324 30.24 273.244 28.84C272.164 27.42 271.624 25.49 271.624 23.05C271.624 20.61 272.164 18.69 273.244 17.29C274.324 15.87 275.804 15.16 277.684 15.16C279.864 15.16 281.454 16.12 282.454 18.04H282.574V15.52H284.974V30.49ZM278.614 28.81C279.734 28.81 280.674 28.53 281.434 27.97C282.194 27.41 282.574 26.63 282.574 25.63V20.47C282.574 19.47 282.194 18.69 281.434 18.13C280.674 17.57 279.734 17.29 278.614 17.29C277.234 17.29 276.154 17.71 275.374 18.55C274.594 19.39 274.204 20.52 274.204 21.94V24.16C274.204 25.58 274.594 26.71 275.374 27.55C276.154 28.39 277.234 28.81 278.614 28.81Z" transform="translate(197 703)" fill="white"/>
<path fill-rule="evenodd" clip-rule="evenodd" d="M0 11.2C0 7.27963 0 5.31945 0.762954 3.82207C1.43407 2.50493 2.50493 1.43407 3.82207 0.762954C5.31945 0 7.27963 0 11.2 0H148.8C152.72 0 154.681 0 156.178 0.762954C157.495 1.43407 158.566 2.50493 159.237 3.82207C160 5.31945 160 7.27963 160 11.2V87.8C160 91.7204 160 93.6806 159.237 95.1779C158.566 96.4951 157.495 97.5659 156.178 98.237C154.681 99 152.72 99 148.8 99H11.2C7.27963 99 5.31945 99 3.82207 98.237C2.50493 97.5659 1.43407 96.4951 0.762954 95.1779C0 93.6806 0 91.7204 0 87.8V11.2Z" transform="translate(614 491)" fill="white" stroke="black" stroke-width="4"/>
<path fill-rule="evenodd" clip-rule="evenodd" d="M0 96L157 0H0V96Z" transform="translate(616 492)" fill="#D8D8D8" fill-opacity="0.3"/>
<path fill-rule="evenodd" clip-rule="evenodd" d="M1.92188 0.179688C2.06771 0.382814 2.22786 0.614582 2.40234 0.875C2.57682 1.13542 2.76562 1.42448 2.96875 1.74219C3.02083 1.82552 3.04297 1.91927 3.03516 2.02344C3.02734 2.1276 2.98958 2.23958 2.92188 2.35938C2.89583 2.41146 2.85156 2.49479 2.78906 2.60938C2.72656 2.72396 2.64583 2.87239 2.54688 3.05469C2.65625 3.21094 2.79557 3.38542 2.96484 3.57812C3.13412 3.77083 3.33073 3.97917 3.55469 4.20312C3.78386 4.43229 3.99349 4.63151 4.18359 4.80078C4.3737 4.97005 4.54427 5.10937 4.69531 5.21875C4.8724 5.11458 5.01953 5.02995 5.13672 4.96484C5.25391 4.89974 5.33854 4.85417 5.39062 4.82812C5.45313 4.79167 5.51693 4.76432 5.58203 4.74609C5.64714 4.72786 5.70833 4.71875 5.76562 4.71875C5.8125 4.71875 5.85547 4.72396 5.89453 4.73438C5.93359 4.74479 5.97135 4.76042 6.00781 4.78125C6.24219 4.92188 6.48958 5.07943 6.75 5.25391C7.01042 5.42839 7.28906 5.61979 7.58594 5.82812C7.63802 5.86458 7.67969 5.91146 7.71094 5.96875C7.74219 6.02604 7.76302 6.08854 7.77344 6.15625C7.77865 6.22917 7.77083 6.30339 7.75 6.37891C7.72917 6.45443 7.69271 6.53125 7.64062 6.60938C7.61979 6.64583 7.58854 6.6901 7.54688 6.74219C7.50521 6.79427 7.45573 6.85417 7.39844 6.92188C7.34635 6.98958 7.27865 7.06641 7.19531 7.15234C7.11198 7.23828 7.01302 7.33333 6.89844 7.4375C6.78906 7.54167 6.6888 7.61979 6.59766 7.67188C6.50651 7.72396 6.42708 7.75 6.35938 7.75H6.34375C6.07292 7.73958 5.78906 7.68099 5.49219 7.57422C5.19531 7.46745 4.88281 7.31511 4.55469 7.11719C4.22656 6.91927 3.88281 6.67188 3.52344 6.375C3.16406 6.07812 2.78906 5.73698 2.39844 5.35156C2.00781 4.96094 1.66537 4.58594 1.37109 4.22656C1.07682 3.86719 0.829428 3.52344 0.628906 3.19531C0.428384 2.86719 0.276042 2.55339 0.171875 2.25391C0.0677078 1.95443 0.0104167 1.67188 0 1.40625C0 1.33333 0.0260414 1.2513 0.078125 1.16016C0.130209 1.06901 0.208333 0.966146 0.3125 0.851562C0.416667 0.736979 0.510416 0.639323 0.59375 0.558594C0.677084 0.477864 0.752604 0.411459 0.820312 0.359375C0.882813 0.3125 0.942708 0.268229 1 0.226562C1.05729 0.184896 1.10677 0.148438 1.14844 0.117188C1.20573 0.0755206 1.26562 0.045573 1.32812 0.0273438C1.39063 0.00911449 1.45833 0 1.53125 0C1.61458 0 1.6888 0.0143228 1.75391 0.0429688C1.81901 0.0716147 1.875 0.117187 1.92188 0.179688ZM1.42188 0.5C1.31771 0.572917 1.21615 0.652343 1.11719 0.738281C1.01823 0.824219 0.921875 0.914062 0.828125 1.00781C0.734375 1.10156 0.660157 1.18229 0.605469 1.25C0.550781 1.31771 0.515625 1.375 0.5 1.42188C0.510417 1.65625 0.565104 1.90625 0.664062 2.17188C0.763021 2.4375 0.906249 2.72005 1.09375 3.01953C1.28125 3.31901 1.51302 3.63411 1.78906 3.96484C2.06511 4.29557 2.38541 4.64323 2.75 5.00781C3.11459 5.3724 3.46224 5.69271 3.79297 5.96875C4.1237 6.24479 4.4388 6.47656 4.73828 6.66406C5.03776 6.85156 5.32161 6.99479 5.58984 7.09375C5.85807 7.19271 6.10937 7.25 6.34375 7.26562C6.38021 7.25 6.43229 7.21354 6.5 7.15625C6.56771 7.09896 6.64844 7.02344 6.74219 6.92969C6.83594 6.83594 6.92448 6.73828 7.00781 6.63672C7.09115 6.53516 7.17187 6.43229 7.25 6.32812C7.26563 6.30729 7.27604 6.28776 7.28125 6.26953C7.28646 6.2513 7.28646 6.23438 7.28125 6.21875C6.97917 6.00521 6.70182 5.81511 6.44922 5.64844C6.19661 5.48177 5.96875 5.33333 5.76562 5.20312C5.74479 5.20312 5.72135 5.20703 5.69531 5.21484C5.66927 5.22266 5.64063 5.23437 5.60938 5.25C5.56771 5.27604 5.48958 5.32031 5.375 5.38281C5.26042 5.44531 5.11198 5.52604 4.92969 5.625L4.67188 5.78125L4.41406 5.60938C4.24739 5.49479 4.0638 5.34766 3.86328 5.16797C3.66276 4.98828 3.44271 4.77865 3.20312 4.53906C2.96875 4.29948 2.76302 4.07943 2.58594 3.87891C2.40885 3.67838 2.26302 3.49479 2.14844 3.32812L1.96094 3.08594L2.11719 2.8125C2.21615 2.63021 2.29687 2.48307 2.35938 2.37109C2.42188 2.25911 2.46615 2.17969 2.49219 2.13281C2.50781 2.10156 2.51953 2.07292 2.52734 2.04688C2.53516 2.02083 2.53906 1.9974 2.53906 1.97656C2.35677 1.6901 2.18359 1.42188 2.01953 1.17188C1.85547 0.921874 1.69792 0.687501 1.54688 0.46875H1.53125C1.51042 0.46875 1.49089 0.471354 1.47266 0.476562C1.45443 0.481771 1.4375 0.489583 1.42188 0.5Z" transform="translate(627.125 573.609)" fill="black"/>
<path fill-rule="evenodd" clip-rule="evenodd" d="M7.98633 1.62612C7.99154 1.66257 7.98633 1.70033 7.9707 1.7394C7.95508 1.77846 7.93164 1.81101 7.90039 1.83705L6.61133 2.91518L7.71289 3.79018C7.74414 3.81101 7.76758 3.83966 7.7832 3.87612C7.79883 3.91257 7.80664 3.95164 7.80664 3.9933C7.80664 4.03497 7.79622 4.07273 7.77539 4.10659C7.75456 4.14044 7.72852 4.16778 7.69727 4.18862L6.72852 4.83705V6.06362C6.72852 6.10528 6.7181 6.14435 6.69727 6.1808C6.67643 6.21726 6.64779 6.24851 6.61133 6.27455L4.12695 7.69643C4.10612 7.71205 4.08398 7.72247 4.06055 7.72768C4.03711 7.73289 4.01497 7.73549 3.99414 7.73549C3.97331 7.73549 3.95117 7.73289 3.92773 7.72768C3.9043 7.72247 3.88216 7.71205 3.86133 7.69643L1.3457 6.27455C1.30924 6.24851 1.2806 6.21726 1.25977 6.1808C1.23893 6.14435 1.22852 6.10528 1.22852 6.06362V5.0558C1.22852 5.01935 1.23633 4.98549 1.25195 4.95424C1.26758 4.92299 1.28841 4.89695 1.31445 4.87612L0.291016 4.18862C0.254557 4.16778 0.227214 4.14044 0.208984 4.10659C0.190755 4.07273 0.179036 4.03497 0.173828 3.9933C0.173828 3.95164 0.181641 3.91257 0.197266 3.87612C0.212891 3.83966 0.238932 3.81101 0.275391 3.79018L1.37695 2.91518L0.0878906 1.83705C0.0566405 1.81101 0.0332032 1.77846 0.0175781 1.7394C0.00195307 1.70033 -0.00325521 1.66257 0.00195315 1.62612C0.00195315 1.58445 0.0123697 1.54669 0.0332031 1.51283C0.0540366 1.47898 0.0826821 1.45164 0.119141 1.4308L2.3457 0.0401786C2.38737 0.00892843 2.43555 -0.00409227 2.49023 0.00111609C2.54492 0.00632445 2.5931 0.0245534 2.63477 0.0558036L3.99414 1.15737L5.35352 0.0558036C5.39518 0.0245534 5.44336 0.00632445 5.49805 0.00111609C5.55273 -0.00409227 5.60091 0.00892843 5.64258 0.0401786L7.86914 1.4308C7.9056 1.45164 7.93424 1.47898 7.95508 1.51283C7.97591 1.54669 7.98633 1.58445 7.98633 1.62612ZM5.75195 2.92285L3.99414 1.77441L2.23633 2.92285L3.99414 4.0166L5.75195 2.92285ZM0.673828 1.67285L1.79102 2.61035L3.57227 1.4541L2.45508 0.555664L0.673828 1.67285ZM1.79102 3.22754L0.853516 3.96973L2.55664 5.10254L3.55664 4.33691L1.79102 3.22754ZM1.72852 5.14941V5.92285L3.72852 7.04004V4.83691L2.7207 5.61035C2.67383 5.6416 2.62435 5.65723 2.57227 5.65723C2.52018 5.65723 2.4707 5.64421 2.42383 5.61816L1.72852 5.14941ZM6.22852 5.92285V5.16504L5.55664 5.61816C5.53581 5.62858 5.51367 5.6377 5.49023 5.64551C5.4668 5.65332 5.44206 5.65723 5.41602 5.65723C5.38997 5.65723 5.36393 5.65332 5.33789 5.64551C5.31185 5.6377 5.28841 5.62598 5.26758 5.61035L4.22852 4.81348V7.05566L6.22852 5.92285ZM7.12695 3.96191L6.19727 3.22754L4.43164 4.33691L5.42383 5.10254L7.12695 3.96191ZM6.19727 2.61035L7.31445 1.67285L5.5332 0.555664L4.41602 1.4541L6.19727 2.61035Z" transform="translate(648.006 573.632)" fill="black"/>
<path fill-rule="evenodd" clip-rule="evenodd" d="M1.75 0C1.81771 0 1.8763 0.0247393 1.92578 0.0742188C1.97526 0.123698 2 0.182291 2 0.25C2 0.317709 1.97526 0.376302 1.92578 0.425781C1.8763 0.475261 1.81771 0.5 1.75 0.5H0.5V1.75C0.5 1.81771 0.475261 1.8763 0.425781 1.92578C0.376302 1.97526 0.317709 2 0.25 2C0.182291 2 0.123698 1.97526 0.0742188 1.92578C0.0247393 1.8763 0 1.81771 0 1.75V0.25C0 0.182291 0.0247393 0.123698 0.0742188 0.0742188C0.123698 0.0247393 0.182291 0 0.25 0H1.75ZM7.75 4.25C7.81771 4.25 7.8763 4.27474 7.92578 4.32422C7.97526 4.3737 8 4.43229 8 4.5V6C8 6.06771 7.97526 6.1263 7.92578 6.17578C7.8763 6.22526 7.81771 6.25 7.75 6.25H6.25C6.18229 6.25 6.1237 6.22526 6.07422 6.17578C6.02474 6.1263 6 6.06771 6 6C6 5.93229 6.02474 5.8737 6.07422 5.82422C6.1237 5.77474 6.18229 5.75 6.25 5.75H7.5V4.5C7.5 4.43229 7.52474 4.3737 7.57422 4.32422C7.6237 4.27474 7.68229 4.25 7.75 4.25ZM1.75 5.75C1.81771 5.75 1.8763 5.77474 1.92578 5.82422C1.97526 5.8737 2 5.93229 2 6C2 6.06771 1.97526 6.1263 1.92578 6.17578C1.8763 6.22526 1.81771 6.25 1.75 6.25H0.25C0.182291 6.25 0.123698 6.22526 0.0742188 6.17578C0.0247393 6.1263 0 6.06771 0 6V4.5C0 4.43229 0.0247393 4.3737 0.0742188 4.32422C0.123698 4.27474 0.182291 4.25 0.25 4.25C0.317709 4.25 0.376302 4.27474 0.425781 4.32422C0.475261 4.3737 0.5 4.43229 0.5 4.5V5.75H1.75ZM7.75 0C7.81771 0 7.8763 0.0247393 7.92578 0.0742188C7.97526 0.123698 8 0.182291 8 0.25V1.75C8 1.81771 7.97526 1.8763 7.92578 1.92578C7.8763 1.97526 7.81771 2 7.75 2C7.68229 2 7.6237 1.97526 7.57422 1.92578C7.52474 1.8763 7.5 1.81771 7.5 1.75V0.5H6.25C6.18229 0.5 6.1237 0.475261 6.07422 0.425781C6.02474 0.376302 6 0.317709 6 0.25C6 0.182291 6.02474 0.123698 6.07422 0.0742188C6.1237 0.0247393 6.18229 0 6.25 0H7.75Z" transform="translate(668 574.375)" fill="black"/>
<path d="M1.5 0.5V4.5" transform="translate(668 575)" stroke="black" stroke-width="0.5" stroke-linecap="round"/>
<path d="M1.5 0.5V4.5" transform="translate(669 575)" stroke="black" stroke-width="0.5" stroke-linecap="round"/>
<path d="M1.5 0.5V4.5" transform="translate(670 575)" stroke="black" stroke-width="0.5" stroke-linecap="round"/>
<path d="M1.5 0.5V4.5" transform="translate(671 575)" stroke="black" stroke-width="0.5" stroke-linecap="round"/>
<path d="M1.5 0.5V4.5" transform="translate(672 575)" stroke="black" stroke-width="0.5" stroke-linecap="round"/>
<path d="M1.5 0.5V4.5" transform="translate(673 575)" stroke="black" stroke-width="0.5" stroke-linecap="round"/>
<path fill-rule="evenodd" clip-rule="evenodd" d="M5.26483 0.583496L0.689697 2.51077L2.66272 3.11126L3.34327 5.07856L5.26483 0.583496ZM5.73943 0C5.79281 0 5.82712 0.0209691 5.84237 0.062908C5.85763 0.104847 5.85 0.162036 5.8195 0.234475L3.48618 5.69032C3.46331 5.7437 3.43662 5.78277 3.40612 5.80756C3.37562 5.83234 3.34321 5.84473 3.3089 5.84473C3.2784 5.84473 3.24694 5.83424 3.21453 5.81328C3.18213 5.79231 3.15449 5.76085 3.13161 5.71891L2.38815 3.40847L0.12918 2.70505C0.0376771 2.64786 -0.00521432 2.584 0.000504619 2.51346C0.00622356 2.44293 0.0586464 2.38669 0.157775 2.34475L5.61362 0.0285946C5.64031 0.0171567 5.66413 0.00953154 5.6851 0.00571891C5.70607 0.00190629 5.72418 0 5.73943 0Z" transform="translate(686 575)" fill="black"/>
<path fill-rule="evenodd" clip-rule="evenodd" d="M0 11.2C0 7.27963 0 5.31945 0.762954 3.82207C1.43407 2.50493 2.50493 1.43407 3.82207 0.762954C5.31945 0 7.27963 0 11.2 0H515.8C519.72 0 521.681 0 523.178 0.762954C524.495 1.43407 525.566 2.50493 526.237 3.82207C527 5.31945 527 7.27963 527 11.2V314.8C527 318.72 527 320.681 526.237 322.178C525.566 323.495 524.495 324.566 523.178 325.237C521.681 326 519.72 326 515.8 326H11.2C7.27963 326 5.31945 326 3.82207 325.237C2.50493 324.566 1.43407 323.495 0.762954 322.178C0 320.681 0 318.72 0 314.8V11.2Z" transform="translate(1255 159)" fill="white" stroke="black" stroke-width="4"/>
<path fill-rule="evenodd" clip-rule="evenodd" d="M0 316L527 0H0V316Z" transform="translate(1252 162)" fill="#D8D8D8" fill-opacity="0.3"/>
<path fill-rule="evenodd" clip-rule="evenodd" d="M24.1817 2.6792L3.16748 11.5315L12.2299 14.2896L15.3557 23.3257L24.1817 2.6792ZM26.3621 0C26.6072 0 26.7648 0.0963143 26.8349 0.288946C26.9049 0.481577 26.8699 0.744253 26.7298 1.07698L16.0125 26.1365C15.9075 26.3816 15.7849 26.5611 15.6448 26.675C15.5047 26.7888 15.3559 26.8457 15.1982 26.8457C15.0582 26.8457 14.9137 26.7975 14.7648 26.7012C14.616 26.6049 14.489 26.4604 14.3839 26.2678L10.9691 15.6556L0.593344 12.4247C0.173056 12.162 -0.0239502 11.8687 0.00231779 11.5447C0.0285857 11.2207 0.269372 10.9624 0.724683 10.7698L25.7842 0.131339C25.9068 0.0788032 26.0162 0.0437798 26.1125 0.0262678C26.2088 0.00875585 26.292 0 26.3621 0Z" transform="translate(1531 429)" fill="black"/>
<path fill-rule="evenodd" clip-rule="evenodd" d="M0 11.2C0 7.27963 0 5.31945 0.762954 3.82207C1.43407 2.50493 2.50493 1.43407 3.82207 0.762954C5.31945 0 7.27963 0 11.2 0H515.8C519.72 0 521.681 0 523.178 0.762954C524.495 1.43407 525.566 2.50493 526.237 3.82207C527 5.31945 527 7.27963 527 11.2V314.8C527 318.72 527 320.681 526.237 322.178C525.566 323.495 524.495 324.566 523.178 325.237C521.681 326 519.72 326 515.8 326H11.2C7.27963 326 5.31945 326 3.82207 325.237C2.50493 324.566 1.43407 323.495 0.762954 322.178C0 320.681 0 318.72 0 314.8V11.2Z" transform="translate(1255 579)" fill="white" stroke="black" stroke-width="4"/>
<path fill-rule="evenodd" clip-rule="evenodd" d="M0 316L527 0H0V316Z" transform="translate(1252 582)" fill="#D8D8D8" fill-opacity="0.3"/>
<path fill-rule="evenodd" clip-rule="evenodd" d="M0 11.2C0 7.27963 0 5.31945 0.762954 3.82207C1.43407 2.50493 2.50493 1.43407 3.82207 0.762954C5.31945 0 7.27963 0 11.2 0H30.8C34.7204 0 36.6806 0 38.1779 0.762954C39.4951 1.43407 40.5659 2.50493 41.237 3.82207C42 5.31945 42 7.27963 42 11.2V23.8C42 27.7204 42 29.6806 41.237 31.1779C40.5659 32.4951 39.4951 33.5659 38.1779 34.237C36.6806 35 34.7204 35 30.8 35H11.2C7.27963 35 5.31945 35 3.82207 34.237C2.50493 33.5659 1.43407 32.4951 0.762954 31.1779C0 29.6806 0 27.7204 0 23.8V11.2Z" transform="translate(1283 606)" fill="white" stroke="black" stroke-width="4"/>
<path d="M0 1H80.2883" transform="translate(507 539)" stroke="#C5C4C0" stroke-width="7" stroke-linecap="square"/>
<path d="M0 22.9692H23.7688V0" transform="translate(535.049 540.242) rotate(135)" stroke="#C5C4C0" stroke-width="7" stroke-linecap="square"/>
<path d="M0 1H80.2883" transform="translate(291.954 625.83) rotate(120)" stroke="#C5C4C0" stroke-width="7" stroke-linecap="square"/>
<path d="M0 22.9692H23.7688V0" transform="translate(276.855 649.5) rotate(-105)" stroke="#C5C4C0" stroke-width="7" stroke-linecap="square"/>
<path d="M0 2H163.877" transform="translate(660 647) rotate(90)" stroke="#C5C4C0" stroke-width="7" stroke-linecap="square"/>
<path d="M0 22.9692H23.7688V0" transform="translate(657.758 675.049) rotate(-135)" stroke="#C5C4C0" stroke-width="7" stroke-linecap="square"/>
<path d="M0 2H258.729" transform="translate(1422.58 295.022) rotate(-160)" stroke="#C5C4C0" stroke-width="7" stroke-linecap="square"/>
<path d="M0 22.9692H23.7688V0" transform="translate(1396.99 284.322) rotate(-25)" stroke="#C5C4C0" stroke-width="7" stroke-linecap="square"/>
<path d="M0 2H102.03" transform="translate(1328.93 199.465) rotate(-130)" stroke="#C5C4C0" stroke-width="7" stroke-linecap="square"/>
<path d="M0 22.9692H23.7688V0" transform="translate(1312.62 176.537) rotate(5)" stroke="#C5C4C0" stroke-width="7" stroke-linecap="square"/>
<path d="M0 2H102.03" transform="translate(1450.93 199.465) rotate(-130)" stroke="#C5C4C0" stroke-width="7" stroke-linecap="square"/>
<path d="M0 22.9692H23.7688V0" transform="translate(1434.62 176.537) rotate(5)" stroke="#C5C4C0" stroke-width="7" stroke-linecap="square"/>
<path d="M0 2H102.03" transform="translate(1586.93 199.758) rotate(-130)" stroke="#C5C4C0" stroke-width="7" stroke-linecap="square"/>
<path d="M0 22.9692H23.7688V0" transform="translate(1570.62 176.831) rotate(5)" stroke="#C5C4C0" stroke-width="7" stroke-linecap="square"/>
<path d="M0 2H102.03" transform="translate(1709.4 199.758) rotate(-130)" stroke="#C5C4C0" stroke-width="7" stroke-linecap="square"/>
<path d="M0 22.9692H23.7688V0" transform="translate(1693.09 176.831) rotate(5)" stroke="#C5C4C0" stroke-width="7" stroke-linecap="square"/>
<path d="M0 2H102.03" transform="translate(1325.46 694.685) rotate(69)" stroke="#C5C4C0" stroke-width="7" stroke-linecap="square"/>
<path d="M0 22.9692H23.7688V0" transform="translate(1333.42 721.674) rotate(-156)" stroke="#C5C4C0" stroke-width="7" stroke-linecap="square"/>
<path fill-rule="evenodd" clip-rule="evenodd" d="M0.762939 3.82227C0 5.31934 0 7.27979 0 11.2002V106.8C0 110.72 0 112.681 0.762939 114.178C1.43408 115.495 2.50488 116.566 3.82202 117.237C5.31946 118 7.27966 118 11.2 118H194.8C198.72 118 200.681 118 202.178 117.237C203.495 116.566 204.566 115.495 205.237 114.178C206 112.681 206 110.72 206 106.8V84.8286C193.054 83.3413 183 72.3447 183 59C183 45.6553 193.054 34.6587 206 33.1714V11.2002C206 7.27979 206 5.31934 205.237 3.82227C204.566 2.50488 203.495 1.43408 202.178 0.763184C200.681 0 198.72 0 194.8 0H11.2C7.27966 0 5.31946 0 3.82202 0.763184C2.50488 1.43408 1.43408 2.50488 0.762939 3.82227Z" transform="translate(296 482)" fill="white" stroke="black" stroke-width="4"/>
<mask id="mask0" mask-type="alpha" maskUnits="userSpaceOnUse" x="294" y="480" width="210" height="122">
<path fill-rule="evenodd" clip-rule="evenodd" d="M0.762939 3.82227C0 5.31934 0 7.27979 0 11.2002V106.8C0 110.72 0 112.681 0.762939 114.178C1.43408 115.495 2.50488 116.566 3.82202 117.237C5.31946 118 7.27966 118 11.2 118H194.8C198.72 118 200.681 118 202.178 117.237C203.495 116.566 204.566 115.495 205.237 114.178C206 112.681 206 110.72 206 106.8V84.8286C193.054 83.3413 183 72.3447 183 59C183 45.6553 193.054 34.6587 206 33.1714V11.2002C206 7.27979 206 5.31934 205.237 3.82227C204.566 2.50488 203.495 1.43408 202.178 0.763184C200.681 0 198.72 0 194.8 0H11.2C7.27966 0 5.31946 0 3.82202 0.763184C2.50488 1.43408 1.43408 2.50488 0.762939 3.82227Z" transform="translate(296 482)" fill="white" stroke="white" stroke-width="4"/>
</mask>
<g mask="url(#mask0)">
<path fill-rule="evenodd" clip-rule="evenodd" d="M0 122L200 0H0V122Z" transform="translate(296 482)" fill="#D8D8D8" fill-opacity="0.3"/>
<path d="M0.72 8H1.392V5.632H2.752C3.784 5.632 4.344 5.032 4.344 4.024C4.344 3.016 3.784 2.416 2.752 2.416H0.72V8ZM1.392 5.048V3H2.736C3.296 3 3.632 3.296 3.632 3.816V4.232C3.632 4.752 3.296 5.048 2.736 5.048H1.392ZM8.75688 8H9.19688V7.44H8.62087V5.168C8.62087 4.296 8.00487 3.776 7.03688 3.776C6.19687 3.776 5.66887 4.176 5.46087 4.608L5.89287 4.928C6.10888 4.552 6.44488 4.32 6.99688 4.32C7.62087 4.32 7.98088 4.632 7.98088 5.232V5.64H7.10087C5.86088 5.64 5.32487 6.08 5.32487 6.84C5.32487 7.616 5.87688 8.096 6.74088 8.096C7.41287 8.096 7.80487 7.8 7.98088 7.328H8.02087C8.06888 7.712 8.26087 8 8.75688 8ZM6.85287 7.56C6.32487 7.56 5.99688 7.336 5.99688 6.912V6.744C5.99688 6.344 6.34088 6.12 7.10087 6.12H7.98088V6.8C7.98088 7.224 7.50887 7.56 6.85287 7.56ZM10.2097 7.456V8H13.6578V7.456H12.0577V5.192C12.0577 4.8 12.4897 4.512 13.2097 4.512H14.0658V3.872H13.3377C12.6497 3.872 12.2578 4.216 12.0977 4.608H12.0577V3.872H10.2097V4.416H11.4178V7.456H10.2097ZM16.9346 8.096C17.7586 8.096 18.2786 7.688 18.5186 7.136L18.0626 6.824C17.8546 7.272 17.4946 7.544 16.9426 7.544C16.1666 7.544 15.7506 7.016 15.7506 6.288V5.584C15.7506 4.856 16.1746 4.328 16.9266 4.328C17.4386 4.328 17.7906 4.576 17.9426 5L18.4546 4.728C18.2226 4.168 17.7266 3.776 16.9266 3.776C15.7586 3.776 15.0626 4.624 15.0626 5.936C15.0626 7.24 15.7506 8.096 16.9346 8.096ZM21.6595 8.096C22.4755 8.096 23.0675 7.696 23.3155 7.144L22.8435 6.824C22.6275 7.272 22.2115 7.544 21.6595 7.544C20.8835 7.544 20.3955 7.016 20.3955 6.288V6.096H23.4515V5.792C23.4515 4.624 22.7315 3.776 21.6195 3.776C20.4995 3.776 19.7235 4.624 19.7235 5.944C19.7235 7.248 20.4755 8.096 21.6595 8.096ZM21.6195 4.304C22.2995 4.304 22.7635 4.8 22.7635 5.528V5.616H20.3955V5.56C20.3955 4.84 20.9155 4.304 21.6195 4.304ZM24.6244 7.456V8H28.1444V7.456H26.7044V2.08H24.6244V2.624H26.0644V7.456H24.6244ZM30.9332 5.264L32.6212 8H33.4053L31.3893 4.768L33.3492 2.416H32.5412L30.8932 4.4L30.1573 5.328H30.1332V2.416H29.4613V8H30.1332V6.208L30.9332 5.264ZM36.0501 8.096C36.8661 8.096 37.4581 7.696 37.7061 7.144L37.2341 6.824C37.0181 7.272 36.6021 7.544 36.0501 7.544C35.2741 7.544 34.7861 7.016 34.7861 6.288V6.096H37.8421V5.792C37.8421 4.624 37.1221 3.776 36.0101 3.776C34.8901 3.776 34.1141 4.624 34.1141 5.944C34.1141 7.248 34.8661 8.096 36.0501 8.096ZM36.0101 4.304C36.6901 4.304 37.1541 4.8 37.1541 5.528V5.616H34.7861V5.56C34.7861 4.84 35.3061 4.304 36.0101 4.304ZM42.111 3.872L41.415 5.6L40.799 7.168H40.767L40.151 5.6L39.455 3.872H38.799L40.463 7.92L39.999 9.056H39.039V9.6H39.647C40.271 9.6 40.511 9.376 40.703 8.904L42.751 3.872H42.111ZM45.5719 3.392C46.0919 3.392 46.4999 3 46.4999 2.472C46.4999 1.944 46.0919 1.552 45.5719 1.552C45.0519 1.552 44.6439 1.944 44.6439 2.472C44.6439 3 45.0519 3.392 45.5719 3.392ZM45.5719 3C45.2839 3 45.1079 2.84 45.1079 2.56V2.384C45.1079 2.104 45.2839 1.944 45.5719 1.944C45.8599 1.944 46.0359 2.104 46.0359 2.384V2.56C46.0359 2.84 45.8599 3 45.5719 3Z" transform="translate(306 495)" fill="black"/>
<path fill-rule="evenodd" clip-rule="evenodd" d="M0 11.2C0 7.27963 0 5.31945 0.762954 3.82207C1.43407 2.50493 2.50493 1.43407 3.82207 0.762954C5.31945 0 7.27963 0 11.2 0H122.8C126.72 0 128.681 0 130.178 0.762954C131.495 1.43407 132.566 2.50493 133.237 3.82207C134 5.31945 134 7.27963 134 11.2V21.8C134 25.7204 134 27.6806 133.237 29.1779C132.566 30.4951 131.495 31.5659 130.178 32.237C128.681 33 126.72 33 122.8 33H11.2C7.27963 33 5.31945 33 3.82207 32.237C2.50493 31.5659 1.43407 30.4951 0.762954 29.1779C0 27.6806 0 25.7204 0 21.8V11.2Z" transform="translate(322 524)" fill="white" stroke="black" stroke-width="4"/>
</g>
<path fill-rule="evenodd" clip-rule="evenodd" d="M1.92188 0.179688C2.06771 0.382814 2.22786 0.614582 2.40234 0.875C2.57682 1.13542 2.76562 1.42448 2.96875 1.74219C3.02083 1.82552 3.04297 1.91927 3.03516 2.02344C3.02734 2.1276 2.98958 2.23958 2.92188 2.35938C2.89583 2.41146 2.85156 2.49479 2.78906 2.60938C2.72656 2.72396 2.64583 2.87239 2.54688 3.05469C2.65625 3.21094 2.79557 3.38542 2.96484 3.57812C3.13412 3.77083 3.33073 3.97917 3.55469 4.20312C3.78386 4.43229 3.99349 4.63151 4.18359 4.80078C4.3737 4.97005 4.54427 5.10937 4.69531 5.21875C4.8724 5.11458 5.01953 5.02995 5.13672 4.96484C5.25391 4.89974 5.33854 4.85417 5.39062 4.82812C5.45313 4.79167 5.51693 4.76432 5.58203 4.74609C5.64714 4.72786 5.70833 4.71875 5.76562 4.71875C5.8125 4.71875 5.85547 4.72396 5.89453 4.73438C5.93359 4.74479 5.97135 4.76042 6.00781 4.78125C6.24219 4.92188 6.48958 5.07943 6.75 5.25391C7.01042 5.42839 7.28906 5.61979 7.58594 5.82812C7.63802 5.86458 7.67969 5.91146 7.71094 5.96875C7.74219 6.02604 7.76302 6.08854 7.77344 6.15625C7.77865 6.22917 7.77083 6.30339 7.75 6.37891C7.72917 6.45443 7.69271 6.53125 7.64062 6.60938C7.61979 6.64583 7.58854 6.6901 7.54688 6.74219C7.50521 6.79427 7.45573 6.85417 7.39844 6.92188C7.34635 6.98958 7.27865 7.06641 7.19531 7.15234C7.11198 7.23828 7.01302 7.33333 6.89844 7.4375C6.78906 7.54167 6.6888 7.61979 6.59766 7.67188C6.50651 7.72396 6.42708 7.75 6.35938 7.75H6.34375C6.07292 7.73958 5.78906 7.68099 5.49219 7.57422C5.19531 7.46745 4.88281 7.31511 4.55469 7.11719C4.22656 6.91927 3.88281 6.67188 3.52344 6.375C3.16406 6.07812 2.78906 5.73698 2.39844 5.35156C2.00781 4.96094 1.66537 4.58594 1.37109 4.22656C1.07682 3.86719 0.829428 3.52344 0.628906 3.19531C0.428384 2.86719 0.276042 2.55339 0.171875 2.25391C0.0677078 1.95443 0.0104167 1.67188 0 1.40625C0 1.33333 0.0260414 1.2513 0.078125 1.16016C0.130209 1.06901 0.208333 0.966146 0.3125 0.851562C0.416667 0.736979 0.510416 0.639323 0.59375 0.558594C0.677084 0.477864 0.752604 0.411459 0.820312 0.359375C0.882813 0.3125 0.942708 0.268229 1 0.226562C1.05729 0.184896 1.10677 0.148438 1.14844 0.117188C1.20573 0.0755206 1.26562 0.045573 1.32812 0.0273438C1.39063 0.00911449 1.45833 0 1.53125 0C1.61458 0 1.6888 0.0143228 1.75391 0.0429688C1.81901 0.0716147 1.875 0.117187 1.92188 0.179688ZM1.42188 0.5C1.31771 0.572917 1.21615 0.652343 1.11719 0.738281C1.01823 0.824219 0.921875 0.914062 0.828125 1.00781C0.734375 1.10156 0.660157 1.18229 0.605469 1.25C0.550781 1.31771 0.515625 1.375 0.5 1.42188C0.510417 1.65625 0.565104 1.90625 0.664062 2.17188C0.763021 2.4375 0.906249 2.72005 1.09375 3.01953C1.28125 3.31901 1.51302 3.63411 1.78906 3.96484C2.06511 4.29557 2.38541 4.64323 2.75 5.00781C3.11459 5.3724 3.46224 5.69271 3.79297 5.96875C4.1237 6.24479 4.4388 6.47656 4.73828 6.66406C5.03776 6.85156 5.32161 6.99479 5.58984 7.09375C5.85807 7.19271 6.10937 7.25 6.34375 7.26562C6.38021 7.25 6.43229 7.21354 6.5 7.15625C6.56771 7.09896 6.64844 7.02344 6.74219 6.92969C6.83594 6.83594 6.92448 6.73828 7.00781 6.63672C7.09115 6.53516 7.17187 6.43229 7.25 6.32812C7.26563 6.30729 7.27604 6.28776 7.28125 6.26953C7.28646 6.2513 7.28646 6.23438 7.28125 6.21875C6.97917 6.00521 6.70182 5.81511 6.44922 5.64844C6.19661 5.48177 5.96875 5.33333 5.76562 5.20312C5.74479 5.20312 5.72135 5.20703 5.69531 5.21484C5.66927 5.22266 5.64063 5.23437 5.60938 5.25C5.56771 5.27604 5.48958 5.32031 5.375 5.38281C5.26042 5.44531 5.11198 5.52604 4.92969 5.625L4.67188 5.78125L4.41406 5.60938C4.24739 5.49479 4.0638 5.34766 3.86328 5.16797C3.66276 4.98828 3.44271 4.77865 3.20312 4.53906C2.96875 4.29948 2.76302 4.07943 2.58594 3.87891C2.40885 3.67838 2.26302 3.49479 2.14844 3.32812L1.96094 3.08594L2.11719 2.8125C2.21615 2.63021 2.29687 2.48307 2.35938 2.37109C2.42188 2.25911 2.46615 2.17969 2.49219 2.13281C2.50781 2.10156 2.51953 2.07292 2.52734 2.04688C2.53516 2.02083 2.53906 1.9974 2.53906 1.97656C2.35677 1.6901 2.18359 1.42188 2.01953 1.17188C1.85547 0.921874 1.69792 0.687501 1.54688 0.46875H1.53125C1.51042 0.46875 1.49089 0.471354 1.47266 0.476562C1.45443 0.481771 1.4375 0.489583 1.42188 0.5Z" transform="translate(309.125 580.609)" fill="black"/>
<path fill-rule="evenodd" clip-rule="evenodd" d="M7.98633 1.62612C7.99154 1.66257 7.98633 1.70033 7.9707 1.7394C7.95508 1.77846 7.93164 1.81101 7.90039 1.83705L6.61133 2.91518L7.71289 3.79018C7.74414 3.81101 7.76758 3.83966 7.7832 3.87612C7.79883 3.91257 7.80664 3.95164 7.80664 3.9933C7.80664 4.03497 7.79622 4.07273 7.77539 4.10659C7.75456 4.14044 7.72852 4.16778 7.69727 4.18862L6.72852 4.83705V6.06362C6.72852 6.10528 6.7181 6.14435 6.69727 6.1808C6.67643 6.21726 6.64779 6.24851 6.61133 6.27455L4.12695 7.69643C4.10612 7.71205 4.08398 7.72247 4.06055 7.72768C4.03711 7.73289 4.01497 7.73549 3.99414 7.73549C3.97331 7.73549 3.95117 7.73289 3.92773 7.72768C3.9043 7.72247 3.88216 7.71205 3.86133 7.69643L1.3457 6.27455C1.30924 6.24851 1.2806 6.21726 1.25977 6.1808C1.23893 6.14435 1.22852 6.10528 1.22852 6.06362V5.0558C1.22852 5.01935 1.23633 4.98549 1.25195 4.95424C1.26758 4.92299 1.28841 4.89695 1.31445 4.87612L0.291016 4.18862C0.254557 4.16778 0.227214 4.14044 0.208984 4.10659C0.190755 4.07273 0.179036 4.03497 0.173828 3.9933C0.173828 3.95164 0.181641 3.91257 0.197266 3.87612C0.212891 3.83966 0.238932 3.81101 0.275391 3.79018L1.37695 2.91518L0.0878906 1.83705C0.0566405 1.81101 0.0332032 1.77846 0.0175781 1.7394C0.00195307 1.70033 -0.00325521 1.66257 0.00195315 1.62612C0.00195315 1.58445 0.0123697 1.54669 0.0332031 1.51283C0.0540366 1.47898 0.0826821 1.45164 0.119141 1.4308L2.3457 0.0401786C2.38737 0.00892843 2.43555 -0.00409227 2.49023 0.00111609C2.54492 0.00632445 2.5931 0.0245534 2.63477 0.0558036L3.99414 1.15737L5.35352 0.0558036C5.39518 0.0245534 5.44336 0.00632445 5.49805 0.00111609C5.55273 -0.00409227 5.60091 0.00892843 5.64258 0.0401786L7.86914 1.4308C7.9056 1.45164 7.93424 1.47898 7.95508 1.51283C7.97591 1.54669 7.98633 1.58445 7.98633 1.62612ZM5.75195 2.92285L3.99414 1.77441L2.23633 2.92285L3.99414 4.0166L5.75195 2.92285ZM0.673828 1.67285L1.79102 2.61035L3.57227 1.4541L2.45508 0.555664L0.673828 1.67285ZM1.79102 3.22754L0.853516 3.96973L2.55664 5.10254L3.55664 4.33691L1.79102 3.22754ZM1.72852 5.14941V5.92285L3.72852 7.04004V4.83691L2.7207 5.61035C2.67383 5.6416 2.62435 5.65723 2.57227 5.65723C2.52018 5.65723 2.4707 5.64421 2.42383 5.61816L1.72852 5.14941ZM6.22852 5.92285V5.16504L5.55664 5.61816C5.53581 5.62858 5.51367 5.6377 5.49023 5.64551C5.4668 5.65332 5.44206 5.65723 5.41602 5.65723C5.38997 5.65723 5.36393 5.65332 5.33789 5.64551C5.31185 5.6377 5.28841 5.62598 5.26758 5.61035L4.22852 4.81348V7.05566L6.22852 5.92285ZM7.12695 3.96191L6.19727 3.22754L4.43164 4.33691L5.42383 5.10254L7.12695 3.96191ZM6.19727 2.61035L7.31445 1.67285L5.5332 0.555664L4.41602 1.4541L6.19727 2.61035Z" transform="translate(330.006 580.632)" fill="black"/>
<path fill-rule="evenodd" clip-rule="evenodd" d="M1.75 0C1.81771 0 1.8763 0.0247393 1.92578 0.0742188C1.97526 0.123698 2 0.182291 2 0.25C2 0.317709 1.97526 0.376302 1.92578 0.425781C1.8763 0.475261 1.81771 0.5 1.75 0.5H0.5V1.75C0.5 1.81771 0.475261 1.8763 0.425781 1.92578C0.376302 1.97526 0.317709 2 0.25 2C0.182291 2 0.123698 1.97526 0.0742188 1.92578C0.0247393 1.8763 0 1.81771 0 1.75V0.25C0 0.182291 0.0247393 0.123698 0.0742188 0.0742188C0.123698 0.0247393 0.182291 0 0.25 0H1.75ZM7.75 4.25C7.81771 4.25 7.8763 4.27474 7.92578 4.32422C7.97526 4.3737 8 4.43229 8 4.5V6C8 6.06771 7.97526 6.1263 7.92578 6.17578C7.8763 6.22526 7.81771 6.25 7.75 6.25H6.25C6.18229 6.25 6.1237 6.22526 6.07422 6.17578C6.02474 6.1263 6 6.06771 6 6C6 5.93229 6.02474 5.8737 6.07422 5.82422C6.1237 5.77474 6.18229 5.75 6.25 5.75H7.5V4.5C7.5 4.43229 7.52474 4.3737 7.57422 4.32422C7.6237 4.27474 7.68229 4.25 7.75 4.25ZM1.75 5.75C1.81771 5.75 1.8763 5.77474 1.92578 5.82422C1.97526 5.8737 2 5.93229 2 6C2 6.06771 1.97526 6.1263 1.92578 6.17578C1.8763 6.22526 1.81771 6.25 1.75 6.25H0.25C0.182291 6.25 0.123698 6.22526 0.0742188 6.17578C0.0247393 6.1263 0 6.06771 0 6V4.5C0 4.43229 0.0247393 4.3737 0.0742188 4.32422C0.123698 4.27474 0.182291 4.25 0.25 4.25C0.317709 4.25 0.376302 4.27474 0.425781 4.32422C0.475261 4.3737 0.5 4.43229 0.5 4.5V5.75H1.75ZM7.75 0C7.81771 0 7.8763 0.0247393 7.92578 0.0742188C7.97526 0.123698 8 0.182291 8 0.25V1.75C8 1.81771 7.97526 1.8763 7.92578 1.92578C7.8763 1.97526 7.81771 2 7.75 2C7.68229 2 7.6237 1.97526 7.57422 1.92578C7.52474 1.8763 7.5 1.81771 7.5 1.75V0.5H6.25C6.18229 0.5 6.1237 0.475261 6.07422 0.425781C6.02474 0.376302 6 0.317709 6 0.25C6 0.182291 6.02474 0.123698 6.07422 0.0742188C6.1237 0.0247393 6.18229 0 6.25 0H7.75Z" transform="translate(350 581.375)" fill="black"/>
<path d="M1.5 0.5V4.5" transform="translate(350 582)" stroke="black" stroke-width="0.5" stroke-linecap="round"/>
<path d="M1.5 0.5V4.5" transform="translate(351 582)" stroke="black" stroke-width="0.5" stroke-linecap="round"/>
<path d="M1.5 0.5V4.5" transform="translate(352 582)" stroke="black" stroke-width="0.5" stroke-linecap="round"/>
<path d="M1.5 0.5V4.5" transform="translate(353 582)" stroke="black" stroke-width="0.5" stroke-linecap="round"/>
<path d="M1.5 0.5V4.5" transform="translate(354 582)" stroke="black" stroke-width="0.5" stroke-linecap="round"/>
<path d="M1.5 0.5V4.5" transform="translate(355 582)" stroke="black" stroke-width="0.5" stroke-linecap="round"/>
<path fill-rule="evenodd" clip-rule="evenodd" d="M5.26471 0.583496L0.689575 2.51077L2.6626 3.11126L3.34315 5.07856L5.26471 0.583496ZM5.73943 0C5.79281 0 5.82712 0.0209691 5.84237 0.062908C5.85763 0.104847 5.85 0.162036 5.8195 0.234475L3.48618 5.69032C3.46331 5.7437 3.43662 5.78277 3.40612 5.80756C3.37562 5.83234 3.34321 5.84473 3.3089 5.84473C3.2784 5.84473 3.24694 5.83424 3.21453 5.81328C3.18213 5.79231 3.15449 5.76085 3.13161 5.71891L2.38815 3.40847L0.12918 2.70505C0.0376771 2.64786 -0.00521432 2.584 0.000504619 2.51346C0.00622356 2.44293 0.0586464 2.38669 0.157775 2.34475L5.61362 0.0285946C5.64031 0.0171567 5.66413 0.00953154 5.6851 0.00571891C5.70607 0.00190629 5.72418 0 5.73943 0Z" transform="translate(369 582)" fill="black"/>
<path d="M10.26 31H7.74V12.25H0.75V10.06H17.25V12.25H10.26V31ZM26.9883 31.36C25.5483 31.36 24.2983 31.03 23.2383 30.37C22.1983 29.71 21.3883 28.77 20.8083 27.55C20.2483 26.33 19.9683 24.9 19.9683 23.26C19.9683 21.62 20.2483 20.19 20.8083 18.97C21.3883 17.75 22.1983 16.81 23.2383 16.15C24.2983 15.49 25.5483 15.16 26.9883 15.16C28.4283 15.16 29.6683 15.49 30.7083 16.15C31.7683 16.81 32.5783 17.75 33.1383 18.97C33.7183 20.19 34.0083 21.62 34.0083 23.26C34.0083 24.9 33.7183 26.33 33.1383 27.55C32.5783 28.77 31.7683 29.71 30.7083 30.37C29.6683 31.03 28.4283 31.36 26.9883 31.36ZM26.9883 29.29C28.3683 29.29 29.4583 28.88 30.2583 28.06C31.0583 27.22 31.4583 25.99 31.4583 24.37V22.15C31.4583 20.53 31.0583 19.31 30.2583 18.49C29.4583 17.65 28.3683 17.23 26.9883 17.23C25.6083 17.23 24.5183 17.65 23.7183 18.49C22.9183 19.31 22.5183 20.53 22.5183 22.15V24.37C22.5183 25.99 22.9183 27.22 23.7183 28.06C24.5183 28.88 25.6083 29.29 26.9883 29.29ZM48.5166 28.48C47.6966 30.4 46.2266 31.36 44.1066 31.36C42.4666 31.36 41.1566 30.84 40.1766 29.8C39.2166 28.76 38.7366 27.31 38.7366 25.45V15.52H41.1366V25.03C41.1366 26.43 41.4466 27.48 42.0666 28.18C42.6866 28.88 43.5966 29.23 44.7966 29.23C45.8566 29.23 46.7566 28.98 47.4966 28.48C48.2566 27.96 48.6366 27.22 48.6366 26.26V15.52H51.0366V31H48.6366V28.48H48.5166ZM63.5048 31.36C61.3048 31.36 59.5848 30.63 58.3448 29.17C57.1048 27.71 56.4848 25.74 56.4848 23.26C56.4848 20.78 57.1048 18.81 58.3448 17.35C59.5848 15.89 61.2948 15.16 63.4748 15.16C64.9148 15.16 66.1148 15.48 67.0748 16.12C68.0348 16.76 68.7448 17.63 69.2048 18.73L67.2848 19.75C67.0048 18.95 66.5348 18.33 65.8748 17.89C65.2148 17.45 64.4148 17.23 63.4748 17.23C62.0948 17.23 61.0148 17.67 60.2348 18.55C59.4548 19.41 59.0648 20.54 59.0648 21.94V24.58C59.0648 25.98 59.4548 27.12 60.2348 28C61.0148 28.86 62.1148 29.29 63.5348 29.29C65.4948 29.29 66.8948 28.39 67.7348 26.59L69.4448 27.76C68.9648 28.86 68.2248 29.74 67.2248 30.4C66.2248 31.04 64.9848 31.36 63.5048 31.36ZM77.2931 8.8V18.04H77.4131C78.2331 16.12 79.7031 15.16 81.8231 15.16C83.4631 15.16 84.7631 15.68 85.7231 16.72C86.7031 17.76 87.1931 19.21 87.1931 21.07V31H84.7931V21.49C84.7931 20.09 84.4831 19.04 83.8631 18.34C83.2431 17.64 82.3331 17.29 81.1331 17.29C80.0731 17.29 79.1631 17.55 78.4031 18.07C77.6631 18.57 77.2931 19.3 77.2931 20.26V31H74.8931V8.8H77.2931ZM116.87 31.36C115.09 31.36 113.59 31.04 112.37 30.4C111.15 29.74 110.12 28.83 109.28 27.67L111.11 26.17C111.93 27.21 112.8 27.98 113.72 28.48C114.64 28.96 115.72 29.2 116.96 29.2C118.46 29.2 119.61 28.85 120.41 28.15C121.23 27.45 121.64 26.47 121.64 25.21C121.64 24.17 121.34 23.37 120.74 22.81C120.14 22.25 119.14 21.85 117.74 21.61L115.4 21.22C113.48 20.9 112.1 20.24 111.26 19.24C110.42 18.22 110 16.98 110 15.52C110 13.64 110.62 12.2 111.86 11.2C113.1 10.2 114.81 9.7 116.99 9.7C120.17 9.7 122.51 10.77 124.01 12.91L122.24 14.44C121.6 13.6 120.86 12.96 120.02 12.52C119.2 12.08 118.18 11.86 116.96 11.86C115.54 11.86 114.45 12.17 113.69 12.79C112.93 13.39 112.55 14.28 112.55 15.46C112.55 16.44 112.84 17.22 113.42 17.8C114.02 18.38 115.04 18.79 116.48 19.03L118.73 19.42C122.37 20.06 124.19 21.97 124.19 25.15C124.19 27.09 123.55 28.61 122.27 29.71C120.99 30.81 119.19 31.36 116.87 31.36ZM135.188 31.36C133.728 31.36 132.448 31.03 131.348 30.37C130.248 29.71 129.398 28.77 128.798 27.55C128.218 26.33 127.928 24.91 127.928 23.29C127.928 21.67 128.228 20.25 128.828 19.03C129.428 17.79 130.258 16.84 131.318 16.18C132.398 15.5 133.638 15.16 135.038 15.16C136.398 15.16 137.598 15.49 138.638 16.15C139.678 16.79 140.478 17.68 141.038 18.82C141.618 19.96 141.908 21.26 141.908 22.72V23.86H130.448V24.58C130.448 25.96 130.878 27.09 131.738 27.97C132.598 28.85 133.748 29.29 135.188 29.29C136.208 29.29 137.098 29.06 137.858 28.6C138.618 28.12 139.208 27.45 139.628 26.59L141.398 27.79C140.918 28.87 140.128 29.74 139.028 30.4C137.948 31.04 136.668 31.36 135.188 31.36ZM135.038 17.14C134.178 17.14 133.398 17.35 132.698 17.77C131.998 18.17 131.448 18.73 131.048 19.45C130.648 20.17 130.448 20.97 130.448 21.85V22.06H139.328V21.73C139.328 20.37 138.928 19.27 138.128 18.43C137.348 17.57 136.318 17.14 135.038 17.14ZM146.846 15.52H149.246V18.04H149.366C150.186 16.12 151.656 15.16 153.776 15.16C155.416 15.16 156.716 15.68 157.676 16.72C158.656 17.76 159.146 19.21 159.146 21.07V31H156.746V21.49C156.746 20.09 156.436 19.04 155.816 18.34C155.196 17.64 154.286 17.29 153.086 17.29C152.026 17.29 151.116 17.55 150.356 18.07C149.616 18.57 149.246 19.3 149.246 20.26V31H146.846V15.52ZM171.075 31.36C168.075 31.36 165.685 30.35 163.905 28.33L165.525 26.92C166.285 27.74 167.115 28.35 168.015 28.75C168.915 29.15 169.955 29.35 171.135 29.35C172.395 29.35 173.395 29.13 174.135 28.69C174.875 28.23 175.245 27.56 175.245 26.68C175.245 25.94 175.005 25.41 174.525 25.09C174.045 24.77 173.375 24.55 172.515 24.43L170.085 24.07C169.105 23.93 168.245 23.74 167.505 23.5C166.765 23.24 166.125 22.82 165.585 22.24C165.045 21.64 164.775 20.82 164.775 19.78C164.775 18.28 165.345 17.14 166.485 16.36C167.625 15.56 169.135 15.16 171.015 15.16C173.655 15.16 175.755 15.99 177.315 17.65L175.755 19.12C174.675 17.82 173.065 17.17 170.925 17.17C169.705 17.17 168.765 17.38 168.105 17.8C167.465 18.22 167.145 18.83 167.145 19.63C167.145 20.37 167.385 20.9 167.865 21.22C168.365 21.54 169.035 21.76 169.875 21.88L172.305 22.24C173.305 22.38 174.175 22.58 174.915 22.84C175.655 23.08 176.285 23.5 176.805 24.1C177.345 24.68 177.615 25.49 177.615 26.53C177.615 28.05 177.025 29.24 175.845 30.1C174.665 30.94 173.075 31.36 171.075 31.36ZM188.883 31.36C187.443 31.36 186.193 31.03 185.133 30.37C184.093 29.71 183.283 28.77 182.703 27.55C182.143 26.33 181.863 24.9 181.863 23.26C181.863 21.62 182.143 20.19 182.703 18.97C183.283 17.75 184.093 16.81 185.133 16.15C186.193 15.49 187.443 15.16 188.883 15.16C190.323 15.16 191.563 15.49 192.603 16.15C193.663 16.81 194.473 17.75 195.033 18.97C195.613 20.19 195.903 21.62 195.903 23.26C195.903 24.9 195.613 26.33 195.033 27.55C194.473 28.77 193.663 29.71 192.603 30.37C191.563 31.03 190.323 31.36 188.883 31.36ZM188.883 29.29C190.263 29.29 191.353 28.88 192.153 28.06C192.953 27.22 193.353 25.99 193.353 24.37V22.15C193.353 20.53 192.953 19.31 192.153 18.49C191.353 17.65 190.263 17.23 188.883 17.23C187.503 17.23 186.413 17.65 185.613 18.49C184.813 19.31 184.413 20.53 184.413 22.15V24.37C184.413 25.99 184.813 27.22 185.613 28.06C186.413 28.88 187.503 29.29 188.883 29.29ZM204.711 28.96V17.56H200.181V15.52H207.111V18.28H207.261C207.581 17.48 208.131 16.82 208.911 16.3C209.691 15.78 210.691 15.52 211.911 15.52H214.641V17.92H211.431C210.111 17.92 209.061 18.16 208.281 18.64C207.501 19.1 207.111 19.71 207.111 20.47V28.96H213.111V31H200.181V28.96H204.711ZM225.129 31.36C223.669 31.36 222.389 31.03 221.289 30.37C220.189 29.71 219.339 28.77 218.739 27.55C218.159 26.33 217.869 24.91 217.869 23.29C217.869 21.67 218.169 20.25 218.769 19.03C219.369 17.79 220.199 16.84 221.259 16.18C222.339 15.5 223.579 15.16 224.979 15.16C226.339 15.16 227.539 15.49 228.579 16.15C229.619 16.79 230.419 17.68 230.979 18.82C231.559 19.96 231.849 21.26 231.849 22.72V23.86H220.389V24.58C220.389 25.96 220.819 27.09 221.679 27.97C222.539 28.85 223.689 29.29 225.129 29.29C226.149 29.29 227.039 29.06 227.799 28.6C228.559 28.12 229.149 27.45 229.569 26.59L231.339 27.79C230.859 28.87 230.069 29.74 228.969 30.4C227.889 31.04 226.609 31.36 225.129 31.36ZM224.979 17.14C224.119 17.14 223.339 17.35 222.639 17.77C221.939 18.17 221.389 18.73 220.989 19.45C220.589 20.17 220.389 20.97 220.389 21.85V22.06H229.269V21.73C229.269 20.37 228.869 19.27 228.069 18.43C227.289 17.57 226.259 17.14 224.979 17.14ZM236.788 15.52H239.188V18.04H239.308C240.128 16.12 241.598 15.16 243.718 15.16C245.358 15.16 246.658 15.68 247.618 16.72C248.598 17.76 249.088 19.21 249.088 21.07V31H246.688V21.49C246.688 20.09 246.378 19.04 245.758 18.34C245.138 17.64 244.228 17.29 243.028 17.29C241.968 17.29 241.058 17.55 240.298 18.07C239.558 18.57 239.188 19.3 239.188 20.26V31H236.788V15.52Z" transform="translate(972 322)" fill="white"/>
<path d="M0 2H102.03" transform="translate(1265.2 427.82) rotate(-150)" stroke="#C5C4C0" stroke-width="7" stroke-linecap="square"/>
<path d="M0 22.9692H23.7688V0" transform="translate(1242.03 411.854) rotate(-15)" stroke="#C5C4C0" stroke-width="7" stroke-linecap="square"/>
<path d="M5.22 31V22.06H8.55L13.65 31H16.47L11.13 21.94C14.46 21.61 16.29 19.45 16.29 16.09C16.29 12.31 14.19 10.06 10.32 10.06H2.7V31H5.22ZM10.26 19.93H5.22V12.25H10.26C12.36 12.25 13.62 13.36 13.62 15.31V16.87C13.62 18.82 12.36 19.93 10.26 19.93ZM20.6883 31H23.2083V21.49H32.9883V19.3H23.2083V12.25H33.8883V10.06H20.6883V31ZM38.4966 31H51.4566V28.99H46.2366V12.07H51.4566V10.06H38.4966V12.07H43.7166V28.99H38.4966V31ZM56.8148 10.06V31H62.6648C67.7648 31 70.2848 27.4 70.2848 20.53C70.2848 13.66 67.7648 10.06 62.6648 10.06H56.8148ZM62.5448 28.81H59.3348V12.25H62.5448C65.8748 12.25 67.6148 14.71 67.6148 18.91V22.15C67.6148 26.35 65.8748 28.81 62.5448 28.81ZM96.4514 31.36C99.1514 31.36 100.921 29.98 101.491 27.91H101.641L104.251 31H107.101L103.441 26.68C104.131 24.82 104.251 23.5 104.521 21.58H106.771V19.57H102.541C102.451 21.49 102.421 23.62 102.151 25.18H102.001L99.8114 22.48L97.1114 19.15C95.5814 17.23 94.9814 16.18 94.9814 14.92V14.68C94.9814 12.97 96.1214 11.74 97.9214 11.74C99.4814 11.74 100.531 12.67 101.041 13.9L103.021 12.88C102.451 11.35 100.711 9.7 98.0414 9.7C95.0714 9.7 92.6114 11.74 92.6114 14.77C92.6114 16.54 93.4514 18.04 94.5614 19.48C91.5614 21.01 90.6914 23.47 90.6914 25.57C90.6914 28.78 92.7914 31.36 96.4514 31.36ZM97.0814 29.23C94.7714 29.23 93.1814 27.85 93.1814 25.69V25.24C93.1814 23.53 93.8714 22.03 95.7014 20.89L100.921 27.19C100.171 28.48 98.7914 29.23 97.0814 29.23ZM128.558 10.06V31H136.568C139.808 31 142.208 28.36 142.208 24.97C142.208 22.06 140.498 20.59 138.158 20.05V19.96C140.078 19.36 141.428 17.95 141.428 15.46C141.428 12.19 139.238 10.06 135.668 10.06H128.558ZM135.818 28.81H131.078V21.22H135.818C138.128 21.22 139.538 22.3 139.538 24.4V25.63C139.538 27.76 138.128 28.81 135.818 28.81ZM135.398 19.15H131.078V12.25H135.398C137.498 12.25 138.788 13.21 138.788 15.13V16.3C138.788 18.22 137.498 19.15 135.398 19.15ZM158.756 31H160.406V28.9H158.246V20.38C158.246 17.11 155.936 15.16 152.306 15.16C149.156 15.16 147.176 16.66 146.396 18.28L148.016 19.48C148.826 18.07 150.086 17.2 152.156 17.2C154.496 17.2 155.846 18.37 155.846 20.62V22.15H152.546C147.896 22.15 145.886 23.8 145.886 26.65C145.886 29.56 147.956 31.36 151.196 31.36C153.716 31.36 155.186 30.25 155.846 28.48H155.996C156.176 29.92 156.896 31 158.756 31ZM151.616 29.35C149.636 29.35 148.406 28.51 148.406 26.92V26.29C148.406 24.79 149.696 23.95 152.546 23.95H155.846V26.5C155.846 28.09 154.076 29.35 151.616 29.35ZM164.205 28.96V31H177.135V28.96H171.135V20.47C171.135 19 172.755 17.92 175.455 17.92H178.665V15.52H175.935C173.355 15.52 171.885 16.81 171.285 18.28H171.135V15.52H164.205V17.56H168.735V28.96H164.205ZM189.423 31.36C192.513 31.36 194.463 29.83 195.363 27.76L193.653 26.59C192.873 28.27 191.523 29.29 189.453 29.29C186.543 29.29 184.983 27.31 184.983 24.58V21.94C184.983 19.21 186.573 17.23 189.393 17.23C191.313 17.23 192.633 18.16 193.203 19.75L195.123 18.73C194.253 16.63 192.393 15.16 189.393 15.16C185.013 15.16 182.403 18.34 182.403 23.26C182.403 28.15 184.983 31.36 189.423 31.36ZM206.871 31.36C211.221 31.36 213.891 28.18 213.891 23.26C213.891 18.34 211.221 15.16 206.871 15.16C202.521 15.16 199.851 18.34 199.851 23.26C199.851 28.18 202.521 31.36 206.871 31.36ZM206.871 29.29C204.201 29.29 202.401 27.7 202.401 24.37V22.15C202.401 18.82 204.201 17.23 206.871 17.23C209.541 17.23 211.341 18.82 211.341 22.15V24.37C211.341 27.7 209.541 29.29 206.871 29.29ZM228.609 28.48V31H231.009V8.8H228.609V18.04H228.489C227.499 16.15 225.879 15.16 223.719 15.16C219.939 15.16 217.659 18.19 217.659 23.26C217.659 28.33 219.939 31.36 223.719 31.36C225.879 31.36 227.499 30.37 228.489 28.48H228.609ZM224.649 29.23C221.859 29.23 220.239 27.37 220.239 24.58V21.94C220.239 19.15 221.859 17.29 224.649 17.29C226.779 17.29 228.609 18.4 228.609 20.47V26.05C228.609 28.12 226.779 29.23 224.649 29.23ZM243.118 31.36C246.178 31.36 248.398 29.86 249.328 27.79L247.558 26.59C246.748 28.27 245.188 29.29 243.118 29.29C240.208 29.29 238.378 27.31 238.378 24.58V23.86H249.838V22.72C249.838 18.34 247.138 15.16 242.968 15.16C238.768 15.16 235.858 18.34 235.858 23.29C235.858 28.18 238.678 31.36 243.118 31.36ZM242.968 17.14C245.518 17.14 247.258 19 247.258 21.73V22.06H238.378V21.85C238.378 19.15 240.328 17.14 242.968 17.14ZM278.764 31.36C283.414 31.36 286.084 29.02 286.084 25.15C286.084 22.42 284.734 20.14 280.624 19.42L278.374 19.03C275.404 18.52 274.444 17.32 274.444 15.46C274.444 13.09 276.034 11.86 278.854 11.86C281.464 11.86 282.964 12.91 284.134 14.44L285.904 12.91C284.494 10.9 282.214 9.7 278.884 9.7C274.624 9.7 271.894 11.68 271.894 15.52C271.894 18.16 273.184 20.53 277.294 21.22L279.634 21.61C282.484 22.09 283.534 23.17 283.534 25.21C283.534 27.73 281.884 29.2 278.854 29.2C276.334 29.2 274.624 28.21 273.004 26.17L271.174 27.67C272.734 29.83 275.014 31.36 278.764 31.36ZM297.352 31.36C300.443 31.36 302.393 29.83 303.292 27.76L301.582 26.59C300.802 28.27 299.453 29.29 297.383 29.29C294.473 29.29 292.913 27.31 292.913 24.58V21.94C292.913 19.21 294.503 17.23 297.323 17.23C299.243 17.23 300.563 18.16 301.133 19.75L303.053 18.73C302.183 16.63 300.322 15.16 297.323 15.16C292.943 15.16 290.332 18.34 290.332 23.26C290.332 28.15 292.913 31.36 297.352 31.36ZM320.651 31H322.301V28.9H320.141V20.38C320.141 17.11 317.831 15.16 314.201 15.16C311.051 15.16 309.071 16.66 308.291 18.28L309.911 19.48C310.721 18.07 311.981 17.2 314.051 17.2C316.391 17.2 317.741 18.37 317.741 20.62V22.15H314.441C309.791 22.15 307.781 23.8 307.781 26.65C307.781 29.56 309.851 31.36 313.091 31.36C315.611 31.36 317.081 30.25 317.741 28.48H317.891C318.071 29.92 318.791 31 320.651 31ZM313.511 29.35C311.531 29.35 310.301 28.51 310.301 26.92V26.29C310.301 24.79 311.591 23.95 314.441 23.95H317.741V26.5C317.741 28.09 315.971 29.35 313.511 29.35ZM326.729 31H329.129V20.26C329.129 18.22 331.049 17.29 332.969 17.29C335.339 17.29 336.629 18.67 336.629 21.49V31H339.029V21.07C339.029 17.32 336.899 15.16 333.659 15.16C331.109 15.16 329.909 16.51 329.249 18.04H329.129V15.52H326.729V31ZM344.717 31H347.117V20.26C347.117 18.22 349.037 17.29 350.957 17.29C353.327 17.29 354.617 18.67 354.617 21.49V31H357.017V21.07C357.017 17.32 354.887 15.16 351.647 15.16C349.097 15.16 347.897 16.51 347.237 18.04H347.117V15.52H344.717V31ZM369.036 31.36C372.096 31.36 374.316 29.86 375.246 27.79L373.476 26.59C372.666 28.27 371.106 29.29 369.036 29.29C366.126 29.29 364.296 27.31 364.296 24.58V23.86H375.756V22.72C375.756 18.34 373.056 15.16 368.886 15.16C364.686 15.16 361.776 18.34 361.776 23.29C361.776 28.18 364.596 31.36 369.036 31.36ZM368.886 17.14C371.436 17.14 373.176 19 373.176 21.73V22.06H364.296V21.85C364.296 19.15 366.246 17.14 368.886 17.14ZM380.064 28.96V31H392.994V28.96H386.994V20.47C386.994 19 388.614 17.92 391.314 17.92H394.524V15.52H391.794C389.214 15.52 387.744 16.81 387.144 18.28H386.994V15.52H380.064V17.56H384.594V28.96H380.064Z" transform="translate(1319 825)" fill="black"/>
<path fill-rule="evenodd" clip-rule="evenodd" d="M7.90997 0.741935C8.51019 1.58065 9.16934 2.53763 9.88746 3.6129C10.6056 4.68818 11.3826 5.88171 12.2186 7.19355C12.433 7.53764 12.5241 7.92473 12.492 8.35484C12.4598 8.78495 12.3044 9.24731 12.0257 9.74194C11.9185 9.95699 11.7363 10.3011 11.4791 10.7742C11.2219 11.2473 10.8896 11.8602 10.4823 12.6129C10.9325 13.2581 11.5059 13.9785 12.2026 14.7742C12.8993 15.5699 13.7085 16.4301 14.6302 17.3548C15.5734 18.3011 16.4362 19.1237 17.2186 19.8226C18.0011 20.5215 18.7031 21.0968 19.3248 21.5484C20.0536 21.1183 20.6592 20.7688 21.1415 20.5C21.6238 20.2312 21.9721 20.043 22.1865 19.9355C22.4437 19.7849 22.7063 19.672 22.9743 19.5968C23.2422 19.5215 23.4941 19.4839 23.7299 19.4839C23.9228 19.4839 24.0997 19.5054 24.2605 19.5484C24.4212 19.5914 24.5766 19.6559 24.7267 19.7419C25.6913 20.3226 26.7095 20.9731 27.7814 21.6935C28.8532 22.414 30 23.2043 31.2219 24.0645C31.4362 24.2151 31.6077 24.4086 31.7363 24.6452C31.865 24.8817 31.9507 25.1398 31.9936 25.4194C32.015 25.7204 31.9829 26.0269 31.8971 26.3387C31.8114 26.6505 31.6613 26.9677 31.4469 27.2903C31.3612 27.4409 31.2326 27.6237 31.0611 27.8387C30.8896 28.0538 30.686 28.3011 30.4502 28.5806C30.2358 28.8602 29.9571 29.1774 29.6141 29.5323C29.2712 29.8871 28.8639 30.2796 28.3923 30.7097C27.9421 31.1398 27.5295 31.4624 27.1543 31.6774C26.7792 31.8925 26.4523 32 26.1736 32H26.1093C24.9946 31.957 23.8264 31.7151 22.6045 31.2742C21.3826 30.8333 20.0965 30.2043 18.746 29.3871C17.3955 28.5699 15.9807 27.5484 14.5016 26.3226C13.0225 25.0968 11.4791 23.6882 9.87138 22.0968C8.26366 20.4839 6.85424 18.9355 5.64309 17.4516C4.43193 15.9677 3.41372 14.5484 2.58842 13.1935C1.76313 11.8387 1.13612 10.543 0.707395 9.30645C0.278669 8.06989 0.0428727 6.90323 0 5.80645C0 5.50538 0.10718 5.16667 0.321543 4.79032C0.535907 4.41398 0.857447 3.98925 1.28617 3.51613C1.7149 3.04301 2.10075 2.63979 2.44373 2.30645C2.78671 1.97312 3.09753 1.69893 3.37621 1.48387C3.63344 1.29032 3.87996 1.10753 4.11576 0.935484C4.35156 0.76344 4.5552 0.612904 4.72669 0.483871C4.96249 0.311827 5.209 0.188172 5.46624 0.112903C5.72347 0.037634 6.00214 0 6.30225 0C6.64523 0 6.9507 0.0591392 7.21865 0.177419C7.4866 0.2957 7.71704 0.48387 7.90997 0.741935ZM5.85207 2.06458C5.42335 2.36566 5.00534 2.69361 4.59805 3.04845C4.19076 3.40329 3.7942 3.77425 3.40834 4.16135C3.02249 4.54845 2.71703 4.88178 2.49194 5.16135C2.26686 5.44092 2.12217 5.67748 2.05786 5.87103C2.10073 6.83878 2.32581 7.87103 2.7331 8.9678C3.14039 10.0646 3.72988 11.2312 4.50159 12.4678C5.2733 13.7044 6.2272 15.0054 7.36333 16.371C8.49945 17.7366 9.81777 19.1721 11.3183 20.6775C12.8189 22.1829 14.2497 23.5054 15.6109 24.6452C16.9721 25.785 18.269 26.742 19.5016 27.5162C20.7342 28.2904 21.9024 28.8818 23.0064 29.2904C24.1104 29.699 25.1447 29.9355 26.1093 30.0001C26.2594 29.9355 26.4737 29.785 26.7524 29.5485C27.0311 29.3119 27.3633 29.0001 27.7492 28.613C28.135 28.2259 28.4994 27.8226 28.8424 27.4033C29.1854 26.9839 29.5177 26.5592 29.8392 26.1291C29.9035 26.0431 29.9464 25.9624 29.9678 25.8872C29.9893 25.8119 29.9893 25.742 29.9678 25.6775C28.7245 24.7958 27.5831 24.0108 26.5434 23.3226C25.5037 22.6345 24.5659 22.0216 23.7299 21.4839C23.6441 21.4839 23.5477 21.5001 23.4405 21.5323C23.3333 21.5646 23.2154 21.613 23.0868 21.6775C22.9153 21.785 22.5938 21.9678 22.1222 22.2259C21.6506 22.4839 21.0396 22.8173 20.2894 23.2259L19.2283 23.871L18.1672 23.1614C17.4812 22.6882 16.7256 22.0807 15.9003 21.3388C15.075 20.5968 14.1693 19.7313 13.1833 18.742C12.2186 17.7527 11.3719 16.8442 10.6431 16.0162C9.91423 15.1882 9.31403 14.4302 8.84243 13.742L8.07072 12.742L8.71381 11.613C9.1211 10.8603 9.45336 10.2528 9.71059 9.79039C9.96783 9.32802 10.15 9.00006 10.2572 8.80651C10.3215 8.67748 10.3698 8.5592 10.4019 8.45168C10.4341 8.34415 10.4501 8.24738 10.4501 8.16135C9.69987 6.97855 8.98713 5.87104 8.31188 4.83877C7.63664 3.80651 6.9882 2.83878 6.36654 1.93555H6.30223C6.21649 1.93555 6.1361 1.9463 6.06108 1.9678C5.98605 1.98931 5.91638 2.02157 5.85207 2.06458Z" transform="translate(1288 428)" fill="black"/>
<path fill-rule="evenodd" clip-rule="evenodd" d="M31.9922 6.72688C32.013 6.8777 31.9922 7.0339 31.9296 7.1955C31.867 7.35709 31.7731 7.49175 31.6479 7.59948L26.4841 12.0594L30.8968 15.6791C31.022 15.7653 31.1159 15.8838 31.1785 16.0346C31.2411 16.1854 31.2724 16.347 31.2724 16.5194C31.2724 16.6918 31.2306 16.848 31.1472 16.988C31.0637 17.1281 30.9594 17.2412 30.8342 17.3274L26.9535 20.0098V25.0838C26.9535 25.2562 26.9118 25.4178 26.8284 25.5686C26.7449 25.7194 26.6302 25.8487 26.4841 25.9564L16.532 31.8384C16.4486 31.903 16.3599 31.9461 16.266 31.9677C16.1721 31.9892 16.0835 32 16 32C15.9165 32 15.8279 31.9892 15.734 31.9677C15.6401 31.9461 15.5514 31.903 15.468 31.8384L5.39071 25.9564C5.24466 25.8487 5.12991 25.7194 5.04645 25.5686C4.963 25.4178 4.92127 25.2562 4.92127 25.0838V20.9147C4.92127 20.7639 4.95257 20.6239 5.01516 20.4946C5.07775 20.3653 5.16121 20.2576 5.26553 20.1714L1.16577 17.3274C1.01972 17.2412 0.910188 17.1281 0.837164 16.988C0.76414 16.848 0.717197 16.6918 0.696333 16.5194C0.696333 16.347 0.727628 16.1854 0.79022 16.0346C0.852812 15.8838 0.957131 15.7653 1.10318 15.6791L5.51589 12.0594L0.352078 7.59948C0.226894 7.49175 0.133008 7.35709 0.0704157 7.1955C0.00782374 7.0339 -0.01304 6.8777 0.00782405 6.72688C0.00782405 6.55451 0.0495514 6.39831 0.133007 6.25826C0.216463 6.11821 0.331214 6.0051 0.477262 5.91892L9.39658 0.16621C9.56349 0.0369349 9.75648 -0.0169288 9.97555 0.00461701C10.1946 0.0261628 10.3876 0.101572 10.5545 0.230847L16 4.78777L21.4455 0.230847C21.6124 0.101572 21.8054 0.0261628 22.0245 0.00461701C22.2435 -0.0169288 22.4365 0.0369349 22.6034 0.16621L31.5227 5.91892C31.6688 6.0051 31.7835 6.11821 31.867 6.25826C31.9504 6.39831 31.9922 6.55451 31.9922 6.72688ZM23.0416 12.0917L16.0001 7.34082L8.9585 12.0917L16.0001 16.6162L23.0416 12.0917ZM2.69922 6.92087L7.17452 10.7991L14.31 6.01595L9.83467 2.29932L2.69922 6.92087ZM7.17469 13.3521L3.41919 16.4223L10.2417 21.1085L14.2476 17.9413L7.17469 13.3521ZM6.92432 21.3025V24.502L14.9361 29.1236V20.0098L10.8989 23.2093C10.7111 23.3386 10.5129 23.4032 10.3043 23.4032C10.0956 23.4032 9.89742 23.3494 9.70965 23.2416L6.92432 21.3025ZM24.9507 24.5023V21.3674L22.2593 23.2419C22.1758 23.285 22.0871 23.3227 21.9932 23.355C21.8994 23.3873 21.8003 23.4035 21.6959 23.4035C21.5916 23.4035 21.4873 23.3873 21.383 23.355C21.2787 23.3227 21.1848 23.2742 21.1013 23.2096L16.939 19.9131V29.1885L24.9507 24.5023ZM28.5498 16.39L24.8255 13.3521L17.7527 17.9413L21.7273 21.1085L28.5498 16.39ZM24.8254 10.7991L29.3007 6.92087L22.1652 2.29932L17.6899 6.01595L24.8254 10.7991Z" transform="translate(1372 428)" fill="black"/>
<path fill-rule="evenodd" clip-rule="evenodd" d="M7 0C7.27083 0 7.50521 0.0989573 7.70312 0.296875C7.90104 0.494793 8 0.729165 8 1C8 1.27083 7.90104 1.50521 7.70312 1.70312C7.50521 1.90104 7.27083 2 7 2H2V7C2 7.27083 1.90104 7.50521 1.70312 7.70312C1.50521 7.90104 1.27083 8 1 8C0.729165 8 0.494793 7.90104 0.296875 7.70312C0.0989573 7.50521 0 7.27083 0 7V1C0 0.729165 0.0989573 0.494793 0.296875 0.296875C0.494793 0.0989573 0.729165 0 1 0H7ZM31 17C31.2708 17 31.5052 17.099 31.7031 17.2969C31.901 17.4948 32 17.7292 32 18V24C32 24.2708 31.901 24.5052 31.7031 24.7031C31.5052 24.901 31.2708 25 31 25H25C24.7292 25 24.4948 24.901 24.2969 24.7031C24.099 24.5052 24 24.2708 24 24C24 23.7292 24.099 23.4948 24.2969 23.2969C24.4948 23.099 24.7292 23 25 23H30V18C30 17.7292 30.099 17.4948 30.2969 17.2969C30.4948 17.099 30.7292 17 31 17ZM7 23C7.27083 23 7.50521 23.099 7.70312 23.2969C7.90104 23.4948 8 23.7292 8 24C8 24.2708 7.90104 24.5052 7.70312 24.7031C7.50521 24.901 7.27083 25 7 25H1C0.729165 25 0.494793 24.901 0.296875 24.7031C0.0989573 24.5052 0 24.2708 0 24V18C0 17.7292 0.0989573 17.4948 0.296875 17.2969C0.494793 17.099 0.729165 17 1 17C1.27083 17 1.50521 17.099 1.70312 17.2969C1.90104 17.4948 2 17.7292 2 18V23H7ZM31 0C31.2708 0 31.5052 0.0989573 31.7031 0.296875C31.901 0.494793 32 0.729165 32 1V7C32 7.27083 31.901 7.50521 31.7031 7.70312C31.5052 7.90104 31.2708 8 31 8C30.7292 8 30.4948 7.90104 30.2969 7.70312C30.099 7.50521 30 7.27083 30 7V2H25C24.7292 2 24.4948 1.90104 24.2969 1.70312C24.099 1.50521 24 1.27083 24 1C24 0.729165 24.099 0.494793 24.2969 0.296875C24.4948 0.0989573 24.7292 0 25 0H31Z" transform="translate(1452 429.5)" fill="black"/>
<path d="M6 2V18" transform="translate(1452 432)" stroke="black" stroke-width="1.5" stroke-linecap="round"/>
<path d="M6 2V18" transform="translate(1456 432)" stroke="black" stroke-width="1.5" stroke-linecap="round"/>
<path d="M6 2V18" transform="translate(1460 432)" stroke="black" stroke-width="1.5" stroke-linecap="round"/>
<path d="M6 2V18" transform="translate(1464 432)" stroke="black" stroke-width="1.5" stroke-linecap="round"/>
<path d="M6 2V18" transform="translate(1468 432)" stroke="black" stroke-width="1.5" stroke-linecap="round"/>
<path d="M6 2V18" transform="translate(1472 432)" stroke="black" stroke-width="1.5" stroke-linecap="round"/>
</svg>
