<svg width="1920" height="882" viewBox="0 0 1920 882" fill="none" xmlns="http://www.w3.org/2000/svg">
<path fill-rule="evenodd" clip-rule="evenodd" d="M0 27.7199V23.2399L24.08 9.2959V13.9439L4.2 25.1999V25.6479L24.08 36.9039V41.6639L0 27.7199ZM33.8799 50.288L53.3679 0H57.3999L37.9119 50.288H33.8799ZM67.2002 37.0159L87.0802 25.7599V25.3119L67.2002 14.0559V9.2959L91.2802 23.2399V27.7199L67.2002 41.6639V37.0159Z" transform="translate(927.76 557.44)" fill="white"/>
<path fill-rule="evenodd" clip-rule="evenodd" d="M0 27.7199V23.2399L24.08 9.2959V13.9439L4.2 25.1999V25.6479L24.08 36.9039V41.6639L0 27.7199ZM33.8799 50.288L53.3679 0H57.3999L37.9119 50.288H33.8799ZM67.2002 37.0159L87.0802 25.7599V25.3119L67.2002 14.0559V9.2959L91.2802 23.2399V27.7199L67.2002 41.6639V37.0159Z" transform="translate(927.76 557.44)" fill="black"/>
<path d="M35 0.375C30.1693 0.375 25.612 1.28646 21.3281 3.10938C17.0898 4.93229 13.3757 7.4388 10.1855 10.6289C7.04102 13.7734 4.55729 17.4876 2.73438 21.7715C0.911458 26.0098 0 30.5443 0 35.375C0 40.2057 0.911458 44.763 2.73438 49.0469C4.55729 53.2852 7.04102 56.9993 10.1855 60.1895C13.3757 63.334 17.0898 65.8177 21.3281 67.6406C25.612 69.4635 30.1693 70.375 35 70.375C39.8307 70.375 44.3652 69.4635 48.6035 67.6406C52.8874 65.8177 56.6016 63.334 59.7461 60.1895C62.9362 56.9993 65.4427 53.2852 67.2656 49.0469C69.0885 44.763 70 40.2057 70 35.375C70 30.5443 69.0885 26.0098 67.2656 21.7715C65.4427 17.4876 62.9362 13.7734 59.7461 10.6289C56.6016 7.4388 52.8874 4.93229 48.6035 3.10938C44.3652 1.28646 39.8307 0.375 35 0.375ZM35 66.0684C30.7617 66.0684 26.7741 65.2708 23.0371 63.6758C19.3457 62.0352 16.11 59.8249 13.3301 57.0449C10.5957 54.265 8.4082 51.0293 6.76758 47.3379C5.17253 43.6009 4.375 39.6133 4.375 35.375C4.375 31.1367 5.17253 27.1719 6.76758 23.4805C8.4082 19.7435 10.5957 16.5078 13.3301 13.7734C16.11 10.9935 19.3457 8.80599 23.0371 7.21094C26.7741 5.57031 30.7617 4.75 35 4.75C39.2383 4.75 43.2031 5.57031 46.8945 7.21094C50.6315 8.80599 53.8672 10.9935 56.6016 13.7734C59.3815 16.5078 61.569 19.7435 63.1641 23.4805C64.8047 27.1719 65.625 31.1367 65.625 35.375C65.625 39.6133 64.8047 43.6009 63.1641 47.3379C61.569 51.0293 59.3815 54.265 56.6016 57.0449C53.8672 59.8249 50.6315 62.0352 46.8945 63.6758C43.2031 65.2708 39.2383 66.0684 35 66.0684ZM37.1875 34.4863V13.5C37.1875 12.9076 36.9596 12.4062 36.5039 11.9961C36.0938 11.5404 35.5924 11.3125 35 11.3125C34.4076 11.3125 33.8835 11.5404 33.4277 11.9961C33.0176 12.4062 32.8125 12.9076 32.8125 13.5V35.375C32.8125 35.694 32.8581 35.9902 32.9492 36.2637C33.0859 36.5371 33.2682 36.765 33.4961 36.9473C33.4961 36.9473 33.4961 36.9701 33.4961 37.0156C33.5417 37.0156 33.5645 37.0384 33.5645 37.084L44.4336 47.8848C44.8438 48.3405 45.3451 48.5684 45.9375 48.5684C46.5755 48.5684 47.0996 48.3405 47.5098 47.8848C47.9199 47.4746 48.125 46.9733 48.125 46.3809C48.125 45.7428 47.9199 45.2188 47.5098 44.8086L37.1875 34.4863Z" transform="translate(506 534)" fill="black"/>
<path d="M9.76617 31.36C13.6062 31.36 15.1962 29.05 16.2162 26.77L14.0562 25.78C13.3062 27.64 12.3162 29.17 9.76617 29.17C6.43617 29.17 4.84617 26.44 4.84617 22.24V18.82C4.84617 14.62 6.43617 11.89 9.76617 11.89C12.3162 11.89 13.3062 13.42 14.0562 15.28L16.2162 14.29C15.1962 12.01 13.6062 9.7 9.76617 9.7C4.66617 9.7 2.17617 13.57 2.17617 20.53C2.17617 27.49 4.66617 31.36 9.76617 31.36ZM27.0645 31.36C31.4145 31.36 34.0845 28.18 34.0845 23.26C34.0845 18.34 31.4145 15.16 27.0645 15.16C22.7145 15.16 20.0445 18.34 20.0445 23.26C20.0445 28.18 22.7145 31.36 27.0645 31.36ZM27.0645 29.29C24.3945 29.29 22.5945 27.7 22.5945 24.37V22.15C22.5945 18.82 24.3945 17.23 27.0645 17.23C29.7345 17.23 31.5345 18.82 31.5345 22.15V24.37C31.5345 27.7 29.7345 29.29 27.0645 29.29ZM48.8027 28.48V31H51.2027V8.8H48.8027V18.04H48.6827C47.6927 16.15 46.0727 15.16 43.9127 15.16C40.1327 15.16 37.8527 18.19 37.8527 23.26C37.8527 28.33 40.1327 31.36 43.9127 31.36C46.0727 31.36 47.6927 30.37 48.6827 28.48H48.8027ZM44.8427 29.23C42.0527 29.23 40.4327 27.37 40.4327 24.58V21.94C40.4327 19.15 42.0527 17.29 44.8427 17.29C46.9727 17.29 48.8027 18.4 48.8027 20.47V26.05C48.8027 28.12 46.9727 29.23 44.8427 29.23ZM63.311 31.36C66.371 31.36 68.591 29.86 69.521 27.79L67.751 26.59C66.941 28.27 65.381 29.29 63.311 29.29C60.401 29.29 58.571 27.31 58.571 24.58V23.86H70.031V22.72C70.031 18.34 67.331 15.16 63.161 15.16C58.961 15.16 56.051 18.34 56.051 23.29C56.051 28.18 58.871 31.36 63.311 31.36ZM63.161 17.14C65.711 17.14 67.451 19 67.451 21.73V22.06H58.571V21.85C58.571 19.15 60.521 17.14 63.161 17.14ZM98.9576 31.36C103.608 31.36 106.278 29.02 106.278 25.15C106.278 22.42 104.928 20.14 100.818 19.42L98.5676 19.03C95.5976 18.52 94.6376 17.32 94.6376 15.46C94.6376 13.09 96.2276 11.86 99.0476 11.86C101.658 11.86 103.158 12.91 104.328 14.44L106.098 12.91C104.688 10.9 102.408 9.7 99.0776 9.7C94.8176 9.7 92.0876 11.68 92.0876 15.52C92.0876 18.16 93.3776 20.53 97.4876 21.22L99.8276 21.61C102.678 22.09 103.728 23.17 103.728 25.21C103.728 27.73 102.078 29.2 99.0476 29.2C96.5276 29.2 94.8176 28.21 93.1976 26.17L91.3676 27.67C92.9276 29.83 95.2076 31.36 98.9576 31.36ZM110.946 31H113.346V20.26C113.346 18.22 115.266 17.29 117.186 17.29C119.556 17.29 120.846 18.67 120.846 21.49V31H123.246V21.07C123.246 17.32 121.116 15.16 117.876 15.16C115.326 15.16 114.126 16.51 113.466 18.04H113.346V15.52H110.946V31ZM135.954 12.1C137.334 12.1 137.844 11.44 137.844 10.57V10.09C137.844 9.22 137.334 8.56 135.954 8.56C134.574 8.56 134.064 9.22 134.064 10.09V10.57C134.064 11.44 134.574 12.1 135.954 12.1ZM129.174 28.96V31H142.374V28.96H137.154V15.52H129.174V17.56H134.754V28.96H129.174ZM146.832 15.52V37H149.232V28.48H149.352C150.342 30.37 151.962 31.36 154.122 31.36C157.902 31.36 160.182 28.33 160.182 23.26C160.182 18.19 157.902 15.16 154.122 15.16C151.962 15.16 150.342 16.15 149.352 18.04H149.232V15.52H146.832ZM153.192 29.23C151.062 29.23 149.232 28.12 149.232 26.05V20.47C149.232 18.4 151.062 17.29 153.192 17.29C155.982 17.29 157.602 19.15 157.602 21.94V24.58C157.602 27.37 155.982 29.23 153.192 29.23ZM164.821 15.52V37H167.221V28.48H167.341C168.331 30.37 169.951 31.36 172.111 31.36C175.891 31.36 178.171 28.33 178.171 23.26C178.171 18.19 175.891 15.16 172.111 15.16C169.951 15.16 168.331 16.15 167.341 18.04H167.221V15.52H164.821ZM171.181 29.23C169.051 29.23 167.221 28.12 167.221 26.05V20.47C167.221 18.4 169.051 17.29 171.181 17.29C173.971 17.29 175.591 19.15 175.591 21.94V24.58C175.591 27.37 173.971 29.23 171.181 29.23ZM189.229 31.36C192.289 31.36 194.509 29.86 195.439 27.79L193.669 26.59C192.859 28.27 191.299 29.29 189.229 29.29C186.319 29.29 184.489 27.31 184.489 24.58V23.86H195.949V22.72C195.949 18.34 193.249 15.16 189.079 15.16C184.879 15.16 181.969 18.34 181.969 23.29C181.969 28.18 184.789 31.36 189.229 31.36ZM189.079 17.14C191.629 17.14 193.369 19 193.369 21.73V22.06H184.489V21.85C184.489 19.15 186.439 17.14 189.079 17.14ZM207.697 31H213.727V28.96H206.677V17.56H213.727V15.52H206.677V10.06H204.367V14.11C204.367 15.16 203.977 15.52 202.957 15.52H199.117V17.56H204.277V27.46C204.277 29.53 205.357 31 207.697 31ZM29.5486 67.96V70H42.6886V67.96H37.1686V56.56H43.3786V54.52H37.1686V49.84H43.3786V47.8H38.1886C35.8486 47.8 34.7686 49.27 34.7686 51.34V54.52H29.2486V56.56H34.7686V67.96H29.5486ZM51.1669 51.46C52.3969 51.46 52.8769 50.86 52.8769 50.08V49.66C52.8769 48.88 52.3969 48.28 51.1669 48.28C49.9369 48.28 49.4569 48.88 49.4569 49.66V50.08C49.4569 50.86 49.9369 51.46 51.1669 51.46ZM56.7469 51.46C57.9769 51.46 58.4569 50.86 58.4569 50.08V49.66C58.4569 48.88 57.9769 48.28 56.7469 48.28C55.5169 48.28 55.0369 48.88 55.0369 49.66V50.08C55.0369 50.86 55.5169 51.46 56.7469 51.46ZM57.7069 67.48V70H60.1069V54.52H57.7069V65.26C57.7069 67.3 55.7869 68.23 53.8669 68.23C51.4969 68.23 50.2069 66.85 50.2069 64.03V54.52H47.8069V64.45C47.8069 68.2 49.9369 70.36 53.1769 70.36C55.7269 70.36 56.9269 69.01 57.5869 67.48H57.7069ZM65.3452 67.96V70H78.2752V67.96H72.2752V59.47C72.2752 58 73.8952 56.92 76.5952 56.92H79.8052V54.52H77.0752C74.4952 54.52 73.0252 55.81 72.4252 57.28H72.2752V54.52H65.3452V56.56H69.8752V67.96H65.3452ZM107.952 70.36C112.602 70.36 115.272 68.02 115.272 64.15C115.272 61.42 113.922 59.14 109.812 58.42L107.562 58.03C104.592 57.52 103.632 56.32 103.632 54.46C103.632 52.09 105.222 50.86 108.042 50.86C110.652 50.86 112.152 51.91 113.322 53.44L115.092 51.91C113.682 49.9 111.402 48.7 108.072 48.7C103.812 48.7 101.082 50.68 101.082 54.52C101.082 57.16 102.372 59.53 106.482 60.22L108.822 60.61C111.672 61.09 112.722 62.17 112.722 64.21C112.722 66.73 111.072 68.2 108.042 68.2C105.522 68.2 103.812 67.21 102.192 65.17L100.362 66.67C101.922 68.83 104.202 70.36 107.952 70.36ZM126.75 70H132.78V67.96H125.73V56.56H132.78V54.52H125.73V49.06H123.42V53.11C123.42 54.16 123.03 54.52 122.01 54.52H118.17V56.56H123.33V66.46C123.33 68.53 124.41 70 126.75 70ZM143.988 70.36C148.338 70.36 151.008 67.18 151.008 62.26C151.008 57.34 148.338 54.16 143.988 54.16C139.638 54.16 136.968 57.34 136.968 62.26C136.968 67.18 139.638 70.36 143.988 70.36ZM143.988 68.29C141.318 68.29 139.518 66.7 139.518 63.37V61.15C139.518 57.82 141.318 56.23 143.988 56.23C146.658 56.23 148.458 57.82 148.458 61.15V63.37C148.458 66.7 146.658 68.29 143.988 68.29ZM155.287 67.96V70H168.217V67.96H162.217V59.47C162.217 58 163.837 56.92 166.537 56.92H169.747V54.52H167.017C164.437 54.52 162.967 55.81 162.367 57.28H162.217V54.52H155.287V56.56H159.817V67.96H155.287ZM180.235 70.36C183.295 70.36 185.515 68.86 186.445 66.79L184.675 65.59C183.865 67.27 182.305 68.29 180.235 68.29C177.325 68.29 175.495 66.31 175.495 63.58V62.86H186.955V61.72C186.955 57.34 184.255 54.16 180.085 54.16C175.885 54.16 172.975 57.34 172.975 62.29C172.975 67.18 175.795 70.36 180.235 70.36ZM180.085 56.14C182.635 56.14 184.375 58 184.375 60.73V61.06H175.495V60.85C175.495 58.15 177.445 56.14 180.085 56.14ZM198.133 70.36C202.093 70.36 204.673 68.59 204.673 65.53C204.673 62.17 201.583 61.57 199.363 61.24L196.933 60.88C195.553 60.67 194.203 60.25 194.203 58.63C194.203 57.04 195.553 56.17 197.983 56.17C200.713 56.17 202.093 57.25 202.813 58.12L204.373 56.65C202.903 55.09 200.863 54.16 198.073 54.16C194.473 54.16 191.833 55.69 191.833 58.78C191.833 62.14 194.953 62.74 197.143 63.07L199.573 63.43C200.983 63.64 202.303 64.06 202.303 65.68C202.303 67.51 200.593 68.35 198.193 68.35C195.733 68.35 194.053 67.48 192.583 65.92L190.963 67.33C192.583 69.16 194.893 70.36 198.133 70.36Z" transform="translate(857 642)" fill="black"/>
<path d="M9.01617 31.36C13.6662 31.36 16.3362 29.02 16.3362 25.15C16.3362 22.42 14.9862 20.14 10.8762 19.42L8.62617 19.03C5.65617 18.52 4.69617 17.32 4.69617 15.46C4.69617 13.09 6.28617 11.86 9.10617 11.86C11.7162 11.86 13.2162 12.91 14.3862 14.44L16.1562 12.91C14.7462 10.9 12.4662 9.7 9.13617 9.7C4.87617 9.7 2.14617 11.68 2.14617 15.52C2.14617 18.16 3.43617 20.53 7.54617 21.22L9.88617 21.61C12.7362 22.09 13.7862 23.17 13.7862 25.21C13.7862 27.73 12.1362 29.2 9.10617 29.2C6.58617 29.2 4.87617 28.21 3.25617 26.17L1.42617 27.67C2.98617 29.83 5.26617 31.36 9.01617 31.36ZM27.8145 31H33.8445V28.96H26.7945V17.56H33.8445V15.52H26.7945V10.06H24.4845V14.11C24.4845 15.16 24.0945 15.52 23.0745 15.52H19.2345V17.56H24.3945V27.46C24.3945 29.53 25.4745 31 27.8145 31ZM45.0527 31.36C49.4027 31.36 52.0727 28.18 52.0727 23.26C52.0727 18.34 49.4027 15.16 45.0527 15.16C40.7027 15.16 38.0327 18.34 38.0327 23.26C38.0327 28.18 40.7027 31.36 45.0527 31.36ZM45.0527 29.29C42.3827 29.29 40.5827 27.7 40.5827 24.37V22.15C40.5827 18.82 42.3827 17.23 45.0527 17.23C47.7227 17.23 49.5227 18.82 49.5227 22.15V24.37C49.5227 27.7 47.7227 29.29 45.0527 29.29ZM56.351 28.96V31H69.281V28.96H63.281V20.47C63.281 19 64.901 17.92 67.601 17.92H70.811V15.52H68.081C65.501 15.52 64.031 16.81 63.431 18.28H63.281V15.52H56.351V17.56H60.881V28.96H56.351ZM81.2993 31.36C84.3593 31.36 86.5793 29.86 87.5093 27.79L85.7393 26.59C84.9293 28.27 83.3693 29.29 81.2993 29.29C78.3893 29.29 76.5593 27.31 76.5593 24.58V23.86H88.0193V22.72C88.0193 18.34 85.3193 15.16 81.1493 15.16C76.9493 15.16 74.0393 18.34 74.0393 23.29C74.0393 28.18 76.8593 31.36 81.2993 31.36ZM81.1493 17.14C83.6993 17.14 85.4393 19 85.4393 21.73V22.06H76.5593V21.85C76.5593 19.15 78.5093 17.14 81.1493 17.14ZM99.1976 31.36C103.158 31.36 105.738 29.59 105.738 26.53C105.738 23.17 102.648 22.57 100.428 22.24L97.9976 21.88C96.6176 21.67 95.2676 21.25 95.2676 19.63C95.2676 18.04 96.6176 17.17 99.0476 17.17C101.778 17.17 103.158 18.25 103.878 19.12L105.438 17.65C103.968 16.09 101.928 15.16 99.1376 15.16C95.5376 15.16 92.8976 16.69 92.8976 19.78C92.8976 23.14 96.0176 23.74 98.2076 24.07L100.638 24.43C102.048 24.64 103.368 25.06 103.368 26.68C103.368 28.51 101.658 29.35 99.2576 29.35C96.7976 29.35 95.1176 28.48 93.6476 26.92L92.0276 28.33C93.6476 30.16 95.9576 31.36 99.1976 31.36ZM132.504 31.36C135.204 31.36 136.974 29.98 137.544 27.91H137.694L140.304 31H143.154L139.494 26.68C140.184 24.82 140.304 23.5 140.574 21.58H142.824V19.57H138.594C138.504 21.49 138.474 23.62 138.204 25.18H138.054L135.864 22.48L133.164 19.15C131.634 17.23 131.034 16.18 131.034 14.92V14.68C131.034 12.97 132.174 11.74 133.974 11.74C135.534 11.74 136.584 12.67 137.094 13.9L139.074 12.88C138.504 11.35 136.764 9.7 134.094 9.7C131.124 9.7 128.664 11.74 128.664 14.77C128.664 16.54 129.504 18.04 130.614 19.48C127.614 21.01 126.744 23.47 126.744 25.57C126.744 28.78 128.844 31.36 132.504 31.36ZM133.134 29.23C130.824 29.23 129.234 27.85 129.234 25.69V25.24C129.234 23.53 129.924 22.03 131.754 20.89L136.974 27.19C136.224 28.48 134.844 29.23 133.134 29.23ZM170.041 20.74L176.371 31H179.311L171.751 18.88L179.101 10.06H176.071L169.891 17.5L167.131 20.98H167.041V10.06H164.521V31H167.041V24.28L170.041 20.74ZM182.659 31H195.559V28.81H185.179V21.49H195.199V19.3H185.179V12.25H195.559V10.06H182.659V31ZM200.647 31H203.167V22.12H208.267C212.137 22.12 214.237 19.87 214.237 16.09C214.237 12.31 212.137 10.06 208.267 10.06H200.647V31ZM203.167 19.93V12.25H208.207C210.307 12.25 211.567 13.36 211.567 15.31V16.87C211.567 18.82 210.307 19.93 208.207 19.93H203.167ZM225.116 31.36C229.076 31.36 231.656 29.59 231.656 26.53C231.656 23.17 228.566 22.57 226.346 22.24L223.916 21.88C222.536 21.67 221.186 21.25 221.186 19.63C221.186 18.04 222.536 17.17 224.966 17.17C227.696 17.17 229.076 18.25 229.796 19.12L231.356 17.65C229.886 16.09 227.846 15.16 225.056 15.16C221.456 15.16 218.816 16.69 218.816 19.78C218.816 23.14 221.936 23.74 224.126 24.07L226.556 24.43C227.966 24.64 229.286 25.06 229.286 26.68C229.286 28.51 227.576 29.35 225.176 29.35C222.716 29.35 221.036 28.48 219.566 26.92L217.946 28.33C219.566 30.16 221.876 31.36 225.116 31.36ZM11.741 76H14.261V67.12H19.361C23.231 67.12 25.331 64.87 25.331 61.09C25.331 57.31 23.231 55.06 19.361 55.06H11.741V76ZM14.261 64.93V57.25H19.301C21.401 57.25 22.661 58.36 22.661 60.31V61.87C22.661 63.82 21.401 64.93 19.301 64.93H14.261ZM41.8793 76H43.5293V73.9H41.3693V65.38C41.3693 62.11 39.0593 60.16 35.4293 60.16C32.2793 60.16 30.2993 61.66 29.5193 63.28L31.1393 64.48C31.9493 63.07 33.2093 62.2 35.2793 62.2C37.6193 62.2 38.9693 63.37 38.9693 65.62V67.15H35.6693C31.0193 67.15 29.0093 68.8 29.0093 71.65C29.0093 74.56 31.0793 76.36 34.3193 76.36C36.8393 76.36 38.3093 75.25 38.9693 73.48H39.1193C39.2993 74.92 40.0193 76 41.8793 76ZM34.7393 74.35C32.7593 74.35 31.5293 73.51 31.5293 71.92V71.29C31.5293 69.79 32.8193 68.95 35.6693 68.95H38.9693V71.5C38.9693 73.09 37.1993 74.35 34.7393 74.35ZM48.1676 53.8V76H50.5676V70.39L53.2376 67.96L59.2676 76H62.2376L55.0676 66.58L61.4876 60.52H58.5476L53.3876 65.26L50.6876 67.81H50.5676V53.8H48.1676ZM72.2759 76.36C75.3359 76.36 77.5559 74.86 78.4859 72.79L76.7159 71.59C75.9059 73.27 74.3459 74.29 72.2759 74.29C69.3659 74.29 67.5359 72.31 67.5359 69.58V68.86H78.9959V67.72C78.9959 63.34 76.2959 60.16 72.1259 60.16C67.9259 60.16 65.0159 63.34 65.0159 68.29C65.0159 73.18 67.8359 76.36 72.2759 76.36ZM72.1259 62.14C74.6759 62.14 76.4159 64 76.4159 66.73V67.06H67.5359V66.85C67.5359 64.15 69.4859 62.14 72.1259 62.14ZM90.7441 76H96.7741V73.96H89.7241V62.56H96.7741V60.52H89.7241V55.06H87.4141V59.11C87.4141 60.16 87.0241 60.52 86.0041 60.52H82.1641V62.56H87.3241V72.46C87.3241 74.53 88.4041 76 90.7441 76ZM101.922 76H104.322V65.26C104.322 63.22 106.242 62.29 108.162 62.29C110.532 62.29 111.822 63.67 111.822 66.49V76H114.222V66.07C114.222 62.32 112.092 60.16 108.852 60.16C106.302 60.16 105.102 61.51 104.442 63.04H104.322V60.52H101.922V76ZM129.631 73.48V76H132.031V60.52H129.631V71.26C129.631 73.3 127.711 74.23 125.791 74.23C123.421 74.23 122.131 72.85 122.131 70.03V60.52H119.731V70.45C119.731 74.2 121.861 76.36 125.101 76.36C127.651 76.36 128.851 75.01 129.511 73.48H129.631ZM137.839 76H140.239V65.26C140.239 63.28 142.039 62.32 143.929 62.32C146.209 62.32 147.259 63.73 147.259 66.49V76H149.659V65.26C149.659 63.28 151.399 62.32 153.289 62.32C155.629 62.32 156.679 63.76 156.679 66.49V76H159.079V66.07C159.079 62.32 157.189 60.16 154.039 60.16C151.399 60.16 149.899 61.63 149.329 63.31H149.269C148.429 61.09 146.569 60.16 144.529 60.16C142.129 60.16 141.049 61.45 140.359 63.04H140.239V60.52H137.839V76ZM164.851 76H167.251V65.26C167.251 63.28 169.051 62.32 170.941 62.32C173.221 62.32 174.271 63.73 174.271 66.49V76H176.671V65.26C176.671 63.28 178.411 62.32 180.301 62.32C182.641 62.32 183.691 63.76 183.691 66.49V76H186.091V66.07C186.091 62.32 184.201 60.16 181.051 60.16C178.411 60.16 176.911 61.63 176.341 63.31H176.281C175.441 61.09 173.581 60.16 171.541 60.16C169.141 60.16 168.061 61.45 167.371 63.04H167.251V60.52H164.851V76ZM198.252 76.36C201.312 76.36 203.532 74.86 204.462 72.79L202.692 71.59C201.882 73.27 200.322 74.29 198.252 74.29C195.342 74.29 193.512 72.31 193.512 69.58V68.86H204.972V67.72C204.972 63.34 202.272 60.16 198.102 60.16C193.902 60.16 190.992 63.34 190.992 68.29C190.992 73.18 193.812 76.36 198.252 76.36ZM198.102 62.14C200.652 62.14 202.392 64 202.392 66.73V67.06H193.512V66.85C193.512 64.15 195.462 62.14 198.102 62.14ZM209.281 73.96V76H222.211V73.96H216.211V65.47C216.211 64 217.831 62.92 220.531 62.92H223.741V60.52H221.011C218.431 60.52 216.961 61.81 216.361 63.28H216.211V60.52H209.281V62.56H213.811V73.96H209.281Z" transform="translate(1269 642)" fill="black"/>
<path d="M64.1596 31V28.81H51.7696L63.6496 12.31V10.06H49.5496V12.25H60.8896L49.0396 28.75V31H64.1596ZM74.8579 31.36C77.9179 31.36 80.1379 29.86 81.0679 27.79L79.2979 26.59C78.4879 28.27 76.9279 29.29 74.8579 29.29C71.9479 29.29 70.1179 27.31 70.1179 24.58V23.86H81.5779V22.72C81.5779 18.34 78.8779 15.16 74.7079 15.16C70.5079 15.16 67.5979 18.34 67.5979 23.29C67.5979 28.18 70.4179 31.36 74.8579 31.36ZM74.7079 17.14C77.2579 17.14 78.9979 19 78.9979 21.73V22.06H70.1179V21.85C70.1179 19.15 72.0679 17.14 74.7079 17.14ZM93.5362 12.1C94.9162 12.1 95.4262 11.44 95.4262 10.57V10.09C95.4262 9.22 94.9162 8.56 93.5362 8.56C92.1562 8.56 91.6462 9.22 91.6462 10.09V10.57C91.6462 11.44 92.1562 12.1 93.5362 12.1ZM86.7562 28.96V31H99.9562V28.96H94.7362V15.52H86.7562V17.56H92.3362V28.96H86.7562ZM111.314 31H117.344V28.96H110.294V17.56H117.344V15.52H110.294V10.06H107.984V14.11C107.984 15.16 107.594 15.52 106.574 15.52H102.734V17.56H107.894V27.46C107.894 29.53 108.974 31 111.314 31ZM122.403 8.8V31H124.803V28.48H124.923C125.913 30.37 127.533 31.36 129.693 31.36C133.473 31.36 135.753 28.33 135.753 23.26C135.753 18.19 133.473 15.16 129.693 15.16C127.533 15.16 125.913 16.15 124.923 18.04H124.803V8.8H122.403ZM128.763 29.23C126.633 29.23 124.803 28.12 124.803 26.05V20.47C124.803 18.4 126.633 17.29 128.763 17.29C131.553 17.29 133.173 19.15 133.173 21.94V24.58C133.173 27.37 131.553 29.23 128.763 29.23ZM146.811 31.36C149.871 31.36 152.091 29.86 153.021 27.79L151.251 26.59C150.441 28.27 148.881 29.29 146.811 29.29C143.901 29.29 142.071 27.31 142.071 24.58V23.86H153.531V22.72C153.531 18.34 150.831 15.16 146.661 15.16C142.461 15.16 139.551 18.34 139.551 23.29C139.551 28.18 142.371 31.36 146.811 31.36ZM146.661 17.14C149.211 17.14 150.951 19 150.951 21.73V22.06H142.071V21.85C142.071 19.15 144.021 17.14 146.661 17.14ZM157.839 28.96V31H170.769V28.96H164.769V20.47C164.769 19 166.389 17.92 169.089 17.92H172.299V15.52H169.569C166.989 15.52 165.519 16.81 164.919 18.28H164.769V15.52H157.839V17.56H162.369V28.96H157.839ZM182.788 31.36C185.848 31.36 188.068 29.86 188.998 27.79L187.228 26.59C186.418 28.27 184.858 29.29 182.788 29.29C179.878 29.29 178.048 27.31 178.048 24.58V23.86H189.508V22.72C189.508 18.34 186.808 15.16 182.638 15.16C178.438 15.16 175.528 18.34 175.528 23.29C175.528 28.18 178.348 31.36 182.788 31.36ZM182.638 17.14C185.188 17.14 186.928 19 186.928 21.73V22.06H178.048V21.85C178.048 19.15 179.998 17.14 182.638 17.14ZM201.046 31.36C204.136 31.36 206.086 29.83 206.986 27.76L205.276 26.59C204.496 28.27 203.146 29.29 201.076 29.29C198.166 29.29 196.606 27.31 196.606 24.58V21.94C196.606 19.21 198.196 17.23 201.016 17.23C202.936 17.23 204.256 18.16 204.826 19.75L206.746 18.73C205.876 16.63 204.016 15.16 201.016 15.16C196.636 15.16 194.026 18.34 194.026 23.26C194.026 28.15 196.606 31.36 201.046 31.36ZM212.434 8.8V31H214.834V20.26C214.834 18.22 216.754 17.29 218.674 17.29C221.044 17.29 222.334 18.67 222.334 21.49V31H224.734V21.07C224.734 17.32 222.604 15.16 219.364 15.16C216.814 15.16 215.614 16.51 214.954 18.04H214.834V8.8H212.434ZM230.422 31H232.822V20.26C232.822 18.22 234.742 17.29 236.662 17.29C239.032 17.29 240.322 18.67 240.322 21.49V31H242.722V21.07C242.722 17.32 240.592 15.16 237.352 15.16C234.802 15.16 233.602 16.51 232.942 18.04H232.822V15.52H230.422V31ZM258.131 28.48V31H260.531V15.52H258.131V26.26C258.131 28.3 256.211 29.23 254.291 29.23C251.921 29.23 250.631 27.85 250.631 25.03V15.52H248.231V25.45C248.231 29.2 250.361 31.36 253.601 31.36C256.151 31.36 257.351 30.01 258.011 28.48H258.131ZM266.399 31H268.799V20.26C268.799 18.22 270.719 17.29 272.639 17.29C275.009 17.29 276.299 18.67 276.299 21.49V31H278.699V21.07C278.699 17.32 276.569 15.16 273.329 15.16C270.779 15.16 269.579 16.51 268.919 18.04H268.799V15.52H266.399V31ZM296.597 30.49V15.52H294.197V18.04H294.077C293.087 16.15 291.467 15.16 289.307 15.16C285.527 15.16 283.247 18.19 283.247 23.05C283.247 27.91 285.527 30.94 289.307 30.94C291.467 30.94 293.087 29.95 294.077 28.06H294.197V30.64C294.197 33.7 292.727 35.26 289.817 35.26C288.047 35.26 286.697 34.66 285.647 33.58L284.237 35.23C285.467 36.49 287.267 37.36 289.787 37.36C294.107 37.36 296.597 34.75 296.597 30.49ZM290.237 28.81C287.447 28.81 285.827 26.95 285.827 24.16V21.94C285.827 19.15 287.447 17.29 290.237 17.29C292.367 17.29 294.197 18.4 294.197 20.47V25.63C294.197 27.7 292.367 28.81 290.237 28.81ZM323.934 31.36C326.634 31.36 328.404 29.98 328.974 27.91H329.124L331.734 31H334.584L330.924 26.68C331.614 24.82 331.734 23.5 332.004 21.58H334.254V19.57H330.024C329.934 21.49 329.904 23.62 329.634 25.18H329.484L327.294 22.48L324.594 19.15C323.064 17.23 322.464 16.18 322.464 14.92V14.68C322.464 12.97 323.604 11.74 325.404 11.74C326.964 11.74 328.014 12.67 328.524 13.9L330.504 12.88C329.934 11.35 328.194 9.7 325.524 9.7C322.554 9.7 320.094 11.74 320.094 14.77C320.094 16.54 320.934 18.04 322.044 19.48C319.044 21.01 318.174 23.47 318.174 25.57C318.174 28.78 320.274 31.36 323.934 31.36ZM324.564 29.23C322.254 29.23 320.664 27.85 320.664 25.69V25.24C320.664 23.53 321.354 22.03 323.184 20.89L328.404 27.19C327.654 28.48 326.274 29.23 324.564 29.23ZM73.172 52.36V70H75.632V49.06H71.732L65.702 60.34H65.582L59.582 49.06H55.682V70H58.142V52.39H58.892L60.662 55.87L65.642 64.99L70.652 55.87L72.422 52.36H73.172ZM93.9438 70H95.5938V67.9H93.4337V59.38C93.4337 56.11 91.1237 54.16 87.4938 54.16C84.3437 54.16 82.3637 55.66 81.5837 57.28L83.2037 58.48C84.0138 57.07 85.2738 56.2 87.3438 56.2C89.6837 56.2 91.0338 57.37 91.0338 59.62V61.15H87.7337C83.0838 61.15 81.0737 62.8 81.0737 65.65C81.0737 68.56 83.1438 70.36 86.3838 70.36C88.9037 70.36 90.3737 69.25 91.0338 67.48H91.1837C91.3638 68.92 92.0837 70 93.9438 70ZM86.8037 68.35C84.8237 68.35 83.5938 67.51 83.5938 65.92V65.29C83.5938 63.79 84.8838 62.95 87.7337 62.95H91.0338V65.5C91.0338 67.09 89.2637 68.35 86.8037 68.35ZM106.622 70.36C109.712 70.36 111.662 68.83 112.562 66.76L110.852 65.59C110.072 67.27 108.722 68.29 106.652 68.29C103.742 68.29 102.182 66.31 102.182 63.58V60.94C102.182 58.21 103.772 56.23 106.592 56.23C108.512 56.23 109.832 57.16 110.402 58.75L112.322 57.73C111.452 55.63 109.592 54.16 106.592 54.16C102.212 54.16 99.602 57.34 99.602 62.26C99.602 67.15 102.182 70.36 106.622 70.36ZM118.01 47.8V70H120.41V59.26C120.41 57.22 122.33 56.29 124.25 56.29C126.62 56.29 127.91 57.67 127.91 60.49V70H130.31V60.07C130.31 56.32 128.18 54.16 124.94 54.16C122.39 54.16 121.19 55.51 120.53 57.04H120.41V47.8H118.01ZM143.019 51.1C144.399 51.1 144.909 50.44 144.909 49.57V49.09C144.909 48.22 144.399 47.56 143.019 47.56C141.639 47.56 141.129 48.22 141.129 49.09V49.57C141.129 50.44 141.639 51.1 143.019 51.1ZM136.239 67.96V70H149.439V67.96H144.219V54.52H136.239V56.56H141.819V67.96H136.239ZM153.987 70H156.387V59.26C156.387 57.22 158.307 56.29 160.227 56.29C162.597 56.29 163.887 57.67 163.887 60.49V70H166.287V60.07C166.287 56.32 164.157 54.16 160.917 54.16C158.367 54.16 157.167 55.51 156.507 57.04H156.387V54.52H153.987V70ZM178.305 70.36C181.365 70.36 183.585 68.86 184.515 66.79L182.745 65.59C181.935 67.27 180.375 68.29 178.305 68.29C175.395 68.29 173.565 66.31 173.565 63.58V62.86H185.025V61.72C185.025 57.34 182.325 54.16 178.155 54.16C173.955 54.16 171.045 57.34 171.045 62.29C171.045 67.18 173.865 70.36 178.305 70.36ZM178.155 56.14C180.705 56.14 182.445 58 182.445 60.73V61.06H173.565V60.85C173.565 58.15 175.515 56.14 178.155 56.14ZM208.612 70H221.062V67.81H211.132V49.06H208.612V70ZM232.27 70.36C235.33 70.36 237.55 68.86 238.48 66.79L236.71 65.59C235.9 67.27 234.34 68.29 232.27 68.29C229.36 68.29 227.53 66.31 227.53 63.58V62.86H238.99V61.72C238.99 57.34 236.29 54.16 232.12 54.16C227.92 54.16 225.01 57.34 225.01 62.29C225.01 67.18 227.83 70.36 232.27 70.36ZM232.12 56.14C234.67 56.14 236.41 58 236.41 60.73V61.06H227.53V60.85C227.53 58.15 229.48 56.14 232.12 56.14ZM255.838 70H257.488V67.9H255.328V59.38C255.328 56.11 253.018 54.16 249.388 54.16C246.238 54.16 244.258 55.66 243.478 57.28L245.098 58.48C245.908 57.07 247.168 56.2 249.238 56.2C251.578 56.2 252.928 57.37 252.928 59.62V61.15H249.628C244.978 61.15 242.968 62.8 242.968 65.65C242.968 68.56 245.038 70.36 248.278 70.36C250.798 70.36 252.268 69.25 252.928 67.48H253.078C253.258 68.92 253.978 70 255.838 70ZM248.698 68.35C246.718 68.35 245.488 67.51 245.488 65.92V65.29C245.488 63.79 246.778 62.95 249.628 62.95H252.928V65.5C252.928 67.09 251.158 68.35 248.698 68.35ZM261.287 67.96V70H274.217V67.96H268.217V59.47C268.217 58 269.837 56.92 272.537 56.92H275.747V54.52H273.017C270.437 54.52 268.967 55.81 268.367 57.28H268.217V54.52H261.287V56.56H265.817V67.96H261.287ZM279.905 70H282.305V59.26C282.305 57.22 284.225 56.29 286.145 56.29C288.515 56.29 289.805 57.67 289.805 60.49V70H292.205V60.07C292.205 56.32 290.075 54.16 286.835 54.16C284.285 54.16 283.085 55.51 282.425 57.04H282.305V54.52H279.905V70ZM304.913 51.1C306.293 51.1 306.803 50.44 306.803 49.57V49.09C306.803 48.22 306.293 47.56 304.913 47.56C303.533 47.56 303.023 48.22 303.023 49.09V49.57C303.023 50.44 303.533 51.1 304.913 51.1ZM298.133 67.96V70H311.333V67.96H306.113V54.52H298.133V56.56H303.713V67.96H298.133ZM315.881 70H318.281V59.26C318.281 57.22 320.201 56.29 322.121 56.29C324.491 56.29 325.781 57.67 325.781 60.49V70H328.181V60.07C328.181 56.32 326.051 54.16 322.811 54.16C320.261 54.16 319.061 55.51 318.401 57.04H318.281V54.52H315.881V70ZM346.08 69.49V54.52H343.68V57.04H343.56C342.57 55.15 340.95 54.16 338.79 54.16C335.01 54.16 332.73 57.19 332.73 62.05C332.73 66.91 335.01 69.94 338.79 69.94C340.95 69.94 342.57 68.95 343.56 67.06H343.68V69.64C343.68 72.7 342.21 74.26 339.3 74.26C337.53 74.26 336.18 73.66 335.13 72.58L333.72 74.23C334.95 75.49 336.75 76.36 339.27 76.36C343.59 76.36 346.08 73.75 346.08 69.49ZM339.72 67.81C336.93 67.81 335.31 65.95 335.31 63.16V60.94C335.31 58.15 336.93 56.29 339.72 56.29C341.85 56.29 343.68 57.4 343.68 59.47V64.63C343.68 66.7 341.85 67.81 339.72 67.81Z" transform="translate(328 642)" fill="black"/>
<path fill-rule="evenodd" clip-rule="evenodd" d="M155.902 201C138.479 201 122.638 194.229 110.863 183.175C99.089 194.229 83.2475 201 65.8251 201C29.4709 201 0 171.52 0 135.155C0 98.7901 29.4709 69.3103 65.8251 69.3103C66.0596 43.4322 87.1034 22.5259 113.029 22.5259C124.082 22.5259 134.248 26.3262 142.292 32.6919C154.627 13.0535 176.476 0 201.373 0C239.88 0 271.096 31.2252 271.096 69.7435C271.096 70.6209 271.079 71.4946 271.047 72.3641C297.689 80.793 317 105.718 317 135.155C317 171.52 287.529 201 251.175 201C232.436 201 203.538 180.597 203.538 180.597C203.538 180.597 174.64 201 155.902 201Z" transform="translate(817 120)" fill="white" stroke="black" stroke-width="4"/>
<path d="M2.7 31H5.22V22.12H10.32C14.19 22.12 16.29 19.87 16.29 16.09C16.29 12.31 14.19 10.06 10.32 10.06H2.7V31ZM5.22 19.93V12.25H10.26C12.36 12.25 13.62 13.36 13.62 15.31V16.87C13.62 18.82 12.36 19.93 10.26 19.93H5.22ZM32.8383 31H34.4883V28.9H32.3283V20.38C32.3283 17.11 30.0183 15.16 26.3883 15.16C23.2383 15.16 21.2583 16.66 20.4783 18.28L22.0983 19.48C22.9083 18.07 24.1683 17.2 26.2383 17.2C28.5783 17.2 29.9283 18.37 29.9283 20.62V22.15H26.6283C21.9783 22.15 19.9683 23.8 19.9683 26.65C19.9683 29.56 22.0383 31.36 25.2783 31.36C27.7983 31.36 29.2683 30.25 29.9283 28.48H30.0783C30.2583 29.92 30.9783 31 32.8383 31ZM25.6983 29.35C23.7183 29.35 22.4883 28.51 22.4883 26.92V26.29C22.4883 24.79 23.7783 23.95 26.6283 23.95H29.9283V26.5C29.9283 28.09 28.1583 29.35 25.6983 29.35ZM38.2866 28.96V31H51.2166V28.96H45.2166V20.47C45.2166 19 46.8366 17.92 49.5366 17.92H52.7466V15.52H50.0166C47.4366 15.52 45.9666 16.81 45.3666 18.28H45.2166V15.52H38.2866V17.56H42.8166V28.96H38.2866ZM63.5048 31.36C66.5948 31.36 68.5448 29.83 69.4448 27.76L67.7348 26.59C66.9548 28.27 65.6048 29.29 63.5348 29.29C60.6248 29.29 59.0648 27.31 59.0648 24.58V21.94C59.0648 19.21 60.6548 17.23 63.4748 17.23C65.3948 17.23 66.7148 18.16 67.2848 19.75L69.2048 18.73C68.3348 16.63 66.4748 15.16 63.4748 15.16C59.0948 15.16 56.4848 18.34 56.4848 23.26C56.4848 28.15 59.0648 31.36 63.5048 31.36ZM81.2231 31.36C84.2831 31.36 86.5031 29.86 87.4331 27.79L85.6631 26.59C84.8531 28.27 83.2931 29.29 81.2231 29.29C78.3131 29.29 76.4831 27.31 76.4831 24.58V23.86H87.9431V22.72C87.9431 18.34 85.2431 15.16 81.0731 15.16C76.8731 15.16 73.9631 18.34 73.9631 23.29C73.9631 28.18 76.7831 31.36 81.2231 31.36ZM81.0731 17.14C83.6231 17.14 85.3631 19 85.3631 21.73V22.06H76.4831V21.85C76.4831 19.15 78.4331 17.14 81.0731 17.14ZM92.3414 28.96V31H105.541V28.96H100.141V8.8H92.3414V10.84H97.7414V28.96H92.3414ZM116 20.74L122.33 31H125.27L117.71 18.88L125.06 10.06H122.03L115.85 17.5L113.09 20.98H113V10.06H110.48V31H113V24.28L116 20.74ZM135.188 31.36C138.248 31.36 140.468 29.86 141.398 27.79L139.628 26.59C138.818 28.27 137.258 29.29 135.188 29.29C132.278 29.29 130.448 27.31 130.448 24.58V23.86H141.908V22.72C141.908 18.34 139.208 15.16 135.038 15.16C130.838 15.16 127.928 18.34 127.928 23.29C127.928 28.18 130.748 31.36 135.188 31.36ZM135.038 17.14C137.588 17.14 139.328 19 139.328 21.73V22.06H130.448V21.85C130.448 19.15 132.398 17.14 135.038 17.14ZM157.916 15.52L155.306 22L152.996 27.88H152.876L150.566 22L147.956 15.52H145.496L151.736 30.7L149.996 34.96H146.396V37H148.676C151.016 37 151.916 36.16 152.636 34.39L160.316 15.52H157.916ZM194.313 31H196.983L190.563 10.06H187.233L180.813 31H183.423L185.193 25.03H192.543L194.313 31ZM189.003 12.73L191.943 22.84H185.793L188.733 12.73H189.003ZM200.571 31H203.091V22.12H208.191C212.061 22.12 214.161 19.87 214.161 16.09C214.161 12.31 212.061 10.06 208.191 10.06H200.571V31ZM203.091 19.93V12.25H208.131C210.231 12.25 211.491 13.36 211.491 15.31V16.87C211.491 18.82 210.231 19.93 208.131 19.93H203.091ZM218.379 31H231.339V28.99H226.119V12.07H231.339V10.06H218.379V12.07H223.599V28.99H218.379V31Z" transform="translate(857 221)" fill="black"/>
<path fill-rule="evenodd" clip-rule="evenodd" d="M16.4062 0C17.041 0 17.5903 0.233539 18.0542 0.700625C18.5181 1.16771 18.75 1.72083 18.75 2.36C18.75 2.99917 18.5181 3.55229 18.0542 4.01937C17.5903 4.48646 17.041 4.72 16.4062 4.72H4.6875V16.52C4.6875 17.1592 4.45557 17.7123 3.9917 18.1794C3.52783 18.6465 2.97852 18.88 2.34375 18.88C1.70898 18.88 1.15967 18.6465 0.695801 18.1794C0.231931 17.7123 0 17.1592 0 16.52V2.36C0 1.72083 0.231931 1.16771 0.695801 0.700625C1.15967 0.233539 1.70898 0 2.34375 0H16.4062ZM72.6562 40.1201C73.291 40.1201 73.8403 40.3537 74.3042 40.8207C74.7681 41.2878 75 41.8409 75 42.4801V56.6401C75 57.2793 74.7681 57.8324 74.3042 58.2995C73.8403 58.7666 73.291 59.0001 72.6562 59.0001H58.5938C57.959 59.0001 57.4097 58.7666 56.9458 58.2995C56.4819 57.8324 56.25 57.2793 56.25 56.6401C56.25 56.0009 56.4819 55.4478 56.9458 54.9807C57.4097 54.5137 57.959 54.2801 58.5938 54.2801H70.3125V42.4801C70.3125 41.8409 70.5444 41.2878 71.0083 40.8207C71.4722 40.3537 72.0215 40.1201 72.6562 40.1201ZM16.4062 54.2801C17.041 54.2801 17.5903 54.5137 18.0542 54.9807C18.5181 55.4478 18.75 56.0009 18.75 56.6401C18.75 57.2793 18.5181 57.8324 18.0542 58.2995C17.5903 58.7666 17.041 59.0001 16.4062 59.0001H2.34375C1.70898 59.0001 1.15967 58.7666 0.695801 58.2995C0.231931 57.8324 0 57.2793 0 56.6401V42.4801C0 41.8409 0.231931 41.2878 0.695801 40.8207C1.15967 40.3537 1.70898 40.1201 2.34375 40.1201C2.97852 40.1201 3.52783 40.3537 3.9917 40.8207C4.45557 41.2878 4.6875 41.8409 4.6875 42.4801V54.2801H16.4062ZM72.6562 0C73.291 0 73.8403 0.233539 74.3042 0.700625C74.7681 1.16771 75 1.72083 75 2.36V16.52C75 17.1592 74.7681 17.7123 74.3042 18.1794C73.8403 18.6465 73.291 18.88 72.6562 18.88C72.0215 18.88 71.4722 18.6465 71.0083 18.1794C70.5444 17.7123 70.3125 17.1592 70.3125 16.52V4.72H58.5938C57.959 4.72 57.4097 4.48646 56.9458 4.01937C56.4819 3.55229 56.25 2.99917 56.25 2.36C56.25 1.72083 56.4819 1.16771 56.9458 0.700625C57.4097 0.233539 57.959 0 58.5938 0H72.6562Z" transform="translate(1352 554)" fill="black"/>
<path d="M0 1.8C0 0.805887 0.671573 0 1.5 0C2.32843 0 3 0.805887 3 1.8V40.2C3 41.1941 2.32843 42 1.5 42C0.671573 42 0 41.1941 0 40.2L0 1.8Z" transform="translate(1364 563)" fill="black"/>
<path d="M0 1.8C0 0.805887 0.671573 0 1.5 0C2.32843 0 3 0.805887 3 1.8V40.2C3 41.1941 2.32843 42 1.5 42C0.671573 42 0 41.1941 0 40.2L0 1.8Z" transform="translate(1374 563)" fill="black"/>
<path d="M0 1.8C0 0.805887 0.671573 0 1.5 0C2.32843 0 3 0.805887 3 1.8V40.2C3 41.1941 2.32843 42 1.5 42C0.671573 42 0 41.1941 0 40.2L0 1.8Z" transform="translate(1384 563)" fill="black"/>
<path d="M0 1.8C0 0.805887 0.671573 0 1.5 0C2.32843 0 3 0.805887 3 1.8V40.2C3 41.1941 2.32843 42 1.5 42C0.671573 42 0 41.1941 0 40.2V1.8Z" transform="translate(1392 563)" fill="black"/>
<path d="M0 1.8C0 0.805887 0.671573 0 1.5 0C2.32843 0 3 0.805887 3 1.8V40.2C3 41.1941 2.32843 42 1.5 42C0.671573 42 0 41.1941 0 40.2V1.8Z" transform="translate(1402 563)" fill="black"/>
<path d="M0 1.8C0 0.805887 0.671573 0 1.5 0C2.32843 0 3 0.805887 3 1.8V40.2C3 41.1941 2.32843 42 1.5 42C0.671573 42 0 41.1941 0 40.2V1.8Z" transform="translate(1411 563)" fill="black"/>
<path opacity="0.229799" d="M208 0L0 184" transform="translate(593 328)" stroke="black" stroke-width="4"/>
<path opacity="0.229799" d="M2 0V162" transform="translate(983 351)" stroke="black" stroke-width="4"/>
<path opacity="0.229799" d="M0 0L187 165" transform="translate(1155 330)" stroke="black" stroke-width="4"/>
</svg>
