<svg width="1920" height="1080" viewBox="0 0 1920 1080" fill="none" xmlns="http://www.w3.org/2000/svg">
<path d="M5.82 31H12.18L17.73 10.06H12.96L10.47 20.71L9.21 26.74H8.97L7.74 20.71L5.28 10.06H0.27L5.82 31ZM26.9883 31.36C31.8183 31.36 34.7583 28.27 34.7583 23.26C34.7583 18.25 31.8183 15.16 26.9883 15.16C22.1583 15.16 19.2183 18.25 19.2183 23.26C19.2183 28.27 22.1583 31.36 26.9883 31.36ZM26.9883 28.06C25.0083 28.06 23.8083 26.77 23.8083 24.49V22.03C23.8083 19.75 25.0083 18.46 26.9883 18.46C28.9683 18.46 30.1683 19.75 30.1683 22.03V24.49C30.1683 26.77 28.9683 28.06 26.9883 28.06ZM38.1966 27.55V31H51.3066V27.55H46.2066V22.21C46.2066 20.47 47.5566 19.6 49.5366 19.6H52.8366V15.52H51.3666C48.5466 15.52 47.0766 17.5 46.4166 19.54H46.2066V15.52H38.1966V18.97H41.7666V27.55H38.1966ZM65.7548 28.18V31H70.1948V8.8H65.7548V18.34H65.5448C64.7648 16.48 63.4448 15.16 60.9548 15.16C57.5348 15.16 55.1348 17.65 55.1348 23.26C55.1348 28.87 57.5348 31.36 60.9548 31.36C63.4448 31.36 64.7648 30.04 65.5448 28.18H65.7548ZM62.8748 27.91C60.8948 27.91 59.7548 26.62 59.7548 24.46V22.06C59.7548 19.9 60.8948 18.61 62.8748 18.61C64.4348 18.61 65.7548 19.36 65.7548 20.98V25.54C65.7548 27.16 64.4348 27.91 62.8748 27.91ZM81.3731 31.36C84.7031 31.36 86.8031 30.1 88.0031 28.63L85.6031 26.02C84.6431 27.16 83.3531 27.94 81.5231 27.94C79.1531 27.94 77.8631 26.59 77.8631 24.61V24.34H88.4531V23.02C88.4531 18.19 85.6031 15.16 80.9831 15.16C76.3331 15.16 73.4531 18.25 73.4531 23.32C73.4531 28.27 76.1831 31.36 81.3731 31.36ZM81.0131 18.34C82.9331 18.34 84.1031 19.6 84.1031 21.61V21.85H77.8631V21.61C77.8631 19.63 79.0931 18.34 81.0131 18.34ZM92.1614 27.55V31H105.271V27.55H100.171V22.21C100.171 20.47 101.521 19.6 103.501 19.6H106.801V15.52H105.331C102.511 15.52 101.041 17.5 100.381 19.54H100.171V15.52H92.1614V18.97H95.7314V27.55H92.1614ZM116.75 31.36C121.34 31.36 123.95 29.32 123.95 26.11C123.95 23.17 121.76 22 118.97 21.58L116.51 21.19C115.31 21.01 114.59 20.74 114.59 19.84C114.59 18.82 115.49 18.28 117.17 18.28C119.18 18.28 120.65 19.06 121.55 20.05L123.77 17.53C122.48 16.03 120.35 15.16 117.32 15.16C112.85 15.16 110.24 17.11 110.24 20.35C110.24 23.29 112.43 24.46 115.19 24.88L117.68 25.27C118.88 25.45 119.6 25.72 119.6 26.59C119.6 27.7 118.52 28.24 116.78 28.24C114.71 28.24 113.09 27.46 111.89 26.14L109.4 28.45C110.66 30.25 113.33 31.36 116.75 31.36ZM135.338 31.36C138.668 31.36 140.768 30.1 141.968 28.63L139.568 26.02C138.608 27.16 137.318 27.94 135.488 27.94C133.118 27.94 131.828 26.59 131.828 24.61V24.34H142.418V23.02C142.418 18.19 139.568 15.16 134.948 15.16C130.298 15.16 127.418 18.25 127.418 23.32C127.418 28.27 130.148 31.36 135.338 31.36ZM134.978 18.34C136.898 18.34 138.068 19.6 138.068 21.61V21.85H131.828V21.61C131.828 19.63 133.058 18.34 134.978 18.34ZM153.866 13.54C155.846 13.54 156.536 12.61 156.536 11.44V10.57C156.536 9.37 155.846 8.47 153.866 8.47C151.886 8.47 151.196 9.37 151.196 10.57V11.44C151.196 12.61 151.886 13.54 153.866 13.54ZM146.726 27.55V31H160.646V27.55H156.086V15.52H146.726V18.97H151.646V27.55H146.726ZM172.095 31H177.825V27.55H171.795V18.97H177.825V15.52H171.795V10.06H167.715V13.69C167.715 15.07 167.205 15.52 165.885 15.52H163.155V18.97H167.355V26.53C167.355 29.14 168.885 31 172.095 31ZM189.303 31.36C192.633 31.36 194.733 30.1 195.933 28.63L193.533 26.02C192.573 27.16 191.283 27.94 189.453 27.94C187.083 27.94 185.793 26.59 185.793 24.61V24.34H196.383V23.02C196.383 18.19 193.533 15.16 188.913 15.16C184.263 15.16 181.383 18.25 181.383 23.32C181.383 28.27 184.113 31.36 189.303 31.36ZM188.943 18.34C190.863 18.34 192.033 19.6 192.033 21.61V21.85H185.793V21.61C185.793 19.63 187.023 18.34 188.943 18.34Z" transform="translate(234 839)" fill="white"/>
<path d="M6.72 31V23.23H8.79L12.3 31H17.22L13.11 22.63C15.45 21.97 16.8 19.66 16.8 16.72C16.8 12.67 14.49 10.06 10.38 10.06H2.28V31H6.72ZM9.3 19.75H6.72V13.69H9.3C11.4 13.69 12.12 14.44 12.12 16.27V17.17C12.12 19 11.4 19.75 9.3 19.75ZM23.6283 13.27C25.4283 13.27 26.0583 12.43 26.0583 11.38V10.6C26.0583 9.55 25.4283 8.74 23.6283 8.74C21.8583 8.74 21.2283 9.55 21.2283 10.6V11.38C21.2283 12.43 21.8583 13.27 23.6283 13.27ZM30.2283 13.27C31.9983 13.27 32.6283 12.43 32.6283 11.38V10.6C32.6283 9.55 31.9983 8.74 30.2283 8.74C28.4283 8.74 27.7983 9.55 27.7983 10.6V11.38C27.7983 12.43 28.4283 13.27 30.2283 13.27ZM29.5983 28.18V31H34.0383V15.52H29.5983V25.69C29.5983 27.19 28.2483 27.94 26.8683 27.94C25.1283 27.94 24.2583 26.89 24.2583 24.94V15.52H19.8183V25.54C19.8183 29.29 21.8883 31.36 24.8583 31.36C27.3483 31.36 28.7283 29.92 29.4183 28.18H29.5983ZM45.6066 31.36C49.0566 31.36 51.1566 29.83 52.2666 27.58L48.9066 25.66C48.2466 26.92 47.3466 27.82 45.6366 27.82C43.5366 27.82 42.3966 26.56 42.3966 24.52V22C42.3966 19.96 43.5666 18.7 45.5766 18.7C47.2266 18.7 48.0666 19.6 48.6066 20.8L52.0266 18.94C50.9466 16.69 48.9666 15.16 45.5766 15.16C40.7466 15.16 37.7766 18.25 37.7766 23.26C37.7766 28.27 40.7166 31.36 45.6066 31.36ZM55.9148 8.8V31H60.3548V25.63L61.8248 24.16L66.3248 31H71.6048L64.9748 21.64L70.9748 15.52H65.8748L62.6348 18.97L60.5648 21.4H60.3548V8.8H55.9148ZM80.7731 31.36C85.3631 31.36 87.9731 29.32 87.9731 26.11C87.9731 23.17 85.7831 22 82.9931 21.58L80.5331 21.19C79.3331 21.01 78.6131 20.74 78.6131 19.84C78.6131 18.82 79.5131 18.28 81.1931 18.28C83.2031 18.28 84.6731 19.06 85.5731 20.05L87.7931 17.53C86.5031 16.03 84.3731 15.16 81.3431 15.16C76.8731 15.16 74.2631 17.11 74.2631 20.35C74.2631 23.29 76.4531 24.46 79.2131 24.88L81.7031 25.27C82.9031 25.45 83.6231 25.72 83.6231 26.59C83.6231 27.7 82.5431 28.24 80.8031 28.24C78.7331 28.24 77.1131 27.46 75.9131 26.14L73.4231 28.45C74.6831 30.25 77.3531 31.36 80.7731 31.36ZM99.3614 31.36C102.691 31.36 104.791 30.1 105.991 28.63L103.591 26.02C102.631 27.16 101.341 27.94 99.5114 27.94C97.1414 27.94 95.8514 26.59 95.8514 24.61V24.34H106.441V23.02C106.441 18.19 103.591 15.16 98.9714 15.16C94.3214 15.16 91.4414 18.25 91.4414 23.32C91.4414 28.27 94.1714 31.36 99.3614 31.36ZM99.0014 18.34C100.921 18.34 102.091 19.6 102.091 21.61V21.85H95.8514V21.61C95.8514 19.63 97.0814 18.34 99.0014 18.34ZM117.89 13.54C119.87 13.54 120.56 12.61 120.56 11.44V10.57C120.56 9.37 119.87 8.47 117.89 8.47C115.91 8.47 115.22 9.37 115.22 10.57V11.44C115.22 12.61 115.91 13.54 117.89 13.54ZM110.75 27.55V31H124.67V27.55H120.11V15.52H110.75V18.97H115.67V27.55H110.75ZM136.118 31H141.848V27.55H135.818V18.97H141.848V15.52H135.818V10.06H131.738V13.69C131.738 15.07 131.228 15.52 129.908 15.52H127.178V18.97H131.378V26.53C131.378 29.14 132.908 31 136.118 31ZM153.326 31.36C156.656 31.36 158.756 30.1 159.956 28.63L157.556 26.02C156.596 27.16 155.306 27.94 153.476 27.94C151.106 27.94 149.816 26.59 149.816 24.61V24.34H160.406V23.02C160.406 18.19 157.556 15.16 152.936 15.16C148.286 15.16 145.406 18.25 145.406 23.32C145.406 28.27 148.136 31.36 153.326 31.36ZM152.966 18.34C154.886 18.34 156.056 19.6 156.056 21.61V21.85H149.816V21.61C149.816 19.63 151.046 18.34 152.966 18.34Z" transform="translate(1321 839)" fill="white"/>
<path fill-rule="evenodd" clip-rule="evenodd" d="M0 0.16C0 0.103995 0 0.0759921 0.0108993 0.0546009C0.0204867 0.0357847 0.0357847 0.0204867 0.0546009 0.0108993C0.0759921 0 0.103995 0 0.16 0H426.84C426.896 0 426.924 0 426.945 0.0108993C426.964 0.0204867 426.98 0.0357847 426.989 0.0546009C427 0.0759921 427 0.103995 427 0.16V425.84C427 425.896 427 425.924 426.989 425.945C426.98 425.964 426.964 425.98 426.945 425.989C426.924 426 426.896 426 426.84 426H0.16C0.103995 426 0.0759921 426 0.0546009 425.989C0.0357847 425.98 0.0204867 425.964 0.0108993 425.945C0 425.924 0 425.896 0 425.84V0.16Z" transform="translate(144 361)" stroke="white" stroke-width="4"/>
<path fill-rule="evenodd" clip-rule="evenodd" d="M0.311255 107C0.214047 107 0.173993 106.875 0.253012 106.819L149.333 0H575.689C575.786 0 575.826 0.124669 575.747 0.181287L426.667 107H0.311255Z" transform="translate(144 254)" stroke="white" stroke-width="4"/>
<path fill-rule="evenodd" clip-rule="evenodd" d="M0 532.805C0 532.887 0.0921746 532.934 0.158335 532.886L148.789 426.138V0.194606C148.789 0.113214 148.697 0.065915 148.631 0.113303L0 106.548V532.805Z" transform="translate(571 254)" stroke="white" stroke-width="4"/>
<path fill-rule="evenodd" clip-rule="evenodd" d="M0 0.16C0 0.103995 0 0.0759921 0.0108993 0.0546009C0.0204867 0.0357847 0.0357847 0.0204867 0.0546009 0.0108993C0.0759921 0 0.103995 0 0.16 0H426.84C426.896 0 426.924 0 426.945 0.0108993C426.964 0.0204867 426.98 0.0357847 426.989 0.0546009C427 0.0759921 427 0.103995 427 0.16V425.84C427 425.896 427 425.924 426.989 425.945C426.98 425.964 426.964 425.98 426.945 425.989C426.924 426 426.896 426 426.84 426H0.16C0.103995 426 0.0759921 426 0.0546009 425.989C0.0357847 425.98 0.0204867 425.964 0.0108993 425.945C0 425.924 0 425.896 0 425.84V0.16Z" transform="translate(1195 361)" stroke="white" stroke-width="4"/>
<path fill-rule="evenodd" clip-rule="evenodd" d="M0.311255 107C0.214047 107 0.173993 106.875 0.253012 106.819L149.333 0H575.689C575.786 0 575.826 0.124669 575.747 0.181287L426.667 107H0.311255Z" transform="translate(1195 254)" stroke="white" stroke-width="4"/>
<path fill-rule="evenodd" clip-rule="evenodd" d="M0 532.805C0 532.887 0.0921746 532.934 0.158335 532.886L148.789 426.138V0.194606C148.789 0.113214 148.697 0.065915 148.631 0.113303L0 106.548V532.805Z" transform="translate(1622 254)" stroke="white" stroke-width="4"/>
<path fill-rule="evenodd" clip-rule="evenodd" d="M120.853 98.1958C120.853 98.1958 140.559 88.1652 158.089 61.3926C175.619 34.62 183.044 0 183.044 0L34.1602 0.742188L0 98.1958H120.853Z" transform="translate(1308.59 531)" stroke="white" stroke-width="4"/>
<path fill-rule="evenodd" clip-rule="evenodd" d="M62.1752 0C62.1752 0 39.0277 3.8872 18.3705 36.5078C-2.28657 69.1284 0.284608 97.7344 0.284608 97.7344H149.3C149.3 97.7344 135.892 61.3316 149.3 36.5078C162.708 11.6841 202.089 0 202.089 0H62.1752Z" transform="translate(1278.22 531.461)" fill="white" stroke="white" stroke-width="4"/>
<path d="M0 1H118.5" transform="translate(646.83 268.49) rotate(-30)" stroke="#C5C4C0" stroke-width="7" stroke-linecap="square"/>
<path d="M0 22.9692H23.7688V0" transform="translate(671.742 255.542) rotate(105)" stroke="#C5C4C0" stroke-width="7" stroke-linecap="square"/>
<path d="M0 1H118.5" transform="translate(646.83 337.49) rotate(-30)" stroke="#C5C4C0" stroke-width="7" stroke-linecap="square"/>
<path d="M0 22.9692H23.7688V0" transform="translate(671.742 324.542) rotate(105)" stroke="#C5C4C0" stroke-width="7" stroke-linecap="square"/>
<path d="M0 1H118.5" transform="translate(646.83 412.49) rotate(-30)" stroke="#C5C4C0" stroke-width="7" stroke-linecap="square"/>
<path d="M0 22.9692H23.7688V0" transform="translate(671.742 399.542) rotate(105)" stroke="#C5C4C0" stroke-width="7" stroke-linecap="square"/>
<path d="M0 1H118.5" transform="translate(646.83 479.49) rotate(-30)" stroke="#C5C4C0" stroke-width="7" stroke-linecap="square"/>
<path d="M0 22.9692H23.7688V0" transform="translate(671.742 466.542) rotate(105)" stroke="#C5C4C0" stroke-width="7" stroke-linecap="square"/>
<path d="M0 1H118.5" transform="translate(646.83 553.49) rotate(-30)" stroke="#C5C4C0" stroke-width="7" stroke-linecap="square"/>
<path d="M0 22.9692H23.7688V0" transform="translate(671.742 540.542) rotate(105)" stroke="#C5C4C0" stroke-width="7" stroke-linecap="square"/>
<path d="M0 1H118.5" transform="translate(646.83 621.49) rotate(-30)" stroke="#C5C4C0" stroke-width="7" stroke-linecap="square"/>
<path d="M0 22.9692H23.7688V0" transform="translate(671.742 608.542) rotate(105)" stroke="#C5C4C0" stroke-width="7" stroke-linecap="square"/>
<path d="M0 1H175.628" transform="translate(1315.56 667.955) rotate(150)" stroke="#C5C4C0" stroke-width="7" stroke-linecap="square"/>
<path d="M0 22.9692H23.7688V0" transform="translate(1290.65 680.903) rotate(-75)" stroke="#C5C4C0" stroke-width="7" stroke-linecap="square"/>
<path d="M0 1H78.5" transform="translate(352 619) rotate(90)" stroke="#C5C4C0" stroke-width="7" stroke-linecap="square"/>
<path d="M0 22.9692H23.7688V0" transform="translate(350.758 647.049) rotate(-135)" stroke="#C5C4C0" stroke-width="7" stroke-linecap="square"/>
<path d="M0 1H78.5" transform="translate(439 283) rotate(-90)" stroke="#C5C4C0" stroke-width="7" stroke-linecap="square"/>
<path d="M0 22.9692H23.7688V0" transform="translate(440.242 254.951) rotate(45)" stroke="#C5C4C0" stroke-width="7" stroke-linecap="square"/>
<path d="M9 31.36C4.12 31.36 1.68 27.75 1.68 20.53C1.68 13.31 4.12 9.7 9 9.7C13.88 9.7 16.32 13.31 16.32 20.53C16.32 27.75 13.88 31.36 9 31.36ZM9 29.17C10.6 29.17 11.77 28.57 12.51 27.37C13.27 26.15 13.65 24.44 13.65 22.24V18.82C13.65 16.62 13.27 14.92 12.51 13.72C11.77 12.5 10.6 11.89 9 11.89C7.4 11.89 6.22 12.5 5.46 13.72C4.72 14.92 4.35 16.62 4.35 18.82V22.24C4.35 24.44 4.72 26.15 5.46 27.37C6.22 28.57 7.4 29.17 9 29.17ZM21.5883 10.06H24.1083V28.81H34.0383V31H21.5883V10.06ZM38.6766 10.06H51.5766V12.25H41.1966V19.3H51.2166V21.49H41.1966V28.81H51.5766V31H38.6766V10.06ZM62.6648 10.06C65.2048 10.06 67.1048 10.94 68.3648 12.7C69.6448 14.46 70.2848 17.07 70.2848 20.53C70.2848 23.99 69.6448 26.6 68.3648 28.36C67.1048 30.12 65.2048 31 62.6648 31H56.8148V10.06H62.6648ZM62.5448 28.81C64.1848 28.81 65.4348 28.23 66.2948 27.07C67.1748 25.91 67.6148 24.27 67.6148 22.15V18.91C67.6148 16.79 67.1748 15.15 66.2948 13.99C65.4348 12.83 64.1848 12.25 62.5448 12.25H59.3348V28.81H62.5448ZM76.6031 20.62H85.3031V23.14H76.6031V20.62ZM98.6414 10.06C101.181 10.06 103.081 10.94 104.341 12.7C105.621 14.46 106.261 17.07 106.261 20.53C106.261 23.99 105.621 26.6 104.341 28.36C103.081 30.12 101.181 31 98.6414 31H92.7914V10.06H98.6414ZM98.5214 28.81C100.161 28.81 101.411 28.23 102.271 27.07C103.151 25.91 103.591 24.27 103.591 22.15V18.91C103.591 16.79 103.151 15.15 102.271 13.99C101.411 12.83 100.161 12.25 98.5214 12.25H95.3114V28.81H98.5214ZM117.89 12.1C117.23 12.1 116.75 11.96 116.45 11.68C116.15 11.4 116 11.03 116 10.57V10.09C116 9.63 116.15 9.26 116.45 8.98C116.75 8.7 117.23 8.56 117.89 8.56C118.55 8.56 119.03 8.7 119.33 8.98C119.63 9.26 119.78 9.63 119.78 10.09V10.57C119.78 11.03 119.63 11.4 119.33 11.68C119.03 11.96 118.55 12.1 117.89 12.1ZM116.69 28.96V17.56H111.11V15.52H119.09V28.96H124.31V31H111.11V28.96H116.69ZM135.098 31.36C132.098 31.36 129.708 30.35 127.928 28.33L129.548 26.92C130.308 27.74 131.138 28.35 132.038 28.75C132.938 29.15 133.978 29.35 135.158 29.35C136.418 29.35 137.418 29.13 138.158 28.69C138.898 28.23 139.268 27.56 139.268 26.68C139.268 25.94 139.028 25.41 138.548 25.09C138.068 24.77 137.398 24.55 136.538 24.43L134.108 24.07C133.128 23.93 132.268 23.74 131.528 23.5C130.788 23.24 130.148 22.82 129.608 22.24C129.068 21.64 128.798 20.82 128.798 19.78C128.798 18.28 129.368 17.14 130.508 16.36C131.648 15.56 133.158 15.16 135.038 15.16C137.678 15.16 139.778 15.99 141.338 17.65L139.778 19.12C138.698 17.82 137.088 17.17 134.948 17.17C133.728 17.17 132.788 17.38 132.128 17.8C131.488 18.22 131.168 18.83 131.168 19.63C131.168 20.37 131.408 20.9 131.888 21.22C132.388 21.54 133.058 21.76 133.898 21.88L136.328 22.24C137.328 22.38 138.198 22.58 138.938 22.84C139.678 23.08 140.308 23.5 140.828 24.1C141.368 24.68 141.638 25.49 141.638 26.53C141.638 28.05 141.048 29.24 139.868 30.1C138.688 30.94 137.098 31.36 135.098 31.36ZM149.156 15.52V18.04H149.276C150.276 16.12 151.866 15.16 154.046 15.16C155.946 15.16 157.426 15.88 158.486 17.32C159.566 18.74 160.106 20.72 160.106 23.26C160.106 25.8 159.566 27.79 158.486 29.23C157.426 30.65 155.946 31.36 154.046 31.36C151.866 31.36 150.276 30.4 149.276 28.48H149.156V37H146.756V15.52H149.156ZM153.116 29.23C154.496 29.23 155.576 28.81 156.356 27.97C157.136 27.13 157.526 26 157.526 24.58V21.94C157.526 20.52 157.136 19.39 156.356 18.55C155.576 17.71 154.496 17.29 153.116 17.29C151.996 17.29 151.056 17.57 150.296 18.13C149.536 18.69 149.156 19.47 149.156 20.47V26.05C149.156 27.05 149.536 27.83 150.296 28.39C151.056 28.95 151.996 29.23 153.116 29.23ZM169.695 28.96V10.84H164.295V8.8H172.095V28.96H177.495V31H164.295V28.96H169.695ZM194.733 31C193.113 31 192.193 30.16 191.973 28.48H191.823C191.103 30.4 189.553 31.36 187.173 31.36C185.553 31.36 184.263 30.94 183.303 30.1C182.343 29.26 181.863 28.11 181.863 26.65C181.863 23.65 184.083 22.15 188.523 22.15H191.823V20.62C191.823 19.5 191.503 18.65 190.863 18.07C190.223 17.49 189.313 17.2 188.133 17.2C186.253 17.2 184.873 17.96 183.993 19.48L182.373 18.28C182.793 17.4 183.513 16.66 184.533 16.06C185.553 15.46 186.803 15.16 188.283 15.16C190.103 15.16 191.543 15.63 192.603 16.57C193.683 17.49 194.223 18.76 194.223 20.38V28.9H196.383V31H194.733ZM187.593 29.35C188.813 29.35 189.823 29.08 190.623 28.54C191.423 27.98 191.823 27.3 191.823 26.5V23.95H188.523C185.763 23.95 184.383 24.73 184.383 26.29V26.92C184.383 27.7 184.663 28.3 185.223 28.72C185.803 29.14 186.593 29.35 187.593 29.35ZM214.281 15.52L206.601 34.39C206.221 35.33 205.741 36 205.161 36.4C204.601 36.8 203.761 37 202.641 37H200.361V34.96H203.961L205.701 30.7L199.461 15.52H201.921L204.531 22L206.841 27.88H206.961L209.271 22L211.881 15.52H214.281Z" transform="translate(242 717)" fill="white"/>
<path d="M9.75 10.06C11.53 10.06 12.93 10.55 13.95 11.53C14.99 12.51 15.51 13.82 15.51 15.46C15.51 16.66 15.22 17.63 14.64 18.37C14.06 19.11 13.26 19.64 12.24 19.96V20.05C13.5 20.33 14.49 20.88 15.21 21.7C15.93 22.5 16.29 23.59 16.29 24.97C16.29 26.09 16.04 27.11 15.54 28.03C15.06 28.95 14.39 29.68 13.53 30.22C12.67 30.74 11.71 31 10.65 31H2.64V10.06H9.75ZM9.48 19.15C10.56 19.15 11.39 18.91 11.97 18.43C12.57 17.95 12.87 17.24 12.87 16.3V15.13C12.87 14.19 12.57 13.48 11.97 13C11.39 12.5 10.56 12.25 9.48 12.25H5.16V19.15H9.48ZM9.9 28.81C11.08 28.81 11.99 28.54 12.63 28C13.29 27.46 13.62 26.67 13.62 25.63V24.4C13.62 23.36 13.29 22.57 12.63 22.03C11.99 21.49 11.08 21.22 9.9 21.22H5.16V28.81H9.9ZM25.7883 28.96V10.84H20.3883V8.8H28.1883V28.96H33.5883V31H20.3883V28.96H25.7883ZM48.5166 28.48C47.6966 30.4 46.2266 31.36 44.1066 31.36C42.4666 31.36 41.1566 30.84 40.1766 29.8C39.2166 28.76 38.7366 27.31 38.7366 25.45V15.52H41.1366V25.03C41.1366 26.43 41.4466 27.48 42.0666 28.18C42.6866 28.88 43.5966 29.23 44.7966 29.23C45.8566 29.23 46.7566 28.98 47.4966 28.48C48.2566 27.96 48.6366 27.22 48.6366 26.26V15.52H51.0366V31H48.6366V28.48H48.5166ZM63.2348 31.36C61.7748 31.36 60.4948 31.03 59.3948 30.37C58.2948 29.71 57.4448 28.77 56.8448 27.55C56.2648 26.33 55.9748 24.91 55.9748 23.29C55.9748 21.67 56.2748 20.25 56.8748 19.03C57.4748 17.79 58.3048 16.84 59.3648 16.18C60.4448 15.5 61.6848 15.16 63.0848 15.16C64.4448 15.16 65.6448 15.49 66.6848 16.15C67.7248 16.79 68.5248 17.68 69.0848 18.82C69.6648 19.96 69.9548 21.26 69.9548 22.72V23.86H58.4948V24.58C58.4948 25.96 58.9248 27.09 59.7848 27.97C60.6448 28.85 61.7948 29.29 63.2348 29.29C64.2548 29.29 65.1448 29.06 65.9048 28.6C66.6648 28.12 67.2548 27.45 67.6748 26.59L69.4448 27.79C68.9648 28.87 68.1748 29.74 67.0748 30.4C65.9948 31.04 64.7148 31.36 63.2348 31.36ZM63.0848 17.14C62.2248 17.14 61.4448 17.35 60.7448 17.77C60.0448 18.17 59.4948 18.73 59.0948 19.45C58.6948 20.17 58.4948 20.97 58.4948 21.85V22.06H67.3748V21.73C67.3748 20.37 66.9748 19.27 66.1748 18.43C65.3948 17.57 64.3648 17.14 63.0848 17.14ZM81.7031 31C80.5831 31 79.7331 30.68 79.1531 30.04C78.5731 29.4 78.2831 28.54 78.2831 27.46V17.56H73.1231V15.52H76.9631C77.4831 15.52 77.8431 15.42 78.0431 15.22C78.2631 15 78.3731 14.63 78.3731 14.11V10.06H80.6831V15.52H87.7331V17.56H80.6831V28.96H87.7331V31H81.7031ZM98.9414 31.36C97.5014 31.36 96.2514 31.03 95.1914 30.37C94.1514 29.71 93.3414 28.77 92.7614 27.55C92.2014 26.33 91.9214 24.9 91.9214 23.26C91.9214 21.62 92.2014 20.19 92.7614 18.97C93.3414 17.75 94.1514 16.81 95.1914 16.15C96.2514 15.49 97.5014 15.16 98.9414 15.16C100.381 15.16 101.621 15.49 102.661 16.15C103.721 16.81 104.531 17.75 105.091 18.97C105.671 20.19 105.961 21.62 105.961 23.26C105.961 24.9 105.671 26.33 105.091 27.55C104.531 28.77 103.721 29.71 102.661 30.37C101.621 31.03 100.381 31.36 98.9414 31.36ZM98.9414 29.29C100.321 29.29 101.411 28.88 102.211 28.06C103.011 27.22 103.411 25.99 103.411 24.37V22.15C103.411 20.53 103.011 19.31 102.211 18.49C101.411 17.65 100.321 17.23 98.9414 17.23C97.5614 17.23 96.4714 17.65 95.6714 18.49C94.8714 19.31 94.4714 20.53 94.4714 22.15V24.37C94.4714 25.99 94.8714 27.22 95.6714 28.06C96.4714 28.88 97.5614 29.29 98.9414 29.29ZM116.93 31.36C115.49 31.36 114.24 31.03 113.18 30.37C112.14 29.71 111.33 28.77 110.75 27.55C110.19 26.33 109.91 24.9 109.91 23.26C109.91 21.62 110.19 20.19 110.75 18.97C111.33 17.75 112.14 16.81 113.18 16.15C114.24 15.49 115.49 15.16 116.93 15.16C118.37 15.16 119.61 15.49 120.65 16.15C121.71 16.81 122.52 17.75 123.08 18.97C123.66 20.19 123.95 21.62 123.95 23.26C123.95 24.9 123.66 26.33 123.08 27.55C122.52 28.77 121.71 29.71 120.65 30.37C119.61 31.03 118.37 31.36 116.93 31.36ZM116.93 29.29C118.31 29.29 119.4 28.88 120.2 28.06C121 27.22 121.4 25.99 121.4 24.37V22.15C121.4 20.53 121 19.31 120.2 18.49C119.4 17.65 118.31 17.23 116.93 17.23C115.55 17.23 114.46 17.65 113.66 18.49C112.86 19.31 112.46 20.53 112.46 22.15V24.37C112.46 25.99 112.86 27.22 113.66 28.06C114.46 28.88 115.55 29.29 116.93 29.29ZM135.668 31C134.548 31 133.698 30.68 133.118 30.04C132.538 29.4 132.248 28.54 132.248 27.46V17.56H127.088V15.52H130.928C131.448 15.52 131.808 15.42 132.008 15.22C132.228 15 132.338 14.63 132.338 14.11V10.06H134.648V15.52H141.698V17.56H134.648V28.96H141.698V31H135.668ZM149.246 8.8V18.04H149.366C150.186 16.12 151.656 15.16 153.776 15.16C155.416 15.16 156.716 15.68 157.676 16.72C158.656 17.76 159.146 19.21 159.146 21.07V31H156.746V21.49C156.746 20.09 156.436 19.04 155.816 18.34C155.196 17.64 154.286 17.29 153.086 17.29C152.026 17.29 151.116 17.55 150.356 18.07C149.616 18.57 149.246 19.3 149.246 20.26V31H146.846V8.8H149.246Z" transform="translate(781 179)" fill="white"/>
<path d="M10.26 31H7.74V12.25H0.75V10.06H17.25V12.25H10.26V31ZM26.9883 31.36C25.5483 31.36 24.2983 31.03 23.2383 30.37C22.1983 29.71 21.3883 28.77 20.8083 27.55C20.2483 26.33 19.9683 24.9 19.9683 23.26C19.9683 21.62 20.2483 20.19 20.8083 18.97C21.3883 17.75 22.1983 16.81 23.2383 16.15C24.2983 15.49 25.5483 15.16 26.9883 15.16C28.4283 15.16 29.6683 15.49 30.7083 16.15C31.7683 16.81 32.5783 17.75 33.1383 18.97C33.7183 20.19 34.0083 21.62 34.0083 23.26C34.0083 24.9 33.7183 26.33 33.1383 27.55C32.5783 28.77 31.7683 29.71 30.7083 30.37C29.6683 31.03 28.4283 31.36 26.9883 31.36ZM26.9883 29.29C28.3683 29.29 29.4583 28.88 30.2583 28.06C31.0583 27.22 31.4583 25.99 31.4583 24.37V22.15C31.4583 20.53 31.0583 19.31 30.2583 18.49C29.4583 17.65 28.3683 17.23 26.9883 17.23C25.6083 17.23 24.5183 17.65 23.7183 18.49C22.9183 19.31 22.5183 20.53 22.5183 22.15V24.37C22.5183 25.99 22.9183 27.22 23.7183 28.06C24.5183 28.88 25.6083 29.29 26.9883 29.29ZM48.5166 28.48C47.6966 30.4 46.2266 31.36 44.1066 31.36C42.4666 31.36 41.1566 30.84 40.1766 29.8C39.2166 28.76 38.7366 27.31 38.7366 25.45V15.52H41.1366V25.03C41.1366 26.43 41.4466 27.48 42.0666 28.18C42.6866 28.88 43.5966 29.23 44.7966 29.23C45.8566 29.23 46.7566 28.98 47.4966 28.48C48.2566 27.96 48.6366 27.22 48.6366 26.26V15.52H51.0366V31H48.6366V28.48H48.5166ZM63.5048 31.36C61.3048 31.36 59.5848 30.63 58.3448 29.17C57.1048 27.71 56.4848 25.74 56.4848 23.26C56.4848 20.78 57.1048 18.81 58.3448 17.35C59.5848 15.89 61.2948 15.16 63.4748 15.16C64.9148 15.16 66.1148 15.48 67.0748 16.12C68.0348 16.76 68.7448 17.63 69.2048 18.73L67.2848 19.75C67.0048 18.95 66.5348 18.33 65.8748 17.89C65.2148 17.45 64.4148 17.23 63.4748 17.23C62.0948 17.23 61.0148 17.67 60.2348 18.55C59.4548 19.41 59.0648 20.54 59.0648 21.94V24.58C59.0648 25.98 59.4548 27.12 60.2348 28C61.0148 28.86 62.1148 29.29 63.5348 29.29C65.4948 29.29 66.8948 28.39 67.7348 26.59L69.4448 27.76C68.9648 28.86 68.2248 29.74 67.2248 30.4C66.2248 31.04 64.9848 31.36 63.5048 31.36ZM77.2931 8.8V18.04H77.4131C78.2331 16.12 79.7031 15.16 81.8231 15.16C83.4631 15.16 84.7631 15.68 85.7231 16.72C86.7031 17.76 87.1931 19.21 87.1931 21.07V31H84.7931V21.49C84.7931 20.09 84.4831 19.04 83.8631 18.34C83.2431 17.64 82.3331 17.29 81.1331 17.29C80.0731 17.29 79.1631 17.55 78.4031 18.07C77.6631 18.57 77.2931 19.3 77.2931 20.26V31H74.8931V8.8H77.2931ZM116.87 31.36C115.09 31.36 113.59 31.04 112.37 30.4C111.15 29.74 110.12 28.83 109.28 27.67L111.11 26.17C111.93 27.21 112.8 27.98 113.72 28.48C114.64 28.96 115.72 29.2 116.96 29.2C118.46 29.2 119.61 28.85 120.41 28.15C121.23 27.45 121.64 26.47 121.64 25.21C121.64 24.17 121.34 23.37 120.74 22.81C120.14 22.25 119.14 21.85 117.74 21.61L115.4 21.22C113.48 20.9 112.1 20.24 111.26 19.24C110.42 18.22 110 16.98 110 15.52C110 13.64 110.62 12.2 111.86 11.2C113.1 10.2 114.81 9.7 116.99 9.7C120.17 9.7 122.51 10.77 124.01 12.91L122.24 14.44C121.6 13.6 120.86 12.96 120.02 12.52C119.2 12.08 118.18 11.86 116.96 11.86C115.54 11.86 114.45 12.17 113.69 12.79C112.93 13.39 112.55 14.28 112.55 15.46C112.55 16.44 112.84 17.22 113.42 17.8C114.02 18.38 115.04 18.79 116.48 19.03L118.73 19.42C122.37 20.06 124.19 21.97 124.19 25.15C124.19 27.09 123.55 28.61 122.27 29.71C120.99 30.81 119.19 31.36 116.87 31.36ZM135.188 31.36C133.728 31.36 132.448 31.03 131.348 30.37C130.248 29.71 129.398 28.77 128.798 27.55C128.218 26.33 127.928 24.91 127.928 23.29C127.928 21.67 128.228 20.25 128.828 19.03C129.428 17.79 130.258 16.84 131.318 16.18C132.398 15.5 133.638 15.16 135.038 15.16C136.398 15.16 137.598 15.49 138.638 16.15C139.678 16.79 140.478 17.68 141.038 18.82C141.618 19.96 141.908 21.26 141.908 22.72V23.86H130.448V24.58C130.448 25.96 130.878 27.09 131.738 27.97C132.598 28.85 133.748 29.29 135.188 29.29C136.208 29.29 137.098 29.06 137.858 28.6C138.618 28.12 139.208 27.45 139.628 26.59L141.398 27.79C140.918 28.87 140.128 29.74 139.028 30.4C137.948 31.04 136.668 31.36 135.188 31.36ZM135.038 17.14C134.178 17.14 133.398 17.35 132.698 17.77C131.998 18.17 131.448 18.73 131.048 19.45C130.648 20.17 130.448 20.97 130.448 21.85V22.06H139.328V21.73C139.328 20.37 138.928 19.27 138.128 18.43C137.348 17.57 136.318 17.14 135.038 17.14ZM146.846 15.52H149.246V18.04H149.366C150.186 16.12 151.656 15.16 153.776 15.16C155.416 15.16 156.716 15.68 157.676 16.72C158.656 17.76 159.146 19.21 159.146 21.07V31H156.746V21.49C156.746 20.09 156.436 19.04 155.816 18.34C155.196 17.64 154.286 17.29 153.086 17.29C152.026 17.29 151.116 17.55 150.356 18.07C149.616 18.57 149.246 19.3 149.246 20.26V31H146.846V15.52ZM171.075 31.36C168.075 31.36 165.685 30.35 163.905 28.33L165.525 26.92C166.285 27.74 167.115 28.35 168.015 28.75C168.915 29.15 169.955 29.35 171.135 29.35C172.395 29.35 173.395 29.13 174.135 28.69C174.875 28.23 175.245 27.56 175.245 26.68C175.245 25.94 175.005 25.41 174.525 25.09C174.045 24.77 173.375 24.55 172.515 24.43L170.085 24.07C169.105 23.93 168.245 23.74 167.505 23.5C166.765 23.24 166.125 22.82 165.585 22.24C165.045 21.64 164.775 20.82 164.775 19.78C164.775 18.28 165.345 17.14 166.485 16.36C167.625 15.56 169.135 15.16 171.015 15.16C173.655 15.16 175.755 15.99 177.315 17.65L175.755 19.12C174.675 17.82 173.065 17.17 170.925 17.17C169.705 17.17 168.765 17.38 168.105 17.8C167.465 18.22 167.145 18.83 167.145 19.63C167.145 20.37 167.385 20.9 167.865 21.22C168.365 21.54 169.035 21.76 169.875 21.88L172.305 22.24C173.305 22.38 174.175 22.58 174.915 22.84C175.655 23.08 176.285 23.5 176.805 24.1C177.345 24.68 177.615 25.49 177.615 26.53C177.615 28.05 177.025 29.24 175.845 30.1C174.665 30.94 173.075 31.36 171.075 31.36ZM188.883 31.36C187.443 31.36 186.193 31.03 185.133 30.37C184.093 29.71 183.283 28.77 182.703 27.55C182.143 26.33 181.863 24.9 181.863 23.26C181.863 21.62 182.143 20.19 182.703 18.97C183.283 17.75 184.093 16.81 185.133 16.15C186.193 15.49 187.443 15.16 188.883 15.16C190.323 15.16 191.563 15.49 192.603 16.15C193.663 16.81 194.473 17.75 195.033 18.97C195.613 20.19 195.903 21.62 195.903 23.26C195.903 24.9 195.613 26.33 195.033 27.55C194.473 28.77 193.663 29.71 192.603 30.37C191.563 31.03 190.323 31.36 188.883 31.36ZM188.883 29.29C190.263 29.29 191.353 28.88 192.153 28.06C192.953 27.22 193.353 25.99 193.353 24.37V22.15C193.353 20.53 192.953 19.31 192.153 18.49C191.353 17.65 190.263 17.23 188.883 17.23C187.503 17.23 186.413 17.65 185.613 18.49C184.813 19.31 184.413 20.53 184.413 22.15V24.37C184.413 25.99 184.813 27.22 185.613 28.06C186.413 28.88 187.503 29.29 188.883 29.29ZM204.711 28.96V17.56H200.181V15.52H207.111V18.28H207.261C207.581 17.48 208.131 16.82 208.911 16.3C209.691 15.78 210.691 15.52 211.911 15.52H214.641V17.92H211.431C210.111 17.92 209.061 18.16 208.281 18.64C207.501 19.1 207.111 19.71 207.111 20.47V28.96H213.111V31H200.181V28.96H204.711ZM225.129 31.36C223.669 31.36 222.389 31.03 221.289 30.37C220.189 29.71 219.339 28.77 218.739 27.55C218.159 26.33 217.869 24.91 217.869 23.29C217.869 21.67 218.169 20.25 218.769 19.03C219.369 17.79 220.199 16.84 221.259 16.18C222.339 15.5 223.579 15.16 224.979 15.16C226.339 15.16 227.539 15.49 228.579 16.15C229.619 16.79 230.419 17.68 230.979 18.82C231.559 19.96 231.849 21.26 231.849 22.72V23.86H220.389V24.58C220.389 25.96 220.819 27.09 221.679 27.97C222.539 28.85 223.689 29.29 225.129 29.29C226.149 29.29 227.039 29.06 227.799 28.6C228.559 28.12 229.149 27.45 229.569 26.59L231.339 27.79C230.859 28.87 230.069 29.74 228.969 30.4C227.889 31.04 226.609 31.36 225.129 31.36ZM224.979 17.14C224.119 17.14 223.339 17.35 222.639 17.77C221.939 18.17 221.389 18.73 220.989 19.45C220.589 20.17 220.389 20.97 220.389 21.85V22.06H229.269V21.73C229.269 20.37 228.869 19.27 228.069 18.43C227.289 17.57 226.259 17.14 224.979 17.14ZM236.788 15.52H239.188V18.04H239.308C240.128 16.12 241.598 15.16 243.718 15.16C245.358 15.16 246.658 15.68 247.618 16.72C248.598 17.76 249.088 19.21 249.088 21.07V31H246.688V21.49C246.688 20.09 246.378 19.04 245.758 18.34C245.138 17.64 244.228 17.29 243.028 17.29C241.968 17.29 241.058 17.55 240.298 18.07C239.558 18.57 239.188 19.3 239.188 20.26V31H236.788V15.52Z" transform="translate(340 145)" fill="white"/>
<path d="M2.7 31V10.06H10.32C12.24 10.06 13.71 10.59 14.73 11.65C15.77 12.71 16.29 14.19 16.29 16.09C16.29 17.79 15.84 19.15 14.94 20.17C14.06 21.19 12.79 21.78 11.13 21.94L16.47 31H13.65L8.55 22.06H5.22V31H2.7ZM10.26 19.93C11.32 19.93 12.14 19.67 12.72 19.15C13.32 18.61 13.62 17.85 13.62 16.87V15.31C13.62 14.33 13.32 13.58 12.72 13.06C12.14 12.52 11.32 12.25 10.26 12.25H5.22V19.93H10.26ZM20.6883 10.06H33.8883V12.25H23.2083V19.3H32.9883V21.49H23.2083V31H20.6883V10.06ZM38.4966 28.99H43.7166V12.07H38.4966V10.06H51.4566V12.07H46.2366V28.99H51.4566V31H38.4966V28.99ZM62.6648 10.06C65.2048 10.06 67.1048 10.94 68.3648 12.7C69.6448 14.46 70.2848 17.07 70.2848 20.53C70.2848 23.99 69.6448 26.6 68.3648 28.36C67.1048 30.12 65.2048 31 62.6648 31H56.8148V10.06H62.6648ZM62.5448 28.81C64.1848 28.81 65.4348 28.23 66.2948 27.07C67.1748 25.91 67.6148 24.27 67.6148 22.15V18.91C67.6148 16.79 67.1748 15.15 66.2948 13.99C65.4348 12.83 64.1848 12.25 62.5448 12.25H59.3348V28.81H62.5448Z" transform="translate(781 242)" fill="white"/>
<path d="M12.66 25.03H5.31L3.54 31H0.93L7.35 10.06H10.68L17.1 31H14.43L12.66 25.03ZM8.85 12.73L5.91 22.84H12.06L9.12 12.73H8.85ZM27.5283 31.36C25.3283 31.36 23.6083 30.63 22.3683 29.17C21.1283 27.71 20.5083 25.74 20.5083 23.26C20.5083 20.78 21.1283 18.81 22.3683 17.35C23.6083 15.89 25.3183 15.16 27.4983 15.16C28.9383 15.16 30.1383 15.48 31.0983 16.12C32.0583 16.76 32.7683 17.63 33.2283 18.73L31.3083 19.75C31.0283 18.95 30.5583 18.33 29.8983 17.89C29.2383 17.45 28.4383 17.23 27.4983 17.23C26.1183 17.23 25.0383 17.67 24.2583 18.55C23.4783 19.41 23.0883 20.54 23.0883 21.94V24.58C23.0883 25.98 23.4783 27.12 24.2583 28C25.0383 28.86 26.1383 29.29 27.5583 29.29C29.5183 29.29 30.9183 28.39 31.7583 26.59L33.4683 27.76C32.9883 28.86 32.2483 29.74 31.2483 30.4C30.2483 31.04 29.0083 31.36 27.5283 31.36ZM45.5166 31.36C43.3166 31.36 41.5966 30.63 40.3566 29.17C39.1166 27.71 38.4966 25.74 38.4966 23.26C38.4966 20.78 39.1166 18.81 40.3566 17.35C41.5966 15.89 43.3066 15.16 45.4866 15.16C46.9266 15.16 48.1266 15.48 49.0866 16.12C50.0466 16.76 50.7566 17.63 51.2166 18.73L49.2966 19.75C49.0166 18.95 48.5466 18.33 47.8866 17.89C47.2266 17.45 46.4266 17.23 45.4866 17.23C44.1066 17.23 43.0266 17.67 42.2466 18.55C41.4666 19.41 41.0766 20.54 41.0766 21.94V24.58C41.0766 25.98 41.4666 27.12 42.2466 28C43.0266 28.86 44.1266 29.29 45.5466 29.29C47.5066 29.29 48.9066 28.39 49.7466 26.59L51.4566 27.76C50.9766 28.86 50.2366 29.74 49.2366 30.4C48.2366 31.04 46.9966 31.36 45.5166 31.36ZM63.2348 31.36C61.7748 31.36 60.4948 31.03 59.3948 30.37C58.2948 29.71 57.4448 28.77 56.8448 27.55C56.2648 26.33 55.9748 24.91 55.9748 23.29C55.9748 21.67 56.2748 20.25 56.8748 19.03C57.4748 17.79 58.3048 16.84 59.3648 16.18C60.4448 15.5 61.6848 15.16 63.0848 15.16C64.4448 15.16 65.6448 15.49 66.6848 16.15C67.7248 16.79 68.5248 17.68 69.0848 18.82C69.6648 19.96 69.9548 21.26 69.9548 22.72V23.86H58.4948V24.58C58.4948 25.96 58.9248 27.09 59.7848 27.97C60.6448 28.85 61.7948 29.29 63.2348 29.29C64.2548 29.29 65.1448 29.06 65.9048 28.6C66.6648 28.12 67.2548 27.45 67.6748 26.59L69.4448 27.79C68.9648 28.87 68.1748 29.74 67.0748 30.4C65.9948 31.04 64.7148 31.36 63.2348 31.36ZM63.0848 17.14C62.2248 17.14 61.4448 17.35 60.7448 17.77C60.0448 18.17 59.4948 18.73 59.0948 19.45C58.6948 20.17 58.4948 20.97 58.4948 21.85V22.06H67.3748V21.73C67.3748 20.37 66.9748 19.27 66.1748 18.43C65.3948 17.57 64.3648 17.14 63.0848 17.14ZM79.7531 28.96V10.84H74.3531V8.8H82.1531V28.96H87.5531V31H74.3531V28.96H79.7531ZM99.2114 31.36C97.7514 31.36 96.4714 31.03 95.3714 30.37C94.2714 29.71 93.4214 28.77 92.8214 27.55C92.2414 26.33 91.9514 24.91 91.9514 23.29C91.9514 21.67 92.2514 20.25 92.8514 19.03C93.4514 17.79 94.2814 16.84 95.3414 16.18C96.4214 15.5 97.6614 15.16 99.0614 15.16C100.421 15.16 101.621 15.49 102.661 16.15C103.701 16.79 104.501 17.68 105.061 18.82C105.641 19.96 105.931 21.26 105.931 22.72V23.86H94.4714V24.58C94.4714 25.96 94.9014 27.09 95.7614 27.97C96.6214 28.85 97.7714 29.29 99.2114 29.29C100.231 29.29 101.121 29.06 101.881 28.6C102.641 28.12 103.231 27.45 103.651 26.59L105.421 27.79C104.941 28.87 104.151 29.74 103.051 30.4C101.971 31.04 100.691 31.36 99.2114 31.36ZM99.0614 17.14C98.2014 17.14 97.4214 17.35 96.7214 17.77C96.0214 18.17 95.4714 18.73 95.0714 19.45C94.6714 20.17 94.4714 20.97 94.4714 21.85V22.06H103.351V21.73C103.351 20.37 102.951 19.27 102.151 18.43C101.371 17.57 100.341 17.14 99.0614 17.14ZM114.77 28.96V17.56H110.24V15.52H117.17V18.28H117.32C117.64 17.48 118.19 16.82 118.97 16.3C119.75 15.78 120.75 15.52 121.97 15.52H124.7V17.92H121.49C120.17 17.92 119.12 18.16 118.34 18.64C117.56 19.1 117.17 19.71 117.17 20.47V28.96H123.17V31H110.24V28.96H114.77ZM134.918 31.36C133.478 31.36 132.228 31.03 131.168 30.37C130.128 29.71 129.318 28.77 128.738 27.55C128.178 26.33 127.898 24.9 127.898 23.26C127.898 21.62 128.178 20.19 128.738 18.97C129.318 17.75 130.128 16.81 131.168 16.15C132.228 15.49 133.478 15.16 134.918 15.16C136.358 15.16 137.598 15.49 138.638 16.15C139.698 16.81 140.508 17.75 141.068 18.97C141.648 20.19 141.938 21.62 141.938 23.26C141.938 24.9 141.648 26.33 141.068 27.55C140.508 28.77 139.698 29.71 138.638 30.37C137.598 31.03 136.358 31.36 134.918 31.36ZM134.918 29.29C136.298 29.29 137.388 28.88 138.188 28.06C138.988 27.22 139.388 25.99 139.388 24.37V22.15C139.388 20.53 138.988 19.31 138.188 18.49C137.388 17.65 136.298 17.23 134.918 17.23C133.538 17.23 132.448 17.65 131.648 18.49C130.848 19.31 130.448 20.53 130.448 22.15V24.37C130.448 25.99 130.848 27.22 131.648 28.06C132.448 28.88 133.538 29.29 134.918 29.29ZM146.786 15.52H149.186V18.04H149.306C149.706 17.14 150.226 16.44 150.866 15.94C151.506 15.42 152.376 15.16 153.476 15.16C154.556 15.16 155.516 15.42 156.356 15.94C157.196 16.46 157.816 17.25 158.216 18.31H158.276C158.596 17.39 159.146 16.64 159.926 16.06C160.726 15.46 161.746 15.16 162.986 15.16C164.566 15.16 165.796 15.68 166.676 16.72C167.576 17.76 168.026 19.21 168.026 21.07V31H165.626V21.49C165.626 20.11 165.346 19.07 164.786 18.37C164.246 17.67 163.396 17.32 162.236 17.32C161.216 17.32 160.356 17.58 159.656 18.1C158.956 18.6 158.606 19.32 158.606 20.26V31H156.206V21.49C156.206 20.09 155.936 19.05 155.396 18.37C154.856 17.67 154.016 17.32 152.876 17.32C151.856 17.32 150.986 17.58 150.266 18.1C149.546 18.6 149.186 19.32 149.186 20.26V31H146.786V15.52ZM180.188 31.36C178.728 31.36 177.448 31.03 176.348 30.37C175.248 29.71 174.398 28.77 173.798 27.55C173.218 26.33 172.928 24.91 172.928 23.29C172.928 21.67 173.228 20.25 173.828 19.03C174.428 17.79 175.258 16.84 176.318 16.18C177.398 15.5 178.638 15.16 180.038 15.16C181.398 15.16 182.598 15.49 183.638 16.15C184.678 16.79 185.478 17.68 186.038 18.82C186.618 19.96 186.908 21.26 186.908 22.72V23.86H175.448V24.58C175.448 25.96 175.878 27.09 176.738 27.97C177.598 28.85 178.748 29.29 180.188 29.29C181.208 29.29 182.098 29.06 182.858 28.6C183.618 28.12 184.208 27.45 184.628 26.59L186.398 27.79C185.918 28.87 185.128 29.74 184.028 30.4C182.948 31.04 181.668 31.36 180.188 31.36ZM180.038 17.14C179.178 17.14 178.398 17.35 177.698 17.77C176.998 18.17 176.448 18.73 176.048 19.45C175.648 20.17 175.448 20.97 175.448 21.85V22.06H184.328V21.73C184.328 20.37 183.928 19.27 183.128 18.43C182.348 17.57 181.318 17.14 180.038 17.14ZM198.656 31C197.536 31 196.686 30.68 196.106 30.04C195.526 29.4 195.236 28.54 195.236 27.46V17.56H190.076V15.52H193.916C194.436 15.52 194.796 15.42 194.996 15.22C195.216 15 195.326 14.63 195.326 14.11V10.06H197.636V15.52H204.686V17.56H197.636V28.96H204.686V31H198.656ZM216.165 31.36C214.705 31.36 213.425 31.03 212.325 30.37C211.225 29.71 210.375 28.77 209.775 27.55C209.195 26.33 208.905 24.91 208.905 23.29C208.905 21.67 209.205 20.25 209.805 19.03C210.405 17.79 211.235 16.84 212.295 16.18C213.375 15.5 214.615 15.16 216.015 15.16C217.375 15.16 218.575 15.49 219.615 16.15C220.655 16.79 221.455 17.68 222.015 18.82C222.595 19.96 222.885 21.26 222.885 22.72V23.86H211.425V24.58C211.425 25.96 211.855 27.09 212.715 27.97C213.575 28.85 214.725 29.29 216.165 29.29C217.185 29.29 218.075 29.06 218.835 28.6C219.595 28.12 220.185 27.45 220.605 26.59L222.375 27.79C221.895 28.87 221.105 29.74 220.005 30.4C218.925 31.04 217.645 31.36 216.165 31.36ZM216.015 17.14C215.155 17.14 214.375 17.35 213.675 17.77C212.975 18.17 212.425 18.73 212.025 19.45C211.625 20.17 211.425 20.97 211.425 21.85V22.06H220.305V21.73C220.305 20.37 219.905 19.27 219.105 18.43C218.325 17.57 217.295 17.14 216.015 17.14ZM231.723 28.96V17.56H227.193V15.52H234.123V18.28H234.273C234.593 17.48 235.143 16.82 235.923 16.3C236.703 15.78 237.703 15.52 238.923 15.52H241.653V17.92H238.443C237.123 17.92 236.073 18.16 235.293 18.64C234.513 19.1 234.123 19.71 234.123 20.47V28.96H240.123V31H227.193V28.96H231.723ZM6.51 76.36C5.33 76.36 4.3 76.11 3.42 75.61C2.56 75.09 1.9 74.39 1.44 73.51C0.98 72.63 0.75 71.65 0.75 70.57C0.75 69.37 1.05 68.23 1.65 67.15C2.25 66.07 3.24 65.18 4.62 64.48C4 63.68 3.52 62.9 3.18 62.14C2.84 61.38 2.67 60.59 2.67 59.77C2.67 58.79 2.91 57.92 3.39 57.16C3.89 56.38 4.55 55.78 5.37 55.36C6.21 54.92 7.12 54.7 8.1 54.7C9.34 54.7 10.4 55.02 11.28 55.66C12.16 56.28 12.76 57.02 13.08 57.88L11.1 58.9C10.82 58.24 10.41 57.72 9.87 57.34C9.35 56.94 8.72 56.74 7.98 56.74C7.1 56.74 6.39 57.02 5.85 57.58C5.31 58.12 5.04 58.82 5.04 59.68V59.92C5.04 60.54 5.19 61.15 5.49 61.75C5.81 62.35 6.37 63.15 7.17 64.15L12.06 70.18H12.21C12.35 69.36 12.46 67.89 12.54 65.77L12.6 64.57H16.83V66.58H14.58L14.49 67.24C14.37 68.18 14.24 68.97 14.1 69.61C13.98 70.23 13.78 70.92 13.5 71.68L17.16 76H14.31L11.7 72.91H11.55C11.25 73.97 10.66 74.81 9.78 75.43C8.92 76.05 7.83 76.36 6.51 76.36ZM7.14 74.23C8 74.23 8.76 74.05 9.42 73.69C10.08 73.33 10.6 72.83 10.98 72.19L5.76 65.89C4.08 66.93 3.24 68.38 3.24 70.24V70.69C3.24 71.77 3.6 72.63 4.32 73.27C5.04 73.91 5.98 74.23 7.14 74.23ZM49.1466 73.21C48.7466 74.17 48.1866 74.94 47.4666 75.52C46.7466 76.08 45.7266 76.36 44.4066 76.36C42.1666 76.36 40.4766 75.45 39.3366 73.63C38.2166 71.79 37.6566 69.14 37.6566 65.68C37.6566 62.08 38.2766 59.35 39.5166 57.49C40.7566 55.63 42.6266 54.7 45.1266 54.7C46.9066 54.7 48.2966 55.13 49.2966 55.99C50.3166 56.83 51.0966 57.93 51.6366 59.29L49.4766 60.28C49.0366 59.18 48.5066 58.34 47.8866 57.76C47.2666 57.18 46.3766 56.89 45.2166 56.89C43.5766 56.89 42.3466 57.5 41.5266 58.72C40.7266 59.94 40.3266 61.64 40.3266 63.82V67.06C40.3266 69.3 40.6966 71.06 41.4366 72.34C42.1766 73.6 43.3566 74.23 44.9766 74.23C46.2966 74.23 47.3466 73.83 48.1266 73.03C48.9066 72.21 49.2966 71.14 49.2966 69.82V67.66H44.8866V65.65H51.6366V76H49.2966V73.21H49.1466ZM70.3748 60.52L62.6948 79.39C62.3148 80.33 61.8348 81 61.2548 81.4C60.6948 81.8 59.8548 82 58.7348 82H56.4548V79.96H60.0548L61.7948 75.7L55.5548 60.52H58.0148L60.6248 67L62.9348 72.88H63.0548L65.3648 67L67.9748 60.52H70.3748ZM78.7931 73.96V62.56H74.2631V60.52H81.1931V63.28H81.3431C81.6631 62.48 82.2131 61.82 82.9931 61.3C83.7731 60.78 84.7731 60.52 85.9931 60.52H88.7231V62.92H85.5131C84.1931 62.92 83.1431 63.16 82.3631 63.64C81.5831 64.1 81.1931 64.71 81.1931 65.47V73.96H87.1931V76H74.2631V73.96H78.7931ZM98.9414 76.36C97.5014 76.36 96.2514 76.03 95.1914 75.37C94.1514 74.71 93.3414 73.77 92.7614 72.55C92.2014 71.33 91.9214 69.9 91.9214 68.26C91.9214 66.62 92.2014 65.19 92.7614 63.97C93.3414 62.75 94.1514 61.81 95.1914 61.15C96.2514 60.49 97.5014 60.16 98.9414 60.16C100.381 60.16 101.621 60.49 102.661 61.15C103.721 61.81 104.531 62.75 105.091 63.97C105.671 65.19 105.961 66.62 105.961 68.26C105.961 69.9 105.671 71.33 105.091 72.55C104.531 73.77 103.721 74.71 102.661 75.37C101.621 76.03 100.381 76.36 98.9414 76.36ZM98.9414 74.29C100.321 74.29 101.411 73.88 102.211 73.06C103.011 72.22 103.411 70.99 103.411 69.37V67.15C103.411 65.53 103.011 64.31 102.211 63.49C101.411 62.65 100.321 62.23 98.9414 62.23C97.5614 62.23 96.4714 62.65 95.6714 63.49C94.8714 64.31 94.4714 65.53 94.4714 67.15V69.37C94.4714 70.99 94.8714 72.22 95.6714 73.06C96.4714 73.88 97.5614 74.29 98.9414 74.29ZM117.11 76.36C114.11 76.36 111.72 75.35 109.94 73.33L111.56 71.92C112.32 72.74 113.15 73.35 114.05 73.75C114.95 74.15 115.99 74.35 117.17 74.35C118.43 74.35 119.43 74.13 120.17 73.69C120.91 73.23 121.28 72.56 121.28 71.68C121.28 70.94 121.04 70.41 120.56 70.09C120.08 69.77 119.41 69.55 118.55 69.43L116.12 69.07C115.14 68.93 114.28 68.74 113.54 68.5C112.8 68.24 112.16 67.82 111.62 67.24C111.08 66.64 110.81 65.82 110.81 64.78C110.81 63.28 111.38 62.14 112.52 61.36C113.66 60.56 115.17 60.16 117.05 60.16C119.69 60.16 121.79 60.99 123.35 62.65L121.79 64.12C120.71 62.82 119.1 62.17 116.96 62.17C115.74 62.17 114.8 62.38 114.14 62.8C113.5 63.22 113.18 63.83 113.18 64.63C113.18 65.37 113.42 65.9 113.9 66.22C114.4 66.54 115.07 66.76 115.91 66.88L118.34 67.24C119.34 67.38 120.21 67.58 120.95 67.84C121.69 68.08 122.32 68.5 122.84 69.1C123.38 69.68 123.65 70.49 123.65 71.53C123.65 73.05 123.06 74.24 121.88 75.1C120.7 75.94 119.11 76.36 117.11 76.36ZM135.458 76.36C133.258 76.36 131.538 75.63 130.298 74.17C129.058 72.71 128.438 70.74 128.438 68.26C128.438 65.78 129.058 63.81 130.298 62.35C131.538 60.89 133.248 60.16 135.428 60.16C136.868 60.16 138.068 60.48 139.028 61.12C139.988 61.76 140.698 62.63 141.158 63.73L139.238 64.75C138.958 63.95 138.488 63.33 137.828 62.89C137.168 62.45 136.368 62.23 135.428 62.23C134.048 62.23 132.968 62.67 132.188 63.55C131.408 64.41 131.018 65.54 131.018 66.94V69.58C131.018 70.98 131.408 72.12 132.188 73C132.968 73.86 134.068 74.29 135.488 74.29C137.448 74.29 138.848 73.39 139.688 71.59L141.398 72.76C140.918 73.86 140.178 74.74 139.178 75.4C138.178 76.04 136.938 76.36 135.458 76.36ZM152.906 76.36C151.466 76.36 150.216 76.03 149.156 75.37C148.116 74.71 147.306 73.77 146.726 72.55C146.166 71.33 145.886 69.9 145.886 68.26C145.886 66.62 146.166 65.19 146.726 63.97C147.306 62.75 148.116 61.81 149.156 61.15C150.216 60.49 151.466 60.16 152.906 60.16C154.346 60.16 155.586 60.49 156.626 61.15C157.686 61.81 158.496 62.75 159.056 63.97C159.636 65.19 159.926 66.62 159.926 68.26C159.926 69.9 159.636 71.33 159.056 72.55C158.496 73.77 157.686 74.71 156.626 75.37C155.586 76.03 154.346 76.36 152.906 76.36ZM152.906 74.29C154.286 74.29 155.376 73.88 156.176 73.06C156.976 72.22 157.376 70.99 157.376 69.37V67.15C157.376 65.53 156.976 64.31 156.176 63.49C155.376 62.65 154.286 62.23 152.906 62.23C151.526 62.23 150.436 62.65 149.636 63.49C148.836 64.31 148.436 65.53 148.436 67.15V69.37C148.436 70.99 148.836 72.22 149.636 73.06C150.436 73.88 151.526 74.29 152.906 74.29ZM167.145 60.52V63.04H167.265C168.265 61.12 169.855 60.16 172.035 60.16C173.935 60.16 175.415 60.88 176.475 62.32C177.555 63.74 178.095 65.72 178.095 68.26C178.095 70.8 177.555 72.79 176.475 74.23C175.415 75.65 173.935 76.36 172.035 76.36C169.855 76.36 168.265 75.4 167.265 73.48H167.145V82H164.745V60.52H167.145ZM171.105 74.23C172.485 74.23 173.565 73.81 174.345 72.97C175.125 72.13 175.515 71 175.515 69.58V66.94C175.515 65.52 175.125 64.39 174.345 63.55C173.565 62.71 172.485 62.29 171.105 62.29C169.985 62.29 169.045 62.57 168.285 63.13C167.525 63.69 167.145 64.47 167.145 65.47V71.05C167.145 72.05 167.525 72.83 168.285 73.39C169.045 73.95 169.985 74.23 171.105 74.23ZM189.153 76.36C187.693 76.36 186.413 76.03 185.313 75.37C184.213 74.71 183.363 73.77 182.763 72.55C182.183 71.33 181.893 69.91 181.893 68.29C181.893 66.67 182.193 65.25 182.793 64.03C183.393 62.79 184.223 61.84 185.283 61.18C186.363 60.5 187.603 60.16 189.003 60.16C190.363 60.16 191.563 60.49 192.603 61.15C193.643 61.79 194.443 62.68 195.003 63.82C195.583 64.96 195.873 66.26 195.873 67.72V68.86H184.413V69.58C184.413 70.96 184.843 72.09 185.703 72.97C186.563 73.85 187.713 74.29 189.153 74.29C190.173 74.29 191.063 74.06 191.823 73.6C192.583 73.12 193.173 72.45 193.593 71.59L195.363 72.79C194.883 73.87 194.093 74.74 192.993 75.4C191.913 76.04 190.633 76.36 189.153 76.36ZM189.003 62.14C188.143 62.14 187.363 62.35 186.663 62.77C185.963 63.17 185.413 63.73 185.013 64.45C184.613 65.17 184.413 65.97 184.413 66.85V67.06H193.293V66.73C193.293 65.37 192.893 64.27 192.093 63.43C191.313 62.57 190.283 62.14 189.003 62.14Z" transform="translate(781 302)" fill="white"/>
<path d="M1.08 10.06H3.75L8.97 28.45H9.12L14.34 10.06H16.92L10.71 31H7.29L1.08 10.06ZM27.9483 12.1C27.2883 12.1 26.8083 11.96 26.5083 11.68C26.2083 11.4 26.0583 11.03 26.0583 10.57V10.09C26.0583 9.63 26.2083 9.26 26.5083 8.98C26.8083 8.7 27.2883 8.56 27.9483 8.56C28.6083 8.56 29.0883 8.7 29.3883 8.98C29.6883 9.26 29.8383 9.63 29.8383 10.09V10.57C29.8383 11.03 29.6883 11.4 29.3883 11.68C29.0883 11.96 28.6083 12.1 27.9483 12.1ZM26.7483 28.96V17.56H21.1683V15.52H29.1483V28.96H34.3683V31H21.1683V28.96H26.7483ZM41.2266 8.8V18.04H41.3466C42.3466 16.12 43.9366 15.16 46.1166 15.16C48.0166 15.16 49.4966 15.88 50.5566 17.32C51.6366 18.74 52.1766 20.72 52.1766 23.26C52.1766 25.8 51.6366 27.79 50.5566 29.23C49.4966 30.65 48.0166 31.36 46.1166 31.36C43.9366 31.36 42.3466 30.4 41.3466 28.48H41.2266V31H38.8266V8.8H41.2266ZM45.1866 29.23C46.5666 29.23 47.6466 28.81 48.4266 27.97C49.2066 27.13 49.5966 26 49.5966 24.58V21.94C49.5966 20.52 49.2066 19.39 48.4266 18.55C47.6466 17.71 46.5666 17.29 45.1866 17.29C44.0666 17.29 43.1266 17.57 42.3666 18.13C41.6066 18.69 41.2266 19.47 41.2266 20.47V26.05C41.2266 27.05 41.6066 27.83 42.3666 28.39C43.1266 28.95 44.0666 29.23 45.1866 29.23ZM60.8048 28.96V17.56H56.2748V15.52H63.2048V18.28H63.3548C63.6748 17.48 64.2248 16.82 65.0048 16.3C65.7848 15.78 66.7848 15.52 68.0048 15.52H70.7348V17.92H67.5248C66.2048 17.92 65.1548 18.16 64.3748 18.64C63.5948 19.1 63.2048 19.71 63.2048 20.47V28.96H69.2048V31H56.2748V28.96H60.8048ZM86.8031 31C85.1831 31 84.2631 30.16 84.0431 28.48H83.8931C83.1731 30.4 81.6231 31.36 79.2431 31.36C77.6231 31.36 76.3331 30.94 75.3731 30.1C74.4131 29.26 73.9331 28.11 73.9331 26.65C73.9331 23.65 76.1531 22.15 80.5931 22.15H83.8931V20.62C83.8931 19.5 83.5731 18.65 82.9331 18.07C82.2931 17.49 81.3831 17.2 80.2031 17.2C78.3231 17.2 76.9431 17.96 76.0631 19.48L74.4431 18.28C74.8631 17.4 75.5831 16.66 76.6031 16.06C77.6231 15.46 78.8731 15.16 80.3531 15.16C82.1731 15.16 83.6131 15.63 84.6731 16.57C85.7531 17.49 86.2931 18.76 86.2931 20.38V28.9H88.4531V31H86.8031ZM79.6631 29.35C80.8831 29.35 81.8931 29.08 82.6931 28.54C83.4931 27.98 83.8931 27.3 83.8931 26.5V23.95H80.5931C77.8331 23.95 76.4531 24.73 76.4531 26.29V26.92C76.4531 27.7 76.7331 28.3 77.2931 28.72C77.8731 29.14 78.6631 29.35 79.6631 29.35ZM99.6914 31C98.5714 31 97.7214 30.68 97.1414 30.04C96.5614 29.4 96.2714 28.54 96.2714 27.46V17.56H91.1114V15.52H94.9514C95.4714 15.52 95.8314 15.42 96.0314 15.22C96.2514 15 96.3614 14.63 96.3614 14.11V10.06H98.6714V15.52H105.721V17.56H98.6714V28.96H105.721V31H99.6914ZM117.89 12.1C117.23 12.1 116.75 11.96 116.45 11.68C116.15 11.4 116 11.03 116 10.57V10.09C116 9.63 116.15 9.26 116.45 8.98C116.75 8.7 117.23 8.56 117.89 8.56C118.55 8.56 119.03 8.7 119.33 8.98C119.63 9.26 119.78 9.63 119.78 10.09V10.57C119.78 11.03 119.63 11.4 119.33 11.68C119.03 11.96 118.55 12.1 117.89 12.1ZM116.69 28.96V17.56H111.11V15.52H119.09V28.96H124.31V31H111.11V28.96H116.69ZM134.918 31.36C133.478 31.36 132.228 31.03 131.168 30.37C130.128 29.71 129.318 28.77 128.738 27.55C128.178 26.33 127.898 24.9 127.898 23.26C127.898 21.62 128.178 20.19 128.738 18.97C129.318 17.75 130.128 16.81 131.168 16.15C132.228 15.49 133.478 15.16 134.918 15.16C136.358 15.16 137.598 15.49 138.638 16.15C139.698 16.81 140.508 17.75 141.068 18.97C141.648 20.19 141.938 21.62 141.938 23.26C141.938 24.9 141.648 26.33 141.068 27.55C140.508 28.77 139.698 29.71 138.638 30.37C137.598 31.03 136.358 31.36 134.918 31.36ZM134.918 29.29C136.298 29.29 137.388 28.88 138.188 28.06C138.988 27.22 139.388 25.99 139.388 24.37V22.15C139.388 20.53 138.988 19.31 138.188 18.49C137.388 17.65 136.298 17.23 134.918 17.23C133.538 17.23 132.448 17.65 131.648 18.49C130.848 19.31 130.448 20.53 130.448 22.15V24.37C130.448 25.99 130.848 27.22 131.648 28.06C132.448 28.88 133.538 29.29 134.918 29.29ZM146.846 15.52H149.246V18.04H149.366C150.186 16.12 151.656 15.16 153.776 15.16C155.416 15.16 156.716 15.68 157.676 16.72C158.656 17.76 159.146 19.21 159.146 21.07V31H156.746V21.49C156.746 20.09 156.436 19.04 155.816 18.34C155.196 17.64 154.286 17.29 153.086 17.29C152.026 17.29 151.116 17.55 150.356 18.07C149.616 18.57 149.246 19.3 149.246 20.26V31H146.846V15.52ZM200.223 13.36L198.453 16.87L193.443 25.99L188.463 16.87L186.693 13.39H185.943V31H183.483V10.06H187.383L193.383 21.34H193.503L199.533 10.06H203.433V31H200.973V13.36H200.223ZM215.895 31.36C214.455 31.36 213.205 31.03 212.145 30.37C211.105 29.71 210.295 28.77 209.715 27.55C209.155 26.33 208.875 24.9 208.875 23.26C208.875 21.62 209.155 20.19 209.715 18.97C210.295 17.75 211.105 16.81 212.145 16.15C213.205 15.49 214.455 15.16 215.895 15.16C217.335 15.16 218.575 15.49 219.615 16.15C220.675 16.81 221.485 17.75 222.045 18.97C222.625 20.19 222.915 21.62 222.915 23.26C222.915 24.9 222.625 26.33 222.045 27.55C221.485 28.77 220.675 29.71 219.615 30.37C218.575 31.03 217.335 31.36 215.895 31.36ZM215.895 29.29C217.275 29.29 218.365 28.88 219.165 28.06C219.965 27.22 220.365 25.99 220.365 24.37V22.15C220.365 20.53 219.965 19.31 219.165 18.49C218.365 17.65 217.275 17.23 215.895 17.23C214.515 17.23 213.425 17.65 212.625 18.49C211.825 19.31 211.425 20.53 211.425 22.15V24.37C211.425 25.99 211.825 27.22 212.625 28.06C213.425 28.88 214.515 29.29 215.895 29.29ZM234.633 31C233.513 31 232.663 30.68 232.083 30.04C231.503 29.4 231.213 28.54 231.213 27.46V17.56H226.053V15.52H229.893C230.413 15.52 230.773 15.42 230.973 15.22C231.193 15 231.303 14.63 231.303 14.11V10.06H233.613V15.52H240.663V17.56H233.613V28.96H240.663V31H234.633ZM251.871 31.36C250.431 31.36 249.181 31.03 248.121 30.37C247.081 29.71 246.271 28.77 245.691 27.55C245.131 26.33 244.851 24.9 244.851 23.26C244.851 21.62 245.131 20.19 245.691 18.97C246.271 17.75 247.081 16.81 248.121 16.15C249.181 15.49 250.431 15.16 251.871 15.16C253.311 15.16 254.551 15.49 255.591 16.15C256.651 16.81 257.461 17.75 258.021 18.97C258.601 20.19 258.891 21.62 258.891 23.26C258.891 24.9 258.601 26.33 258.021 27.55C257.461 28.77 256.651 29.71 255.591 30.37C254.551 31.03 253.311 31.36 251.871 31.36ZM251.871 29.29C253.251 29.29 254.341 28.88 255.141 28.06C255.941 27.22 256.341 25.99 256.341 24.37V22.15C256.341 20.53 255.941 19.31 255.141 18.49C254.341 17.65 253.251 17.23 251.871 17.23C250.491 17.23 249.401 17.65 248.601 18.49C247.801 19.31 247.401 20.53 247.401 22.15V24.37C247.401 25.99 247.801 27.22 248.601 28.06C249.401 28.88 250.491 29.29 251.871 29.29ZM267.699 28.96V17.56H263.169V15.52H270.099V18.28H270.249C270.569 17.48 271.119 16.82 271.899 16.3C272.679 15.78 273.679 15.52 274.899 15.52H277.629V17.92H274.419C273.099 17.92 272.049 18.16 271.269 18.64C270.489 19.1 270.099 19.71 270.099 20.47V28.96H276.099V31H263.169V28.96H267.699Z" transform="translate(781 407)" fill="white"/>
<path d="M2.7 31V10.06H10.32C12.24 10.06 13.71 10.59 14.73 11.65C15.77 12.71 16.29 14.19 16.29 16.09C16.29 17.79 15.84 19.15 14.94 20.17C14.06 21.19 12.79 21.78 11.13 21.94L16.47 31H13.65L8.55 22.06H5.22V31H2.7ZM10.26 19.93C11.32 19.93 12.14 19.67 12.72 19.15C13.32 18.61 13.62 17.85 13.62 16.87V15.31C13.62 14.33 13.32 13.58 12.72 13.06C12.14 12.52 11.32 12.25 10.26 12.25H5.22V19.93H10.26ZM31.1583 28.21C30.7583 29.17 30.1983 29.94 29.4783 30.52C28.7583 31.08 27.7383 31.36 26.4183 31.36C24.1783 31.36 22.4883 30.45 21.3483 28.63C20.2283 26.79 19.6683 24.14 19.6683 20.68C19.6683 17.08 20.2883 14.35 21.5283 12.49C22.7683 10.63 24.6383 9.7 27.1383 9.7C28.9183 9.7 30.3083 10.13 31.3083 10.99C32.3283 11.83 33.1083 12.93 33.6483 14.29L31.4883 15.28C31.0483 14.18 30.5183 13.34 29.8983 12.76C29.2783 12.18 28.3883 11.89 27.2283 11.89C25.5883 11.89 24.3583 12.5 23.5383 13.72C22.7383 14.94 22.3383 16.64 22.3383 18.82V22.06C22.3383 24.3 22.7083 26.06 23.4483 27.34C24.1883 28.6 25.3683 29.23 26.9883 29.23C28.3083 29.23 29.3583 28.83 30.1383 28.03C30.9183 27.21 31.3083 26.14 31.3083 24.82V22.66H26.8983V20.65H33.6483V31H31.3083V28.21H31.1583ZM45.7266 10.06C47.5066 10.06 48.9066 10.55 49.9266 11.53C50.9666 12.51 51.4866 13.82 51.4866 15.46C51.4866 16.66 51.1966 17.63 50.6166 18.37C50.0366 19.11 49.2366 19.64 48.2166 19.96V20.05C49.4766 20.33 50.4666 20.88 51.1866 21.7C51.9066 22.5 52.2666 23.59 52.2666 24.97C52.2666 26.09 52.0166 27.11 51.5166 28.03C51.0366 28.95 50.3666 29.68 49.5066 30.22C48.6466 30.74 47.6866 31 46.6266 31H38.6166V10.06H45.7266ZM45.4566 19.15C46.5366 19.15 47.3666 18.91 47.9466 18.43C48.5466 17.95 48.8466 17.24 48.8466 16.3V15.13C48.8466 14.19 48.5466 13.48 47.9466 13C47.3666 12.5 46.5366 12.25 45.4566 12.25H41.1366V19.15H45.4566ZM45.8766 28.81C47.0566 28.81 47.9666 28.54 48.6066 28C49.2666 27.46 49.5966 26.67 49.5966 25.63V24.4C49.5966 23.36 49.2666 22.57 48.6066 22.03C47.9666 21.49 47.0566 21.22 45.8766 21.22H41.1366V28.81H45.8766ZM75.5531 10.06H78.0731V28.81H88.0031V31H75.5531V10.06ZM92.6414 10.06H105.541V12.25H95.1614V19.3H105.181V21.49H95.1614V28.81H105.541V31H92.6414V10.06ZM116.63 10.06C119.17 10.06 121.07 10.94 122.33 12.7C123.61 14.46 124.25 17.07 124.25 20.53C124.25 23.99 123.61 26.6 122.33 28.36C121.07 30.12 119.17 31 116.63 31H110.78V10.06H116.63ZM116.51 28.81C118.15 28.81 119.4 28.23 120.26 27.07C121.14 25.91 121.58 24.27 121.58 22.15V18.91C121.58 16.79 121.14 15.15 120.26 13.99C119.4 12.83 118.15 12.25 116.51 12.25H113.3V28.81H116.51Z" transform="translate(781 467)" fill="white"/>
<path d="M12.66 25.03H5.31L3.54 31H0.93L7.35 10.06H10.68L17.1 31H14.43L12.66 25.03ZM8.85 12.73L5.91 22.84H12.06L9.12 12.73H8.85ZM23.5383 8.8V22.81H23.6583L26.3583 20.26L31.5183 15.52H34.4583L28.0383 21.58L35.2083 31H32.2383L26.2083 22.96L23.5383 25.39V31H21.1383V8.8H23.5383ZM41.5266 8.8V22.81H41.6466L44.3466 20.26L49.5066 15.52H52.4466L46.0266 21.58L53.1966 31H50.2266L44.1966 22.96L41.5266 25.39V31H39.1266V8.8H41.5266ZM66.5048 28.48C65.6848 30.4 64.2148 31.36 62.0948 31.36C60.4548 31.36 59.1448 30.84 58.1648 29.8C57.2048 28.76 56.7248 27.31 56.7248 25.45V15.52H59.1248V25.03C59.1248 26.43 59.4348 27.48 60.0548 28.18C60.6748 28.88 61.5848 29.23 62.7848 29.23C63.8448 29.23 64.7448 28.98 65.4848 28.48C66.2448 27.96 66.6248 27.22 66.6248 26.26V15.52H69.0248V31H66.6248V28.48H66.5048Z" transform="translate(781 537)" fill="white"/>
<path d="M0 1H118.5" transform="translate(646.83 701.49) rotate(-30)" stroke="#C5C4C0" stroke-width="7" stroke-linecap="square"/>
<path d="M0 22.9692H23.7688V0" transform="translate(671.742 688.542) rotate(105)" stroke="#C5C4C0" stroke-width="7" stroke-linecap="square"/>
<path d="M20.34 13.36L18.57 16.87L13.56 25.99L8.58 16.87L6.81 13.39H6.06V31H3.6V10.06H7.5L13.5 21.34H13.62L19.65 10.06H23.55V31H21.09V13.36H20.34ZM36.9717 12.1C36.3117 12.1 35.8317 11.96 35.5317 11.68C35.2317 11.4 35.0817 11.03 35.0817 10.57V10.09C35.0817 9.63 35.2317 9.26 35.5317 8.98C35.8317 8.7 36.3117 8.56 36.9717 8.56C37.6317 8.56 38.1117 8.7 38.4117 8.98C38.7117 9.26 38.8617 9.63 38.8617 10.09V10.57C38.8617 11.03 38.7117 11.4 38.4117 11.68C38.1117 11.96 37.6317 12.1 36.9717 12.1ZM35.7717 28.96V17.56H30.1917V15.52H38.1717V28.96H43.3917V31H30.1917V28.96H35.7717ZM47.94 15.52H50.34V18.04H50.46C51.28 16.12 52.75 15.16 54.87 15.16C56.51 15.16 57.81 15.68 58.77 16.72C59.75 17.76 60.24 19.21 60.24 21.07V31H57.84V21.49C57.84 20.09 57.53 19.04 56.91 18.34C56.29 17.64 55.38 17.29 54.18 17.29C53.12 17.29 52.21 17.55 51.45 18.07C50.71 18.57 50.34 19.3 50.34 20.26V31H47.94V15.52ZM72.9483 12.1C72.2883 12.1 71.8083 11.96 71.5083 11.68C71.2083 11.4 71.0583 11.03 71.0583 10.57V10.09C71.0583 9.63 71.2083 9.26 71.5083 8.98C71.8083 8.7 72.2883 8.56 72.9483 8.56C73.6083 8.56 74.0883 8.7 74.3883 8.98C74.6883 9.26 74.8383 9.63 74.8383 10.09V10.57C74.8383 11.03 74.6883 11.4 74.3883 11.68C74.0883 11.96 73.6083 12.1 72.9483 12.1ZM71.7483 28.96V17.56H66.1683V15.52H74.1483V28.96H79.3683V31H66.1683V28.96H71.7483ZM3.6 49.06H6.12V67.81H16.05V70H3.6V49.06ZM32.8383 70C31.2183 70 30.2983 69.16 30.0783 67.48H29.9283C29.2083 69.4 27.6583 70.36 25.2783 70.36C23.6583 70.36 22.3683 69.94 21.4083 69.1C20.4483 68.26 19.9683 67.11 19.9683 65.65C19.9683 62.65 22.1883 61.15 26.6283 61.15H29.9283V59.62C29.9283 58.5 29.6083 57.65 28.9683 57.07C28.3283 56.49 27.4183 56.2 26.2383 56.2C24.3583 56.2 22.9783 56.96 22.0983 58.48L20.4783 57.28C20.8983 56.4 21.6183 55.66 22.6383 55.06C23.6583 54.46 24.9083 54.16 26.3883 54.16C28.2083 54.16 29.6483 54.63 30.7083 55.57C31.7883 56.49 32.3283 57.76 32.3283 59.38V67.9H34.4883V70H32.8383ZM25.6983 68.35C26.9183 68.35 27.9283 68.08 28.7283 67.54C29.5283 66.98 29.9283 66.3 29.9283 65.5V62.95H26.6283C23.8683 62.95 22.4883 63.73 22.4883 65.29V65.92C22.4883 66.7 22.7683 67.3 23.3283 67.72C23.9083 68.14 24.6983 68.35 25.6983 68.35ZM48.5166 67.48C47.6966 69.4 46.2266 70.36 44.1066 70.36C42.4666 70.36 41.1566 69.84 40.1766 68.8C39.2166 67.76 38.7366 66.31 38.7366 64.45V54.52H41.1366V64.03C41.1366 65.43 41.4466 66.48 42.0666 67.18C42.6866 67.88 43.5966 68.23 44.7966 68.23C45.8566 68.23 46.7566 67.98 47.4966 67.48C48.2566 66.96 48.6366 66.22 48.6366 65.26V54.52H51.0366V70H48.6366V67.48H48.5166ZM63.7148 70C62.5948 70 61.7448 69.68 61.1648 69.04C60.5848 68.4 60.2948 67.54 60.2948 66.46V56.56H55.1348V54.52H58.9748C59.4948 54.52 59.8548 54.42 60.0548 54.22C60.2748 54 60.3848 53.63 60.3848 53.11V49.06H62.6948V54.52H69.7448V56.56H62.6948V67.96H69.7448V70H63.7148ZM81.1331 70.36C78.1331 70.36 75.7431 69.35 73.9631 67.33L75.5831 65.92C76.3431 66.74 77.1731 67.35 78.0731 67.75C78.9731 68.15 80.0131 68.35 81.1931 68.35C82.4531 68.35 83.4531 68.13 84.1931 67.69C84.9331 67.23 85.3031 66.56 85.3031 65.68C85.3031 64.94 85.0631 64.41 84.5831 64.09C84.1031 63.77 83.4331 63.55 82.5731 63.43L80.1431 63.07C79.1631 62.93 78.3031 62.74 77.5631 62.5C76.8231 62.24 76.1831 61.82 75.6431 61.24C75.1031 60.64 74.8331 59.82 74.8331 58.78C74.8331 57.28 75.4031 56.14 76.5431 55.36C77.6831 54.56 79.1931 54.16 81.0731 54.16C83.7131 54.16 85.8131 54.99 87.3731 56.65L85.8131 58.12C84.7331 56.82 83.1231 56.17 80.9831 56.17C79.7631 56.17 78.8231 56.38 78.1631 56.8C77.5231 57.22 77.2031 57.83 77.2031 58.63C77.2031 59.37 77.4431 59.9 77.9231 60.22C78.4231 60.54 79.0931 60.76 79.9331 60.88L82.3631 61.24C83.3631 61.38 84.2331 61.58 84.9731 61.84C85.7131 62.08 86.3431 62.5 86.8631 63.1C87.4031 63.68 87.6731 64.49 87.6731 65.53C87.6731 67.05 87.0831 68.24 85.9031 69.1C84.7231 69.94 83.1331 70.36 81.1331 70.36ZM95.1914 54.52V57.04H95.3114C96.3114 55.12 97.9014 54.16 100.081 54.16C101.981 54.16 103.461 54.88 104.521 56.32C105.601 57.74 106.141 59.72 106.141 62.26C106.141 64.8 105.601 66.79 104.521 68.23C103.461 69.65 101.981 70.36 100.081 70.36C97.9014 70.36 96.3114 69.4 95.3114 67.48H95.1914V76H92.7914V54.52H95.1914ZM99.1514 68.23C100.531 68.23 101.611 67.81 102.391 66.97C103.171 66.13 103.561 65 103.561 63.58V60.94C103.561 59.52 103.171 58.39 102.391 57.55C101.611 56.71 100.531 56.29 99.1514 56.29C98.0314 56.29 97.0914 56.57 96.3314 57.13C95.5714 57.69 95.1914 58.47 95.1914 59.47V65.05C95.1914 66.05 95.5714 66.83 96.3314 67.39C97.0914 67.95 98.0314 68.23 99.1514 68.23ZM114.77 67.96V56.56H110.24V54.52H117.17V57.28H117.32C117.64 56.48 118.19 55.82 118.97 55.3C119.75 54.78 120.75 54.52 121.97 54.52H124.7V56.92H121.49C120.17 56.92 119.12 57.16 118.34 57.64C117.56 58.1 117.17 58.71 117.17 59.47V67.96H123.17V70H110.24V67.96H114.77ZM135.188 70.36C133.728 70.36 132.448 70.03 131.348 69.37C130.248 68.71 129.398 67.77 128.798 66.55C128.218 65.33 127.928 63.91 127.928 62.29C127.928 60.67 128.228 59.25 128.828 58.03C129.428 56.79 130.258 55.84 131.318 55.18C132.398 54.5 133.638 54.16 135.038 54.16C136.398 54.16 137.598 54.49 138.638 55.15C139.678 55.79 140.478 56.68 141.038 57.82C141.618 58.96 141.908 60.26 141.908 61.72V62.86H130.448V63.58C130.448 64.96 130.878 66.09 131.738 66.97C132.598 67.85 133.748 68.29 135.188 68.29C136.208 68.29 137.098 68.06 137.858 67.6C138.618 67.12 139.208 66.45 139.628 65.59L141.398 66.79C140.918 67.87 140.128 68.74 139.028 69.4C137.948 70.04 136.668 70.36 135.188 70.36ZM135.038 56.14C134.178 56.14 133.398 56.35 132.698 56.77C131.998 57.17 131.448 57.73 131.048 58.45C130.648 59.17 130.448 59.97 130.448 60.85V61.06H139.328V60.73C139.328 59.37 138.928 58.27 138.128 57.43C137.348 56.57 136.318 56.14 135.038 56.14ZM153.446 70.36C151.246 70.36 149.526 69.63 148.286 68.17C147.046 66.71 146.426 64.74 146.426 62.26C146.426 59.78 147.046 57.81 148.286 56.35C149.526 54.89 151.236 54.16 153.416 54.16C154.856 54.16 156.056 54.48 157.016 55.12C157.976 55.76 158.686 56.63 159.146 57.73L157.226 58.75C156.946 57.95 156.476 57.33 155.816 56.89C155.156 56.45 154.356 56.23 153.416 56.23C152.036 56.23 150.956 56.67 150.176 57.55C149.396 58.41 149.006 59.54 149.006 60.94V63.58C149.006 64.98 149.396 66.12 150.176 67C150.956 67.86 152.056 68.29 153.476 68.29C155.436 68.29 156.836 67.39 157.676 65.59L159.386 66.76C158.906 67.86 158.166 68.74 157.166 69.4C156.166 70.04 154.926 70.36 153.446 70.36ZM167.235 47.8V57.04H167.355C168.175 55.12 169.645 54.16 171.765 54.16C173.405 54.16 174.705 54.68 175.665 55.72C176.645 56.76 177.135 58.21 177.135 60.07V70H174.735V60.49C174.735 59.09 174.425 58.04 173.805 57.34C173.185 56.64 172.275 56.29 171.075 56.29C170.015 56.29 169.105 56.55 168.345 57.07C167.605 57.57 167.235 58.3 167.235 59.26V70H164.835V47.8H167.235ZM189.153 70.36C187.693 70.36 186.413 70.03 185.313 69.37C184.213 68.71 183.363 67.77 182.763 66.55C182.183 65.33 181.893 63.91 181.893 62.29C181.893 60.67 182.193 59.25 182.793 58.03C183.393 56.79 184.223 55.84 185.283 55.18C186.363 54.5 187.603 54.16 189.003 54.16C190.363 54.16 191.563 54.49 192.603 55.15C193.643 55.79 194.443 56.68 195.003 57.82C195.583 58.96 195.873 60.26 195.873 61.72V62.86H184.413V63.58C184.413 64.96 184.843 66.09 185.703 66.97C186.563 67.85 187.713 68.29 189.153 68.29C190.173 68.29 191.063 68.06 191.823 67.6C192.583 67.12 193.173 66.45 193.593 65.59L195.363 66.79C194.883 67.87 194.093 68.74 192.993 69.4C191.913 70.04 190.633 70.36 189.153 70.36ZM189.003 56.14C188.143 56.14 187.363 56.35 186.663 56.77C185.963 57.17 185.413 57.73 185.013 58.45C184.613 59.17 184.413 59.97 184.413 60.85V61.06H193.293V60.73C193.293 59.37 192.893 58.27 192.093 57.43C191.313 56.57 190.283 56.14 189.003 56.14ZM204.711 67.96V56.56H200.181V54.52H207.111V57.28H207.261C207.581 56.48 208.131 55.82 208.911 55.3C209.691 54.78 210.691 54.52 211.911 54.52H214.641V56.92H211.431C210.111 56.92 209.061 57.16 208.281 57.64C207.501 58.1 207.111 58.71 207.111 59.47V67.96H213.111V70H200.181V67.96H204.711Z" transform="translate(781 607)" fill="white"/>
<path d="M8.94 31.36C7.16 31.36 5.66 31.04 4.44 30.4C3.22 29.74 2.19 28.83 1.35 27.67L3.18 26.17C4 27.21 4.87 27.98 5.79 28.48C6.71 28.96 7.79 29.2 9.03 29.2C10.53 29.2 11.68 28.85 12.48 28.15C13.3 27.45 13.71 26.47 13.71 25.21C13.71 24.17 13.41 23.37 12.81 22.81C12.21 22.25 11.21 21.85 9.81 21.61L7.47 21.22C5.55 20.9 4.17 20.24 3.33 19.24C2.49 18.22 2.07 16.98 2.07 15.52C2.07 13.64 2.69 12.2 3.93 11.2C5.17 10.2 6.88 9.7 9.06 9.7C12.24 9.7 14.58 10.77 16.08 12.91L14.31 14.44C13.67 13.6 12.93 12.96 12.09 12.52C11.27 12.08 10.25 11.86 9.03 11.86C7.61 11.86 6.52 12.17 5.76 12.79C5 13.39 4.62 14.28 4.62 15.46C4.62 16.44 4.91 17.22 5.49 17.8C6.09 18.38 7.11 18.79 8.55 19.03L10.8 19.42C14.44 20.06 16.26 21.97 16.26 25.15C16.26 27.09 15.62 28.61 14.34 29.71C13.06 30.81 11.26 31.36 8.94 31.36ZM27.5283 31.36C25.3283 31.36 23.6083 30.63 22.3683 29.17C21.1283 27.71 20.5083 25.74 20.5083 23.26C20.5083 20.78 21.1283 18.81 22.3683 17.35C23.6083 15.89 25.3183 15.16 27.4983 15.16C28.9383 15.16 30.1383 15.48 31.0983 16.12C32.0583 16.76 32.7683 17.63 33.2283 18.73L31.3083 19.75C31.0283 18.95 30.5583 18.33 29.8983 17.89C29.2383 17.45 28.4383 17.23 27.4983 17.23C26.1183 17.23 25.0383 17.67 24.2583 18.55C23.4783 19.41 23.0883 20.54 23.0883 21.94V24.58C23.0883 25.98 23.4783 27.12 24.2583 28C25.0383 28.86 26.1383 29.29 27.5583 29.29C29.5183 29.29 30.9183 28.39 31.7583 26.59L33.4683 27.76C32.9883 28.86 32.2483 29.74 31.2483 30.4C30.2483 31.04 29.0083 31.36 27.5283 31.36ZM41.3166 8.8V18.04H41.4366C42.2566 16.12 43.7266 15.16 45.8466 15.16C47.4866 15.16 48.7866 15.68 49.7466 16.72C50.7266 17.76 51.2166 19.21 51.2166 21.07V31H48.8166V21.49C48.8166 20.09 48.5066 19.04 47.8866 18.34C47.2666 17.64 46.3566 17.29 45.1566 17.29C44.0966 17.29 43.1866 17.55 42.4266 18.07C41.6866 18.57 41.3166 19.3 41.3166 20.26V31H38.9166V8.8H41.3166ZM61.7648 28.96V10.84H56.3648V8.8H64.1648V28.96H69.5648V31H56.3648V28.96H61.7648ZM86.8031 31C85.1831 31 84.2631 30.16 84.0431 28.48H83.8931C83.1731 30.4 81.6231 31.36 79.2431 31.36C77.6231 31.36 76.3331 30.94 75.3731 30.1C74.4131 29.26 73.9331 28.11 73.9331 26.65C73.9331 23.65 76.1531 22.15 80.5931 22.15H83.8931V20.62C83.8931 19.5 83.5731 18.65 82.9331 18.07C82.2931 17.49 81.3831 17.2 80.2031 17.2C78.3231 17.2 76.9431 17.96 76.0631 19.48L74.4431 18.28C74.8631 17.4 75.5831 16.66 76.6031 16.06C77.6231 15.46 78.8731 15.16 80.3531 15.16C82.1731 15.16 83.6131 15.63 84.6731 16.57C85.7531 17.49 86.2931 18.76 86.2931 20.38V28.9H88.4531V31H86.8031ZM79.6631 29.35C80.8831 29.35 81.8931 29.08 82.6931 28.54C83.4931 27.98 83.8931 27.3 83.8931 26.5V23.95H80.5931C77.8331 23.95 76.4531 24.73 76.4531 26.29V26.92C76.4531 27.7 76.7331 28.3 77.2931 28.72C77.8731 29.14 78.6631 29.35 79.6631 29.35ZM102.481 28.48C101.661 30.4 100.191 31.36 98.0714 31.36C96.4314 31.36 95.1214 30.84 94.1414 29.8C93.1814 28.76 92.7014 27.31 92.7014 25.45V15.52H95.1014V25.03C95.1014 26.43 95.4114 27.48 96.0314 28.18C96.6514 28.88 97.5614 29.23 98.7614 29.23C99.8214 29.23 100.721 28.98 101.461 28.48C102.221 27.96 102.601 27.22 102.601 26.26V15.52H105.001V31H102.601V28.48H102.481ZM115.64 28.96V17.56H110.12V15.52H115.64V12.34C115.64 11.26 115.93 10.4 116.51 9.76C117.09 9.12 117.94 8.8 119.06 8.8H124.25V10.84H118.04V15.52H124.25V17.56H118.04V28.96H123.56V31H110.42V28.96H115.64ZM135.188 31.36C133.728 31.36 132.448 31.03 131.348 30.37C130.248 29.71 129.398 28.77 128.798 27.55C128.218 26.33 127.928 24.91 127.928 23.29C127.928 21.67 128.228 20.25 128.828 19.03C129.428 17.79 130.258 16.84 131.318 16.18C132.398 15.5 133.638 15.16 135.038 15.16C136.398 15.16 137.598 15.49 138.638 16.15C139.678 16.79 140.478 17.68 141.038 18.82C141.618 19.96 141.908 21.26 141.908 22.72V23.86H130.448V24.58C130.448 25.96 130.878 27.09 131.738 27.97C132.598 28.85 133.748 29.29 135.188 29.29C136.208 29.29 137.098 29.06 137.858 28.6C138.618 28.12 139.208 27.45 139.628 26.59L141.398 27.79C140.918 28.87 140.128 29.74 139.028 30.4C137.948 31.04 136.668 31.36 135.188 31.36ZM135.038 17.14C134.178 17.14 133.398 17.35 132.698 17.77C131.998 18.17 131.448 18.73 131.048 19.45C130.648 20.17 130.448 20.97 130.448 21.85V22.06H139.328V21.73C139.328 20.37 138.928 19.27 138.128 18.43C137.348 17.57 136.318 17.14 135.038 17.14Z" transform="translate(996 739)" fill="white"/>
</svg>
