<svg width="1920" height="1080" viewBox="0 0 1920 1080" fill="none" xmlns="http://www.w3.org/2000/svg">
<path opacity="0.229799" d="M0 107.12V599.882H1280.45V0" transform="translate(306.375 276.618)" stroke="black" stroke-width="4"/>
<path opacity="0.229799" d="M0 0L78.3906 261.25L153.289 29.2578" transform="translate(879.188 615.664)" stroke="black" stroke-width="4"/>
<path opacity="0.229799" d="M0 258.719L165.055 0" transform="translate(999.719 613.211)" stroke="black" stroke-width="4"/>
<path fill-rule="evenodd" clip-rule="evenodd" d="M85.0059 0C90.8722 0 96.6554 1.10684 102.356 3.32054C108.056 5.53425 113.147 8.41202 117.63 11.9539C122.113 15.4959 125.765 19.4805 128.588 23.9079C131.41 28.3353 132.822 32.7627 132.822 37.1901V63.7544C132.822 66.9643 132.49 70.6722 131.826 74.8782C131.161 79.0843 130.055 83.3732 128.505 87.7453C126.955 92.1174 124.908 96.3234 122.362 100.363C119.816 104.403 116.717 107.862 113.064 110.74L159.386 132.822C159.386 132.822 161.129 133.79 164.616 135.727C168.102 137.664 169.846 140.182 169.846 143.281V159.386C169.846 162.264 168.822 164.727 166.774 166.774C164.727 168.822 162.264 169.846 159.386 169.846H10.6257C7.63723 169.846 5.11918 168.822 3.0715 166.774C1.02382 164.727 0 162.264 0 159.386V143.281C0 140.404 1.77094 137.941 5.31287 135.893C8.8548 133.845 10.6257 132.822 10.6257 132.822L57.2793 110.74C53.516 107.752 50.3616 104.154 47.8158 99.9483C45.27 95.7423 43.1947 91.4533 41.5898 87.0812C39.9848 82.7091 38.8503 78.4478 38.1862 74.2971C37.5221 70.1464 37.1901 66.6322 37.1901 63.7544V37.1901C37.1901 32.7627 38.5736 28.3353 41.3407 23.9079C44.1079 19.4805 47.7328 15.4959 52.2155 11.9539C56.6983 8.41202 61.8174 5.53425 67.573 3.32054C73.3287 1.10684 79.1395 0 85.0059 0Z" transform="translate(723 438.337)" fill="white" stroke="black" stroke-width="4"/>
<path d="M2.7 31H5.22V22.12H10.32C14.19 22.12 16.29 19.87 16.29 16.09C16.29 12.31 14.19 10.06 10.32 10.06H2.7V31ZM5.22 19.93V12.25H10.26C12.36 12.25 13.62 13.36 13.62 15.31V16.87C13.62 18.82 12.36 19.93 10.26 19.93H5.22ZM32.8383 31H34.4883V28.9H32.3283V20.38C32.3283 17.11 30.0183 15.16 26.3883 15.16C23.2383 15.16 21.2583 16.66 20.4783 18.28L22.0983 19.48C22.9083 18.07 24.1683 17.2 26.2383 17.2C28.5783 17.2 29.9283 18.37 29.9283 20.62V22.15H26.6283C21.9783 22.15 19.9683 23.8 19.9683 26.65C19.9683 29.56 22.0383 31.36 25.2783 31.36C27.7983 31.36 29.2683 30.25 29.9283 28.48H30.0783C30.2583 29.92 30.9783 31 32.8383 31ZM25.6983 29.35C23.7183 29.35 22.4883 28.51 22.4883 26.92V26.29C22.4883 24.79 23.7783 23.95 26.6283 23.95H29.9283V26.5C29.9283 28.09 28.1583 29.35 25.6983 29.35ZM38.2866 28.96V31H51.2166V28.96H45.2166V20.47C45.2166 19 46.8366 17.92 49.5366 17.92H52.7466V15.52H50.0166C47.4366 15.52 45.9666 16.81 45.3666 18.28H45.2166V15.52H38.2866V17.56H42.8166V28.96H38.2866ZM63.5048 31.36C66.5948 31.36 68.5448 29.83 69.4448 27.76L67.7348 26.59C66.9548 28.27 65.6048 29.29 63.5348 29.29C60.6248 29.29 59.0648 27.31 59.0648 24.58V21.94C59.0648 19.21 60.6548 17.23 63.4748 17.23C65.3948 17.23 66.7148 18.16 67.2848 19.75L69.2048 18.73C68.3348 16.63 66.4748 15.16 63.4748 15.16C59.0948 15.16 56.4848 18.34 56.4848 23.26C56.4848 28.15 59.0648 31.36 63.5048 31.36ZM81.2231 31.36C84.2831 31.36 86.5031 29.86 87.4331 27.79L85.6631 26.59C84.8531 28.27 83.2931 29.29 81.2231 29.29C78.3131 29.29 76.4831 27.31 76.4831 24.58V23.86H87.9431V22.72C87.9431 18.34 85.2431 15.16 81.0731 15.16C76.8731 15.16 73.9631 18.34 73.9631 23.29C73.9631 28.18 76.7831 31.36 81.2231 31.36ZM81.0731 17.14C83.6231 17.14 85.3631 19 85.3631 21.73V22.06H76.4831V21.85C76.4831 19.15 78.4331 17.14 81.0731 17.14ZM92.3414 28.96V31H105.541V28.96H100.141V8.8H92.3414V10.84H97.7414V28.96H92.3414ZM116 20.74L122.33 31H125.27L117.71 18.88L125.06 10.06H122.03L115.85 17.5L113.09 20.98H113V10.06H110.48V31H113V24.28L116 20.74ZM135.188 31.36C138.248 31.36 140.468 29.86 141.398 27.79L139.628 26.59C138.818 28.27 137.258 29.29 135.188 29.29C132.278 29.29 130.448 27.31 130.448 24.58V23.86H141.908V22.72C141.908 18.34 139.208 15.16 135.038 15.16C130.838 15.16 127.928 18.34 127.928 23.29C127.928 28.18 130.748 31.36 135.188 31.36ZM135.038 17.14C137.588 17.14 139.328 19 139.328 21.73V22.06H130.448V21.85C130.448 19.15 132.398 17.14 135.038 17.14ZM157.916 15.52L155.306 22L152.996 27.88H152.876L150.566 22L147.956 15.52H145.496L151.736 30.7L149.996 34.96H146.396V37H148.676C151.016 37 151.916 36.16 152.636 34.39L160.316 15.52H157.916ZM188.823 31.36C193.473 31.36 196.143 29.02 196.143 25.15C196.143 22.42 194.793 20.14 190.683 19.42L188.433 19.03C185.463 18.52 184.503 17.32 184.503 15.46C184.503 13.09 186.093 11.86 188.913 11.86C191.523 11.86 193.023 12.91 194.193 14.44L195.963 12.91C194.553 10.9 192.273 9.7 188.943 9.7C184.683 9.7 181.953 11.68 181.953 15.52C181.953 18.16 183.243 20.53 187.353 21.22L189.693 21.61C192.543 22.09 193.593 23.17 193.593 25.21C193.593 27.73 191.943 29.2 188.913 29.2C186.393 29.2 184.683 28.21 183.063 26.17L181.233 27.67C182.793 29.83 185.073 31.36 188.823 31.36ZM207.621 31H213.651V28.96H206.601V17.56H213.651V15.52H206.601V10.06H204.291V14.11C204.291 15.16 203.901 15.52 202.881 15.52H199.041V17.56H204.201V27.46C204.201 29.53 205.281 31 207.621 31ZM230.709 31H232.359V28.9H230.199V20.38C230.199 17.11 227.889 15.16 224.259 15.16C221.109 15.16 219.129 16.66 218.349 18.28L219.969 19.48C220.779 18.07 222.039 17.2 224.109 17.2C226.449 17.2 227.799 18.37 227.799 20.62V22.15H224.499C219.849 22.15 217.839 23.8 217.839 26.65C217.839 29.56 219.909 31.36 223.149 31.36C225.669 31.36 227.139 30.25 227.799 28.48H227.949C228.129 29.92 228.849 31 230.709 31ZM223.569 29.35C221.589 29.35 220.359 28.51 220.359 26.92V26.29C220.359 24.79 221.649 23.95 224.499 23.95H227.799V26.5C227.799 28.09 226.029 29.35 223.569 29.35ZM243.598 31H249.628V28.96H242.578V17.56H249.628V15.52H242.578V10.06H240.268V14.11C240.268 15.16 239.878 15.52 238.858 15.52H235.018V17.56H240.178V27.46C240.178 29.53 241.258 31 243.598 31ZM261.796 12.1C263.176 12.1 263.686 11.44 263.686 10.57V10.09C263.686 9.22 263.176 8.56 261.796 8.56C260.416 8.56 259.906 9.22 259.906 10.09V10.57C259.906 11.44 260.416 12.1 261.796 12.1ZM255.016 28.96V31H268.216V28.96H262.996V15.52H255.016V17.56H260.596V28.96H255.016ZM278.824 31.36C283.174 31.36 285.844 28.18 285.844 23.26C285.844 18.34 283.174 15.16 278.824 15.16C274.474 15.16 271.804 18.34 271.804 23.26C271.804 28.18 274.474 31.36 278.824 31.36ZM278.824 29.29C276.154 29.29 274.354 27.7 274.354 24.37V22.15C274.354 18.82 276.154 17.23 278.824 17.23C281.494 17.23 283.294 18.82 283.294 22.15V24.37C283.294 27.7 281.494 29.29 278.824 29.29ZM290.752 31H293.153V20.26C293.153 18.22 295.072 17.29 296.992 17.29C299.362 17.29 300.653 18.67 300.653 21.49V31H303.053V21.07C303.053 17.32 300.923 15.16 297.682 15.16C295.133 15.16 293.932 16.51 293.272 18.04H293.153V15.52H290.752V31Z" transform="translate(773 920)" fill="black"/>
<path d="M2.7 31H5.22V22.12H10.32C14.19 22.12 16.29 19.87 16.29 16.09C16.29 12.31 14.19 10.06 10.32 10.06H2.7V31ZM5.22 19.93V12.25H10.26C12.36 12.25 13.62 13.36 13.62 15.31V16.87C13.62 18.82 12.36 19.93 10.26 19.93H5.22ZM32.8383 31H34.4883V28.9H32.3283V20.38C32.3283 17.11 30.0183 15.16 26.3883 15.16C23.2383 15.16 21.2583 16.66 20.4783 18.28L22.0983 19.48C22.9083 18.07 24.1683 17.2 26.2383 17.2C28.5783 17.2 29.9283 18.37 29.9283 20.62V22.15H26.6283C21.9783 22.15 19.9683 23.8 19.9683 26.65C19.9683 29.56 22.0383 31.36 25.2783 31.36C27.7983 31.36 29.2683 30.25 29.9283 28.48H30.0783C30.2583 29.92 30.9783 31 32.8383 31ZM25.6983 29.35C23.7183 29.35 22.4883 28.51 22.4883 26.92V26.29C22.4883 24.79 23.7783 23.95 26.6283 23.95H29.9283V26.5C29.9283 28.09 28.1583 29.35 25.6983 29.35ZM38.2866 28.96V31H51.2166V28.96H45.2166V20.47C45.2166 19 46.8366 17.92 49.5366 17.92H52.7466V15.52H50.0166C47.4366 15.52 45.9666 16.81 45.3666 18.28H45.2166V15.52H38.2866V17.56H42.8166V28.96H38.2866ZM63.5048 31.36C66.5948 31.36 68.5448 29.83 69.4448 27.76L67.7348 26.59C66.9548 28.27 65.6048 29.29 63.5348 29.29C60.6248 29.29 59.0648 27.31 59.0648 24.58V21.94C59.0648 19.21 60.6548 17.23 63.4748 17.23C65.3948 17.23 66.7148 18.16 67.2848 19.75L69.2048 18.73C68.3348 16.63 66.4748 15.16 63.4748 15.16C59.0948 15.16 56.4848 18.34 56.4848 23.26C56.4848 28.15 59.0648 31.36 63.5048 31.36ZM81.2231 31.36C84.2831 31.36 86.5031 29.86 87.4331 27.79L85.6631 26.59C84.8531 28.27 83.2931 29.29 81.2231 29.29C78.3131 29.29 76.4831 27.31 76.4831 24.58V23.86H87.9431V22.72C87.9431 18.34 85.2431 15.16 81.0731 15.16C76.8731 15.16 73.9631 18.34 73.9631 23.29C73.9631 28.18 76.7831 31.36 81.2231 31.36ZM81.0731 17.14C83.6231 17.14 85.3631 19 85.3631 21.73V22.06H76.4831V21.85C76.4831 19.15 78.4331 17.14 81.0731 17.14ZM92.3414 28.96V31H105.541V28.96H100.141V8.8H92.3414V10.84H97.7414V28.96H92.3414ZM116 20.74L122.33 31H125.27L117.71 18.88L125.06 10.06H122.03L115.85 17.5L113.09 20.98H113V10.06H110.48V31H113V24.28L116 20.74ZM135.188 31.36C138.248 31.36 140.468 29.86 141.398 27.79L139.628 26.59C138.818 28.27 137.258 29.29 135.188 29.29C132.278 29.29 130.448 27.31 130.448 24.58V23.86H141.908V22.72C141.908 18.34 139.208 15.16 135.038 15.16C130.838 15.16 127.928 18.34 127.928 23.29C127.928 28.18 130.748 31.36 135.188 31.36ZM135.038 17.14C137.588 17.14 139.328 19 139.328 21.73V22.06H130.448V21.85C130.448 19.15 132.398 17.14 135.038 17.14ZM157.916 15.52L155.306 22L152.996 27.88H152.876L150.566 22L147.956 15.52H145.496L151.736 30.7L149.996 34.96H146.396V37H148.676C151.016 37 151.916 36.16 152.636 34.39L160.316 15.52H157.916ZM171.075 31.36C175.035 31.36 177.615 29.59 177.615 26.53C177.615 23.17 174.525 22.57 172.305 22.24L169.875 21.88C168.495 21.67 167.145 21.25 167.145 19.63C167.145 18.04 168.495 17.17 170.925 17.17C173.655 17.17 175.035 18.25 175.755 19.12L177.315 17.65C175.845 16.09 173.805 15.16 171.015 15.16C167.415 15.16 164.775 16.69 164.775 19.78C164.775 23.14 167.895 23.74 170.085 24.07L172.515 24.43C173.925 24.64 175.245 25.06 175.245 26.68C175.245 28.51 173.535 29.35 171.135 29.35C168.675 29.35 166.995 28.48 165.525 26.92L163.905 28.33C165.525 30.16 167.835 31.36 171.075 31.36Z" transform="translate(956 533)" fill="black"/>
<path fill-rule="evenodd" clip-rule="evenodd" d="M155.902 201C138.479 201 122.638 194.229 110.863 183.175C99.089 194.229 83.2475 201 65.8251 201C29.4709 201 0 171.52 0 135.155C0 98.7901 29.4709 69.3103 65.8251 69.3103C66.0596 43.4322 87.1034 22.5259 113.029 22.5259C124.082 22.5259 134.248 26.3262 142.292 32.6919C154.627 13.0535 176.476 0 201.373 0C239.88 0 271.096 31.2252 271.096 69.7435C271.096 70.6209 271.079 71.4946 271.047 72.3641C297.689 80.793 317 105.718 317 135.155C317 171.52 287.529 201 251.175 201C232.436 201 203.538 180.597 203.538 180.597C203.538 180.597 174.64 201 155.902 201Z" transform="translate(1427 109)" fill="white" stroke="black" stroke-width="4"/>
<path fill-rule="evenodd" clip-rule="evenodd" d="M0 0.16C0 0.103995 0 0.0759921 0.0108993 0.054601C0.0204867 0.0357847 0.0357847 0.0204867 0.054601 0.0108993C0.0759921 0 0.103995 0 0.16 0H69.84C69.896 0 69.924 0 69.9454 0.0108993C69.9642 0.0204867 69.9795 0.0357847 69.9891 0.054601C70 0.0759921 70 0.103995 70 0.16V69.84C70 69.896 70 69.924 69.9891 69.9454C69.9795 69.9642 69.9642 69.9795 69.9454 69.9891C69.924 70 69.896 70 69.84 70H0.16C0.103995 70 0.0759921 70 0.054601 69.9891C0.0357847 69.9795 0.0204867 69.9642 0.0108993 69.9454C0 69.924 0 69.896 0 69.84V0.16Z" transform="translate(994 615)" fill="white" stroke="black" stroke-width="4"/>
<path fill-rule="evenodd" clip-rule="evenodd" d="M0.3064 18C0.209661 18 0.169296 17.8763 0.247409 17.8193L24.6387 0H94.7285C94.8252 0 94.8656 0.12368 94.7875 0.180747L70.3962 18H0.3064Z" transform="translate(994 597)" fill="white" stroke="black" stroke-width="4"/>
<path fill-rule="evenodd" clip-rule="evenodd" d="M0 87.8226C0 87.9037 0.0914255 87.9511 0.157667 87.9043L25 70.3692V0.192661C25 0.111643 24.9087 0.0642545 24.8424 0.110883L0 17.5945V87.8226Z" transform="translate(1064 596.984)" fill="white" stroke="black" stroke-width="4"/>
<path fill-rule="evenodd" clip-rule="evenodd" d="M0 0.16C0 0.103995 0 0.0759921 0.0108993 0.054601C0.0204867 0.0357847 0.0357847 0.0204867 0.054601 0.0108993C0.0759921 0 0.103995 0 0.16 0H69.84C69.896 0 69.924 0 69.9454 0.0108993C69.9642 0.0204867 69.9795 0.0357847 69.9891 0.054601C70 0.0759921 70 0.103995 70 0.16V69.84C70 69.896 70 69.924 69.9891 69.9454C69.9795 69.9642 69.9642 69.9795 69.9454 69.9891C69.924 70 69.896 70 69.84 70H0.16C0.103995 70 0.0759921 70 0.054601 69.9891C0.0357847 69.9795 0.0204867 69.9642 0.0108993 69.9454C0 69.924 0 69.896 0 69.84V0.16Z" transform="translate(1145 582)" fill="white" stroke="black" stroke-width="4"/>
<path fill-rule="evenodd" clip-rule="evenodd" d="M0.3064 18C0.209661 18 0.169296 17.8763 0.247409 17.8193L24.6387 0H94.7285C94.8252 0 94.8656 0.12368 94.7875 0.180747L70.3962 18H0.3064Z" transform="translate(1145 564)" fill="white" stroke="black" stroke-width="4"/>
<path fill-rule="evenodd" clip-rule="evenodd" d="M0 87.8226C0 87.9037 0.0914255 87.9511 0.157667 87.9043L25 70.3692V0.192661C25 0.111643 24.9087 0.0642545 24.8424 0.110883L0 17.5945V87.8226Z" transform="translate(1215 563.984)" fill="white" stroke="black" stroke-width="4"/>
<path fill-rule="evenodd" clip-rule="evenodd" d="M0 0.16C0 0.103995 0 0.0759921 0.0108993 0.054601C0.0204867 0.0357847 0.0357847 0.0204867 0.054601 0.0108993C0.0759921 0 0.103995 0 0.16 0H69.84C69.896 0 69.924 0 69.9454 0.0108993C69.9642 0.0204867 69.9795 0.0357847 69.9891 0.054601C70 0.0759921 70 0.103995 70 0.16V69.84C70 69.896 70 69.924 69.9891 69.9454C69.9795 69.9642 69.9642 69.9795 69.9454 69.9891C69.924 70 69.896 70 69.84 70H0.16C0.103995 70 0.0759921 70 0.054601 69.9891C0.0357847 69.9795 0.0204867 69.9642 0.0108993 69.9454C0 69.924 0 69.896 0 69.84V0.16Z" transform="translate(845 582)" fill="white" stroke="black" stroke-width="4"/>
<path fill-rule="evenodd" clip-rule="evenodd" d="M0.3064 18C0.209661 18 0.169296 17.8763 0.247409 17.8193L24.6387 0H94.7285C94.8252 0 94.8656 0.12368 94.7875 0.180747L70.3962 18H0.3064Z" transform="translate(845 564)" fill="white" stroke="black" stroke-width="4"/>
<path fill-rule="evenodd" clip-rule="evenodd" d="M0 87.8226C0 87.9037 0.0914255 87.9511 0.157667 87.9043L25 70.3692V0.192661C25 0.111643 24.9087 0.0642545 24.8424 0.110883L0 17.5945V87.8226Z" transform="translate(915 563.984)" fill="white" stroke="black" stroke-width="4"/>
<path fill-rule="evenodd" clip-rule="evenodd" d="M0 0.16C0 0.103995 0 0.0759921 0.0108993 0.054601C0.0204867 0.0357847 0.0357847 0.0204867 0.054601 0.0108993C0.0759921 0 0.103995 0 0.16 0H340.832C340.888 0 340.916 0 340.937 0.0108993C340.956 0.0204867 340.971 0.0357847 340.981 0.054601C340.992 0.0759921 340.992 0.103995 340.992 0.16V262.301C340.992 262.357 340.992 262.385 340.981 262.406C340.971 262.425 340.956 262.44 340.937 262.45C340.916 262.461 340.888 262.461 340.832 262.461H0.16C0.103995 262.461 0.0759921 262.461 0.054601 262.45C0.0357847 262.44 0.0204867 262.425 0.0108993 262.406C0 262.385 0 262.357 0 262.301V0.16Z" transform="translate(112 205.539)" fill="white" stroke="black" stroke-width="4"/>
<path fill-rule="evenodd" clip-rule="evenodd" d="M0.387736 65.9232C0.284427 65.9232 0.248949 65.7857 0.339372 65.7357L119.303 0H459.781C459.884 0 459.92 0.137562 459.829 0.187526L340.866 65.9232H0.387736Z" transform="translate(112 139.616)" stroke="black" stroke-width="4"/>
<path fill-rule="evenodd" clip-rule="evenodd" d="M0 328.273C0 328.349 0.0817649 328.397 0.148415 328.36L119.008 262.592V0.169379C119.008 0.093261 118.926 0.0450505 118.86 0.0818199L0 65.6564V328.273Z" transform="translate(452.992 139.558)" fill="white" stroke="black" stroke-width="4"/>
<path fill-rule="evenodd" clip-rule="evenodd" d="M0 11.2C0 7.27963 0 5.31945 0.762954 3.82207C1.43407 2.50493 2.50493 1.43407 3.82207 0.762954C5.31945 0 7.27963 0 11.2 0H87.8C91.7204 0 93.6805 0 95.1779 0.762954C96.4951 1.43407 97.5659 2.50493 98.237 3.82207C99 5.31945 99 7.27963 99 11.2V49.8C99 53.7204 99 55.6805 98.237 57.1779C97.5659 58.4951 96.4951 59.5659 95.1779 60.237C93.6805 61 91.7204 61 87.8 61H11.2C7.27963 61 5.31945 61 3.82207 60.237C2.50493 59.5659 1.43407 58.4951 0.762954 57.1779C0 55.6805 0 53.7204 0 49.8V11.2Z" transform="translate(229 286)" fill="white" stroke="black" stroke-width="4"/>
<path fill-rule="evenodd" clip-rule="evenodd" d="M0 59.1515L97.1438 0H0V59.1515Z" transform="translate(230.237 286.616)" fill="#D8D8D8" fill-opacity="0.3"/>
<path fill-rule="evenodd" clip-rule="evenodd" d="M1.17666 0.119792C1.26594 0.255209 1.364 0.409721 1.47082 0.583333C1.57765 0.756945 1.69324 0.949652 1.8176 1.16146C1.84949 1.21701 1.86304 1.27951 1.85826 1.34896C1.85348 1.4184 1.83036 1.49306 1.7889 1.57292C1.77296 1.60764 1.74585 1.66319 1.70759 1.73958C1.66932 1.81597 1.6199 1.91493 1.55931 2.03646C1.62628 2.14063 1.71157 2.25694 1.81521 2.38542C1.91885 2.51389 2.03922 2.65278 2.17634 2.80208C2.31665 2.95486 2.44499 3.08767 2.56138 3.20052C2.67777 3.31337 2.78221 3.40625 2.87468 3.47917C2.9831 3.40972 3.07318 3.3533 3.14493 3.3099C3.21668 3.26649 3.26849 3.23611 3.30038 3.21875C3.33865 3.19444 3.37771 3.17622 3.41757 3.16406C3.45743 3.15191 3.4949 3.14583 3.52997 3.14583C3.55867 3.14583 3.58498 3.14931 3.6089 3.15625C3.63281 3.16319 3.65593 3.17361 3.67825 3.1875C3.82175 3.28125 3.97321 3.38628 4.13265 3.5026C4.29209 3.61892 4.46269 3.74653 4.64445 3.88542C4.67634 3.90972 4.70185 3.94097 4.72098 3.97917C4.74011 4.01736 4.75287 4.05903 4.75925 4.10417C4.76244 4.15278 4.75765 4.20226 4.7449 4.2526C4.73214 4.30295 4.70982 4.35417 4.67793 4.40625C4.66518 4.43056 4.64605 4.46007 4.62054 4.49479C4.59503 4.52951 4.56473 4.56944 4.52966 4.61458C4.49777 4.65972 4.45631 4.71094 4.40529 4.76823C4.35427 4.82552 4.29369 4.88889 4.22353 4.95833C4.15657 5.02778 4.09519 5.07986 4.03938 5.11458C3.98358 5.14931 3.93495 5.16667 3.89349 5.16667H3.88393C3.71811 5.15972 3.54432 5.12066 3.36256 5.04948C3.1808 4.9783 2.98948 4.87674 2.78858 4.74479C2.58769 4.61285 2.37723 4.44792 2.15721 4.25C1.93718 4.05208 1.70759 3.82465 1.46843 3.56771C1.22927 3.30729 1.01961 3.05729 0.839445 2.81771C0.659278 2.57812 0.507813 2.34896 0.385045 2.13021C0.262276 1.91146 0.169005 1.70226 0.10523 1.5026C0.0414538 1.30295 0.00637758 1.11458 0 0.9375C0 0.888889 0.0159437 0.834202 0.0478316 0.773438C0.0797195 0.712673 0.127551 0.644098 0.191327 0.567708C0.255102 0.491319 0.3125 0.426216 0.36352 0.372396C0.414541 0.318576 0.460778 0.274306 0.502232 0.239583C0.540498 0.208333 0.577168 0.17882 0.612245 0.151042C0.647322 0.123264 0.677615 0.0989584 0.703125 0.078125C0.738202 0.0503471 0.774872 0.030382 0.813138 0.0182292C0.851403 0.00607633 0.892857 0 0.9375 0C0.988521 0 1.03396 0.00954852 1.07382 0.0286458C1.11368 0.0477431 1.14796 0.0781248 1.17666 0.119792ZM0.870566 0.333333C0.80679 0.381945 0.744609 0.434896 0.684022 0.492188C0.623435 0.549479 0.564443 0.609375 0.507045 0.671875C0.449647 0.734375 0.404207 0.788194 0.370725 0.833333C0.337243 0.878472 0.315719 0.916667 0.306152 0.947917C0.31253 1.10417 0.346012 1.27083 0.406599 1.44792C0.467186 1.625 0.554876 1.81337 0.669673 2.01302C0.784469 2.21267 0.926368 2.42274 1.09537 2.64323C1.26438 2.86372 1.46049 3.09548 1.6837 3.33854C1.90692 3.5816 2.11977 3.79514 2.32226 3.97917C2.52474 4.1632 2.71766 4.31771 2.90102 4.44271C3.08437 4.56771 3.25816 4.66319 3.42238 4.72917C3.58661 4.79514 3.74046 4.83333 3.88396 4.84375C3.90628 4.83333 3.93817 4.80903 3.97962 4.77083C4.02108 4.73264 4.0705 4.68229 4.1279 4.61979C4.1853 4.55729 4.23951 4.49219 4.29053 4.42448C4.34155 4.35677 4.39097 4.28819 4.43881 4.21875C4.44837 4.20486 4.45475 4.19184 4.45794 4.17969C4.46113 4.16753 4.46113 4.15625 4.45794 4.14583C4.27299 4.00347 4.10319 3.87674 3.94853 3.76562C3.79387 3.65451 3.65437 3.55556 3.53 3.46875C3.51725 3.46875 3.5029 3.47135 3.48696 3.47656C3.47101 3.48177 3.45347 3.48958 3.43434 3.5C3.40883 3.51736 3.361 3.54687 3.29085 3.58854C3.22069 3.63021 3.12981 3.68403 3.01821 3.75L2.86036 3.85417L2.70252 3.73958C2.60048 3.66319 2.48807 3.5651 2.3653 3.44531C2.24254 3.32552 2.10781 3.18576 1.96113 3.02604C1.81763 2.86632 1.69168 2.71962 1.58326 2.58594C1.47484 2.45226 1.38555 2.32986 1.3154 2.21875L1.2006 2.05729L1.29627 1.875C1.35685 1.75347 1.40628 1.65538 1.44455 1.58073C1.48281 1.50608 1.50991 1.45313 1.52586 1.42188C1.53543 1.40104 1.5426 1.38194 1.54738 1.36458C1.55217 1.34722 1.55456 1.3316 1.55456 1.31771C1.44295 1.12674 1.33692 0.947918 1.23648 0.78125C1.13603 0.614582 1.03957 0.458334 0.947096 0.3125H0.93753C0.924775 0.3125 0.912817 0.314236 0.901656 0.317708C0.890495 0.321181 0.880132 0.326389 0.870566 0.333333Z" transform="translate(237.077 336.406)" fill="black"/>
<path fill-rule="evenodd" clip-rule="evenodd" d="M4.88959 1.08408C4.89278 1.10838 4.88959 1.13356 4.88002 1.1596C4.87046 1.18564 4.85611 1.20734 4.83697 1.2247L4.04775 1.94345L4.72218 2.52679C4.74131 2.54067 4.75566 2.55977 4.76523 2.58408C4.77479 2.60838 4.77958 2.63442 4.77958 2.6622C4.77958 2.68998 4.7732 2.71515 4.76044 2.73772C4.74769 2.76029 4.73174 2.77852 4.71261 2.79241L4.1195 3.2247V4.04241C4.1195 4.07019 4.11312 4.09623 4.10037 4.12054C4.08761 4.14484 4.07007 4.16567 4.04775 4.18304L2.52671 5.13095C2.51395 5.14137 2.5004 5.14831 2.48605 5.15179C2.4717 5.15526 2.45815 5.15699 2.44539 5.15699C2.43264 5.15699 2.41908 5.15526 2.40474 5.15179C2.39039 5.14831 2.37683 5.14137 2.36408 5.13095L0.8239 4.18304C0.801578 4.16567 0.78404 4.14484 0.771285 4.12054C0.75853 4.09623 0.752152 4.07019 0.752152 4.04241V3.37054C0.752152 3.34623 0.756936 3.32366 0.766502 3.30283C0.776068 3.28199 0.788823 3.26463 0.804767 3.25074L0.178173 2.79241C0.155851 2.77852 0.13911 2.76029 0.12795 2.73772C0.116789 2.71515 0.109614 2.68998 0.106425 2.6622C0.106425 2.63442 0.111209 2.60838 0.120775 2.58408C0.130341 2.55977 0.146285 2.54067 0.168607 2.52679L0.843033 1.94345L0.0538106 1.2247C0.0346779 1.20734 0.0203285 1.18564 0.0107621 1.1596C0.00119576 1.13356 -0.00199299 1.10838 0.0011958 1.08408C0.0011958 1.0563 0.00757329 1.03113 0.0203285 1.00856C0.0330836 0.985987 0.0506217 0.967758 0.0729433 0.953869L1.43614 0.0267857C1.46166 0.00595229 1.49115 -0.00272818 1.52463 0.000744059C1.55812 0.0042163 1.58761 0.016369 1.61312 0.0372024L2.44539 0.771577L3.27766 0.0372024C3.30317 0.016369 3.33267 0.0042163 3.36615 0.000744059C3.39963 -0.00272818 3.42913 0.00595229 3.45464 0.0267857L4.81784 0.953869C4.84016 0.967758 4.8577 0.985987 4.87046 1.00856C4.88321 1.03113 4.88959 1.0563 4.88959 1.08408ZM3.52156 1.94861L2.44535 1.18298L1.36914 1.94861L2.44535 2.67777L3.52156 1.94861ZM0.412598 1.11528L1.09659 1.74028L2.18715 0.969442L1.50316 0.370483L0.412598 1.11528ZM1.09644 2.15173L0.522461 2.64653L1.56519 3.40173L2.17744 2.89132L1.09644 2.15173ZM1.05811 3.43306V3.94869L2.2826 4.69348V3.22473L1.66557 3.74036C1.63687 3.76119 1.60658 3.77161 1.57469 3.77161C1.5428 3.77161 1.51251 3.76293 1.48381 3.74556L1.05811 3.43306ZM3.81336 3.94869V3.44348L3.402 3.74556C3.38925 3.75251 3.3757 3.75859 3.36135 3.76379C3.347 3.769 3.33185 3.77161 3.31591 3.77161C3.29996 3.77161 3.28402 3.769 3.26808 3.76379C3.25213 3.75859 3.23778 3.75077 3.22503 3.74036L2.58887 3.20911V4.7039L3.81336 3.94869ZM4.36357 2.64132L3.79437 2.15173L2.71338 2.89132L3.32084 3.40173L4.36357 2.64132ZM3.79417 1.74028L4.47817 1.11528L3.38761 0.370483L2.70361 0.969442L3.79417 1.74028Z" transform="translate(249.861 336.421)" fill="black"/>
<path fill-rule="evenodd" clip-rule="evenodd" d="M1.07143 0C1.11288 0 1.14876 0.0164929 1.17905 0.0494792C1.20934 0.0824654 1.22449 0.121528 1.22449 0.166667C1.22449 0.211806 1.20934 0.250868 1.17905 0.283854C1.14876 0.31684 1.11288 0.333333 1.07143 0.333333H0.306122V1.16667C0.306122 1.21181 0.290976 1.25087 0.260682 1.28385C0.230389 1.31684 0.194516 1.33333 0.153061 1.33333C0.111607 1.33333 0.0757336 1.31684 0.0454401 1.28385C0.0151465 1.25087 0 1.21181 0 1.16667V0.166667C0 0.121528 0.0151465 0.0824654 0.0454401 0.0494792C0.0757336 0.0164929 0.111607 0 0.153061 0H1.07143ZM4.74477 2.83337C4.78622 2.83337 4.8221 2.84987 4.85239 2.88285C4.88268 2.91584 4.89783 2.9549 4.89783 3.00004V4.00004C4.89783 4.04518 4.88268 4.08424 4.85239 4.11723C4.8221 4.15021 4.78622 4.16671 4.74477 4.16671H3.8264C3.78495 4.16671 3.74907 4.15021 3.71878 4.11723C3.68849 4.08424 3.67334 4.04518 3.67334 4.00004C3.67334 3.9549 3.68849 3.91584 3.71878 3.88285C3.74907 3.84987 3.78495 3.83337 3.8264 3.83337H4.59171V3.00004C4.59171 2.9549 4.60685 2.91584 4.63715 2.88285C4.66744 2.84987 4.70331 2.83337 4.74477 2.83337ZM1.07143 3.83337C1.11288 3.83337 1.14876 3.84987 1.17905 3.88285C1.20934 3.91584 1.22449 3.9549 1.22449 4.00004C1.22449 4.04518 1.20934 4.08424 1.17905 4.11723C1.14876 4.15021 1.11288 4.16671 1.07143 4.16671H0.153061C0.111607 4.16671 0.0757336 4.15021 0.0454401 4.11723C0.0151465 4.08424 0 4.04518 0 4.00004V3.00004C0 2.9549 0.0151465 2.91584 0.0454401 2.88285C0.0757336 2.84987 0.111607 2.83337 0.153061 2.83337C0.194516 2.83337 0.230389 2.84987 0.260682 2.88285C0.290976 2.91584 0.306122 2.9549 0.306122 3.00004V3.83337H1.07143ZM4.74477 0C4.78622 0 4.8221 0.0164929 4.85239 0.0494792C4.88268 0.0824654 4.89783 0.121528 4.89783 0.166667V1.16667C4.89783 1.21181 4.88268 1.25087 4.85239 1.28385C4.8221 1.31684 4.78622 1.33333 4.74477 1.33333C4.70331 1.33333 4.66744 1.31684 4.63715 1.28385C4.60685 1.25087 4.59171 1.21181 4.59171 1.16667V0.333333H3.8264C3.78495 0.333333 3.74907 0.31684 3.71878 0.283854C3.68849 0.250868 3.67334 0.211806 3.67334 0.166667C3.67334 0.121528 3.68849 0.0824654 3.71878 0.0494792C3.74907 0.0164929 3.78495 0 3.8264 0H4.74477Z" transform="translate(262.102 336.917)" fill="black"/>
<path d="M0.918367 0.333333V3" transform="translate(262.102 337.333)" stroke="black" stroke-width="0.5" stroke-linecap="round"/>
<path d="M0.918367 0.333333V3" transform="translate(262.714 337.333)" stroke="black" stroke-width="0.5" stroke-linecap="round"/>
<path d="M0.918367 0.333333V3" transform="translate(263.327 337.333)" stroke="black" stroke-width="0.5" stroke-linecap="round"/>
<path d="M0.918367 0.333333V3" transform="translate(263.939 337.333)" stroke="black" stroke-width="0.5" stroke-linecap="round"/>
<path d="M0.918367 0.333333V3" transform="translate(264.551 337.333)" stroke="black" stroke-width="0.5" stroke-linecap="round"/>
<path d="M0.918367 0.333333V3" transform="translate(265.163 337.333)" stroke="black" stroke-width="0.5" stroke-linecap="round"/>
<path fill-rule="evenodd" clip-rule="evenodd" d="M0.763184 3.82202C0 5.31946 0 7.27966 0 11.2V61.8C0 65.7203 0 67.6805 0.763184 69.178C1.43408 70.4951 2.50488 71.5659 3.82227 72.2371C5.31934 73 7.27979 73 11.2002 73H115.8C119.72 73 121.681 73 123.178 72.2371C124.495 71.5659 125.566 70.4951 126.237 69.178C127 67.6805 127 65.7203 127 61.8V52.4788C119.018 51.5586 112.82 44.7557 112.82 36.5C112.82 28.2444 119.018 21.4414 127 20.5212V11.2C127 7.27966 127 5.31946 126.237 3.82202C125.566 2.50488 124.495 1.43408 123.178 0.762939C121.681 0 119.72 0 115.8 0H11.2002C7.27979 0 5.31934 0 3.82227 0.762939C2.50488 1.43408 1.43408 2.50488 0.763184 3.82202Z" transform="translate(206 280)" fill="white" stroke="black" stroke-width="4"/>
<mask id="mask0" mask-type="alpha" maskUnits="userSpaceOnUse" x="204" y="278" width="131" height="77">
<path fill-rule="evenodd" clip-rule="evenodd" d="M0.763184 3.82202C0 5.31946 0 7.27966 0 11.2V61.8C0 65.7203 0 67.6805 0.763184 69.178C1.43408 70.4951 2.50488 71.5659 3.82227 72.2371C5.31934 73 7.27979 73 11.2002 73H115.8C119.72 73 121.681 73 123.178 72.2371C124.495 71.5659 125.566 70.4951 126.237 69.178C127 67.6805 127 65.7203 127 61.8V52.4788C119.018 51.5586 112.82 44.7557 112.82 36.5C112.82 28.2444 119.018 21.4414 127 20.5212V11.2C127 7.27966 127 5.31946 126.237 3.82202C125.566 2.50488 124.495 1.43408 123.178 0.762939C121.681 0 119.72 0 115.8 0H11.2002C7.27979 0 5.31934 0 3.82227 0.762939C2.50488 1.43408 1.43408 2.50488 0.763184 3.82202Z" transform="translate(206 280)" fill="white" stroke="white" stroke-width="4"/>
</mask>
<g mask="url(#mask0)">
<path fill-rule="evenodd" clip-rule="evenodd" d="M0 75.4746L123.301 0H0V75.4746Z" transform="translate(206 280)" fill="#D8D8D8" fill-opacity="0.3"/>
<path fill-rule="evenodd" clip-rule="evenodd" d="M0 3.98905V0.534546H1.25274C1.88897 0.534546 2.23421 0.905732 2.23421 1.52933C2.23421 2.15292 1.88897 2.52411 1.25274 2.52411H0.414291V3.98905H0ZM0.414062 2.16273H1.24265C1.58789 2.16273 1.79503 1.97962 1.79503 1.65792V1.40057C1.79503 1.07887 1.58789 0.895752 1.24265 0.895752H0.414062V2.16273ZM4.95667 3.98901C4.65088 3.98901 4.53251 3.81084 4.50292 3.57328H4.47826C4.36975 3.86528 4.12808 4.0484 3.71379 4.0484C3.18113 4.0484 2.84082 3.75145 2.84082 3.27138C2.84082 2.80121 3.17127 2.52901 3.93573 2.52901H4.47826V2.2766C4.47826 1.90541 4.25632 1.7124 3.87162 1.7124C3.53131 1.7124 3.32416 1.85592 3.19099 2.08853L2.92466 1.89057C3.0529 1.62331 3.37841 1.37585 3.89628 1.37585C4.49305 1.37585 4.87282 1.69755 4.87282 2.23701V3.64257H5.22793V3.98901H4.95667ZM3.7831 3.71678C4.18753 3.71678 4.47852 3.50891 4.47852 3.24661V2.82593H3.93599C3.46745 2.82593 3.25537 2.9645 3.25537 3.21196V3.31589C3.25537 3.5782 3.45758 3.71678 3.7831 3.71678ZM5.85449 3.65252H6.59923V1.77185H5.85449V1.4353H6.99379V1.89062H7.01845C7.11709 1.64812 7.35876 1.4353 7.78292 1.4353H8.23174V1.83123H7.70401C7.26012 1.83123 6.99379 2.0094 6.99379 2.25191V3.65252H7.9802V3.98907H5.85449V3.65252ZM10.0022 4.0484C9.2723 4.0484 8.84814 3.51884 8.84814 2.71213C8.84814 1.90046 9.27723 1.37585 9.99731 1.37585C10.4905 1.37585 10.7963 1.61836 10.9393 1.9648L10.6237 2.13307C10.53 1.87077 10.313 1.71735 9.99731 1.71735C9.5337 1.71735 9.2723 2.04399 9.2723 2.49436V2.92989C9.2723 3.38026 9.52877 3.70691 10.0072 3.70691C10.3475 3.70691 10.5694 3.53863 10.6977 3.26148L10.9788 3.4545C10.8308 3.79599 10.5102 4.0484 10.0022 4.0484ZM12.9172 4.0484C12.1872 4.0484 11.7236 3.52379 11.7236 2.71707C11.7236 1.90046 12.202 1.37585 12.8925 1.37585C13.5781 1.37585 14.022 1.90046 14.022 2.62304V2.81111H12.1379V2.92989C12.1379 3.38026 12.4388 3.70691 12.9172 3.70691C13.2575 3.70691 13.514 3.53863 13.6471 3.26148L13.9381 3.45945C13.7852 3.80094 13.4203 4.0484 12.9172 4.0484ZM12.8923 1.70251C12.4583 1.70251 12.1377 2.03411 12.1377 2.47953V2.51418H13.5976V2.45973C13.5976 2.00936 13.3115 1.70251 12.8923 1.70251ZM14.7466 3.65249H15.6343V0.663203H14.7466V0.32666H16.0289V3.65249H16.9167V3.98903H14.7466V3.65249ZM18.638 2.29644L18.1448 2.88044V3.98905H17.7305V0.534546H18.1448V2.33604H18.1596L18.6133 1.76194L19.6293 0.534546H20.1274L18.9191 1.9896L20.162 3.98905H19.6786L18.638 2.29644ZM21.7946 4.0484C21.0647 4.0484 20.6011 3.52379 20.6011 2.71707C20.6011 1.90046 21.0795 1.37585 21.77 1.37585C22.4555 1.37585 22.8994 1.90046 22.8994 2.62304V2.81111H21.0154V2.92989C21.0154 3.38026 21.3162 3.70691 21.7946 3.70691C22.1349 3.70691 22.3914 3.53863 22.5246 3.26148L22.8156 3.45945C22.6627 3.80094 22.2977 4.0484 21.7946 4.0484ZM21.7702 1.70251C21.3362 1.70251 21.0156 2.03411 21.0156 2.47953V2.51418H22.4755V2.45973C22.4755 2.00936 22.1894 1.70251 21.7702 1.70251ZM25.5331 1.4353H25.9276L24.665 4.54832C24.5467 4.84032 24.3987 4.9789 24.014 4.9789H23.6392V4.64235H24.231L24.5171 3.93957L23.4912 1.4353H23.8956L24.3247 2.50432L24.7045 3.47435H24.7242L25.104 2.50432L25.5331 1.4353ZM27.6688 1.13831C27.3482 1.13831 27.0967 0.895797 27.0967 0.569153C27.0967 0.242508 27.3482 0 27.6688 0C27.9894 0 28.2409 0.242508 28.2409 0.569153C28.2409 0.895797 27.9894 1.13831 27.6688 1.13831ZM27.6689 0.895842C27.8464 0.895842 27.9549 0.796859 27.9549 0.623638V0.514757C27.9549 0.341537 27.8464 0.242554 27.6689 0.242554C27.4913 0.242554 27.3828 0.341537 27.3828 0.514757V0.623638C27.3828 0.796859 27.4913 0.895842 27.6689 0.895842Z" transform="translate(212.609 289.003)" fill="black"/>
<path fill-rule="evenodd" clip-rule="evenodd" d="M0 10.2076C0 7.22027 0 5.72659 0.448463 4.53477C1.15852 2.64774 2.64774 1.15852 4.53477 0.448463C5.72659 0 7.22027 0 10.2076 0H68.2244C71.2118 0 72.7054 0 73.8973 0.448463C75.7843 1.15852 77.2735 2.64774 77.9836 4.53477C78.432 5.72659 78.432 7.22027 78.432 10.2076C78.432 13.195 78.432 14.6887 77.9836 15.8805C77.2735 17.7675 75.7843 19.2567 73.8973 19.9668C72.7054 20.4153 71.2118 20.4153 68.2244 20.4153H10.2076C7.22027 20.4153 5.72659 20.4153 4.53477 19.9668C2.64774 19.2567 1.15852 17.7675 0.448463 15.8805C0 14.6887 0 13.195 0 10.2076Z" transform="translate(225.043 305.983)" fill="white" stroke="black" stroke-width="4"/>
</g>
<path fill-rule="evenodd" clip-rule="evenodd" d="M1.17666 0.119792C1.26594 0.255209 1.364 0.409721 1.47082 0.583333C1.57765 0.756945 1.69324 0.949652 1.8176 1.16146C1.84949 1.21701 1.86304 1.27951 1.85826 1.34896C1.85348 1.4184 1.83036 1.49306 1.7889 1.57292C1.77296 1.60764 1.74585 1.66319 1.70759 1.73958C1.66932 1.81597 1.6199 1.91493 1.55931 2.03646C1.62628 2.14063 1.71157 2.25694 1.81521 2.38542C1.91885 2.51389 2.03922 2.65278 2.17634 2.80208C2.31665 2.95486 2.44499 3.08767 2.56138 3.20052C2.67777 3.31337 2.78221 3.40625 2.87468 3.47917C2.9831 3.40972 3.07318 3.3533 3.14493 3.3099C3.21668 3.26649 3.26849 3.23611 3.30038 3.21875C3.33865 3.19444 3.37771 3.17622 3.41757 3.16406C3.45743 3.15191 3.4949 3.14583 3.52997 3.14583C3.55867 3.14583 3.58498 3.14931 3.6089 3.15625C3.63281 3.16319 3.65593 3.17361 3.67825 3.1875C3.82175 3.28125 3.97321 3.38628 4.13265 3.5026C4.29209 3.61892 4.46269 3.74653 4.64445 3.88542C4.67634 3.90972 4.70185 3.94097 4.72098 3.97917C4.74011 4.01736 4.75287 4.05903 4.75925 4.10417C4.76244 4.15278 4.75765 4.20226 4.7449 4.2526C4.73214 4.30295 4.70982 4.35417 4.67793 4.40625C4.66518 4.43056 4.64605 4.46007 4.62054 4.49479C4.59503 4.52951 4.56473 4.56944 4.52966 4.61458C4.49777 4.65972 4.45631 4.71094 4.40529 4.76823C4.35427 4.82552 4.29369 4.88889 4.22353 4.95833C4.15657 5.02778 4.09519 5.07986 4.03938 5.11458C3.98358 5.14931 3.93495 5.16667 3.89349 5.16667H3.88393C3.71811 5.15972 3.54432 5.12066 3.36256 5.04948C3.1808 4.9783 2.98948 4.87674 2.78858 4.74479C2.58769 4.61285 2.37723 4.44792 2.15721 4.25C1.93718 4.05208 1.70759 3.82465 1.46843 3.56771C1.22927 3.30729 1.01961 3.05729 0.839445 2.81771C0.659278 2.57812 0.507813 2.34896 0.385045 2.13021C0.262276 1.91146 0.169005 1.70226 0.10523 1.5026C0.0414538 1.30295 0.00637758 1.11458 0 0.9375C0 0.888889 0.0159437 0.834202 0.0478316 0.773438C0.0797195 0.712673 0.127551 0.644098 0.191327 0.567708C0.255102 0.491319 0.3125 0.426216 0.36352 0.372396C0.414541 0.318576 0.460778 0.274306 0.502232 0.239583C0.540498 0.208333 0.577168 0.17882 0.612245 0.151042C0.647322 0.123264 0.677615 0.0989584 0.703125 0.078125C0.738202 0.0503471 0.774872 0.030382 0.813138 0.0182292C0.851403 0.00607633 0.892857 0 0.9375 0C0.988521 0 1.03396 0.00954852 1.07382 0.0286458C1.11368 0.0477431 1.14796 0.0781248 1.17666 0.119792ZM0.870566 0.333333C0.80679 0.381945 0.744609 0.434896 0.684022 0.492188C0.623435 0.549479 0.564443 0.609375 0.507045 0.671875C0.449647 0.734375 0.404207 0.788194 0.370725 0.833333C0.337243 0.878472 0.315719 0.916667 0.306152 0.947917C0.31253 1.10417 0.346012 1.27083 0.406599 1.44792C0.467186 1.625 0.554876 1.81337 0.669673 2.01302C0.784469 2.21267 0.926368 2.42274 1.09537 2.64323C1.26438 2.86372 1.46049 3.09548 1.6837 3.33854C1.90692 3.5816 2.11977 3.79514 2.32226 3.97917C2.52474 4.1632 2.71766 4.31771 2.90102 4.44271C3.08437 4.56771 3.25816 4.66319 3.42238 4.72917C3.58661 4.79514 3.74046 4.83333 3.88396 4.84375C3.90628 4.83333 3.93817 4.80903 3.97962 4.77083C4.02108 4.73264 4.0705 4.68229 4.1279 4.61979C4.1853 4.55729 4.23951 4.49219 4.29053 4.42448C4.34155 4.35677 4.39097 4.28819 4.43881 4.21875C4.44837 4.20486 4.45475 4.19184 4.45794 4.17969C4.46113 4.16753 4.46113 4.15625 4.45794 4.14583C4.27299 4.00347 4.10319 3.87674 3.94853 3.76562C3.79387 3.65451 3.65437 3.55556 3.53 3.46875C3.51725 3.46875 3.5029 3.47135 3.48696 3.47656C3.47101 3.48177 3.45347 3.48958 3.43434 3.5C3.40883 3.51736 3.361 3.54687 3.29085 3.58854C3.22069 3.63021 3.12981 3.68403 3.01821 3.75L2.86036 3.85417L2.70252 3.73958C2.60048 3.66319 2.48807 3.5651 2.3653 3.44531C2.24254 3.32552 2.10781 3.18576 1.96113 3.02604C1.81763 2.86632 1.69168 2.71962 1.58326 2.58594C1.47484 2.45226 1.38555 2.32986 1.3154 2.21875L1.2006 2.05729L1.29627 1.875C1.35685 1.75347 1.40628 1.65538 1.44455 1.58073C1.48281 1.50608 1.50991 1.45313 1.52586 1.42188C1.53543 1.40104 1.5426 1.38194 1.54738 1.36458C1.55217 1.34722 1.55456 1.3316 1.55456 1.31771C1.44295 1.12674 1.33692 0.947918 1.23648 0.78125C1.13603 0.614582 1.03957 0.458334 0.947096 0.3125H0.93753C0.924775 0.3125 0.912817 0.314236 0.901656 0.317708C0.890495 0.321181 0.880132 0.326389 0.870566 0.333333Z" transform="translate(214.077 340.406)" fill="black"/>
<path fill-rule="evenodd" clip-rule="evenodd" d="M4.88959 1.08408C4.89278 1.10838 4.88959 1.13356 4.88002 1.1596C4.87046 1.18564 4.85611 1.20734 4.83697 1.2247L4.04775 1.94345L4.72218 2.52679C4.74131 2.54067 4.75566 2.55977 4.76523 2.58408C4.77479 2.60838 4.77958 2.63442 4.77958 2.6622C4.77958 2.68998 4.7732 2.71515 4.76044 2.73772C4.74769 2.76029 4.73174 2.77852 4.71261 2.79241L4.1195 3.2247V4.04241C4.1195 4.07019 4.11312 4.09623 4.10037 4.12054C4.08761 4.14484 4.07007 4.16567 4.04775 4.18304L2.52671 5.13095C2.51395 5.14137 2.5004 5.14831 2.48605 5.15179C2.4717 5.15526 2.45815 5.15699 2.44539 5.15699C2.43264 5.15699 2.41908 5.15526 2.40474 5.15179C2.39039 5.14831 2.37683 5.14137 2.36408 5.13095L0.8239 4.18304C0.801578 4.16567 0.78404 4.14484 0.771285 4.12054C0.75853 4.09623 0.752152 4.07019 0.752152 4.04241V3.37054C0.752152 3.34623 0.756936 3.32366 0.766502 3.30283C0.776068 3.28199 0.788823 3.26463 0.804767 3.25074L0.178173 2.79241C0.155851 2.77852 0.13911 2.76029 0.12795 2.73772C0.116789 2.71515 0.109614 2.68998 0.106425 2.6622C0.106425 2.63442 0.111209 2.60838 0.120775 2.58408C0.130341 2.55977 0.146285 2.54067 0.168607 2.52679L0.843033 1.94345L0.0538106 1.2247C0.0346779 1.20734 0.0203285 1.18564 0.0107621 1.1596C0.00119576 1.13356 -0.00199299 1.10838 0.0011958 1.08408C0.0011958 1.0563 0.00757329 1.03113 0.0203285 1.00856C0.0330836 0.985987 0.0506217 0.967758 0.0729433 0.953869L1.43614 0.0267857C1.46166 0.00595229 1.49115 -0.00272818 1.52463 0.000744059C1.55812 0.0042163 1.58761 0.016369 1.61312 0.0372024L2.44539 0.771577L3.27766 0.0372024C3.30317 0.016369 3.33267 0.0042163 3.36615 0.000744059C3.39963 -0.00272818 3.42913 0.00595229 3.45464 0.0267857L4.81784 0.953869C4.84016 0.967758 4.8577 0.985987 4.87046 1.00856C4.88321 1.03113 4.88959 1.0563 4.88959 1.08408ZM3.52156 1.94861L2.44535 1.18298L1.36914 1.94861L2.44535 2.67777L3.52156 1.94861ZM0.412598 1.11528L1.09659 1.74028L2.18715 0.969442L1.50316 0.370483L0.412598 1.11528ZM1.09644 2.15173L0.522461 2.64653L1.56519 3.40173L2.17744 2.89132L1.09644 2.15173ZM1.05811 3.43306V3.94869L2.2826 4.69348V3.22473L1.66557 3.74036C1.63687 3.76119 1.60658 3.77161 1.57469 3.77161C1.5428 3.77161 1.51251 3.76293 1.48381 3.74556L1.05811 3.43306ZM3.81336 3.94869V3.44348L3.402 3.74556C3.38925 3.75251 3.3757 3.75859 3.36135 3.76379C3.347 3.769 3.33185 3.77161 3.31591 3.77161C3.29996 3.77161 3.28402 3.769 3.26808 3.76379C3.25213 3.75859 3.23778 3.75077 3.22503 3.74036L2.58887 3.20911V4.7039L3.81336 3.94869ZM4.36357 2.64132L3.79437 2.15173L2.71338 2.89132L3.32084 3.40173L4.36357 2.64132ZM3.79417 1.74028L4.47817 1.11528L3.38761 0.370483L2.70361 0.969442L3.79417 1.74028Z" transform="translate(226.861 340.421)" fill="black"/>
<path fill-rule="evenodd" clip-rule="evenodd" d="M1.07143 0C1.11288 0 1.14876 0.0164929 1.17905 0.0494792C1.20934 0.0824654 1.22449 0.121528 1.22449 0.166667C1.22449 0.211806 1.20934 0.250868 1.17905 0.283854C1.14876 0.31684 1.11288 0.333333 1.07143 0.333333H0.306122V1.16667C0.306122 1.21181 0.290976 1.25087 0.260682 1.28385C0.230389 1.31684 0.194516 1.33333 0.153061 1.33333C0.111607 1.33333 0.0757336 1.31684 0.0454401 1.28385C0.0151465 1.25087 0 1.21181 0 1.16667V0.166667C0 0.121528 0.0151465 0.0824654 0.0454401 0.0494792C0.0757336 0.0164929 0.111607 0 0.153061 0H1.07143ZM4.74477 2.83337C4.78622 2.83337 4.8221 2.84987 4.85239 2.88285C4.88268 2.91584 4.89783 2.9549 4.89783 3.00004V4.00004C4.89783 4.04518 4.88268 4.08424 4.85239 4.11723C4.8221 4.15021 4.78622 4.16671 4.74477 4.16671H3.8264C3.78495 4.16671 3.74907 4.15021 3.71878 4.11723C3.68849 4.08424 3.67334 4.04518 3.67334 4.00004C3.67334 3.9549 3.68849 3.91584 3.71878 3.88285C3.74907 3.84987 3.78495 3.83337 3.8264 3.83337H4.59171V3.00004C4.59171 2.9549 4.60685 2.91584 4.63715 2.88285C4.66744 2.84987 4.70331 2.83337 4.74477 2.83337ZM1.07143 3.83337C1.11288 3.83337 1.14876 3.84987 1.17905 3.88285C1.20934 3.91584 1.22449 3.9549 1.22449 4.00004C1.22449 4.04518 1.20934 4.08424 1.17905 4.11723C1.14876 4.15021 1.11288 4.16671 1.07143 4.16671H0.153061C0.111607 4.16671 0.0757336 4.15021 0.0454401 4.11723C0.0151465 4.08424 0 4.04518 0 4.00004V3.00004C0 2.9549 0.0151465 2.91584 0.0454401 2.88285C0.0757336 2.84987 0.111607 2.83337 0.153061 2.83337C0.194516 2.83337 0.230389 2.84987 0.260682 2.88285C0.290976 2.91584 0.306122 2.9549 0.306122 3.00004V3.83337H1.07143ZM4.74477 0C4.78622 0 4.8221 0.0164929 4.85239 0.0494792C4.88268 0.0824654 4.89783 0.121528 4.89783 0.166667V1.16667C4.89783 1.21181 4.88268 1.25087 4.85239 1.28385C4.8221 1.31684 4.78622 1.33333 4.74477 1.33333C4.70331 1.33333 4.66744 1.31684 4.63715 1.28385C4.60685 1.25087 4.59171 1.21181 4.59171 1.16667V0.333333H3.8264C3.78495 0.333333 3.74907 0.31684 3.71878 0.283854C3.68849 0.250868 3.67334 0.211806 3.67334 0.166667C3.67334 0.121528 3.68849 0.0824654 3.71878 0.0494792C3.74907 0.0164929 3.78495 0 3.8264 0H4.74477Z" transform="translate(239.102 340.917)" fill="black"/>
<path d="M0.918367 0.333333V3" transform="translate(239.102 341.333)" stroke="black" stroke-width="0.5" stroke-linecap="round"/>
<path d="M0.918367 0.333333V3" transform="translate(239.714 341.333)" stroke="black" stroke-width="0.5" stroke-linecap="round"/>
<path d="M0.918367 0.333333V3" transform="translate(240.327 341.333)" stroke="black" stroke-width="0.5" stroke-linecap="round"/>
<path d="M0.918367 0.333333V3" transform="translate(240.939 341.333)" stroke="black" stroke-width="0.5" stroke-linecap="round"/>
<path d="M0.918367 0.333333V3" transform="translate(241.551 341.333)" stroke="black" stroke-width="0.5" stroke-linecap="round"/>
<path d="M0.918367 0.333333V3" transform="translate(242.163 341.333)" stroke="black" stroke-width="0.5" stroke-linecap="round"/>
<path fill-rule="evenodd" clip-rule="evenodd" d="M3.46509 0.383911L0.454102 1.65229L1.75259 2.04748L2.20047 3.3422L3.46509 0.383911ZM3.77723 0C3.81236 0 3.83494 0.0138002 3.84498 0.041401C3.85502 0.0690018 3.85 0.106639 3.82993 0.154313L2.29433 3.74491C2.27927 3.78004 2.26171 3.80576 2.24163 3.82207C2.22156 3.83838 2.20023 3.84653 2.17765 3.84653C2.15758 3.84653 2.13688 3.83963 2.11555 3.82583C2.09422 3.81203 2.07603 3.79133 2.06097 3.76373L1.57169 2.24318L0.085016 1.78024C0.024796 1.74261 -0.00343165 1.70058 0.0003321 1.65416C0.00409585 1.60774 0.0385964 1.57073 0.103835 1.54313L3.69443 0.0188186C3.712 0.0112912 3.72768 0.00627289 3.74148 0.00376373C3.75528 0.00125456 3.7672 0 3.77723 0Z" transform="translate(250 341)" fill="black"/>
<path fill-rule="evenodd" clip-rule="evenodd" d="M5.75547 19.2047C10.7671 19.2047 15.3872 20.0857 19.6157 21.8476C23.8443 23.6095 27.5051 26.0369 30.5982 29.1301C33.6914 32.2232 36.1091 35.9036 37.8514 40.1713C39.5937 44.439 40.4649 49.0591 40.4649 54.0316C40.4649 54.5797 40.2789 55.0398 39.9069 55.4117C39.535 55.7837 39.0749 55.9697 38.5268 55.9697C37.9786 55.9697 37.5186 55.7837 37.1466 55.4117C36.7747 55.0398 36.5887 54.5797 36.5887 54.0316C36.5887 49.6072 35.8154 45.4962 34.2689 41.6983C32.7223 37.9004 30.5787 34.6213 27.8379 31.861C25.0972 29.1007 21.8377 26.9473 18.0594 25.4007C14.2811 23.8542 10.1798 23.0809 5.75547 23.0809C5.20732 23.0809 4.74728 22.8949 4.37532 22.523C4.00336 22.151 3.81738 21.691 3.81738 21.1428C3.81738 20.5947 4.00336 20.1346 4.37532 19.7626C4.74728 19.3907 5.20732 19.2047 5.75547 19.2047ZM5.75547 0C13.1946 0 20.1834 1.40951 26.7221 4.22856C33.2607 7.04761 38.977 10.9042 43.8712 15.7984C48.7654 20.6926 52.622 26.4089 55.441 32.9475C58.2601 39.4861 59.6696 46.4749 59.6696 53.9141C59.6696 54.4231 59.4836 54.8734 59.1116 55.2649C58.7397 55.6564 58.2992 55.8522 57.7902 55.8522C57.2421 55.8522 56.782 55.6564 56.4101 55.2649C56.0381 54.8734 55.8521 54.4231 55.8521 53.9141C55.8521 47.0231 54.5405 40.5335 51.9172 34.4451C49.2939 28.3568 45.7114 23.0417 41.1696 18.4999C36.6278 13.9581 31.3128 10.3756 25.2245 7.75236C19.1361 5.12907 12.6465 3.81745 5.75547 3.81745C5.24648 3.81745 4.79622 3.63147 4.40468 3.25951C4.01315 2.88756 3.81738 2.42751 3.81738 1.87936C3.81738 1.37036 4.01315 0.929893 4.40468 0.557935C4.79622 0.185976 5.24648 0 5.75547 0ZM10.5714 38.5856C13.5079 38.5856 16.0039 39.6231 18.0595 41.6983C20.115 43.7734 21.1428 46.2596 21.1428 49.157C21.1428 52.0935 20.115 54.5993 18.0595 56.6744C16.0039 58.7495 13.5079 59.7871 10.5714 59.7871C7.63488 59.7871 5.13888 58.7495 3.08332 56.6744C1.02776 54.5993 0 52.0935 0 49.157C0 46.2596 1.02776 43.7734 3.08332 41.6983C5.13888 39.6231 7.63488 38.5856 10.5714 38.5856ZM10.5716 56.0871C12.451 56.0871 14.066 55.4117 15.4168 54.0609C16.7676 52.7101 17.443 51.0755 17.443 49.1569C17.443 47.2776 16.7676 45.6625 15.4168 44.3117C14.066 42.9609 12.451 42.2855 10.5716 42.2855C8.69223 42.2855 7.07718 42.9609 5.72638 44.3117C4.37558 45.6625 3.7002 47.2776 3.7002 49.1569C3.7002 51.0755 4.37558 52.7101 5.72638 54.0609C7.07718 55.4117 8.69223 56.0871 10.5716 56.0871Z" transform="translate(342 223)" fill="black"/>
<path fill-rule="evenodd" clip-rule="evenodd" d="M5.75571 19.2048C10.7674 19.2048 15.3874 20.0857 19.616 21.8476C23.8446 23.6095 27.5054 26.037 30.5985 29.1301C33.6916 32.2233 36.1093 35.9037 37.8516 40.1714C39.594 44.4391 40.4651 49.0592 40.4651 54.0317C40.4651 54.5798 40.2791 55.0399 39.9072 55.4118C39.5352 55.7838 39.0752 55.9697 38.527 55.9697C37.9789 55.9697 37.5188 55.7838 37.1469 55.4118C36.7749 55.0399 36.5889 54.5798 36.5889 54.0317C36.5889 49.6073 35.8157 45.4963 34.2691 41.6984C32.7225 37.9005 30.5789 34.6214 27.8382 31.8611C25.0974 29.1008 21.8379 26.9474 18.0596 25.4008C14.2813 23.8542 10.1801 23.081 5.75571 23.081C5.20756 23.081 4.74751 22.895 4.37555 22.523C4.00359 22.1511 3.81762 21.691 3.81762 21.1429C3.81762 20.5947 4.00359 20.1347 4.37555 19.7627C4.74751 19.3908 5.20756 19.2048 5.75571 19.2048ZM5.75553 -0.000172633C13.1947 -0.000172633 20.1835 1.40933 26.7221 4.22839C33.2608 7.04744 38.9771 10.904 43.8713 15.7982C48.7655 20.6924 52.622 26.4087 55.4411 32.9473C58.2601 39.486 59.6696 46.4748 59.6696 53.9139C59.6696 54.4229 59.4837 54.8732 59.1117 55.2647C58.7398 55.6563 58.2993 55.852 57.7903 55.852C57.2421 55.852 56.7821 55.6563 56.4101 55.2647C56.0382 54.8732 55.8522 54.4229 55.8522 53.9139C55.8522 47.0229 54.5406 40.5333 51.9173 34.445C49.294 28.3566 45.7115 23.0416 41.1697 18.4998C36.6279 13.958 31.3129 10.3755 25.2245 7.75218C19.1361 5.1289 12.6466 3.81728 5.75553 3.81728C5.24654 3.81728 4.79628 3.6313 4.40474 3.25934C4.01321 2.88738 3.81744 2.42734 3.81744 1.87919C3.81744 1.37019 4.01321 0.92972 4.40474 0.557762C4.79628 0.185804 5.24654 -0.000172633 5.75553 -0.000172633ZM10.5714 38.5857C13.5079 38.5857 16.0039 39.6232 18.0595 41.6983C20.115 43.7735 21.1428 46.2597 21.1428 49.1571C21.1428 52.0936 20.115 54.5994 18.0595 56.6745C16.0039 58.7496 13.5079 59.7872 10.5714 59.7872C7.63488 59.7872 5.13888 58.7496 3.08332 56.6745C1.02776 54.5994 0 52.0936 0 49.1571C0 46.2597 1.02776 43.7735 3.08332 41.6983C5.13888 39.6232 7.63488 38.5857 10.5714 38.5857ZM10.5713 56.0871C12.4507 56.0871 14.0657 55.4117 15.4165 54.0609C16.7673 52.7101 17.4427 51.0755 17.4427 49.1569C17.4427 47.2776 16.7673 45.6625 15.4165 44.3117C14.0657 42.9609 12.4507 42.2855 10.5713 42.2855C8.69192 42.2855 7.07686 42.9609 5.72606 44.3117C4.37527 45.6625 3.69988 47.2776 3.69988 49.1569C3.69988 51.0755 4.37527 52.7101 5.72606 54.0609C7.07686 55.4117 8.69192 56.0871 10.5713 56.0871Z" transform="translate(842.069 822.852) scale(-1 1) rotate(-45)" fill="black"/>
<path fill-rule="evenodd" clip-rule="evenodd" d="M5.75559 19.2047C10.7672 19.2047 15.3873 20.0856 19.6159 21.8475C23.8444 23.6094 27.5052 26.0369 30.5984 29.13C33.6915 32.2232 36.1092 35.9035 37.8515 40.1713C39.5939 44.439 40.465 49.059 40.465 54.0315C40.465 54.5797 40.279 55.0397 39.9071 55.4117C39.5351 55.7836 39.0751 55.9696 38.5269 55.9696C37.9788 55.9696 37.5187 55.7836 37.1468 55.4117C36.7748 55.0397 36.5888 54.5797 36.5888 54.0315C36.5888 49.6072 35.8156 45.4961 34.269 41.6982C32.7224 37.9004 30.5788 34.6213 27.8381 31.861C25.0973 29.1007 21.8378 26.9472 18.0595 25.4007C14.2812 23.8541 10.1799 23.0808 5.75559 23.0808C5.20744 23.0808 4.7474 22.8949 4.37544 22.5229C4.00348 22.1509 3.8175 21.6909 3.8175 21.1428C3.8175 20.5946 4.00348 20.1346 4.37544 19.7626C4.7474 19.3906 5.20744 19.2047 5.75559 19.2047ZM5.75552 -0.000199296C13.1947 -0.000199296 20.1835 1.40931 26.7221 4.22836C33.2608 7.04741 38.9771 10.904 43.8713 15.7982C48.7655 20.6924 52.622 26.4087 55.4411 32.9473C58.2601 39.486 59.6696 46.4747 59.6696 53.9139C59.6696 54.4229 59.4837 54.8732 59.1117 55.2647C58.7397 55.6562 58.2993 55.852 57.7903 55.852C57.2421 55.852 56.7821 55.6562 56.4101 55.2647C56.0382 54.8732 55.8522 54.4229 55.8522 53.9139C55.8522 47.0229 54.5406 40.5333 51.9173 34.4449C49.294 28.3566 45.7115 23.0415 41.1697 18.4997C36.6279 13.9579 31.3129 10.3754 25.2245 7.75216C19.1361 5.12887 12.6465 3.81725 5.75552 3.81725C5.24652 3.81725 4.79626 3.63127 4.40473 3.25931C4.01319 2.88736 3.81743 2.42731 3.81743 1.87916C3.81743 1.37016 4.01319 0.929694 4.40473 0.557735C4.79626 0.185777 5.24652 -0.000199296 5.75552 -0.000199296ZM10.5715 38.5852C13.508 38.5852 16.004 39.6228 18.0595 41.6979C20.1151 43.7731 21.1429 46.2593 21.1429 49.1566C21.1429 52.0931 20.1151 54.5989 18.0595 56.6741C16.004 58.7492 13.508 59.7868 10.5715 59.7868C7.63494 59.7868 5.13895 58.7492 3.08339 56.6741C1.02783 54.5989 6.31425e-05 52.0931 6.31425e-05 49.1566C6.31425e-05 46.2593 1.02783 43.7731 3.08339 41.6979C5.13895 39.6228 7.63494 38.5852 10.5715 38.5852ZM10.5713 56.0874C12.4507 56.0874 14.0657 55.412 15.4165 54.0612C16.7673 52.7104 17.4427 51.0758 17.4427 49.1573C17.4427 47.2779 16.7673 45.6629 15.4165 44.3121C14.0657 42.9613 12.4507 42.2859 10.5713 42.2859C8.69195 42.2859 7.0769 42.9613 5.7261 44.3121C4.3753 45.6629 3.69992 47.2779 3.69992 49.1573C3.69992 51.0758 4.3753 52.7104 5.7261 54.0612C7.0769 55.412 8.69195 56.0874 10.5713 56.0874Z" transform="translate(1368.36 289) scale(-1 1) rotate(80)" fill="black"/>
<path fill-rule="evenodd" clip-rule="evenodd" d="M5.75528 19.2043C10.7669 19.2043 15.387 20.0853 19.6156 21.8472C23.8441 23.6091 27.5049 26.0366 30.5981 29.1297C33.6912 32.2228 36.1089 35.9032 37.8512 40.1709C39.5935 44.4387 40.4647 49.0587 40.4647 54.0312C40.4647 54.5794 40.2787 55.0394 39.9068 55.4114C39.5348 55.7833 39.0747 55.9693 38.5266 55.9693C37.9785 55.9693 37.5184 55.7833 37.1464 55.4114C36.7745 55.0394 36.5885 54.5794 36.5885 54.0312C36.5885 49.6069 35.8152 45.4958 34.2687 41.6979C32.7221 37.9 30.5785 34.621 27.8377 31.8606C25.097 29.1003 21.8375 26.9469 18.0592 25.4004C14.2809 23.8538 10.1796 23.0805 5.75528 23.0805C5.20713 23.0805 4.74708 22.8945 4.37512 22.5226C4.00317 22.1506 3.81719 21.6906 3.81719 21.1424C3.81719 20.5943 4.00317 20.1342 4.37512 19.7623C4.74708 19.3903 5.20713 19.2043 5.75528 19.2043ZM5.75568 0.000443979C13.1948 0.000443979 20.1836 1.40995 26.7223 4.229C33.2609 7.04805 38.9772 10.9046 43.8714 15.7988C48.7656 20.693 52.6222 26.4093 55.4412 32.948C58.2603 39.4866 59.6698 46.4754 59.6698 53.9146C59.6698 54.4236 59.4838 54.8738 59.1119 55.2653C58.7399 55.6569 58.2994 55.8526 57.7904 55.8526C57.2423 55.8526 56.7822 55.6569 56.4103 55.2653C56.0383 54.8738 55.8523 54.4236 55.8523 53.9146C55.8523 47.0235 54.5407 40.5339 51.9174 34.4456C49.2942 28.3572 45.7117 23.0422 41.1698 18.5004C36.628 13.9586 31.313 10.3761 25.2247 7.7528C19.1363 5.12952 12.6467 3.81789 5.75568 3.81789C5.24668 3.81789 4.79643 3.63192 4.40489 3.25996C4.01335 2.888 3.81759 2.42795 3.81759 1.8798C3.81759 1.37081 4.01335 0.930337 4.40489 0.558379C4.79643 0.18642 5.24668 0.000443979 5.75568 0.000443979ZM10.5714 38.5855C13.5079 38.5855 16.0039 39.623 18.0595 41.6982C20.115 43.7733 21.1428 46.2595 21.1428 49.1569C21.1428 52.0934 20.115 54.5992 18.0595 56.6743C16.0039 58.7494 13.5079 59.787 10.5714 59.787C7.6349 59.787 5.1389 58.7494 3.08334 56.6743C1.02778 54.5992 1.84924e-05 52.0934 1.84924e-05 49.1569C1.84924e-05 46.2595 1.02778 43.7733 3.08334 41.6982C5.1389 39.623 7.6349 38.5855 10.5714 38.5855ZM10.5716 56.0874C12.451 56.0874 14.066 55.412 15.4168 54.0612C16.7676 52.7104 17.443 51.0758 17.443 49.1573C17.443 47.2779 16.7676 45.6628 15.4168 44.312C14.066 42.9612 12.451 42.2858 10.5716 42.2858C8.69221 42.2858 7.07716 42.9612 5.72636 44.312C4.37556 45.6628 3.70018 47.2779 3.70018 49.1573C3.70018 51.0758 4.37556 52.7104 5.72636 54.0612C7.07716 55.412 8.69221 56.0874 10.5716 56.0874Z" transform="translate(1145 693.894) scale(1 -1) rotate(-60)" fill="black"/>
<path fill-rule="evenodd" clip-rule="evenodd" d="M5.75528 19.2043C10.7669 19.2043 15.387 20.0853 19.6156 21.8472C23.8441 23.6091 27.5049 26.0366 30.5981 29.1297C33.6912 32.2228 36.1089 35.9032 37.8512 40.1709C39.5935 44.4387 40.4647 49.0587 40.4647 54.0312C40.4647 54.5794 40.2787 55.0394 39.9068 55.4114C39.5348 55.7833 39.0747 55.9693 38.5266 55.9693C37.9785 55.9693 37.5184 55.7833 37.1464 55.4114C36.7745 55.0394 36.5885 54.5794 36.5885 54.0312C36.5885 49.6069 35.8152 45.4958 34.2687 41.6979C32.7221 37.9 30.5785 34.621 27.8377 31.8606C25.097 29.1003 21.8375 26.9469 18.0592 25.4004C14.2809 23.8538 10.1796 23.0805 5.75528 23.0805C5.20713 23.0805 4.74708 22.8945 4.37512 22.5226C4.00317 22.1506 3.81719 21.6906 3.81719 21.1424C3.81719 20.5943 4.00317 20.1342 4.37512 19.7623C4.74708 19.3903 5.20713 19.2043 5.75528 19.2043ZM5.75568 0.000443979C13.1948 0.000443979 20.1836 1.40995 26.7223 4.229C33.2609 7.04805 38.9772 10.9046 43.8714 15.7988C48.7656 20.693 52.6222 26.4093 55.4412 32.948C58.2603 39.4866 59.6698 46.4754 59.6698 53.9146C59.6698 54.4236 59.4838 54.8738 59.1119 55.2653C58.7399 55.6569 58.2994 55.8526 57.7904 55.8526C57.2423 55.8526 56.7822 55.6569 56.4103 55.2653C56.0383 54.8738 55.8523 54.4236 55.8523 53.9146C55.8523 47.0235 54.5407 40.5339 51.9174 34.4456C49.2942 28.3572 45.7117 23.0422 41.1698 18.5004C36.628 13.9586 31.313 10.3761 25.2247 7.7528C19.1363 5.12952 12.6467 3.81789 5.75568 3.81789C5.24668 3.81789 4.79643 3.63192 4.40489 3.25996C4.01335 2.888 3.81759 2.42795 3.81759 1.8798C3.81759 1.37081 4.01335 0.930337 4.40489 0.558379C4.79643 0.18642 5.24668 0.000443979 5.75568 0.000443979ZM10.5714 38.5855C13.5079 38.5855 16.0039 39.623 18.0595 41.6982C20.115 43.7733 21.1428 46.2595 21.1428 49.1569C21.1428 52.0934 20.115 54.5992 18.0595 56.6743C16.0039 58.7494 13.5079 59.787 10.5714 59.787C7.6349 59.787 5.1389 58.7494 3.08334 56.6743C1.02778 54.5992 1.84924e-05 52.0934 1.84924e-05 49.1569C1.84924e-05 46.2595 1.02778 43.7733 3.08334 41.6982C5.1389 39.623 7.6349 38.5855 10.5714 38.5855ZM10.5716 56.0874C12.451 56.0874 14.066 55.412 15.4168 54.0612C16.7676 52.7104 17.443 51.0758 17.443 49.1573C17.443 47.2779 16.7676 45.6628 15.4168 44.312C14.066 42.9612 12.451 42.2858 10.5716 42.2858C8.69221 42.2858 7.07716 42.9612 5.72636 44.312C4.37556 45.6628 3.70018 47.2779 3.70018 49.1573C3.70018 51.0758 4.37556 52.7104 5.72636 54.0612C7.07716 55.412 8.69221 56.0874 10.5716 56.0874Z" transform="translate(1145 693.894) scale(1 -1) rotate(-60)" fill="black"/>
<path fill-rule="evenodd" clip-rule="evenodd" d="M5.75528 19.2043C10.7669 19.2043 15.387 20.0853 19.6156 21.8472C23.8441 23.6091 27.5049 26.0366 30.5981 29.1297C33.6912 32.2228 36.1089 35.9032 37.8512 40.1709C39.5935 44.4387 40.4647 49.0587 40.4647 54.0312C40.4647 54.5794 40.2787 55.0394 39.9068 55.4114C39.5348 55.7833 39.0747 55.9693 38.5266 55.9693C37.9785 55.9693 37.5184 55.7833 37.1464 55.4114C36.7745 55.0394 36.5885 54.5794 36.5885 54.0312C36.5885 49.6069 35.8152 45.4958 34.2687 41.6979C32.7221 37.9 30.5785 34.621 27.8377 31.8606C25.097 29.1003 21.8375 26.9469 18.0592 25.4004C14.2809 23.8538 10.1796 23.0805 5.75528 23.0805C5.20713 23.0805 4.74708 22.8945 4.37512 22.5226C4.00317 22.1506 3.81719 21.6906 3.81719 21.1424C3.81719 20.5943 4.00317 20.1342 4.37512 19.7623C4.74708 19.3903 5.20713 19.2043 5.75528 19.2043ZM5.75568 0.000443979C13.1948 0.000443979 20.1836 1.40995 26.7223 4.229C33.2609 7.04805 38.9772 10.9046 43.8714 15.7988C48.7656 20.693 52.6222 26.4093 55.4412 32.948C58.2603 39.4866 59.6698 46.4754 59.6698 53.9146C59.6698 54.4236 59.4838 54.8738 59.1119 55.2653C58.7399 55.6569 58.2994 55.8526 57.7904 55.8526C57.2423 55.8526 56.7822 55.6569 56.4103 55.2653C56.0383 54.8738 55.8523 54.4236 55.8523 53.9146C55.8523 47.0235 54.5407 40.5339 51.9174 34.4456C49.2942 28.3572 45.7117 23.0422 41.1698 18.5004C36.628 13.9586 31.313 10.3761 25.2247 7.7528C19.1363 5.12952 12.6467 3.81789 5.75568 3.81789C5.24668 3.81789 4.79643 3.63192 4.40489 3.25996C4.01335 2.888 3.81759 2.42795 3.81759 1.8798C3.81759 1.37081 4.01335 0.930337 4.40489 0.558379C4.79643 0.18642 5.24668 0.000443979 5.75568 0.000443979ZM10.5714 38.5855C13.5079 38.5855 16.0039 39.623 18.0595 41.6982C20.115 43.7733 21.1428 46.2595 21.1428 49.1569C21.1428 52.0934 20.115 54.5992 18.0595 56.6743C16.0039 58.7494 13.5079 59.787 10.5714 59.787C7.6349 59.787 5.1389 58.7494 3.08334 56.6743C1.02778 54.5992 1.84924e-05 52.0934 1.84924e-05 49.1569C1.84924e-05 46.2595 1.02778 43.7733 3.08334 41.6982C5.1389 39.623 7.6349 38.5855 10.5714 38.5855ZM10.5716 56.0874C12.451 56.0874 14.066 55.412 15.4168 54.0612C16.7676 52.7104 17.443 51.0758 17.443 49.1573C17.443 47.2779 16.7676 45.6628 15.4168 44.312C14.066 42.9612 12.451 42.2858 10.5716 42.2858C8.69221 42.2858 7.07716 42.9612 5.72636 44.312C4.37556 45.6628 3.70018 47.2779 3.70018 49.1573C3.70018 51.0758 4.37556 52.7104 5.72636 54.0612C7.07716 55.412 8.69221 56.0874 10.5716 56.0874Z" transform="translate(992 714.894) scale(1 -1) rotate(-60)" fill="black"/>
<path fill-rule="evenodd" clip-rule="evenodd" d="M5.75528 19.2043C10.7669 19.2043 15.387 20.0853 19.6156 21.8472C23.8441 23.6091 27.5049 26.0366 30.5981 29.1297C33.6912 32.2228 36.1089 35.9032 37.8512 40.1709C39.5935 44.4387 40.4647 49.0587 40.4647 54.0312C40.4647 54.5794 40.2787 55.0394 39.9068 55.4114C39.5348 55.7833 39.0747 55.9693 38.5266 55.9693C37.9785 55.9693 37.5184 55.7833 37.1464 55.4114C36.7745 55.0394 36.5885 54.5794 36.5885 54.0312C36.5885 49.6069 35.8152 45.4958 34.2687 41.6979C32.7221 37.9 30.5785 34.621 27.8377 31.8606C25.097 29.1003 21.8375 26.9469 18.0592 25.4004C14.2809 23.8538 10.1796 23.0805 5.75528 23.0805C5.20713 23.0805 4.74708 22.8945 4.37512 22.5226C4.00317 22.1506 3.81719 21.6906 3.81719 21.1424C3.81719 20.5943 4.00317 20.1342 4.37512 19.7623C4.74708 19.3903 5.20713 19.2043 5.75528 19.2043ZM5.75568 0.000443979C13.1948 0.000443979 20.1836 1.40995 26.7223 4.229C33.2609 7.04805 38.9772 10.9046 43.8714 15.7988C48.7656 20.693 52.6222 26.4093 55.4412 32.948C58.2603 39.4866 59.6698 46.4754 59.6698 53.9146C59.6698 54.4236 59.4838 54.8738 59.1119 55.2653C58.7399 55.6569 58.2994 55.8526 57.7904 55.8526C57.2423 55.8526 56.7822 55.6569 56.4103 55.2653C56.0383 54.8738 55.8523 54.4236 55.8523 53.9146C55.8523 47.0235 54.5407 40.5339 51.9174 34.4456C49.2942 28.3572 45.7117 23.0422 41.1698 18.5004C36.628 13.9586 31.313 10.3761 25.2247 7.7528C19.1363 5.12952 12.6467 3.81789 5.75568 3.81789C5.24668 3.81789 4.79643 3.63192 4.40489 3.25996C4.01335 2.888 3.81759 2.42795 3.81759 1.8798C3.81759 1.37081 4.01335 0.930337 4.40489 0.558379C4.79643 0.18642 5.24668 0.000443979 5.75568 0.000443979ZM10.5714 38.5855C13.5079 38.5855 16.0039 39.623 18.0595 41.6982C20.115 43.7733 21.1428 46.2595 21.1428 49.1569C21.1428 52.0934 20.115 54.5992 18.0595 56.6743C16.0039 58.7494 13.5079 59.787 10.5714 59.787C7.6349 59.787 5.1389 58.7494 3.08334 56.6743C1.02778 54.5992 1.84924e-05 52.0934 1.84924e-05 49.1569C1.84924e-05 46.2595 1.02778 43.7733 3.08334 41.6982C5.1389 39.623 7.6349 38.5855 10.5714 38.5855ZM10.5716 56.0874C12.451 56.0874 14.066 55.412 15.4168 54.0612C16.7676 52.7104 17.443 51.0758 17.443 49.1573C17.443 47.2779 16.7676 45.6628 15.4168 44.312C14.066 42.9612 12.451 42.2858 10.5716 42.2858C8.69221 42.2858 7.07716 42.9612 5.72636 44.312C4.37556 45.6628 3.70018 47.2779 3.70018 49.1573C3.70018 51.0758 4.37556 52.7104 5.72636 54.0612C7.07716 55.412 8.69221 56.0874 10.5716 56.0874Z" transform="translate(820 683.894) scale(1 -1) rotate(-60)" fill="black"/>
<path d="M2.7 31H5.22V22.12H10.32C14.19 22.12 16.29 19.87 16.29 16.09C16.29 12.31 14.19 10.06 10.32 10.06H2.7V31ZM5.22 19.93V12.25H10.26C12.36 12.25 13.62 13.36 13.62 15.31V16.87C13.62 18.82 12.36 19.93 10.26 19.93H5.22ZM32.8383 31H34.4883V28.9H32.3283V20.38C32.3283 17.11 30.0183 15.16 26.3883 15.16C23.2383 15.16 21.2583 16.66 20.4783 18.28L22.0983 19.48C22.9083 18.07 24.1683 17.2 26.2383 17.2C28.5783 17.2 29.9283 18.37 29.9283 20.62V22.15H26.6283C21.9783 22.15 19.9683 23.8 19.9683 26.65C19.9683 29.56 22.0383 31.36 25.2783 31.36C27.7983 31.36 29.2683 30.25 29.9283 28.48H30.0783C30.2583 29.92 30.9783 31 32.8383 31ZM25.6983 29.35C23.7183 29.35 22.4883 28.51 22.4883 26.92V26.29C22.4883 24.79 23.7783 23.95 26.6283 23.95H29.9283V26.5C29.9283 28.09 28.1583 29.35 25.6983 29.35ZM38.2866 28.96V31H51.2166V28.96H45.2166V20.47C45.2166 19 46.8366 17.92 49.5366 17.92H52.7466V15.52H50.0166C47.4366 15.52 45.9666 16.81 45.3666 18.28H45.2166V15.52H38.2866V17.56H42.8166V28.96H38.2866ZM63.5048 31.36C66.5948 31.36 68.5448 29.83 69.4448 27.76L67.7348 26.59C66.9548 28.27 65.6048 29.29 63.5348 29.29C60.6248 29.29 59.0648 27.31 59.0648 24.58V21.94C59.0648 19.21 60.6548 17.23 63.4748 17.23C65.3948 17.23 66.7148 18.16 67.2848 19.75L69.2048 18.73C68.3348 16.63 66.4748 15.16 63.4748 15.16C59.0948 15.16 56.4848 18.34 56.4848 23.26C56.4848 28.15 59.0648 31.36 63.5048 31.36ZM81.2231 31.36C84.2831 31.36 86.5031 29.86 87.4331 27.79L85.6631 26.59C84.8531 28.27 83.2931 29.29 81.2231 29.29C78.3131 29.29 76.4831 27.31 76.4831 24.58V23.86H87.9431V22.72C87.9431 18.34 85.2431 15.16 81.0731 15.16C76.8731 15.16 73.9631 18.34 73.9631 23.29C73.9631 28.18 76.7831 31.36 81.2231 31.36ZM81.0731 17.14C83.6231 17.14 85.3631 19 85.3631 21.73V22.06H76.4831V21.85C76.4831 19.15 78.4331 17.14 81.0731 17.14ZM92.3414 28.96V31H105.541V28.96H100.141V8.8H92.3414V10.84H97.7414V28.96H92.3414ZM116 20.74L122.33 31H125.27L117.71 18.88L125.06 10.06H122.03L115.85 17.5L113.09 20.98H113V10.06H110.48V31H113V24.28L116 20.74ZM135.188 31.36C138.248 31.36 140.468 29.86 141.398 27.79L139.628 26.59C138.818 28.27 137.258 29.29 135.188 29.29C132.278 29.29 130.448 27.31 130.448 24.58V23.86H141.908V22.72C141.908 18.34 139.208 15.16 135.038 15.16C130.838 15.16 127.928 18.34 127.928 23.29C127.928 28.18 130.748 31.36 135.188 31.36ZM135.038 17.14C137.588 17.14 139.328 19 139.328 21.73V22.06H130.448V21.85C130.448 19.15 132.398 17.14 135.038 17.14ZM157.916 15.52L155.306 22L152.996 27.88H152.876L150.566 22L147.956 15.52H145.496L151.736 30.7L149.996 34.96H146.396V37H148.676C151.016 37 151.916 36.16 152.636 34.39L160.316 15.52H157.916ZM194.313 31H196.983L190.563 10.06H187.233L180.813 31H183.423L185.193 25.03H192.543L194.313 31ZM189.003 12.73L191.943 22.84H185.793L188.733 12.73H189.003ZM200.571 31H203.091V22.12H208.191C212.061 22.12 214.161 19.87 214.161 16.09C214.161 12.31 212.061 10.06 208.191 10.06H200.571V31ZM203.091 19.93V12.25H208.131C210.231 12.25 211.491 13.36 211.491 15.31V16.87C211.491 18.82 210.231 19.93 208.131 19.93H203.091ZM218.379 31H231.339V28.99H226.119V12.07H231.339V10.06H218.379V12.07H223.599V28.99H218.379V31Z" transform="translate(1469 214)" fill="black"/>
<path d="M2.7 31H5.22V22.12H10.32C14.19 22.12 16.29 19.87 16.29 16.09C16.29 12.31 14.19 10.06 10.32 10.06H2.7V31ZM5.22 19.93V12.25H10.26C12.36 12.25 13.62 13.36 13.62 15.31V16.87C13.62 18.82 12.36 19.93 10.26 19.93H5.22ZM32.8383 31H34.4883V28.9H32.3283V20.38C32.3283 17.11 30.0183 15.16 26.3883 15.16C23.2383 15.16 21.2583 16.66 20.4783 18.28L22.0983 19.48C22.9083 18.07 24.1683 17.2 26.2383 17.2C28.5783 17.2 29.9283 18.37 29.9283 20.62V22.15H26.6283C21.9783 22.15 19.9683 23.8 19.9683 26.65C19.9683 29.56 22.0383 31.36 25.2783 31.36C27.7983 31.36 29.2683 30.25 29.9283 28.48H30.0783C30.2583 29.92 30.9783 31 32.8383 31ZM25.6983 29.35C23.7183 29.35 22.4883 28.51 22.4883 26.92V26.29C22.4883 24.79 23.7783 23.95 26.6283 23.95H29.9283V26.5C29.9283 28.09 28.1583 29.35 25.6983 29.35ZM38.2866 28.96V31H51.2166V28.96H45.2166V20.47C45.2166 19 46.8366 17.92 49.5366 17.92H52.7466V15.52H50.0166C47.4366 15.52 45.9666 16.81 45.3666 18.28H45.2166V15.52H38.2866V17.56H42.8166V28.96H38.2866ZM63.5048 31.36C66.5948 31.36 68.5448 29.83 69.4448 27.76L67.7348 26.59C66.9548 28.27 65.6048 29.29 63.5348 29.29C60.6248 29.29 59.0648 27.31 59.0648 24.58V21.94C59.0648 19.21 60.6548 17.23 63.4748 17.23C65.3948 17.23 66.7148 18.16 67.2848 19.75L69.2048 18.73C68.3348 16.63 66.4748 15.16 63.4748 15.16C59.0948 15.16 56.4848 18.34 56.4848 23.26C56.4848 28.15 59.0648 31.36 63.5048 31.36ZM81.2231 31.36C84.2831 31.36 86.5031 29.86 87.4331 27.79L85.6631 26.59C84.8531 28.27 83.2931 29.29 81.2231 29.29C78.3131 29.29 76.4831 27.31 76.4831 24.58V23.86H87.9431V22.72C87.9431 18.34 85.2431 15.16 81.0731 15.16C76.8731 15.16 73.9631 18.34 73.9631 23.29C73.9631 28.18 76.7831 31.36 81.2231 31.36ZM81.0731 17.14C83.6231 17.14 85.3631 19 85.3631 21.73V22.06H76.4831V21.85C76.4831 19.15 78.4331 17.14 81.0731 17.14ZM92.3414 28.96V31H105.541V28.96H100.141V8.8H92.3414V10.84H97.7414V28.96H92.3414ZM116 20.74L122.33 31H125.27L117.71 18.88L125.06 10.06H122.03L115.85 17.5L113.09 20.98H113V10.06H110.48V31H113V24.28L116 20.74ZM135.188 31.36C138.248 31.36 140.468 29.86 141.398 27.79L139.628 26.59C138.818 28.27 137.258 29.29 135.188 29.29C132.278 29.29 130.448 27.31 130.448 24.58V23.86H141.908V22.72C141.908 18.34 139.208 15.16 135.038 15.16C130.838 15.16 127.928 18.34 127.928 23.29C127.928 28.18 130.748 31.36 135.188 31.36ZM135.038 17.14C137.588 17.14 139.328 19 139.328 21.73V22.06H130.448V21.85C130.448 19.15 132.398 17.14 135.038 17.14ZM157.916 15.52L155.306 22L152.996 27.88H152.876L150.566 22L147.956 15.52H145.496L151.736 30.7L149.996 34.96H146.396V37H148.676C151.016 37 151.916 36.16 152.636 34.39L160.316 15.52H157.916ZM190.143 12.25H197.133V10.06H180.633V12.25H187.623V31H190.143V12.25ZM200.181 28.96V31H213.111V28.96H207.111V20.47C207.111 19 208.731 17.92 211.431 17.92H214.641V15.52H211.911C209.331 15.52 207.861 16.81 207.261 18.28H207.111V15.52H200.181V17.56H204.711V28.96H200.181ZM230.709 31H232.359V28.9H230.199V20.38C230.199 17.11 227.889 15.16 224.259 15.16C221.109 15.16 219.129 16.66 218.349 18.28L219.969 19.48C220.779 18.07 222.039 17.2 224.109 17.2C226.449 17.2 227.799 18.37 227.799 20.62V22.15H224.499C219.849 22.15 217.839 23.8 217.839 26.65C217.839 29.56 219.909 31.36 223.149 31.36C225.669 31.36 227.139 30.25 227.799 28.48H227.949C228.129 29.92 228.849 31 230.709 31ZM223.569 29.35C221.589 29.35 220.359 28.51 220.359 26.92V26.29C220.359 24.79 221.649 23.95 224.499 23.95H227.799V26.5C227.799 28.09 226.029 29.35 223.569 29.35ZM243.388 31.36C246.478 31.36 248.428 29.83 249.328 27.76L247.618 26.59C246.838 28.27 245.488 29.29 243.418 29.29C240.508 29.29 238.948 27.31 238.948 24.58V21.94C238.948 19.21 240.538 17.23 243.358 17.23C245.278 17.23 246.598 18.16 247.168 19.75L249.088 18.73C248.218 16.63 246.358 15.16 243.358 15.16C238.978 15.16 236.368 18.34 236.368 23.26C236.368 28.15 238.948 31.36 243.388 31.36ZM254.986 8.8V31H257.386V25.39L260.056 22.96L266.086 31H269.056L261.886 21.58L268.306 15.52H265.366L260.206 20.26L257.506 22.81H257.386V8.8H254.986ZM279.094 31.36C282.154 31.36 284.374 29.86 285.304 27.79L283.534 26.59C282.724 28.27 281.164 29.29 279.094 29.29C276.184 29.29 274.354 27.31 274.354 24.58V23.86H285.814V22.72C285.814 18.34 283.114 15.16 278.944 15.16C274.744 15.16 271.834 18.34 271.834 23.29C271.834 28.18 274.654 31.36 279.094 31.36ZM278.944 17.14C281.494 17.14 283.234 19 283.234 21.73V22.06H274.354V21.85C274.354 19.15 276.304 17.14 278.944 17.14ZM290.122 28.96V31H303.053V28.96H297.052V20.47C297.052 19 298.672 17.92 301.372 17.92H304.583V15.52H301.852C299.272 15.52 297.803 16.81 297.202 18.28H297.052V15.52H290.122V17.56H294.653V28.96H290.122Z" transform="translate(128 395)" fill="black"/>
<path fill-rule="evenodd" clip-rule="evenodd" d="M0 0.16C0 0.103995 0 0.0759921 0.0108993 0.054601C0.0204867 0.0357847 0.0357847 0.0204867 0.054601 0.0108993C0.0759921 0 0.103995 0 0.16 0H256.84C256.896 0 256.924 0 256.945 0.0108993C256.964 0.0204867 256.98 0.0357847 256.989 0.054601C257 0.0759921 257 0.103995 257 0.16V33.84C257 33.896 257 33.924 256.989 33.9454C256.98 33.9642 256.964 33.9795 256.945 33.9891C256.924 34 256.896 34 256.84 34H0.16C0.103995 34 0.0759921 34 0.054601 33.9891C0.0357847 33.9795 0.0204867 33.9642 0.0108993 33.9454C0 33.924 0 33.896 0 33.84V0.16Z" transform="translate(827 862)" fill="white" stroke="black" stroke-width="4"/>
<path fill-rule="evenodd" clip-rule="evenodd" d="M0 9L89.6519 0H345.8L256.148 9H0Z" transform="translate(828.1 853)" fill="white" stroke="black" stroke-width="4"/>
<path fill-rule="evenodd" clip-rule="evenodd" d="M0 42.8992C0 42.9582 0.0508097 43.0044 0.109537 42.9988L90 34.3862V0.110008C90 0.0510226 89.9492 0.00485207 89.8905 0.0104614L0 8.59765V42.8992Z" transform="translate(1084 852.995)" fill="white" stroke="black" stroke-width="4"/>
</svg>
