<svg width="87" height="125" viewBox="0 0 87 125" fill="none" xmlns="http://www.w3.org/2000/svg">
<path d="M82.3999 7.8H74.6V34C74.6 40.3 72.8 46 69.3 50.9C65.8 55.8 60.2 60.2 52.8 63.9C60.5 67.8 66.1 72.3 69.6 77.3C73.1 82.3 74.8 88.4 74.8 95.5C74.8 100.1 74.8 104.3 74.7 108.1C74.6 111.9 74.6 114.8 74.6 116.9H82.3999C83.4999 116.9 84.4 117.3 85.1 118.1C85.8 118.9 86.3 119.8 86.3 120.8C86.3 121.9 85.9 122.9 85.1 123.6C84.3 124.3 83.3999 124.7 82.3999 124.7H4.00005C2.90005 124.7 1.99998 124.3 1.29998 123.6C0.599976 122.9 0.100024 121.9 0.100024 120.8C0.100024 119.7 0.499976 118.8 1.29998 118.1C2.09998 117.4 3.00005 116.9 4.00005 116.9H12.1C12.1 114.8 12.1 111.9 12 108.1C11.9 104.3 11.9 100.2 11.9 95.5C11.9 88.4 13.6 82.4 17 77.3C20.4 72.2 26 67.8 33.6 63.9C26.3 60.2 20.8 55.8 17.3 50.9C13.8 46 12 40.3 12 34V7.8H3.89995C2.79995 7.8 1.9 7.4 1.2 6.6C0.5 5.8 4.88281e-05 4.9 4.88281e-05 3.9C4.88281e-05 2.8 0.4 1.8 1.2 1.1C2 0.4 2.89995 2.98023e-09 3.89995 2.98023e-09H82.3C83.4 2.98023e-09 84.3 0.4 85 1.1C85.8 1.8 86.2 2.8 86.2 3.9C86.2 5 85.8 5.9 85 6.6C84.2 7.3 83.3999 7.8 82.3999 7.8ZM19.8 95.6C19.8 100.3 19.8 104.5 19.9 108.2C20 111.9 20 114.8 20 116.9H66.8999C66.8999 114.8 66.9 111.9 67 108.1C67.1 104.3 67.1 100.2 67.1 95.5C67.1 90.1 65.6 85.2 62.6 80.9C59.6 76.6 53.2 72.3 43.4 68.2C33.6 72.3 27.3 76.5 24.4 80.9C21.5 85.3 19.8 90.2 19.8 95.6ZM66.8 7.8H19.9V34C19.9 37.7 21.2 41.9 23.8 46.5C26.4 51.1 32.9 55.5 43.2 59.8C53.6 55.5 60.1 51.1 62.8 46.5C65.5 41.9 66.8 37.8 66.8 34V7.8Z" transform="translate(0.700195 0.292969)" fill="white"/>
</svg>
