<svg width="122" height="121" viewBox="0 0 122 121" fill="none" xmlns="http://www.w3.org/2000/svg">
<path d="M29.9 2.6C32.2 5.8 34.7 9.4 37.4 13.5C40.1 17.6 43.1 22.1 46.3 27C47.1 28.3 47.5 29.8 47.3 31.4C47.1 33 46.6 34.8 45.5 36.6C45.1 37.4 44.4 38.7 43.4 40.5C42.4 42.3 41.2 44.6 39.6 47.5C41.3 49.9 43.5 52.7 46.1 55.7C48.7 58.7 51.8 62 55.3 65.5C58.9 69.1 62.2 72.2 65.1 74.8C68 77.4 70.7 79.6 73.1 81.3C75.9 79.7 78.2 78.3 80 77.3C81.8 76.3 83.2 75.6 84 75.2C85 74.6 86 74.2 87 73.9C88 73.6 89 73.5 89.9 73.5C90.6 73.5 91.3 73.6 91.9 73.7C92.5 73.8 93.1 74.1 93.7 74.4C97.4 76.6 101.2 79.1 105.3 81.8C109.4 84.5 113.7 87.5 118.4 90.8C119.2 91.4 119.9 92.1 120.4 93C120.9 93.9 121.2 94.9 121.4 95.9C121.5 97 121.4 98.2 121 99.4C120.6 100.6 120.1 101.8 119.3 103C119 103.6 118.5 104.3 117.8 105.1C117.1 105.9 116.4 106.8 115.5 107.9C114.7 109 113.6 110.2 112.3 111.5C111 112.8 109.5 114.3 107.7 116C106 117.6 104.4 118.8 103 119.7C101.6 120.6 100.3 120.9 99.3 120.9H99.1C94.9 120.7 90.4 119.8 85.8 118.2C81.2 116.6 76.3 114.2 71.2 111.1C66.1 108 60.7 104.1 55.1 99.5C49.5 94.9 43.6 89.5 37.5 83.5C31.4 77.4 26 71.5 21.4 65.9C16.8 60.3 12.9 54.9 9.80002 49.8C6.70002 44.7 4.29999 39.8 2.69999 35.1C1.09999 30.4 0.199976 26 -2.44141e-05 21.9C-2.44141e-05 20.8 0.399988 19.5 1.19999 18.1C1.99999 16.7 3.2 15.1 4.9 13.3C6.6 11.5 8.00002 10 9.30002 8.7C10.6 7.4 11.8 6.4 12.8 5.6C13.8 4.9 14.7 4.2 15.6 3.5C16.5 2.8 17.3 2.3 17.9 1.8C18.8 1.1 19.7 0.7 20.7 0.4C21.7 0.1 22.7 0 23.9 0C25.2 0 26.4 0.2 27.4 0.7C28.4 1.2 29.1 1.6 29.9 2.6ZM22.1 7.6C20.5 8.7 18.9 10 17.3 11.3C15.7 12.6 14.2 14 12.8 15.5C11.4 17 10.2 18.2 9.30002 19.3C8.40002 20.4 7.89999 21.3 7.69999 22C7.89999 25.7 8.70002 29.6 10.3 33.7C11.9 37.8 14.1 42.3 17 46.9C19.9 51.5 23.6 56.5 27.9 61.7C32.2 66.9 37.2 72.3 42.9 78C48.6 83.7 54 88.7 59.2 93C64.4 97.3 69.3 100.9 74 103.9C78.7 106.9 83.1 109.1 87.3 110.6C91.5 112.1 95.4 113 99.1 113.3C99.7 113.1 100.5 112.5 101.5 111.6C102.5 110.7 103.8 109.5 105.3 108.1C106.8 106.7 108.1 105.1 109.5 103.5C110.9 101.9 112.1 100.3 113.3 98.7C113.5 98.4 113.7 98.1 113.8 97.8C113.9 97.5 113.9 97.3 113.8 97C109.1 93.7 104.7 90.7 100.8 88.1C96.9 85.5 93.3 83.2 90.1 81.1C89.8 81.1 89.4 81.2 89 81.3C88.6 81.4 88.1 81.6 87.7 81.8C87 82.2 85.8 82.9 84 83.9C82.2 84.9 79.9 86.1 77 87.7L73 90.1L69 87.4C66.4 85.6 63.5 83.3 60.4 80.5C57.3 77.7 53.8 74.4 50.1 70.7C46.4 67 43.2 63.5 40.5 60.4C37.7 57.3 35.5 54.4 33.7 51.8L30.8 48L33.2 43.7C34.7 40.9 36 38.6 37 36.8C38 35 38.7 33.8 39.1 33.1C39.3 32.6 39.5 32.2 39.6 31.8C39.7 31.4 39.8 31 39.8 30.7C37 26.2 34.2 22 31.7 18.1C29.2 14.2 26.7 10.5 24.3 7.1H24.1C23.8 7.1 23.5 7.1 23.2 7.2C22.9 7.3 22.3 7.4 22.1 7.6Z" transform="translate(0.5 0.0927734)" fill="white"/>
</svg>
