<svg width="126" height="126" viewBox="0 0 126 126" fill="none" xmlns="http://www.w3.org/2000/svg">
<path d="M62.5 1.49012e-09C71.1 1.49012e-09 79.2 1.6 86.9 4.9C94.6 8.2 101.1 12.6 106.8 18.3C112.5 24 116.9 30.6 120.2 38.2C123.5 45.8 125.1 53.9 125.1 62.6C125.1 71.2 123.5 79.3 120.2 87C116.9 94.7 112.5 101.2 106.8 106.9C101.1 112.6 94.5 117 86.9 120.3C79.3 123.6 71.2 125.2 62.5 125.2C53.8 125.2 45.8 123.6 38.1 120.3C30.4 117 23.9 112.6 18.2 106.9C12.5 101.2 8.09999 94.6 4.79999 87C1.49999 79.4 0 71.1 0 62.5C0 53.9 1.60002 45.8 4.90002 38.1C8.20002 30.4 12.6 23.9 18.3 18.2C24 12.5 30.5 8.1 38.1 4.9C45.7 1.7 53.9 1.49012e-09 62.5 1.49012e-09ZM62.5 117.3C70.1 117.3 77.2 115.9 83.8 113C90.4 110.1 96.2 106.2 101.1 101.2C106 96.2 109.9 90.4 112.8 83.8C115.7 77.2 117.1 70.1 117.1 62.5C117.1 54.9 115.7 47.8 112.8 41.2C109.9 34.6 106 28.8 101.1 23.9C96.2 19 90.4 15.1 83.8 12.2C77.2 9.3 70.1 7.9 62.5 7.9C54.9 7.9 47.8 9.3 41.2 12.2C34.6 15.1 28.8 19 23.9 23.9C19 28.8 15.1 34.6 12.2 41.2C9.30001 47.8 7.90002 54.9 7.90002 62.5C7.90002 70.1 9.30001 77.2 12.2 83.8C15.1 90.4 19 96.2 23.9 101.2C28.8 106.2 34.6 110.1 41.2 113C47.8 115.9 54.9 117.3 62.5 117.3ZM66.4 60.9L84.8 79.3C85.5 80 85.9 80.9 85.9 82C85.9 83.1 85.5 84 84.8 84.7C84.1 85.5 83.2 85.9 82.1 85.9C81 85.9 80.1 85.5 79.4 84.7L60 65.4C60 65.3 60 65.3 59.9 65.2C59.8 65.1 59.8 65.1 59.8 65.1C59.4 64.8 59.1 64.4 58.9 63.9C58.7 63.4 58.6 62.9 58.6 62.3V23.4C58.6 22.3 59 21.4 59.8 20.7C60.6 20 61.5 19.5 62.5 19.5C63.5 19.5 64.5 19.9 65.2 20.7C65.9 21.5 66.4 22.4 66.4 23.4V60.9V60.9Z" transform="translate(0.400391 0.193359)" fill="white"/>
</svg>
