<svg width="125" height="99" viewBox="0 0 125 99" fill="none" xmlns="http://www.w3.org/2000/svg">
<path d="M120.9 71.2C122 71.9 123 72.9 123.7 74.1C124.4 75.3 124.8 76.6 124.8 78.1C124.8 80.2 124 82 122.5 83.6C121 85.1 119.1 85.9 116.9 85.9C114.7 85.9 112.9 85.1 111.3 83.6C109.8 82.1 109 80.2 109 78.1C109 76.6 109.4 75.3 110.1 74.1C110.8 72.9 111.8 72 112.9 71.2V43.9L97.2 52.2C97.4 52.4 97.5 52.7 97.5 53C97.5 53.3 97.6 53.5 97.6 53.8V87.7C97.6 88.3 97.5 88.8 97.2 89.3C96.9 89.8 96.6 90.3 96.1 90.6C95.7 91 93 92.3 88.1 94.4C83.2 96.5 74.5 97.6 62.2 97.6C49.9 97.6 41.2 96.5 36.4 94.2C31.6 91.9 28.9 90.6 28.5 90.2C28 89.9 27.7 89.4 27.5 88.9C27.3 88.4 27.2 87.8 27.2 87.3V54.2C27.2 53.9 27.2 53.5 27.3 53.2C27.4 52.9 27.5 52.6 27.7 52.3L2 38.8C1.3 38.5 0.8 38 0.5 37.4C0.2 36.8 1.49012e-09 36.1 1.49012e-09 35.4C1.49012e-09 34.7 0.2 34 0.5 33.4C0.8 32.8 1.3 32.3 1.9 32L60.4 0.499988C61 0.199988 61.6 -1.2207e-05 62.3 -1.2207e-05C63 -1.2207e-05 63.6 0.199988 64.2 0.499988L123 31.9C123.6 32.3 124 32.8 124.4 33.4C124.8 34 124.9 34.7 124.9 35.4C124.9 36.1 124.7 36.7 124.4 37.4C124 38.1 123.5 38.5 122.9 38.9L120.9 39.9V71.2ZM89.7 85.4V56.2L63.9 69.7C63.6 69.9 63.3 70 63 70.1C62.7 70.2 62.4 70.2 62.1 70.2C61.8 70.2 61.4 70.2 61.1 70.1C60.8 70 60.5 69.9 60.2 69.7L34.9 56.3V85.2C36.3 85.9 39.1 86.9 43.4 88C47.7 89.1 53.9 89.7 62.1 89.7C70.3 89.7 76.6 89.2 80.9 88.1C85.2 87 88.2 86.1 89.7 85.4ZM62.2 62L112.7 35.3L62.3 8.30001L11.9 35.2L62.2 62Z" transform="translate(0 0.599609)" fill="white"/>
</svg>
