<?xml version="1.0" standalone="no"?>
<!DOCTYPE svg PUBLIC "-//W3C//DTD SVG 1.1//EN" "http://www.w3.org/Graphics/SVG/1.1/DTD/svg11.dtd" >
<svg xmlns="http://www.w3.org/2000/svg" xmlns:xlink="http://www.w3.org/1999/xlink" version="1.1">
<metadata>
Created by FontForge 20170910 at Tue Nov 28 10:57:38 2017
 By Jimmy Wärting
\\\(c\\\) 2017 IBM Corp. All rights reserved.
</metadata>
<defs>
<font id="iAWriterDuospace-Regular" horiz-adv-x="600" >
  <font-face 
    font-family="iA Writer Duospace"
    font-weight="400"
    font-stretch="normal"
    units-per-em="1000"
    panose-1="2 11 5 9 5 0 0 0 0 0"
    ascent="780"
    descent="-220"
    x-height="516"
    cap-height="698"
    bbox="-260 -251 876 1119"
    underline-thickness="60"
    underline-position="-170"
    stemh="50"
    stemv="68"
    unicode-range="U+0020-FB02"
  />
<missing-glyph 
d="M50 670h500v-920h-500v920z" />
    <glyph glyph-name=".notdef" 
d="M50 670h500v-920h-500v920z" />
    <glyph glyph-name="a" unicode="a" 
d="M495 0c-62 0 -86 36 -92 84h-5c-22 -59 -71 -96 -155 -96c-108 0 -177 60 -177 157c0 95 67 150 222 150h110v51c0 75 -45 114 -123 114c-69 0 -111 -29 -138 -76l-54 40c26 54 92 104 197 104c121 0 198 -65 198 -174v-284h72v-70h-55zM257 55c82 0 141 42 141 95v85
h-110c-95 0 -138 -28 -138 -78v-21c0 -53 41 -81 107 -81z" />
    <glyph glyph-name="a.alt01" 
d="M425 84h-4c-33 -63 -87 -96 -159 -96c-126 0 -202 101 -202 270s76 270 202 270c72 0 126 -33 159 -96h4v84h80v-516h-80v84zM293 59c71 0 132 37 132 106v186c0 69 -61 106 -132 106c-93 0 -147 -62 -147 -155v-88c0 -93 54 -155 147 -155z" />
    <glyph glyph-name="b" unicode="b" 
d="M95 740h80v-308h4c33 63 87 96 159 96c126 0 202 -101 202 -270s-76 -270 -202 -270c-72 0 -126 33 -159 96h-4v-84h-80v740zM307 59c93 0 147 62 147 155v88c0 93 -54 155 -147 155c-71 0 -132 -37 -132 -106v-186c0 -69 61 -106 132 -106z" />
    <glyph glyph-name="c" unicode="c" 
d="M318 -12c-148 0 -234 107 -234 270c0 164 87 270 233 270c100 0 162 -49 191 -119l-64 -34c-19 53 -63 84 -127 84c-94 0 -147 -66 -147 -157v-88c0 -91 52 -157 149 -157c69 0 114 34 140 90l57 -39c-30 -69 -95 -120 -198 -120z" />
    <glyph glyph-name="d" unicode="d" 
d="M425 84h-4c-33 -63 -87 -96 -159 -96c-126 0 -202 101 -202 270s76 270 202 270c72 0 126 -33 159 -96h4v308h80v-740h-80v84zM293 59c71 0 132 37 132 106v186c0 69 -61 106 -132 106c-93 0 -147 -62 -147 -155v-88c0 -93 54 -155 147 -155z" />
    <glyph glyph-name="e" unicode="e" 
d="M309 -12c-148 0 -242 106 -242 269c0 165 97 271 237 271c139 0 229 -106 229 -252v-38h-382v-24c0 -91 61 -157 158 -157c69 0 121 34 148 90l59 -40c-31 -69 -105 -119 -207 -119zM304 462c-88 0 -153 -67 -153 -157v-7h296v11c0 91 -58 153 -143 153z" />
    <glyph glyph-name="f" unicode="f" 
d="M83 68h174v380h-184v68h184v106c0 69 36 118 114 118h173v-68h-207v-156h207v-68h-207v-380h184v-68h-438v68z" />
    <glyph glyph-name="g" unicode="g" 
d="M505 17c0 -142 -83 -229 -227 -229c-84 0 -144 29 -185 71l47 55c35 -36 80 -56 139 -56c97 0 146 52 146 154v86h-4c-33 -63 -87 -96 -159 -96c-126 0 -202 101 -202 263s76 263 202 263c72 0 126 -33 159 -96h4v84h80v-499zM293 73c71 0 132 37 132 106v172
c0 69 -61 106 -132 106c-93 0 -147 -62 -147 -155v-74c0 -93 54 -155 147 -155z" />
    <glyph glyph-name="g.alt01" 
d="M561 -59c0 -104 -88 -153 -260 -153c-166 0 -234 46 -234 128c0 55 31 85 84 99v12c-29 14 -46 36 -46 71c0 53 40 77 93 90v4c-63 28 -101 85 -101 158c0 105 79 178 200 178c39 0 73 -7 102 -21v9c0 40 17 70 62 70h95v-70h-116v-35c37 -32 58 -77 58 -131
c0 -105 -80 -178 -201 -178c-17 0 -33 1 -49 4c-31 -6 -74 -24 -74 -59c0 -31 34 -38 83 -38h114c133 0 190 -54 190 -138zM486 -63c0 41 -29 68 -112 68h-179c-34 -14 -52 -37 -52 -70c0 -45 33 -83 117 -83h78c93 0 148 29 148 85zM297 234c80 0 117 41 117 102v29
c0 61 -37 101 -117 101c-79 0 -116 -40 -116 -101v-29c0 -61 37 -102 116 -102z" />
    <glyph glyph-name="g.alt02" 
d="M301 -212c-166 0 -234 46 -234 128c0 55 31 85 84 99v12c-29 14 -46 36 -46 71c0 53 40 77 93 90v4c-63 28 -101 85 -101 158c0 105 79 178 200 178c29 0 55 -4 78 -12h181v-64h-94c25 -27 36 -64 36 -102c0 -105 -80 -178 -201 -178c-17 0 -33 1 -49 4
c-31 -6 -74 -24 -74 -59c0 -31 34 -38 83 -38h114c133 0 190 -54 190 -138c0 -104 -88 -153 -260 -153zM297 234c80 0 117 41 117 102v29c0 61 -37 101 -117 101c-79 0 -116 -40 -116 -101v-29c0 -61 37 -102 116 -102zM486 -63c0 41 -29 68 -112 68h-179
c-34 -14 -52 -37 -52 -70c0 -45 33 -83 117 -83h78c93 0 148 29 148 85z" />
    <glyph glyph-name="h" unicode="h" 
d="M98 740h80v-308h4c22 51 62 96 147 96c108 0 179 -72 179 -197v-331h-80v317c0 94 -43 140 -122 140c-64 0 -128 -31 -128 -99v-358h-80v740z" />
    <glyph glyph-name="i" unicode="i" 
d="M332 630c-46 0 -63 22 -63 51v16c0 29 17 51 63 51s63 -22 63 -51v-16c0 -29 -17 -51 -63 -51zM106 68h186v380h-186v68h266v-448h174v-68h-440v68z" />
    <glyph glyph-name="j" unicode="j" 
d="M102 -132h250v580h-259v68h339v-598c0 -69 -36 -118 -114 -118h-216v68zM392 630c-46 0 -63 22 -63 51v16c0 29 17 51 63 51s63 -22 63 -51v-16c0 -29 -17 -51 -63 -51z" />
    <glyph glyph-name="k" unicode="k" 
d="M105 740h80v-467h4l90 85l172 158h98l-214 -202l239 -314h-99l-201 268l-89 -81v-187h-80v740z" />
    <glyph glyph-name="l" unicode="l" 
d="M80 68h180v604h-180v68h260v-672h180v-68h-440v68z" />
    <glyph glyph-name="m" unicode="m" horiz-adv-x="900" 
d="M96 0v516h80v-84h4c23 53 59 96 139 96c68 0 130 -31 158 -105h2c19 56 69 105 157 105c105 0 168 -72 168 -197v-331h-80v317c0 91 -35 139 -113 139c-63 0 -121 -32 -121 -98v-358h-80v317c0 92 -35 139 -111 139c-63 0 -123 -32 -123 -98v-358h-80z" />
    <glyph glyph-name="n" unicode="n" 
d="M98 0v516h80v-84h4c22 51 62 96 147 96c108 0 179 -72 179 -197v-331h-80v317c0 94 -43 140 -122 140c-64 0 -128 -31 -128 -99v-358h-80z" />
    <glyph glyph-name="o" unicode="o" 
d="M300 -12c-145 0 -234 106 -234 270s89 270 234 270s234 -106 234 -270s-89 -270 -234 -270zM300 57c89 0 149 53 149 164v74c0 111 -60 164 -149 164s-149 -53 -149 -164v-74c0 -111 60 -164 149 -164z" />
    <glyph glyph-name="p" unicode="p" 
d="M95 516h80v-84h4c33 63 87 96 159 96c126 0 202 -101 202 -270s-76 -270 -202 -270c-72 0 -126 33 -159 96h-4v-284h-80v716zM307 59c93 0 147 62 147 155v88c0 93 -54 155 -147 155c-71 0 -132 -37 -132 -106v-186c0 -69 61 -106 132 -106z" />
    <glyph glyph-name="q" unicode="q" 
d="M425 84h-4c-33 -63 -87 -96 -159 -96c-126 0 -202 101 -202 270s76 270 202 270c72 0 126 -33 159 -96h4v84h80v-716h-80v284zM293 59c71 0 132 37 132 106v186c0 69 -61 106 -132 106c-93 0 -147 -62 -147 -155v-88c0 -93 54 -155 147 -155z" />
    <glyph glyph-name="r" unicode="r" 
d="M77 68h151v380h-151v68h231v-92h5c20 49 69 92 155 92h91v-80h-107c-90 0 -144 -36 -144 -85v-283h200v-68h-431v68z" />
    <glyph glyph-name="s" unicode="s" 
d="M306 -12c-108 0 -185 40 -239 101l54 47c49 -52 105 -81 187 -81c80 0 137 28 137 89c0 54 -44 68 -91 75l-81 12c-73 11 -177 31 -177 143c0 103 88 154 208 154c93 0 161 -31 210 -83l-52 -49c-24 29 -70 65 -161 65c-81 0 -126 -29 -126 -82c0 -54 45 -68 91 -75
l81 -12c74 -11 177 -31 177 -143c0 -102 -86 -161 -218 -161z" />
    <glyph glyph-name="t" unicode="t" 
d="M325 0c-78 0 -114 49 -114 118v330h-172v68h128c34 0 47 12 47 47v135h77v-182h235v-68h-235v-380h235v-68h-201z" />
    <glyph glyph-name="u" unicode="u" 
d="M422 84h-4c-22 -51 -62 -96 -147 -96c-108 0 -179 72 -179 197v331h80v-317c0 -94 43 -140 122 -140c64 0 128 31 128 99v358h80v-516h-80v84z" />
    <glyph glyph-name="v" unicode="v" 
d="M249 0l-185 516h81l74 -216l80 -233h4l80 233l74 216h79l-185 -516h-102z" />
    <glyph glyph-name="w" unicode="w" horiz-adv-x="900" 
d="M77 516h78l120 -449h2l138 449h71l141 -449h2l119 449h75l-147 -516h-99l-127 405h-2l-126 -405h-97z" />
    <glyph glyph-name="x" unicode="x" 
d="M61 0l192 262l-187 254h96l78 -109l62 -86h4l60 86l77 109h92l-189 -253l194 -263h-96l-87 121l-59 82h-4l-57 -82l-84 -121h-92z" />
    <glyph glyph-name="y" unicode="y" 
d="M467 516h80l-256 -629c-24 -59 -54 -87 -132 -87h-76v68h120l58 142l-208 506h82l87 -216l77 -196h4l77 196z" />
    <glyph glyph-name="z" unicode="z" 
d="M85 0v77l333 371h-322v68h409v-77l-333 -371h343v-68h-430z" />
    <glyph glyph-name="A" unicode="A" 
d="M481 0l-59 199h-245l-59 -199h-87l214 698h111l214 -698h-89zM304 609h-9l-98 -337h205z" />
    <glyph glyph-name="B" unicode="B" 
d="M88 698h237c119 0 192 -71 192 -180c0 -83 -45 -130 -109 -150v-3c78 -18 135 -67 135 -164c0 -113 -80 -201 -188 -201h-267v698zM330 73c77 0 124 35 124 106v41c0 70 -47 106 -124 106h-158v-253h158zM316 395c70 0 113 31 113 95v39c0 64 -43 96 -113 96h-144v-230
h144z" />
    <glyph glyph-name="C" unicode="C" 
d="M323 -12c-170 0 -253 129 -253 361s83 361 253 361c128 0 181 -77 215 -153l-72 -33c-25 62 -58 113 -143 113c-111 0 -164 -91 -164 -231v-114c0 -140 53 -231 164 -231c85 0 118 51 143 113l72 -33c-34 -76 -87 -153 -215 -153z" />
    <glyph glyph-name="D" unicode="D" 
d="M95 698h195c170 0 254 -120 254 -349s-84 -349 -254 -349h-195v698zM286 73c111 0 169 82 169 222v108c0 140 -58 222 -169 222h-107v-552h107z" />
    <glyph glyph-name="E" unicode="E" 
d="M90 0v698h430v-73h-346v-235h334v-73h-334v-244h346v-73h-430z" />
    <glyph glyph-name="F" unicode="F" 
d="M90 0v698h440v-73h-356v-235h326v-73h-326v-317h-84z" />
    <glyph glyph-name="G" unicode="G" 
d="M444 93h-5c-23 -54 -62 -105 -158 -105c-151 0 -225 128 -225 356c0 238 81 366 249 366c131 0 187 -77 217 -153l-72 -33c-25 62 -58 113 -142 113c-112 0 -163 -91 -163 -231v-108c0 -140 41 -239 155 -239c90 0 144 61 144 147v72h-147v67h225v-345h-78v93z" />
    <glyph glyph-name="H" unicode="H" 
d="M436 317h-272v-317h-84v698h84v-308h272v308h84v-698h-84v317z" />
    <glyph glyph-name="I" unicode="I" 
d="M84 0v67h174v564h-174v67h432v-67h-174v-564h174v-67h-432z" />
    <glyph glyph-name="J" unicode="J" 
d="M480 698v-517c0 -118 -85 -193 -206 -193c-106 0 -179 58 -200 158l80 17c13 -56 44 -101 122 -101c76 0 120 43 120 134v429h-252v73h336z" />
    <glyph glyph-name="K" unicode="K" 
d="M269 342l-100 -118v-224h-84v698h84v-364h3l92 116l206 248h101l-245 -294l252 -404h-98z" />
    <glyph glyph-name="L" unicode="L" 
d="M120 0v698h84v-625h331v-73h-415z" />
    <glyph glyph-name="M" unicode="M" horiz-adv-x="900" 
d="M703 588h-25l-59 -117l-167 -304l-166 304l-59 116h-25v-587h-82v698h130l200 -376h4l201 376h130v-698h-82v588z" />
    <glyph glyph-name="N" unicode="N" 
d="M163 591h-7v-591h-76v698h119l238 -585h7v585h76v-698h-119z" />
    <glyph glyph-name="O" unicode="O" 
d="M300 -12c-170 0 -244 133 -244 361s74 361 244 361s244 -133 244 -361s-74 -361 -244 -361zM300 61c111 0 155 91 155 231v114c0 140 -44 231 -155 231s-155 -91 -155 -231v-114c0 -140 44 -231 155 -231z" />
    <glyph glyph-name="P" unicode="P" 
d="M90 0v698h254c129 0 199 -75 199 -201s-70 -201 -199 -201h-170v-296h-84zM174 369h168c70 0 112 37 112 102v52c0 65 -42 102 -112 102h-168v-256z" />
    <glyph glyph-name="Q" unicode="Q" 
d="M491 -164h-117c-78 0 -114 49 -114 118v37c-142 19 -204 149 -204 358c0 228 74 361 244 361s244 -133 244 -361c0 -209 -63 -339 -204 -358v-87h151v-68zM300 61c111 0 155 91 155 231v114c0 140 -44 231 -155 231s-155 -91 -155 -231v-114c0 -140 44 -231 155 -231z
" />
    <glyph glyph-name="R" unicode="R" 
d="M174 0h-84v698h254c129 0 199 -75 199 -201c0 -112 -61 -184 -172 -195l178 -302h-94l-170 298h-111v-298zM342 369c70 0 112 37 112 102v52c0 65 -42 102 -112 102h-168v-256h168z" />
    <glyph glyph-name="S" unicode="S" 
d="M298 -12c-125 0 -201 51 -253 123l61 50c54 -68 111 -101 195 -101c101 0 156 49 156 133c0 68 -35 104 -130 120l-78 13c-137 23 -180 102 -180 190c0 128 91 194 233 194c111 0 187 -40 234 -107l-59 -51c-39 51 -89 86 -176 86c-94 0 -147 -41 -147 -120
c0 -62 32 -102 131 -119l75 -13c137 -24 182 -100 182 -191c0 -129 -89 -207 -244 -207z" />
    <glyph glyph-name="T" unicode="T" 
d="M342 625v-625h-84v625h-233v73h550v-73h-233z" />
    <glyph glyph-name="U" unicode="U" 
d="M164 698v-419c0 -135 5 -218 136 -218s136 83 136 218v419h84v-399c0 -207 -30 -311 -220 -311s-220 104 -220 311v399h84z" />
    <glyph glyph-name="V" unicode="V" 
d="M243 0l-207 698h89l99 -349l75 -264h5l75 264l99 349h86l-207 -698h-114z" />
    <glyph glyph-name="W" unicode="W" horiz-adv-x="900" 
d="M195 0l-170 698h89l75 -336l58 -261h2l65 261l88 336h96l85 -336l65 -260h3l60 260l79 336h86l-179 -698h-93l-91 348l-64 256h-2l-66 -256l-93 -348h-93z" />
    <glyph glyph-name="X" unicode="X" 
d="M575 0h-95l-84 141l-92 152h-4l-95 -152l-87 -141h-92l228 356l-215 342h95l81 -135l87 -141h4l86 141l84 135h92l-216 -341z" />
    <glyph glyph-name="Y" unicode="Y" 
d="M258 0v274l-241 424h96l100 -182l85 -159h4l87 159l100 182h94l-241 -424v-274h-84z" />
    <glyph glyph-name="Z" unicode="Z" 
d="M552 0h-504v75l395 550h-378v73h470v-75l-396 -550h413v-73z" />
    <glyph glyph-name="zero" unicode="0" 
d="M300 -12c-170 0 -244 133 -244 361s74 361 244 361s244 -133 244 -361s-74 -361 -244 -361zM300 61c112 0 157 91 157 231v114c0 140 -45 231 -157 231s-157 -91 -157 -231v-114c0 -140 45 -231 157 -231zM300 290c-46 0 -62 21 -62 48v22c0 27 16 48 62 48
s62 -21 62 -48v-22c0 -27 -16 -48 -62 -48z" />
    <glyph glyph-name="zero.alt01" 
d="M300 -12c-170 0 -244 133 -244 361s74 361 244 361s244 -133 244 -361s-74 -361 -244 -361zM300 637c-112 0 -157 -91 -157 -231v-114c0 -23 1 -45 4 -65l289 316c-23 60 -67 94 -136 94zM300 61c112 0 157 91 157 231v114c0 23 -1 45 -4 65l-289 -316
c23 -60 67 -94 136 -94z" />
    <glyph glyph-name="zero.alt02" 
d="M300 -12c-170 0 -244 133 -244 361s74 361 244 361s244 -133 244 -361s-74 -361 -244 -361zM300 61c111 0 155 91 155 231v114c0 140 -44 231 -155 231s-155 -91 -155 -231v-114c0 -140 44 -231 155 -231z" />
    <glyph glyph-name="one" unicode="1" 
d="M85 0v73h200v549l-203 -117l-33 64l228 129h92v-625h184v-73h-468z" />
    <glyph glyph-name="two" unicode="2" 
d="M537 0h-466v86l233 210c68 61 117 126 117 197v12c0 84 -45 132 -131 132c-85 0 -128 -47 -150 -119l-75 28c27 82 90 164 227 164c139 0 217 -84 217 -202c0 -106 -63 -184 -156 -265l-195 -170h379v-73z" />
    <glyph glyph-name="three" unicode="3" 
d="M270 402c97 0 146 49 146 116v7c0 74 -52 112 -128 112c-74 0 -118 -36 -147 -89l-63 48c36 56 98 114 212 114c119 0 214 -63 214 -176c0 -90 -60 -144 -136 -163v-4c77 -15 150 -71 150 -176c0 -120 -96 -203 -241 -203c-123 0 -186 59 -229 119l63 48
c37 -55 78 -94 166 -94c98 0 153 48 153 131v8c0 82 -52 130 -154 130h-83v72h77z" />
    <glyph glyph-name="four" unicode="4" 
d="M378 0v137h-344v74l302 487h122v-492h104v-69h-104v-137h-80zM109 206h269v427h-4z" />
    <glyph glyph-name="five" unicode="5" 
d="M501 625h-312l-20 -267h7c34 47 72 76 146 76c122 0 211 -80 211 -215c0 -136 -89 -231 -238 -231c-118 0 -179 59 -222 119l63 48c37 -55 75 -94 161 -94c96 0 149 56 149 147v8c0 92 -54 147 -151 147c-66 0 -98 -26 -128 -59l-71 10l25 384h380v-73z" />
    <glyph glyph-name="six" unicode="6" 
d="M301 -12c-147 0 -237 102 -237 268c0 207 139 369 253 442h108c-152 -109 -236 -200 -275 -362l5 -2c34 57 85 100 172 100c122 0 209 -83 209 -215c0 -137 -93 -231 -235 -231zM300 59c95 0 151 55 151 149v8c0 94 -56 149 -151 149s-151 -55 -151 -149v-8
c0 -94 56 -149 151 -149z" />
    <glyph glyph-name="seven" unicode="7" 
d="M173 0l273 626h-306v-130h-75v202h466v-74l-268 -624h-90z" />
    <glyph glyph-name="eight" unicode="8" 
d="M300 -12c-162 0 -245 87 -245 202c0 95 57 150 142 173v8c-74 25 -121 84 -121 164c0 106 83 175 224 175s224 -69 224 -175c0 -80 -47 -139 -121 -164v-8c85 -23 142 -78 142 -173c0 -115 -83 -202 -245 -202zM300 59c98 0 158 47 158 126v22c0 80 -58 126 -158 126
s-158 -46 -158 -126v-22c0 -79 60 -126 158 -126zM300 401c90 0 139 41 139 112v14c0 71 -51 111 -139 111s-139 -40 -139 -111v-14c0 -71 49 -112 139 -112z" />
    <glyph glyph-name="nine" unicode="9" 
d="M536 442c0 -207 -139 -369 -253 -442h-108c152 109 236 200 275 362l-5 2c-34 -57 -85 -100 -172 -100c-122 0 -209 83 -209 215c0 137 93 231 235 231c147 0 237 -102 237 -268zM300 333c95 0 151 55 151 149v8c0 94 -56 149 -151 149s-151 -55 -151 -149v-8
c0 -94 56 -149 151 -149z" />
    <glyph glyph-name="ampersand" unicode="&#x26;" 
d="M217 -12c-122 0 -192 86 -192 193c0 70 29 152 129 203c-37 48 -65 98 -65 157c0 101 82 169 181 169c89 0 147 -55 166 -106l-66 -34c-17 41 -52 72 -104 72c-60 0 -98 -41 -98 -98v-8c0 -42 20 -77 71 -141l90 -111l73 -90h5c9 52 10 123 13 187h141v-67h-75
c-9 -64 -13 -108 -36 -170l122 -144h-95l-87 103h-5c-19 -69 -78 -115 -168 -115zM238 59c57 0 103 25 128 68l-174 210c-61 -38 -84 -88 -84 -145v-15c0 -72 53 -118 130 -118z" />
    <glyph glyph-name="at" unicode="@" 
d="M454 -112h-123c-203 0 -269 136 -269 412c0 309 83 410 239 410c160 0 224 -107 224 -247v-372h-71v57h-5c-13 -34 -41 -69 -100 -69c-81 0 -133 67 -133 214c0 148 52 215 133 215c59 0 87 -35 100 -69h5v24c0 113 -44 183 -151 183c-119 0 -166 -87 -166 -288v-129
c0 -155 35 -277 194 -277h123v-64zM375 139c48 0 79 27 79 78v153c0 51 -31 78 -79 78c-55 0 -85 -35 -85 -124v-61c0 -89 30 -124 85 -124z" />
    <glyph glyph-name="hyphen" unicode="-" 
d="M155 262v84h290v-84h-290z" />
    <glyph glyph-name="uni00AD" unicode="&#xad;" 
d="M155 262v84h290v-84h-290z" />
    <glyph glyph-name="endash" unicode="&#x2013;" 
d="M60 267v74h480v-74h-480z" />
    <glyph glyph-name="emdash" unicode="&#x2014;" horiz-adv-x="900" 
d="M99 267v74h702v-74h-702z" />
    <glyph glyph-name="underscore" unicode="_" 
d="M60 -169v74h480v-74h-480z" />
    <glyph glyph-name="period" unicode="." 
d="M300 -9c-54 0 -74 26 -74 60v18c0 34 20 60 74 60s74 -26 74 -60v-18c0 -34 -20 -60 -74 -60z" />
    <glyph glyph-name="ellipsis" unicode="&#x2026;" 
d="M107 -4c-46 0 -63 22 -63 51v29c0 29 17 51 63 51s63 -22 63 -51v-29c0 -29 -17 -51 -63 -51zM300 -4c-46 0 -63 22 -63 51v29c0 29 17 51 63 51s63 -22 63 -51v-29c0 -29 -17 -51 -63 -51zM493 -4c-46 0 -63 22 -63 51v29c0 29 17 51 63 51s63 -22 63 -51v-29
c0 -29 -17 -51 -63 -51z" />
    <glyph glyph-name="colon" unicode=":" 
d="M300 387c-54 0 -74 26 -74 60v18c0 34 20 60 74 60s74 -26 74 -60v-18c0 -34 -20 -60 -74 -60zM300 -9c-54 0 -74 26 -74 60v18c0 34 20 60 74 60s74 -26 74 -60v-18c0 -34 -20 -60 -74 -60z" />
    <glyph glyph-name="comma" unicode="," 
d="M257 136h129l-115 -277h-67z" />
    <glyph glyph-name="semicolon" unicode=";" 
d="M300 387c-54 0 -74 26 -74 60v18c0 34 20 60 74 60s74 -26 74 -60v-18c0 -34 -20 -60 -74 -60zM257 136h129l-115 -277h-67z" />
    <glyph glyph-name="quotesingle" unicode="'" 
d="M262 463v277h76v-277h-76z" />
    <glyph glyph-name="quotedbl" unicode="&#x22;" 
d="M351 463v277h76v-277h-76zM173 463v277h76v-277h-76z" />
    <glyph glyph-name="quoteleft" unicode="&#x2018;" 
d="M310 740h67l-53 -277h-129z" />
    <glyph glyph-name="quoteright" unicode="&#x2019;" 
d="M276 740h129l-115 -277h-67z" />
    <glyph glyph-name="quotedblleft" unicode="&#x201c;" 
d="M436 740h67l-53 -277h-129zM196 740h67l-53 -277h-129z" />
    <glyph glyph-name="quotedblright" unicode="&#x201d;" 
d="M402 740h129l-115 -277h-67zM162 740h129l-115 -277h-67z" />
    <glyph glyph-name="quotesinglbase" unicode="&#x201a;" 
d="M257 136h129l-115 -277h-67z" />
    <glyph glyph-name="quotedblbase" unicode="&#x201e;" 
d="M402 136h129l-115 -277h-67zM162 136h129l-115 -277h-67z" />
    <glyph glyph-name="guilsinglleft" unicode="&#x2039;" 
d="M376 56l-206 174v80l206 174l25 -57l-148 -157l148 -157z" />
    <glyph glyph-name="guilsinglright" unicode="&#x203a;" 
d="M199 113l148 157l-148 157l25 57l206 -174v-80l-206 -174z" />
    <glyph glyph-name="guillemotleft" unicode="&#xab;" 
d="M509 56l-206 174v80l206 174l25 -57l-148 -157l148 -157zM279 56l-206 174v80l206 174l25 -57l-148 -157l148 -157z" />
    <glyph glyph-name="guillemotright" unicode="&#xbb;" 
d="M296 113l148 157l-148 157l25 57l206 -174v-80l-206 -174zM66 113l148 157l-148 157l25 57l206 -174v-80l-206 -174z" />
    <glyph glyph-name="exclamdown" unicode="&#xa1;" 
d="M256 -182v203l28 262h32l28 -262v-203h-88zM300 387c-54 0 -74 26 -74 60v18c0 34 20 60 74 60s74 -26 74 -60v-18c0 -34 -20 -60 -74 -60z" />
    <glyph glyph-name="exclam" unicode="!" 
d="M284 233l-28 262v203h88v-203l-28 -262h-32zM300 -9c-54 0 -74 26 -74 60v18c0 34 20 60 74 60s74 -26 74 -60v-18c0 -34 -20 -60 -74 -60z" />
    <glyph glyph-name="questiondown" unicode="&#xbf;" 
d="M299 -194c-127 0 -209 74 -209 189c0 126 98 188 192 205v101h79v-157c-114 -5 -184 -49 -184 -139v-14c0 -74 48 -112 125 -112c80 0 128 50 146 117l75 -28c-26 -88 -96 -162 -224 -162zM318 387c-54 0 -74 26 -74 60v18c0 34 20 60 74 60s74 -26 74 -60v-18
c0 -34 -20 -60 -74 -60z" />
    <glyph glyph-name="question" unicode="?" 
d="M239 215v157c114 5 184 49 184 139v14c0 74 -48 112 -125 112c-80 0 -128 -50 -146 -117l-75 28c26 88 96 162 224 162c127 0 209 -74 209 -189c0 -126 -98 -188 -192 -205v-101h-79zM282 -9c-54 0 -74 26 -74 60v18c0 34 20 60 74 60s74 -26 74 -60v-18
c0 -34 -20 -60 -74 -60z" />
    <glyph glyph-name="parenleft" unicode="(" 
d="M205 311c0 195 95 365 208 449h81c-116 -87 -214 -235 -214 -406v-86c0 -171 98 -319 214 -406h-81c-113 84 -208 254 -208 449z" />
    <glyph glyph-name="parenright" unicode=")" 
d="M395 311c0 -195 -95 -365 -208 -449h-81c116 87 214 235 214 406v86c0 171 -98 319 -214 406h81c113 -84 208 -254 208 -449z" />
    <glyph glyph-name="bracketleft" unicode="[" 
d="M225 -138v898h280v-62h-211v-774h211v-62h-280z" />
    <glyph glyph-name="bracketright" unicode="]" 
d="M375 760v-898h-280v62h211v774h-211v62h280z" />
    <glyph glyph-name="braceleft" unicode="{" 
d="M319 -138c-55 0 -84 36 -84 82v63c0 72 32 105 56 135c22 27 30 44 30 65c0 50 -48 73 -138 73h-78v62h78c90 0 138 23 138 73c0 21 -8 38 -30 65c-24 30 -56 63 -56 135v63c0 46 29 82 84 82h176v-62h-191v-77c0 -55 19 -78 40 -106c22 -29 47 -59 47 -101
c0 -55 -43 -92 -110 -101v-4c67 -9 110 -46 110 -101c0 -42 -25 -72 -47 -101c-21 -28 -40 -51 -40 -106v-77h191v-62h-176z" />
    <glyph glyph-name="braceright" unicode="}" 
d="M281 760c55 0 84 -36 84 -82v-63c0 -72 -32 -105 -56 -135c-22 -27 -30 -44 -30 -65c0 -50 48 -73 138 -73h78v-62h-78c-90 0 -138 -23 -138 -73c0 -21 8 -38 30 -65c24 -30 56 -63 56 -135v-63c0 -46 -29 -82 -84 -82h-176v62h191v77c0 55 -19 78 -40 106
c-22 29 -47 59 -47 101c0 55 43 92 110 101v4c-67 9 -110 46 -110 101c0 42 25 72 47 101c21 28 40 51 40 106v77h-191v62h176z" />
    <glyph glyph-name="slash" unicode="/" 
d="M90 -138l348 898h72l-348 -898h-72z" />
    <glyph glyph-name="backslash" unicode="\" 
d="M438 -138l-348 898h72l348 -898h-72z" />
    <glyph glyph-name="fraction" unicode="&#x2044;" 
d="M510 698h72l-160 -300h-72zM178 300h72l-160 -300h-72z" />
    <glyph glyph-name="percent" unicode="%" 
d="M169 356c-87 0 -149 60 -149 177s62 177 149 177s149 -60 149 -177s-62 -177 -149 -177zM169 410c48 0 81 35 81 98v50c0 63 -33 98 -81 98s-81 -35 -81 -98v-50c0 -63 33 -98 81 -98zM510 698h72l-160 -300h-72zM178 300h72l-160 -300h-72zM431 -12
c-87 0 -149 60 -149 177s62 177 149 177s149 -60 149 -177s-62 -177 -149 -177zM431 42c48 0 81 35 81 98v50c0 63 -33 98 -81 98s-81 -35 -81 -98v-50c0 -63 33 -98 81 -98z" />
    <glyph glyph-name="perthousand" unicode="&#x2030;" 
d="M139 400c-86 0 -139 52 -139 155c0 102 52 155 139 155c86 0 139 -52 139 -155c0 -102 -52 -155 -139 -155zM139 450c45 0 71 33 71 81v48c0 48 -26 81 -71 81s-71 -33 -71 -81v-48c0 -48 26 -81 71 -81zM61 328l450 176l20 -50l-450 -176zM248 -12
c-84 0 -136 53 -136 155s52 155 136 155c45 0 81 -18 106 -50h5c24 32 60 50 105 50c84 0 136 -53 136 -155s-52 -155 -136 -155c-45 0 -81 18 -105 50h-6c-24 -32 -60 -50 -105 -50zM251 38c45 0 71 33 71 81v48c0 48 -26 81 -71 81s-71 -33 -71 -81v-48
c0 -48 26 -81 71 -81zM461 38c45 0 71 33 71 81v48c0 48 -26 81 -71 81s-71 -33 -71 -81v-48c0 -48 26 -81 71 -81z" />
    <glyph glyph-name="bar" unicode="|" 
d="M265 -138v898h70v-898h-70z" />
    <glyph glyph-name="brokenbar" unicode="&#xa6;" 
d="M265 401v359h70v-359h-70zM265 -138v359h70v-359h-70z" />
    <glyph glyph-name="section" unicode="&#xa7;" 
d="M487 3c0 -96 -81 -158 -201 -158c-61 0 -123 16 -170 56l47 56c32 -27 73 -43 124 -43c76 0 121 34 121 88c0 50 -39 78 -106 97l-64 18c-110 31 -157 87 -157 155c0 64 41 115 112 143v5c-52 32 -76 79 -76 132c0 96 81 158 201 158c61 0 123 -16 170 -56l-47 -56
c-32 27 -73 43 -124 43c-76 0 -121 -34 -121 -88c0 -50 39 -78 106 -97l64 -18c110 -31 157 -87 157 -155c0 -64 -41 -115 -112 -143v-5c52 -32 76 -79 76 -132zM444 263c0 57 -38 90 -120 112l-63 17c-12 3 -24 7 -34 11c-41 -28 -67 -64 -67 -111c0 -57 38 -90 120 -112
l63 -17c12 -3 24 -7 34 -11c41 28 67 64 67 111z" />
    <glyph glyph-name="paragraph" unicode="&#xb6;" 
d="M270 246c-124 0 -225 95 -225 226s101 226 225 226h234v-847h-72v783h-90v-783h-72v395z" />
    <glyph glyph-name="copyright" unicode="&#xa9;" 
d="M300 18c-167 0 -300 127 -300 331s133 331 300 331s300 -127 300 -331s-133 -331 -300 -331zM300 73c137 0 237 109 237 246v60c0 137 -100 246 -237 246s-237 -109 -237 -246v-60c0 -137 100 -246 237 -246zM305 171c-97 0 -154 70 -154 178c0 109 58 178 154 178
c63 0 104 -32 126 -80l-53 -29c-14 32 -36 52 -73 52c-52 0 -82 -38 -82 -92v-57c0 -55 29 -93 83 -93c40 0 62 22 80 55l50 -31c-22 -47 -66 -81 -131 -81z" />
    <glyph glyph-name="registered" unicode="&#xae;" 
d="M300 346c-102 0 -183 78 -183 182s81 182 183 182s183 -78 183 -182s-81 -182 -183 -182zM300 387c77 0 135 52 135 131v20c0 79 -58 131 -135 131s-135 -52 -135 -131v-20c0 -79 58 -131 135 -131zM270 436h-40v185h85c37 0 59 -22 59 -57c0 -25 -14 -44 -37 -52l46 -76
h-45l-39 70h-29v-70zM306 535c16 0 26 9 26 24v7c0 15 -10 24 -26 24h-36v-55h36z" />
    <glyph glyph-name="trademark" unicode="&#x2122;" 
d="M102 419v233h-86v46h224v-46h-86v-233h-52zM282 419v279h65l65 -134h3l65 134h62v-279h-48v127l1 83h-4l-79 -156l-79 156h-4l1 -83v-127h-48z" />
    <glyph glyph-name="ordfeminine" unicode="&#xaa;" 
d="M429 357c-44 0 -61 20 -63 53h-4c-15 -31 -51 -61 -113 -61c-72 0 -111 40 -111 99c0 71 55 104 151 104h73v28c0 53 -27 78 -77 78c-46 0 -78 -22 -93 -52l-42 34c20 34 64 70 138 70c85 0 137 -46 137 -127v-170h38v-56h-34zM287 506c-55 0 -86 -16 -86 -47v-10
c0 -34 21 -49 61 -49c53 0 100 25 100 65v41h-75z" />
    <glyph glyph-name="ordmasculine" unicode="&#xba;" 
d="M300 349c-101 0 -160 69 -160 181c0 111 60 180 160 180s160 -69 160 -180c0 -112 -60 -181 -160 -181zM300 402c60 0 91 41 91 98v59c0 57 -31 98 -91 98s-91 -41 -91 -98v-59c0 -57 31 -98 91 -98z" />
    <glyph glyph-name="degree" unicode="&#xb0;" 
d="M300 368c-96 0 -171 74 -171 171s75 171 171 171s171 -74 171 -171s-75 -171 -171 -171zM300 432c61 0 101 47 101 107s-40 107 -101 107s-101 -47 -101 -107s40 -107 101 -107z" />
    <glyph glyph-name="asterisk" unicode="*" 
d="M175 52l-57 42l124 170l-199 66l21 66l199 -64v216h74v-216l199 64l21 -66l-199 -66l124 -170l-57 -42l-125 172z" />
    <glyph glyph-name="dagger" unicode="&#x2020;" 
d="M265 -200v652h-195v64h195v224h70v-224h195v-64h-195v-652h-70z" />
    <glyph glyph-name="daggerdbl" unicode="&#x2021;" 
d="M265 -200v224h-195v64h195v364h-195v64h195v224h70v-224h195v-64h-195v-364h195v-64h-195v-224h-70z" />
    <glyph glyph-name="numbersign" unicode="#" 
d="M148 216h-132v66h144l23 134h-131v66h143l38 216h73l-123 -698h-73zM417 698h73l-38 -216h132v-66h-144l-23 -134h131v-66h-143l-38 -216h-73z" />
    <glyph glyph-name="asciicircum" unicode="^" 
d="M489 287l-189 342h-4l-189 -342l-62 31l210 380h90l210 -380z" />
    <glyph glyph-name="asciitilde" unicode="~" 
d="M421 236c-49 0 -84 15 -131 37c-38 18 -74 34 -116 34c-33 0 -54 -10 -84 -32l-34 44c28 32 61 55 123 55c49 0 84 -15 131 -37c38 -18 74 -34 116 -34c33 0 54 10 84 32l34 -44c-28 -32 -61 -55 -123 -55z" />
    <glyph glyph-name="plus" unicode="+" 
d="M262 62v209h-200v68h200v209h76v-209h200v-68h-200v-209h-76z" />
    <glyph glyph-name="minus" unicode="&#x2212;" 
d="M62 271v68h476v-68h-476z" />
    <glyph glyph-name="plusminus" unicode="&#xb1;" 
d="M262 152v199h-200v68h200v199h76v-199h200v-68h-200v-199h-76zM62 0v68h476v-68h-476z" />
    <glyph glyph-name="multiply" unicode="&#xd7;" 
d="M300 256l-163 -163l-49 49l163 163l-163 163l49 49l163 -163l163 163l49 -49l-163 -163l163 -163l-49 -49z" />
    <glyph glyph-name="divide" unicode="&#xf7;" 
d="M62 271v68h476v-68h-476zM300 52c-46 0 -62 21 -62 48v22c0 27 16 48 62 48s62 -21 62 -48v-22c0 -27 -16 -48 -62 -48zM300 440c-46 0 -62 21 -62 48v22c0 27 16 48 62 48s62 -21 62 -48v-22c0 -27 -16 -48 -62 -48z" />
    <glyph glyph-name="equal" unicode="=" 
d="M62 372v68h476v-68h-476zM62 172v68h476v-68h-476z" />
    <glyph glyph-name="approxequal" unicode="&#x2248;" 
d="M421 137c-49 0 -84 15 -131 37c-38 18 -74 34 -116 34c-33 0 -54 -10 -84 -32l-34 44c28 32 61 55 123 55c49 0 84 -15 131 -37c38 -18 74 -34 116 -34c33 0 54 10 84 32l34 -44c-28 -32 -61 -55 -123 -55zM421 336c-49 0 -84 15 -131 37c-38 18 -74 34 -116 34
c-33 0 -54 -10 -84 -32l-34 44c28 32 61 55 123 55c49 0 84 -15 131 -37c38 -18 74 -34 116 -34c33 0 54 10 84 32l34 -44c-28 -32 -61 -55 -123 -55z" />
    <glyph glyph-name="notequal" unicode="&#x2260;" 
d="M137 72l55 100h-130v68h167l71 132h-238v68h275l54 100h72l-55 -100h130v-68h-167l-71 -132h238v-68h-275l-54 -100h-72z" />
    <glyph glyph-name="less" unicode="&#x3c;" 
d="M85 265v80l430 249v-83l-355 -201v-8l355 -201v-85z" />
    <glyph glyph-name="greater" unicode="&#x3e;" 
d="M85 99l355 201v8l-355 201v85l430 -249v-80l-430 -249v83z" />
    <glyph glyph-name="lessequal" unicode="&#x2264;" 
d="M85 0v68h430v-68h-430zM515 513l-355 -152v-7l355 -151v-82l-430 191v89l430 192v-80z" />
    <glyph glyph-name="greaterequal" unicode="&#x2265;" 
d="M85 201l355 152v7l-355 151v82l430 -191v-89l-430 -192v80zM85 68h430v-68h-430v68z" />
    <glyph glyph-name="periodcentered" unicode="&#xb7;" 
d="M300 235c-54 0 -74 26 -74 60v18c0 34 20 60 74 60s74 -26 74 -60v-18c0 -34 -20 -60 -74 -60z" />
    <glyph glyph-name="bullet" unicode="&#x2022;" 
d="M300 186c-89 0 -122 45 -122 104v28c0 59 33 104 122 104s122 -45 122 -104v-28c0 -59 -33 -104 -122 -104z" />
    <glyph glyph-name="lozenge" unicode="&#x25ca;" 
d="M260 0l-218 349l218 349h81l218 -349l-218 -349h-81zM304 75l171 274l-171 274h-7l-171 -274l171 -274h7z" />
    <glyph glyph-name="logicalnot" unicode="&#xac;" 
d="M453 78v193h-391v68h460v-261h-69z" />
    <glyph glyph-name="radical" unicode="&#x221a;" 
d="M253 0l-127 452h-102v64h163l45 -165l77 -284h5l81 284l99 347h78l-205 -698h-114z" />
    <glyph glyph-name="integral" unicode="&#x222b;" 
d="M35 -132h212v754c0 69 36 118 114 118h178v-69h-212v-753c0 -69 -36 -118 -114 -118h-178v68z" />
    <glyph glyph-name="infinity" unicode="&#x221e;" 
d="M157 126c-93 0 -146 66 -146 179s58 179 154 179c71 0 122 -40 151 -133h4c17 88 65 133 122 133c93 0 147 -66 147 -179s-58 -179 -154 -179c-71 0 -122 40 -151 133h-4c-17 -88 -66 -133 -123 -133zM166 188c45 0 82 46 103 119c-21 71 -58 115 -103 115
c-48 0 -79 -32 -79 -90v-54c0 -58 31 -90 79 -90zM434 188c48 0 79 32 79 90v54c0 58 -31 90 -79 90c-45 0 -82 -46 -103 -119c21 -71 58 -115 103 -115z" />
    <glyph glyph-name="uni212E" unicode="&#x212e;" 
d="M145 109c32 -40 86 -75 155 -75c102 0 162 57 205 136l41 -23c-47 -87 -122 -159 -246 -159c-166 0 -274 154 -274 361s108 361 274 361s274 -154 274 -361h-429v-240zM455 389v205c-34 41 -87 72 -155 72s-121 -31 -155 -72v-205h310z" />
    <glyph glyph-name="uni2113" unicode="&#x2113;" 
d="M321 -12c-106 0 -162 70 -162 171v24c-19 -14 -36 -25 -56 -37l-33 54c29 18 61 37 89 59v296c0 143 60 197 148 197c91 0 141 -59 141 -167c0 -133 -74 -242 -210 -362v-45c0 -90 32 -123 87 -123c59 0 90 39 127 107l58 -35c-31 -77 -89 -139 -189 -139zM308 685
c-41 0 -70 -30 -70 -123v-253c87 89 135 176 135 266v17c0 68 -27 93 -65 93z" />
    <glyph glyph-name="uni2116" unicode="&#x2116;" 
d="M481 345c-72 0 -108 59 -108 181c0 121 37 180 108 180s108 -59 108 -180c0 -122 -37 -181 -108 -181zM43 0v698h127l51 -349l38 -259h6v608h68v-698h-127l-51 349l-38 259h-6v-608h-68zM481 399c37 0 46 32 46 89v75c0 57 -9 89 -46 89c-38 0 -46 -32 -46 -89v-75
c0 -57 8 -89 46 -89zM377 256v57h208v-57h-208z" />
    <glyph glyph-name="partialdiff" unicode="&#x2202;" 
d="M534 272c0 -194 -89 -284 -230 -284c-150 0 -238 101 -238 258c0 158 90 258 213 258c82 0 133 -44 166 -96l4 2c-45 128 -168 222 -307 288h131c103 -62 261 -168 261 -426zM300 57c89 0 149 50 149 154v70c0 104 -60 154 -149 154s-149 -50 -149 -154v-70
c0 -104 60 -154 149 -154z" />
    <glyph glyph-name="cent" unicode="&#xa2;" 
d="M279 -114v105c-124 17 -195 119 -195 267c0 149 72 250 195 267v105h62v-103c86 -7 140 -54 167 -118l-64 -34c-17 46 -52 76 -104 83v-400c57 6 96 39 119 89l57 -39c-28 -64 -85 -112 -175 -119v-103h-62zM170 214c0 -78 38 -138 110 -153v394
c-71 -15 -110 -75 -110 -153v-88z" />
    <glyph glyph-name="Euro" unicode="&#x20ac;" 
d="M323 -12c-170 0 -253 129 -253 361s83 361 253 361c128 0 181 -77 215 -153l-70 -32c-25 63 -59 114 -145 114c-96 0 -149 -67 -163 -175h228v-69h-231v-92h231v-69h-228c14 -108 67 -175 163 -175c86 0 120 51 145 114l70 -32c-34 -76 -87 -153 -215 -153z" />
    <glyph glyph-name="florin" unicode="&#x192;" 
d="M-31 -132h211l83 502h-185l11 68h186l24 147c12 69 50 113 128 113h183l-12 -69h-212l-32 -191h185l-11 -68h-185l-76 -457c-12 -69 -50 -113 -128 -113h-182z" />
    <glyph glyph-name="sterling" unicode="&#xa3;" 
d="M75 0v105c56 23 79 70 79 132c0 17 -2 33 -5 49h-97v69h78c-15 45 -32 89 -32 144c0 124 89 211 234 211c106 0 174 -46 218 -114l-63 -45c-37 54 -84 86 -160 86c-87 0 -143 -41 -143 -143c0 -54 16 -97 30 -139h201v-69h-182c2 -13 3 -25 3 -39
c0 -82 -44 -137 -82 -162v-5h384v-80h-463z" />
    <glyph glyph-name="dollar" unicode="$" 
d="M279 -11c-111 7 -181 55 -229 122l61 50c48 -60 99 -93 169 -100v261l-23 4c-138 23 -182 103 -182 194c0 112 78 180 204 189v102h62v-102c92 -7 158 -45 208 -113l-63 -45c-36 48 -80 78 -146 85v-245l30 -5c137 -23 182 -101 182 -195c0 -116 -76 -191 -211 -202v-102
h-62v102zM156 520c0 -65 35 -101 124 -119v236c-79 -8 -124 -48 -124 -117zM471 190c0 71 -38 106 -131 122v-250c84 9 131 55 131 128z" />
    <glyph glyph-name="yen" unicode="&#xa5;" 
d="M75 69h185v186h-185v69h141l-194 374h93l184 -374h4l184 374h91l-194 -374h141v-69h-185v-186h185v-69h-450v69z" />
    <glyph glyph-name="uni0E3F" unicode="&#xe3f;" 
d="M326 -113h-62v113h-176v698h176v113h62v-113h8c119 0 192 -71 192 -180c0 -89 -48 -133 -113 -154v-3c70 -22 125 -67 125 -160c0 -113 -80 -201 -188 -201h-24v-113zM265 394v233h-95v-233h95zM325 394c76 0 117 31 117 95v41c0 64 -41 97 -117 97v-233zM265 71v256h-95
v-256h95zM325 71c83 0 128 35 128 106v44c0 70 -45 106 -128 106v-256z" />
    <glyph glyph-name="colonmonetary" unicode="&#x20a1;" 
d="M296 -11c-21 2 -40 6 -57 12l-12 -114h-62l15 145c-74 56 -110 164 -110 317c0 196 59 319 180 352l12 110h62l-11 -101h10c17 0 34 -1 48 -4l11 105h62l-13 -125c54 -29 85 -79 107 -129l-68 -30c-12 31 -27 59 -49 79l-58 -545c59 14 86 59 107 111l68 -31
c-31 -69 -77 -138 -180 -151l-11 -103h-62zM323 641c-7 0 -13 0 -19 -1l-59 -564c17 -10 37 -16 60 -18l61 578c-13 3 -27 5 -43 5zM153 292c0 -69 13 -125 39 -166l52 496c-61 -34 -91 -111 -91 -216v-114z" />
    <glyph glyph-name="uni20A4" unicode="&#x20a4;" 
d="M538 0h-463v105c47 19 71 56 77 104h-100v65h99c-4 29 -12 56 -21 82h-78v65h57c-6 24 -11 50 -11 78c0 124 89 211 234 211c106 0 174 -46 218 -114l-63 -45c-37 54 -84 86 -160 86c-87 0 -143 -41 -143 -143c0 -27 4 -50 9 -73h222v-65h-202c9 -27 18 -53 21 -82h181
v-65h-182c-11 -61 -47 -103 -79 -124v-5h384v-80z" />
    <glyph glyph-name="uni20A6" unicode="&#x20a6;" 
d="M298 248h-136v-248h-70v244h-65v65h65v80h-65v65h65v244h125l85 -248h136v248h70v-244h65v-65h-65v-80h65v-65h-65v-244h-125zM278 304l-109 318h-7v-318h116zM431 76h7v318h-116z" />
    <glyph glyph-name="uni20A8" unicode="&#x20a8;" 
d="M49 0v698h129c122 0 172 -68 172 -187c0 -90 -29 -150 -100 -173l88 -208c22 -52 50 -75 100 -75c48 0 76 22 76 66c0 38 -20 52 -54 86l-19 19c-42 42 -74 80 -74 135c0 65 44 115 122 115c33 0 66 -9 96 -32l-32 -54c-17 13 -37 22 -60 22c-33 0 -51 -19 -51 -51
c0 -30 15 -47 54 -86l15 -15c43 -43 78 -73 78 -139c0 -79 -50 -133 -158 -133c-77 0 -133 27 -165 105l-93 229h-44v-322h-80zM171 392c67 0 97 33 97 94v46c0 61 -30 94 -97 94h-42v-234h42z" />
    <glyph glyph-name="uni20A9" unicode="&#x20a9;" 
d="M89 248h-63v65h61l-3 86h-58v65h56l-7 234h75l3 -239h296l3 239h73l-7 -234h56v-65h-58l-3 -86h61v-65h-63l-8 -248h-130l-65 404h-16l-65 -404h-130zM177 74l54 330h-77l6 -330h17zM442 74l6 330h-77l54 -330h17z" />
    <glyph glyph-name="uni20AA" unicode="&#x20aa;" 
d="M196 551h76v-487h84c56 0 112 30 112 118v516h77v-500c0 -133 -79 -198 -189 -198h-160v551zM59 0v698h162c110 0 187 -65 187 -198v-353h-76v369c0 88 -55 118 -111 118h-85v-634h-77z" />
    <glyph glyph-name="uni20AB" unicode="&#x20ab;" 
d="M411 208h-4c-29 -50 -77 -78 -143 -78c-112 0 -181 77 -181 215c0 139 69 216 181 216c66 0 114 -28 143 -78h4v136h-153v61h153v60h76v-60h69v-61h-69v-480h-76v69zM294 194c63 0 117 36 117 92v119c0 55 -54 92 -117 92c-82 0 -130 -46 -130 -117v-69
c0 -71 48 -117 130 -117zM82 0v68h436v-68h-436z" />
    <glyph glyph-name="uni20AD" unicode="&#x20ad;" 
d="M184 0h-84v327h-72v69h72v302h84v-302h54l213 302h95l-216 -302h216v-69h-209l225 -327h-102l-220 327h-56v-327z" />
    <glyph glyph-name="uni20AE" unicode="&#x20ae;" 
d="M343 217v-217h-85v177l-140 -65v69l140 65v91l-140 -65v69l140 65v219h-232v73h549v-73h-232v-179l140 65v-69l-140 -65v-91l140 65v-69z" />
    <glyph glyph-name="uni20B1" unicode="&#x20b1;" 
d="M165 0h-82v341h-55v65h55v80h-55v65h55v147h241c104 0 161 -55 183 -147h67v-65h-57c1 -13 1 -26 1 -40s0 -27 -1 -40h57v-65h-67c-22 -92 -79 -147 -183 -147h-159v-194zM165 549h267c-12 51 -48 80 -110 80h-157v-80zM436 404v84h-271v-84h271zM322 263
c62 0 98 29 110 80h-267v-80h157z" />
    <glyph glyph-name="uni20B2" unicode="&#x20b2;" 
d="M210 5c-102 43 -154 161 -154 344c0 233 84 361 252 361c9 0 18 0 26 -1l18 102h63l-20 -115c69 -26 104 -83 129 -139l-68 -30c-17 41 -37 78 -75 98l-49 -280h190v-101c0 -149 -68 -256 -218 -256c-12 0 -23 1 -34 2l-18 -103h-63zM323 640c-4 1 -9 1 -14 1
c-114 0 -170 -92 -170 -235v-114c0 -102 29 -178 84 -214zM305 55c90 0 141 65 141 173v52h-126l-39 -223c7 -1 16 -2 24 -2z" />
    <glyph glyph-name="uni20B4" unicode="&#x20b4;" 
d="M304 -12c-125 0 -202 78 -202 184c0 36 9 61 19 82h-94v65h145l144 87v3h-289v65h367c10 16 15 33 15 57c0 71 -44 109 -118 109c-50 0 -99 -18 -140 -65l-53 49c57 61 129 86 200 86c115 0 192 -67 192 -170c0 -29 -6 -49 -14 -66h97v-65h-148l-144 -87v-3h292v-65h-367
c-15 -20 -23 -43 -23 -74c0 -77 47 -122 126 -122c54 0 105 21 160 78l51 -51c-54 -63 -133 -97 -216 -97z" />
    <glyph glyph-name="uni20B5" unicode="&#x20b5;" 
d="M216 10c-98 45 -146 162 -146 339c0 232 83 361 253 361h16l18 101h63l-20 -112c74 -24 112 -83 138 -142l-68 -30c-18 44 -40 83 -83 102l-101 -568c12 -3 24 -4 37 -4c88 0 122 53 147 115l68 -31c-34 -76 -87 -153 -215 -153c-17 0 -32 1 -47 4l-19 -105h-63zM328 641
c-121 0 -175 -92 -175 -235v-114c0 -96 25 -169 77 -207z" />
    <glyph glyph-name="uni20B8" unicode="&#x20b8;" 
d="M45 629v69h510v-69h-510zM342 470v-470h-84v470h-213v69h510v-69h-213z" />
    <glyph glyph-name="uni20B9" unicode="&#x20b9;" 
d="M403 0l-222 291h-125v69h172c73 0 124 36 124 110h-296v69h293c-6 57 -56 90 -121 90h-172v69h498v-69h-191v-5c26 -12 53 -37 65 -85h126v-69h-120c-6 -88 -62 -156 -155 -174l227 -296h-103z" />
    <glyph glyph-name="uni20BA" unicode="&#x20ba;" 
d="M155 247l-99 -46v69l99 46v91l-99 -46v69l99 46v222h84v-183l182 85v-69l-182 -85v-91l182 85v-69l-182 -85v-213h52c113 0 181 90 181 232h82c0 -170 -87 -305 -258 -305h-141v247z" />
    <glyph glyph-name="uni20BD" unicode="&#x20bd;" 
d="M212 134v-134h-84v134h-83v69h83v91h-83v69h83v335h228c129 0 199 -77 199 -204s-71 -200 -200 -200h-143v-91h227v-69h-227zM212 363h144c70 0 112 36 112 100v62c0 64 -42 100 -112 100h-144v-262z" />
    <glyph glyph-name="uni20BF" unicode="&#x20bf;" 
d="M319 0h-69v-113h-62v113h-100v698h100v113h62v-113h69v113h62v-119c85 -19 136 -83 136 -174c0 -82 -43 -128 -109 -150v-3c81 -19 135 -69 135 -164c0 -104 -67 -186 -162 -199v-115h-62v113zM172 395h145c70 0 112 31 112 95v39c0 64 -42 97 -112 97h-145v-231zM172 72
h159c77 0 123 36 123 107v41c0 70 -46 106 -123 106h-159v-254z" />
    <glyph glyph-name="fi" unicode="&#xfb01;" 
d="M108 448h-70v68h70v106c0 69 36 118 114 118h113v-68h-147v-156h314v-516h-80v448h-234v-448h-80v448zM462 630c-46 0 -63 22 -63 51v16c0 29 17 51 63 51s63 -22 63 -51v-16c0 -29 -17 -51 -63 -51z" />
    <glyph glyph-name="fl" unicode="&#xfb02;" 
d="M108 448h-70v68h70v106c0 69 36 118 114 118h123v-68h-157v-156h157v-68h-157v-448h-80v448zM422 740h80v-740h-80v740z" />
    <glyph glyph-name="aacute" unicode="&#xe1;" 
d="M290 585l-52 24l85 170l73 -35zM495 0c-62 0 -86 36 -92 84h-5c-22 -59 -71 -96 -155 -96c-108 0 -177 60 -177 157c0 95 67 150 222 150h110v51c0 75 -45 114 -123 114c-69 0 -111 -29 -138 -76l-54 40c26 54 92 104 197 104c121 0 198 -65 198 -174v-284h72v-70h-55z
M257 55c82 0 141 42 141 95v85h-110c-95 0 -138 -28 -138 -78v-21c0 -53 41 -81 107 -81z" />
    <glyph glyph-name="abreve" unicode="&#x103;" 
d="M283 595c-107 0 -142 90 -161 151l51 22l21 -34c31 -50 45 -74 89 -74s58 24 89 74l21 34l51 -22c-19 -61 -54 -151 -161 -151zM495 0c-62 0 -86 36 -92 84h-5c-22 -59 -71 -96 -155 -96c-108 0 -177 60 -177 157c0 95 67 150 222 150h110v51c0 75 -45 114 -123 114
c-69 0 -111 -29 -138 -76l-54 40c26 54 92 104 197 104c121 0 198 -65 198 -174v-284h72v-70h-55zM257 55c82 0 141 42 141 95v85h-110c-95 0 -138 -28 -138 -78v-21c0 -53 41 -81 107 -81z" />
    <glyph glyph-name="acircumflex" unicode="&#xe2;" 
d="M333 765l111 -143l-45 -31l-117 117l-117 -117l-43 31l111 143h100zM495 0c-62 0 -86 36 -92 84h-5c-22 -59 -71 -96 -155 -96c-108 0 -177 60 -177 157c0 95 67 150 222 150h110v51c0 75 -45 114 -123 114c-69 0 -111 -29 -138 -76l-54 40c26 54 92 104 197 104
c121 0 198 -65 198 -174v-284h72v-70h-55zM257 55c82 0 141 42 141 95v85h-110c-95 0 -138 -28 -138 -78v-21c0 -53 41 -81 107 -81z" />
    <glyph glyph-name="adieresis" unicode="&#xe4;" 
d="M190 618c-41 0 -57 20 -57 46v14c0 26 16 46 57 46s57 -20 57 -46v-14c0 -26 -16 -46 -57 -46zM376 618c-41 0 -57 20 -57 46v14c0 26 16 46 57 46s57 -20 57 -46v-14c0 -26 -16 -46 -57 -46zM495 0c-62 0 -86 36 -92 84h-5c-22 -59 -71 -96 -155 -96
c-108 0 -177 60 -177 157c0 95 67 150 222 150h110v51c0 75 -45 114 -123 114c-69 0 -111 -29 -138 -76l-54 40c26 54 92 104 197 104c121 0 198 -65 198 -174v-284h72v-70h-55zM257 55c82 0 141 42 141 95v85h-110c-95 0 -138 -28 -138 -78v-21c0 -53 41 -81 107 -81z" />
    <glyph glyph-name="uni1EA1" unicode="&#x1ea1;" 
d="M283 -172c-41 0 -57 20 -57 46v14c0 26 16 46 57 46s57 -20 57 -46v-14c0 -26 -16 -46 -57 -46zM495 0c-62 0 -86 36 -92 84h-5c-22 -59 -71 -96 -155 -96c-108 0 -177 60 -177 157c0 95 67 150 222 150h110v51c0 75 -45 114 -123 114c-69 0 -111 -29 -138 -76l-54 40
c26 54 92 104 197 104c121 0 198 -65 198 -174v-284h72v-70h-55zM257 55c82 0 141 42 141 95v85h-110c-95 0 -138 -28 -138 -78v-21c0 -53 41 -81 107 -81z" />
    <glyph glyph-name="agrave" unicode="&#xe0;" 
d="M170 744l73 35l85 -170l-52 -24zM495 0c-62 0 -86 36 -92 84h-5c-22 -59 -71 -96 -155 -96c-108 0 -177 60 -177 157c0 95 67 150 222 150h110v51c0 75 -45 114 -123 114c-69 0 -111 -29 -138 -76l-54 40c26 54 92 104 197 104c121 0 198 -65 198 -174v-284h72v-70h-55z
M257 55c82 0 141 42 141 95v85h-110c-95 0 -138 -28 -138 -78v-21c0 -53 41 -81 107 -81z" />
    <glyph glyph-name="uni1EA3" unicode="&#x1ea3;" 
d="M199 765h109c51 0 70 -25 70 -55c0 -29 -18 -64 -49 -103l-24 -30l-46 23l58 104h-118v61zM495 0c-62 0 -86 36 -92 84h-5c-22 -59 -71 -96 -155 -96c-108 0 -177 60 -177 157c0 95 67 150 222 150h110v51c0 75 -45 114 -123 114c-69 0 -111 -29 -138 -76l-54 40
c26 54 92 104 197 104c121 0 198 -65 198 -174v-284h72v-70h-55zM257 55c82 0 141 42 141 95v85h-110c-95 0 -138 -28 -138 -78v-21c0 -53 41 -81 107 -81z" />
    <glyph glyph-name="amacron" unicode="&#x101;" 
d="M143 705h280v-68h-280v68zM495 0c-62 0 -86 36 -92 84h-5c-22 -59 -71 -96 -155 -96c-108 0 -177 60 -177 157c0 95 67 150 222 150h110v51c0 75 -45 114 -123 114c-69 0 -111 -29 -138 -76l-54 40c26 54 92 104 197 104c121 0 198 -65 198 -174v-284h72v-70h-55zM257 55
c82 0 141 42 141 95v85h-110c-95 0 -138 -28 -138 -78v-21c0 -53 41 -81 107 -81z" />
    <glyph glyph-name="aogonek" unicode="&#x105;" 
d="M550 0c-103 -65 -113 -94 -113 -114c0 -28 21 -37 42 -37c22 0 39 10 52 26l40 -41c-13 -22 -43 -41 -93 -41c-61 0 -109 27 -109 80c0 48 40 88 115 124l-1 3c-49 4 -76 37 -80 84h-5c-22 -59 -71 -96 -155 -96c-108 0 -177 60 -177 157c0 95 67 150 222 150h110v51
c0 75 -45 114 -124 114c-68 0 -110 -29 -137 -76l-54 40c26 54 92 104 197 104c121 0 198 -65 198 -174v-284h72v-70zM288 235c-95 0 -138 -28 -138 -78v-21c0 -53 41 -81 107 -81c82 0 141 42 141 95v85h-110z" />
    <glyph glyph-name="aring" unicode="&#xe5;" 
d="M283 576c-65 0 -116 49 -116 115s51 115 116 115s116 -49 116 -115s-51 -115 -116 -115zM283 625c36 0 58 20 58 55v22c0 35 -22 55 -58 55s-58 -20 -58 -55v-22c0 -35 22 -55 58 -55zM495 0c-62 0 -86 36 -92 84h-5c-22 -59 -71 -96 -155 -96c-108 0 -177 60 -177 157
c0 95 67 150 222 150h110v51c0 75 -45 114 -123 114c-69 0 -111 -29 -138 -76l-54 40c26 54 92 104 197 104c121 0 198 -65 198 -174v-284h72v-70h-55zM257 55c82 0 141 42 141 95v85h-110c-95 0 -138 -28 -138 -78v-21c0 -53 41 -81 107 -81z" />
    <glyph glyph-name="aringacute" unicode="&#x1fb;" 
d="M294 814l-41 26l75 116l60 -37zM283 566c-65 0 -116 49 -116 115s51 115 116 115s116 -49 116 -115s-51 -115 -116 -115zM283 615c36 0 58 20 58 55v22c0 35 -22 55 -58 55s-58 -20 -58 -55v-22c0 -35 22 -55 58 -55zM495 0c-62 0 -86 36 -92 84h-5
c-22 -59 -71 -96 -155 -96c-108 0 -177 60 -177 157c0 95 67 150 222 150h110v51c0 75 -45 114 -123 114c-69 0 -111 -29 -138 -76l-54 40c26 54 92 104 197 104c121 0 198 -65 198 -174v-284h72v-70h-55zM257 55c82 0 141 42 141 95v85h-110c-95 0 -138 -28 -138 -78v-21
c0 -53 41 -81 107 -81z" />
    <glyph glyph-name="atilde" unicode="&#xe3;" 
d="M356 612c-35 0 -59 15 -80 26c-32 17 -53 24 -70 24c-22 0 -38 -10 -58 -27l-33 40c18 27 49 53 95 53c35 0 59 -15 80 -26c32 -17 53 -24 70 -24c22 0 38 10 58 27l33 -40c-18 -27 -49 -53 -95 -53zM495 0c-62 0 -86 36 -92 84h-5c-22 -59 -71 -96 -155 -96
c-108 0 -177 60 -177 157c0 95 67 150 222 150h110v51c0 75 -45 114 -123 114c-69 0 -111 -29 -138 -76l-54 40c26 54 92 104 197 104c121 0 198 -65 198 -174v-284h72v-70h-55zM257 55c82 0 141 42 141 95v85h-110c-95 0 -138 -28 -138 -78v-21c0 -53 41 -81 107 -81z" />
    <glyph glyph-name="uni1EAF" unicode="&#x1eaf;" 
d="M282 585c-107 0 -146 80 -165 139l47 23l21 -32c32 -48 54 -66 98 -66s66 18 98 66l21 32l47 -23c-21 -65 -63 -139 -167 -139zM290 708l-49 23l85 170l70 -34zM495 0c-62 0 -86 36 -92 84h-5c-22 -59 -71 -96 -155 -96c-108 0 -177 60 -177 157c0 95 67 150 222 150h110
v51c0 75 -45 114 -123 114c-69 0 -111 -29 -138 -76l-54 40c26 54 92 104 197 104c121 0 198 -65 198 -174v-284h72v-70h-55zM257 55c82 0 141 42 141 95v85h-110c-95 0 -138 -28 -138 -78v-21c0 -53 41 -81 107 -81z" />
    <glyph glyph-name="uni1EB7" unicode="&#x1eb7;" 
d="M283 -172c-41 0 -57 20 -57 46v14c0 26 16 46 57 46s57 -20 57 -46v-14c0 -26 -16 -46 -57 -46zM283 595c-107 0 -142 90 -161 151l51 22l21 -34c31 -50 45 -74 89 -74s58 24 89 74l21 34l51 -22c-19 -61 -54 -151 -161 -151zM495 0c-62 0 -86 36 -92 84h-5
c-22 -59 -71 -96 -155 -96c-108 0 -177 60 -177 157c0 95 67 150 222 150h110v51c0 75 -45 114 -123 114c-69 0 -111 -29 -138 -76l-54 40c26 54 92 104 197 104c121 0 198 -65 198 -174v-284h72v-70h-55zM257 55c82 0 141 42 141 95v85h-110c-95 0 -138 -28 -138 -78v-21
c0 -53 41 -81 107 -81z" />
    <glyph glyph-name="uni1EB1" unicode="&#x1eb1;" 
d="M284 585c-104 0 -146 74 -167 139l47 23l21 -32c32 -48 54 -66 98 -66s66 18 98 66l21 32l47 -23c-19 -59 -58 -139 -165 -139zM170 867l70 34l85 -170l-49 -23zM495 0c-62 0 -86 36 -92 84h-5c-22 -59 -71 -96 -155 -96c-108 0 -177 60 -177 157c0 95 67 150 222 150
h110v51c0 75 -45 114 -123 114c-69 0 -111 -29 -138 -76l-54 40c26 54 92 104 197 104c121 0 198 -65 198 -174v-284h72v-70h-55zM257 55c82 0 141 42 141 95v85h-110c-95 0 -138 -28 -138 -78v-21c0 -53 41 -81 107 -81z" />
    <glyph glyph-name="uni1EB3" unicode="&#x1eb3;" 
d="M284 585c-104 0 -146 74 -167 139l47 23l21 -32c32 -48 54 -66 98 -66s66 18 98 66l21 32l47 -23c-19 -59 -58 -139 -165 -139zM198 890h94c51 0 70 -25 70 -55c0 -29 -18 -64 -49 -103l-24 -30l-46 23l58 104h-103v61zM495 0c-62 0 -86 36 -92 84h-5
c-22 -59 -71 -96 -155 -96c-108 0 -177 60 -177 157c0 95 67 150 222 150h110v51c0 75 -45 114 -123 114c-69 0 -111 -29 -138 -76l-54 40c26 54 92 104 197 104c121 0 198 -65 198 -174v-284h72v-70h-55zM257 55c82 0 141 42 141 95v85h-110c-95 0 -138 -28 -138 -78v-21
c0 -53 41 -81 107 -81z" />
    <glyph glyph-name="uni1EB5" unicode="&#x1eb5;" 
d="M284 585c-104 0 -146 74 -167 139l47 23l21 -32c32 -48 54 -66 98 -66s66 18 98 66l21 32l47 -23c-19 -59 -58 -139 -165 -139zM355 769c-35 0 -59 15 -80 26c-32 17 -53 24 -70 24c-22 0 -38 -10 -58 -27l-31 36c18 27 49 53 95 53c35 0 59 -15 80 -26
c32 -17 53 -24 70 -24c22 0 38 10 58 27l31 -36c-18 -27 -49 -53 -95 -53zM495 0c-62 0 -86 36 -92 84h-5c-22 -59 -71 -96 -155 -96c-108 0 -177 60 -177 157c0 95 67 150 222 150h110v51c0 75 -45 114 -123 114c-69 0 -111 -29 -138 -76l-54 40c26 54 92 104 197 104
c121 0 198 -65 198 -174v-284h72v-70h-55zM257 55c82 0 141 42 141 95v85h-110c-95 0 -138 -28 -138 -78v-21c0 -53 41 -81 107 -81z" />
    <glyph glyph-name="uni1EA5" unicode="&#x1ea5;" 
d="M437 712l-49 23l85 170l70 -34zM333 755l110 -144l-44 -30l-117 119l-117 -119l-42 30l110 144h100zM495 0c-62 0 -86 36 -92 84h-5c-22 -59 -71 -96 -155 -96c-108 0 -177 60 -177 157c0 95 67 150 222 150h110v51c0 75 -45 114 -123 114c-69 0 -111 -29 -138 -76
l-54 40c26 54 92 104 197 104c121 0 198 -65 198 -174v-284h72v-70h-55zM257 55c82 0 141 42 141 95v85h-110c-95 0 -138 -28 -138 -78v-21c0 -53 41 -81 107 -81z" />
    <glyph glyph-name="uni1EAD" unicode="&#x1ead;" 
d="M283 -172c-41 0 -57 20 -57 46v14c0 26 16 46 57 46s57 -20 57 -46v-14c0 -26 -16 -46 -57 -46zM333 765l111 -143l-45 -31l-117 117l-117 -117l-43 31l111 143h100zM495 0c-62 0 -86 36 -92 84h-5c-22 -59 -71 -96 -155 -96c-108 0 -177 60 -177 157
c0 95 67 150 222 150h110v51c0 75 -45 114 -123 114c-69 0 -111 -29 -138 -76l-54 40c26 54 92 104 197 104c121 0 198 -65 198 -174v-284h72v-70h-55zM257 55c82 0 141 42 141 95v85h-110c-95 0 -138 -28 -138 -78v-21c0 -53 41 -81 107 -81z" />
    <glyph glyph-name="uni1EA7" unicode="&#x1ea7;" 
d="M23 871l70 34l85 -170l-49 -23zM333 755l110 -144l-44 -30l-117 119l-117 -119l-42 30l110 144h100zM495 0c-62 0 -86 36 -92 84h-5c-22 -59 -71 -96 -155 -96c-108 0 -177 60 -177 157c0 95 67 150 222 150h110v51c0 75 -45 114 -123 114c-69 0 -111 -29 -138 -76
l-54 40c26 54 92 104 197 104c121 0 198 -65 198 -174v-284h72v-70h-55zM257 55c82 0 141 42 141 95v85h-110c-95 0 -138 -28 -138 -78v-21c0 -53 41 -81 107 -81z" />
    <glyph glyph-name="uni1EA9" unicode="&#x1ea9;" 
d="M336 894h109c51 0 70 -25 70 -55c0 -29 -18 -64 -49 -103l-24 -30l-46 23l58 104h-118v61zM333 755l110 -144l-44 -30l-117 119l-117 -119l-42 30l110 144h100zM495 0c-62 0 -86 36 -92 84h-5c-22 -59 -71 -96 -155 -96c-108 0 -177 60 -177 157c0 95 67 150 222 150h110
v51c0 75 -45 114 -123 114c-69 0 -111 -29 -138 -76l-54 40c26 54 92 104 197 104c121 0 198 -65 198 -174v-284h72v-70h-55zM257 55c82 0 141 42 141 95v85h-110c-95 0 -138 -28 -138 -78v-21c0 -53 41 -81 107 -81z" />
    <glyph glyph-name="uni1EAB" unicode="&#x1eab;" 
d="M211 892c35 0 59 -15 80 -26c32 -17 53 -24 70 -24c22 0 38 10 58 27l31 -36c-18 -27 -49 -53 -95 -53c-35 0 -59 15 -80 26c-32 17 -53 24 -70 24c-22 0 -38 -10 -58 -27l-31 36c18 27 49 53 95 53zM333 745l110 -134l-44 -30l-117 111l-117 -111l-42 30l110 134h100z
M495 0c-62 0 -86 36 -92 84h-5c-22 -59 -71 -96 -155 -96c-108 0 -177 60 -177 157c0 95 67 150 222 150h110v51c0 75 -45 114 -123 114c-69 0 -111 -29 -138 -76l-54 40c26 54 92 104 197 104c121 0 198 -65 198 -174v-284h72v-70h-55zM257 55c82 0 141 42 141 95v85h-110
c-95 0 -138 -28 -138 -78v-21c0 -53 41 -81 107 -81z" />
    <glyph glyph-name="aacute.alt01" 
d="M294 585l-52 24l85 170l73 -35zM425 84h-4c-33 -63 -87 -96 -159 -96c-126 0 -202 101 -202 270s76 270 202 270c72 0 126 -33 159 -96h4v84h80v-516h-80v84zM293 59c71 0 132 37 132 106v186c0 69 -61 106 -132 106c-93 0 -147 -62 -147 -155v-88
c0 -93 54 -155 147 -155z" />
    <glyph glyph-name="abreve.alt01" 
d="M287 595c-107 0 -142 90 -161 151l51 22l21 -34c31 -50 45 -74 89 -74s58 24 89 74l21 34l51 -22c-19 -61 -54 -151 -161 -151zM425 84h-4c-33 -63 -87 -96 -159 -96c-126 0 -202 101 -202 270s76 270 202 270c72 0 126 -33 159 -96h4v84h80v-516h-80v84zM293 59
c71 0 132 37 132 106v186c0 69 -61 106 -132 106c-93 0 -147 -62 -147 -155v-88c0 -93 54 -155 147 -155z" />
    <glyph glyph-name="acircumflex.alt01" 
d="M337 765l111 -143l-45 -31l-117 117l-117 -117l-43 31l111 143h100zM425 84h-4c-33 -63 -87 -96 -159 -96c-126 0 -202 101 -202 270s76 270 202 270c72 0 126 -33 159 -96h4v84h80v-516h-80v84zM293 59c71 0 132 37 132 106v186c0 69 -61 106 -132 106
c-93 0 -147 -62 -147 -155v-88c0 -93 54 -155 147 -155z" />
    <glyph glyph-name="adieresis.alt01" 
d="M194 618c-41 0 -57 20 -57 46v14c0 26 16 46 57 46s57 -20 57 -46v-14c0 -26 -16 -46 -57 -46zM380 618c-41 0 -57 20 -57 46v14c0 26 16 46 57 46s57 -20 57 -46v-14c0 -26 -16 -46 -57 -46zM425 84h-4c-33 -63 -87 -96 -159 -96c-126 0 -202 101 -202 270
s76 270 202 270c72 0 126 -33 159 -96h4v84h80v-516h-80v84zM293 59c71 0 132 37 132 106v186c0 69 -61 106 -132 106c-93 0 -147 -62 -147 -155v-88c0 -93 54 -155 147 -155z" />
    <glyph glyph-name="uni1EA1.alt01" 
d="M287 -172c-41 0 -57 20 -57 46v14c0 26 16 46 57 46s57 -20 57 -46v-14c0 -26 -16 -46 -57 -46zM425 84h-4c-33 -63 -87 -96 -159 -96c-126 0 -202 101 -202 270s76 270 202 270c72 0 126 -33 159 -96h4v84h80v-516h-80v84zM293 59c71 0 132 37 132 106v186
c0 69 -61 106 -132 106c-93 0 -147 -62 -147 -155v-88c0 -93 54 -155 147 -155z" />
    <glyph glyph-name="agrave.alt01" 
d="M174 744l73 35l85 -170l-52 -24zM425 84h-4c-33 -63 -87 -96 -159 -96c-126 0 -202 101 -202 270s76 270 202 270c72 0 126 -33 159 -96h4v84h80v-516h-80v84zM293 59c71 0 132 37 132 106v186c0 69 -61 106 -132 106c-93 0 -147 -62 -147 -155v-88
c0 -93 54 -155 147 -155z" />
    <glyph glyph-name="uni1EA3.alt01" 
d="M203 765h109c51 0 70 -25 70 -55c0 -29 -18 -64 -49 -103l-24 -30l-46 23l58 104h-118v61zM425 84h-4c-33 -63 -87 -96 -159 -96c-126 0 -202 101 -202 270s76 270 202 270c72 0 126 -33 159 -96h4v84h80v-516h-80v84zM293 59c71 0 132 37 132 106v186
c0 69 -61 106 -132 106c-93 0 -147 -62 -147 -155v-88c0 -93 54 -155 147 -155z" />
    <glyph glyph-name="amacron.alt01" 
d="M147 705h280v-68h-280v68zM425 84h-4c-33 -63 -87 -96 -159 -96c-126 0 -202 101 -202 270s76 270 202 270c72 0 126 -33 159 -96h4v84h80v-516h-80v84zM293 59c71 0 132 37 132 106v186c0 69 -61 106 -132 106c-93 0 -147 -62 -147 -155v-88c0 -93 54 -155 147 -155z
" />
    <glyph glyph-name="aogonek.alt01" 
d="M433 -207c-61 0 -109 27 -109 80c0 48 40 88 115 124l-1 3h-13v84h-4c-33 -63 -87 -96 -159 -96c-126 0 -202 101 -202 270s76 270 202 270c72 0 126 -33 159 -96h4v84h80v-516c-103 -65 -113 -94 -113 -114c0 -28 21 -37 42 -37c22 0 39 10 52 26l40 -41
c-13 -22 -43 -41 -93 -41zM293 59c71 0 132 37 132 106v186c0 69 -61 106 -132 106c-93 0 -147 -62 -147 -155v-88c0 -93 54 -155 147 -155z" />
    <glyph glyph-name="aring.alt01" 
d="M287 576c-65 0 -116 49 -116 115s51 115 116 115s116 -49 116 -115s-51 -115 -116 -115zM287 625c36 0 58 20 58 55v22c0 35 -22 55 -58 55s-58 -20 -58 -55v-22c0 -35 22 -55 58 -55zM425 84h-4c-33 -63 -87 -96 -159 -96c-126 0 -202 101 -202 270s76 270 202 270
c72 0 126 -33 159 -96h4v84h80v-516h-80v84zM293 59c71 0 132 37 132 106v186c0 69 -61 106 -132 106c-93 0 -147 -62 -147 -155v-88c0 -93 54 -155 147 -155z" />
    <glyph glyph-name="aringacute.alt01" 
d="M298 814l-41 26l75 116l60 -37zM287 566c-65 0 -116 49 -116 115s51 115 116 115s116 -49 116 -115s-51 -115 -116 -115zM287 615c36 0 58 20 58 55v22c0 35 -22 55 -58 55s-58 -20 -58 -55v-22c0 -35 22 -55 58 -55zM425 84h-4c-33 -63 -87 -96 -159 -96
c-126 0 -202 101 -202 270s76 270 202 270c72 0 126 -33 159 -96h4v84h80v-516h-80v84zM293 59c71 0 132 37 132 106v186c0 69 -61 106 -132 106c-93 0 -147 -62 -147 -155v-88c0 -93 54 -155 147 -155z" />
    <glyph glyph-name="atilde.alt01" 
d="M360 612c-35 0 -59 15 -80 26c-32 17 -53 24 -70 24c-22 0 -38 -10 -58 -27l-33 40c18 27 49 53 95 53c35 0 59 -15 80 -26c32 -17 53 -24 70 -24c22 0 38 10 58 27l33 -40c-18 -27 -49 -53 -95 -53zM425 84h-4c-33 -63 -87 -96 -159 -96c-126 0 -202 101 -202 270
s76 270 202 270c72 0 126 -33 159 -96h4v84h80v-516h-80v84zM293 59c71 0 132 37 132 106v186c0 69 -61 106 -132 106c-93 0 -147 -62 -147 -155v-88c0 -93 54 -155 147 -155z" />
    <glyph glyph-name="uni1EAF.alt01" 
d="M286 585c-107 0 -146 80 -165 139l47 23l21 -32c32 -48 54 -66 98 -66s66 18 98 66l21 32l47 -23c-21 -65 -63 -139 -167 -139zM294 708l-49 23l85 170l70 -34zM425 84h-4c-33 -63 -87 -96 -159 -96c-126 0 -202 101 -202 270s76 270 202 270c72 0 126 -33 159 -96h4v84
h80v-516h-80v84zM293 59c71 0 132 37 132 106v186c0 69 -61 106 -132 106c-93 0 -147 -62 -147 -155v-88c0 -93 54 -155 147 -155z" />
    <glyph glyph-name="uni1EB7.alt01" 
d="M287 -172c-41 0 -57 20 -57 46v14c0 26 16 46 57 46s57 -20 57 -46v-14c0 -26 -16 -46 -57 -46zM287 595c-107 0 -142 90 -161 151l51 22l21 -34c31 -50 45 -74 89 -74s58 24 89 74l21 34l51 -22c-19 -61 -54 -151 -161 -151zM425 84h-4c-33 -63 -87 -96 -159 -96
c-126 0 -202 101 -202 270s76 270 202 270c72 0 126 -33 159 -96h4v84h80v-516h-80v84zM293 59c71 0 132 37 132 106v186c0 69 -61 106 -132 106c-93 0 -147 -62 -147 -155v-88c0 -93 54 -155 147 -155z" />
    <glyph glyph-name="uni1EB1.alt01" 
d="M288 585c-104 0 -146 74 -167 139l47 23l21 -32c32 -48 54 -66 98 -66s66 18 98 66l21 32l47 -23c-19 -59 -58 -139 -165 -139zM174 867l70 34l85 -170l-49 -23zM425 84h-4c-33 -63 -87 -96 -159 -96c-126 0 -202 101 -202 270s76 270 202 270c72 0 126 -33 159 -96h4v84
h80v-516h-80v84zM293 59c71 0 132 37 132 106v186c0 69 -61 106 -132 106c-93 0 -147 -62 -147 -155v-88c0 -93 54 -155 147 -155z" />
    <glyph glyph-name="uni1EB3.alt01" 
d="M288 585c-104 0 -146 74 -167 139l47 23l21 -32c32 -48 54 -66 98 -66s66 18 98 66l21 32l47 -23c-19 -59 -58 -139 -165 -139zM202 890h94c51 0 70 -25 70 -55c0 -29 -18 -64 -49 -103l-24 -30l-46 23l58 104h-103v61zM425 84h-4c-33 -63 -87 -96 -159 -96
c-126 0 -202 101 -202 270s76 270 202 270c72 0 126 -33 159 -96h4v84h80v-516h-80v84zM293 59c71 0 132 37 132 106v186c0 69 -61 106 -132 106c-93 0 -147 -62 -147 -155v-88c0 -93 54 -155 147 -155z" />
    <glyph glyph-name="uni1EB5.alt01" 
d="M288 585c-104 0 -146 74 -167 139l47 23l21 -32c32 -48 54 -66 98 -66s66 18 98 66l21 32l47 -23c-19 -59 -58 -139 -165 -139zM359 769c-35 0 -59 15 -80 26c-32 17 -53 24 -70 24c-22 0 -38 -10 -58 -27l-31 36c18 27 49 53 95 53c35 0 59 -15 80 -26
c32 -17 53 -24 70 -24c22 0 38 10 58 27l31 -36c-18 -27 -49 -53 -95 -53zM425 84h-4c-33 -63 -87 -96 -159 -96c-126 0 -202 101 -202 270s76 270 202 270c72 0 126 -33 159 -96h4v84h80v-516h-80v84zM293 59c71 0 132 37 132 106v186c0 69 -61 106 -132 106
c-93 0 -147 -62 -147 -155v-88c0 -93 54 -155 147 -155z" />
    <glyph glyph-name="uni1EA5.alt01" 
d="M441 712l-49 23l85 170l70 -34zM337 755l110 -144l-44 -30l-117 119l-117 -119l-42 30l110 144h100zM425 84h-4c-33 -63 -87 -96 -159 -96c-126 0 -202 101 -202 270s76 270 202 270c72 0 126 -33 159 -96h4v84h80v-516h-80v84zM293 59c71 0 132 37 132 106v186
c0 69 -61 106 -132 106c-93 0 -147 -62 -147 -155v-88c0 -93 54 -155 147 -155z" />
    <glyph glyph-name="uni1EAD.alt01" 
d="M287 -172c-41 0 -57 20 -57 46v14c0 26 16 46 57 46s57 -20 57 -46v-14c0 -26 -16 -46 -57 -46zM337 765l111 -143l-45 -31l-117 117l-117 -117l-43 31l111 143h100zM425 84h-4c-33 -63 -87 -96 -159 -96c-126 0 -202 101 -202 270s76 270 202 270c72 0 126 -33 159 -96
h4v84h80v-516h-80v84zM293 59c71 0 132 37 132 106v186c0 69 -61 106 -132 106c-93 0 -147 -62 -147 -155v-88c0 -93 54 -155 147 -155z" />
    <glyph glyph-name="uni1EA7.alt01" 
d="M27 871l70 34l85 -170l-49 -23zM337 755l110 -144l-44 -30l-117 119l-117 -119l-42 30l110 144h100zM425 84h-4c-33 -63 -87 -96 -159 -96c-126 0 -202 101 -202 270s76 270 202 270c72 0 126 -33 159 -96h4v84h80v-516h-80v84zM293 59c71 0 132 37 132 106v186
c0 69 -61 106 -132 106c-93 0 -147 -62 -147 -155v-88c0 -93 54 -155 147 -155z" />
    <glyph glyph-name="uni1EA9.alt01" 
d="M340 894h109c51 0 70 -25 70 -55c0 -29 -18 -64 -49 -103l-24 -30l-46 23l58 104h-118v61zM337 755l110 -144l-44 -30l-117 119l-117 -119l-42 30l110 144h100zM425 84h-4c-33 -63 -87 -96 -159 -96c-126 0 -202 101 -202 270s76 270 202 270c72 0 126 -33 159 -96h4v84
h80v-516h-80v84zM293 59c71 0 132 37 132 106v186c0 69 -61 106 -132 106c-93 0 -147 -62 -147 -155v-88c0 -93 54 -155 147 -155z" />
    <glyph glyph-name="uni1EAB.alt01" 
d="M215 892c35 0 59 -15 80 -26c32 -17 53 -24 70 -24c22 0 38 10 58 27l31 -36c-18 -27 -49 -53 -95 -53c-35 0 -59 15 -80 26c-32 17 -53 24 -70 24c-22 0 -38 -10 -58 -27l-31 36c18 27 49 53 95 53zM337 745l110 -134l-44 -30l-117 111l-117 -111l-42 30l110 134h100z
M425 84h-4c-33 -63 -87 -96 -159 -96c-126 0 -202 101 -202 270s76 270 202 270c72 0 126 -33 159 -96h4v84h80v-516h-80v84zM293 59c71 0 132 37 132 106v186c0 69 -61 106 -132 106c-93 0 -147 -62 -147 -155v-88c0 -93 54 -155 147 -155z" />
    <glyph glyph-name="ae" unicode="&#xe6;" 
d="M141 -12c-75 0 -131 53 -131 148c0 107 63 159 178 159h63v53c0 79 -30 120 -83 120c-48 0 -73 -33 -93 -79l-53 33c21 54 71 106 151 106c60 0 101 -28 124 -78h3c29 50 70 78 123 78c96 0 159 -92 159 -239v-51h-258v-25c0 -94 33 -161 96 -161c52 0 79 44 96 89
l58 -27c-20 -61 -72 -126 -156 -126c-68 0 -118 42 -146 114h-3c-18 -78 -66 -114 -128 -114zM155 50c65 0 96 49 96 104v84h-52c-73 0 -116 -25 -116 -86v-15c0 -54 19 -87 72 -87zM420 470c-57 0 -96 -70 -96 -163v-12h192v12c0 93 -39 163 -96 163z" />
    <glyph glyph-name="aeacute" unicode="&#x1fd;" 
d="M307 585l-52 24l85 170l73 -35zM141 -12c-75 0 -131 53 -131 148c0 107 63 159 178 159h63v53c0 79 -30 120 -83 120c-48 0 -73 -33 -93 -79l-53 33c21 54 71 106 151 106c60 0 101 -28 124 -78h3c29 50 70 78 123 78c96 0 159 -92 159 -239v-51h-258v-25
c0 -94 33 -161 96 -161c52 0 79 44 96 89l58 -27c-20 -61 -72 -126 -156 -126c-68 0 -118 42 -146 114h-3c-18 -78 -66 -114 -128 -114zM155 50c65 0 96 49 96 104v84h-52c-73 0 -116 -25 -116 -86v-15c0 -54 19 -87 72 -87zM420 470c-57 0 -96 -70 -96 -163v-12h192v12
c0 93 -39 163 -96 163z" />
    <glyph glyph-name="cacute" unicode="&#x107;" 
d="M320 585l-52 24l85 170l73 -35zM318 -12c-148 0 -234 107 -234 270c0 164 87 270 233 270c100 0 162 -49 191 -119l-64 -34c-19 53 -63 84 -127 84c-94 0 -147 -66 -147 -157v-88c0 -91 52 -157 149 -157c69 0 114 34 140 90l57 -39c-30 -69 -95 -120 -198 -120z" />
    <glyph glyph-name="ccaron" unicode="&#x10d;" 
d="M263 599l-111 143l46 31l117 -117l117 117l42 -31l-111 -143h-100zM318 -12c-148 0 -234 107 -234 270c0 164 87 270 233 270c100 0 162 -49 191 -119l-64 -34c-19 53 -63 84 -127 84c-94 0 -147 -66 -147 -157v-88c0 -91 52 -157 149 -157c69 0 114 34 140 90l57 -39
c-30 -69 -95 -120 -198 -120z" />
    <glyph glyph-name="ccedilla" unicode="&#xe7;" 
d="M317 528c100 0 162 -49 191 -119l-64 -34c-19 53 -63 84 -127 84c-94 0 -147 -66 -147 -157v-88c0 -91 52 -157 149 -157c69 0 114 34 140 90l57 -39c-30 -68 -91 -117 -190 -120l-10 -49l3 -3c13 4 27 6 39 6c39 0 68 -23 68 -66c0 -57 -52 -83 -111 -83
c-54 0 -85 22 -99 41l38 41c12 -15 32 -28 61 -28c25 0 44 10 44 31c0 18 -12 33 -68 41l-28 4l14 68c-122 18 -193 120 -193 267c0 164 87 270 233 270z" />
    <glyph glyph-name="ccircumflex" unicode="&#x109;" 
d="M363 765l111 -143l-45 -31l-117 117l-117 -117l-43 31l111 143h100zM318 -12c-148 0 -234 107 -234 270c0 164 87 270 233 270c100 0 162 -49 191 -119l-64 -34c-19 53 -63 84 -127 84c-94 0 -147 -66 -147 -157v-88c0 -91 52 -157 149 -157c69 0 114 34 140 90l57 -39
c-30 -69 -95 -120 -198 -120z" />
    <glyph glyph-name="cdotaccent" unicode="&#x10b;" 
d="M313 612c-46 0 -63 22 -63 51v16c0 29 17 51 63 51s63 -22 63 -51v-16c0 -29 -17 -51 -63 -51zM318 -12c-148 0 -234 107 -234 270c0 164 87 270 233 270c100 0 162 -49 191 -119l-64 -34c-19 53 -63 84 -127 84c-94 0 -147 -66 -147 -157v-88c0 -91 52 -157 149 -157
c69 0 114 34 140 90l57 -39c-30 -69 -95 -120 -198 -120z" />
    <glyph glyph-name="dcaron" unicode="&#x10f;" 
d="M237 -12c-120 0 -192 101 -192 270s72 270 192 270c67 0 118 -33 149 -96h4v308h80v-740h-80v84h-4c-31 -63 -82 -96 -149 -96zM263 59c66 0 127 37 127 106v186c0 69 -61 106 -127 106c-87 0 -132 -59 -132 -155v-88c0 -96 45 -155 132 -155zM545 740h103l-49 -189h-61z
" />
    <glyph glyph-name="dcroat" unicode="&#x111;" 
d="M425 84h-4c-33 -63 -87 -96 -159 -96c-126 0 -202 101 -202 270s76 270 202 270c72 0 126 -33 159 -96h4v176h-153v62h153v70h80v-70h65v-62h-65v-608h-80v84zM293 59c71 0 132 37 132 106v186c0 69 -61 106 -132 106c-93 0 -147 -62 -147 -155v-88
c0 -93 54 -155 147 -155z" />
    <glyph glyph-name="eth" unicode="&#xf0;" 
d="M459 708l-87 -61c84 -82 162 -207 162 -381c0 -186 -89 -278 -231 -278c-149 0 -237 101 -237 258s89 258 214 258c81 0 133 -43 165 -96l4 2c-33 82 -78 145 -134 198l-99 -70l-38 45l92 64c-44 35 -92 65 -143 93h126c22 -14 48 -31 74 -52l94 65zM300 57
c89 0 149 50 149 154v70c0 104 -60 154 -149 154s-149 -50 -149 -154v-70c0 -104 60 -154 149 -154z" />
    <glyph glyph-name="eacute" unicode="&#xe9;" 
d="M309 585l-52 24l85 170l73 -35zM309 -12c-148 0 -242 106 -242 269c0 165 97 271 237 271c139 0 229 -106 229 -252v-38h-382v-24c0 -91 61 -157 158 -157c69 0 121 34 148 90l59 -40c-31 -69 -105 -119 -207 -119zM304 462c-88 0 -153 -67 -153 -157v-7h296v11
c0 91 -58 153 -143 153z" />
    <glyph glyph-name="ebreve" unicode="&#x115;" 
d="M302 595c-107 0 -142 90 -161 151l51 22l21 -34c31 -50 45 -74 89 -74s58 24 89 74l21 34l51 -22c-19 -61 -54 -151 -161 -151zM309 -12c-148 0 -242 106 -242 269c0 165 97 271 237 271c139 0 229 -106 229 -252v-38h-382v-24c0 -91 61 -157 158 -157
c69 0 121 34 148 90l59 -40c-31 -69 -105 -119 -207 -119zM304 462c-88 0 -153 -67 -153 -157v-7h296v11c0 91 -58 153 -143 153z" />
    <glyph glyph-name="ecaron" unicode="&#x11b;" 
d="M252 599l-111 143l46 31l117 -117l117 117l42 -31l-111 -143h-100zM309 -12c-148 0 -242 106 -242 269c0 165 97 271 237 271c139 0 229 -106 229 -252v-38h-382v-24c0 -91 61 -157 158 -157c69 0 121 34 148 90l59 -40c-31 -69 -105 -119 -207 -119zM304 462
c-88 0 -153 -67 -153 -157v-7h296v11c0 91 -58 153 -143 153z" />
    <glyph glyph-name="ecircumflex" unicode="&#xea;" 
d="M352 765l111 -143l-45 -31l-117 117l-117 -117l-43 31l111 143h100zM309 -12c-148 0 -242 106 -242 269c0 165 97 271 237 271c139 0 229 -106 229 -252v-38h-382v-24c0 -91 61 -157 158 -157c69 0 121 34 148 90l59 -40c-31 -69 -105 -119 -207 -119zM304 462
c-88 0 -153 -67 -153 -157v-7h296v11c0 91 -58 153 -143 153z" />
    <glyph glyph-name="edieresis" unicode="&#xeb;" 
d="M209 618c-41 0 -57 20 -57 46v14c0 26 16 46 57 46s57 -20 57 -46v-14c0 -26 -16 -46 -57 -46zM395 618c-41 0 -57 20 -57 46v14c0 26 16 46 57 46s57 -20 57 -46v-14c0 -26 -16 -46 -57 -46zM309 -12c-148 0 -242 106 -242 269c0 165 97 271 237 271
c139 0 229 -106 229 -252v-38h-382v-24c0 -91 61 -157 158 -157c69 0 121 34 148 90l59 -40c-31 -69 -105 -119 -207 -119zM304 462c-88 0 -153 -67 -153 -157v-7h296v11c0 91 -58 153 -143 153z" />
    <glyph glyph-name="edotaccent" unicode="&#x117;" 
d="M302 612c-46 0 -63 22 -63 51v16c0 29 17 51 63 51s63 -22 63 -51v-16c0 -29 -17 -51 -63 -51zM309 -12c-148 0 -242 106 -242 269c0 165 97 271 237 271c139 0 229 -106 229 -252v-38h-382v-24c0 -91 61 -157 158 -157c69 0 121 34 148 90l59 -40
c-31 -69 -105 -119 -207 -119zM304 462c-88 0 -153 -67 -153 -157v-7h296v11c0 91 -58 153 -143 153z" />
    <glyph glyph-name="uni1EB9" unicode="&#x1eb9;" 
d="M309 -172c-41 0 -57 20 -57 46v14c0 26 16 46 57 46s57 -20 57 -46v-14c0 -26 -16 -46 -57 -46zM309 -12c-148 0 -242 106 -242 269c0 165 97 271 237 271c139 0 229 -106 229 -252v-38h-382v-24c0 -91 61 -157 158 -157c69 0 121 34 148 90l59 -40
c-31 -69 -105 -119 -207 -119zM304 462c-88 0 -153 -67 -153 -157v-7h296v11c0 91 -58 153 -143 153z" />
    <glyph glyph-name="egrave" unicode="&#xe8;" 
d="M189 744l73 35l85 -170l-52 -24zM309 -12c-148 0 -242 106 -242 269c0 165 97 271 237 271c139 0 229 -106 229 -252v-38h-382v-24c0 -91 61 -157 158 -157c69 0 121 34 148 90l59 -40c-31 -69 -105 -119 -207 -119zM304 462c-88 0 -153 -67 -153 -157v-7h296v11
c0 91 -58 153 -143 153z" />
    <glyph glyph-name="uni1EBB" unicode="&#x1ebb;" 
d="M218 765h109c51 0 70 -25 70 -55c0 -29 -18 -64 -49 -103l-24 -30l-46 23l58 104h-118v61zM309 -12c-148 0 -242 106 -242 269c0 165 97 271 237 271c139 0 229 -106 229 -252v-38h-382v-24c0 -91 61 -157 158 -157c69 0 121 34 148 90l59 -40
c-31 -69 -105 -119 -207 -119zM304 462c-88 0 -153 -67 -153 -157v-7h296v11c0 91 -58 153 -143 153z" />
    <glyph glyph-name="emacron" unicode="&#x113;" 
d="M162 705h280v-68h-280v68zM309 -12c-148 0 -242 106 -242 269c0 165 97 271 237 271c139 0 229 -106 229 -252v-38h-382v-24c0 -91 61 -157 158 -157c69 0 121 34 148 90l59 -40c-31 -69 -105 -119 -207 -119zM304 462c-88 0 -153 -67 -153 -157v-7h296v11
c0 91 -58 153 -143 153z" />
    <glyph glyph-name="eogonek" unicode="&#x119;" 
d="M361 -207c-61 0 -109 27 -109 80c0 47 39 86 113 121l-2 3c-13 -5 -34 -9 -61 -9c-138 0 -235 106 -235 270c0 163 97 270 237 270c139 0 229 -106 229 -252v-38h-382v-24c0 -91 61 -157 158 -157c69 0 121 34 148 90l59 -40c-19 -42 -69 -85 -111 -119
c-62 -51 -85 -73 -85 -102c0 -28 21 -37 42 -37c22 0 39 10 52 26l40 -41c-13 -22 -43 -41 -93 -41zM447 298v11c0 91 -58 153 -143 153c-88 0 -153 -67 -153 -157v-7h296z" />
    <glyph glyph-name="uni1EBD" unicode="&#x1ebd;" 
d="M375 612c-35 0 -59 15 -80 26c-32 17 -53 24 -70 24c-22 0 -38 -10 -58 -27l-33 40c18 27 49 53 95 53c35 0 59 -15 80 -26c32 -17 53 -24 70 -24c22 0 38 10 58 27l33 -40c-18 -27 -49 -53 -95 -53zM309 -12c-148 0 -242 106 -242 269c0 165 97 271 237 271
c139 0 229 -106 229 -252v-38h-382v-24c0 -91 61 -157 158 -157c69 0 121 34 148 90l59 -40c-31 -69 -105 -119 -207 -119zM304 462c-88 0 -153 -67 -153 -157v-7h296v11c0 91 -58 153 -143 153z" />
    <glyph glyph-name="uni1EBF" unicode="&#x1ebf;" 
d="M456 712l-49 23l85 170l70 -34zM352 755l110 -144l-44 -30l-117 119l-117 -119l-42 30l110 144h100zM309 -12c-148 0 -242 106 -242 269c0 165 97 271 237 271c139 0 229 -106 229 -252v-38h-382v-24c0 -91 61 -157 158 -157c69 0 121 34 148 90l59 -40
c-31 -69 -105 -119 -207 -119zM304 462c-88 0 -153 -67 -153 -157v-7h296v11c0 91 -58 153 -143 153z" />
    <glyph glyph-name="uni1EC7" unicode="&#x1ec7;" 
d="M309 -172c-41 0 -57 20 -57 46v14c0 26 16 46 57 46s57 -20 57 -46v-14c0 -26 -16 -46 -57 -46zM352 765l111 -143l-45 -31l-117 117l-117 -117l-43 31l111 143h100zM309 -12c-148 0 -242 106 -242 269c0 165 97 271 237 271c139 0 229 -106 229 -252v-38h-382v-24
c0 -91 61 -157 158 -157c69 0 121 34 148 90l59 -40c-31 -69 -105 -119 -207 -119zM304 462c-88 0 -153 -67 -153 -157v-7h296v11c0 91 -58 153 -143 153z" />
    <glyph glyph-name="uni1EC1" unicode="&#x1ec1;" 
d="M42 871l70 34l85 -170l-49 -23zM352 755l110 -144l-44 -30l-117 119l-117 -119l-42 30l110 144h100zM309 -12c-148 0 -242 106 -242 269c0 165 97 271 237 271c139 0 229 -106 229 -252v-38h-382v-24c0 -91 61 -157 158 -157c69 0 121 34 148 90l59 -40
c-31 -69 -105 -119 -207 -119zM304 462c-88 0 -153 -67 -153 -157v-7h296v11c0 91 -58 153 -143 153z" />
    <glyph glyph-name="uni1EC3" unicode="&#x1ec3;" 
d="M355 894h109c51 0 70 -25 70 -55c0 -29 -18 -64 -49 -103l-24 -30l-46 23l58 104h-118v61zM352 755l110 -144l-44 -30l-117 119l-117 -119l-42 30l110 144h100zM309 -12c-148 0 -242 106 -242 269c0 165 97 271 237 271c139 0 229 -106 229 -252v-38h-382v-24
c0 -91 61 -157 158 -157c69 0 121 34 148 90l59 -40c-31 -69 -105 -119 -207 -119zM304 462c-88 0 -153 -67 -153 -157v-7h296v11c0 91 -58 153 -143 153z" />
    <glyph glyph-name="uni1EC5" unicode="&#x1ec5;" 
d="M230 892c35 0 59 -15 80 -26c32 -17 53 -24 70 -24c22 0 38 10 58 27l31 -36c-18 -27 -49 -53 -95 -53c-35 0 -59 15 -80 26c-32 17 -53 24 -70 24c-22 0 -38 -10 -58 -27l-31 36c18 27 49 53 95 53zM352 745l110 -134l-44 -30l-117 111l-117 -111l-42 30l110 134h100z
M309 -12c-148 0 -242 106 -242 269c0 165 97 271 237 271c139 0 229 -106 229 -252v-38h-382v-24c0 -91 61 -157 158 -157c69 0 121 34 148 90l59 -40c-31 -69 -105 -119 -207 -119zM304 462c-88 0 -153 -67 -153 -157v-7h296v11c0 91 -58 153 -143 153z" />
    <glyph glyph-name="uni0259" unicode="&#x259;" 
d="M449 278v24c0 91 -61 157 -158 157c-69 0 -121 -34 -148 -90l-59 40c31 69 105 119 207 119c148 0 242 -106 242 -269c0 -165 -97 -271 -237 -271c-139 0 -229 106 -229 252v38h382zM153 207c0 -91 58 -153 143 -153c88 0 153 67 153 157v7h-296v-11z" />
    <glyph glyph-name="gbreve" unicode="&#x11f;" 
d="M297 595c-107 0 -142 90 -161 151l51 22l21 -34c31 -50 45 -74 89 -74s58 24 89 74l21 34l51 -22c-19 -61 -54 -151 -161 -151zM301 -212c-166 0 -234 46 -234 128c0 55 31 85 84 99v12c-29 14 -46 36 -46 71c0 53 40 77 93 90v4c-63 28 -101 85 -101 158
c0 105 79 178 200 178c29 0 55 -4 78 -12h181v-64h-94c25 -27 36 -64 36 -102c0 -105 -80 -178 -201 -178c-17 0 -33 1 -49 4c-31 -6 -74 -24 -74 -59c0 -31 34 -38 83 -38h114c133 0 190 -54 190 -138c0 -104 -88 -153 -260 -153zM297 234c80 0 117 41 117 102v29
c0 61 -37 101 -117 101c-79 0 -116 -40 -116 -101v-29c0 -61 37 -102 116 -102zM486 -63c0 41 -29 68 -112 68h-179c-34 -14 -52 -37 -52 -70c0 -45 33 -83 117 -83h78c93 0 148 29 148 85z" />
    <glyph glyph-name="gcircumflex" unicode="&#x11d;" 
d="M347 765l111 -143l-45 -31l-117 117l-117 -117l-43 31l111 143h100zM301 -212c-166 0 -234 46 -234 128c0 55 31 85 84 99v12c-29 14 -46 36 -46 71c0 53 40 77 93 90v4c-63 28 -101 85 -101 158c0 105 79 178 200 178c29 0 55 -4 78 -12h181v-64h-94
c25 -27 36 -64 36 -102c0 -105 -80 -178 -201 -178c-17 0 -33 1 -49 4c-31 -6 -74 -24 -74 -59c0 -31 34 -38 83 -38h114c133 0 190 -54 190 -138c0 -104 -88 -153 -260 -153zM297 234c80 0 117 41 117 102v29c0 61 -37 101 -117 101c-79 0 -116 -40 -116 -101v-29
c0 -61 37 -102 116 -102zM486 -63c0 41 -29 68 -112 68h-179c-34 -14 -52 -37 -52 -70c0 -45 33 -83 117 -83h78c93 0 148 29 148 85z" />
    <glyph glyph-name="uni0123" unicode="&#x123;" 
d="M316 776h61l-28 -189h-109zM561 -59c0 -104 -88 -153 -260 -153c-166 0 -234 46 -234 128c0 55 31 85 84 99v12c-29 14 -46 36 -46 71c0 53 40 77 93 90v4c-63 28 -101 85 -101 158c0 105 79 178 200 178c39 0 73 -7 102 -21v9c0 40 17 70 62 70h95v-70h-116v-35
c37 -32 58 -77 58 -131c0 -105 -80 -178 -201 -178c-17 0 -33 1 -49 4c-31 -6 -74 -24 -74 -59c0 -31 34 -38 83 -38h114c133 0 190 -54 190 -138zM486 -63c0 41 -29 68 -112 68h-179c-34 -14 -52 -37 -52 -70c0 -45 33 -83 117 -83h78c93 0 148 29 148 85zM297 234
c80 0 117 41 117 102v29c0 61 -37 101 -117 101c-79 0 -116 -40 -116 -101v-29c0 -61 37 -102 116 -102z" />
    <glyph glyph-name="gdotaccent" unicode="&#x121;" 
d="M297 612c-46 0 -63 22 -63 51v16c0 29 17 51 63 51s63 -22 63 -51v-16c0 -29 -17 -51 -63 -51zM561 -59c0 -104 -88 -153 -260 -153c-166 0 -234 46 -234 128c0 55 31 85 84 99v12c-29 14 -46 36 -46 71c0 53 40 77 93 90v4c-63 28 -101 85 -101 158
c0 105 79 178 200 178c39 0 73 -7 102 -21v9c0 40 17 70 62 70h95v-70h-116v-35c37 -32 58 -77 58 -131c0 -105 -80 -178 -201 -178c-17 0 -33 1 -49 4c-31 -6 -74 -24 -74 -59c0 -31 34 -38 83 -38h114c133 0 190 -54 190 -138zM486 -63c0 41 -29 68 -112 68h-179
c-34 -14 -52 -37 -52 -70c0 -45 33 -83 117 -83h78c93 0 148 29 148 85zM297 234c80 0 117 41 117 102v29c0 61 -37 101 -117 101c-79 0 -116 -40 -116 -101v-29c0 -61 37 -102 116 -102z" />
    <glyph glyph-name="gbreve.alt01" 
d="M287 595c-107 0 -142 90 -161 151l51 22l21 -34c31 -50 45 -74 89 -74s58 24 89 74l21 34l51 -22c-19 -61 -54 -151 -161 -151zM505 17c0 -142 -83 -229 -227 -229c-84 0 -144 29 -185 71l47 55c35 -36 80 -56 139 -56c97 0 146 52 146 154v86h-4
c-33 -63 -87 -96 -159 -96c-126 0 -202 101 -202 263s76 263 202 263c72 0 126 -33 159 -96h4v84h80v-499zM293 73c71 0 132 37 132 106v172c0 69 -61 106 -132 106c-93 0 -147 -62 -147 -155v-74c0 -93 54 -155 147 -155z" />
    <glyph glyph-name="gcircumflex.alt01" 
d="M337 765l111 -143l-45 -31l-117 117l-117 -117l-43 31l111 143h100zM505 17c0 -142 -83 -229 -227 -229c-84 0 -144 29 -185 71l47 55c35 -36 80 -56 139 -56c97 0 146 52 146 154v86h-4c-33 -63 -87 -96 -159 -96c-126 0 -202 101 -202 263s76 263 202 263
c72 0 126 -33 159 -96h4v84h80v-499zM293 73c71 0 132 37 132 106v172c0 69 -61 106 -132 106c-93 0 -147 -62 -147 -155v-74c0 -93 54 -155 147 -155z" />
    <glyph glyph-name="uni0123.alt01" 
d="M306 776h61l-28 -189h-109zM505 17c0 -142 -83 -229 -227 -229c-84 0 -144 29 -185 71l47 55c35 -36 80 -56 139 -56c97 0 146 52 146 154v86h-4c-33 -63 -87 -96 -159 -96c-126 0 -202 101 -202 263s76 263 202 263c72 0 126 -33 159 -96h4v84h80v-499zM293 73
c71 0 132 37 132 106v172c0 69 -61 106 -132 106c-93 0 -147 -62 -147 -155v-74c0 -93 54 -155 147 -155z" />
    <glyph glyph-name="gdotaccent.alt01" 
d="M287 612c-46 0 -63 22 -63 51v16c0 29 17 51 63 51s63 -22 63 -51v-16c0 -29 -17 -51 -63 -51zM505 17c0 -142 -83 -229 -227 -229c-84 0 -144 29 -185 71l47 55c35 -36 80 -56 139 -56c97 0 146 52 146 154v86h-4c-33 -63 -87 -96 -159 -96c-126 0 -202 101 -202 263
s76 263 202 263c72 0 126 -33 159 -96h4v84h80v-499zM293 73c71 0 132 37 132 106v172c0 69 -61 106 -132 106c-93 0 -147 -62 -147 -155v-74c0 -93 54 -155 147 -155z" />
    <glyph glyph-name="hbar" unicode="&#x127;" 
d="M98 0v608h-65v62h65v70h80v-70h153v-62h-153v-176h4c22 51 62 96 147 96c108 0 179 -72 179 -197v-331h-80v317c0 94 -43 140 -122 140c-64 0 -128 -31 -128 -99v-358h-80z" />
    <glyph glyph-name="hcircumflex" unicode="&#x125;" 
d="M188 947l111 -143l-45 -31l-117 117l-117 -117l-43 31l111 143h100zM98 740h80v-308h4c22 51 62 96 147 96c108 0 179 -72 179 -197v-331h-80v317c0 94 -43 140 -122 140c-64 0 -128 -31 -128 -99v-358h-80v740z" />
    <glyph glyph-name="dotlessi" unicode="&#x131;" 
d="M106 68h186v380h-186v68h266v-448h174v-68h-440v68z" />
    <glyph glyph-name="iacute" unicode="&#xed;" 
d="M339 585l-52 24l85 170l73 -35zM106 68h186v380h-186v68h266v-448h174v-68h-440v68z" />
    <glyph glyph-name="ibreve" unicode="&#x12d;" 
d="M332 595c-107 0 -142 90 -161 151l51 22l21 -34c31 -50 45 -74 89 -74s58 24 89 74l21 34l51 -22c-19 -61 -54 -151 -161 -151zM106 68h186v380h-186v68h266v-448h174v-68h-440v68z" />
    <glyph glyph-name="icircumflex" unicode="&#xee;" 
d="M382 765l111 -143l-45 -31l-117 117l-117 -117l-43 31l111 143h100zM106 68h186v380h-186v68h266v-448h174v-68h-440v68z" />
    <glyph glyph-name="idieresis" unicode="&#xef;" 
d="M239 618c-41 0 -57 20 -57 46v14c0 26 16 46 57 46s57 -20 57 -46v-14c0 -26 -16 -46 -57 -46zM425 618c-41 0 -57 20 -57 46v14c0 26 16 46 57 46s57 -20 57 -46v-14c0 -26 -16 -46 -57 -46zM106 68h186v380h-186v68h266v-448h174v-68h-440v68z" />
    <glyph glyph-name="uni1ECB" unicode="&#x1ecb;" 
d="M332 -172c-41 0 -57 20 -57 46v14c0 26 16 46 57 46s57 -20 57 -46v-14c0 -26 -16 -46 -57 -46zM332 630c-46 0 -63 22 -63 51v16c0 29 17 51 63 51s63 -22 63 -51v-16c0 -29 -17 -51 -63 -51zM106 68h186v380h-186v68h266v-448h174v-68h-440v68z" />
    <glyph glyph-name="igrave" unicode="&#xec;" 
d="M219 744l73 35l85 -170l-52 -24zM106 68h186v380h-186v68h266v-448h174v-68h-440v68z" />
    <glyph glyph-name="uni1EC9" unicode="&#x1ec9;" 
d="M248 765h109c51 0 70 -25 70 -55c0 -29 -18 -64 -49 -103l-24 -30l-46 23l58 104h-118v61zM106 68h186v380h-186v68h266v-448h174v-68h-440v68z" />
    <glyph glyph-name="imacron" unicode="&#x12b;" 
d="M192 705h280v-68h-280v68zM106 68h186v380h-186v68h266v-448h174v-68h-440v68z" />
    <glyph glyph-name="iogonek" unicode="&#x12f;" 
d="M474 -207c-61 0 -109 27 -109 80c0 48 40 88 115 124l-1 3h-373v68h186v380h-186v68h266v-448h174v-68c-103 -65 -113 -94 -113 -114c0 -28 21 -37 42 -37c22 0 39 10 52 26l40 -41c-13 -22 -43 -41 -93 -41zM332 630c-46 0 -63 22 -63 51v16c0 29 17 51 63 51
s63 -22 63 -51v-16c0 -29 -17 -51 -63 -51z" />
    <glyph glyph-name="itilde" unicode="&#x129;" 
d="M405 612c-35 0 -59 15 -80 26c-32 17 -53 24 -70 24c-22 0 -38 -10 -58 -27l-33 40c18 27 49 53 95 53c35 0 59 -15 80 -26c32 -17 53 -24 70 -24c22 0 38 10 58 27l33 -40c-18 -27 -49 -53 -95 -53zM106 68h186v380h-186v68h266v-448h174v-68h-440v68z" />
    <glyph glyph-name="ij" unicode="&#x133;" 
d="M105 516h80v-516h-80v516zM185 -132h230v648h80v-598c0 -69 -36 -118 -114 -118h-196v68zM145 630c-46 0 -63 22 -63 51v16c0 29 17 51 63 51s63 -22 63 -51v-16c0 -29 -17 -51 -63 -51zM455 630c-46 0 -63 22 -63 51v16c0 29 17 51 63 51s63 -22 63 -51v-16
c0 -29 -17 -51 -63 -51z" />
    <glyph glyph-name="ijacute" 
d="M105 516h80v-516h-80v516zM185 -132h230v648h80v-598c0 -69 -36 -118 -114 -118h-196v68zM100 609l85 170l73 -35l-106 -159zM410 609l85 170l73 -35l-106 -159z" />
    <glyph glyph-name="uni0237" unicode="&#x237;" 
d="M102 -132h250v580h-259v68h339v-598c0 -69 -36 -118 -114 -118h-216v68z" />
    <glyph glyph-name="uni006A0301" 
d="M399 585l-52 24l85 170l73 -35zM102 -132h250v580h-259v68h339v-598c0 -69 -36 -118 -114 -118h-216v68z" />
    <glyph glyph-name="jcircumflex" unicode="&#x135;" 
d="M442 765l111 -143l-45 -31l-117 117l-117 -117l-43 31l111 143h100zM102 -132h250v580h-259v68h339v-598c0 -69 -36 -118 -114 -118h-216v68z" />
    <glyph glyph-name="uni0137" unicode="&#x137;" 
d="M271 -62h109l-76 -189h-61zM105 740h80v-467h4l90 85l172 158h98l-214 -202l239 -314h-99l-201 268l-89 -81v-187h-80v740z" />
    <glyph glyph-name="kgreenlandic" unicode="&#x138;" 
d="M283 253l-97 -88v-165h-80v516h80v-261h4l95 93l170 168h98l-214 -210l239 -306h-99z" />
    <glyph glyph-name="lacute" unicode="&#x13a;" 
d="M307 767l-52 24l85 170l73 -35zM80 68h180v604h-180v68h260v-672h180v-68h-440v68z" />
    <glyph glyph-name="lcaron" unicode="&#x13e;" 
d="M487 551h-61l7 189h103zM80 68h180v604h-180v68h260v-672h180v-68h-440v68z" />
    <glyph glyph-name="uni013C" unicode="&#x13c;" 
d="M248 -62h109l-76 -189h-61zM80 68h180v604h-180v68h260v-672h180v-68h-440v68z" />
    <glyph glyph-name="ldot" unicode="&#x140;" 
d="M514 246c-46 0 -63 22 -63 51v16c0 29 17 51 63 51s63 -22 63 -51v-16c0 -29 -17 -51 -63 -51zM80 68h180v604h-180v68h260v-672h180v-68h-440v68z" />
    <glyph glyph-name="lslash" unicode="&#x142;" 
d="M80 68h180v220l-153 -50v67l153 50v317h-180v68h260v-362l153 50v-67l-153 -50v-243h180v-68h-440v68z" />
    <glyph glyph-name="nacute" unicode="&#x144;" 
d="M310 585l-52 24l85 170l73 -35zM98 0v516h80v-84h4c22 51 62 96 147 96c108 0 179 -72 179 -197v-331h-80v317c0 94 -43 140 -122 140c-64 0 -128 -31 -128 -99v-358h-80z" />
    <glyph glyph-name="ncaron" unicode="&#x148;" 
d="M253 599l-111 143l46 31l117 -117l117 117l42 -31l-111 -143h-100zM98 0v516h80v-84h4c22 51 62 96 147 96c108 0 179 -72 179 -197v-331h-80v317c0 94 -43 140 -122 140c-64 0 -128 -31 -128 -99v-358h-80z" />
    <glyph glyph-name="uni0146" unicode="&#x146;" 
d="M251 -62h109l-76 -189h-61zM98 0v516h80v-84h4c22 51 62 96 147 96c108 0 179 -72 179 -197v-331h-80v317c0 94 -43 140 -122 140c-64 0 -128 -31 -128 -99v-358h-80z" />
    <glyph glyph-name="ntilde" unicode="&#xf1;" 
d="M376 612c-35 0 -59 15 -80 26c-32 17 -53 24 -70 24c-22 0 -38 -10 -58 -27l-33 40c18 27 49 53 95 53c35 0 59 -15 80 -26c32 -17 53 -24 70 -24c22 0 38 10 58 27l33 -40c-18 -27 -49 -53 -95 -53zM98 0v516h80v-84h4c22 51 62 96 147 96c108 0 179 -72 179 -197v-331
h-80v317c0 94 -43 140 -122 140c-64 0 -128 -31 -128 -99v-358h-80z" />
    <glyph glyph-name="napostrophe" unicode="&#x149;" 
d="M98 516h80v-84h4c22 51 62 96 147 96c108 0 179 -72 179 -197v-331h-80v317c0 94 -43 140 -122 140c-64 0 -128 -31 -128 -99v-358h-80v516zM12 740h93l-52 -185h-53z" />
    <glyph glyph-name="eng" unicode="&#x14b;" 
d="M178 -132h250v449c0 94 -43 140 -122 140c-64 0 -128 -31 -128 -99v-358h-80v516h80v-84h4c22 51 62 96 147 96c108 0 179 -72 179 -197v-413c0 -69 -36 -118 -114 -118h-216v68z" />
    <glyph glyph-name="oacute" unicode="&#xf3;" 
d="M307 585l-52 24l85 170l73 -35zM300 -12c-145 0 -234 106 -234 270s89 270 234 270s234 -106 234 -270s-89 -270 -234 -270zM300 57c89 0 149 53 149 164v74c0 111 -60 164 -149 164s-149 -53 -149 -164v-74c0 -111 60 -164 149 -164z" />
    <glyph glyph-name="obreve" unicode="&#x14f;" 
d="M300 595c-107 0 -142 90 -161 151l51 22l21 -34c31 -50 45 -74 89 -74s58 24 89 74l21 34l51 -22c-19 -61 -54 -151 -161 -151zM300 -12c-145 0 -234 106 -234 270s89 270 234 270s234 -106 234 -270s-89 -270 -234 -270zM300 57c89 0 149 53 149 164v74
c0 111 -60 164 -149 164s-149 -53 -149 -164v-74c0 -111 60 -164 149 -164z" />
    <glyph glyph-name="ocircumflex" unicode="&#xf4;" 
d="M350 765l111 -143l-45 -31l-117 117l-117 -117l-43 31l111 143h100zM300 -12c-145 0 -234 106 -234 270s89 270 234 270s234 -106 234 -270s-89 -270 -234 -270zM300 57c89 0 149 53 149 164v74c0 111 -60 164 -149 164s-149 -53 -149 -164v-74c0 -111 60 -164 149 -164z
" />
    <glyph glyph-name="odieresis" unicode="&#xf6;" 
d="M207 618c-41 0 -57 20 -57 46v14c0 26 16 46 57 46s57 -20 57 -46v-14c0 -26 -16 -46 -57 -46zM393 618c-41 0 -57 20 -57 46v14c0 26 16 46 57 46s57 -20 57 -46v-14c0 -26 -16 -46 -57 -46zM300 -12c-145 0 -234 106 -234 270s89 270 234 270s234 -106 234 -270
s-89 -270 -234 -270zM300 57c89 0 149 53 149 164v74c0 111 -60 164 -149 164s-149 -53 -149 -164v-74c0 -111 60 -164 149 -164z" />
    <glyph glyph-name="uni1ECD" unicode="&#x1ecd;" 
d="M300 -172c-41 0 -57 20 -57 46v14c0 26 16 46 57 46s57 -20 57 -46v-14c0 -26 -16 -46 -57 -46zM300 -12c-145 0 -234 106 -234 270s89 270 234 270s234 -106 234 -270s-89 -270 -234 -270zM300 57c89 0 149 53 149 164v74c0 111 -60 164 -149 164s-149 -53 -149 -164
v-74c0 -111 60 -164 149 -164z" />
    <glyph glyph-name="ograve" unicode="&#xf2;" 
d="M187 744l73 35l85 -170l-52 -24zM300 -12c-145 0 -234 106 -234 270s89 270 234 270s234 -106 234 -270s-89 -270 -234 -270zM300 57c89 0 149 53 149 164v74c0 111 -60 164 -149 164s-149 -53 -149 -164v-74c0 -111 60 -164 149 -164z" />
    <glyph glyph-name="uni1ECF" unicode="&#x1ecf;" 
d="M216 765h109c51 0 70 -25 70 -55c0 -29 -18 -64 -49 -103l-24 -30l-46 23l58 104h-118v61zM300 -12c-145 0 -234 106 -234 270s89 270 234 270s234 -106 234 -270s-89 -270 -234 -270zM300 57c89 0 149 53 149 164v74c0 111 -60 164 -149 164s-149 -53 -149 -164v-74
c0 -111 60 -164 149 -164z" />
    <glyph glyph-name="ohungarumlaut" unicode="&#x151;" 
d="M227 586l-48 22l85 170l69 -33zM387 586l-48 22l85 170l69 -33zM300 -12c-145 0 -234 106 -234 270s89 270 234 270s234 -106 234 -270s-89 -270 -234 -270zM300 57c89 0 149 53 149 164v74c0 111 -60 164 -149 164s-149 -53 -149 -164v-74c0 -111 60 -164 149 -164z" />
    <glyph glyph-name="omacron" unicode="&#x14d;" 
d="M160 705h280v-68h-280v68zM300 -12c-145 0 -234 106 -234 270s89 270 234 270s234 -106 234 -270s-89 -270 -234 -270zM300 57c89 0 149 53 149 164v74c0 111 -60 164 -149 164s-149 -53 -149 -164v-74c0 -111 60 -164 149 -164z" />
    <glyph glyph-name="oslash" unicode="&#xf8;" 
d="M47 -6l69 84c-32 46 -50 108 -50 180c0 164 89 270 234 270c58 0 107 -18 145 -49l63 77l45 -34l-69 -84c32 -46 50 -108 50 -180c0 -164 -89 -270 -234 -270c-58 0 -107 18 -145 49l-63 -77zM300 459c-89 0 -149 -53 -149 -164v-74c0 -32 5 -61 15 -83l235 287
c-25 23 -60 34 -101 34zM300 57c89 0 149 53 149 164v74c0 32 -5 61 -15 83l-235 -287c25 -23 60 -34 101 -34z" />
    <glyph glyph-name="oslashacute" unicode="&#x1ff;" 
d="M307 585l-52 24l85 170l73 -35zM47 -6l69 84c-32 46 -50 108 -50 180c0 164 89 270 234 270c58 0 107 -18 145 -49l63 77l45 -34l-69 -84c32 -46 50 -108 50 -180c0 -164 -89 -270 -234 -270c-58 0 -107 18 -145 49l-63 -77zM300 459c-89 0 -149 -53 -149 -164v-74
c0 -32 5 -61 15 -83l235 287c-25 23 -60 34 -101 34zM300 57c89 0 149 53 149 164v74c0 32 -5 61 -15 83l-235 -287c25 -23 60 -34 101 -34z" />
    <glyph glyph-name="otilde" unicode="&#xf5;" 
d="M373 612c-35 0 -59 15 -80 26c-32 17 -53 24 -70 24c-22 0 -38 -10 -58 -27l-33 40c18 27 49 53 95 53c35 0 59 -15 80 -26c32 -17 53 -24 70 -24c22 0 38 10 58 27l33 -40c-18 -27 -49 -53 -95 -53zM300 -12c-145 0 -234 106 -234 270s89 270 234 270s234 -106 234 -270
s-89 -270 -234 -270zM300 57c89 0 149 53 149 164v74c0 111 -60 164 -149 164s-149 -53 -149 -164v-74c0 -111 60 -164 149 -164z" />
    <glyph glyph-name="ohorn" unicode="&#x1a1;" 
d="M540 628v-100c0 -33 -13 -61 -63 -61h-22c51 -47 79 -119 79 -209c0 -164 -89 -270 -234 -270s-234 106 -234 270s89 270 234 270c28 0 55 -4 79 -12h90v112h71zM300 57c89 0 149 53 149 164v74c0 111 -60 164 -149 164s-149 -53 -149 -164v-74c0 -111 60 -164 149 -164z
" />
    <glyph glyph-name="uni1EDB" unicode="&#x1edb;" 
d="M307 585l-52 24l85 170l73 -35zM540 628v-100c0 -33 -13 -61 -63 -61h-22c51 -47 79 -119 79 -209c0 -164 -89 -270 -234 -270s-234 106 -234 270s89 270 234 270c28 0 55 -4 79 -12h90v112h71zM300 57c89 0 149 53 149 164v74c0 111 -60 164 -149 164
s-149 -53 -149 -164v-74c0 -111 60 -164 149 -164z" />
    <glyph glyph-name="uni1EE3" unicode="&#x1ee3;" 
d="M300 -172c-41 0 -57 20 -57 46v14c0 26 16 46 57 46s57 -20 57 -46v-14c0 -26 -16 -46 -57 -46zM540 628v-100c0 -33 -13 -61 -63 -61h-22c51 -47 79 -119 79 -209c0 -164 -89 -270 -234 -270s-234 106 -234 270s89 270 234 270c28 0 55 -4 79 -12h90v112h71zM300 57
c89 0 149 53 149 164v74c0 111 -60 164 -149 164s-149 -53 -149 -164v-74c0 -111 60 -164 149 -164z" />
    <glyph glyph-name="uni1EDD" unicode="&#x1edd;" 
d="M187 744l73 35l85 -170l-52 -24zM540 628v-100c0 -33 -13 -61 -63 -61h-22c51 -47 79 -119 79 -209c0 -164 -89 -270 -234 -270s-234 106 -234 270s89 270 234 270c28 0 55 -4 79 -12h90v112h71zM300 57c89 0 149 53 149 164v74c0 111 -60 164 -149 164
s-149 -53 -149 -164v-74c0 -111 60 -164 149 -164z" />
    <glyph glyph-name="uni1EDF" unicode="&#x1edf;" 
d="M216 765h109c51 0 70 -25 70 -55c0 -29 -18 -64 -49 -103l-24 -30l-46 23l58 104h-118v61zM540 628v-100c0 -33 -13 -61 -63 -61h-22c51 -47 79 -119 79 -209c0 -164 -89 -270 -234 -270s-234 106 -234 270s89 270 234 270c28 0 55 -4 79 -12h90v112h71zM300 57
c89 0 149 53 149 164v74c0 111 -60 164 -149 164s-149 -53 -149 -164v-74c0 -111 60 -164 149 -164z" />
    <glyph glyph-name="uni1EE1" unicode="&#x1ee1;" 
d="M363 616c-31 0 -52 13 -70 22c-25 13 -39 20 -57 20c-21 0 -38 -10 -57 -27l-33 40c18 27 48 53 91 53c31 0 52 -13 70 -22c25 -13 39 -20 57 -20c21 0 38 10 57 27l33 -40c-18 -27 -48 -53 -91 -53zM540 628v-100c0 -33 -13 -61 -63 -61h-22c51 -47 79 -119 79 -209
c0 -164 -89 -270 -234 -270s-234 106 -234 270s89 270 234 270c28 0 55 -4 79 -12h90v112h71zM300 57c89 0 149 53 149 164v74c0 111 -60 164 -149 164s-149 -53 -149 -164v-74c0 -111 60 -164 149 -164z" />
    <glyph glyph-name="uni1ED1" unicode="&#x1ed1;" 
d="M454 712l-49 23l85 170l70 -34zM350 755l110 -144l-44 -30l-117 119l-117 -119l-42 30l110 144h100zM300 -12c-145 0 -234 106 -234 270s89 270 234 270s234 -106 234 -270s-89 -270 -234 -270zM300 57c89 0 149 53 149 164v74c0 111 -60 164 -149 164
s-149 -53 -149 -164v-74c0 -111 60 -164 149 -164z" />
    <glyph glyph-name="uni1ED9" unicode="&#x1ed9;" 
d="M300 -172c-41 0 -57 20 -57 46v14c0 26 16 46 57 46s57 -20 57 -46v-14c0 -26 -16 -46 -57 -46zM350 765l111 -143l-45 -31l-117 117l-117 -117l-43 31l111 143h100zM300 -12c-145 0 -234 106 -234 270s89 270 234 270s234 -106 234 -270s-89 -270 -234 -270zM300 57
c89 0 149 53 149 164v74c0 111 -60 164 -149 164s-149 -53 -149 -164v-74c0 -111 60 -164 149 -164z" />
    <glyph glyph-name="uni1ED3" unicode="&#x1ed3;" 
d="M40 871l70 34l85 -170l-49 -23zM350 755l110 -144l-44 -30l-117 119l-117 -119l-42 30l110 144h100zM300 -12c-145 0 -234 106 -234 270s89 270 234 270s234 -106 234 -270s-89 -270 -234 -270zM300 57c89 0 149 53 149 164v74c0 111 -60 164 -149 164
s-149 -53 -149 -164v-74c0 -111 60 -164 149 -164z" />
    <glyph glyph-name="uni1ED5" unicode="&#x1ed5;" 
d="M353 894h109c51 0 70 -25 70 -55c0 -29 -18 -64 -49 -103l-24 -30l-46 23l58 104h-118v61zM350 755l110 -144l-44 -30l-117 119l-117 -119l-42 30l110 144h100zM300 -12c-145 0 -234 106 -234 270s89 270 234 270s234 -106 234 -270s-89 -270 -234 -270zM300 57
c89 0 149 53 149 164v74c0 111 -60 164 -149 164s-149 -53 -149 -164v-74c0 -111 60 -164 149 -164z" />
    <glyph glyph-name="uni1ED7" unicode="&#x1ed7;" 
d="M228 892c35 0 59 -15 80 -26c32 -17 53 -24 70 -24c22 0 38 10 58 27l31 -36c-18 -27 -49 -53 -95 -53c-35 0 -59 15 -80 26c-32 17 -53 24 -70 24c-22 0 -38 -10 -58 -27l-31 36c18 27 49 53 95 53zM350 745l110 -134l-44 -30l-117 111l-117 -111l-42 30l110 134h100z
M300 -12c-145 0 -234 106 -234 270s89 270 234 270s234 -106 234 -270s-89 -270 -234 -270zM300 57c89 0 149 53 149 164v74c0 111 -60 164 -149 164s-149 -53 -149 -164v-74c0 -111 60 -164 149 -164z" />
    <glyph glyph-name="oe" unicode="&#x153;" 
d="M428 -12c-58 0 -102 31 -132 85h-3c-26 -55 -66 -85 -123 -85c-106 0 -156 106 -156 270s50 270 156 270c60 0 102 -34 129 -94h3c28 60 73 94 131 94c90 0 149 -92 149 -239v-51h-248v-25c0 -94 33 -161 96 -161c47 0 71 44 86 89l58 -27c-19 -61 -67 -126 -146 -126z
M176 48c53 0 85 42 85 157v106c0 115 -32 157 -85 157s-85 -42 -85 -157v-106c0 -115 32 -157 85 -157zM516 295v12c0 93 -35 163 -86 163c-57 0 -96 -70 -96 -163v-12h182z" />
    <glyph glyph-name="racute" unicode="&#x155;" 
d="M360 585l-52 24l85 170l73 -35zM77 68h151v380h-151v68h231v-92h5c20 49 69 92 155 92h91v-80h-107c-90 0 -144 -36 -144 -85v-283h200v-68h-431v68z" />
    <glyph glyph-name="rcaron" unicode="&#x159;" 
d="M303 599l-111 143l46 31l117 -117l117 117l42 -31l-111 -143h-100zM77 68h151v380h-151v68h231v-92h5c20 49 69 92 155 92h91v-80h-107c-90 0 -144 -36 -144 -85v-283h200v-68h-431v68z" />
    <glyph glyph-name="uni0157" unicode="&#x157;" 
d="M216 -62h109l-76 -189h-61zM77 68h151v380h-151v68h231v-92h5c20 49 69 92 155 92h91v-80h-107c-90 0 -144 -36 -144 -85v-283h200v-68h-431v68z" />
    <glyph glyph-name="sacute" unicode="&#x15b;" 
d="M305 585l-52 24l85 170l73 -35zM306 -12c-108 0 -185 40 -239 101l54 47c49 -52 105 -81 187 -81c80 0 137 28 137 89c0 54 -44 68 -91 75l-81 12c-73 11 -177 31 -177 143c0 103 88 154 208 154c93 0 161 -31 210 -83l-52 -49c-24 29 -70 65 -161 65
c-81 0 -126 -29 -126 -82c0 -54 45 -68 91 -75l81 -12c74 -11 177 -31 177 -143c0 -102 -86 -161 -218 -161z" />
    <glyph glyph-name="scaron" unicode="&#x161;" 
d="M248 599l-111 143l46 31l117 -117l117 117l42 -31l-111 -143h-100zM306 -12c-108 0 -185 40 -239 101l54 47c49 -52 105 -81 187 -81c80 0 137 28 137 89c0 54 -44 68 -91 75l-81 12c-73 11 -177 31 -177 143c0 103 88 154 208 154c93 0 161 -31 210 -83l-52 -49
c-24 29 -70 65 -161 65c-81 0 -126 -29 -126 -82c0 -54 45 -68 91 -75l81 -12c74 -11 177 -31 177 -143c0 -102 -86 -161 -218 -161z" />
    <glyph glyph-name="scedilla" unicode="&#x15f;" 
d="M310 -207c-54 0 -85 22 -99 41l38 41c12 -15 32 -28 61 -28c25 0 44 10 44 31c0 18 -12 33 -68 41l-28 4l13 67c-90 7 -156 45 -204 99l54 47c49 -52 105 -81 187 -81c80 0 137 28 137 89c0 54 -44 68 -91 75l-81 12c-73 11 -177 31 -177 143c0 103 88 154 208 154
c93 0 161 -31 210 -83l-52 -49c-24 29 -70 65 -161 65c-81 0 -126 -29 -126 -82c0 -54 45 -68 91 -75l81 -12c74 -11 177 -31 177 -143c0 -98 -80 -157 -204 -161l-9 -49l3 -3c13 4 27 6 39 6c39 0 68 -23 68 -66c0 -57 -52 -83 -111 -83z" />
    <glyph glyph-name="scircumflex" unicode="&#x15d;" 
d="M348 765l111 -143l-45 -31l-117 117l-117 -117l-43 31l111 143h100zM306 -12c-108 0 -185 40 -239 101l54 47c49 -52 105 -81 187 -81c80 0 137 28 137 89c0 54 -44 68 -91 75l-81 12c-73 11 -177 31 -177 143c0 103 88 154 208 154c93 0 161 -31 210 -83l-52 -49
c-24 29 -70 65 -161 65c-81 0 -126 -29 -126 -82c0 -54 45 -68 91 -75l81 -12c74 -11 177 -31 177 -143c0 -102 -86 -161 -218 -161z" />
    <glyph glyph-name="uni0219" unicode="&#x219;" 
d="M242 -62h109l-76 -189h-61zM306 -12c-108 0 -185 40 -239 101l54 47c49 -52 105 -81 187 -81c80 0 137 28 137 89c0 54 -44 68 -91 75l-81 12c-73 11 -177 31 -177 143c0 103 88 154 208 154c93 0 161 -31 210 -83l-52 -49c-24 29 -70 65 -161 65
c-81 0 -126 -29 -126 -82c0 -54 45 -68 91 -75l81 -12c74 -11 177 -31 177 -143c0 -102 -86 -161 -218 -161z" />
    <glyph glyph-name="germandbls" unicode="&#xdf;" 
d="M102 448h-74v68h74v5c0 140 75 231 204 231c128 0 198 -91 198 -231v-61h-47c-80 0 -124 -23 -124 -83c0 -48 29 -62 77 -78l24 -8c94 -31 138 -67 138 -151c0 -102 -65 -152 -172 -152c-73 0 -124 23 -166 76l51 46c31 -42 71 -58 120 -58c60 0 92 24 92 80
c0 37 -14 72 -68 89l-25 8c-75 24 -146 47 -146 145c0 93 65 144 168 146v8c0 107 -38 157 -121 157c-84 0 -124 -52 -124 -157v-528h-79v448z" />
    <glyph glyph-name="germandbls.alt01" 
d="M102 0v622c0 69 36 118 114 118h137v-69h-171v-155h343v-79l-173 -225c137 -9 220 -72 220 -198c0 -139 -102 -214 -262 -214h-66v68h66c119 0 177 41 177 135v25c0 89 -60 124 -195 124h-16v68l176 228h-270v-448h-80z" />
    <glyph glyph-name="tbar" unicode="&#x167;" 
d="M524 0h-199c-78 0 -114 49 -114 118v129h-109v62h109v139h-172v68h128c34 0 47 12 47 47v135h77v-182h235v-68h-235v-139h173v-62h-173v-179h233v-68z" />
    <glyph glyph-name="tcaron" unicode="&#x165;" 
d="M448 571h-61l7 189h103zM325 0c-78 0 -114 49 -114 118v330h-172v68h128c34 0 47 12 47 47v135h77v-182h235v-68h-235v-380h235v-68h-201z" />
    <glyph glyph-name="uni0163" unicode="&#x163;" 
d="M323 -62h109l-76 -189h-61zM325 0c-78 0 -114 49 -114 118v330h-172v68h128c34 0 47 12 47 47v135h77v-182h235v-68h-235v-380h235v-68h-201z" />
    <glyph glyph-name="uni021B" unicode="&#x21b;" 
d="M323 -62h109l-76 -189h-61zM325 0c-78 0 -114 49 -114 118v330h-172v68h128c34 0 47 12 47 47v135h77v-182h235v-68h-235v-380h235v-68h-201z" />
    <glyph glyph-name="thorn" unicode="&#xfe;" 
d="M95 740h80v-308h4c33 63 87 96 159 96c126 0 202 -101 202 -270s-76 -270 -202 -270c-72 0 -126 33 -159 96h-4v-284h-80v940zM307 59c93 0 147 62 147 155v88c0 93 -54 155 -147 155c-71 0 -132 -37 -132 -106v-186c0 -69 61 -106 132 -106z" />
    <glyph glyph-name="uacute" unicode="&#xfa;" 
d="M304 585l-52 24l85 170l73 -35zM422 84h-4c-22 -51 -62 -96 -147 -96c-108 0 -179 72 -179 197v331h80v-317c0 -94 43 -140 122 -140c64 0 128 31 128 99v358h80v-516h-80v84z" />
    <glyph glyph-name="ubreve" unicode="&#x16d;" 
d="M297 595c-107 0 -142 90 -161 151l51 22l21 -34c31 -50 45 -74 89 -74s58 24 89 74l21 34l51 -22c-19 -61 -54 -151 -161 -151zM422 84h-4c-22 -51 -62 -96 -147 -96c-108 0 -179 72 -179 197v331h80v-317c0 -94 43 -140 122 -140c64 0 128 31 128 99v358h80v-516h-80v84
z" />
    <glyph glyph-name="ucircumflex" unicode="&#xfb;" 
d="M347 765l111 -143l-45 -31l-117 117l-117 -117l-43 31l111 143h100zM422 84h-4c-22 -51 -62 -96 -147 -96c-108 0 -179 72 -179 197v331h80v-317c0 -94 43 -140 122 -140c64 0 128 31 128 99v358h80v-516h-80v84z" />
    <glyph glyph-name="udieresis" unicode="&#xfc;" 
d="M204 618c-41 0 -57 20 -57 46v14c0 26 16 46 57 46s57 -20 57 -46v-14c0 -26 -16 -46 -57 -46zM390 618c-41 0 -57 20 -57 46v14c0 26 16 46 57 46s57 -20 57 -46v-14c0 -26 -16 -46 -57 -46zM422 84h-4c-22 -51 -62 -96 -147 -96c-108 0 -179 72 -179 197v331h80v-317
c0 -94 43 -140 122 -140c64 0 128 31 128 99v358h80v-516h-80v84z" />
    <glyph glyph-name="uni1EE5" unicode="&#x1ee5;" 
d="M297 -172c-41 0 -57 20 -57 46v14c0 26 16 46 57 46s57 -20 57 -46v-14c0 -26 -16 -46 -57 -46zM422 84h-4c-22 -51 -62 -96 -147 -96c-108 0 -179 72 -179 197v331h80v-317c0 -94 43 -140 122 -140c64 0 128 31 128 99v358h80v-516h-80v84z" />
    <glyph glyph-name="ugrave" unicode="&#xf9;" 
d="M184 744l73 35l85 -170l-52 -24zM422 84h-4c-22 -51 -62 -96 -147 -96c-108 0 -179 72 -179 197v331h80v-317c0 -94 43 -140 122 -140c64 0 128 31 128 99v358h80v-516h-80v84z" />
    <glyph glyph-name="uni1EE7" unicode="&#x1ee7;" 
d="M213 765h109c51 0 70 -25 70 -55c0 -29 -18 -64 -49 -103l-24 -30l-46 23l58 104h-118v61zM422 84h-4c-22 -51 -62 -96 -147 -96c-108 0 -179 72 -179 197v331h80v-317c0 -94 43 -140 122 -140c64 0 128 31 128 99v358h80v-516h-80v84z" />
    <glyph glyph-name="uhungarumlaut" unicode="&#x171;" 
d="M224 586l-48 22l85 170l69 -33zM384 586l-48 22l85 170l69 -33zM422 84h-4c-22 -51 -62 -96 -147 -96c-108 0 -179 72 -179 197v331h80v-317c0 -94 43 -140 122 -140c64 0 128 31 128 99v358h80v-516h-80v84z" />
    <glyph glyph-name="umacron" unicode="&#x16b;" 
d="M157 705h280v-68h-280v68zM422 84h-4c-22 -51 -62 -96 -147 -96c-108 0 -179 72 -179 197v331h80v-317c0 -94 43 -140 122 -140c64 0 128 31 128 99v358h80v-516h-80v84z" />
    <glyph glyph-name="uogonek" unicode="&#x173;" 
d="M502 0c-103 -65 -113 -94 -113 -114c0 -28 21 -37 42 -37c22 0 39 10 52 26l40 -41c-13 -22 -43 -41 -93 -41c-61 0 -109 27 -109 80c0 48 40 88 115 124l-1 3h-13v84h-4c-22 -51 -62 -96 -147 -96c-108 0 -179 72 -179 197v331h80v-317c0 -94 43 -140 122 -140
c64 0 128 31 128 99v358h80v-516z" />
    <glyph glyph-name="uring" unicode="&#x16f;" 
d="M297 576c-65 0 -116 49 -116 115s51 115 116 115s116 -49 116 -115s-51 -115 -116 -115zM297 625c36 0 58 20 58 55v22c0 35 -22 55 -58 55s-58 -20 -58 -55v-22c0 -35 22 -55 58 -55zM422 84h-4c-22 -51 -62 -96 -147 -96c-108 0 -179 72 -179 197v331h80v-317
c0 -94 43 -140 122 -140c64 0 128 31 128 99v358h80v-516h-80v84z" />
    <glyph glyph-name="utilde" unicode="&#x169;" 
d="M370 612c-35 0 -59 15 -80 26c-32 17 -53 24 -70 24c-22 0 -38 -10 -58 -27l-33 40c18 27 49 53 95 53c35 0 59 -15 80 -26c32 -17 53 -24 70 -24c22 0 38 10 58 27l33 -40c-18 -27 -49 -53 -95 -53zM422 84h-4c-22 -51 -62 -96 -147 -96c-108 0 -179 72 -179 197v331h80
v-317c0 -94 43 -140 122 -140c64 0 128 31 128 99v358h80v-516h-80v84z" />
    <glyph glyph-name="uhorn" unicode="&#x1b0;" 
d="M587 526c0 -35 -13 -63 -63 -63h-22v-463h-80v84h-4c-22 -51 -62 -96 -147 -96c-108 0 -179 72 -179 197v331h80v-317c0 -94 43 -140 122 -140c64 0 128 31 128 99v358h94v112h71v-102z" />
    <glyph glyph-name="uni1EE9" unicode="&#x1ee9;" 
d="M304 585l-52 24l85 170l73 -35zM587 526c0 -35 -13 -63 -63 -63h-22v-463h-80v84h-4c-22 -51 -62 -96 -147 -96c-108 0 -179 72 -179 197v331h80v-317c0 -94 43 -140 122 -140c64 0 128 31 128 99v358h94v112h71v-102z" />
    <glyph glyph-name="uni1EF1" unicode="&#x1ef1;" 
d="M297 -172c-41 0 -57 20 -57 46v14c0 26 16 46 57 46s57 -20 57 -46v-14c0 -26 -16 -46 -57 -46zM587 526c0 -35 -13 -63 -63 -63h-22v-463h-80v84h-4c-22 -51 -62 -96 -147 -96c-108 0 -179 72 -179 197v331h80v-317c0 -94 43 -140 122 -140c64 0 128 31 128 99v358h94
v112h71v-102z" />
    <glyph glyph-name="uni1EEB" unicode="&#x1eeb;" 
d="M184 744l73 35l85 -170l-52 -24zM587 526c0 -35 -13 -63 -63 -63h-22v-463h-80v84h-4c-22 -51 -62 -96 -147 -96c-108 0 -179 72 -179 197v331h80v-317c0 -94 43 -140 122 -140c64 0 128 31 128 99v358h94v112h71v-102z" />
    <glyph glyph-name="uni1EED" unicode="&#x1eed;" 
d="M213 765h109c51 0 70 -25 70 -55c0 -29 -18 -64 -49 -103l-24 -30l-46 23l58 104h-118v61zM587 526c0 -35 -13 -63 -63 -63h-22v-463h-80v84h-4c-22 -51 -62 -96 -147 -96c-108 0 -179 72 -179 197v331h80v-317c0 -94 43 -140 122 -140c64 0 128 31 128 99v358h94v112h71
v-102z" />
    <glyph glyph-name="uni1EEF" unicode="&#x1eef;" 
d="M360 616c-31 0 -52 13 -70 22c-25 13 -39 20 -57 20c-21 0 -38 -10 -57 -27l-33 40c18 27 48 53 91 53c31 0 52 -13 70 -22c25 -13 39 -20 57 -20c21 0 38 10 57 27l33 -40c-18 -27 -48 -53 -91 -53zM587 526c0 -35 -13 -63 -63 -63h-22v-463h-80v84h-4
c-22 -51 -62 -96 -147 -96c-108 0 -179 72 -179 197v331h80v-317c0 -94 43 -140 122 -140c64 0 128 31 128 99v358h94v112h71v-102z" />
    <glyph glyph-name="wacute" unicode="&#x1e83;" horiz-adv-x="900" 
d="M457 585l-52 24l85 170l73 -35zM77 516h78l120 -449h2l138 449h71l141 -449h2l119 449h75l-147 -516h-99l-127 405h-2l-126 -405h-97z" />
    <glyph glyph-name="wcircumflex" unicode="&#x175;" horiz-adv-x="900" 
d="M500 765l111 -143l-45 -31l-117 117l-117 -117l-43 31l111 143h100zM77 516h78l120 -449h2l138 449h71l141 -449h2l119 449h75l-147 -516h-99l-127 405h-2l-126 -405h-97z" />
    <glyph glyph-name="wdieresis" unicode="&#x1e85;" horiz-adv-x="900" 
d="M357 618c-41 0 -57 20 -57 46v14c0 26 16 46 57 46s57 -20 57 -46v-14c0 -26 -16 -46 -57 -46zM543 618c-41 0 -57 20 -57 46v14c0 26 16 46 57 46s57 -20 57 -46v-14c0 -26 -16 -46 -57 -46zM77 516h78l120 -449h2l138 449h71l141 -449h2l119 449h75l-147 -516h-99
l-127 405h-2l-126 -405h-97z" />
    <glyph glyph-name="wgrave" unicode="&#x1e81;" horiz-adv-x="900" 
d="M327 744l73 35l85 -170l-52 -24zM77 516h78l120 -449h2l138 449h71l141 -449h2l119 449h75l-147 -516h-99l-127 405h-2l-126 -405h-97z" />
    <glyph glyph-name="yacute" unicode="&#xfd;" 
d="M307 585l-52 24l85 170l73 -35zM467 516h80l-256 -629c-24 -59 -54 -87 -132 -87h-76v68h120l58 142l-208 506h82l87 -216l77 -196h4l77 196z" />
    <glyph glyph-name="ycircumflex" unicode="&#x177;" 
d="M350 765l111 -143l-45 -31l-117 117l-117 -117l-43 31l111 143h100zM467 516h80l-256 -629c-24 -59 -54 -87 -132 -87h-76v68h120l58 142l-208 506h82l87 -216l77 -196h4l77 196z" />
    <glyph glyph-name="ydieresis" unicode="&#xff;" 
d="M207 618c-41 0 -57 20 -57 46v14c0 26 16 46 57 46s57 -20 57 -46v-14c0 -26 -16 -46 -57 -46zM393 618c-41 0 -57 20 -57 46v14c0 26 16 46 57 46s57 -20 57 -46v-14c0 -26 -16 -46 -57 -46zM467 516h80l-256 -629c-24 -59 -54 -87 -132 -87h-76v68h120l58 142l-208 506
h82l87 -216l77 -196h4l77 196z" />
    <glyph glyph-name="uni1EF5" unicode="&#x1ef5;" 
d="M460 -172c-41 0 -57 20 -57 46v14c0 26 16 46 57 46s57 -20 57 -46v-14c0 -26 -16 -46 -57 -46zM467 516h80l-256 -629c-24 -59 -54 -87 -132 -87h-76v68h120l58 142l-208 506h82l87 -216l77 -196h4l77 196z" />
    <glyph glyph-name="ygrave" unicode="&#x1ef3;" 
d="M187 744l73 35l85 -170l-52 -24zM467 516h80l-256 -629c-24 -59 -54 -87 -132 -87h-76v68h120l58 142l-208 506h82l87 -216l77 -196h4l77 196z" />
    <glyph glyph-name="uni1EF7" unicode="&#x1ef7;" 
d="M216 765h109c51 0 70 -25 70 -55c0 -29 -18 -64 -49 -103l-24 -30l-46 23l58 104h-118v61zM467 516h80l-256 -629c-24 -59 -54 -87 -132 -87h-76v68h120l58 142l-208 506h82l87 -216l77 -196h4l77 196z" />
    <glyph glyph-name="uni1EF9" unicode="&#x1ef9;" 
d="M373 612c-35 0 -59 15 -80 26c-32 17 -53 24 -70 24c-22 0 -38 -10 -58 -27l-33 40c18 27 49 53 95 53c35 0 59 -15 80 -26c32 -17 53 -24 70 -24c22 0 38 10 58 27l33 -40c-18 -27 -49 -53 -95 -53zM467 516h80l-256 -629c-24 -59 -54 -87 -132 -87h-76v68h120l58 142
l-208 506h82l87 -216l77 -196h4l77 196z" />
    <glyph glyph-name="zacute" unicode="&#x17a;" 
d="M307 585l-52 24l85 170l73 -35zM85 0v77l333 371h-322v68h409v-77l-333 -371h343v-68h-430z" />
    <glyph glyph-name="zcaron" unicode="&#x17e;" 
d="M250 599l-111 143l46 31l117 -117l117 117l42 -31l-111 -143h-100zM85 0v77l333 371h-322v68h409v-77l-333 -371h343v-68h-430z" />
    <glyph glyph-name="zdotaccent" unicode="&#x17c;" 
d="M300 612c-46 0 -63 22 -63 51v16c0 29 17 51 63 51s63 -22 63 -51v-16c0 -29 -17 -51 -63 -51zM85 0v77l333 371h-322v68h409v-77l-333 -371h343v-68h-430z" />
    <glyph glyph-name="Aacute" unicode="&#xc1;" 
d="M307 755l-52 24l85 170l73 -35zM481 0l-59 199h-245l-59 -199h-87l214 698h111l214 -698h-89zM304 609h-9l-98 -337h205z" />
    <glyph glyph-name="Abreve" unicode="&#x102;" 
d="M300 765c-107 0 -142 90 -161 151l51 22l21 -34c31 -50 45 -74 89 -74s58 24 89 74l21 34l51 -22c-19 -61 -54 -151 -161 -151zM481 0l-59 199h-245l-59 -199h-87l214 698h111l214 -698h-89zM304 609h-9l-98 -337h205z" />
    <glyph glyph-name="Acircumflex" unicode="&#xc2;" 
d="M350 935l111 -143l-45 -31l-117 117l-117 -117l-43 31l111 143h100zM481 0l-59 199h-245l-59 -199h-87l214 698h111l214 -698h-89zM304 609h-9l-98 -337h205z" />
    <glyph glyph-name="Adieresis" unicode="&#xc4;" 
d="M207 788c-41 0 -57 20 -57 46v14c0 26 16 46 57 46s57 -20 57 -46v-14c0 -26 -16 -46 -57 -46zM393 788c-41 0 -57 20 -57 46v14c0 26 16 46 57 46s57 -20 57 -46v-14c0 -26 -16 -46 -57 -46zM481 0l-59 199h-245l-59 -199h-87l214 698h111l214 -698h-89zM304 609h-9
l-98 -337h205z" />
    <glyph glyph-name="uni1EA0" unicode="&#x1ea0;" 
d="M300 -172c-41 0 -57 20 -57 46v14c0 26 16 46 57 46s57 -20 57 -46v-14c0 -26 -16 -46 -57 -46zM481 0l-59 199h-245l-59 -199h-87l214 698h111l214 -698h-89zM304 609h-9l-98 -337h205z" />
    <glyph glyph-name="Agrave" unicode="&#xc0;" 
d="M187 914l73 35l85 -170l-52 -24zM481 0l-59 199h-245l-59 -199h-87l214 698h111l214 -698h-89zM304 609h-9l-98 -337h205z" />
    <glyph glyph-name="uni1EA2" unicode="&#x1ea2;" 
d="M216 935h109c51 0 70 -25 70 -55c0 -29 -18 -64 -49 -103l-24 -30l-46 23l58 104h-118v61zM481 0l-59 199h-245l-59 -199h-87l214 698h111l214 -698h-89zM304 609h-9l-98 -337h205z" />
    <glyph glyph-name="Amacron" unicode="&#x100;" 
d="M160 875h280v-68h-280v68zM481 0l-59 199h-245l-59 -199h-87l214 698h111l214 -698h-89zM304 609h-9l-98 -337h205z" />
    <glyph glyph-name="Aogonek" unicode="&#x104;" 
d="M245 698h111l214 -698c-103 -65 -113 -94 -113 -114c0 -28 21 -37 42 -37c22 0 39 10 52 26l40 -41c-13 -22 -43 -41 -93 -41c-61 0 -109 27 -109 80c0 48 40 88 115 124l-1 3h-22l-59 199h-245l-59 -199h-87zM304 609h-9l-98 -337h205z" />
    <glyph glyph-name="Aring" unicode="&#xc5;" 
d="M300 746c-65 0 -116 49 -116 115s51 115 116 115s116 -49 116 -115s-51 -115 -116 -115zM300 795c36 0 58 20 58 55v22c0 35 -22 55 -58 55s-58 -20 -58 -55v-22c0 -35 22 -55 58 -55zM481 0l-59 199h-245l-59 -199h-87l214 698h111l214 -698h-89zM304 609h-9l-98 -337
h205z" />
    <glyph glyph-name="Aringacute" unicode="&#x1fa;" 
d="M314 987l-47 19l73 113l70 -25zM300 736c-65 0 -116 49 -116 115s51 115 116 115s116 -49 116 -115s-51 -115 -116 -115zM300 785c36 0 58 20 58 55v22c0 35 -22 55 -58 55s-58 -20 -58 -55v-22c0 -35 22 -55 58 -55zM481 0l-59 199h-245l-59 -199h-87l214 698h111
l214 -698h-89zM304 609h-9l-98 -337h205z" />
    <glyph glyph-name="Atilde" unicode="&#xc3;" 
d="M373 782c-35 0 -59 15 -80 26c-32 17 -53 24 -70 24c-22 0 -38 -10 -58 -27l-33 40c18 27 49 53 95 53c35 0 59 -15 80 -26c32 -17 53 -24 70 -24c22 0 38 10 58 27l33 -40c-18 -27 -49 -53 -95 -53zM481 0l-59 199h-245l-59 -199h-87l214 698h111l214 -698h-89zM304 609
h-9l-98 -337h205z" />
    <glyph glyph-name="uni1EAE" unicode="&#x1eae;" 
d="M299 755c-107 0 -146 80 -165 139l47 23l21 -32c32 -48 54 -66 98 -66s66 18 98 66l21 32l47 -23c-21 -65 -63 -139 -167 -139zM307 878l-49 23l85 170l70 -34zM481 0l-59 199h-245l-59 -199h-87l214 698h111l214 -698h-89zM304 609h-9l-98 -337h205z" />
    <glyph glyph-name="uni1EB6" unicode="&#x1eb6;" 
d="M300 -172c-41 0 -57 20 -57 46v14c0 26 16 46 57 46s57 -20 57 -46v-14c0 -26 -16 -46 -57 -46zM300 765c-107 0 -142 90 -161 151l51 22l21 -34c31 -50 45 -74 89 -74s58 24 89 74l21 34l51 -22c-19 -61 -54 -151 -161 -151zM481 0l-59 199h-245l-59 -199h-87l214 698
h111l214 -698h-89zM304 609h-9l-98 -337h205z" />
    <glyph glyph-name="uni1EB0" unicode="&#x1eb0;" 
d="M301 755c-104 0 -146 74 -167 139l47 23l21 -32c32 -48 54 -66 98 -66s66 18 98 66l21 32l47 -23c-19 -59 -58 -139 -165 -139zM187 1037l70 34l85 -170l-49 -23zM481 0l-59 199h-245l-59 -199h-87l214 698h111l214 -698h-89zM304 609h-9l-98 -337h205z" />
    <glyph glyph-name="uni1EB2" unicode="&#x1eb2;" 
d="M215 1060h94c51 0 70 -25 70 -55c0 -29 -18 -64 -49 -103l-24 -30l-46 23l58 104h-103v61zM301 755c-104 0 -146 74 -167 139l47 23l21 -32c32 -48 54 -66 98 -66s66 18 98 66l21 32l47 -23c-19 -59 -58 -139 -165 -139zM481 0l-59 199h-245l-59 -199h-87l214 698h111
l214 -698h-89zM304 609h-9l-98 -337h205z" />
    <glyph glyph-name="uni1EB4" unicode="&#x1eb4;" 
d="M372 939c-35 0 -59 15 -80 26c-32 17 -53 24 -70 24c-22 0 -38 -10 -58 -27l-31 36c18 27 49 53 95 53c35 0 59 -15 80 -26c32 -17 53 -24 70 -24c22 0 38 10 58 27l31 -36c-18 -27 -49 -53 -95 -53zM301 755c-104 0 -146 74 -167 139l47 23l21 -32c32 -48 54 -66 98 -66
s66 18 98 66l21 32l47 -23c-19 -59 -58 -139 -165 -139zM481 0l-59 199h-245l-59 -199h-87l214 698h111l214 -698h-89zM304 609h-9l-98 -337h205z" />
    <glyph glyph-name="uni1EA4" unicode="&#x1ea4;" 
d="M454 882l-49 23l85 170l70 -34zM350 925l110 -144l-44 -30l-117 119l-117 -119l-42 30l110 144h100zM481 0l-59 199h-245l-59 -199h-87l214 698h111l214 -698h-89zM304 609h-9l-98 -337h205z" />
    <glyph glyph-name="uni1EAC" unicode="&#x1eac;" 
d="M300 -172c-41 0 -57 20 -57 46v14c0 26 16 46 57 46s57 -20 57 -46v-14c0 -26 -16 -46 -57 -46zM350 935l111 -143l-45 -31l-117 117l-117 -117l-43 31l111 143h100zM481 0l-59 199h-245l-59 -199h-87l214 698h111l214 -698h-89zM304 609h-9l-98 -337h205z" />
    <glyph glyph-name="uni1EA6" unicode="&#x1ea6;" 
d="M40 1041l70 34l85 -170l-49 -23zM350 925l110 -144l-44 -30l-117 119l-117 -119l-42 30l110 144h100zM481 0l-59 199h-245l-59 -199h-87l214 698h111l214 -698h-89zM304 609h-9l-98 -337h205z" />
    <glyph glyph-name="uni1EA8" unicode="&#x1ea8;" 
d="M353 1064h109c51 0 70 -25 70 -55c0 -29 -18 -64 -49 -103l-24 -30l-46 23l58 104h-118v61zM350 925l110 -144l-44 -30l-117 119l-117 -119l-42 30l110 144h100zM481 0l-59 199h-245l-59 -199h-87l214 698h111l214 -698h-89zM304 609h-9l-98 -337h205z" />
    <glyph glyph-name="uni1EAA" unicode="&#x1eaa;" 
d="M228 1062c35 0 59 -15 80 -26c32 -17 53 -24 70 -24c22 0 38 10 58 27l31 -36c-18 -27 -49 -53 -95 -53c-35 0 -59 15 -80 26c-32 17 -53 24 -70 24c-22 0 -38 -10 -58 -27l-31 36c18 27 49 53 95 53zM350 915l110 -134l-44 -30l-117 111l-117 -111l-42 30l110 134h100z
M481 0l-59 199h-245l-59 -199h-87l214 698h111l214 -698h-89zM304 609h-9l-98 -337h205z" />
    <glyph glyph-name="AE" unicode="&#xc6;" 
d="M312 201h-152l-56 -201h-84l206 698h334v-69h-168v-241h156v-69h-156v-250h168v-69h-248v201zM281 638l-103 -368h134v368h-31z" />
    <glyph glyph-name="AEacute" unicode="&#x1fc;" 
d="M400 755l-52 24l85 170l73 -35zM312 201h-152l-56 -201h-84l206 698h334v-69h-168v-241h156v-69h-156v-250h168v-69h-248v201zM281 638l-103 -368h134v368h-31z" />
    <glyph glyph-name="Cacute" unicode="&#x106;" 
d="M335 755l-52 24l85 170l73 -35zM323 -12c-170 0 -253 129 -253 361s83 361 253 361c128 0 181 -77 215 -153l-72 -33c-25 62 -58 113 -143 113c-111 0 -164 -91 -164 -231v-114c0 -140 53 -231 164 -231c85 0 118 51 143 113l72 -33c-34 -76 -87 -153 -215 -153z" />
    <glyph glyph-name="Ccaron" unicode="&#x10c;" 
d="M278 769l-111 143l45 31l117 -117l117 117l43 -31l-111 -143h-100zM323 -12c-170 0 -253 129 -253 361s83 361 253 361c128 0 181 -77 215 -153l-72 -33c-25 62 -58 113 -143 113c-111 0 -164 -91 -164 -231v-114c0 -140 53 -231 164 -231c85 0 118 51 143 113l72 -33
c-34 -76 -87 -153 -215 -153z" />
    <glyph glyph-name="Ccedilla" unicode="&#xc7;" 
d="M323 637c-111 0 -164 -91 -164 -231v-114c0 -140 53 -231 164 -231c85 0 118 51 143 113l72 -33c-34 -75 -85 -150 -208 -153l-9 -49l3 -3c13 4 27 6 39 6c39 0 68 -23 68 -66c0 -57 -52 -83 -111 -83c-54 0 -85 22 -99 41l38 41c12 -15 32 -28 61 -28c25 0 44 10 44 31
c0 18 -12 33 -68 41l-28 4l13 68c-142 20 -211 145 -211 358c0 232 83 361 253 361c128 0 181 -77 215 -153l-72 -33c-25 62 -58 113 -143 113z" />
    <glyph glyph-name="Ccircumflex" unicode="&#x108;" 
d="M378 935l111 -143l-45 -31l-117 117l-117 -117l-43 31l111 143h100zM323 -12c-170 0 -253 129 -253 361s83 361 253 361c128 0 181 -77 215 -153l-72 -33c-25 62 -58 113 -143 113c-111 0 -164 -91 -164 -231v-114c0 -140 53 -231 164 -231c85 0 118 51 143 113l72 -33
c-34 -76 -87 -153 -215 -153z" />
    <glyph glyph-name="Cdotaccent" unicode="&#x10a;" 
d="M328 782c-46 0 -63 22 -63 51v16c0 29 17 51 63 51s63 -22 63 -51v-16c0 -29 -17 -51 -63 -51zM323 -12c-170 0 -253 129 -253 361s83 361 253 361c128 0 181 -77 215 -153l-72 -33c-25 62 -58 113 -143 113c-111 0 -164 -91 -164 -231v-114c0 -140 53 -231 164 -231
c85 0 118 51 143 113l72 -33c-34 -76 -87 -153 -215 -153z" />
    <glyph glyph-name="Dcaron" unicode="&#x10e;" 
d="M227 769l-111 143l45 31l117 -117l117 117l43 -31l-111 -143h-100zM95 698h195c170 0 254 -120 254 -349s-84 -349 -254 -349h-195v698zM286 73c111 0 169 82 169 222v108c0 140 -58 222 -169 222h-107v-552h107z" />
    <glyph glyph-name="Dcroat" unicode="&#x110;" 
d="M102 336h-80v64h80v298h188c170 0 254 -120 254 -349s-84 -349 -254 -349h-188v336zM286 73c111 0 169 82 169 222v108c0 140 -58 222 -169 222h-100v-225h141v-64h-141v-263h100z" />
    <glyph glyph-name="Eth" unicode="&#xd0;" 
d="M102 336h-80v64h80v298h188c170 0 254 -120 254 -349s-84 -349 -254 -349h-188v336zM286 73c111 0 169 82 169 222v108c0 140 -58 222 -169 222h-100v-225h141v-64h-141v-263h100z" />
    <glyph glyph-name="Eacute" unicode="&#xc9;" 
d="M312 755l-52 24l85 170l73 -35zM90 0v698h430v-73h-346v-235h334v-73h-334v-244h346v-73h-430z" />
    <glyph glyph-name="Ebreve" unicode="&#x114;" 
d="M305 765c-107 0 -142 90 -161 151l51 22l21 -34c31 -50 45 -74 89 -74s58 24 89 74l21 34l51 -22c-19 -61 -54 -151 -161 -151zM90 0v698h430v-73h-346v-235h334v-73h-334v-244h346v-73h-430z" />
    <glyph glyph-name="Ecaron" unicode="&#x11a;" 
d="M255 769l-111 143l45 31l117 -117l117 117l43 -31l-111 -143h-100zM90 0v698h430v-73h-346v-235h334v-73h-334v-244h346v-73h-430z" />
    <glyph glyph-name="Ecircumflex" unicode="&#xca;" 
d="M355 935l111 -143l-45 -31l-117 117l-117 -117l-43 31l111 143h100zM90 0v698h430v-73h-346v-235h334v-73h-334v-244h346v-73h-430z" />
    <glyph glyph-name="Edieresis" unicode="&#xcb;" 
d="M212 788c-41 0 -57 20 -57 46v14c0 26 16 46 57 46s57 -20 57 -46v-14c0 -26 -16 -46 -57 -46zM398 788c-41 0 -57 20 -57 46v14c0 26 16 46 57 46s57 -20 57 -46v-14c0 -26 -16 -46 -57 -46zM90 0v698h430v-73h-346v-235h334v-73h-334v-244h346v-73h-430z" />
    <glyph glyph-name="Edotaccent" unicode="&#x116;" 
d="M305 782c-46 0 -63 22 -63 51v16c0 29 17 51 63 51s63 -22 63 -51v-16c0 -29 -17 -51 -63 -51zM90 0v698h430v-73h-346v-235h334v-73h-334v-244h346v-73h-430z" />
    <glyph glyph-name="uni1EB8" unicode="&#x1eb8;" 
d="M305 -172c-41 0 -57 20 -57 46v14c0 26 16 46 57 46s57 -20 57 -46v-14c0 -26 -16 -46 -57 -46zM90 0v698h430v-73h-346v-235h334v-73h-334v-244h346v-73h-430z" />
    <glyph glyph-name="Egrave" unicode="&#xc8;" 
d="M192 914l73 35l85 -170l-52 -24zM90 0v698h430v-73h-346v-235h334v-73h-334v-244h346v-73h-430z" />
    <glyph glyph-name="uni1EBA" unicode="&#x1eba;" 
d="M221 935h109c51 0 70 -25 70 -55c0 -29 -18 -64 -49 -103l-24 -30l-46 23l58 104h-118v61zM90 0v698h430v-73h-346v-235h334v-73h-334v-244h346v-73h-430z" />
    <glyph glyph-name="Emacron" unicode="&#x112;" 
d="M165 875h280v-68h-280v68zM90 0v698h430v-73h-346v-235h334v-73h-334v-244h346v-73h-430z" />
    <glyph glyph-name="Eogonek" unicode="&#x118;" 
d="M90 698h430v-73h-346v-235h334v-73h-334v-244h346v-73c-103 -65 -113 -94 -113 -114c0 -28 21 -37 42 -37c22 0 39 10 52 26l40 -41c-13 -22 -43 -41 -93 -41c-61 0 -109 27 -109 80c0 48 40 88 115 124l-1 3h-363v698z" />
    <glyph glyph-name="uni1EBC" unicode="&#x1ebc;" 
d="M378 782c-35 0 -59 15 -80 26c-32 17 -53 24 -70 24c-22 0 -38 -10 -58 -27l-33 40c18 27 49 53 95 53c35 0 59 -15 80 -26c32 -17 53 -24 70 -24c22 0 38 10 58 27l33 -40c-18 -27 -49 -53 -95 -53zM90 0v698h430v-73h-346v-235h334v-73h-334v-244h346v-73h-430z" />
    <glyph glyph-name="uni1EBE" unicode="&#x1ebe;" 
d="M459 882l-49 23l85 170l70 -34zM355 925l110 -144l-44 -30l-117 119l-117 -119l-42 30l110 144h100zM90 0v698h430v-73h-346v-235h334v-73h-334v-244h346v-73h-430z" />
    <glyph glyph-name="uni1EC6" unicode="&#x1ec6;" 
d="M305 -172c-41 0 -57 20 -57 46v14c0 26 16 46 57 46s57 -20 57 -46v-14c0 -26 -16 -46 -57 -46zM355 935l111 -143l-45 -31l-117 117l-117 -117l-43 31l111 143h100zM90 0v698h430v-73h-346v-235h334v-73h-334v-244h346v-73h-430z" />
    <glyph glyph-name="uni1EC0" unicode="&#x1ec0;" 
d="M45 1041l70 34l85 -170l-49 -23zM355 925l110 -144l-44 -30l-117 119l-117 -119l-42 30l110 144h100zM90 0v698h430v-73h-346v-235h334v-73h-334v-244h346v-73h-430z" />
    <glyph glyph-name="uni1EC2" unicode="&#x1ec2;" 
d="M358 1064h109c51 0 70 -25 70 -55c0 -29 -18 -64 -49 -103l-24 -30l-46 23l58 104h-118v61zM355 925l110 -144l-44 -30l-117 119l-117 -119l-42 30l110 144h100zM90 0v698h430v-73h-346v-235h334v-73h-334v-244h346v-73h-430z" />
    <glyph glyph-name="uni1EC4" unicode="&#x1ec4;" 
d="M233 1062c35 0 59 -15 80 -26c32 -17 53 -24 70 -24c22 0 38 10 58 27l31 -36c-18 -27 -49 -53 -95 -53c-35 0 -59 15 -80 26c-32 17 -53 24 -70 24c-22 0 -38 -10 -58 -27l-31 36c18 27 49 53 95 53zM355 915l110 -134l-44 -30l-117 111l-117 -111l-42 30l110 134h100z
M90 0v698h430v-73h-346v-235h334v-73h-334v-244h346v-73h-430z" />
    <glyph glyph-name="uni018F" unicode="&#x18f;" 
d="M300 -12c-170 0 -244 133 -244 361v22h399v33c0 140 -43 233 -166 233c-56 0 -119 -19 -156 -138l-70 33c31 115 111 178 232 178c179 0 249 -136 249 -360c0 -229 -74 -362 -244 -362zM299 61c111 0 156 91 156 231v10h-312v-10c0 -140 45 -231 156 -231z" />
    <glyph glyph-name="Gbreve" unicode="&#x11e;" 
d="M306 765c-107 0 -142 90 -161 151l51 22l21 -34c31 -50 45 -74 89 -74s58 24 89 74l21 34l51 -22c-19 -61 -54 -151 -161 -151zM444 93h-5c-23 -54 -62 -105 -158 -105c-151 0 -225 128 -225 356c0 238 81 366 249 366c131 0 187 -77 217 -153l-72 -33
c-25 62 -58 113 -142 113c-112 0 -163 -91 -163 -231v-108c0 -140 41 -239 155 -239c90 0 144 61 144 147v72h-147v67h225v-345h-78v93z" />
    <glyph glyph-name="Gcircumflex" unicode="&#x11c;" 
d="M356 935l111 -143l-45 -31l-117 117l-117 -117l-43 31l111 143h100zM444 93h-5c-23 -54 -62 -105 -158 -105c-151 0 -225 128 -225 356c0 238 81 366 249 366c131 0 187 -77 217 -153l-72 -33c-25 62 -58 113 -142 113c-112 0 -163 -91 -163 -231v-108
c0 -140 41 -239 155 -239c90 0 144 61 144 147v72h-147v67h225v-345h-78v93z" />
    <glyph glyph-name="uni0122" unicode="&#x122;" 
d="M248 -62h109l-76 -189h-61zM444 93h-5c-23 -54 -62 -105 -158 -105c-151 0 -225 128 -225 356c0 238 81 366 249 366c131 0 187 -77 217 -153l-72 -33c-25 62 -58 113 -142 113c-112 0 -163 -91 -163 -231v-108c0 -140 41 -239 155 -239c90 0 144 61 144 147v72h-147v67
h225v-345h-78v93z" />
    <glyph glyph-name="Gdotaccent" unicode="&#x120;" 
d="M306 782c-46 0 -63 22 -63 51v16c0 29 17 51 63 51s63 -22 63 -51v-16c0 -29 -17 -51 -63 -51zM444 93h-5c-23 -54 -62 -105 -158 -105c-151 0 -225 128 -225 356c0 238 81 366 249 366c131 0 187 -77 217 -153l-72 -33c-25 62 -58 113 -142 113
c-112 0 -163 -91 -163 -231v-108c0 -140 41 -239 155 -239c90 0 144 61 144 147v72h-147v67h225v-345h-78v93z" />
    <glyph glyph-name="Hbar" unicode="&#x126;" 
d="M436 317h-272v-317h-84v518h-70v64h70v116h84v-116h272v116h84v-116h70v-64h-70v-518h-84v317zM436 390v128h-272v-128h272z" />
    <glyph glyph-name="Hcircumflex" unicode="&#x124;" 
d="M350 935l111 -143l-45 -31l-117 117l-117 -117l-43 31l111 143h100zM436 317h-272v-317h-84v698h84v-308h272v308h84v-698h-84v317z" />
    <glyph glyph-name="Iacute" unicode="&#xcd;" 
d="M307 755l-52 24l85 170l73 -35zM84 0v67h174v564h-174v67h432v-67h-174v-564h174v-67h-432z" />
    <glyph glyph-name="Ibreve" unicode="&#x12c;" 
d="M300 765c-107 0 -142 90 -161 151l51 22l21 -34c31 -50 45 -74 89 -74s58 24 89 74l21 34l51 -22c-19 -61 -54 -151 -161 -151zM84 0v67h174v564h-174v67h432v-67h-174v-564h174v-67h-432z" />
    <glyph glyph-name="Icircumflex" unicode="&#xce;" 
d="M350 935l111 -143l-45 -31l-117 117l-117 -117l-43 31l111 143h100zM84 0v67h174v564h-174v67h432v-67h-174v-564h174v-67h-432z" />
    <glyph glyph-name="Idieresis" unicode="&#xcf;" 
d="M207 788c-41 0 -57 20 -57 46v14c0 26 16 46 57 46s57 -20 57 -46v-14c0 -26 -16 -46 -57 -46zM393 788c-41 0 -57 20 -57 46v14c0 26 16 46 57 46s57 -20 57 -46v-14c0 -26 -16 -46 -57 -46zM84 0v67h174v564h-174v67h432v-67h-174v-564h174v-67h-432z" />
    <glyph glyph-name="Idotaccent" unicode="&#x130;" 
d="M300 782c-46 0 -63 22 -63 51v16c0 29 17 51 63 51s63 -22 63 -51v-16c0 -29 -17 -51 -63 -51zM84 0v67h174v564h-174v67h432v-67h-174v-564h174v-67h-432z" />
    <glyph glyph-name="uni1ECA" unicode="&#x1eca;" 
d="M300 -172c-41 0 -57 20 -57 46v14c0 26 16 46 57 46s57 -20 57 -46v-14c0 -26 -16 -46 -57 -46zM84 0v67h174v564h-174v67h432v-67h-174v-564h174v-67h-432z" />
    <glyph glyph-name="Igrave" unicode="&#xcc;" 
d="M187 914l73 35l85 -170l-52 -24zM84 0v67h174v564h-174v67h432v-67h-174v-564h174v-67h-432z" />
    <glyph glyph-name="uni1EC8" unicode="&#x1ec8;" 
d="M216 935h109c51 0 70 -25 70 -55c0 -29 -18 -64 -49 -103l-24 -30l-46 23l58 104h-118v61zM84 0v67h174v564h-174v67h432v-67h-174v-564h174v-67h-432z" />
    <glyph glyph-name="Imacron" unicode="&#x12a;" 
d="M160 875h280v-68h-280v68zM84 0v67h174v564h-174v67h432v-67h-174v-564h174v-67h-432z" />
    <glyph glyph-name="Iogonek" unicode="&#x12e;" 
d="M84 67h174v564h-174v67h432v-67h-174v-564h174v-67c-103 -65 -113 -94 -113 -114c0 -28 21 -37 42 -37c22 0 39 10 52 26l40 -41c-13 -22 -43 -41 -93 -41c-61 0 -109 27 -109 80c0 48 40 88 115 124l-1 3h-365v67z" />
    <glyph glyph-name="Itilde" unicode="&#x128;" 
d="M373 782c-35 0 -59 15 -80 26c-32 17 -53 24 -70 24c-22 0 -38 -10 -58 -27l-33 40c18 27 49 53 95 53c35 0 59 -15 80 -26c32 -17 53 -24 70 -24c22 0 38 10 58 27l33 -40c-18 -27 -49 -53 -95 -53zM84 0v67h174v564h-174v67h432v-67h-174v-564h174v-67h-432z" />
    <glyph glyph-name="IJ" unicode="&#x132;" 
d="M510 698v-507c0 -124 -89 -203 -217 -203c-109 0 -187 57 -208 157l84 21c12 -52 40 -104 127 -104c82 0 130 46 130 144v492h84zM90 698h84v-408h-84v408z" />
    <glyph glyph-name="IJacute" 
d="M475 755l-52 24l85 170l73 -35zM139 755l-52 24l85 170l73 -35zM510 698v-507c0 -124 -89 -203 -217 -203c-109 0 -187 57 -208 157l84 21c12 -52 40 -104 127 -104c82 0 130 46 130 144v492h84zM90 698h84v-408h-84v408z" />
    <glyph glyph-name="uni00A40301" 
d="M320 755l-52 24l85 170l73 -35zM480 698v-517c0 -118 -85 -193 -206 -193c-106 0 -179 58 -200 158l80 17c13 -56 44 -101 122 -101c76 0 120 43 120 134v429h-252v73h336z" />
    <glyph glyph-name="Jcircumflex" unicode="&#x134;" 
d="M363 935l111 -143l-45 -31l-117 117l-117 -117l-43 31l111 143h100zM480 698v-517c0 -118 -85 -193 -206 -193c-106 0 -179 58 -200 158l80 17c13 -56 44 -101 122 -101c76 0 120 43 120 134v429h-252v73h336z" />
    <glyph glyph-name="uni0136" unicode="&#x136;" 
d="M270 -62h109l-76 -189h-61zM269 342l-100 -118v-224h-84v698h84v-364h3l92 116l206 248h101l-245 -294l252 -404h-98z" />
    <glyph glyph-name="Lacute" unicode="&#x139;" 
d="M169 755l-52 24l85 170l73 -35zM120 0v698h84v-625h331v-73h-415z" />
    <glyph glyph-name="Lcaron" unicode="&#x13d;" 
d="M351 551h-61l7 189h103zM120 0v698h84v-625h331v-73h-415z" />
    <glyph glyph-name="uni013B" unicode="&#x13b;" 
d="M275 -62h109l-76 -189h-61zM120 0v698h84v-625h331v-73h-415z" />
    <glyph glyph-name="Ldot" unicode="&#x13f;" 
d="M435 266c-46 0 -63 22 -63 51v16c0 29 17 51 63 51s63 -22 63 -51v-16c0 -29 -17 -51 -63 -51zM120 0v698h84v-625h331v-73h-415z" />
    <glyph glyph-name="Lslash" unicode="&#x141;" 
d="M535 0h-415v271l-80 -26v69l80 26v358h84v-334l211 69v-69l-211 -69v-222h331v-73z" />
    <glyph glyph-name="Nacute" unicode="&#x143;" 
d="M307 755l-52 24l85 170l73 -35zM163 591h-7v-591h-76v698h119l238 -585h7v585h76v-698h-119z" />
    <glyph glyph-name="Ncaron" unicode="&#x147;" 
d="M250 769l-111 143l45 31l117 -117l117 117l43 -31l-111 -143h-100zM163 591h-7v-591h-76v698h119l238 -585h7v585h76v-698h-119z" />
    <glyph glyph-name="uni0145" unicode="&#x145;" 
d="M248 -62h109l-76 -189h-61zM163 591h-7v-591h-76v698h119l238 -585h7v585h76v-698h-119z" />
    <glyph glyph-name="Ntilde" unicode="&#xd1;" 
d="M373 782c-35 0 -59 15 -80 26c-32 17 -53 24 -70 24c-22 0 -38 -10 -58 -27l-33 40c18 27 49 53 95 53c35 0 59 -15 80 -26c32 -17 53 -24 70 -24c22 0 38 10 58 27l33 -40c-18 -27 -49 -53 -95 -53zM163 591h-7v-591h-76v698h119l238 -585h7v585h76v-698h-119z" />
    <glyph glyph-name="Eng" unicode="&#x14a;" 
d="M80 0v698h119l238 -585h7v585h76v-780c0 -69 -36 -118 -114 -118h-249v68h287v132h-43l-238 591h-7v-591h-76z" />
    <glyph glyph-name="Oacute" unicode="&#xd3;" 
d="M307 755l-52 24l85 170l73 -35zM300 -12c-170 0 -244 133 -244 361s74 361 244 361s244 -133 244 -361s-74 -361 -244 -361zM300 61c111 0 155 91 155 231v114c0 140 -44 231 -155 231s-155 -91 -155 -231v-114c0 -140 44 -231 155 -231z" />
    <glyph glyph-name="Obreve" unicode="&#x14e;" 
d="M300 765c-107 0 -142 90 -161 151l51 22l21 -34c31 -50 45 -74 89 -74s58 24 89 74l21 34l51 -22c-19 -61 -54 -151 -161 -151zM300 -12c-170 0 -244 133 -244 361s74 361 244 361s244 -133 244 -361s-74 -361 -244 -361zM300 61c111 0 155 91 155 231v114
c0 140 -44 231 -155 231s-155 -91 -155 -231v-114c0 -140 44 -231 155 -231z" />
    <glyph glyph-name="Ocircumflex" unicode="&#xd4;" 
d="M350 935l111 -143l-45 -31l-117 117l-117 -117l-43 31l111 143h100zM300 -12c-170 0 -244 133 -244 361s74 361 244 361s244 -133 244 -361s-74 -361 -244 -361zM300 61c111 0 155 91 155 231v114c0 140 -44 231 -155 231s-155 -91 -155 -231v-114
c0 -140 44 -231 155 -231z" />
    <glyph glyph-name="Odieresis" unicode="&#xd6;" 
d="M207 788c-41 0 -57 20 -57 46v14c0 26 16 46 57 46s57 -20 57 -46v-14c0 -26 -16 -46 -57 -46zM393 788c-41 0 -57 20 -57 46v14c0 26 16 46 57 46s57 -20 57 -46v-14c0 -26 -16 -46 -57 -46zM300 -12c-170 0 -244 133 -244 361s74 361 244 361s244 -133 244 -361
s-74 -361 -244 -361zM300 61c111 0 155 91 155 231v114c0 140 -44 231 -155 231s-155 -91 -155 -231v-114c0 -140 44 -231 155 -231z" />
    <glyph glyph-name="uni1ECC" unicode="&#x1ecc;" 
d="M300 -172c-41 0 -57 20 -57 46v14c0 26 16 46 57 46s57 -20 57 -46v-14c0 -26 -16 -46 -57 -46zM300 -12c-170 0 -244 133 -244 361s74 361 244 361s244 -133 244 -361s-74 -361 -244 -361zM300 61c111 0 155 91 155 231v114c0 140 -44 231 -155 231s-155 -91 -155 -231
v-114c0 -140 44 -231 155 -231z" />
    <glyph glyph-name="Ograve" unicode="&#xd2;" 
d="M187 914l73 35l85 -170l-52 -24zM300 -12c-170 0 -244 133 -244 361s74 361 244 361s244 -133 244 -361s-74 -361 -244 -361zM300 61c111 0 155 91 155 231v114c0 140 -44 231 -155 231s-155 -91 -155 -231v-114c0 -140 44 -231 155 -231z" />
    <glyph glyph-name="uni1ECE" unicode="&#x1ece;" 
d="M216 935h109c51 0 70 -25 70 -55c0 -29 -18 -64 -49 -103l-24 -30l-46 23l58 104h-118v61zM300 -12c-170 0 -244 133 -244 361s74 361 244 361s244 -133 244 -361s-74 -361 -244 -361zM300 61c111 0 155 91 155 231v114c0 140 -44 231 -155 231s-155 -91 -155 -231v-114
c0 -140 44 -231 155 -231z" />
    <glyph glyph-name="Ohungarumlaut" unicode="&#x150;" 
d="M227 756l-48 22l85 170l69 -33zM387 756l-48 22l85 170l69 -33zM300 -12c-170 0 -244 133 -244 361s74 361 244 361s244 -133 244 -361s-74 -361 -244 -361zM300 61c111 0 155 91 155 231v114c0 140 -44 231 -155 231s-155 -91 -155 -231v-114c0 -140 44 -231 155 -231z
" />
    <glyph glyph-name="Omacron" unicode="&#x14c;" 
d="M160 875h280v-68h-280v68zM300 -12c-170 0 -244 133 -244 361s74 361 244 361s244 -133 244 -361s-74 -361 -244 -361zM300 61c111 0 155 91 155 231v114c0 140 -44 231 -155 231s-155 -91 -155 -231v-114c0 -140 44 -231 155 -231z" />
    <glyph glyph-name="Oslash" unicode="&#xd8;" 
d="M300 -12c-60 0 -109 16 -146 48l-47 -80l-60 36l60 102c-35 61 -51 148 -51 255c0 228 74 361 244 361c60 0 109 -16 146 -48l47 80l60 -36l-60 -102c35 -61 51 -148 51 -255c0 -228 -74 -361 -244 -361zM145 292c0 -45 4 -85 14 -118l248 417c-25 29 -60 46 -107 46
c-111 0 -155 -91 -155 -231v-114zM300 61c111 0 155 91 155 231v114c0 45 -4 85 -14 118l-248 -417c25 -29 60 -46 107 -46z" />
    <glyph glyph-name="Oslashacute" unicode="&#x1fe;" 
d="M307 755l-52 24l85 170l73 -35zM300 -12c-60 0 -109 16 -146 48l-47 -80l-60 36l60 102c-35 61 -51 148 -51 255c0 228 74 361 244 361c60 0 109 -16 146 -48l47 80l60 -36l-60 -102c35 -61 51 -148 51 -255c0 -228 -74 -361 -244 -361zM145 292c0 -45 4 -85 14 -118
l248 417c-25 29 -60 46 -107 46c-111 0 -155 -91 -155 -231v-114zM300 61c111 0 155 91 155 231v114c0 45 -4 85 -14 118l-248 -417c25 -29 60 -46 107 -46z" />
    <glyph glyph-name="Otilde" unicode="&#xd5;" 
d="M373 782c-35 0 -59 15 -80 26c-32 17 -53 24 -70 24c-22 0 -38 -10 -58 -27l-33 40c18 27 49 53 95 53c35 0 59 -15 80 -26c32 -17 53 -24 70 -24c22 0 38 10 58 27l33 -40c-18 -27 -49 -53 -95 -53zM300 -12c-170 0 -244 133 -244 361s74 361 244 361s244 -133 244 -361
s-74 -361 -244 -361zM300 61c111 0 155 91 155 231v114c0 140 -44 231 -155 231s-155 -91 -155 -231v-114c0 -140 44 -231 155 -231z" />
    <glyph glyph-name="Ohorn" unicode="&#x1a0;" 
d="M549 710c0 -35 -13 -63 -63 -63h-28c61 -58 86 -159 86 -298c0 -228 -74 -361 -244 -361s-244 133 -244 361s74 361 244 361c29 0 56 -4 80 -12h98v112h71v-100zM300 61c111 0 155 91 155 231v114c0 140 -44 231 -155 231s-155 -91 -155 -231v-114
c0 -140 44 -231 155 -231z" />
    <glyph glyph-name="uni1EDA" unicode="&#x1eda;" 
d="M307 755l-52 24l85 170l73 -35zM549 710c0 -35 -13 -63 -63 -63h-28c61 -58 86 -159 86 -298c0 -228 -74 -361 -244 -361s-244 133 -244 361s74 361 244 361c29 0 56 -4 80 -12h98v112h71v-100zM300 61c111 0 155 91 155 231v114c0 140 -44 231 -155 231
s-155 -91 -155 -231v-114c0 -140 44 -231 155 -231z" />
    <glyph glyph-name="uni1EE2" unicode="&#x1ee2;" 
d="M300 -172c-41 0 -57 20 -57 46v14c0 26 16 46 57 46s57 -20 57 -46v-14c0 -26 -16 -46 -57 -46zM549 710c0 -35 -13 -63 -63 -63h-28c61 -58 86 -159 86 -298c0 -228 -74 -361 -244 -361s-244 133 -244 361s74 361 244 361c29 0 56 -4 80 -12h98v112h71v-100zM300 61
c111 0 155 91 155 231v114c0 140 -44 231 -155 231s-155 -91 -155 -231v-114c0 -140 44 -231 155 -231z" />
    <glyph glyph-name="uni1EDC" unicode="&#x1edc;" 
d="M187 914l73 35l85 -170l-52 -24zM549 710c0 -35 -13 -63 -63 -63h-28c61 -58 86 -159 86 -298c0 -228 -74 -361 -244 -361s-244 133 -244 361s74 361 244 361c29 0 56 -4 80 -12h98v112h71v-100zM300 61c111 0 155 91 155 231v114c0 140 -44 231 -155 231
s-155 -91 -155 -231v-114c0 -140 44 -231 155 -231z" />
    <glyph glyph-name="uni1EDE" unicode="&#x1ede;" 
d="M216 935h109c51 0 70 -25 70 -55c0 -29 -18 -64 -49 -103l-24 -30l-46 23l58 104h-118v61zM549 710c0 -35 -13 -63 -63 -63h-28c61 -58 86 -159 86 -298c0 -228 -74 -361 -244 -361s-244 133 -244 361s74 361 244 361c29 0 56 -4 80 -12h98v112h71v-100zM300 61
c111 0 155 91 155 231v114c0 140 -44 231 -155 231s-155 -91 -155 -231v-114c0 -140 44 -231 155 -231z" />
    <glyph glyph-name="uni1EE0" unicode="&#x1ee0;" 
d="M363 786c-31 0 -52 13 -70 22c-25 13 -39 20 -57 20c-21 0 -38 -10 -57 -27l-33 40c18 27 48 53 91 53c31 0 52 -13 70 -22c25 -13 39 -20 57 -20c21 0 38 10 57 27l33 -40c-18 -27 -48 -53 -91 -53zM549 710c0 -35 -13 -63 -63 -63h-28c61 -58 86 -159 86 -298
c0 -228 -74 -361 -244 -361s-244 133 -244 361s74 361 244 361c29 0 56 -4 80 -12h98v112h71v-100zM300 61c111 0 155 91 155 231v114c0 140 -44 231 -155 231s-155 -91 -155 -231v-114c0 -140 44 -231 155 -231z" />
    <glyph glyph-name="uni1ED0" unicode="&#x1ed0;" 
d="M454 882l-49 23l85 170l70 -34zM350 925l110 -144l-44 -30l-117 119l-117 -119l-42 30l110 144h100zM300 -12c-170 0 -244 133 -244 361s74 361 244 361s244 -133 244 -361s-74 -361 -244 -361zM300 61c111 0 155 91 155 231v114c0 140 -44 231 -155 231
s-155 -91 -155 -231v-114c0 -140 44 -231 155 -231z" />
    <glyph glyph-name="uni1ED8" unicode="&#x1ed8;" 
d="M300 -172c-41 0 -57 20 -57 46v14c0 26 16 46 57 46s57 -20 57 -46v-14c0 -26 -16 -46 -57 -46zM350 935l111 -143l-45 -31l-117 117l-117 -117l-43 31l111 143h100zM300 -12c-170 0 -244 133 -244 361s74 361 244 361s244 -133 244 -361s-74 -361 -244 -361zM300 61
c111 0 155 91 155 231v114c0 140 -44 231 -155 231s-155 -91 -155 -231v-114c0 -140 44 -231 155 -231z" />
    <glyph glyph-name="uni1ED2" unicode="&#x1ed2;" 
d="M40 1041l70 34l85 -170l-49 -23zM350 925l110 -144l-44 -30l-117 119l-117 -119l-42 30l110 144h100zM300 -12c-170 0 -244 133 -244 361s74 361 244 361s244 -133 244 -361s-74 -361 -244 -361zM300 61c111 0 155 91 155 231v114c0 140 -44 231 -155 231
s-155 -91 -155 -231v-114c0 -140 44 -231 155 -231z" />
    <glyph glyph-name="uni1ED4" unicode="&#x1ed4;" 
d="M353 1064h109c51 0 70 -25 70 -55c0 -29 -18 -64 -49 -103l-24 -30l-46 23l58 104h-118v61zM350 925l110 -144l-44 -30l-117 119l-117 -119l-42 30l110 144h100zM300 -12c-170 0 -244 133 -244 361s74 361 244 361s244 -133 244 -361s-74 -361 -244 -361zM300 61
c111 0 155 91 155 231v114c0 140 -44 231 -155 231s-155 -91 -155 -231v-114c0 -140 44 -231 155 -231z" />
    <glyph glyph-name="uni1ED6" unicode="&#x1ed6;" 
d="M228 1062c35 0 59 -15 80 -26c32 -17 53 -24 70 -24c22 0 38 10 58 27l31 -36c-18 -27 -49 -53 -95 -53c-35 0 -59 15 -80 26c-32 17 -53 24 -70 24c-22 0 -38 -10 -58 -27l-31 36c18 27 49 53 95 53zM350 915l110 -134l-44 -30l-117 111l-117 -111l-42 30l110 134h100z
M300 -12c-170 0 -244 133 -244 361s74 361 244 361s244 -133 244 -361s-74 -361 -244 -361zM300 61c111 0 155 91 155 231v114c0 140 -44 231 -155 231s-155 -91 -155 -231v-114c0 -140 44 -231 155 -231z" />
    <glyph glyph-name="OE" unicode="&#x152;" 
d="M289 0c-169 0 -252 120 -252 349s83 349 252 349h271v-69h-168v-241h156v-69h-156v-250h168v-69h-271zM312 69v560h-19c-112 0 -171 -83 -171 -226v-108c0 -143 59 -226 171 -226h19z" />
    <glyph glyph-name="Racute" unicode="&#x154;" 
d="M315 755l-52 24l85 170l73 -35zM174 0h-84v698h254c129 0 199 -75 199 -201c0 -112 -61 -184 -172 -195l178 -302h-94l-170 298h-111v-298zM342 369c70 0 112 37 112 102v52c0 65 -42 102 -112 102h-168v-256h168z" />
    <glyph glyph-name="Rcaron" unicode="&#x158;" 
d="M258 769l-111 143l45 31l117 -117l117 117l43 -31l-111 -143h-100zM174 0h-84v698h254c129 0 199 -75 199 -201c0 -112 -61 -184 -172 -195l178 -302h-94l-170 298h-111v-298zM342 369c70 0 112 37 112 102v52c0 65 -42 102 -112 102h-168v-256h168z" />
    <glyph glyph-name="uni0156" unicode="&#x156;" 
d="M256 -62h109l-76 -189h-61zM174 0h-84v698h254c129 0 199 -75 199 -201c0 -112 -61 -184 -172 -195l178 -302h-94l-170 298h-111v-298zM342 369c70 0 112 37 112 102v52c0 65 -42 102 -112 102h-168v-256h168z" />
    <glyph glyph-name="Sacute" unicode="&#x15a;" 
d="M305 755l-52 24l85 170l73 -35zM298 -12c-125 0 -201 51 -253 123l61 50c54 -68 111 -101 195 -101c101 0 156 49 156 133c0 68 -35 104 -130 120l-78 13c-137 23 -180 102 -180 190c0 128 91 194 233 194c111 0 187 -40 234 -107l-59 -51c-39 51 -89 86 -176 86
c-94 0 -147 -41 -147 -120c0 -62 32 -102 131 -119l75 -13c137 -24 182 -100 182 -191c0 -129 -89 -207 -244 -207z" />
    <glyph glyph-name="Scaron" unicode="&#x160;" 
d="M248 769l-111 143l45 31l117 -117l117 117l43 -31l-111 -143h-100zM298 -12c-125 0 -201 51 -253 123l61 50c54 -68 111 -101 195 -101c101 0 156 49 156 133c0 68 -35 104 -130 120l-78 13c-137 23 -180 102 -180 190c0 128 91 194 233 194c111 0 187 -40 234 -107
l-59 -51c-39 51 -89 86 -176 86c-94 0 -147 -41 -147 -120c0 -62 32 -102 131 -119l75 -13c137 -24 182 -100 182 -191c0 -129 -89 -207 -244 -207z" />
    <glyph glyph-name="Scedilla" unicode="&#x15e;" 
d="M309 -207c-54 0 -85 22 -99 41l38 41c12 -15 32 -28 61 -28c25 0 44 10 44 31c0 18 -12 33 -68 41l-28 4l13 66c-109 7 -177 55 -225 122l61 50c54 -68 111 -101 195 -101c101 0 156 49 156 133c0 68 -35 104 -130 120l-78 13c-137 23 -180 102 -180 190
c0 128 91 194 233 194c111 0 187 -40 234 -107l-59 -51c-39 51 -89 86 -176 86c-94 0 -147 -41 -147 -120c0 -62 32 -102 131 -119l75 -13c137 -24 182 -100 182 -191c0 -123 -81 -199 -222 -206l-10 -50l3 -3c13 4 27 6 39 6c39 0 68 -23 68 -66c0 -57 -52 -83 -111 -83z
" />
    <glyph glyph-name="Scircumflex" unicode="&#x15c;" 
d="M348 935l111 -143l-45 -31l-117 117l-117 -117l-43 31l111 143h100zM298 -12c-125 0 -201 51 -253 123l61 50c54 -68 111 -101 195 -101c101 0 156 49 156 133c0 68 -35 104 -130 120l-78 13c-137 23 -180 102 -180 190c0 128 91 194 233 194c111 0 187 -40 234 -107
l-59 -51c-39 51 -89 86 -176 86c-94 0 -147 -41 -147 -120c0 -62 32 -102 131 -119l75 -13c137 -24 182 -100 182 -191c0 -129 -89 -207 -244 -207z" />
    <glyph glyph-name="uni0218" unicode="&#x218;" 
d="M245 -62h109l-76 -189h-61zM298 -12c-125 0 -201 51 -253 123l61 50c54 -68 111 -101 195 -101c101 0 156 49 156 133c0 68 -35 104 -130 120l-78 13c-137 23 -180 102 -180 190c0 128 91 194 233 194c111 0 187 -40 234 -107l-59 -51c-39 51 -89 86 -176 86
c-94 0 -147 -41 -147 -120c0 -62 32 -102 131 -119l75 -13c137 -24 182 -100 182 -191c0 -129 -89 -207 -244 -207z" />
    <glyph glyph-name="uni1E9E" unicode="&#x1e9e;" 
d="M63 698h473v-82l-169 -211v-4c132 -2 213 -75 213 -206c0 -130 -81 -207 -210 -207c-76 0 -139 27 -181 85l58 49c31 -41 75 -64 126 -64c72 0 118 46 118 119v36c0 73 -46 119 -119 119h-94v77l173 216h-304v-625h-84v698z" />
    <glyph glyph-name="Tbar" unicode="&#x166;" 
d="M342 336v-336h-84v336h-173v64h173v225h-233v73h550v-73h-233v-225h173v-64h-173z" />
    <glyph glyph-name="Tcaron" unicode="&#x164;" 
d="M250 769l-111 143l45 31l117 -117l117 117l43 -31l-111 -143h-100zM342 625v-625h-84v625h-233v73h550v-73h-233z" />
    <glyph glyph-name="uni0162" unicode="&#x162;" 
d="M248 -62h109l-76 -189h-61zM342 625v-625h-84v625h-233v73h550v-73h-233z" />
    <glyph glyph-name="uni021A" unicode="&#x21a;" 
d="M248 -62h109l-76 -189h-61zM342 625v-625h-84v625h-233v73h550v-73h-233z" />
    <glyph glyph-name="Thorn" unicode="&#xde;" 
d="M90 0v698h84v-145h170c129 0 199 -77 199 -199s-70 -199 -199 -199h-170v-155h-84zM174 228h170c70 0 112 36 112 100v52c0 64 -42 100 -112 100h-170v-252z" />
    <glyph glyph-name="Uacute" unicode="&#xda;" 
d="M307 755l-52 24l85 170l73 -35zM164 698v-419c0 -135 5 -218 136 -218s136 83 136 218v419h84v-399c0 -207 -30 -311 -220 -311s-220 104 -220 311v399h84z" />
    <glyph glyph-name="Ubreve" unicode="&#x16c;" 
d="M300 765c-107 0 -142 90 -161 151l51 22l21 -34c31 -50 45 -74 89 -74s58 24 89 74l21 34l51 -22c-19 -61 -54 -151 -161 -151zM164 698v-419c0 -135 5 -218 136 -218s136 83 136 218v419h84v-399c0 -207 -30 -311 -220 -311s-220 104 -220 311v399h84z" />
    <glyph glyph-name="Ucircumflex" unicode="&#xdb;" 
d="M350 935l111 -143l-45 -31l-117 117l-117 -117l-43 31l111 143h100zM164 698v-419c0 -135 5 -218 136 -218s136 83 136 218v419h84v-399c0 -207 -30 -311 -220 -311s-220 104 -220 311v399h84z" />
    <glyph glyph-name="Udieresis" unicode="&#xdc;" 
d="M207 788c-41 0 -57 20 -57 46v14c0 26 16 46 57 46s57 -20 57 -46v-14c0 -26 -16 -46 -57 -46zM393 788c-41 0 -57 20 -57 46v14c0 26 16 46 57 46s57 -20 57 -46v-14c0 -26 -16 -46 -57 -46zM164 698v-419c0 -135 5 -218 136 -218s136 83 136 218v419h84v-399
c0 -207 -30 -311 -220 -311s-220 104 -220 311v399h84z" />
    <glyph glyph-name="uni1EE4" unicode="&#x1ee4;" 
d="M300 -172c-41 0 -57 20 -57 46v14c0 26 16 46 57 46s57 -20 57 -46v-14c0 -26 -16 -46 -57 -46zM164 698v-419c0 -135 5 -218 136 -218s136 83 136 218v419h84v-399c0 -207 -30 -311 -220 -311s-220 104 -220 311v399h84z" />
    <glyph glyph-name="Ugrave" unicode="&#xd9;" 
d="M187 914l73 35l85 -170l-52 -24zM164 698v-419c0 -135 5 -218 136 -218s136 83 136 218v419h84v-399c0 -207 -30 -311 -220 -311s-220 104 -220 311v399h84z" />
    <glyph glyph-name="uni1EE6" unicode="&#x1ee6;" 
d="M216 935h109c51 0 70 -25 70 -55c0 -29 -18 -64 -49 -103l-24 -30l-46 23l58 104h-118v61zM164 698v-419c0 -135 5 -218 136 -218s136 83 136 218v419h84v-399c0 -207 -30 -311 -220 -311s-220 104 -220 311v399h84z" />
    <glyph glyph-name="Uhungarumlaut" unicode="&#x170;" 
d="M227 756l-48 22l85 170l69 -33zM387 756l-48 22l85 170l69 -33zM164 698v-419c0 -135 5 -218 136 -218s136 83 136 218v419h84v-399c0 -207 -30 -311 -220 -311s-220 104 -220 311v399h84z" />
    <glyph glyph-name="Umacron" unicode="&#x16a;" 
d="M160 875h280v-68h-280v68zM164 698v-419c0 -135 5 -218 136 -218s136 83 136 218v419h84v-399c0 -207 -30 -311 -220 -311s-220 104 -220 311v399h84z" />
    <glyph glyph-name="Uogonek" unicode="&#x172;" 
d="M164 698v-419c0 -135 5 -218 136 -218s136 83 136 218v419h84v-399c0 -153 -10 -228 -107 -299c-44 -32 -113 -72 -113 -116c0 -24 20 -35 42 -35s39 10 52 26l40 -41c-13 -22 -43 -41 -93 -41c-61 0 -109 28 -109 79c0 46 40 83 115 117l-2 4c-16 -4 -32 -5 -50 -5
c-185 0 -215 107 -215 311v399h84z" />
    <glyph glyph-name="Uring" unicode="&#x16e;" 
d="M300 746c-65 0 -116 49 -116 115s51 115 116 115s116 -49 116 -115s-51 -115 -116 -115zM300 795c36 0 58 20 58 55v22c0 35 -22 55 -58 55s-58 -20 -58 -55v-22c0 -35 22 -55 58 -55zM164 698v-419c0 -135 5 -218 136 -218s136 83 136 218v419h84v-399
c0 -207 -30 -311 -220 -311s-220 104 -220 311v399h84z" />
    <glyph glyph-name="Utilde" unicode="&#x168;" 
d="M373 782c-35 0 -59 15 -80 26c-32 17 -53 24 -70 24c-22 0 -38 -10 -58 -27l-33 40c18 27 49 53 95 53c35 0 59 -15 80 -26c32 -17 53 -24 70 -24c22 0 38 10 58 27l33 -40c-18 -27 -49 -53 -95 -53zM164 698v-419c0 -135 5 -218 136 -218s136 83 136 218v419h84v-399
c0 -207 -30 -311 -220 -311s-220 104 -220 311v399h84z" />
    <glyph glyph-name="Uhorn" unicode="&#x1af;" 
d="M164 698v-419c0 -135 5 -218 136 -218s136 83 136 218v419h93v112h71v-102c0 -35 -13 -63 -63 -63h-17v-346c0 -207 -30 -311 -220 -311s-220 104 -220 311v399h84z" />
    <glyph glyph-name="uni1EE8" unicode="&#x1ee8;" 
d="M307 755l-52 24l85 170l73 -35zM164 698v-419c0 -135 5 -218 136 -218s136 83 136 218v419h93v112h71v-102c0 -35 -13 -63 -63 -63h-17v-346c0 -207 -30 -311 -220 -311s-220 104 -220 311v399h84z" />
    <glyph glyph-name="uni1EF0" unicode="&#x1ef0;" 
d="M300 -172c-41 0 -57 20 -57 46v14c0 26 16 46 57 46s57 -20 57 -46v-14c0 -26 -16 -46 -57 -46zM164 698v-419c0 -135 5 -218 136 -218s136 83 136 218v419h93v112h71v-102c0 -35 -13 -63 -63 -63h-17v-346c0 -207 -30 -311 -220 -311s-220 104 -220 311v399h84z" />
    <glyph glyph-name="uni1EEA" unicode="&#x1eea;" 
d="M187 914l73 35l85 -170l-52 -24zM164 698v-419c0 -135 5 -218 136 -218s136 83 136 218v419h93v112h71v-102c0 -35 -13 -63 -63 -63h-17v-346c0 -207 -30 -311 -220 -311s-220 104 -220 311v399h84z" />
    <glyph glyph-name="uni1EEC" unicode="&#x1eec;" 
d="M216 935h109c51 0 70 -25 70 -55c0 -29 -18 -64 -49 -103l-24 -30l-46 23l58 104h-118v61zM164 698v-419c0 -135 5 -218 136 -218s136 83 136 218v419h93v112h71v-102c0 -35 -13 -63 -63 -63h-17v-346c0 -207 -30 -311 -220 -311s-220 104 -220 311v399h84z" />
    <glyph glyph-name="uni1EEE" unicode="&#x1eee;" 
d="M363 786c-31 0 -52 13 -70 22c-25 13 -39 20 -57 20c-21 0 -38 -10 -57 -27l-33 40c18 27 48 53 91 53c31 0 52 -13 70 -22c25 -13 39 -20 57 -20c21 0 38 10 57 27l33 -40c-18 -27 -48 -53 -91 -53zM164 698v-419c0 -135 5 -218 136 -218s136 83 136 218v419h93v112h71
v-102c0 -35 -13 -63 -63 -63h-17v-346c0 -207 -30 -311 -220 -311s-220 104 -220 311v399h84z" />
    <glyph glyph-name="Wacute" unicode="&#x1e82;" horiz-adv-x="900" 
d="M447 755l-52 24l85 170l73 -35zM195 0l-170 698h89l75 -336l58 -261h2l65 261l88 336h96l85 -336l65 -260h3l60 260l79 336h86l-179 -698h-93l-91 348l-64 256h-2l-66 -256l-93 -348h-93z" />
    <glyph glyph-name="Wcircumflex" unicode="&#x174;" horiz-adv-x="900" 
d="M500 935l111 -143l-45 -31l-117 117l-117 -117l-43 31l111 143h100zM195 0l-170 698h89l75 -336l58 -261h2l65 261l88 336h96l85 -336l65 -260h3l60 260l79 336h86l-179 -698h-93l-91 348l-64 256h-2l-66 -256l-93 -348h-93z" />
    <glyph glyph-name="Wdieresis" unicode="&#x1e84;" horiz-adv-x="900" 
d="M357 788c-41 0 -57 20 -57 46v14c0 26 16 46 57 46s57 -20 57 -46v-14c0 -26 -16 -46 -57 -46zM543 788c-41 0 -57 20 -57 46v14c0 26 16 46 57 46s57 -20 57 -46v-14c0 -26 -16 -46 -57 -46zM195 0l-170 698h89l75 -336l58 -261h2l65 261l88 336h96l85 -336l65 -260h3
l60 260l79 336h86l-179 -698h-93l-91 348l-64 256h-2l-66 -256l-93 -348h-93z" />
    <glyph glyph-name="Wgrave" unicode="&#x1e80;" horiz-adv-x="900" 
d="M327 914l73 35l85 -170l-52 -24zM195 0l-170 698h89l75 -336l58 -261h2l65 261l88 336h96l85 -336l65 -260h3l60 260l79 336h86l-179 -698h-93l-91 348l-64 256h-2l-66 -256l-93 -348h-93z" />
    <glyph glyph-name="Yacute" unicode="&#xdd;" 
d="M307 755l-52 24l85 170l73 -35zM258 0v274l-241 424h96l100 -182l85 -159h4l87 159l100 182h94l-241 -424v-274h-84z" />
    <glyph glyph-name="Ycircumflex" unicode="&#x176;" 
d="M350 935l111 -143l-45 -31l-117 117l-117 -117l-43 31l111 143h100zM258 0v274l-241 424h96l100 -182l85 -159h4l87 159l100 182h94l-241 -424v-274h-84z" />
    <glyph glyph-name="uni1EF4" unicode="&#x1ef4;" 
d="M300 -172c-41 0 -57 20 -57 46v14c0 26 16 46 57 46s57 -20 57 -46v-14c0 -26 -16 -46 -57 -46zM258 0v274l-241 424h96l100 -182l85 -159h4l87 159l100 182h94l-241 -424v-274h-84z" />
    <glyph glyph-name="Ydieresis" unicode="&#x178;" 
d="M207 788c-41 0 -57 20 -57 46v14c0 26 16 46 57 46s57 -20 57 -46v-14c0 -26 -16 -46 -57 -46zM393 788c-41 0 -57 20 -57 46v14c0 26 16 46 57 46s57 -20 57 -46v-14c0 -26 -16 -46 -57 -46zM258 0v274l-241 424h96l100 -182l85 -159h4l87 159l100 182h94l-241 -424
v-274h-84z" />
    <glyph glyph-name="Ygrave" unicode="&#x1ef2;" 
d="M187 914l73 35l85 -170l-52 -24zM258 0v274l-241 424h96l100 -182l85 -159h4l87 159l100 182h94l-241 -424v-274h-84z" />
    <glyph glyph-name="uni1EF6" unicode="&#x1ef6;" 
d="M216 935h109c51 0 70 -25 70 -55c0 -29 -18 -64 -49 -103l-24 -30l-46 23l58 104h-118v61zM258 0v274l-241 424h96l100 -182l85 -159h4l87 159l100 182h94l-241 -424v-274h-84z" />
    <glyph glyph-name="uni1EF8" unicode="&#x1ef8;" 
d="M373 782c-35 0 -59 15 -80 26c-32 17 -53 24 -70 24c-22 0 -38 -10 -58 -27l-33 40c18 27 49 53 95 53c35 0 59 -15 80 -26c32 -17 53 -24 70 -24c22 0 38 10 58 27l33 -40c-18 -27 -49 -53 -95 -53zM258 0v274l-241 424h96l100 -182l85 -159h4l87 159l100 182h94
l-241 -424v-274h-84z" />
    <glyph glyph-name="Zacute" unicode="&#x179;" 
d="M307 755l-52 24l85 170l73 -35zM552 0h-504v75l395 550h-378v73h470v-75l-396 -550h413v-73z" />
    <glyph glyph-name="Zcaron" unicode="&#x17d;" 
d="M250 769l-111 143l45 31l117 -117l117 117l43 -31l-111 -143h-100zM552 0h-504v75l395 550h-378v73h470v-75l-396 -550h413v-73z" />
    <glyph glyph-name="Zdotaccent" unicode="&#x17b;" 
d="M300 782c-46 0 -63 22 -63 51v16c0 29 17 51 63 51s63 -22 63 -51v-16c0 -29 -17 -51 -63 -51zM552 0h-504v75l395 550h-378v73h470v-75l-396 -550h413v-73z" />
    <glyph glyph-name="uni00B5" unicode="&#xb5;" 
d="M98 -200v716h80v-317c0 -94 41 -140 119 -140c64 0 125 31 125 99v358h80v-516h-80v84h-4c-23 -53 -60 -96 -140 -96c-51 0 -84 17 -103 52h-4l7 -84v-156h-80z" />
    <glyph glyph-name="uni2206" unicode="&#x2206;" 
d="M46 75l199 623h111l198 -623v-75h-508v75zM304 610h-9l-164 -537h336z" />
    <glyph glyph-name="product" unicode="&#x220f;" 
d="M78 698h444v-698h-84v625h-276v-625h-84v698z" />
    <glyph glyph-name="summation" unicode="&#x2211;" 
d="M531 -200h-468v75l267 372v4l-267 372v75h468v-73h-378l251 -349v-54l-251 -349h378v-73z" />
    <glyph glyph-name="uni2126" unicode="&#x2126;" 
d="M54 68h137v10c-87 51 -127 166 -127 315c0 197 70 317 236 317s236 -120 236 -317c0 -149 -40 -264 -127 -315v-10h137v-68h-208v104c65 23 109 125 109 227v107c0 126 -41 200 -147 200c-105 0 -147 -74 -147 -200v-107c0 -102 44 -204 109 -227v-104h-208v68z" />
    <glyph glyph-name="pi" unicode="&#x3c0;" 
d="M112 448h-92v68h545v-68h-92v-380h92v-68h-58c-78 0 -114 49 -114 118v330h-201v-448h-80v448z" />
    <glyph glyph-name="uni2070" unicode="&#x2070;" 
d="M300 323c-100 0 -145 69 -145 191c0 121 45 190 145 190s145 -69 145 -190c0 -122 -45 -191 -145 -191zM300 374c57 0 78 42 78 107v65c0 65 -21 107 -78 107s-78 -42 -78 -107v-65c0 -65 21 -107 78 -107zM300 484c-22 0 -29 11 -29 24v11c0 13 7 24 29 24
s29 -11 29 -24v-11c0 -13 -7 -24 -29 -24z" />
    <glyph glyph-name="uni00B9" unicode="&#xb9;" 
d="M176 329v50h109v265l-106 -55l-25 44l126 65h68v-319h98v-50h-270z" />
    <glyph glyph-name="uni00B2" unicode="&#xb2;" 
d="M438 329h-272v57l130 105c39 32 62 62 62 98v6c0 34 -23 57 -65 57c-46 0 -67 -26 -78 -58l-54 20c16 47 56 90 136 90c82 0 128 -45 128 -109c0 -58 -39 -98 -95 -141l-97 -75h205v-50z" />
    <glyph glyph-name="uni00B3" unicode="&#xb3;" 
d="M282 546c51 0 75 22 75 52v4c0 33 -25 52 -65 52c-39 0 -65 -17 -83 -45l-43 34c23 33 62 61 128 61c75 0 130 -35 130 -95c0 -48 -36 -76 -78 -85v-3c45 -8 84 -37 84 -90c0 -65 -56 -108 -143 -108c-73 0 -111 32 -136 66l47 34c19 -29 43 -50 89 -50c50 0 77 23 77 61
v6c0 38 -27 55 -77 55h-45v51h40z" />
    <glyph glyph-name="uni2074" unicode="&#x2074;" 
d="M336 329v72h-189v52l164 245h85v-249h56v-48h-56v-72h-60zM336 641h-4l-130 -192h134v192z" />
    <glyph glyph-name="uni2075" unicode="&#x2075;" 
d="M415 648h-179l-11 -133h4c18 29 39 49 84 49c69 0 122 -43 122 -115c0 -74 -53 -126 -143 -126c-71 0 -108 32 -132 66l45 34c20 -29 42 -50 88 -50c50 0 76 26 76 68v5c0 42 -26 68 -76 68c-35 0 -53 -14 -68 -29l-52 7l14 206h228v-50z" />
    <glyph glyph-name="uni2076" unicode="&#x2076;" 
d="M302 323c-89 0 -141 55 -141 144c0 106 78 190 144 231h84c-92 -61 -144 -109 -163 -188l4 -1c17 28 44 53 94 53c68 0 119 -44 119 -114c0 -74 -56 -125 -141 -125zM302 371c46 0 76 23 76 69v5c0 46 -30 69 -76 69s-76 -23 -76 -69v-5c0 -46 30 -69 76 -69z" />
    <glyph glyph-name="uni2077" unicode="&#x2077;" 
d="M225 329l148 319h-155v-68h-54v118h272v-52l-144 -317h-67z" />
    <glyph glyph-name="uni2078" unicode="&#x2078;" 
d="M300 323c-93 0 -144 46 -144 107c0 48 33 78 80 90v4c-40 13 -67 43 -67 85c0 57 48 95 131 95s131 -38 131 -95c0 -42 -27 -72 -67 -85v-4c48 -12 80 -42 80 -90c0 -61 -51 -107 -144 -107zM300 543c46 0 69 19 69 52v9c0 33 -23 52 -69 52s-69 -19 -69 -52v-9
c0 -33 23 -52 69 -52zM300 371c50 0 77 21 77 57v12c0 36 -27 57 -77 57s-77 -21 -77 -57v-12c0 -36 27 -57 77 -57z" />
    <glyph glyph-name="uni2079" unicode="&#x2079;" 
d="M438 560c0 -106 -76 -190 -143 -231h-84c91 61 143 109 162 188l-4 1c-16 -29 -43 -54 -93 -54c-69 0 -119 45 -119 115c0 74 55 125 141 125c88 0 140 -55 140 -144zM297 512c46 0 76 23 76 69v6c0 46 -30 69 -76 69s-76 -23 -76 -69v-6c0 -46 30 -69 76 -69z" />
    <glyph glyph-name="uni2080" unicode="&#x2080;" 
d="M300 -6c-100 0 -145 69 -145 191c0 121 45 190 145 190s145 -69 145 -190c0 -122 -45 -191 -145 -191zM300 45c57 0 78 42 78 107v65c0 65 -21 107 -78 107s-78 -42 -78 -107v-65c0 -65 21 -107 78 -107zM300 155c-22 0 -29 11 -29 24v11c0 13 7 24 29 24s29 -11 29 -24
v-11c0 -13 -7 -24 -29 -24z" />
    <glyph glyph-name="uni2081" unicode="&#x2081;" 
d="M176 0v50h109v265l-106 -55l-25 44l126 65h68v-319h98v-50h-270z" />
    <glyph glyph-name="uni2082" unicode="&#x2082;" 
d="M438 0h-272v57l130 105c39 32 62 64 62 98v6c0 34 -23 57 -65 57c-46 0 -67 -26 -78 -58l-54 20c16 47 56 90 136 90c82 0 128 -45 128 -109c0 -58 -39 -98 -95 -141l-97 -75h205v-50z" />
    <glyph glyph-name="uni2083" unicode="&#x2083;" 
d="M282 217c51 0 75 22 75 52v4c0 33 -25 52 -65 52c-39 0 -65 -17 -83 -45l-43 34c23 33 62 61 128 61c75 0 130 -35 130 -95c0 -48 -36 -76 -78 -85v-3c45 -8 84 -37 84 -90c0 -65 -56 -108 -143 -108c-73 0 -111 32 -136 66l47 34c19 -29 43 -50 89 -50c50 0 77 23 77 61
v6c0 38 -27 55 -77 55h-45v51h40z" />
    <glyph glyph-name="uni2084" unicode="&#x2084;" 
d="M336 0v72h-189v52l164 245h85v-249h56v-48h-56v-72h-60zM336 312h-4l-130 -192h134v192z" />
    <glyph glyph-name="uni2085" unicode="&#x2085;" 
d="M236 319l-11 -133h4c18 29 39 49 84 49c69 0 122 -43 122 -115c0 -74 -53 -126 -143 -126c-71 0 -108 32 -132 66l45 34c20 -29 42 -50 88 -50c50 0 76 26 76 68v5c0 42 -26 68 -76 68c-35 0 -53 -14 -68 -29l-52 7l14 206h228v-50h-179z" />
    <glyph glyph-name="uni2086" unicode="&#x2086;" 
d="M302 -6c-89 0 -141 55 -141 144c0 106 78 190 144 231h84c-92 -61 -144 -109 -163 -188l4 -1c17 28 44 53 94 53c68 0 119 -44 119 -114c0 -74 -56 -125 -141 -125zM302 42c46 0 76 23 76 69v5c0 46 -30 69 -76 69s-76 -23 -76 -69v-5c0 -46 30 -69 76 -69z" />
    <glyph glyph-name="uni2087" unicode="&#x2087;" 
d="M225 0l148 319h-155v-67h-54v117h272v-52l-144 -317h-67z" />
    <glyph glyph-name="uni2088" unicode="&#x2088;" 
d="M300 -6c-93 0 -144 46 -144 107c0 48 33 78 80 90v4c-40 13 -67 43 -67 85c0 57 48 95 131 95s131 -38 131 -95c0 -42 -27 -72 -67 -85v-4c48 -12 80 -42 80 -90c0 -61 -51 -107 -144 -107zM300 42c50 0 77 21 77 57v12c0 36 -27 57 -77 57s-77 -21 -77 -57v-12
c0 -36 27 -57 77 -57zM300 214c46 0 69 19 69 52v9c0 33 -23 52 -69 52s-69 -19 -69 -52v-9c0 -33 23 -52 69 -52z" />
    <glyph glyph-name="uni2089" unicode="&#x2089;" 
d="M438 231c0 -106 -76 -190 -143 -231h-84c91 61 143 109 162 188l-4 1c-16 -29 -43 -54 -93 -54c-69 0 -119 45 -119 115c0 74 55 125 141 125c88 0 140 -55 140 -144zM297 183c46 0 76 23 76 69v6c0 46 -30 69 -76 69s-76 -23 -76 -69v-6c0 -46 30 -69 76 -69z" />
    <glyph glyph-name="zero.numr" 
d="M300 357c-91 0 -132 64 -132 174c0 109 41 173 132 173s132 -64 132 -173c0 -110 -41 -174 -132 -174zM300 407c49 0 68 36 68 93v61c0 57 -19 93 -68 93s-68 -36 -68 -93v-61c0 -57 19 -93 68 -93zM300 502c-22 0 -29 11 -29 24v9c0 13 7 24 29 24s29 -11 29 -24v-9
c0 -13 -7 -24 -29 -24z" />
    <glyph glyph-name="one.numr" 
d="M189 413h94v230l-89 -45l-24 44l108 56h68v-285h83v-50h-240v50z" />
    <glyph glyph-name="two.numr" 
d="M179 421l113 90c36 29 54 59 54 90v5c0 25 -19 46 -53 46c-35 0 -54 -21 -67 -55l-53 22c15 46 54 85 125 85c75 0 114 -44 114 -97c0 -55 -41 -97 -90 -135l-77 -59h180v-50h-246v58z" />
    <glyph glyph-name="three.numr" 
d="M293 357c-69 0 -105 34 -126 71l47 33c16 -30 37 -53 79 -53c39 0 62 20 62 50v7c0 30 -25 46 -69 46h-35v50h35c42 0 63 18 63 41v7c0 26 -21 44 -56 44c-31 0 -56 -15 -72 -41l-42 34c24 35 58 58 116 58c71 0 118 -34 118 -87c0 -44 -32 -70 -70 -77v-4
c43 -7 76 -33 76 -80c0 -60 -51 -99 -126 -99z" />
    <glyph glyph-name="four.numr" 
d="M327 427h-163v59l142 212h82v-223h47v-48h-47v-64h-61v64zM327 475v170h-3l-114 -170h117z" />
    <glyph glyph-name="five.numr" 
d="M298 357c-67 0 -101 33 -120 69l45 34c17 -29 36 -52 75 -52c41 0 66 25 66 61v3c0 34 -27 56 -64 56c-30 0 -48 -15 -59 -27l-53 8l13 189h208v-51h-160l-9 -117h5c15 29 33 48 75 48c61 0 108 -38 108 -104c0 -67 -48 -117 -130 -117z" />
    <glyph glyph-name="six.numr" 
d="M301 357c-80 0 -128 52 -128 132c0 96 67 171 125 209h87c-84 -58 -137 -103 -153 -171l6 -1c14 27 40 52 87 52c60 0 104 -41 104 -104c0 -68 -50 -117 -128 -117zM301 405c39 0 65 22 65 58v11c0 36 -26 58 -65 58s-65 -22 -65 -58v-11c0 -36 26 -58 65 -58z" />
    <glyph glyph-name="seven.numr" 
d="M362 646h-129v-64h-55v116h245v-54l-126 -281h-64z" />
    <glyph glyph-name="eight.numr" 
d="M300 357c-82 0 -127 42 -127 97c0 45 30 71 72 82v4c-37 12 -64 37 -64 76c0 51 43 88 119 88s119 -37 119 -88c0 -39 -27 -64 -64 -76v-4c42 -11 72 -37 72 -82c0 -55 -45 -97 -127 -97zM300 557c39 0 60 18 60 46v7c0 28 -21 46 -60 46s-60 -18 -60 -46v-7
c0 -28 21 -46 60 -46zM300 405c41 0 65 19 65 50v9c0 31 -24 50 -65 50s-65 -19 -65 -50v-9c0 -31 24 -50 65 -50z" />
    <glyph glyph-name="nine.numr" 
d="M215 363c84 58 137 103 153 171l-6 1c-14 -27 -40 -52 -87 -52c-60 0 -104 41 -104 104c0 68 50 117 128 117c80 0 128 -52 128 -132c0 -96 -67 -171 -125 -209h-87zM299 529c39 0 65 22 65 58v11c0 36 -26 58 -65 58s-65 -22 -65 -58v-11c0 -36 26 -58 65 -58z" />
    <glyph glyph-name="zero.dnom" 
d="M300 -6c-91 0 -132 64 -132 174c0 109 41 173 132 173s132 -64 132 -173c0 -110 -41 -174 -132 -174zM300 44c49 0 68 36 68 93v61c0 57 -19 93 -68 93s-68 -36 -68 -93v-61c0 -57 19 -93 68 -93zM300 139c-22 0 -29 11 -29 24v9c0 13 7 24 29 24s29 -11 29 -24v-9
c0 -13 -7 -24 -29 -24z" />
    <glyph glyph-name="one.dnom" 
d="M189 50h94v230l-89 -45l-24 44l108 56h68v-285h83v-50h-240v50z" />
    <glyph glyph-name="two.dnom" 
d="M179 58l113 90c36 29 54 59 54 90v5c0 25 -19 46 -53 46c-35 0 -54 -21 -67 -55l-53 22c15 46 54 85 125 85c75 0 114 -44 114 -97c0 -55 -41 -97 -90 -135l-77 -59h180v-50h-246v58z" />
    <glyph glyph-name="three.dnom" 
d="M293 -6c-69 0 -105 34 -126 71l47 33c16 -30 37 -53 79 -53c39 0 62 20 62 50v7c0 30 -25 46 -69 46h-35v50h35c42 0 63 18 63 41v7c0 26 -21 44 -56 44c-31 0 -56 -15 -72 -41l-42 34c24 35 58 58 116 58c71 0 118 -34 118 -87c0 -44 -32 -70 -70 -77v-4
c43 -7 76 -33 76 -80c0 -60 -51 -99 -126 -99z" />
    <glyph glyph-name="four.dnom" 
d="M327 64h-163v59l142 212h82v-223h47v-48h-47v-64h-61v64zM327 112v170h-3l-114 -170h117z" />
    <glyph glyph-name="five.dnom" 
d="M298 -6c-67 0 -101 33 -120 69l45 34c17 -29 36 -52 75 -52c41 0 66 25 66 61v3c0 34 -27 56 -64 56c-30 0 -48 -15 -59 -27l-53 8l13 189h208v-51h-160l-9 -117h5c15 29 33 48 75 48c61 0 108 -38 108 -104c0 -67 -48 -117 -130 -117z" />
    <glyph glyph-name="six.dnom" 
d="M301 -6c-80 0 -128 52 -128 132c0 96 67 171 125 209h87c-84 -58 -137 -103 -153 -171l6 -1c14 27 40 52 87 52c60 0 104 -41 104 -104c0 -68 -50 -117 -128 -117zM301 42c39 0 65 22 65 58v11c0 36 -26 58 -65 58s-65 -22 -65 -58v-11c0 -36 26 -58 65 -58z" />
    <glyph glyph-name="seven.dnom" 
d="M362 283h-129v-64h-55v116h245v-54l-126 -281h-64z" />
    <glyph glyph-name="eight.dnom" 
d="M300 -6c-82 0 -127 42 -127 97c0 45 30 71 72 82v4c-37 12 -64 37 -64 76c0 51 43 88 119 88s119 -37 119 -88c0 -39 -27 -64 -64 -76v-4c42 -11 72 -37 72 -82c0 -55 -45 -97 -127 -97zM300 194c39 0 60 18 60 46v7c0 28 -21 46 -60 46s-60 -18 -60 -46v-7
c0 -28 21 -46 60 -46zM300 42c41 0 65 19 65 50v9c0 31 -24 50 -65 50s-65 -19 -65 -50v-9c0 -31 24 -50 65 -50z" />
    <glyph glyph-name="nine.dnom" 
d="M215 0c84 58 137 103 153 171l-6 1c-14 -27 -40 -52 -87 -52c-60 0 -104 41 -104 104c0 68 50 117 128 117c80 0 128 -52 128 -132c0 -96 -67 -171 -125 -209h-87zM299 166c39 0 65 22 65 58v11c0 36 -26 58 -65 58s-65 -22 -65 -58v-11c0 -36 26 -58 65 -58z" />
    <glyph glyph-name="onehalf" unicode="&#xbd;" 
d="M329 58l113 90c36 29 54 59 54 90v5c0 25 -19 46 -53 46c-35 0 -54 -21 -67 -55l-53 22c15 46 54 85 125 85c75 0 114 -44 114 -97c0 -55 -41 -97 -90 -135l-77 -59h180v-50h-246v58zM39 413h94v230l-89 -45l-24 44l108 56h68v-285h83v-50h-240v50zM510 698h72l-160 -300
h-72zM178 300h72l-160 -300h-72z" />
    <glyph glyph-name="uni2153" unicode="&#x2153;" 
d="M443 -6c-69 0 -105 34 -126 71l47 33c16 -30 37 -53 79 -53c39 0 62 20 62 50v7c0 30 -25 46 -69 46h-35v50h35c42 0 63 18 63 41v7c0 26 -21 44 -56 44c-31 0 -56 -15 -72 -41l-42 34c24 35 58 58 116 58c71 0 118 -34 118 -87c0 -44 -32 -70 -70 -77v-4
c43 -7 76 -33 76 -80c0 -60 -51 -99 -126 -99zM39 413h94v230l-89 -45l-24 44l108 56h68v-285h83v-50h-240v50zM510 698h72l-160 -300h-72zM178 300h72l-160 -300h-72z" />
    <glyph glyph-name="uni2154" unicode="&#x2154;" 
d="M443 -6c-69 0 -105 34 -126 71l47 33c16 -30 37 -53 79 -53c39 0 62 20 62 50v7c0 30 -25 46 -69 46h-35v50h35c42 0 63 18 63 41v7c0 26 -21 44 -56 44c-31 0 -56 -15 -72 -41l-42 34c24 35 58 58 116 58c71 0 118 -34 118 -87c0 -44 -32 -70 -70 -77v-4
c43 -7 76 -33 76 -80c0 -60 -51 -99 -126 -99zM29 421l113 90c36 29 54 59 54 90v5c0 25 -19 46 -53 46c-35 0 -54 -21 -67 -55l-53 22c15 46 54 85 125 85c75 0 114 -44 114 -97c0 -55 -41 -97 -90 -135l-77 -59h180v-50h-246v58zM510 698h72l-160 -300h-72zM178 300h72
l-160 -300h-72z" />
    <glyph glyph-name="onequarter" unicode="&#xbc;" 
d="M477 64h-163v59l142 212h82v-223h47v-48h-47v-64h-61v64zM477 112v170h-3l-114 -170h117zM39 413h94v230l-89 -45l-24 44l108 56h68v-285h83v-50h-240v50zM510 698h72l-160 -300h-72zM178 300h72l-160 -300h-72z" />
    <glyph glyph-name="threequarters" unicode="&#xbe;" 
d="M477 64h-163v59l142 212h82v-223h47v-48h-47v-64h-61v64zM477 112v170h-3l-114 -170h117zM143 357c-69 0 -105 34 -126 71l47 33c16 -30 37 -53 79 -53c39 0 62 20 62 50v7c0 30 -25 46 -69 46h-35v50h35c42 0 63 18 63 41v7c0 26 -21 44 -56 44c-31 0 -56 -15 -72 -41
l-42 34c24 35 58 58 116 58c71 0 118 -34 118 -87c0 -44 -32 -70 -70 -77v-4c43 -7 76 -33 76 -80c0 -60 -51 -99 -126 -99zM510 698h72l-160 -300h-72zM178 300h72l-160 -300h-72z" />
    <glyph glyph-name="uni2155" unicode="&#x2155;" 
d="M448 -6c-67 0 -101 33 -120 69l45 34c17 -29 36 -52 75 -52c41 0 66 25 66 61v3c0 34 -27 56 -64 56c-30 0 -48 -15 -59 -27l-53 8l13 189h208v-51h-160l-9 -117h5c15 29 33 48 75 48c61 0 108 -38 108 -104c0 -67 -48 -117 -130 -117zM39 413h94v230l-89 -45l-24 44
l108 56h68v-285h83v-50h-240v50zM510 698h72l-160 -300h-72zM178 300h72l-160 -300h-72z" />
    <glyph glyph-name="uni2156" unicode="&#x2156;" 
d="M448 -6c-67 0 -101 33 -120 69l45 34c17 -29 36 -52 75 -52c41 0 66 25 66 61v3c0 34 -27 56 -64 56c-30 0 -48 -15 -59 -27l-53 8l13 189h208v-51h-160l-9 -117h5c15 29 33 48 75 48c61 0 108 -38 108 -104c0 -67 -48 -117 -130 -117zM29 421l113 90c36 29 54 59 54 90
v5c0 25 -19 46 -53 46c-35 0 -54 -21 -67 -55l-53 22c15 46 54 85 125 85c75 0 114 -44 114 -97c0 -55 -41 -97 -90 -135l-77 -59h180v-50h-246v58zM510 698h72l-160 -300h-72zM178 300h72l-160 -300h-72z" />
    <glyph glyph-name="uni2157" unicode="&#x2157;" 
d="M448 -6c-67 0 -101 33 -120 69l45 34c17 -29 36 -52 75 -52c41 0 66 25 66 61v3c0 34 -27 56 -64 56c-30 0 -48 -15 -59 -27l-53 8l13 189h208v-51h-160l-9 -117h5c15 29 33 48 75 48c61 0 108 -38 108 -104c0 -67 -48 -117 -130 -117zM143 357c-69 0 -105 34 -126 71
l47 33c16 -30 37 -53 79 -53c39 0 62 20 62 50v7c0 30 -25 46 -69 46h-35v50h35c42 0 63 18 63 41v7c0 26 -21 44 -56 44c-31 0 -56 -15 -72 -41l-42 34c24 35 58 58 116 58c71 0 118 -34 118 -87c0 -44 -32 -70 -70 -77v-4c43 -7 76 -33 76 -80c0 -60 -51 -99 -126 -99z
M510 698h72l-160 -300h-72zM178 300h72l-160 -300h-72z" />
    <glyph glyph-name="uni2158" unicode="&#x2158;" 
d="M448 -6c-67 0 -101 33 -120 69l45 34c17 -29 36 -52 75 -52c41 0 66 25 66 61v3c0 34 -27 56 -64 56c-30 0 -48 -15 -59 -27l-53 8l13 189h208v-51h-160l-9 -117h5c15 29 33 48 75 48c61 0 108 -38 108 -104c0 -67 -48 -117 -130 -117zM177 427h-163v59l142 212h82v-223
h47v-48h-47v-64h-61v64zM177 475v170h-3l-114 -170h117zM510 698h72l-160 -300h-72zM178 300h72l-160 -300h-72z" />
    <glyph glyph-name="uni2159" unicode="&#x2159;" 
d="M451 -6c-80 0 -128 52 -128 132c0 96 67 171 125 209h87c-84 -58 -137 -103 -153 -171l6 -1c14 27 40 52 87 52c60 0 104 -41 104 -104c0 -68 -50 -117 -128 -117zM451 42c39 0 65 22 65 58v11c0 36 -26 58 -65 58s-65 -22 -65 -58v-11c0 -36 26 -58 65 -58zM39 413h94
v230l-89 -45l-24 44l108 56h68v-285h83v-50h-240v50zM510 698h72l-160 -300h-72zM178 300h72l-160 -300h-72z" />
    <glyph glyph-name="uni215A" unicode="&#x215a;" 
d="M451 -6c-80 0 -128 52 -128 132c0 96 67 171 125 209h87c-84 -58 -137 -103 -153 -171l6 -1c14 27 40 52 87 52c60 0 104 -41 104 -104c0 -68 -50 -117 -128 -117zM451 42c39 0 65 22 65 58v11c0 36 -26 58 -65 58s-65 -22 -65 -58v-11c0 -36 26 -58 65 -58zM148 357
c-67 0 -101 33 -120 69l45 34c17 -29 36 -52 75 -52c41 0 66 25 66 61v3c0 34 -27 56 -64 56c-30 0 -48 -15 -59 -27l-53 8l13 189h208v-51h-160l-9 -117h5c15 29 33 48 75 48c61 0 108 -38 108 -104c0 -67 -48 -117 -130 -117zM510 698h72l-160 -300h-72zM178 300h72
l-160 -300h-72z" />
    <glyph glyph-name="uni2150" unicode="&#x2150;" 
d="M512 283h-129v-64h-55v116h245v-54l-126 -281h-64zM39 413h94v230l-89 -45l-24 44l108 56h68v-285h83v-50h-240v50zM510 698h72l-160 -300h-72zM178 300h72l-160 -300h-72z" />
    <glyph glyph-name="uni215B" unicode="&#x215b;" 
d="M450 -6c-82 0 -127 42 -127 97c0 45 30 71 72 82v4c-37 12 -64 37 -64 76c0 51 43 88 119 88s119 -37 119 -88c0 -39 -27 -64 -64 -76v-4c42 -11 72 -37 72 -82c0 -55 -45 -97 -127 -97zM450 194c39 0 60 18 60 46v7c0 28 -21 46 -60 46s-60 -18 -60 -46v-7
c0 -28 21 -46 60 -46zM450 42c41 0 65 19 65 50v9c0 31 -24 50 -65 50s-65 -19 -65 -50v-9c0 -31 24 -50 65 -50zM39 413h94v230l-89 -45l-24 44l108 56h68v-285h83v-50h-240v50zM510 698h72l-160 -300h-72zM178 300h72l-160 -300h-72z" />
    <glyph glyph-name="uni215C" unicode="&#x215c;" 
d="M450 -6c-82 0 -127 42 -127 97c0 45 30 71 72 82v4c-37 12 -64 37 -64 76c0 51 43 88 119 88s119 -37 119 -88c0 -39 -27 -64 -64 -76v-4c42 -11 72 -37 72 -82c0 -55 -45 -97 -127 -97zM450 194c39 0 60 18 60 46v7c0 28 -21 46 -60 46s-60 -18 -60 -46v-7
c0 -28 21 -46 60 -46zM450 42c41 0 65 19 65 50v9c0 31 -24 50 -65 50s-65 -19 -65 -50v-9c0 -31 24 -50 65 -50zM143 357c-69 0 -105 34 -126 71l47 33c16 -30 37 -53 79 -53c39 0 62 20 62 50v7c0 30 -25 46 -69 46h-35v50h35c42 0 63 18 63 41v7c0 26 -21 44 -56 44
c-31 0 -56 -15 -72 -41l-42 34c24 35 58 58 116 58c71 0 118 -34 118 -87c0 -44 -32 -70 -70 -77v-4c43 -7 76 -33 76 -80c0 -60 -51 -99 -126 -99zM510 698h72l-160 -300h-72zM178 300h72l-160 -300h-72z" />
    <glyph glyph-name="uni215D" unicode="&#x215d;" 
d="M450 -6c-82 0 -127 42 -127 97c0 45 30 71 72 82v4c-37 12 -64 37 -64 76c0 51 43 88 119 88s119 -37 119 -88c0 -39 -27 -64 -64 -76v-4c42 -11 72 -37 72 -82c0 -55 -45 -97 -127 -97zM450 194c39 0 60 18 60 46v7c0 28 -21 46 -60 46s-60 -18 -60 -46v-7
c0 -28 21 -46 60 -46zM450 42c41 0 65 19 65 50v9c0 31 -24 50 -65 50s-65 -19 -65 -50v-9c0 -31 24 -50 65 -50zM148 357c-67 0 -101 33 -120 69l45 34c17 -29 36 -52 75 -52c41 0 66 25 66 61v3c0 34 -27 56 -64 56c-30 0 -48 -15 -59 -27l-53 8l13 189h208v-51h-160
l-9 -117h5c15 29 33 48 75 48c61 0 108 -38 108 -104c0 -67 -48 -117 -130 -117zM510 698h72l-160 -300h-72zM178 300h72l-160 -300h-72z" />
    <glyph glyph-name="uni215E" unicode="&#x215e;" 
d="M450 -6c-82 0 -127 42 -127 97c0 45 30 71 72 82v4c-37 12 -64 37 -64 76c0 51 43 88 119 88s119 -37 119 -88c0 -39 -27 -64 -64 -76v-4c42 -11 72 -37 72 -82c0 -55 -45 -97 -127 -97zM450 194c39 0 60 18 60 46v7c0 28 -21 46 -60 46s-60 -18 -60 -46v-7
c0 -28 21 -46 60 -46zM450 42c41 0 65 19 65 50v9c0 31 -24 50 -65 50s-65 -19 -65 -50v-9c0 -31 24 -50 65 -50zM212 646h-129v-64h-55v116h245v-54l-126 -281h-64zM510 698h72l-160 -300h-72zM178 300h72l-160 -300h-72z" />
    <glyph glyph-name="uni2151" unicode="&#x2151;" 
d="M365 0c84 58 137 103 153 171l-6 1c-14 -27 -40 -52 -87 -52c-60 0 -104 41 -104 104c0 68 50 117 128 117c80 0 128 -52 128 -132c0 -96 -67 -171 -125 -209h-87zM449 166c39 0 65 22 65 58v11c0 36 -26 58 -65 58s-65 -22 -65 -58v-11c0 -36 26 -58 65 -58zM39 413h94
v230l-89 -45l-24 44l108 56h68v-285h83v-50h-240v50zM510 698h72l-160 -300h-72zM178 300h72l-160 -300h-72z" />
    <glyph glyph-name="uni2713" unicode="&#x2713;" 
d="M46 484l76 22l74 -201l75 -216h5l83 216l164 407l71 -25l-280 -687h-86z" />
    <glyph glyph-name="uni274C" unicode="&#x274c;" 
d="M50 55l204 296l-204 292l63 40l188 -271l186 271l63 -40l-204 -296l204 -292l-63 -40l-188 271l-186 -271z" />
    <glyph glyph-name="arrowleft" unicode="&#x2190;" 
d="M227 556l48 -48l-86 -86l-50 -42l1 -3l96 6h336v-68h-336l-96 6l-1 -3l50 -42l86 -86l-48 -48l-207 207z" />
    <glyph glyph-name="arrowup" unicode="&#x2191;" 
d="M507 503l-48 -49l-86 87l-42 50l-3 -1l6 -97v-493h-68v493l6 97l-3 1l-42 -50l-86 -87l-48 49l207 207z" />
    <glyph glyph-name="arrowdown" unicode="&#x2193;" 
d="M93 195l48 49l86 -87l42 -50l3 1l-6 97v493h68v-493l-6 -97l3 -1l42 50l86 87l48 -49l-207 -207z" />
    <glyph glyph-name="arrowright" unicode="&#x2192;" 
d="M374 142l-48 48l86 86l50 42l-1 3l-96 -6h-336v68h336l96 -6l1 3l-50 42l-86 86l48 48l207 -207z" />
    <glyph glyph-name="uni2196" unicode="&#x2196;" 
d="M352 614v-68h-122l-65 6l-1 -3l72 -64l336 -336l-48 -48l-336 336l-64 72l-3 -1l6 -65v-122h-68v293h293z" />
    <glyph glyph-name="uni2197" unicode="&#x2197;" 
d="M541 321h-68v122l6 65l-3 1l-64 -72l-336 -336l-48 48l336 336l72 64l-1 3l-65 -6h-122v68h293v-293z" />
    <glyph glyph-name="uni2199" unicode="&#x2199;" 
d="M59 394h68v-122l-6 -65l3 -1l64 72l336 336l48 -48l-336 -336l-72 -64l1 -3l65 6h122v-68h-293v293z" />
    <glyph glyph-name="uni2198" unicode="&#x2198;" 
d="M248 101v68h122l65 -6l1 3l-72 64l-336 336l48 48l336 -336l64 -72l3 1l-6 65v122h68v-293h-293z" />
    <glyph glyph-name="uni21B0" unicode="&#x21b0;" 
d="M248 698l48 -48l-86 -86l-50 -42l1 -3l96 6h261v-525h-68v457h-193l-96 6l-1 -3l50 -42l86 -86l-48 -48l-207 207z" />
    <glyph glyph-name="uni21B2" unicode="&#x21b2;" 
d="M248 414l48 -48l-86 -86l-50 -42l1 -3l96 6h193v457h68v-525h-261l-96 6l-1 -3l50 -42l86 -86l-48 -48l-207 207z" />
    <glyph glyph-name="uni2B11" unicode="&#x2b11;" 
d="M443 421l-48 -49l-86 87l-42 50l-3 -1l6 -97v-212h304v-68h-372v280l6 97l-3 1l-42 -50l-86 -87l-48 49l207 207z" />
    <glyph glyph-name="uni2B0F" unicode="&#x2b0f;" 
d="M571 421l-48 -49l-86 87l-42 50l-3 -1l6 -97v-280h-372v68h304v212l6 97l-3 1l-42 -50l-86 -87l-48 49l207 207z" />
    <glyph glyph-name="uni2B10" unicode="&#x2b10;" 
d="M29 308l48 49l86 -87l42 -50l3 1l-6 97v280h372v-68h-304v-212l-6 -97l3 -1l42 50l86 87l48 -49l-207 -207z" />
    <glyph glyph-name="uni2B0E" unicode="&#x2b0e;" 
d="M157 308l48 49l86 -87l42 -50l3 1l-6 97v212h-304v68h372v-280l-6 -97l3 -1l42 50l86 87l48 -49l-207 -207z" />
    <glyph glyph-name="uni21B1" unicode="&#x21b1;" 
d="M352 284l-48 48l86 86l50 42l-1 3l-96 -6h-193v-457h-68v525h261l96 -6l1 3l-50 42l-86 86l48 48l207 -207z" />
    <glyph glyph-name="uni21B3" unicode="&#x21b3;" 
d="M352 0l-48 48l86 86l50 42l-1 3l-96 -6h-261v525h68v-457h193l96 -6l1 3l-50 42l-86 86l48 48l207 -207z" />
    <glyph glyph-name="uni21C6" unicode="&#x21c6;" 
d="M374 -12l-48 48l86 86l50 42l-1 3l-96 -6h-336v68h336l96 -6l1 3l-50 42l-86 86l48 48l207 -207zM227 710l48 -48l-86 -86l-50 -42l1 -3l96 6h336v-68h-336l-96 6l-1 -3l50 -42l86 -86l-48 -48l-207 207z" />
    <glyph glyph-name="uni21C4" unicode="&#x21c4;" 
d="M227 402l48 -48l-86 -86l-50 -42l1 -3l96 6h336v-68h-336l-96 6l-1 -3l50 -42l86 -86l-48 -48l-207 207zM372 296l-48 48l86 86l50 42l-1 3l-96 -6h-336v68h336l96 -6l1 3l-50 42l-86 86l48 48l207 -207z" />
    <glyph glyph-name="arrowboth" unicode="&#x2194;" 
d="M207 556l49 -48l-87 -86l-50 -42l1 -3l97 6h166l97 -6l1 3l-50 42l-87 86l49 48l207 -207l-207 -207l-49 48l87 86l50 42l-1 3l-97 -6h-166l-97 6l-1 -3l50 -42l87 -86l-49 -48l-207 207z" />
    <glyph glyph-name="arrowupdn" unicode="&#x2195;" 
d="M93 195l48 49l86 -87l42 -50l3 1l-6 97v288l6 97l-3 1l-42 -50l-86 -87l-48 49l207 207l207 -207l-48 -49l-86 87l-42 50l-3 -1l6 -97v-288l-6 -97l3 -1l42 50l86 87l48 -49l-207 -207z" />
    <glyph glyph-name="uni21B6" unicode="&#x21b6;" 
d="M4 248l48 49l86 -87l42 -50l3 1l-6 97v163c0 124 73 233 206 233c120 0 204 -85 204 -212v-11h-68v11c0 87 -59 146 -136 146c-99 0 -138 -83 -138 -168v-162l-6 -97l3 -1l42 50l86 87l48 -49l-207 -207z" />
    <glyph glyph-name="uni21B7" unicode="&#x21b7;" 
d="M183 248l48 49l86 -87l42 -50l3 1l-6 97v162c0 85 -39 168 -138 168c-77 0 -136 -59 -136 -146v-11h-68v11c0 127 84 212 204 212c133 0 206 -109 206 -233v-163l-6 -97l3 -1l42 50l86 87l48 -49l-207 -207z" />
    <glyph glyph-name="uni21A9" unicode="&#x21a9;" 
d="M227 491l49 -48l-87 -86l-50 -42l1 -3l97 6h137c69 0 132 35 132 118s-63 118 -132 118v68c111 0 206 -62 206 -186s-95 -186 -206 -186h-137l-97 6l-1 -3l50 -42l87 -86l-49 -48l-207 207z" />
    <glyph glyph-name="uni21AA" unicode="&#x21aa;" 
d="M373 77l-49 48l87 86l50 42l-1 3l-97 -6h-137c-111 0 -206 62 -206 186s95 186 206 186v-68c-69 0 -132 -35 -132 -118s63 -118 132 -118h137l97 -6l1 3l-50 42l-87 86l49 48l207 -207z" />
    <glyph glyph-name="uni21BA" unicode="&#x21ba;" 
d="M564 698v-68h-115l-61 5l-1 -3l40 -33c72 -59 147 -140 147 -298c0 -184 -108 -313 -273 -313c-159 0 -275 120 -275 308c0 128 67 238 165 297l38 -49c-88 -56 -135 -138 -135 -248c0 -151 85 -246 207 -246c126 0 205 108 205 251c0 120 -50 187 -121 247l-43 36l-3 -1
l5 -57v-116h-68v288h288z" />
    <glyph glyph-name="uni21BB" unicode="&#x21bb;" 
d="M324 410h-68v116l5 57l-3 1l-43 -36c-71 -60 -121 -127 -121 -247c0 -143 79 -251 205 -251c122 0 207 95 207 246c0 110 -47 192 -135 248l38 49c98 -59 165 -169 165 -297c0 -188 -116 -308 -275 -308c-165 0 -273 129 -273 313c0 158 75 239 147 298l40 33l-1 3
l-61 -5h-115v68h288v-288z" />
    <glyph glyph-name="tilde" unicode="&#x2dc;" 
d="M373 612c-35 0 -59 15 -80 26c-32 17 -53 24 -70 24c-22 0 -38 -10 -58 -27l-33 40c18 27 49 53 95 53c35 0 59 -15 80 -26c32 -17 53 -24 70 -24c22 0 38 10 58 27l33 -40c-18 -27 -49 -53 -95 -53z" />
    <glyph glyph-name="tilde.alt01" 
d="M363 616c-31 0 -52 13 -70 22c-25 13 -39 20 -57 20c-21 0 -38 -10 -57 -27l-33 40c18 27 48 53 91 53c31 0 52 -13 70 -22c25 -13 39 -20 57 -20c21 0 38 10 57 27l33 -40c-18 -27 -48 -53 -91 -53z" />
    <glyph glyph-name="macron" unicode="&#xaf;" 
d="M160 705h280v-68h-280v68z" />
    <glyph glyph-name="dotaccent" unicode="&#x2d9;" 
d="M300 612c-46 0 -63 22 -63 51v16c0 29 17 51 63 51s63 -22 63 -51v-16c0 -29 -17 -51 -63 -51z" />
    <glyph glyph-name="dieresis" unicode="&#xa8;" 
d="M207 618c-41 0 -57 20 -57 46v14c0 26 16 46 57 46s57 -20 57 -46v-14c0 -26 -16 -46 -57 -46zM393 618c-41 0 -57 20 -57 46v14c0 26 16 46 57 46s57 -20 57 -46v-14c0 -26 -16 -46 -57 -46z" />
    <glyph glyph-name="hungarumlaut" unicode="&#x2dd;" 
d="M227 586l-48 22l85 170l69 -33zM387 586l-48 22l85 170l69 -33z" />
    <glyph glyph-name="acute" unicode="&#xb4;" 
d="M307 585l-52 24l85 170l73 -35z" />
    <glyph glyph-name="grave" unicode="`" 
d="M187 744l73 35l85 -170l-52 -24z" />
    <glyph glyph-name="circumflex" unicode="&#x2c6;" 
d="M350 765l111 -143l-45 -31l-117 117l-117 -117l-43 31l111 143h100z" />
    <glyph glyph-name="caron" unicode="&#x2c7;" 
d="M250 599l-111 143l46 31l117 -117l117 117l42 -31l-111 -143h-100z" />
    <glyph glyph-name="breve" unicode="&#x2d8;" 
d="M300 595c-107 0 -142 90 -161 151l51 22l21 -34c31 -50 45 -74 89 -74s58 24 89 74l21 34l51 -22c-19 -61 -54 -151 -161 -151z" />
    <glyph glyph-name="ring" unicode="&#x2da;" 
d="M300 576c-65 0 -116 49 -116 115s51 115 116 115s116 -49 116 -115s-51 -115 -116 -115zM300 625c36 0 58 20 58 55v22c0 35 -22 55 -58 55s-58 -20 -58 -55v-22c0 -35 22 -55 58 -55z" />
    <glyph glyph-name="ringacute" 
d="M311 814l-41 26l75 116l60 -37zM300 566c-65 0 -116 49 -116 115s51 115 116 115s116 -49 116 -115s-51 -115 -116 -115zM300 615c36 0 58 20 58 55v22c0 35 -22 55 -58 55s-58 -20 -58 -55v-22c0 -35 22 -55 58 -55z" />
    <glyph glyph-name="uni02BB" unicode="&#x2bb;" 
d="M319 776h61l-28 -189h-109z" />
    <glyph glyph-name="uni02BC" unicode="&#x2bc;" 
d="M251 551h-61l7 189h103z" />
    <glyph glyph-name="cedilla" unicode="&#xb8;" 
d="M312 -207c-54 0 -85 22 -99 41l38 41c12 -15 32 -28 61 -28c25 0 44 10 44 31c0 18 -12 33 -68 41l-28 4l19 97h50l-16 -81l3 -3c13 4 27 6 39 6c39 0 68 -23 68 -66c0 -57 -52 -83 -111 -83z" />
    <glyph glyph-name="ogonek" unicode="&#x2db;" 
d="M228 -207c-61 0 -109 27 -109 80c0 48 40 88 115 124l-6 15l65 7l7 -19c-103 -65 -113 -94 -113 -114c0 -28 21 -37 42 -37c22 0 39 10 52 26l40 -41c-13 -22 -43 -41 -93 -41z" />
    <glyph glyph-name="uni0303" unicode="&#x303;" horiz-adv-x="0" 
d="M73 612c-35 0 -59 15 -80 26c-32 17 -53 24 -70 24c-22 0 -38 -10 -58 -27l-33 40c18 27 49 53 95 53c35 0 59 -15 80 -26c32 -17 53 -24 70 -24c22 0 38 10 58 27l33 -40c-18 -27 -49 -53 -95 -53z" />
    <glyph glyph-name="uni0304" unicode="&#x304;" horiz-adv-x="0" 
d="M-140 705h280v-68h-280v68z" />
    <glyph glyph-name="uni0307" unicode="&#x307;" horiz-adv-x="0" 
d="M0 612c-46 0 -63 22 -63 51v16c0 29 17 51 63 51s63 -22 63 -51v-16c0 -29 -17 -51 -63 -51z" />
    <glyph glyph-name="uni0308" unicode="&#x308;" horiz-adv-x="0" 
d="M-93 618c-41 0 -57 20 -57 46v14c0 26 16 46 57 46s57 -20 57 -46v-14c0 -26 -16 -46 -57 -46zM93 618c-41 0 -57 20 -57 46v14c0 26 16 46 57 46s57 -20 57 -46v-14c0 -26 -16 -46 -57 -46z" />
    <glyph glyph-name="uni030B" unicode="&#x30b;" horiz-adv-x="0" 
d="M-73 586l-48 22l85 170l69 -33zM87 586l-48 22l85 170l69 -33z" />
    <glyph glyph-name="uni0301" unicode="&#x301;" horiz-adv-x="0" 
d="M7 585l-52 24l85 170l73 -35z" />
    <glyph glyph-name="uni0300" unicode="&#x300;" horiz-adv-x="0" 
d="M-113 744l73 35l85 -170l-52 -24z" />
    <glyph glyph-name="uni0302" unicode="&#x302;" horiz-adv-x="0" 
d="M50 765l111 -143l-45 -31l-117 117l-117 -117l-43 31l111 143h100z" />
    <glyph glyph-name="uni030C" unicode="&#x30c;" horiz-adv-x="0" 
d="M-50 599l-111 143l46 31l117 -117l117 117l42 -31l-111 -143h-100z" />
    <glyph glyph-name="uni0306" unicode="&#x306;" horiz-adv-x="0" 
d="M0 595c-107 0 -142 90 -161 151l51 22l21 -34c31 -50 45 -74 89 -74s58 24 89 74l21 34l51 -22c-19 -61 -54 -151 -161 -151z" />
    <glyph glyph-name="uni030A" unicode="&#x30a;" horiz-adv-x="0" 
d="M0 576c-65 0 -116 49 -116 115s51 115 116 115s116 -49 116 -115s-51 -115 -116 -115zM0 625c36 0 58 20 58 55v22c0 35 -22 55 -58 55s-58 -20 -58 -55v-22c0 -35 22 -55 58 -55z" />
    <glyph glyph-name="uni0309" unicode="&#x309;" horiz-adv-x="0" 
d="M-84 765h109c51 0 70 -25 70 -55c0 -29 -18 -64 -49 -103l-24 -30l-46 23l58 104h-118v61z" />
    <glyph glyph-name="uni0312" unicode="&#x312;" horiz-adv-x="0" 
d="M19 776h61l-28 -189h-109z" />
    <glyph glyph-name="uni0315" unicode="&#x315;" horiz-adv-x="0" 
d="M61 551h-61l7 189h103z" />
    <glyph glyph-name="uni031B" unicode="&#x31b;" horiz-adv-x="0" 
d="M77 526c0 -35 -13 -63 -63 -63h-91v53h83v112h71v-102z" />
    <glyph glyph-name="uni0327" unicode="&#x327;" horiz-adv-x="0" 
d="M12 -207c-54 0 -85 22 -99 41l38 41c12 -15 32 -28 61 -28c25 0 44 10 44 31c0 18 -12 33 -68 41l-28 4l19 97h50l-16 -81l3 -3c13 4 27 6 39 6c39 0 68 -23 68 -66c0 -57 -52 -83 -111 -83z" />
    <glyph glyph-name="uni0323" unicode="&#x323;" horiz-adv-x="0" 
d="M0 -172c-41 0 -57 20 -57 46v14c0 26 16 46 57 46s57 -20 57 -46v-14c0 -26 -16 -46 -57 -46z" />
    <glyph glyph-name="uni0326" unicode="&#x326;" horiz-adv-x="0" 
d="M-52 -62h109l-76 -189h-61z" />
    <glyph glyph-name="uni0328" unicode="&#x328;" horiz-adv-x="0" 
d="M-72 -207c-61 0 -109 27 -109 80c0 48 40 88 115 124l-6 15l65 7l7 -19c-103 -65 -113 -94 -113 -114c0 -28 21 -37 42 -37c22 0 39 10 52 26l40 -41c-13 -22 -43 -41 -93 -41z" />
    <glyph glyph-name="uni03060301" horiz-adv-x="0" 
d="M-1 585c-107 0 -146 80 -165 139l47 23l21 -32c32 -48 54 -66 98 -66s66 18 98 66l21 32l47 -23c-21 -65 -63 -139 -167 -139zM7 708l-49 23l85 170l70 -34z" />
    <glyph glyph-name="uni03060300" horiz-adv-x="0" 
d="M1 585c-104 0 -146 74 -167 139l47 23l21 -32c32 -48 54 -66 98 -66s66 18 98 66l21 32l47 -23c-19 -59 -58 -139 -165 -139zM-113 867l70 34l85 -170l-49 -23z" />
    <glyph glyph-name="uni03060309" horiz-adv-x="0" 
d="M1 585c-104 0 -146 74 -167 139l47 23l21 -32c32 -48 54 -66 98 -66s66 18 98 66l21 32l47 -23c-19 -59 -58 -139 -165 -139zM-85 890h94c51 0 70 -25 70 -55c0 -29 -18 -64 -49 -103l-24 -30l-46 23l58 104h-103v61z" />
    <glyph glyph-name="uni03060303" horiz-adv-x="0" 
d="M1 585c-104 0 -146 74 -167 139l47 23l21 -32c32 -48 54 -66 98 -66s66 18 98 66l21 32l47 -23c-19 -59 -58 -139 -165 -139zM72 769c-35 0 -59 15 -80 26c-32 17 -53 24 -70 24c-22 0 -38 -10 -58 -27l-31 36c18 27 49 53 95 53c35 0 59 -15 80 -26
c32 -17 53 -24 70 -24c22 0 38 10 58 27l31 -36c-18 -27 -49 -53 -95 -53z" />
    <glyph glyph-name="uniF6D7" unicode="&#xf6d7;" horiz-adv-x="0" 
d="M12 712l-49 23l85 170l70 -34zM-99 597c-41 0 -57 20 -57 46v14c0 26 16 46 57 46s57 -20 57 -46v-14c0 -26 -16 -46 -57 -46zM99 597c-41 0 -57 20 -57 46v14c0 26 16 46 57 46s57 -20 57 -46v-14c0 -26 -16 -46 -57 -46z" />
    <glyph glyph-name="uni0308030C" horiz-adv-x="0" 
d="M-44 729l-116 144l42 30l117 -115l117 115l44 -30l-116 -144h-88zM-99 597c-41 0 -57 20 -57 46v14c0 26 16 46 57 46s57 -20 57 -46v-14c0 -26 -16 -46 -57 -46zM99 597c-41 0 -57 20 -57 46v14c0 26 16 46 57 46s57 -20 57 -46v-14c0 -26 -16 -46 -57 -46z" />
    <glyph glyph-name="uniF6D8" unicode="&#xf6d8;" horiz-adv-x="0" 
d="M-118 871l70 34l85 -170l-49 -23zM-99 597c-41 0 -57 20 -57 46v14c0 26 16 46 57 46s57 -20 57 -46v-14c0 -26 -16 -46 -57 -46zM99 597c-41 0 -57 20 -57 46v14c0 26 16 46 57 46s57 -20 57 -46v-14c0 -26 -16 -46 -57 -46z" />
    <glyph glyph-name="uni03020301" horiz-adv-x="0" 
d="M154 712l-49 23l85 170l70 -34zM50 755l110 -144l-44 -30l-117 119l-117 -119l-42 30l110 144h100z" />
    <glyph glyph-name="uni03020306" horiz-adv-x="0" 
d="M46 721l112 -103l-34 -34l-125 87l-125 -87l-32 34l112 103h92zM0 745c-102 0 -140 65 -159 114l47 23l20 -29c27 -40 54 -48 92 -48s65 8 92 48l20 29l47 -23c-19 -49 -57 -114 -159 -114z" />
    <glyph glyph-name="uni03020300" horiz-adv-x="0" 
d="M-260 871l70 34l85 -170l-49 -23zM50 755l110 -144l-44 -30l-117 119l-117 -119l-42 30l110 144h100z" />
    <glyph glyph-name="uni03020309" horiz-adv-x="0" 
d="M53 894h109c51 0 70 -25 70 -55c0 -29 -18 -64 -49 -103l-24 -30l-46 23l58 104h-118v61zM50 755l110 -144l-44 -30l-117 119l-117 -119l-42 30l110 144h100z" />
    <glyph glyph-name="uni03080304" horiz-adv-x="0" 
d="M-140 825h280v-68h-280v68zM-99 597c-41 0 -57 20 -57 46v14c0 26 16 46 57 46s57 -20 57 -46v-14c0 -26 -16 -46 -57 -46zM99 597c-41 0 -57 20 -57 46v14c0 26 16 46 57 46s57 -20 57 -46v-14c0 -26 -16 -46 -57 -46z" />
    <glyph glyph-name="uni03020303" horiz-adv-x="0" 
d="M-72 892c35 0 59 -15 80 -26c32 -17 53 -24 70 -24c22 0 38 10 58 27l31 -36c-18 -27 -49 -53 -95 -53c-35 0 -59 15 -80 26c-32 17 -53 24 -70 24c-22 0 -38 -10 -58 -27l-31 36c18 27 49 53 95 53zM50 745l110 -134l-44 -30l-117 111l-117 -111l-42 30l110 134h100z
" />
    <glyph glyph-name="tilde.case" 
d="M373 782c-35 0 -59 15 -80 26c-32 17 -53 24 -70 24c-22 0 -38 -10 -58 -27l-33 40c18 27 49 53 95 53c35 0 59 -15 80 -26c32 -17 53 -24 70 -24c22 0 38 10 58 27l33 -40c-18 -27 -49 -53 -95 -53z" />
    <glyph glyph-name="tilde.alt01.case" 
d="M363 786c-31 0 -52 13 -70 22c-25 13 -39 20 -57 20c-21 0 -38 -10 -57 -27l-33 40c18 27 48 53 91 53c31 0 52 -13 70 -22c25 -13 39 -20 57 -20c21 0 38 10 57 27l33 -40c-18 -27 -48 -53 -91 -53z" />
    <glyph glyph-name="macron.case" 
d="M160 875h280v-68h-280v68z" />
    <glyph glyph-name="dotaccent.case" 
d="M300 782c-46 0 -63 22 -63 51v16c0 29 17 51 63 51s63 -22 63 -51v-16c0 -29 -17 -51 -63 -51z" />
    <glyph glyph-name="dieresis.case" 
d="M207 788c-41 0 -57 20 -57 46v14c0 26 16 46 57 46s57 -20 57 -46v-14c0 -26 -16 -46 -57 -46zM393 788c-41 0 -57 20 -57 46v14c0 26 16 46 57 46s57 -20 57 -46v-14c0 -26 -16 -46 -57 -46z" />
    <glyph glyph-name="hungarumlaut.case" 
d="M227 756l-48 22l85 170l69 -33zM387 756l-48 22l85 170l69 -33z" />
    <glyph glyph-name="acute.case" 
d="M307 755l-52 24l85 170l73 -35z" />
    <glyph glyph-name="grave.case" 
d="M187 914l73 35l85 -170l-52 -24z" />
    <glyph glyph-name="circumflex.case" 
d="M350 935l111 -143l-45 -31l-117 117l-117 -117l-43 31l111 143h100z" />
    <glyph glyph-name="caron.case" 
d="M250 769l-111 143l45 31l117 -117l117 117l43 -31l-111 -143h-100z" />
    <glyph glyph-name="breve.case" 
d="M300 765c-107 0 -142 90 -161 151l51 22l21 -34c31 -50 45 -74 89 -74s58 24 89 74l21 34l51 -22c-19 -61 -54 -151 -161 -151z" />
    <glyph glyph-name="ring.case" 
d="M300 746c-65 0 -116 49 -116 115s51 115 116 115s116 -49 116 -115s-51 -115 -116 -115zM300 795c36 0 58 20 58 55v22c0 35 -22 55 -58 55s-58 -20 -58 -55v-22c0 -35 22 -55 58 -55z" />
    <glyph glyph-name="ringacute.case" 
d="M314 987l-47 19l73 113l70 -25zM300 736c-65 0 -116 49 -116 115s51 115 116 115s116 -49 116 -115s-51 -115 -116 -115zM300 785c36 0 58 20 58 55v22c0 35 -22 55 -58 55s-58 -20 -58 -55v-22c0 -35 22 -55 58 -55z" />
    <glyph glyph-name="hookabovecomb.case" horiz-adv-x="0" 
d="M-84 935h109c51 0 70 -25 70 -55c0 -29 -18 -64 -49 -103l-24 -30l-46 23l58 104h-118v61z" />
    <glyph glyph-name="uni03060301.ccmp0" horiz-adv-x="0" 
d="M-1 755c-107 0 -146 80 -165 139l47 23l21 -32c32 -48 54 -66 98 -66s66 18 98 66l21 32l47 -23c-21 -65 -63 -139 -167 -139zM7 878l-49 23l85 170l70 -34z" />
    <glyph glyph-name="uni03060300.ccmp0" horiz-adv-x="0" 
d="M1 755c-104 0 -146 74 -167 139l47 23l21 -32c32 -48 54 -66 98 -66s66 18 98 66l21 32l47 -23c-19 -59 -58 -139 -165 -139zM-113 1037l70 34l85 -170l-49 -23z" />
    <glyph glyph-name="uni03060309.ccmp0" horiz-adv-x="0" 
d="M-85 1060h94c51 0 70 -25 70 -55c0 -29 -18 -64 -49 -103l-24 -30l-46 23l58 104h-103v61zM1 755c-104 0 -146 74 -167 139l47 23l21 -32c32 -48 54 -66 98 -66s66 18 98 66l21 32l47 -23c-19 -59 -58 -139 -165 -139z" />
    <glyph glyph-name="uni03060303.ccmp0" horiz-adv-x="0" 
d="M72 939c-35 0 -59 15 -80 26c-32 17 -53 24 -70 24c-22 0 -38 -10 -58 -27l-31 36c18 27 49 53 95 53c35 0 59 -15 80 -26c32 -17 53 -24 70 -24c22 0 38 10 58 27l31 -36c-18 -27 -49 -53 -95 -53zM1 755c-104 0 -146 74 -167 139l47 23l21 -32c32 -48 54 -66 98 -66
s66 18 98 66l21 32l47 -23c-19 -59 -58 -139 -165 -139z" />
    <glyph glyph-name="uniF6D7.case" horiz-adv-x="0" 
d="M12 882l-49 23l85 170l70 -34zM-99 767c-41 0 -57 20 -57 46v14c0 26 16 46 57 46s57 -20 57 -46v-14c0 -26 -16 -46 -57 -46zM99 767c-41 0 -57 20 -57 46v14c0 26 16 46 57 46s57 -20 57 -46v-14c0 -26 -16 -46 -57 -46z" />
    <glyph glyph-name="uni0308030C.ccmp0" horiz-adv-x="0" 
d="M-44 899l-116 144l44 30l117 -115l117 115l42 -30l-116 -144h-88zM-99 767c-41 0 -57 20 -57 46v14c0 26 16 46 57 46s57 -20 57 -46v-14c0 -26 -16 -46 -57 -46zM99 767c-41 0 -57 20 -57 46v14c0 26 16 46 57 46s57 -20 57 -46v-14c0 -26 -16 -46 -57 -46z" />
    <glyph glyph-name="uniF6D8.case" horiz-adv-x="0" 
d="M-118 1041l70 34l85 -170l-49 -23zM-99 767c-41 0 -57 20 -57 46v14c0 26 16 46 57 46s57 -20 57 -46v-14c0 -26 -16 -46 -57 -46zM99 767c-41 0 -57 20 -57 46v14c0 26 16 46 57 46s57 -20 57 -46v-14c0 -26 -16 -46 -57 -46z" />
    <glyph glyph-name="uni03020301.ccmp0" horiz-adv-x="0" 
d="M154 882l-49 23l85 170l70 -34zM50 925l110 -144l-44 -30l-117 119l-117 -119l-42 30l110 144h100z" />
    <glyph glyph-name="uni03020306.ccmp0" horiz-adv-x="0" 
d="M46 891l112 -103l-34 -34l-125 87l-125 -87l-32 34l112 103h92zM0 915c-102 0 -140 65 -159 114l47 23l20 -29c27 -40 54 -48 92 -48s65 8 92 48l20 29l47 -23c-19 -49 -57 -114 -159 -114z" />
    <glyph glyph-name="uni03020300.ccmp0" horiz-adv-x="0" 
d="M-260 1041l70 34l85 -170l-49 -23zM50 925l110 -144l-44 -30l-117 119l-117 -119l-42 30l110 144h100z" />
    <glyph glyph-name="uni03020309.ccmp0" horiz-adv-x="0" 
d="M53 1064h109c51 0 70 -25 70 -55c0 -29 -18 -64 -49 -103l-24 -30l-46 23l58 104h-118v61zM50 925l110 -144l-44 -30l-117 119l-117 -119l-42 30l110 144h100z" />
    <glyph glyph-name="uni03080304.ccmp0" horiz-adv-x="0" 
d="M-140 995h280v-68h-280v68zM-99 767c-41 0 -57 20 -57 46v14c0 26 16 46 57 46s57 -20 57 -46v-14c0 -26 -16 -46 -57 -46zM99 767c-41 0 -57 20 -57 46v14c0 26 16 46 57 46s57 -20 57 -46v-14c0 -26 -16 -46 -57 -46z" />
    <glyph glyph-name="uni03020303.ccmp0" horiz-adv-x="0" 
d="M-72 1062c35 0 59 -15 80 -26c32 -17 53 -24 70 -24c22 0 38 10 58 27l31 -36c-18 -27 -49 -53 -95 -53c-35 0 -59 15 -80 26c-32 17 -53 24 -70 24c-22 0 -38 -10 -58 -27l-31 36c18 27 49 53 95 53zM50 915l110 -134l-44 -30l-117 111l-117 -111l-42 30l110 134h100z
" />
    <glyph glyph-name="space" unicode=" " 
 />
    <glyph glyph-name="uni00A0" unicode="&#xa0;" 
 />
    <glyph glyph-name="uniEBE7" unicode="&#xebe7;" 
d="M466 160c-27 0 -47 17 -54 43l-38 142l121 -82c17 -12 27 -28 27 -48c0 -30 -25 -55 -56 -55zM134 160c-31 0 -56 25 -56 55c0 20 10 36 27 48l121 82l-38 -142c-7 -26 -27 -43 -54 -43zM374 252h-148v37h148v-37zM374 178h-148v37h148v-37zM300 104c-27 0 -52 14 -64 37
h128c-12 -23 -37 -37 -64 -37zM300 363c27 0 52 -14 64 -37h-128c12 23 37 37 64 37zM342 373c-18 0 -33 14 -33 32s15 32 33 32s33 -14 33 -32s-15 -32 -33 -32zM258 373c-18 0 -33 14 -33 32s15 32 33 32s33 -14 33 -32s-15 -32 -33 -32zM152 2v19h116l7 -19h-123zM325 2
l7 19h116v-19h-123zM152 39v19h104l6 -19h-110zM338 39l6 19h104v-19h-110zM313 -35l6 19h92v-19h-98zM189 -35v19h92l6 -19h-98zM152 -183v19h93v-19h-93zM355 -183v19h93v-19h-93zM152 -220v19h93v-19h-93zM355 -220v19h93v-19h-93zM257 -90h86l-6 -19h-74zM355 -109v19
h56v-19h-56zM355 -72v19h56v-19h-56zM355 -146v19h56v-19h-56zM189 -109v19h56v-19h-56zM189 -72v19h56v-19h-56zM189 -146v19h56v-19h-56zM269 -127h62l-7 -19h-48zM251 -72l-6 19h48l7 -19h-49zM300 -72l7 19h48l-6 -19h-49zM282 -164h36l-6 -19h-24zM294 -201h12l-6 -19z
M263 586c0 21 16 37 37 37s37 -16 37 -37s-16 -37 -37 -37s-37 16 -37 37zM217 586c0 -47 36 -83 83 -83s83 36 83 83s-36 83 -83 83s-83 -36 -83 -83zM448 586c-24 -60 -82 -102 -148 -102s-124 42 -148 102c24 60 82 102 148 102s124 -42 148 -102zM300 734
c-56 0 -106 -26 -139 -65v28c28 50 80 83 139 83s111 -33 139 -83v-28c-33 39 -83 65 -139 65z" />
  </font>
</defs>
</svg>
