<svg width="85" height="38" viewBox="0 0 85 38" fill="none" xmlns="http://www.w3.org/2000/svg">
<path d="M7.89865 0H0V28.49H0.376126H14.2928L16.1734 25.9L18.8063 22.94L22.9437 22.2L26.705 24.79L29.3378 28.49H33.4752V22.94H32.3468L31.5946 18.87L28.9617 14.8L23.3198 12.21L19.1824 9.24998L16.1734 5.17999L12.036 1.85L7.89865 0Z" transform="translate(34.8513 1.73999) scale(-1 1)" fill="#D0B99F"/>
<path d="M0 8.13999V0.739999V0H3.76126L8.27477 2.22L12.036 8.13999H0Z" transform="translate(31.4662 5.07007) scale(-1 1)" fill="white"/>
<path d="M42.1261 0H5.26576L3.00901 1.11L1.5045 5.17999L0 28.86H8.6509L9.77928 26.27L13.9167 22.94H19.5586L23.6959 28.12H42.1261V0Z" transform="translate(78.1058 1.73999) scale(-1 1)" fill="#D0B99F"/>
<path d="M5.98807 0H43.0052M51.3522 0H43.0052M43.0052 0V29.3687H24.3152H57.1588M72.7641 29.3687H77.482V23.5875H75.8489M9.25429 29.3687H0V26.3625H1.08874" transform="translate(78.4819 1.12329) scale(-1 1)" stroke="black" stroke-width="2"/>
<path d="M5.29007 0C4.77499 0.0164104 4.30784 0.67267 3.80594 0.85542C3.41972 0.996049 3.01872 1.84684 2.78729 2.24387C1.53102 4.39906 0.920956 7.04421 0.550983 9.63744C0.412836 10.6057 0.432927 11.5621 0.432927 12.5519C0.432927 13.0406 0.38664 13.5096 0.372213 13.9876C0.35236 14.6454 0.337268 15.3481 0.308126 16.0166C0.260249 17.1148 0.117385 18.2048 0.0652689 19.3007C0.00682332 20.5297 0.00792766 21.7548 0.00792766 22.9889C0.00792766 23.708 -0.0323429 24.4389 0.0686419 25.1468C0.127576 25.5598 0.250785 26.8046 0.250785 26.3848" transform="translate(77.9449 1.15466) scale(-1 1)" stroke="black" stroke-width="2" stroke-linecap="round" stroke-linejoin="round"/>
<path d="M0 6.33807C0.064538 6.33807 0.5184 6.39583 0.591216 6.32499C0.645193 6.27248 0.604653 6.02877 0.604653 5.95571C0.604653 5.63204 0.69561 5.41071 0.786049 5.10277C1.03207 4.26508 1.49601 3.29363 2.14988 2.69099C2.79581 2.09566 3.4496 1.29298 4.31991 0.985098C4.74724 0.833924 5.13317 0.586293 5.57624 0.442612C6.03694 0.293215 6.54689 0.244113 7.02741 0.148493C8.20298 -0.0854366 9.75061 -0.102634 10.7897 0.540652C11.6319 1.06203 12.1286 1.86931 12.8186 2.54066C13.1106 2.82466 13.43 3.29382 13.6013 3.65505C13.8377 4.1533 13.9756 4.71452 14.2429 5.19754C14.4382 5.55024 14.5033 6.00333 14.6192 6.38382C14.6458 6.4714 14.5996 6.71126 14.7267 6.74657C15.0172 6.82732 15.4202 6.74983 15.721 6.74983" transform="translate(69.4985 24.4332) scale(-1 1)" stroke="black" stroke-width="2" stroke-linecap="round" stroke-linejoin="round"/>
<path d="M0 0.154749C0.384523 0.154749 0.769047 0.154749 1.15357 0.154749C1.33122 0.154749 1.50886 0.154749 1.68651 0.154749C1.78639 0.154749 1.60085 0.0567971 1.57857 0" transform="translate(21.9586 30.6345) scale(-1 1)" stroke="black" stroke-width="2" stroke-linecap="round" stroke-linejoin="round"/>
<path d="M0 0.0773747C0.451078 0.0773747 0.900916 0 1.33571 0" transform="translate(21.6549 30.4797) scale(-1 1)" stroke="black" stroke-width="2" stroke-linecap="round" stroke-linejoin="round"/>
<path d="M0 6.69827C0 6.26264 0.0840389 5.89843 0.178353 5.4831C0.267099 5.09229 0.353798 4.47997 0.619189 4.16255C0.778398 3.97212 0.914467 3.66366 1.02974 3.43805C1.15819 3.18665 1.35387 3.04861 1.54124 2.84858C1.6679 2.71336 1.82108 2.60911 1.95179 2.47645C2.18764 2.2371 2.36426 1.9163 2.608 1.69268C3.18007 1.16784 3.96432 1.03776 4.54633 0.563129C4.87119 0.298204 5.3997 0.286019 5.78807 0.191003C6.23351 0.0820251 6.69878 0 7.16105 0C7.81994 0 8.43943 0.0108002 9.05227 0.296384C9.40264 0.459655 9.89352 0.627855 10.1762 0.889151C10.601 1.2817 11.1741 1.51659 11.5896 1.9232C12.0012 2.32602 12.2922 2.81148 12.6564 3.25693C12.9311 3.59299 13.041 4.07408 13.252 4.44576C13.4957 4.87511 13.6907 5.42774 13.7467 5.92109C13.7726 6.1497 13.8382 6.48007 13.9789 6.65217C14.0534 6.74335 14.5103 6.87004 14.5981 6.69827" transform="translate(20.0898 24.4332) scale(-1 1)" stroke="black" stroke-width="2" stroke-linecap="round" stroke-linejoin="round"/>
<path d="M25.6214 23.8314C25.6214 23.2678 25.6035 22.727 25.5573 22.1678C25.5369 21.9203 25.5461 21.4582 25.4696 21.2436C25.3096 20.7949 25.4162 20.0962 25.1694 19.6919C25.0566 19.5071 24.9941 19.103 24.9063 18.8794C24.7708 18.534 24.567 18.2523 24.3599 17.9681C23.9693 17.432 23.6862 16.8338 23.2063 16.4034C22.6249 15.882 21.9252 15.4034 21.277 15.0494C20.663 14.7141 20.1232 14.1773 19.4893 13.8888C19.1928 13.7538 18.9224 13.522 18.6123 13.446C18.3911 13.3918 18.1978 13.2551 17.9849 13.1709C17.8444 13.1153 17.7044 13.1475 17.5599 13.0763C17.0472 12.8239 16.4594 12.6238 15.9206 12.4745C15.6055 12.3872 15.381 12.1712 15.1111 11.9501C14.8604 11.7447 14.5658 11.7589 14.2813 11.6836C14.0473 11.6216 13.8063 11.5597 13.6303 11.3354C13.5138 11.1869 13.439 10.9951 13.3268 10.841C13.2311 10.7098 13.1146 10.6826 13.0232 10.5273C12.9103 10.3353 12.7386 10.2742 12.6252 10.0845C12.4181 9.73805 12.2074 9.41381 11.9877 9.08293C11.4274 8.23911 10.8744 7.38483 10.173 6.7144C9.48737 6.05907 8.89173 5.26367 8.22341 4.5823C7.58879 3.93529 7.04016 3.18075 6.28055 2.7468C5.52603 2.31576 4.80049 1.7843 4.04087 1.35836C2.82681 0.677586 1.3282 0 0 0" transform="translate(28.2122 1) scale(-1 1)" stroke="black" stroke-width="2" stroke-linecap="round" stroke-linejoin="round"/>
<ellipse cx="5.98438" cy="5.85832" rx="5.98438" ry="5.85832" transform="translate(19.2681 26.2833) scale(-1 1)" fill="black" fill-opacity="0.88"/>
<ellipse cx="2.20477" cy="2.15833" rx="2.20477" ry="2.15833" transform="translate(15.4884 29.9834) scale(-1 1)" fill="#A59E9E"/>
<ellipse cx="5.98438" cy="5.85832" rx="5.98438" ry="5.85832" transform="translate(67.7731 26.2833) scale(-1 1)" fill="black" fill-opacity="0.88"/>
<ellipse cx="2.20477" cy="2.15833" rx="2.20477" ry="2.15833" transform="translate(63.9935 29.9834) scale(-1 1)" fill="#A59E9E"/>
<path d="M0.36 4H0.696V2.816H1.376C1.892 2.816 2.172 2.516 2.172 2.012C2.172 1.508 1.892 1.208 1.376 1.208H0.36V4ZM0.696 2.524V1.5H1.368C1.648 1.5 1.816 1.648 1.816 1.908V2.116C1.816 2.376 1.648 2.524 1.368 2.524H0.696ZM4.37844 4H4.59844V3.72H4.31044V2.584C4.31044 2.148 4.00244 1.888 3.51844 1.888C3.09844 1.888 2.83444 2.088 2.73044 2.304L2.94644 2.464C3.05444 2.276 3.22244 2.16 3.49844 2.16C3.81044 2.16 3.99044 2.316 3.99044 2.616V2.82H3.55044C2.93044 2.82 2.66244 3.04 2.66244 3.42C2.66244 3.808 2.93844 4.048 3.37044 4.048C3.70644 4.048 3.90244 3.9 3.99044 3.664H4.01044C4.03444 3.856 4.13044 4 4.37844 4ZM3.42644 3.78C3.16244 3.78 2.99844 3.668 2.99844 3.456V3.372C2.99844 3.172 3.17044 3.06 3.55044 3.06H3.99044V3.4C3.99044 3.612 3.75444 3.78 3.42644 3.78ZM5.21687 1.04V4H5.53688V3.252L5.89287 2.928L6.69687 4H7.09288L6.13688 2.744L6.99288 1.936H6.60088L5.91288 2.568L5.55287 2.908H5.53688V1.04H5.21687ZM8.43131 4.048C8.83931 4.048 9.13531 3.848 9.25931 3.572L9.02331 3.412C8.91531 3.636 8.70731 3.772 8.43131 3.772C8.04331 3.772 7.79931 3.508 7.79931 3.144V3.048H9.32731V2.896C9.32731 2.312 8.96731 1.888 8.41131 1.888C7.85131 1.888 7.46331 2.312 7.46331 2.972C7.46331 3.624 7.83931 4.048 8.43131 4.048ZM8.41131 2.152C8.75131 2.152 8.98331 2.4 8.98331 2.764V2.808H7.79931V2.78C7.79931 2.42 8.05931 2.152 8.41131 2.152ZM10.8937 4H11.6978V3.728H10.7578V2.208H11.6978V1.936H10.7578V1.208H10.4498V1.748C10.4498 1.888 10.3978 1.936 10.2617 1.936H9.74975V2.208H10.4377V3.528C10.4377 3.804 10.5817 4 10.8937 4ZM13.2162 4.048C13.7442 4.048 14.0882 3.812 14.0882 3.404C14.0882 2.956 13.6762 2.876 13.3802 2.832L13.0562 2.784C12.8722 2.756 12.6922 2.7 12.6922 2.484C12.6922 2.272 12.8722 2.156 13.1962 2.156C13.5602 2.156 13.7442 2.3 13.8402 2.416L14.0482 2.22C13.8522 2.012 13.5802 1.888 13.2082 1.888C12.7282 1.888 12.3762 2.092 12.3762 2.504C12.3762 2.952 12.7922 3.032 13.0842 3.076L13.4082 3.124C13.5962 3.152 13.7722 3.208 13.7722 3.424C13.7722 3.668 13.5442 3.78 13.2242 3.78C12.8962 3.78 12.6722 3.664 12.4762 3.456L12.2602 3.644C12.4762 3.888 12.7842 4.048 13.2162 4.048ZM15.6266 4.048C16.0346 4.048 16.3306 3.848 16.4546 3.572L16.2186 3.412C16.1106 3.636 15.9026 3.772 15.6266 3.772C15.2386 3.772 14.9946 3.508 14.9946 3.144V3.048H16.5226V2.896C16.5226 2.312 16.1626 1.888 15.6066 1.888C15.0466 1.888 14.6586 2.312 14.6586 2.972C14.6586 3.624 15.0346 4.048 15.6266 4.048ZM15.6066 2.152C15.9466 2.152 16.1786 2.4 16.1786 2.764V2.808H14.9946V2.78C14.9946 2.42 15.2546 2.152 15.6066 2.152ZM17.0971 3.728V4H18.8211V3.728H18.0211V2.596C18.0211 2.4 18.2371 2.256 18.5971 2.256H19.0251V1.936H18.6611C18.3171 1.936 18.1211 2.108 18.0411 2.304H18.0211V1.936H17.0971V2.208H17.7011V3.728H17.0971ZM20.1835 4H20.5915L21.3315 1.936H21.0155L20.7195 2.8L20.3995 3.732H20.3835L20.0635 2.8L19.7675 1.936H19.4435L20.1835 4ZM22.9139 1.48C23.0979 1.48 23.1659 1.392 23.1659 1.276V1.212C23.1659 1.096 23.0979 1.008 22.9139 1.008C22.7299 1.008 22.6619 1.096 22.6619 1.212V1.276C22.6619 1.392 22.7299 1.48 22.9139 1.48ZM22.0099 3.728V4H23.7699V3.728H23.0739V1.936H22.0099V2.208H22.7539V3.728H22.0099ZM25.2564 4.048C25.6684 4.048 25.9284 3.844 26.0484 3.568L25.8204 3.412C25.7164 3.636 25.5364 3.772 25.2604 3.772C24.8724 3.772 24.6644 3.508 24.6644 3.144V2.792C24.6644 2.428 24.8764 2.164 25.2524 2.164C25.5084 2.164 25.6844 2.288 25.7604 2.5L26.0164 2.364C25.9004 2.084 25.6524 1.888 25.2524 1.888C24.6684 1.888 24.3204 2.312 24.3204 2.968C24.3204 3.62 24.6644 4.048 25.2564 4.048ZM27.6188 4.048C28.0268 4.048 28.3228 3.848 28.4468 3.572L28.2108 3.412C28.1028 3.636 27.8948 3.772 27.6188 3.772C27.2308 3.772 26.9868 3.508 26.9868 3.144V3.048H28.5148V2.896C28.5148 2.312 28.1548 1.888 27.5988 1.888C27.0388 1.888 26.6508 2.312 26.6508 2.972C26.6508 3.624 27.0268 4.048 27.6188 4.048ZM27.5988 2.152C27.9388 2.152 28.1708 2.4 28.1708 2.764V2.808H26.9868V2.78C26.9868 2.42 27.2468 2.152 27.5988 2.152Z" transform="translate(42.5841 6.71204)" fill="black"/>
<path d="M0 0.264442C0.538141 0.264442 1.06996 0.176295 1.59085 0.176295C2.21058 0.176295 2.80777 0 3.42378 0C4.14228 0 4.70303 0.194369 5.39505 0.421148C6.15474 0.670102 6.98117 0.958668 7.64299 1.54258C8.17781 2.01444 8.77883 2.35012 9.303 2.86968C9.90122 3.46264 10.4896 4.12185 10.9284 4.91666C11.3341 5.65139 11.8546 6.30904 12.281 7.00771C12.609 7.54511 12.6443 8.07555 12.8651 8.63844" transform="translate(31.7966 4.83459) scale(-1 1)" stroke="black" stroke-width="2" stroke-linecap="round" stroke-linejoin="round"/>
<path d="M0 0.440737C0.656847 0.604071 1.2172 0.705179 1.9021 0.705179C2.21196 0.705179 2.52674 0.727064 2.83586 0.705179C2.97377 0.695414 3.70824 0.115148 3.52753 0" transform="translate(31.9349 17.3516) scale(-1 1)" stroke="black" stroke-width="2" stroke-linecap="round" stroke-linejoin="round"/>
<path d="M13.0649 8.32499H0V0" transform="translate(31.8477 4.93127) scale(-1 1)" stroke="black" stroke-width="2"/>
</svg>
